<?xml version="1.0" encoding="UTF-8" standalone="no"?>
<!-- Generator: Adobe Illustrator 16.0.0, SVG Export Plug-In . SVG Version: 6.00 Build 0)  -->

<svg
   xmlns:dc="http://purl.org/dc/elements/1.1/"
   xmlns:cc="http://creativecommons.org/ns#"
   xmlns:rdf="http://www.w3.org/1999/02/22-rdf-syntax-ns#"
   xmlns:svg="http://www.w3.org/2000/svg"
   xmlns="http://www.w3.org/2000/svg"
   xmlns:sodipodi="http://sodipodi.sourceforge.net/DTD/sodipodi-0.dtd"
   xmlns:inkscape="http://www.inkscape.org/namespaces/inkscape"
   version="1.1"
   id="Layer_6"
   x="0px"
   y="0px"
   width="100px"
   height="100px"
   viewBox="0 0 100 100"
   enable-background="new 0 0 100 100"
   xml:space="preserve"
   inkscape:version="0.92.2 5c3e80d, 2017-08-06"
   sodipodi:docname="addStable.svg"><metadata
     id="metadata3808"><rdf:RDF><cc:Work
         rdf:about=""><dc:format>image/svg+xml</dc:format><dc:type
           rdf:resource="http://purl.org/dc/dcmitype/StillImage" /><dc:title></dc:title></cc:Work></rdf:RDF></metadata><defs
     id="defs3806" /><sodipodi:namedview
     pagecolor="#ffffff"
     bordercolor="#666666"
     borderopacity="1"
     objecttolerance="10"
     gridtolerance="10"
     guidetolerance="10"
     inkscape:pageopacity="0"
     inkscape:pageshadow="2"
     inkscape:window-width="853"
     inkscape:window-height="623"
     id="namedview3804"
     showgrid="false"
     inkscape:zoom="2.36"
     inkscape:cx="50"
     inkscape:cy="64.40794"
     inkscape:window-x="231"
     inkscape:window-y="26"
     inkscape:window-maximized="0"
     inkscape:current-layer="Layer_6" /><path
     d="m 86.480271,14.373 h -73.808 c -1.644,0 -2.9799998,1.338 -2.9799998,2.98 v 65.293 c 0,1.009 0.5069998,1.899 1.2769998,2.439 v 0.47 h 1.069 c 0.205,0.044 0.416,0.071 0.634,0.071 h 73.809 c 0.218,0 0.429,-0.027 0.633,-0.071 h 0.147 V 85.51 c 1.264,-0.346 2.2,-1.492 2.2,-2.863 V 17.354 c 0,-1.643 -1.337,-2.981 -2.981,-2.981 z m 0.426,2.981 v 8.588 h -19.658 v -9.014 h 19.232 c 0.235,0 0.426,0.191 0.426,0.426 z M 86.701271,83 h -19.453 v -8.09 h 19.658 v 7.736 c 0,0.152 -0.085,0.28 -0.205,0.354 z m -74.455,-0.354 V 74.91 h 9.226 V 83 h -9.021 c -0.12,-0.074 -0.205,-0.202 -0.205,-0.354 z m 30.729,-30.091 v 8.857 h -18.949 V 52.555 Z M 24.026271,50 v -9.581 h 18.949 V 50 Z m 18.949,13.967 v 8.389 h -18.949 v -8.389 z m 0,10.943 V 83 h -18.949 v -8.09 z m 2.555,0 h 19.163 V 83 h -19.163 z m 0,-2.555 v -8.389 h 19.163 v 8.389 z m 0,-10.943 v -8.857 h 19.163 v 8.857 z m 0,-11.412 v -9.581 h 19.163 V 50 Z m 0,-12.136 v -9.368 h 19.163 v 9.368 z m 0,-11.923 v -9.014 h 19.163 v 9.014 z m -2.555,0 h -18.949 v -9.014 h 18.949 z m 0,2.555 v 9.368 h -18.949 v -9.368 h 18.949 z m -21.503,9.368 h -9.226 v -9.368 h 9.226 z m 0,2.555 V 50 h -9.226 v -9.581 z m 0,12.136 v 8.857 h -9.226 v -8.857 z m 0,11.412 v 8.389 h -9.226 v -8.389 z m 45.776,8.388 v -8.389 h 19.658 v 8.389 z m 0,-10.943 v -8.857 h 19.658 v 8.857 z m 0,-11.412 v -9.581 h 19.658 V 50 Z m 0,-12.136 v -9.368 h 19.658 v 9.368 z"
     id="path3802"
     style="fill:#0000fc;fill-opacity:1"
     inkscape:connector-curvature="0" /><text
     xml:space="preserve"
     style="font-style:normal;font-weight:normal;font-size:33.98379135px;line-height:1.25;font-family:sans-serif;letter-spacing:0px;word-spacing:0px;fill:#ee00c7;fill-opacity:1;stroke:none;stroke-width:0.84959477;"
     x="9.8360338"
     y="64.990379"
     id="text3717"
     transform="scale(0.86160802,1.1606206)"><tspan
       sodipodi:role="line"
       id="tspan3715"
       x="9.8360338"
       y="64.990379"
       style="stroke-width:0.84959477;fill:#ee00c7;fill-opacity:1;">Stable</tspan></text>
<text
     xml:space="preserve"
     style="font-style:normal;font-weight:normal;font-size:70.76662445px;line-height:1.25;font-family:sans-serif;letter-spacing:0px;word-spacing:0px;fill:#000000;fill-opacity:1;stroke:none;stroke-width:1.76916552"
     x="21.323019"
     y="59.977276"
     id="text4526"
     transform="scale(1.0690204,0.93543584)"><tspan
       sodipodi:role="line"
       id="tspan4524"
       x="21.323019"
       y="59.977276"
       style="stroke-width:1.76916552">+</tspan></text>
</svg>