<?xml version="1.0" encoding="UTF-8" standalone="no"?>
<!-- Generator: Adobe Illustrator 16.2.1, SVG Export Plug-In . SVG Version: 6.00 Build 0)  -->

<svg
   xmlns:dc="http://purl.org/dc/elements/1.1/"
   xmlns:cc="http://creativecommons.org/ns#"
   xmlns:rdf="http://www.w3.org/1999/02/22-rdf-syntax-ns#"
   xmlns:svg="http://www.w3.org/2000/svg"
   xmlns="http://www.w3.org/2000/svg"
   xmlns:sodipodi="http://sodipodi.sourceforge.net/DTD/sodipodi-0.dtd"
   xmlns:inkscape="http://www.inkscape.org/namespaces/inkscape"
   version="1.2"
   id="Layer_1"
   x="0px"
   y="0px"
   width="24px"
   height="24px"
   viewBox="0 0 24 24"
   xml:space="preserve"
   inkscape:version="0.48.4 r9939"
   sodipodi:docname="arrow48_r.svg"><metadata
     id="metadata9"><rdf:RDF><cc:Work
         rdf:about=""><dc:format>image/svg+xml</dc:format><dc:type
           rdf:resource="http://purl.org/dc/dcmitype/StillImage" /><dc:title /></cc:Work></rdf:RDF></metadata><defs
     id="defs7" /><sodipodi:namedview
     pagecolor="#ffffff"
     bordercolor="#666666"
     borderopacity="1"
     objecttolerance="10"
     gridtolerance="10"
     guidetolerance="10"
     inkscape:pageopacity="0"
     inkscape:pageshadow="2"
     inkscape:window-width="640"
     inkscape:window-height="480"
     id="namedview5"
     showgrid="false"
     inkscape:zoom="9.8333333"
     inkscape:cx="12"
     inkscape:cy="12"
     inkscape:window-x="0"
     inkscape:window-y="0"
     inkscape:window-maximized="0"
     inkscape:current-layer="Layer_1" /><path
     d="m 3.2676872,14.862286 9.8158328,0 -2.149076,2.081394 c -1.0582788,1.024948 -1.0582788,2.689013 0,3.711337 1.058278,1.024949 2.773745,1.024949 3.832023,0 l 8.69116,-8.41744 -8.69116,-8.4174386 c -0.528461,-0.513132 -1.222237,-0.769041 -1.916011,-0.769041 -0.693775,0 -1.386195,0.255909 -1.916012,0.769041 -1.0582788,1.024948 -1.0582788,2.689012 0,3.711336 l 2.149076,2.081394 -9.8158328,0 c -1.495953,0 -2.71006,1.1758706 -2.71006,2.6247086 0,1.450151 1.214107,2.624709 2.71006,2.624709 z"
     id="path3"
     inkscape:connector-curvature="0"
     style="fill:#0000fd;fill-opacity:1" /></svg>