<?xml version="1.0" encoding="UTF-8" standalone="no"?>
<!-- Generator: Adobe Illustrator 16.0.0, SVG Export Plug-In . SVG Version: 6.00 Build 0)  -->

<svg
   xmlns:dc="http://purl.org/dc/elements/1.1/"
   xmlns:cc="http://creativecommons.org/ns#"
   xmlns:rdf="http://www.w3.org/1999/02/22-rdf-syntax-ns#"
   xmlns:svg="http://www.w3.org/2000/svg"
   xmlns="http://www.w3.org/2000/svg"
   xmlns:sodipodi="http://sodipodi.sourceforge.net/DTD/sodipodi-0.dtd"
   xmlns:inkscape="http://www.inkscape.org/namespaces/inkscape"
   version="1.1"
   id="Layer_2"
   x="0px"
   y="0px"
   width="100px"
   height="100px"
   viewBox="0 0 100 100"
   enable-background="new 0 0 100 100"
   xml:space="preserve"
   inkscape:version="0.48.4 r9939"
   sodipodi:docname="bananasplit.svg"><metadata
     id="metadata9"><rdf:RDF><cc:Work
         rdf:about=""><dc:format>image/svg+xml</dc:format><dc:type
           rdf:resource="http://purl.org/dc/dcmitype/StillImage" /><dc:title></dc:title></cc:Work></rdf:RDF></metadata><defs
     id="defs7" /><sodipodi:namedview
     pagecolor="#ffffff"
     bordercolor="#666666"
     borderopacity="1"
     objecttolerance="10"
     gridtolerance="10"
     guidetolerance="10"
     inkscape:pageopacity="0"
     inkscape:pageshadow="2"
     inkscape:window-width="822"
     inkscape:window-height="621"
     id="namedview5"
     showgrid="false"
     inkscape:zoom="2.36"
     inkscape:cx="50"
     inkscape:cy="50"
     inkscape:window-x="352"
     inkscape:window-y="212"
     inkscape:window-maximized="0"
     inkscape:current-layer="Layer_2" /><path
     d="M 90.922952,0.35405111 H 10.346229 c -4.128179,0 -7.4878077,3.29937039 -7.4878077,7.35499849 V 86.782266 c 0,4.055628 3.3596287,7.356211 7.4878077,7.356211 h 80.576723 c 4.128179,0 7.487804,-3.300583 7.487804,-7.356211 V 7.7090496 c 0,-4.056842 -3.359625,-7.35499849 -7.487804,-7.35499849 z M 85.847058,8.7262946 c 1.773103,0 3.208884,1.4117614 3.208884,3.1524884 0,1.741943 -1.435781,3.15249 -3.208884,3.15249 -1.773103,0 -3.208884,-1.411762 -3.208884,-3.15249 0,-1.740727 1.435781,-3.1524884 3.208884,-3.1524884 z m -11.498604,0 c 1.773103,0 3.208884,1.4117614 3.208884,3.1524884 0,1.741943 -1.435781,3.15249 -3.208884,3.15249 -1.773103,0 -3.208884,-1.411762 -3.208884,-3.15249 0,-1.740727 1.435781,-3.1524884 3.208884,-3.1524884 z M 11.415033,22.857263 H 48.988755 V 85.731031 H 11.415033 V 22.857263 z M 89.854148,85.731031 H 52.282897 V 22.857263 h 37.571251 v 62.873768 z"
     id="path3"
     inkscape:connector-curvature="0" /><rect
     style="fill:#ffffff;fill-opacity:1;fill-rule:evenodd;stroke:#60594a;stroke-width:0;stroke-miterlimit:4;stroke-opacity:1;stroke-dasharray:none;stroke-dashoffset:0"
     id="rect3760"
     width="22.457626"
     height="63.135593"
     x="40.677967"
     y="22.881355" /><rect
     style="fill:#e9ce00;fill-opacity:1;fill-rule:evenodd;stroke:#60594a;stroke-width:0;stroke-miterlimit:4;stroke-opacity:1;stroke-dasharray:none;stroke-dashoffset:0"
     id="rect2986"
     width="74.576271"
     height="29.237288"
     x="12.288135"
     y="24.576275" /><rect
     y="55.932201"
     x="12.711864"
     height="25.847456"
     width="73.728813"
     id="rect3756"
     style="fill:#e94700;fill-opacity:1;fill-rule:evenodd;stroke:#60594a;stroke-width:0;stroke-miterlimit:4;stroke-opacity:1;stroke-dasharray:none;stroke-dashoffset:0" /></svg>