<?xml version="1.0" encoding="UTF-8" standalone="no"?>
<!-- Generator: Adobe Illustrator 16.0.4, SVG Export Plug-In . SVG Version: 6.00 Build 0)  -->

<svg
   xmlns:dc="http://purl.org/dc/elements/1.1/"
   xmlns:cc="http://creativecommons.org/ns#"
   xmlns:rdf="http://www.w3.org/1999/02/22-rdf-syntax-ns#"
   xmlns:svg="http://www.w3.org/2000/svg"
   xmlns="http://www.w3.org/2000/svg"
   xmlns:sodipodi="http://sodipodi.sourceforge.net/DTD/sodipodi-0.dtd"
   xmlns:inkscape="http://www.inkscape.org/namespaces/inkscape"
   version="1.1"
   id="Capa_1"
   x="0px"
   y="0px"
   width="32px"
   height="32px"
   viewBox="0 0 32 32"
   enable-background="new 0 0 32 32"
   xml:space="preserve"
   inkscape:version="0.48.4 r9939"
   sodipodi:docname="banana4.svg"><metadata
     id="metadata3988"><rdf:RDF><cc:Work
         rdf:about=""><dc:format>image/svg+xml</dc:format><dc:type
           rdf:resource="http://purl.org/dc/dcmitype/StillImage" /></cc:Work></rdf:RDF></metadata><defs
     id="defs3986" /><sodipodi:namedview
     pagecolor="#ffffff"
     bordercolor="#666666"
     borderopacity="1"
     objecttolerance="10"
     gridtolerance="10"
     guidetolerance="10"
     inkscape:pageopacity="0"
     inkscape:pageshadow="2"
     inkscape:window-width="640"
     inkscape:window-height="480"
     id="namedview3984"
     showgrid="false"
     inkscape:zoom="7.375"
     inkscape:cx="16"
     inkscape:cy="16"
     inkscape:window-x="306"
     inkscape:window-y="429"
     inkscape:window-maximized="0"
     inkscape:current-layer="Capa_1" /><path
     d="M 25.382453,5.890727 C 24.355409,5.4066254 23.958562,5.2867971 23.958562,5.2867971 c 0,0 -1.069798,-1.5146697 -1.725998,-2.4979345 C 21.577145,1.8049939 21.434886,1.064222 21.097013,1.0061664 20.701011,0.88722076 20.198863,0.954387 20.09017,1.0382554 c -0.166819,0.022976 -0.476146,0.6861568 -0.701936,0.6473602 -0.166822,0.022977 -0.989248,0.4445474 -0.75505,0.6898753 0.233355,0.2444453 1.48183,2.0472822 1.900442,2.682093 0.304906,0.615273 0.836444,1.2702251 0.517931,1.7274765 -0.318514,0.4572523 -0.300263,2.2530559 -0.633311,3.6808676 -0.2757,1.489307 -3.002057,6.038847 -4.884625,7.917483 -1.882569,1.878635 -3.958803,3.160371 -6.7723022,4.161983 -2.8142834,1.002214 -5.2821589,0.885066 -6.0134877,0.810309 0,0 -0.8350057,0.11252 -1.0945492,0.631542 -0.2629337,0.415899 -0.3590472,0.808821 -0.058315,1.321571 0.3007318,0.512749 0.309138,0.71928 0.3756725,0.986703 0.066535,0.267423 0.5265234,0.551547 0.7523145,0.590344 0.2257916,0.0388 1.549335,0.931639 1.7211711,1.012067 0.2291821,0.141923 4.0136328,2.328122 7.700719,2.142041 3.687088,-0.186082 6.151573,-0.172059 9.483378,-2.211119 3.218879,-2.059198 4.556219,-3.62134 6.058756,-5.206741 1.502535,-1.585399 2.855191,-4.118706 2.699698,-6.551876 C 30.23275,13.635854 30.169199,10.707239 28.752276,8.9271002 27.287257,7.2928817 26.410279,6.3742258 25.382453,5.890727 z m 4.044683,8.579763 c 0.42683,2.223802 -0.595513,4.609516 -1.327029,5.917221 -0.730673,1.308586 -2.876238,3.601634 -5.323255,5.384021 -2.388107,1.842673 -6.253997,3.124535 -10.054794,3.291078 C 8.9802343,29.291127 4.6320574,27.006591 4.1139403,26.661576 3.5418688,26.358194 3.6295757,25.75874 3.8427878,25.488483 c 0.2132126,-0.270258 1.6244627,0.02313 3.5244391,-0.06058 1.9008188,-0.08283 3.9424571,-0.80763 6.9657791,-2.182624 3.023323,-1.374995 5.86998,-4.316285 5.979455,-4.400757 0.108687,-0.08386 0.538508,-0.521256 0.142444,-0.64169 -0.396785,-0.11834 -0.756675,0.689596 -1.511724,1.379473 -0.701939,0.64736 -2.017261,1.343511 -2.997321,1.993987 -0.980841,0.651079 -4.330241,2.277676 -6.096367,2.89563 -1.7661253,0.617954 -5.5205878,0.535742 -5.8550743,0.580786 -0.3344835,0.04507 -0.6022461,-1.024896 -0.2635893,-0.967444 2.3633562,0.303539 6.2848276,-1.019678 8.8144096,-2.120975 2.531206,-1.101019 4.12484,-3.182745 6.876354,-7.11418 2.697561,-3.8898 2.090484,-6.4005643 2.078689,-6.710222 C 21.486922,7.8314363 22.01357,6.9990346 22.334634,6.6440263 22.601803,6.3321708 21.447032,4.1367366 21.09397,3.6658977 20.738498,3.1953854 21.586087,3.3919216 22.036886,3.4701173 c 0.451584,0.077593 0.961106,1.5985377 1.261839,2.1112875 0.300731,0.5127508 0.851817,0.3005475 1.536757,0.6225857 0.684998,0.3235232 1.732969,1.3217251 2.844984,2.4865904 1.112018,1.1648664 1.319839,3.5561261 1.746671,5.7799311 z M 24.536057,8.4579052 c 0.141479,0.7413761 0.04941,2.6207688 -0.03752,3.2196188 -0.142445,0.641689 -0.842943,2.671791 -1.360465,3.708634 -0.57481,0.976835 -1.155474,1.849382 -0.872336,1.949673 0.684998,0.323524 1.903741,-2.74551 2.517376,-4.175275 0.554605,-1.493025 0.796552,-2.42451 0.575964,-3.7423627 -0.220592,-1.3178528 -0.381283,-2.4719676 -0.886819,-2.5079283 -0.387599,0.087586 -0.01955,0.8671547 0.0638,1.54764 z"
     id="path3982"
     style="fill:#463f02;fill-opacity:1;stroke:#f1d200;stroke-opacity:1"
     inkscape:connector-curvature="0" /><path
     style="fill:none;stroke:#ecf000;stroke-width:1.32782137px;stroke-linecap:butt;stroke-linejoin:miter;stroke-opacity:1"
     d="m 16.829149,25.536779 c 0.05528,0.100494 0.110574,0.200987 0.165859,0.301479 0.01109,0.02009 -0.03288,0.08588 0.03317,0.06029 0.09344,-0.03618 0.244132,-0.121419 0.410025,-0.231917 0.117339,-0.07812 0.251246,-0.19482 0.376853,-0.292213 0.125629,-0.09741 0.251246,-0.19482 0.376854,-0.292215 0.125629,-0.09741 0.269467,-0.196076 0.376853,-0.292213 0.192418,-0.172174 0.850113,-0.871945 1.031049,-1.057527 0.572802,-0.587514 1.145606,-1.175029 1.718413,-1.762547 0.229107,-0.234993 0.458243,-0.470012 0.687362,-0.705014 0.114568,-0.1175 0.458245,-0.470012 0.343684,-0.35251 -0.458245,0.470011 -0.916488,0.940025 -1.374731,1.410037 -0.114567,0.1175 -0.229135,0.235014 -0.343682,0.352507 -0.114567,0.117499 -0.278218,0.265484 -0.343682,0.352508 -0.04629,0.06155 0.07944,-0.0013 0.03317,0.06029 -0.06547,0.08703 -0.359319,0.324083 -0.343682,0.35251 0.05527,0.100464 1.202774,-0.846619 1.540585,-1.10856 0.502471,-0.389617 1.004943,-0.779234 1.507413,-1.168851 0.251249,-0.194821 0.502472,-0.38962 0.753705,-0.584426 0.125629,-0.09741 0.261209,-0.193432 0.376853,-0.292214 2.649618,-2.262205 -0.584586,0.478086 1.064221,-0.99723 0.107412,-0.09616 0.269467,-0.196077 0.376853,-0.292214 0.151902,-0.135911 0.229132,-0.235015 0.343681,-0.352508 0.114567,-0.117499 0.278221,-0.265485 0.343684,-0.352511 0.12849,-0.170824 -0.187271,0.0012 -0.443197,0.171624 -0.117339,0.07812 -0.251246,0.19482 -0.37685,0.292211 -0.628093,0.487024 -1.256177,0.974044 -1.884269,1.461068 -0.251247,0.19482 -0.515345,0.385667 -0.753705,0.584425 -0.266515,0.222199 -0.461881,0.423884 -0.720536,0.644724 -0.115664,0.0988 -0.269467,0.196075 -0.376855,0.292213 -0.151902,0.135911 -0.204543,0.222128 -0.34368,0.352507 -0.219997,0.206152 -0.500539,0.438567 -0.720538,0.644722 -0.139136,0.130378 -0.191775,0.216587 -0.343683,0.352508 -0.107412,0.09616 -0.269465,0.196092 -0.376853,0.292214 -0.151903,0.135911 -0.20702,0.275212 -0.343683,0.352509 -0.580667,0.328435 0.454783,-0.669832 0.621023,-0.82561 0.09839,-0.09219 0.264358,-0.194265 0.376853,-0.292213 0.503234,-0.437836 0.960716,-0.85963 1.441071,-1.289444 0.240194,-0.214917 0.454028,-0.422527 0.720539,-0.644723 0.23837,-0.198768 0.515343,-0.385664 0.753706,-0.584425 0.551643,-0.459939 1.397326,-1.295292 1.784754,-1.641955 0.107412,-0.09616 0.269465,-0.196076 0.376852,-0.292212 0.384287,-0.343852 0.554316,-0.555975 -0.06634,-0.12058 -0.245342,0.172112 -0.50247,0.389617 -0.753703,0.584423 -0.502473,0.389619 -1.004944,0.779239 -1.507414,1.168856 -0.628091,0.487021 -1.256178,0.974042 -1.884269,1.461066 -0.50247,0.389617 -1.012906,0.772728 -1.507413,1.168852 -4.23672,3.393674 0.281167,-0.132007 -3.358508,2.690215 -0.378254,0.293299 -1.272703,0.961203 -1.474244,1.229148 -0.06545,0.08702 0.236533,-0.110216 0.410023,-0.231917 0.245343,-0.172112 0.502472,-0.389618 0.753708,-0.584428 0.502471,-0.389618 1.016261,-0.771756 1.507414,-1.168854 0.388286,-0.313939 0.725038,-0.623309 1.097388,-0.936933 0.485483,-0.408923 0.988758,-0.820227 1.474245,-1.22915 0.37235,-0.313624 0.720492,-0.622698 1.097387,-0.936935 0.119179,-0.09939 0.261184,-0.193412 0.376853,-0.292213 0.258663,-0.220843 0.461882,-0.423884 0.720539,-0.644723 0.115663,-0.0988 0.269468,-0.196076 0.376853,-0.292213 0.151903,-0.135911 0.229133,-0.235016 0.343681,-0.352508 0.114567,-0.1175 0.359321,-0.324083 0.343682,-0.35251 -0.01109,-0.02009 -0.257659,0.192825 -0.376852,0.292215 -0.376896,0.314237 -0.757727,0.633009 -1.09739,0.936935 -0.151902,0.135911 -0.229135,0.235017 -0.343684,0.352509 -0.240191,0.214917 -0.46892,0.425805 -0.720533,0.644718 -0.65646,0.571154 -2.465883,2.05763 -2.915315,2.518596 -0.518696,0.532019 -0.635293,0.84813 -1.341559,1.470333 -0.562424,0.495485 -1.278291,0.933846 -1.917437,1.40077"
     id="path3754"
     inkscape:connector-curvature="0"
     inkscape:transform-center-x="3.7580872"
     inkscape:transform-center-y="2.4336287" /><path
     style="fill:none;stroke:#f6e000;stroke-width:1px;stroke-linecap:butt;stroke-linejoin:miter;stroke-opacity:1"
     d="m 24.40678,22.779661 c -0.180791,0 -0.364042,-0.02972 -0.542373,0 -0.274411,0.04574 -0.494166,0.358573 -0.677966,0.542373 -0.0452,0.0452 -0.180791,0.0904 -0.135594,0.135593 0.06392,0.06392 0.271187,-0.09039 0.271187,0 0,0.0904 -0.361582,0 -0.271187,0 0.663625,0 0.674832,0.07881 1.355933,-0.677966 0.162824,-0.180916 0.514583,-0.677966 0.271186,-0.677966 -2.631082,0 -0.559559,0.483169 -1.220339,0.813559 -0.04043,0.02021 -0.09271,-0.01429 -0.135593,0 -0.09588,0.03196 -0.34265,0.207057 -0.271187,0.135593 0.159799,-0.159798 0.365906,-0.265605 0.542373,-0.406779 0.04991,-0.03993 0.07254,-0.146102 0.135594,-0.135593 0.240085,0.04001 0.505858,0.443294 0.677966,0.271186 0.172108,-0.172108 -0.231173,-0.43788 -0.271187,-0.677966 -0.0044,-0.02631 0.501201,-0.460029 0.542373,-0.542373 0.02021,-0.04043 -0.02021,-0.09517 0,-0.135593 0.02859,-0.05717 0.0904,-0.180791 0.135593,-0.135593 0.0452,0.0452 -0.0904,0.09039 -0.135593,0.135593 -0.03289,0.03288 -0.40678,0.398058 -0.40678,0.406779 0,0.0452 0.0904,0 0.135594,0 0.09039,0 0.190334,0.04043 0.271186,0 0.261374,-0.261373 0.221099,-0.27827 0.542373,-0.406779 0.353914,-0.141566 0.762223,-0.191764 1.084746,-0.40678 0.05318,-0.03546 0.0904,-0.0904 0.135593,-0.135593 0.08844,-0.08844 0.346829,-0.255495 0.271186,-0.40678 -0.09976,-0.199512 -0.21275,-0.135593 -0.406779,-0.135593 -0.459162,0 -0.366408,-0.06418 -0.81356,0.271186 -0.05113,0.03835 -0.180791,0.0904 -0.135593,0.135594 0.06392,0.06392 0.190334,0.04043 0.271187,0 0.114342,-0.05717 0.180791,-0.180791 0.271186,-0.271187 0.180791,-0.180791 0.361582,-0.361582 0.542373,-0.542373 0.0452,-0.0452 0.135593,-0.07167 0.135593,-0.135593 0,-0.06392 -0.07495,-0.11538 -0.135593,-0.135593 -0.319073,-0.106358 -0.290216,0.03806 -0.40678,0.271186 -0.328208,0.656418 0.107196,-0.142927 -0.406779,0.542373 -0.06064,0.08085 -0.07953,0.187095 -0.135594,0.271187 -0.07091,0.106368 -0.194483,0.168915 -0.271186,0.271186 -0.09778,0.13037 -0.173409,0.27641 -0.271186,0.40678 -0.03835,0.05113 -0.107008,0.07842 -0.135594,0.135593 -0.02021,0.04043 0.02021,0.09517 0,0.135593 -0.04731,0.09462 -0.393712,0.328377 -0.406779,0.40678 -0.03715,0.222914 0.193783,0.561696 0,0.677966 -0.208712,0.125227 -0.44706,-0.194217 -0.677966,-0.271186 -0.153169,-0.05106 -0.281857,0.09395 -0.40678,0.135593 -0.09796,0.03265 -0.4863,-0.03738 -0.542373,0 -0.106368,0.07091 -0.168916,0.194483 -0.271186,0.271186 -0.08085,0.06064 -0.187096,0.07953 -0.271187,0.135593 -0.117003,0.078 -0.30087,0.30087 -0.40678,0.40678 -0.0452,0.0452 -0.09039,0.0904 -0.135593,0.135593 -0.0452,0.0452 -0.07842,0.107008 -0.135593,0.135594 -0.04043,0.02021 -0.09517,-0.02021 -0.135593,0 -0.05717,0.02858 -0.0904,0.0904 -0.135593,0.135593 -0.0452,0.0452 -0.0904,0.0904 -0.135594,0.135593 -0.0452,0.0452 -0.180791,0.0904 -0.135593,0.135593 0.06392,0.06392 0.187256,0.03357 0.271187,0 0.151307,-0.06052 0.256993,-0.206992 0.406779,-0.271186 0.171288,-0.07341 0.359637,-0.09905 0.542373,-0.135593 0.04432,-0.0089 0.09517,0.02021 0.135593,0 0.05717,-0.02859 0.08241,-0.100138 0.135594,-0.135594 0.06828,-0.298734 0.278941,-0.07167 0.406779,-0.135593 0.05717,-0.02858 0.07167,-0.135593 0.135593,-0.135593 0.06392,0 0.135594,0.07167 0.135594,0.135593 0,0.06392 -0.0904,0.0904 -0.135594,0.135593 -0.0452,0.0452 -0.0904,0.0904 -0.135593,0.135594 -0.135593,0.135593 -0.271186,0.271186 -0.406779,0.406779 -0.0452,0.0452 -0.07842,0.107008 -0.135594,0.135593 -1.296286,0.648144 0.38141,-0.387752 -0.677966,0.40678 -0.08085,0.06064 -0.187095,0.07953 -0.271186,0.135593 -0.05318,0.03546 -0.07842,0.107008 -0.135593,0.135594 -0.04043,0.02021 -0.09517,-0.02021 -0.135594,0 -0.05717,0.02858 -0.192764,0.107007 -0.135593,0.135593 0.416795,0.208397 0.477779,-0.175249 0.813559,-0.271187 0.173835,-0.04967 0.361582,0 0.542373,0 0.0452,0 0.09517,0.02021 0.135594,0 0.306642,-0.153321 0.351685,-0.216092 0.542372,-0.406779 0.0904,-0.0904 0.164819,-0.200275 0.271187,-0.271187 0.08409,-0.05606 0.187095,-0.07953 0.271186,-0.135593 0.05318,-0.03546 0.199513,-0.135593 0.135594,-0.135593 -0.294621,0 -0.467464,0.402038 -0.677967,0.542373 -0.336757,0.224505 -0.418891,0.07385 -0.813559,0.271186 -0.05717,0.02859 -0.08241,0.100137 -0.135593,0.135593 -0.08409,0.05606 -0.187095,0.07953 -0.271187,0.135594 -0.106368,0.07091 -0.156844,0.214015 -0.271186,0.271186 -0.04043,0.02021 -0.09517,-0.02021 -0.135593,0 -0.05717,0.02859 -0.07842,0.107008 -0.135593,0.135593 -0.04043,0.02021 -0.09272,-0.01429 -0.135594,0 -0.191757,0.06392 -0.346277,0.222163 -0.542373,0.271187 -0.0877,0.02192 -0.185429,-0.02859 -0.271186,0 -0.06064,0.02021 -0.07495,0.11538 -0.135593,0.135593 -0.08576,0.02858 -0.18349,-0.02192 -0.271187,0 -0.09805,0.02451 -0.175307,0.103633 -0.271186,0.135593 -0.04288,0.01429 -0.09272,-0.01429 -0.135593,0 -0.491565,0.163855 -0.0965,0.06433 -0.40678,0.271187 -0.08409,0.05606 -0.187095,0.07953 -0.271186,0.135593 -0.05318,0.03546 -0.08241,0.100137 -0.135594,0.135593 -0.68499,0.45666 -0.0031,0.001 -0.406779,0.135593 -0.246268,0.08209 -0.251641,0.116047 -0.40678,0.271187 -0.0452,0.0452 -0.180791,0.0904 -0.135593,0.135593 0.06392,0.06392 0.180791,0 0.271186,0 0.180791,0 0.365093,0.03546 0.542373,0 0.280305,-0.05606 0.539759,-0.189047 0.81356,-0.271187 0.643641,-0.193092 0.478546,-0.04306 1.084745,-0.406779 0.09726,-0.05836 0.49126,-0.49126 0.542373,-0.542373 0.07975,-0.07975 0.510978,-0.479583 0.542373,-0.542373 0.02063,-0.04127 0,-0.345714 0,-0.40678 0,-0.06107 0.02063,-0.365514 0,-0.406779 -0.07232,-0.144633 -0.251556,-0.213205 -0.40678,-0.135594 -0.114342,0.05717 -0.164818,0.200275 -0.271186,0.271187 -0.03761,0.02507 -0.09174,-0.01096 -0.135593,0 -0.138661,0.03467 -0.278941,0.07167 -0.40678,0.135593 -0.05717,0.02859 -0.08241,0.100137 -0.135593,0.135593 -0.08409,0.05606 -0.180791,0.0904 -0.271187,0.135594 -0.0904,0.0452 -0.173138,0.111081 -0.271186,0.135593 -0.0877,0.02192 -0.18543,-0.02859 -0.271186,0 -0.06064,0.02021 -0.0904,0.0904 -0.135594,0.135593 -0.174542,0.174542 -0.294306,0.324091 -0.542373,0.40678 -0.09326,0.03109 -0.326777,-0.04 -0.406779,0 -0.05717,0.02858 -0.07842,0.107007 -0.135593,0.135593 -0.04043,0.02021 -0.0904,0 -0.135594,0 -0.0904,0 -0.180791,0 -0.271186,0 -0.316384,0 -0.632768,0 -0.949153,0 -0.271186,0 -0.542373,0 -0.813559,0 -0.135593,0 -0.27382,-0.02659 -0.40678,0 -0.820894,0.164179 -0.05618,0.135593 -0.677966,0.135593 -0.03222,0 -0.511982,-0.0152 -0.542373,0 -0.05717,0.02859 -0.180791,0.0904 -0.135593,0.135593 0.06392,0.06392 0.182021,-0.01486 0.271187,0 0.183819,0.03064 0.357157,0.115014 0.542372,0.135594 0.224607,0.02496 0.451978,0 0.677967,0 0.271186,0 0.542372,0 0.813559,0 0.09363,0 0.501148,0.02061 0.542373,0 0.05717,-0.02859 0.180791,-0.0904 0.135593,-0.135594 -0.06392,-0.06392 -0.180791,0 -0.271186,0 -0.180791,0 -0.361582,0 -0.542373,0 -0.0904,0 -0.180791,0 -0.271187,0 -0.0452,0 -0.09799,-0.02507 -0.135593,0 -0.441471,0.294314 -0.07872,0.252229 -0.542373,0.40678 -0.08785,0.02928 -0.566956,0 -0.677966,0 -0.632768,0 -1.265537,0 -1.898305,0 -0.0452,0 -0.09272,-0.01429 -0.135593,0 -0.290818,0.09694 -0.469531,0.333938 -0.677966,0.542373 -0.0452,0.0452 -0.164179,0.07842 -0.135594,0.135593 0.08801,0.176019 0.406276,0.135593 0.542373,0.135593 0.135593,0 0.273032,0.02229 0.40678,0 0.140983,-0.0235 0.278941,-0.07167 0.40678,-0.135593 0.05717,-0.02858 0.08241,-0.100137 0.135593,-0.135593 0.08409,-0.05606 0.175307,-0.103634 0.271186,-0.135593 0.168329,-0.05611 0.147735,0.11131 0.271187,-0.135594 0.01783,-0.03565 0,-0.471468 0,-0.542372 0,-0.07091 0.01783,-0.50672 0,-0.542373 -0.02859,-0.05717 -0.07842,-0.107008 -0.135594,-0.135594 -0.03039,-0.01519 -0.510151,0 -0.542372,0 -0.271187,0 -0.542373,0 -0.81356,0 -0.0452,0 -0.0904,0 -0.135593,0 -0.0452,0 -0.09517,-0.02021 -0.135593,0 -0.05717,0.02859 -0.07842,0.107008 -0.135593,0.135594 -0.04043,0.02021 -0.09517,-0.02021 -0.135594,0 -0.05717,0.02858 -0.08241,0.100137 -0.135593,0.135593 -0.08409,0.05606 -0.180791,0.0904 -0.271186,0.135593 -0.0904,0.0452 -0.175308,0.103634 -0.271187,0.135593 -0.04288,0.01429 -0.09517,-0.02021 -0.135593,0 -0.05717,0.02859 -0.07842,0.107008 -0.135593,0.135594 -0.04043,0.02021 -0.09517,-0.02021 -0.135593,0 -0.05717,0.02858 -0.07495,0.11538 -0.135594,0.135593 -0.08576,0.02859 -0.185429,-0.02859 -0.271186,0 -0.06064,0.02021 -0.07842,0.107007 -0.135593,0.135593 -0.04043,0.02021 -0.09517,-0.02021 -0.135593,0 -0.05717,0.02859 -0.07842,0.107008 -0.135594,0.135593 -0.040426,0.02021 -0.090395,0 -0.1355929,0 -0.045198,0 -0.090395,0 -0.1355932,0 -0.2711865,0 -0.5423729,0 -0.8135594,0 -0.045198,0 -0.090395,0 -0.1355932,0 -0.045198,0 -0.1675528,-0.03196 -0.1355932,0 0.4634011,0.463401 0.6462192,0.18917 1.220339,0.271187 0.1414909,0.02021 0.2657969,0.112096 0.4067799,0.135593 0.133748,0.02229 0.273031,-0.02229 0.406779,0 0.140984,0.0235 0.265797,0.112096 0.40678,0.135593 0.201632,0.03361 0.583942,0 0.813559,0 0.0904,0 0.180791,0 0.271187,0 0.0452,0 0.180791,0 0.135593,0 -1.039548,0 -2.079096,0 -3.118644,0 -0.1092106,0 -0.5423729,-0.07185 -0.5423729,0.135593 0,0.120543 0.581136,0.342227 0.6779661,0.40678 0.053184,0.03546 0.082409,0.100137 0.1355932,0.135593 0.084091,0.05606 0.1870951,0.07953 0.2711865,0.135593 0.053184,0.03546 0.082409,0.100138 0.1355932,0.135594 0.084091,0.05606 0.1807909,0.0904 0.2711869,0.135593 0.0904,0.0452 0.175307,0.103633 0.271186,0.135593 0.07338,0.02446 0.49618,0 0.542373,0 0.451977,0 0.903955,0 1.355932,0 0.271186,0 0.542373,0 0.813559,0 0.135594,0 0.278145,0.04288 0.40678,0 0.21939,-0.07313 0.04228,-0.271186 0.40678,-0.271186 0.225988,0 0.451977,0 0.677966,0 0.0452,0 0.09039,0 0.135593,0 0.0452,0 0.09517,0.02021 0.135593,0 0.133428,-0.06671 0.408945,-0.475659 0.542373,-0.542373 0.08085,-0.04043 0.190334,0.04043 0.271187,0 0.05717,-0.02859 0.180791,-0.0904 0.135593,-0.135593 -0.06392,-0.06392 -0.180791,0 -0.271187,0 -0.316384,0 -0.632768,0 -0.949152,0 -0.0904,0 -0.18349,0.02192 -0.271187,0 -0.09805,-0.02451 -0.173138,-0.111082 -0.271186,-0.135594 -0.179915,-0.04498 -0.653928,0.05321 -0.813559,0 -0.06064,-0.02021 -0.07495,-0.11538 -0.135594,-0.135593 -0.08576,-0.02858 -0.180791,0 -0.271186,0 -0.225989,0 -0.451977,0 -0.677966,0 -0.135593,0 -0.271187,0 -0.40678,0 -0.0452,0 -0.103633,-0.03196 -0.135593,0 -0.03196,0.03196 -0.04385,0.124631 0,0.135593 0.175393,0.04385 0.361582,0 0.542373,0 0.225989,0 0.451977,0 0.677966,0 1.084746,0 2.169491,0 3.254237,0 0.542373,0 1.084746,0 1.627119,0 0.135593,0 0.271186,0 0.40678,0 0.09039,0 0.361581,0 0.271186,0 -0.451977,0 -0.903955,0 -1.355932,0 -0.03222,0 -0.511983,0.0152 -0.542373,0 -0.13619,-0.06809 -0.225145,-0.257526 -0.135593,-0.406779 0.09866,-0.164431 0.271186,-0.271187 0.406779,-0.40678 0.0452,-0.0452 0.08241,-0.100137 0.135594,-0.135593 0.08409,-0.05606 0.184523,-0.0836 0.271186,-0.135593 0.914294,-0.548577 -0.08864,-0.0459 0.813559,-0.40678 0.09384,-0.03754 0.173139,-0.111081 0.271187,-0.135593 0.761891,-0.190473 -0.09452,0.198604 0.406779,-0.135594 0.168183,-0.112121 0.374191,-0.159064 0.542373,-0.271186 0.05318,-0.03546 0.0904,-0.180791 0.135594,-0.135593 0.0452,0.0452 -0.135594,0.199512 -0.135594,0.135593 0,-0.200879 0.499932,-0.528226 -0.271186,-0.271186 -0.1546,0.05153 -0.250087,0.226417 -0.40678,0.271186 -0.173835,0.04967 -0.364498,-0.03234 -0.542373,0 -0.323737,0.05886 -0.625415,0.212325 -0.949152,0.271186 -0.180791,0 -0.361582,0 -0.542373,0 -0.0452,0.0452 -0.07495,0.115381 -0.135593,0.135594 -0.08576,0.02858 -0.180791,0 -0.271187,0 -0.0452,0 -0.09517,-0.02021 -0.135593,0 -0.114342,0.05717 -0.149908,0.23076 -0.271186,0.271186 -0.08576,0.02859 -0.180791,0 -0.271187,0 -0.0904,0 -0.180791,0 -0.271186,0 -0.07813,0 -0.628546,0.02471 -0.677966,0 -0.05717,-0.02858 -0.135594,-0.07167 -0.135594,-0.135593 0,-0.06392 0.0904,-0.0904 0.135594,-0.135593 0.07138,-0.07138 0.334361,-0.370571 0.406779,-0.40678 0.121279,-0.06064 0.285502,0.06064 0.40678,0 0.114342,-0.05717 0.180791,-0.180791 0.271186,-0.271186 0.135594,-0.135594 0.247228,-0.300412 0.40678,-0.40678 0.118923,-0.07928 0.278941,-0.07167 0.40678,-0.135593 0.335105,-0.167553 -0.0468,-0.135594 0.271186,-0.135594 0.0452,0 0.0904,0 0.135593,0 0.0452,0 0.09517,0.02021 0.135594,0 0.05477,-0.02738 0.538308,-0.538308 0.542372,-0.542372 0.0452,-0.0452 0.0904,-0.0904 0.135594,-0.135594 0.0452,-0.0452 0.0904,-0.180791 0.135593,-0.135593 0.0452,0.0452 -0.0904,0.0904 -0.135593,0.135593 -0.15514,0.15514 -0.160512,0.189097 -0.40678,0.271187 -0.04288,0.01429 -0.09517,-0.02021 -0.135593,0 -0.05717,0.02858 -0.192765,0.107007 -0.135593,0.135593 0.121278,0.06064 0.271186,0 0.406779,0 0.225989,0 0.455052,0.03715 0.677966,0 0.140983,-0.0235 0.265797,-0.112096 0.40678,-0.135593 0.133748,-0.02229 0.275235,0.03289 0.40678,0 0.06201,-0.0155 0.08241,-0.100137 0.135593,-0.135593 0.06828,-0.298735 0.278941,-0.07167 0.40678,-0.135594 0.114342,-0.05717 0.164818,-0.200274 0.271186,-0.271186 0.08409,-0.05606 0.187095,-0.07953 0.271186,-0.135593 0.05318,-0.03546 0.0904,-0.0904 0.135594,-0.135594 0.135593,-0.135593 0.271186,-0.271186 0.406779,-0.406779 0.0452,-0.0452 0.0904,-0.0904 0.135593,-0.135593 0.0452,-0.0452 0.107008,-0.07842 0.135594,-0.135594 0.02021,-0.04043 -0.02021,-0.09517 0,-0.135593 0.03139,-0.06279 0.462624,-0.462624 0.542373,-0.542373 0.225988,-0.225988 0.451977,-0.451977 0.677966,-0.677966 0.0452,-0.0452 0.08241,-0.100137 0.135593,-0.135593 0.08409,-0.05606 0.187095,-0.07953 0.271186,-0.135593 0.05318,-0.03546 0.07842,-0.107008 0.135594,-0.135594 0.127838,-0.06392 0.278941,-0.07167 0.406779,-0.135593 0.05717,-0.02858 0.08241,-0.100137 0.135593,-0.135593 0.08409,-0.05606 0.187096,-0.07953 0.271187,-0.135593 0.06622,-0.04415 0.498228,-0.476156 0.542373,-0.542373 0.112122,-0.168183 0.159064,-0.37419 0.271186,-0.542373 0.206853,-0.310278 0.107332,0.08479 0.271187,-0.40678 0.134546,-0.403638 -0.321068,0.278211 0.135593,-0.406779 0.03546,-0.05318 0.100137,-0.08241 0.135593,-0.135593 0.05606,-0.08409 0.07953,-0.187096 0.135593,-0.271187 0.03546,-0.05318 0.100138,-0.08241 0.135594,-0.135593 0.05606,-0.08409 0.07953,-0.187095 0.135593,-0.271187 0.07091,-0.106368 0.200274,-0.164818 0.271186,-0.271186 0.05606,-0.08409 0.0904,-0.180791 0.135593,-0.271186 0.0452,-0.0904 0.111082,-0.173139 0.135594,-0.271187 0.02192,-0.0877 -0.02192,-0.18349 0,-0.271186 0.02451,-0.09805 0.103633,-0.175308 0.135593,-0.271187 0.02858,-0.08576 -0.02859,-0.18543 0,-0.271186 0.03196,-0.09588 0.103633,-0.175308 0.135593,-0.271187 0.02859,-0.08576 -0.04043,-0.190334 0,-0.271186 0.02859,-0.05717 0.107008,-0.07842 0.135593,-0.135593 0.04036,-0.08073 -0.03805,-0.563806 0,-0.677966 0.155807,-0.467419 0.135594,-0.100443 0.135594,-0.40678 0,-0.06107 -0.02063,-0.365514 0,-0.40678 0.02858,-0.05717 0.107007,-0.07842 0.135593,-0.135593 0.02021,-0.04043 0,-0.180791 0,-0.135593 0,0.316384 0,0.632768 0,0.949152 0,0.0904 0,0.180791 0,0.271187 0,0.09039 0.02859,0.18543 0,0.271186 -0.02021,0.06064 -0.107008,0.07842 -0.135593,0.135593 -0.02021,0.04043 0.01429,0.09272 0,0.135594 -0.03196,0.09588 -0.103634,0.175307 -0.135594,0.271186 -0.02858,0.08576 0.02859,0.18543 0,0.271187 -0.03196,0.09588 -0.103633,0.175307 -0.135593,0.271186 -0.01429,0.04288 -0.03196,0.167553 0,0.135593 0.07146,-0.07146 0.07953,-0.187095 0.135593,-0.271186 0.03546,-0.05318 0.107008,-0.07842 0.135594,-0.135593 0.02021,-0.04043 -0.01429,-0.09272 0,-0.135594 0.06392,-0.191757 0.207267,-0.350615 0.271186,-0.542373 0.01429,-0.04288 -0.01429,-0.09271 0,-0.135593 0.03196,-0.09588 0.111081,-0.173139 0.135593,-0.271186 0.02192,-0.0877 -0.01773,-0.182547 0,-0.271187 0.02803,-0.140152 0.107563,-0.266627 0.135593,-0.406779 0.02691,-0.134556 0,-0.535506 0,-0.677966 0,-0.361582 0,-0.723164 0,-1.084746 0,-0.361582 0,-0.723164 0,-1.084746 0,-0.135593 0,-0.271186 0,-0.40678 0,-0.0452 0,-0.180791 0,-0.135593 0,0.961726 0.09588,0.07943 -0.135593,0.542373 -0.03892,0.07784 0.02886,0.562547 0,0.677966 -0.02451,0.09805 -0.103633,0.175308 -0.135593,0.271187 -0.02859,0.08576 0,0.180791 0,0.271186 0,0.0452 0,0.180791 0,0.135593 0,-0.903955 0,-1.807909 0,-2.7118641 0,-0.361582 0,-0.7231639 0,-1.0847458 0,-0.1355932 0,-0.2711864 0,-0.4067797 0,-0.045198 -0.0452,-0.1355932 0,-0.1355932 0.103375,0 0.270944,0.4058082 0.271186,0.4067797 0.02193,0.087696 -0.02192,0.1834899 0,0.2711864 0.02451,0.098048 0.0904,0.180791 0.135594,0.2711865 0.0452,0.1355932 0.107562,0.2666274 0.135593,0.4067796 0.01773,0.08864 0,0.180791 0,0.2711865 0.0452,0.1355932 0.100928,0.2681191 0.135593,0.4067801 0.03547,0.141881 -0.04349,0.411915 0,0.542372 0.155806,0.467419 0.135593,0.100443 0.135593,0.40678 0,0.31799 -0.03196,-0.06392 0.135594,0.271187 0.02021,0.04043 -0.01429,0.09271 0,0.135593 0.03196,0.09588 0.103633,0.175307 0.135593,0.271186 0.02858,0.08576 0,0.180791 0,0.271187 0,0.225988 0,0.451977 0,0.677966 0,0.0452 0,0.09039 0,0.135593 0,0.0452 0.0452,0.135593 0,0.135593 -0.0452,0 0,-0.0904 0,-0.135593 0,-0.180791 0,-0.361582 0,-0.542373 0,-0.361582 0,-0.723164 0,-1.084746 0,-0.08103 0.03196,-0.271186 -0.135593,-0.271186 -0.0452,0 0.0452,0.135593 0,0.135593 -0.0452,0 0,-0.180791 0,-0.135593 0,0.180791 0,0.361582 0,0.542373 0,0.497175 0,0.99435 0,1.491525 0,0.813559 0,1.627119 0,2.440678 0,0.180791 0,0.361582 0,0.542373 0,0.0452 -0.0452,0.135593 0,0.135593 0.199512,0 0.135593,-0.353827 0.135593,-0.406779 0,-0.687125 -0.04043,0.161704 0.135593,-0.542373 0.02666,-0.10666 0,-0.672553 0,-0.81356 0,-0.0452 -0.02021,-0.09517 0,-0.135593 0.199512,-0.399025 0.135593,0.210479 0.135593,-0.40678 0,-0.0452 0,-0.18079 0,-0.135593 0,0.542373 0,1.084746 0,1.627119 0,0.09694 -0.02314,0.744151 0,0.813559 0.02021,0.06064 0.107008,0.07842 0.135593,0.135593 0.02063,0.04127 0,0.345715 0,0.40678 0,0.271187 0,0.542373 0,0.813559 0,0.316385 0,0.632769 0,0.949153 0,0.0452 0,0.0904 0,0.135593 0,0.0452 0.02021,0.09517 0,0.135593 -0.02858,0.05717 -0.0904,0.0904 -0.135593,0.135594 -0.0452,0.0452 -0.0904,0.180791 -0.135593,0.135593 -0.0452,-0.0452 0.135593,-0.07167 0.135593,-0.135593 0,-0.101066 -0.111081,-0.173139 -0.135593,-0.271187 -0.02192,-0.0877 0,-0.180791 0,-0.271186 0,-0.271187 0,-0.542373 0,-0.81356 0,-0.135593 0,-0.271186 0,-0.406779 0,-0.0452 -0.0452,-0.135593 0,-0.135593 0.0452,0 0.03196,0.103633 0,0.135593 -0.24724,0.247239 -0.251026,0.0116 -0.40678,0.271186 -0.103995,0.173326 -0.170901,0.366875 -0.271186,0.542373 -0.08085,0.141491 -0.187343,0.26704 -0.271187,0.40678 -0.052,0.08666 -0.07495,0.190334 -0.135593,0.271186 -0.204054,0.272072 -0.430603,0.342656 -0.542373,0.677966 -0.04068,0.122034 0.04068,0.284746 0,0.40678 -0.02021,0.06064 -0.107007,0.07842 -0.135593,0.135593 -0.02021,0.04043 0,0.0904 0,0.135593 0,0.0452 0,0.0904 0,0.135594 0,0.0452 0.02021,0.09517 0,0.135593 -0.02858,0.05717 -0.0904,0.0904 -0.135593,0.135593 -0.0452,0.0452 -0.07167,0.135593 -0.135593,0.135593 -0.0452,0 0,-0.09039 0,-0.135593 0,-0.225989 -0.03715,-0.455052 0,-0.677966 0.0235,-0.140983 0.107562,-0.266627 0.135593,-0.40678 0.01773,-0.08864 -0.02192,-0.18349 0,-0.271186 0.221308,-0.885233 0.07281,0.512295 0.271186,-0.677966 0.02229,-0.133749 -0.02229,-0.273032 0,-0.40678 0.06424,-0.385462 0.144725,-0.361811 0.271187,-0.677966 0.545967,-1.364918 -0.105871,0.287891 0.135593,-0.677966 0.02451,-0.09805 0.111081,-0.173139 0.135593,-0.271187 0.04385,-0.175393 -0.03546,-0.365092 0,-0.542372 0.02803,-0.140153 0.100928,-0.26812 0.135593,-0.40678 0.02503,-0.100097 0,-0.581244 0,-0.677966 0,-0.0904 0,-0.180791 0,-0.271187 0,-0.0452 0.0452,-0.135593 0,-0.135593 -0.173233,0 -0.468257,0.307959 -0.542372,0.40678 -0.06064,0.08085 -0.07496,0.190334 -0.135594,0.271186 -0.210769,0.281025 -0.590464,0.53469 -0.813559,0.81356 -0.14584,0.1823 -0.460353,0.703092 -0.542373,0.949152 -0.01429,0.04288 0.01429,0.09271 0,0.135593 -0.327386,0.982158 0.03909,-0.213777 -0.271186,0.40678 -0.02063,0.04127 0,0.345714 0,0.40678 0,0.0218 -0.03196,0.354963 0.135593,0.271186 0.09039,-0.0452 0.07953,-0.187095 0.135593,-0.271186 0.03546,-0.05318 0.107008,-0.07842 0.135593,-0.135594 0.02021,-0.04043 0,-0.0904 0,-0.135593 0.0452,-0.135593 0.07167,-0.278941 0.135594,-0.406779 0.02858,-0.05717 0.11538,-0.07495 0.135593,-0.135594 0.02858,-0.08576 -0.02192,-0.18349 0,-0.271186 0.02451,-0.09805 0.111081,-0.173139 0.135593,-0.271187 0.03289,-0.131544 -0.04288,-0.278144 0,-0.406779 0.03196,-0.09588 0.103634,-0.175308 0.135593,-0.271187 0.02618,-0.07855 0,-0.42487 0,-0.542373 0,-0.09039 0,-0.180791 0,-0.271186 0,-0.0452 -0.0452,-0.135593 0,-0.135593 0.0452,0 0,0.09039 0,0.135593 0,0.0452 0.01429,0.09271 0,0.135593 -0.09431,0.282946 -0.312464,0.39502 -0.406779,0.677966 -0.01429,0.04288 0.01429,0.09272 0,0.135594 -0.06392,0.191757 -0.207268,0.350615 -0.271187,0.542372 -0.01429,0.04288 0.02021,0.09517 0,0.135594 -0.02858,0.05717 -0.107008,0.07842 -0.135593,0.135593 -0.02021,0.04043 0.02021,0.09517 0,0.135593 -0.02859,0.05717 -0.107008,0.07842 -0.135593,0.135593 -0.02021,0.04043 0.02021,0.09517 0,0.135594 -0.02859,0.05717 -0.107008,0.07842 -0.135594,0.135593 -0.02021,0.04043 0.02021,0.09517 0,0.135593 -0.02858,0.05717 -0.0904,0.0904 -0.135593,0.135593 -0.0452,0.0452 -0.0904,0.0904 -0.135593,0.135593 -0.180791,0.180791 -0.361582,0.361582 -0.542373,0.542373 -0.07975,0.07975 -0.479582,0.510978 -0.542373,0.542373 -0.04043,0.02021 -0.09517,-0.02021 -0.135593,0 -0.162712,0.08136 -0.244068,0.325424 -0.40678,0.40678 -0.08085,0.04043 -0.190334,-0.04043 -0.271186,0 -0.620557,0.310278 0.575378,-0.0562 -0.40678,0.271186 -0.08576,0.02859 -0.190334,-0.04043 -0.271186,0 -0.05717,0.02859 -0.08241,0.100137 -0.135593,0.135594 -0.08409,0.05606 -0.187096,0.07953 -0.271187,0.135593 -0.117003,0.078 -0.300869,0.300869 -0.40678,0.406779 -0.0452,0.0452 -0.09039,0.0904 -0.135593,0.135594 -0.0452,0.0452 -0.107007,0.07842 -0.135593,0.135593 -0.02021,0.04043 0.02021,0.09517 0,0.135593 -0.05717,0.114342 -0.214015,0.156844 -0.271186,0.271186 -0.02021,0.04043 0.02021,0.09517 0,0.135594 -0.02859,0.05717 -0.107008,0.07842 -0.135594,0.135593 -0.02021,0.04043 0.02021,0.09517 0,0.135593 -0.05717,0.114342 -0.200274,0.164819 -0.271186,0.271187 -0.166884,0.250326 -0.239896,0.563233 -0.40678,0.813559 -0.04383,0.06574 -0.612225,0.634139 -0.677966,0.677966 -0.08409,0.05606 -0.187095,0.07953 -0.271186,0.135593 -0.310279,0.206853 0.08479,0.107332 -0.40678,0.271187 -0.133409,0.04447 -0.228901,-0.05929 -0.40678,0 -0.06064,0.02021 -0.07842,0.107007 -0.135593,0.135593 -0.04043,0.02021 -0.09517,-0.02021 -0.135593,0 -0.05717,0.02858 -0.07842,0.107008 -0.135593,0.135593 -0.04043,0.02021 -0.09271,-0.01429 -0.135593,0 -0.248067,0.08269 -0.367831,0.232238 -0.542373,0.40678 -0.0452,0.0452 -0.192765,0.107007 -0.135594,0.135593 0.184151,0.09208 0.83733,-0.09366 0.949153,-0.135593 0.189261,-0.07097 0.361582,-0.180791 0.542373,-0.271187 0.0904,-0.0452 0.190334,-0.07495 0.271186,-0.135593 0.102271,-0.0767 0.164819,-0.200274 0.271187,-0.271186 0.03761,-0.02507 0.09799,0.02507 0.135593,0 0.40678,-0.271187 0.135593,-0.20339 0.40678,-0.40678 0.13037,-0.09778 0.276409,-0.173409 0.406779,-0.271186 0.150301,-0.112726 0.250624,-0.302676 0.40678,-0.40678 0.747452,-0.498302 0.07627,0.11864 0.271186,-0.271187 0.02859,-0.05717 0.107008,-0.07842 0.135594,-0.135593 0.04261,-0.08522 -0.04261,-0.457149 0,-0.542373 0.02858,-0.05717 0.0904,-0.180791 0.135593,-0.135593 0.0452,0.0452 -0.07167,0.135593 -0.135593,0.135593 -0.06392,0 -0.07167,-0.135593 -0.135594,-0.135593 -0.04372,0 -0.195846,0.233516 -0.271186,0.271187 -0.04043,0.02021 -0.09517,-0.02021 -0.135593,0 -0.05717,0.02858 -0.07842,0.107007 -0.135593,0.135593 -0.04043,0.02021 -0.09517,-0.02021 -0.135594,0 -0.05717,0.02858 -0.0904,0.09039 -0.135593,0.135593 -0.147584,0.147584 -0.390766,0.441302 -0.542373,0.542373 -0.03761,0.02507 -0.09039,0 -0.135593,0 -0.0904,0.0452 -0.187095,0.07953 -0.271186,0.135593 -0.106369,0.07091 -0.164819,0.200275 -0.271187,0.271187 -0.06828,0.298734 -0.278941,0.07167 -0.40678,0.135593 -0.05717,0.02858 -0.07842,0.107007 -0.135593,0.135593 -0.08,0.04 -0.313514,-0.03109 -0.406779,0 -0.09588,0.03196 -0.175308,0.103634 -0.271187,0.135593 -0.08576,0.02859 -0.190334,-0.04043 -0.271186,0 -0.05717,0.02859 -0.07842,0.107008 -0.135594,0.135593 -0.04043,0.02021 -0.0904,0 -0.135593,0 -0.0452,0.0452 -0.07842,0.107008 -0.135593,0.135594 -0.04043,0.02021 -0.09517,-0.02021 -0.135593,0 -0.306643,0.153321 -0.351685,0.216092 -0.542373,0.406779 -0.0452,0.0452 -0.08241,0.100138 -0.135593,0.135594 -0.08409,0.05606 -0.187095,0.07953 -0.271187,0.135593 -0.05318,0.03546 -0.07842,0.107007 -0.135593,0.135593 -0.04043,0.02021 -0.0904,0 -0.135593,0 -0.0904,0.0452 -0.187095,0.07953 -0.271187,0.135593 -0.05318,0.03546 -0.08241,0.100137 -0.135593,0.135593 -0.08409,0.05606 -0.187095,0.07953 -0.271186,0.135594 -0.106368,0.07091 -0.156845,0.214015 -0.271187,0.271186 -0.04043,0.02021 -0.09517,-0.02021 -0.135593,0 -0.05717,0.02859 -0.09039,0.0904 -0.135593,0.135593 -0.0904,0.0904 -0.168916,0.194484 -0.271187,0.271187 -0.08085,0.06064 -0.187095,0.07953 -0.271186,0.135593 -0.05318,0.03546 -0.07842,0.107008 -0.135593,0.135593 -0.08085,0.04043 -0.190335,-0.04043 -0.271187,0 -0.620557,0.310279 0.575379,-0.0562 -0.406779,0.271187 -0.09327,0.03109 -0.326777,-0.04 -0.40678,0 -0.05717,0.02858 -0.08241,0.100137 -0.135593,0.135593 -0.08409,0.05606 -0.187095,0.07953 -0.271187,0.135593 -0.05318,0.03546 -0.07842,0.107008 -0.135593,0.135593 -0.04043,0.02021 -0.09517,-0.02021 -0.135593,0 -0.0452,0.0452 -0.0904,0.0904 -0.135593,0.135594 -0.0452,0.0452 -0.07842,0.107007 -0.135594,0.135593 -0.04043,0.02021 -0.0904,0 -0.135593,0 -0.0904,0.0452 -0.187095,0.07953 -0.271186,0.135593 -0.05318,0.03546 -0.07842,0.107008 -0.135593,0.135593 -0.04043,0.02021 -0.0904,0 -0.135594,0 -0.1807907,0 -0.3615816,0 -0.5423726,0 -0.090395,0 -0.1807909,0 -0.2711864,0 -0.045198,0 -0.095167,-0.02021 -0.1355932,0 -0.057171,0.02859 -0.078422,0.107008 -0.1355933,0.135593 -0.041266,0.02063 -0.3457142,0 -0.4067796,0 -0.1355932,0 -0.2711865,0 -0.4067797,0 -0.090396,0 -0.1834899,0.02193 -0.2711864,0 -0.6547721,-0.163693 0.00672,-0.06444 -0.4067797,-0.271186 -0.080852,-0.04043 -0.1834899,0.02192 -0.2711864,0 -0.1386604,-0.03466 -0.2638519,-0.135593 -0.4067797,-0.135593 -0.063919,0 0.090395,0.0904 0.1355932,0.135593 0.045198,0.0452 0.090396,0.0904 0.1355933,0.135593 0.4497061,0.449706 -0.1278386,-0.06392 0.2711864,0.135593 0.057171,0.02859 0.090395,0.0904 0.1355932,0.135594 0.090396,0.0904 0.1648184,0.200274 0.2711865,0.271186 0.025154,0.01677 0.5346892,-0.0019 0.5423728,0 0.098048,0.02451 0.1731388,0.111081 0.2711865,0.135593 0.087696,0.02192 0.1807909,0 0.2711864,0 0.090395,0 0.180791,0 0.2711865,0 0.4067796,0 0.8135593,0 1.2203392,0 0.813559,0 1.627118,0 2.440678,0 0.271186,0 0.542373,0 0.813559,0 0.135593,0 0.273031,0.02229 0.40678,0 0.564306,-0.09405 0.235349,-0.123647 0.677966,-0.271186 0.134686,-0.0449 0.85835,0.0454 0.949152,0 0.882942,-0.441471 -0.270293,-0.135891 0.542373,-0.40678 1.282216,-0.427405 -0.0955,0.12056 0.949153,-0.271186 0.2279,-0.08546 0.455547,-0.172334 0.677966,-0.271187 0.184709,-0.08209 0.350615,-0.207267 0.542373,-0.271186 0.218637,-0.07288 0.457221,-0.06937 0.677966,-0.135593 1.236871,-0.371062 0.151974,-0.141736 1.220339,-0.542373 1.175184,-0.440694 -0.14551,0.167928 1.220339,-0.135593 0.197317,-0.04385 0.356586,-0.191564 0.542373,-0.271187 0.131371,-0.0563 0.278941,-0.07167 0.406779,-0.135593 0.05717,-0.02859 0.07842,-0.107008 0.135594,-0.135593 0.127838,-0.06392 0.278941,-0.07167 0.406779,-0.135594 0.165892,-0.08294 0.172097,-0.274659 0.271187,-0.406779 0.142409,-0.189879 1.182508,-1.132034 1.220339,-1.084746 0.180791,0.225989 -0.497175,0.768362 -0.677966,0.542373 -0.180791,-0.225989 0.807392,-0.801226 0.677966,-0.542373 -0.171514,0.343027 -0.510831,0.578104 -0.81356,0.813559 -0.11282,0.08775 -0.271186,0.0904 -0.406779,0.135594 -0.135594,0.0452 -0.266628,0.107562 -0.40678,0.135593 -0.08864,0.01773 -0.182546,-0.01773 -0.271186,0 -0.140153,0.02803 -0.26812,0.100928 -0.40678,0.135593 -0.04266,0.01066 -0.514591,0.01389 -0.542373,0 -0.05717,-0.02859 -0.11538,-0.07495 -0.135593,-0.135593 -0.111178,-0.333534 0.210094,-0.481281 0.406779,-0.677966 0.316385,-0.316385 0.632769,-0.632769 0.949153,-0.949153 0.0904,-0.0904 0.180791,-0.180791 0.271186,-0.271186 0.0452,-0.0452 0.107008,-0.07842 0.135594,-0.135594 0.02021,-0.04043 -0.02021,-0.09517 0,-0.135593 0.02859,-0.05717 0.107007,-0.07842 0.135593,-0.135593 0.02021,-0.04043 -0.02021,-0.09517 0,-0.135593 0.02858,-0.05717 0.100137,-0.08241 0.135593,-0.135593 0.05606,-0.08409 0.07953,-0.187096 0.135593,-0.271187 0.07091,-0.106368 0.214016,-0.156844 0.271187,-0.271186 0.04043,-0.08085 -0.04043,-0.190335 0,-0.271187 0.02858,-0.05717 0.0904,-0.09039 0.135593,-0.135593 0.0452,-0.0452 0.0904,-0.180791 0.135593,-0.135593 0.0452,0.0452 -0.0904,0.0904 -0.135593,0.135593"
     id="path3756"
     inkscape:connector-curvature="0" /></svg>