<?xml version="1.0" encoding="UTF-8" standalone="no"?>
<!-- Generator: Adobe Illustrator 17.0.0, SVG Export Plug-In . SVG Version: 6.00 Build 0)  -->

<svg
   xmlns:dc="http://purl.org/dc/elements/1.1/"
   xmlns:cc="http://creativecommons.org/ns#"
   xmlns:rdf="http://www.w3.org/1999/02/22-rdf-syntax-ns#"
   xmlns:svg="http://www.w3.org/2000/svg"
   xmlns="http://www.w3.org/2000/svg"
   xmlns:sodipodi="http://sodipodi.sourceforge.net/DTD/sodipodi-0.dtd"
   xmlns:inkscape="http://www.inkscape.org/namespaces/inkscape"
   version="1.1"
   id="Capa_1"
   x="0px"
   y="0px"
   width="64px"
   height="64px"
   viewBox="0 0 64 64"
   enable-background="new 0 0 64 64"
   xml:space="preserve"
   inkscape:version="0.48.4 r9939"
   sodipodi:docname="bomb1.svg"><metadata
     id="metadata4128"><rdf:RDF><cc:Work
         rdf:about=""><dc:format>image/svg+xml</dc:format><dc:type
           rdf:resource="http://purl.org/dc/dcmitype/StillImage" /></cc:Work></rdf:RDF></metadata><defs
     id="defs4126" /><sodipodi:namedview
     pagecolor="#ffffff"
     bordercolor="#666666"
     borderopacity="1"
     objecttolerance="10"
     gridtolerance="10"
     guidetolerance="10"
     inkscape:pageopacity="0"
     inkscape:pageshadow="2"
     inkscape:window-width="640"
     inkscape:window-height="480"
     id="namedview4124"
     showgrid="false"
     inkscape:zoom="3.6875"
     inkscape:cx="32"
     inkscape:cy="32"
     inkscape:window-x="0"
     inkscape:window-y="0"
     inkscape:window-maximized="0"
     inkscape:current-layer="Capa_1" /><g
     id="g4110"
     style="fill:#fd0004;fill-opacity:1"><path
       d="M34.935,18.472c0.004-0.004,0.009-0.007,0.013-0.011c-1.846-0.524-3.722-0.865-5.638-1.02   c-0.03,0.045-0.064,0.086-0.094,0.131c-0.14-0.003-0.276-0.021-0.417-0.021c-11.506,0-20.833,9.327-20.833,20.833   s9.327,20.833,20.833,20.833c11.506,0,20.833-9.327,20.833-20.833C49.632,29.014,43.446,21.092,34.935,18.472z M21.738,38.333   c-3.169,0-5.738-2.569-5.738-5.738c0-3.169,2.569-5.738,5.738-5.738c3.169,0,5.738,2.569,5.738,5.738   C27.475,35.764,24.907,38.333,21.738,38.333z"
       id="path4112"
       style="fill:#fd0004;fill-opacity:1" /><path
       d="M36.78,16.928c0.951-0.677,1.991-1.271,3.148-1.769c1.252-0.54,1.522-2.354,0.897-3.421   c-0.75-1.281-2.169-1.436-3.42-0.897c-2.564,1.105-4.832,2.699-6.641,4.725C32.806,15.821,34.809,16.281,36.78,16.928z"
       id="path4114"
       style="fill:#fd0004;fill-opacity:1" /><path
       d="M53.268,5.554c-3.358,1.344-6.715,2.691-10.025,4.151c-1.767,0.779-0.239,3.363,1.514,2.59   c3.073-1.355,6.191-2.602,9.308-3.849C55.839,7.737,55.066,4.834,53.268,5.554z"
       id="path4116"
       style="fill:#fd0004;fill-opacity:1" /><path
       d="M49.399,15.22c-1.129-0.397-2.164-1.02-3.333-1.333c-1.871-0.501-2.664,2.393-0.798,2.893   c1.167,0.313,2.199,0.934,3.333,1.333c0.772,0.272,1.64-0.301,1.845-1.048C50.675,16.235,50.169,15.491,49.399,15.22z"
       id="path4118"
       style="fill:#fd0004;fill-opacity:1" /><path
       d="M43.446,7.399c0.261-0.784,0.55-1.691,0.849-2.308c0.356-0.736,0.208-1.615-0.538-2.052   c-0.664-0.389-1.696-0.198-2.052,0.538c-0.471,0.973-0.81,2.002-1.151,3.025c-0.259,0.776,0.291,1.637,1.048,1.845   C42.421,8.672,43.188,8.174,43.446,7.399z"
       id="path4120"
       style="fill:#fd0004;fill-opacity:1" /><path
       d="M37.757,8.629c0.668-0.391,1-1.376,0.538-2.052c-0.743-1.087-1.64-2.042-2.568-2.97c-1.369-1.369-3.49,0.752-2.121,2.121   c0.747,0.747,1.513,1.506,2.099,2.363C36.165,8.764,37.014,9.064,37.757,8.629z"
       id="path4122"
       style="fill:#fd0004;fill-opacity:1" /></g></svg>