<?xml version="1.0" encoding="UTF-8" standalone="no"?>
<!-- Generator: Adobe Illustrator 16.0.0, SVG Export Plug-In . SVG Version: 6.00 Build 0)  -->

<svg
   xmlns:dc="http://purl.org/dc/elements/1.1/"
   xmlns:cc="http://creativecommons.org/ns#"
   xmlns:rdf="http://www.w3.org/1999/02/22-rdf-syntax-ns#"
   xmlns:svg="http://www.w3.org/2000/svg"
   xmlns="http://www.w3.org/2000/svg"
   xmlns:sodipodi="http://sodipodi.sourceforge.net/DTD/sodipodi-0.dtd"
   xmlns:inkscape="http://www.inkscape.org/namespaces/inkscape"
   version="1.1"
   id="Layer_1"
   x="0px"
   y="0px"
   width="30.813px"
   height="29.745px"
   viewBox="0 0 30.813 29.745"
   style="enable-background:new 0 0 30.813 29.745;"
   xml:space="preserve"
   inkscape:version="0.91 r13725"
   sodipodi:docname="book135.svg"><metadata
     id="metadata57"><rdf:RDF><cc:Work
         rdf:about=""><dc:format>image/svg+xml</dc:format><dc:type
           rdf:resource="http://purl.org/dc/dcmitype/StillImage" /><dc:title></dc:title></cc:Work></rdf:RDF></metadata><defs
     id="defs55" /><sodipodi:namedview
     pagecolor="#ffffff"
     bordercolor="#666666"
     borderopacity="1"
     objecttolerance="10"
     gridtolerance="10"
     guidetolerance="10"
     inkscape:pageopacity="0"
     inkscape:pageshadow="2"
     inkscape:window-width="749"
     inkscape:window-height="480"
     id="namedview53"
     showgrid="false"
     inkscape:zoom="7.9341063"
     inkscape:cx="15.4065"
     inkscape:cy="14.8725"
     inkscape:window-x="432"
     inkscape:window-y="86"
     inkscape:window-maximized="0"
     inkscape:current-layer="Layer_1" /><path
     inkscape:connector-curvature="0"
     id="path5"
     d="m 24.577,26.84 c -1.069,-0.431 -2.301,-0.648 -3.664,-0.648 -3.342,0 -6.523,1.28 -7.48,1.702 l 0,-6.118 0.446,0.49 0,-9.192 c 1.688,-1.419 3.735,-2.181 6.1,-2.273 l 0.459,-0.773 c -2.78,0.003 -5.179,0.853 -7.131,2.527 -1.955,-1.678 -4.358,-2.528 -7.148,-2.528 -2.605,0 -4.558,0.759 -4.639,0.791 l -0.24,0.094 0,1.539 C 0.491,12.598 0,12.862 0,13.293 0,15.537 0,29.152 0,29.152 l 11.68,0 c 0.405,0.361 0.995,0.592 1.656,0.592 0.661,0 1.252,-0.23 1.655,-0.592 l 11.388,0 c 0,0 0,-14.918 0,-15.843 l -1.802,3.729 0,9.802 z m -11.396,1.063 c -0.97,-0.399 -4.31,-1.67 -7.654,-1.67 -1.321,0 -2.492,0.204 -3.49,0.603 l 0,-15.4 c 0.582,-0.194 2.169,-0.652 4.122,-0.652 2.568,0 4.775,0.776 6.578,2.291 l 0,9.192 0.444,-0.49 0,6.126 z"
     style="fill:#0000ff" /><path
     inkscape:connector-curvature="0"
     id="path7"
     d="m 3.534,13.461 0.157,0.593 c 3.944,-1.046 7.494,0.889 7.529,0.909 l 0.298,-0.536 C 11.366,14.344 7.723,12.351 3.534,13.461 Z" /><path
     inkscape:connector-curvature="0"
     id="path9"
     d="m 3.534,15.197 0.157,0.592 c 3.944,-1.047 7.494,0.89 7.529,0.909 l 0.298,-0.535 C 11.366,16.078 7.723,14.086 3.534,15.197 Z" /><path
     inkscape:connector-curvature="0"
     id="path11"
     d="m 3.534,16.827 0.157,0.593 c 3.944,-1.045 7.494,0.891 7.529,0.91 l 0.298,-0.535 C 11.366,17.708 7.723,15.717 3.534,16.827 Z" /><path
     inkscape:connector-curvature="0"
     id="path13"
     d="m 3.534,18.615 0.157,0.592 c 3.944,-1.046 7.494,0.89 7.529,0.909 l 0.298,-0.535 C 11.366,19.497 7.723,17.504 3.534,18.615 Z" /><path
     inkscape:connector-curvature="0"
     id="path15"
     d="m 3.534,20.271 0.157,0.592 c 3.944,-1.045 7.494,0.89 7.529,0.909 l 0.298,-0.535 C 11.366,21.153 7.723,19.162 3.534,20.271 Z" /><path
     inkscape:connector-curvature="0"
     id="path17"
     d="m 3.534,21.972 0.157,0.593 c 3.944,-1.047 7.494,0.889 7.529,0.909 l 0.298,-0.536 C 11.366,22.853 7.723,20.863 3.534,21.972 Z" /><path
     inkscape:connector-curvature="0"
     id="path19"
     d="m 3.534,23.677 0.157,0.592 c 3.944,-1.046 7.494,0.889 7.529,0.909 l 0.298,-0.534 C 11.366,24.558 7.723,22.567 3.534,23.677 Z" /><path
     inkscape:connector-curvature="0"
     id="path21"
     d="M 26.347,0 24.499,3.801 24.508,3.804 18.791,15.578 18.292,21.772 23.185,17.82 28.96,5.965 28.968,5.97 30.813,2.169 26.347,0 Z m -3.493,17.494 -2.793,2.253 -1.108,-0.535 0.273,-3.471 0.259,-0.537 0.512,1.817 1.133,-0.729 0.222,1.385 1.69,-0.571 -0.188,0.388 z M 28.894,4.005 26.091,2.644 26.773,1.238 29.576,2.6 28.894,4.005 Z"
     style="fill:#ff0000" /><g
     id="g23" /><g
     id="g25" /><g
     id="g27" /><g
     id="g29" /><g
     id="g31" /><g
     id="g33" /><g
     id="g35" /><g
     id="g37" /><g
     id="g39" /><g
     id="g41" /><g
     id="g43" /><g
     id="g45" /><g
     id="g47" /><g
     id="g49" /><g
     id="g51" /></svg>