<?xml version="1.0" encoding="UTF-8" standalone="no"?>
<!-- Generator: Adobe Illustrator 16.0.4, SVG Export Plug-In . SVG Version: 6.00 Build 0)  -->

<svg
   xmlns:osb="http://www.openswatchbook.org/uri/2009/osb"
   xmlns:dc="http://purl.org/dc/elements/1.1/"
   xmlns:cc="http://creativecommons.org/ns#"
   xmlns:rdf="http://www.w3.org/1999/02/22-rdf-syntax-ns#"
   xmlns:svg="http://www.w3.org/2000/svg"
   xmlns="http://www.w3.org/2000/svg"
   xmlns:xlink="http://www.w3.org/1999/xlink"
   xmlns:sodipodi="http://sodipodi.sourceforge.net/DTD/sodipodi-0.dtd"
   xmlns:inkscape="http://www.inkscape.org/namespaces/inkscape"
   version="1.1"
   id="Capa_1"
   x="0px"
   y="0px"
   width="17.316px"
   height="23.303px"
   viewBox="0 0 17.316 23.303"
   enable-background="new 0 0 17.316 23.303"
   xml:space="preserve"
   inkscape:version="0.91 r13725"
   sodipodi:docname="brainstorming.svg"><metadata
     id="metadata11"><rdf:RDF><cc:Work
         rdf:about=""><dc:format>image/svg+xml</dc:format><dc:type
           rdf:resource="http://purl.org/dc/dcmitype/StillImage" /></cc:Work></rdf:RDF></metadata><defs
     id="defs9"><linearGradient
       id="linearGradient5655"
       osb:paint="solid"><stop
         style="stop-color:#2b1100;stop-opacity:1;"
         offset="0"
         id="stop5657" /></linearGradient><linearGradient
       inkscape:collect="always"
       id="linearGradient5647"
       osb:paint="gradient"><stop
         style="stop-color:#803300;stop-opacity:1;"
         offset="0"
         id="stop5649" /><stop
         style="stop-color:#803300;stop-opacity:0;"
         offset="1"
         id="stop5651" /></linearGradient><linearGradient
       id="linearGradient5593"
       osb:paint="solid"><stop
         style="stop-color:#552200;stop-opacity:1;"
         offset="0"
         id="stop5595" /></linearGradient><linearGradient
       inkscape:collect="always"
       xlink:href="#linearGradient5655"
       id="linearGradient5661"
       gradientUnits="userSpaceOnUse"
       x1="0.00073722732"
       y1="11.649684"
       x2="17.316"
       y2="11.649684" /></defs><sodipodi:namedview
     pagecolor="#ffffff"
     bordercolor="#666666"
     borderopacity="1"
     objecttolerance="10"
     gridtolerance="10"
     guidetolerance="10"
     inkscape:pageopacity="0"
     inkscape:pageshadow="2"
     inkscape:window-width="1191"
     inkscape:window-height="672"
     id="namedview7"
     showgrid="false"
     inkscape:zoom="10.127452"
     inkscape:cx="8.658"
     inkscape:cy="11.6515"
     inkscape:window-x="486"
     inkscape:window-y="132"
     inkscape:window-maximized="0"
     inkscape:current-layer="Capa_1" /><path
     style="opacity:0.63300003;fill:#ffff00;fill-opacity:1;fill-rule:evenodd;stroke:#f52572;stroke-width:0;stroke-miterlimit:4;stroke-dasharray:none;stroke-opacity:0.99215698"
     id="path5666"
     d="m 10.030601,7.6466308 c 0.167003,-0.2067366 0.339753,-0.4083343 0.53339,-0.5905758 0.180711,-0.1584157 0.363251,-0.3134337 0.515928,-0.4997777 0.0077,-0.010691 0.01026,-0.028987 0.02306,-0.032073 7.92e-4,-1.908e-4 0.03568,0.054099 0.03456,0.075689 -1.34e-4,0.0026 -0.08166,-0.025497 -0.126596,-0.048494 C 10.867189,6.4458717 10.729412,6.337323 10.566397,6.2624622 10.355134,6.1783932 10.12947,6.160386 9.9048537,6.1498509 9.6511997,6.1352403 9.3999147,6.148197 9.1479409,6.1759728 8.8070755,6.2229183 8.4678241,6.277296 8.1251569,6.3112315 7.8257413,6.3429614 7.5285204,6.3992989 7.2310608,6.4482658 6.9248248,6.4954926 6.6168773,6.5270177 6.313364,6.5906944 6.2840462,6.5993441 6.1991584,6.6323013 6.2254107,6.6166437 6.6319594,6.3741663 7.0582214,6.1645958 7.4565621,5.9088581 7.477403,5.8954781 7.4196656,5.8487 7.4410446,5.8361976 c 0.027633,-0.016159 0.060769,0.020377 0.091854,0.028019 0.1691411,0.041582 0.2142513,0.043658 0.394902,0.070733 0.4139117,0.04631 0.8257662,0.1074035 1.2410124,0.141472 0.3299725,0.045495 0.6563136,0.1106263 0.985429,0.1611741 0.319316,0.046918 0.642363,0.051901 0.964343,0.060939 0.401152,-0.017665 0.800817,-0.056791 1.201573,-0.081184 0.314852,-0.010219 0.626398,-0.066072 0.93425,-0.1299302 0.158729,-0.00574 0.522412,-0.1463792 0.653073,-0.044482 0.0269,0.020977 0.03906,0.055931 0.05859,0.083897 0.0019,0.040149 0.01587,0.081601 0.0056,0.1204458 -0.04559,0.1715112 -0.541009,0.4478443 -0.68439,0.5347202 C 12.51231,7.3003544 11.674684,7.6941331 10.846942,8.1121708 10.47074,8.3213381 10.077732,8.4965831 9.7080479,8.7175392 11.752691,7.5090551 10.504411,8.2236051 10.08652,8.5983348 9.8646423,8.8213179 9.7177963,9.1025399 9.5220697,9.3469902 9.3403511,9.5411719 9.1407306,9.7155211 8.9623536,9.9129748 8.5199161,10.120036 8.0953708,10.370691 7.6350411,10.534159 7.5666502,10.558446 7.6206608,10.369204 7.6809265,10.252646 7.7649379,10.090163 7.8915118,9.9547278 8.0122998,9.8199256 8.2804283,9.5306395 8.6018563,9.3007525 8.9147332,9.0636736 9.2500319,8.8197562 9.5787475,8.5670745 9.9130795,8.3218013 10.248095,8.0944672 10.575093,7.8559262 10.90492,7.6211363 11.111721,7.4427807 11.377682,7.3166328 11.549843,7.100383 11.569784,6.9941373 11.033537,6.9592602 10.980845,6.9536695 10.562311,6.910019 10.140175,6.9572652 9.725756,6.8797287 9.2284078,6.7255916 8.7433212,6.5356344 8.2441581,6.3875614 7.9106157,6.2972455 7.5783424,6.2043025 7.2404443,6.1312385 6.9220024,6.0324708 6.5630551,6.0546191 6.2861538,5.8524908 6.2689232,5.8079499 6.2409499,5.7661829 6.2344621,5.7188681 6.1966719,5.4432686 6.482222,5.1776285 6.6519146,5.0025729 6.9129299,4.7602669 7.201479,4.554522 7.4979253,4.3586705 7.8849317,4.1056081 8.2668797,3.8457818 8.6627678,3.6066981 8.9662354,3.4274585 9.2517085,3.2206517 9.5444536,3.0251037 c 0.1544101,-0.1017441 0.3037375,-0.213008 0.441605,-0.336515 0.016695,-0.014957 0.025587,-0.048469 0.047962,-0.047134 0.01759,0.00105 0.0096,0.033905 0.01445,0.050857 C 12.345359,1.6691543 11.554905,1.9676595 11.10362,2.2710415 10.944965,2.3776994 10.792527,2.4938862 10.639097,2.6078052 10.32517,2.8427566 10.015999,3.082948 9.718337,3.3382438 9.3799671,3.6353744 9.0507657,3.942615 8.6997776,4.224869 8.3495464,4.4998447 8.0001639,4.775856 7.65891,5.0619123 7.3817812,5.297542 7.092367,5.5187382 6.7991227,5.7338593 6.5349353,5.9167719 6.2720184,6.1013779 6.0136169,6.2924389 5.4027042,6.7744196 4.7130664,7.1436365 4.0183269,7.4923426 3.8302373,7.5721674 3.5369451,7.7304933 3.3700484,7.5279536 3.3418531,7.4937367 3.3263674,7.4507846 3.3045269,7.4122002 3.2263142,7.0737207 3.4255758,6.7907131 3.6176623,6.5316577 3.7216039,6.4014164 3.8531869,6.298018 3.9978001,6.2160695 4.8075528,5.7572039 5.0776405,5.5178272 5.7797685,5.3220204 6.1316046,5.2483195 6.4899536,5.2305836 6.8363573,5.1309328 7.2037632,5.0106678 7.5552232,4.8511427 7.9016355,4.6809637 8.201727,4.5191249 9.3530785,3.8963094 7.0868667,5.1520996 7.0119119,5.1936348 7.232028,5.0609807 7.3041651,5.0147244 7.5114063,4.8818357 7.7147337,4.7442492 7.9160595,4.6026229 8.2666953,4.3456046 8.5988773,4.0646788 8.9333631,3.7873077 9.1022196,3.6403935 9.2709653,3.4933401 9.4390248,3.3455137 9.4702439,3.3180531 9.6697127,3.1369859 9.7177786,3.110153 10.160704,2.8628891 10.612396,2.6316671 11.059704,2.3924241 c 0.03995,0.024418 0.08611,0.04079 0.119847,0.073255 0.188456,0.1813538 0.191901,0.4956388 0.17374,0.7331956 C 11.296551,3.5444428 11.120823,3.8503684 10.93666,4.142457 10.741592,4.4641314 10.553621,4.7899792 10.36207,5.1137566 9.9955394,5.7557038 9.3714487,6.1767944 8.619239,6.360135 8.3585764,6.2596859 8.2496483,5.9557535 8.1685901,5.7102631 8.0793873,5.3842188 8.0606939,5.0562961 8.1223187,4.7252805 c 0.020945,-0.079882 0.039913,-0.175624 0.081586,-0.2492507 0.2897999,-0.512015 1.3817038,-0.9068187 1.6209304,-1.0368251 0.031786,0.024772 0.074192,0.040022 0.095357,0.074315 C 10.058429,3.7375031 9.8501448,4.1118281 9.7383784,4.305177 9.5213258,4.6210941 9.2161428,4.8580227 8.9416903,5.1205797 8.8985395,5.1621705 8.6241535,5.4854212 8.6999106,5.5456454 c 0.023303,0.018525 0.057668,0.014948 0.086872,0.020725 0.059916,0.011853 0.1202593,0.021432 0.180389,0.032148 0.5863053,0.067007 1.1765974,-0.015682 1.7587914,-0.086222 0.326553,-0.041729 0.650535,-0.1418989 0.98163,-0.08152 0.07889,0.014387 0.405946,0.1110408 0.484266,0.1336895 0.203082,0.070574 0.41037,0.1438145 0.594194,0.2580869 0.1603,0.099649 0.305113,0.2308708 0.457854,0.3417157 0.20454,0.1769541 0.619025,0.2458168 0.675671,0.5547607 0.0094,0.051089 -0.0043,0.1037904 -0.0065,0.1556856 -0.09257,0.2897305 -0.336124,0.466552 -0.589306,0.6121996 -0.455132,0.2618225 -0.911889,0.5208108 -1.367833,0.7812162 -0.342197,0.1442279 -0.689902,0.2738154 -1.030276,0.4222559 -0.156658,0.08108 -0.315312,0.1590766 -0.469322,0.2451916 -0.05265,0.029437 -0.20846,0.1214577 -0.156016,0.091663 C 11.335242,8.4392943 11.6497,8.2341562 11.110984,8.5776946 10.704488,8.8399275 10.292764,9.0939024 9.8851224,9.3543384 9.5987408,9.5472646 9.283027,9.6933539 9.0210307,9.9202677 8.6311439,10.294519 7.8933423,11.14012 7.5319609,10.625131 7.4206284,10.466476 7.4918088,10.302469 7.5475786,10.140736 7.7606476,9.7419992 8.1005597,9.4340284 8.4240778,9.1257513 8.7194765,8.8505754 8.9514514,8.5183819 9.1870933,8.1929772 9.3837431,7.9057326 9.6287867,7.668689 9.9306135,7.4917306 11.282092,6.6993705 10.897971,6.8760834 11.656117,6.5520111 c 0.205504,-0.068213 0.747952,-0.4093475 0.931144,-0.1525769 0.03032,0.042502 0.03514,0.09833 0.05271,0.1474953 -0.0065,0.3761746 -0.252739,0.6831122 -0.405233,1.0114954 -0.05329,-0.4689255 0.09281,-0.1441738 -1.176103,0.5401271 -0.04174,0.022508 0.08003,-0.051197 0.117144,-0.080708 0.09517,-0.075666 0.155451,-0.1452838 0.239645,-0.2335273 0.228151,-0.2466495 0.415023,-0.5268595 0.623909,-0.7895073 0.498587,-0.644435 1.181566,-0.8831149 1.914824,-1.2940015 0.203531,-0.095625 0.449875,-0.066117 0.359385,0.2314677 -0.01402,0.046113 -0.04224,0.086648 -0.06336,0.1299714 -0.230646,0.3420549 -0.532071,0.6271359 -0.827764,0.9117915 -0.308535,0.2951041 -0.635723,0.5696206 -0.9659,0.8399602 -0.05336,0.043001 -0.106726,0.086002 -0.160089,0.1290031 0,0 -1.295331,0.5198025 -1.295331,0.5198025 l 0,0 c 0.05444,-0.043216 0.108888,-0.086432 0.163332,-0.1296482 0.333656,-0.2653014 0.658828,-0.5416828 0.972126,-0.830769 0.288361,-0.2673095 0.573485,-0.5421781 0.80875,-0.858636 0.0211,-0.030381 0.0421,-0.060828 0.06329,-0.091143 0.01166,-0.016681 0.01878,-0.037901 0.03526,-0.049845 0.0073,-0.00528 0.03182,-0.00222 0.02652,0.00506 -0.01178,0.016184 -0.219658,0.047699 -0.229499,0.076773 2.571501,-1.5068836 0.968456,-0.6245895 0.711973,-0.3857366 -0.03056,0.028462 -0.18973,0.2129128 -0.215542,0.24255 -0.21567,0.2599364 -0.399242,0.5439459 -0.623101,0.7958403 -0.368584,0.4471284 -1.440866,1.4896738 -1.777621,0.9993339 -0.01731,-0.025198 -0.0028,-0.061075 -0.0041,-0.091612 0.167359,-0.2935072 0.377136,-0.574582 0.443266,-0.9128221 2.5e-5,-0.018304 0.01055,-0.039904 7.5e-5,-0.054912 -0.07425,-0.1063636 -0.692147,0.1824205 -0.783254,0.2169651 -0.54924,0.2486664 -0.439676,0.2111942 0.59374,-0.3925037 0.09015,-0.052666 -0.180535,0.1054429 -0.265887,0.1655796 -0.185327,0.1305775 -0.311689,0.2919923 -0.448783,0.4687915 -0.234206,0.3306881 -0.471221,0.664644 -0.7513961,0.9579453 -0.3210486,0.2943259 -0.6605751,0.5836341 -0.8960056,0.9541585 -0.021167,0.048788 -0.086145,0.1777882 -0.08946,0.2458665 -0.00299,0.061374 0.015963,0.049343 0.049447,0.045925 -0.3896739,0.2308666 -0.7793478,0.4617336 -1.1690218,0.6926006 -0.033226,0.01921 0.06112,-0.04644 0.09168,-0.06966 C 7.9531684,10.192768 8.2891829,10.05287 8.5926087,9.8573008 9.0005362,9.59562 9.414509,9.343476 9.8213261,9.0800435 10.531251,8.6168481 11.263732,8.180632 12.030331,7.8175888 c 0.340132,-0.1421738 0.68813,-0.266749 1.019227,-0.4297219 -0.345996,0.2011832 -0.692636,0.4012645 -1.03799,0.6035495 -0.05235,0.03066 0.106206,-0.058664 0.158936,-0.088658 0.180054,-0.1024219 0.351309,-0.2188575 0.457137,-0.4027492 0.01319,-0.03021 0.03559,-0.057908 0.03958,-0.090631 C 12.690964,7.214689 12.185564,7.0245104 12.062713,6.915275 11.74309,6.6907912 11.443308,6.4414828 11.053629,6.3447929 10.870741,6.2951166 10.769052,6.2595078 10.57905,6.2402016 10.26083,6.207867 9.9472359,6.2977461 9.6324705,6.3250281 9.0317337,6.3827987 8.4251615,6.4658412 7.8219512,6.3956825 7.6751406,6.3624389 7.5370691,6.3621099 7.4358645,6.2303185 7.2932376,6.0445857 7.5476854,5.8034761 7.6352406,5.6600109 7.9023611,5.3933977 8.2151893,5.171857 8.4488074,4.8727095 8.4810715,4.8267809 8.5170909,4.783273 8.5455996,4.7349236 8.5664461,4.6995689 8.717449,4.3371065 8.703422,4.3066669 c -0.00378,-0.00821 -0.017499,0.00457 -0.026248,0.00686 2.502073,-1.4833246 1.1200525,-0.7623828 0.8327149,-0.4259167 -0.065349,0.076523 -0.073824,0.124055 -0.1103046,0.2182925 -0.00462,0.021567 -0.055652,0.2570278 -0.058515,0.2815522 -0.025041,0.2145034 0.022345,0.431529 0.068801,0.639479 0.045571,0.1370383 0.149081,0.5039612 0.351021,0.4441089 C 10.226084,5.2496087 9.8836874,5.410075 8.6915098,6.1104189 8.658162,6.1300091 8.7605851,6.074195 8.7900045,6.0490883 8.9064408,5.9497206 8.9924159,5.8109651 9.0744681,5.6844792 9.2701244,5.3623783 9.4686566,5.0427461 9.6440175,4.7087052 9.831197,4.4380111 10.003279,4.1510421 10.08458,3.8289723 10.102649,3.6940907 10.131555,3.3486527 9.980633,3.2639983 9.9627037,3.2539415 9.9396684,3.2604912 9.9191862,3.2587377 10.289234,3.0361925 10.659282,2.8136473 11.029331,2.5911021 10.980393,2.6232966 10.92898,2.6520126 10.882517,2.6876857 10.649658,2.8664689 10.443538,3.0816969 10.218326,3.2695958 9.8810059,3.5449124 9.5557951,3.8355326 9.2050754,4.0941713 8.4410638,4.6372131 7.6399688,5.1297679 6.8046342,5.5561298 6.4527807,5.7238337 6.092497,5.8753077 5.7187059,5.9874947 5.3729935,6.0697808 5.0161281,6.0805646 4.6730148,6.1760353 4.1022826,6.3565592 3.6965753,6.6832201 5.3122453,5.7107963 5.4066533,5.6539749 5.1169189,5.8149268 5.0293608,5.8818231 4.9921663,5.9102405 4.9574747,5.9417923 4.9215317,5.9717769 4.7528373,6.1827229 4.5413164,6.402388 4.5503886,6.6912835 c 0.012447,0.01949 0.020109,0.043047 0.037341,0.05847 0.09891,0.088526 0.4379894,-0.098564 0.5291209,-0.1372921 0.5065311,-0.260518 0.3055596,-0.1608041 -0.8929041,0.533809 -0.044968,0.026063 0.088271,-0.054899 0.1322686,-0.082568 0.2165579,-0.1361916 0.013476,-0.00201 0.2185083,-0.1625802 0.036969,-0.028951 0.076559,-0.05439 0.1148388,-0.081584 C 4.9505051,6.6182151 5.2246843,6.4352901 5.4958824,6.2483416 5.7954175,6.0418104 6.0769823,5.8088632 6.3633013,5.5848374 6.7121408,5.2960228 7.0634294,5.0107981 7.4242263,4.7366002 7.7706876,4.4621703 8.0928223,4.1601465 8.4218197,3.865273 8.7149279,3.6030559 9.0239687,3.361012 9.3383859,3.1250226 9.9970511,2.626785 10.466985,2.2870585 11.366879,2.0279679 c 0.0045,0.024686 0.02401,0.051322 0.01341,0.074058 -0.01168,0.025035 -0.04793,0.027967 -0.06921,0.045582 C 11.164157,2.2692167 11.028313,2.4068657 10.865014,2.508417 10.563028,2.7092612 10.26599,2.9167168 9.9569614,3.1069589 9.5646285,3.3440261 9.1778086,3.5881532 8.8010207,3.8495564 8.5072764,4.0429226 8.2209483,4.2414245 7.9504651,4.4667108 7.790192,4.6136473 7.5184694,4.8511002 7.5016254,5.0811096 c 0.254377,0.1834208 0.6092108,0.1567892 0.899799,0.2449456 0.3343288,0.076813 0.6629724,0.1671278 0.9859413,0.2840901 0.4924071,0.1711401 0.9792863,0.3691126 1.4952513,0.4592619 0.408734,0.065822 0.824369,0.037224 1.235948,0.075313 0.279891,0.027842 0.676758,0.025444 0.750859,0.3630167 -0.01269,0.032103 -0.01923,0.06738 -0.03806,0.09631 -0.145418,0.2233768 -0.442697,0.3182867 -0.625246,0.503411 C 11.875628,7.3424177 11.551044,7.5848817 11.21195,7.8071552 10.877529,8.0504154 10.551012,8.3031413 10.2153,8.5443717 9.9086085,8.7855254 9.5788013,8.9998316 9.3043028,9.2796061 9.1719507,9.4151622 9.1753238,9.4028576 9.0650501,9.5484802 9.0151485,9.614378 8.9802544,9.6915666 8.925387,9.753391 8.9158575,9.7641289 8.8997451,9.7663117 8.8869242,9.7727721 8.4620263,9.9985919 8.0371284,10.224412 7.6122305,10.450232 7.7169423,10.395853 7.7717135,10.316878 7.8542767,10.233658 7.9704741,10.116537 8.10977,10.025881 8.2167548,9.8992172 8.4313483,9.6673699 8.5782737,9.3884966 8.7713227,9.1398291 9.3335652,8.5667474 10.150584,8.2665057 10.795795,7.836714 c 0.37251,-0.2073536 0.758669,-0.3886377 1.133942,-0.5909429 0.504465,-0.2515682 2.183517,-1.1299055 0.06084,0.035869 0.10284,-0.05989 0.253504,-0.1450474 0.353728,-0.2129598 0.09083,-0.061545 0.19847,-0.1749526 0.306752,-0.2102247 0.01652,-0.00538 0.03468,0.00224 0.05203,0.00336 -0.156268,-0.01508 -0.399054,0.060712 -0.58048,0.082155 -0.309541,0.058194 -0.622487,0.1009762 -0.93785,0.1077528 -0.403564,0.019203 -0.806105,0.053955 -1.2095919,0.073936 C 9.6482137,7.1211729 9.3213319,7.1000592 8.9980019,7.0493268 8.6705209,6.9924107 8.3429949,6.9355326 8.0125884,6.8978178 7.6062308,6.8439789 7.2027742,6.7676071 6.7937841,6.7347805 6.6609882,6.7170872 6.325136,6.7070489 6.2132851,6.6270684 5.696449,6.2574975 6.9585425,5.7723618 7.4542579,5.7306811 7.7550583,5.6873969 8.0558727,5.6451611 8.3565302,5.6011343 8.6557566,5.5482859 8.9543485,5.4856145 9.2586523,5.4701852 9.6027139,5.4349296 9.9422797,5.3714789 10.285511,5.3306673 c 0.260165,-0.027439 0.519608,-0.035312 0.780868,-0.014226 0.240458,0.017197 0.476205,0.051847 0.696987,0.1556416 0.159705,0.07945 0.30008,0.1848584 0.455197,0.2709761 0.107314,0.031754 0.29522,0.107441 0.191061,0.2470022 -0.158534,0.1932597 -0.330219,0.3714582 -0.526608,0.5272398 -0.190798,0.1663248 -0.369007,0.3442439 -0.514581,0.5528074 0,0 -1.337834,0.5765226 -1.337834,0.5765226 z"
     inkscape:connector-curvature="0" /><path
     style="opacity:0.63300003;fill:#ffff00;fill-opacity:1;fill-rule:evenodd;stroke:#f52572;stroke-width:0;stroke-miterlimit:4;stroke-dasharray:none;stroke-opacity:0.99215698"
     id="path5664"
     d="M 7.0550431,5.9849052 C 7.1589348,5.8521935 7.2659373,5.7083684 7.3579193,5.5759734 c 0.00901,0.035728 0.032771,0.070785 0.027043,0.1071846 -0.00373,0.023706 -0.034521,0.033344 -0.051782,0.050015 C 7.7126307,5.5163134 8.0912141,5.2979294 8.4715313,5.0825932 8.5141158,5.0584819 8.3881075,5.133776 8.3464514,5.159458 8.1758664,5.2646278 8.2260526,5.233591 8.0544982,5.3418375 8.0024356,5.3748314 7.9515979,5.4098426 7.8983105,5.4408192 7.450582,5.7010892 7.0046651,5.9646698 6.5515815,6.2155013 6.5181955,6.2339841 6.4794572,6.2520403 6.4415957,6.2472707 6.3444763,6.235036 6.3273594,6.098174 6.3388634,6.0327634 6.3472605,5.9850185 6.3886983,5.9495958 6.4136157,5.9080121 6.6691438,5.6079918 6.9573577,5.3370819 7.2533833,5.0776185 7.5017566,4.8753311 7.742722,4.6645161 7.9838826,4.4538039 8.7316173,4.0189679 9.5202045,3.1918183 9.494793,4.2382083 9.4678684,4.8394927 9.4913748,4.4584509 8.1874842,4.9633981 8.1562854,4.9754803 8.2168614,4.9032761 8.2319694,4.8734249 8.2982409,4.7424826 8.2816401,4.7755784 8.3579132,4.6429877 8.4839133,4.4013892 8.6356648,4.1769009 8.7910593,3.9537642 8.9341265,3.7611072 9.0999225,3.5870187 9.2671337,3.4154328 9.7017787,2.9772277 9.9297771,2.8588985 10.740247,2.5247165 c 0.171642,-0.070773 0.04145,0.2374289 0.04076,0.2394283 -0.1885,0.2956716 -0.45878,0.5209734 -0.728823,0.7385622 C 9.7115696,3.7749801 9.3603869,4.0347943 9.0022189,4.2834901 8.6800941,4.4921926 8.3504856,4.6886252 8.0298784,4.8997433 7.33133,5.3562334 6.5906649,5.7434806 5.8607974,6.1463905 8.3522326,4.7165488 6.1269567,5.9953543 5.6003282,6.2895152 5.5075489,6.3413393 5.4058185,6.3753045 5.3101595,6.4215983 5.2279824,6.4613675 5.1071072,6.5271492 5.0254473,6.5709162 5.4196162,6.3452338 5.8417377,6.1625458 6.207954,5.8938688 6.252662,5.8610688 6.156056,5.7862647 6.168581,5.7322488 6.177011,5.6958958 6.227419,5.6856978 6.260311,5.6680718 6.4567277,5.5628143 6.6724449,5.4795313 6.8757293,5.3886459 6.9606756,5.3478477 7.0463617,5.3085554 7.1305682,5.2662514 7.3835176,5.1391734 7.3690231,5.1399114 7.6093648,5.003191 7.6776311,4.9643571 7.8830441,4.8489445 7.8148764,4.8879512 6.7255738,5.5112676 6.4669555,5.705396 6.9057491,5.3873763 c 0.084732,0.00508 0.07509,-0.1073327 0.1318293,-0.1338148 0.00858,-0.004 0.00774,0.017305 0.010851,0.026249 0.015075,0.043403 0.049917,0.085217 0.043674,0.130737 -0.00312,0.022737 -0.043775,0.014066 -0.064797,0.023273 -0.02979,0.013048 -0.058259,0.028923 -0.087389,0.043385 C 6.440753,5.7717721 7.2000369,5.3230606 7.9352734,4.9107226 7.9894834,4.8803204 7.8301519,4.9770667 7.7776485,5.0103294 7.6134883,5.1143301 7.4497452,5.2182606 7.2830308,5.318136 6.9946919,5.4705314 6.7365454,5.6693268 6.4699958,5.8551648 5.8040711,6.2897654 5.110225,6.6828603 4.3813928,6.999754 4.3374413,7.0156805 4.2925182,7.0291457 4.2495382,7.0475333 4.1392604,7.0947123 4.0428976,7.1671048 4.0745821,7.1426957 5.0224594,6.4124692 4.8378281,6.3275518 5.4639339,6.1846331 5.7482863,6.1307256 6.0292634,6.0640357 6.3165368,6.025479 6.6209103,6.0008701 6.929843,5.9901946 7.2342241,6.017826 7.5436615,6.0547552 7.8540991,6.0787965 8.165476,6.0899281 8.4185536,6.0971752 8.6073635,5.970968 8.8186906,5.855317 8.854091,5.8392707 8.9584568,5.7875807 8.9248918,5.8071781 6.9033411,6.9874933 7.5281261,6.5949066 7.9539375,6.3484072 8.3891281,6.0964783 8.8159962,5.8289044 9.2634887,5.5995369 c 0.02925,-0.014993 0.062748,0.019601 0.094122,0.029401 0.1350969,0.048457 0.195593,0.3689814 0.3181771,0.3874542 0.020367,0.00307 0.040163,-0.00916 0.060245,-0.013742 1.3625972,-0.8125209 -3.7566514,2.1603637 0.4314542,-0.268212 0.191176,-0.066331 0.304594,0.1099574 0.470699,0.1464907 0.205823,-0.012804 0.40928,-0.047012 0.614379,-0.066644 0.15043,0.00313 0.273668,0.084939 0.406416,0.1454866 0.01731,0.0033 0.03431,0.00998 0.05192,0.00989 0.09789,-5.127e-4 0.204701,-0.041277 0.291413,-0.081873 0.03918,-0.018341 0.152039,-0.082568 0.114533,-0.061015 -0.367469,0.2111655 -0.736317,0.4199226 -1.104476,0.6298839 0.515968,-0.343279 1.026265,-0.611278 1.601954,-0.9107485 0.14358,-0.07469 0.429375,-0.078114 0.589309,-0.096138 0.167144,0.00313 0.696782,-0.1234138 0.788501,0.060817 0.0185,0.037157 0.01484,0.081676 0.02226,0.1225145 -0.09197,0.1690117 -0.259853,0.2879464 -0.423521,0.3834358 -1.27037,0.741174 -0.908734,0.5554732 -1.522224,0.8640266 C 11.684014,7.0337492 11.299105,7.1864535 10.91127,7.3313693 10.556795,7.4569047 10.206956,7.587589 9.8761065,7.7674805 9.4473337,8.0068128 9.1216858,8.1893689 10.780463,7.2462941 c 0.05154,-0.0293 -0.101795,0.060804 -0.152217,0.091982 -0.142338,0.088014 -0.2786,0.1820915 -0.413523,0.2809543 C 9.95803,7.7904339 9.7930339,8.0438171 9.623974,8.2943773 9.4610788,8.553281 9.2398596,8.7667869 9.0595514,9.0122137 c 0.00126,-0.010436 0.01354,-0.035227 0.00379,-0.031307 -0.4247943,0.1707447 -0.8366545,0.3730448 -1.2638178,0.537773 -0.051666,0.019924 0.0876,-0.067764 0.1317363,-0.1012053 0.05865,-0.044438 0.116822,-0.089543 0.1766177,-0.1324271 C 8.2391628,9.1908933 8.3974069,9.087175 8.5318566,8.9976294 8.8947385,8.7661074 9.2331318,8.50166 9.5538874,8.2153594 9.8340034,7.9488822 10.12634,7.6960581 10.437059,7.4660003 c 0.29152,-0.1964761 0.589413,-0.3828573 0.880508,-0.5800018 0.52767,-0.355153 1.084966,-0.6539636 1.638002,-0.9725998 0.165397,-0.095295 0.125405,-0.073841 0.211653,0.1338015 C 12.923797,6.2573399 12.689444,6.4775589 12.450351,6.6925615 12.107309,6.999999 11.750474,7.2913774 11.40273,7.5933527 11.101292,7.8682264 10.783592,8.1244362 10.457887,8.3698036 10.14534,8.5954793 9.8188486,8.8005126 9.4890721,8.9997853 8.9186612,9.3714258 8.3223995,9.6964162 7.7275026,10.02955 c -0.2121525,0.09817 -0.1106289,0.04606 -0.3051412,0.155224 -0.1085733,0.04451 -0.3886158,0.273437 -0.4668155,0.07412 -0.015693,-0.04 -0.00995,-0.08536 -0.014928,-0.128038 C 7.1380537,9.9409826 7.3872756,9.809709 7.6136444,9.6560657 7.8972956,9.4785198 8.1424993,9.2539482 8.3675348,9.0081724 8.6314592,8.7222921 8.8783591,8.4214878 9.1240311,8.1199746 9.379555,7.7892983 9.6571874,7.4764898 9.9426244,7.171545 10.056611,7.0423947 10.184863,6.9272244 10.304364,6.8034521 c 0.01961,-0.020315 0.05232,-0.081702 0.0637,-0.055854 0.0162,0.036833 0.02697,0.075825 0.04045,0.1137375 C 10.136342,6.8336274 9.8705874,6.7635285 9.6026458,6.7096165 9.3265439,6.6866884 9.0987761,6.5347491 8.8522172,6.4263779 8.5554578,6.2788205 8.231712,6.2005017 7.9181302,6.0980237 7.6089653,6.0161797 7.2996632,5.935354 6.9829036,5.8888162 6.6755945,5.8373598 6.3839637,5.912189 6.0987604,6.0202519 5.7364516,6.1329466 5.3603651,6.204113 4.9870252,6.2724945 4.9061628,6.2636401 4.6527525,6.3916463 4.5789673,6.3754671 4.4983927,6.3577991 4.4825818,6.2303766 4.4906664,6.1764445 4.4951999,6.1462021 4.5259977,6.1265214 4.5436633,6.1015598 4.7984544,5.8945573 5.0727933,5.7122313 5.3391849,5.5204318 5.9853654,5.015386 6.7559306,4.7244367 7.4639377,4.3294296 5.3291969,5.6355269 6.6471878,4.7590446 7.1487039,4.4599773 7.4843998,4.2485506 7.8195363,4.0360857 8.1515048,3.8187918 8.5042918,3.5949179 8.8565648,3.3704523 9.2163172,3.1578793 9.5101433,2.9848802 9.7899967,2.7902861 10.070567,2.5970142 c 0,0 1.307877,-0.5120609 1.307877,-0.5120609 l 0,0 C 11.094586,2.2699617 10.820707,2.4700124 10.533868,2.6507281 10.172611,2.8633362 9.8096962,3.0729515 9.4619671,3.3076868 9.1291779,3.5232076 8.7911519,3.7302427 8.4642781,3.954668 7.7503558,4.3573271 7.1184908,4.8926505 6.3578516,5.220107 6.2203844,5.2922666 6.0798281,5.3553281 5.9404808,5.4235994 5.8847663,5.450896 5.721551,5.5402276 5.7747261,5.5082649 7.473449,4.4871926 7.0476181,4.7519175 6.6486474,5.0019422 6.3954868,5.1877 6.1359574,5.3640322 5.8853892,5.5532724 c -0.020248,0.0095 -0.038728,0.032446 -0.060745,0.028506 -0.028751,-0.00514 -0.048186,-0.033182 -0.070527,-0.051995 -0.00929,-0.00783 -0.033489,-0.020058 -0.023902,-0.027525 0.032869,-0.0256 0.3431356,-0.047736 0.3797632,-0.077358 0.3721499,-0.069154 0.7465832,-0.141831 1.1028018,-0.2724611 0.3046131,-0.097151 0.6130928,-0.1415653 0.9311091,-0.078257 0.3182661,0.059003 0.631961,0.1397867 0.9431748,0.2285348 0.318591,0.09921 0.6391099,0.196576 0.9410649,0.3406404 0.24114,0.1028957 0.480569,0.2137737 0.742051,0.2549855 0.27685,0.062663 0.554549,0.1245769 0.840557,0.1171573 0.03132,0.040646 0.07261,0.075282 0.09397,0.1219393 0.02724,0.059501 -0.420753,0.4205133 -0.474548,0.4962359 C 10.944481,6.9353806 10.661462,7.2402712 10.408902,7.5708117 10.170776,7.8758088 9.9223752,8.1729599 9.665291,8.4621156 9.4452073,8.7141427 9.2181426,8.9617711 8.929662,9.1380781 8.72125,9.286885 8.5074492,9.429068 8.2867698,9.5589192 8.252747,9.5311615 8.1777346,9.475633 8.1827233,9.4597579 8.1836429,9.4568315 8.5196452,9.3184554 8.5250378,9.2979055 8.9698505,9.0728681 9.6617998,8.6536397 7.7754211,9.7554573 7.5085147,9.9113551 8.4544739,9.3771693 8.1742283,9.5051652 8.512219,9.3148272 8.8374273,9.1027082 9.1585759,8.8853306 9.4903162,8.6457222 9.8096291,8.3890438 10.114734,8.1162919 10.460882,7.8155755 10.818629,7.528721 11.157129,7.2192553 11.381044,7.0230996 11.588716,6.809862 11.810428,6.6112884 c 0.03982,0.050381 0.08241,0.098692 0.119467,0.1511426 0.0045,0.00637 -0.246752,0.1429499 -0.07778,0.043792 1.98205,-1.1631035 1.199394,-0.7145602 0.778122,-0.4346324 C 12.338321,6.5675478 12.047021,6.7639328 11.74741,6.9481911 11.427139,7.1701834 11.124559,7.4155459 10.845513,7.6880281 10.522012,7.9835896 10.187289,8.2648692 9.8136261,8.4964157 9.7927426,8.5102256 9.4300045,8.749731 9.4035882,8.7686084 9.0223317,9.0410588 7.676796,10.268052 7.7441905,9.5781585 7.9338442,9.3351752 8.1476808,9.1125845 8.3260598,8.8607289 8.5005078,8.6069635 8.6436019,8.3249926 8.9006424,8.1421731 9.5409352,7.6463192 10.273533,7.282122 10.975866,6.8854601 11.309779,6.7221555 11.658596,6.599109 12.007802,6.4728304 12.397198,6.3256624 12.786398,6.1752521 13.1646,6.0011719 c 0.525621,-0.2813473 0.201222,-0.1101767 -0.892151,0.5261784 -0.04633,0.026964 0.09391,-0.051827 0.139303,-0.080343 0.102031,-0.0641 0.125583,-0.08792 0.216671,-0.1556628 0.02036,-0.015144 0.04123,-0.029605 0.06184,-0.044407 0.02011,0.00826 0.0393,0.019276 0.06033,0.024793 0.005,0.0013 -0.0051,-0.010351 -0.01005,-0.011604 -0.02937,-0.00742 -0.05958,-0.01253 -0.08986,-0.013629 -0.188158,-0.00683 -0.377252,0.022415 -0.564141,0.037132 -0.176785,0.026036 -0.240557,0.029617 -0.413239,0.078382 -0.05694,0.016079 -0.217633,0.089651 -0.167866,0.057657 1.887034,-1.213144 1.22999,-0.7556794 0.836681,-0.4737363 -0.0728,0.04164 -1.33925,1.0405026 -1.90157,0.8172773 C 10.330544,6.7057512 10.222451,6.6556195 10.094609,6.673471 9.878445,6.6963321 9.6564488,6.7358194 9.4412539,6.690439 9.2942985,6.6242475 9.1895556,6.5391077 9.0364117,6.6476331 9.4087687,6.4309148 10.528084,5.7846497 10.156508,6.0027044 9.7213122,6.2580937 9.2851921,6.5119168 8.8480126,6.7638955 8.7524298,6.8189869 8.6595388,6.8472782 8.5483502,6.8295744 8.5146978,6.8140377 8.4776637,6.8043548 8.4473929,6.7829643 8.3416844,6.7082666 8.3238202,6.5594519 8.2181486,6.4866105 c -0.01074,-0.0074 -0.025444,-0.00577 -0.038166,-0.00865 C 7.7336758,6.702268 8.0487551,6.5451629 9.2946161,5.8241302 9.3541831,5.7896562 9.1856587,5.9088901 9.1262676,5.9436662 8.0188945,6.5920822 8.2368793,6.4774686 7.7033377,6.75352 7.4830521,6.8716632 7.2647543,6.9432444 7.010253,6.9205281 6.701813,6.9008863 6.3944271,6.8713489 6.0869561,6.8402598 5.7822112,6.82934 5.4765951,6.8395251 5.1740934,6.8803233 4.8880569,6.9230444 4.6060988,6.9865381 4.3255591,7.0565235 4.2878329,7.0673616 4.2500457,7.0779893 4.2123806,7.0890378 4.1796028,7.0986527 4.0883181,7.1407658 4.114234,7.1185127 4.8145568,6.5171711 4.8963773,6.3441634 5.4938368,6.1181424 5.6377482,6.0526919 5.7825374,5.9880278 5.9234628,5.9162806 5.9758853,5.8895916 6.1298477,5.8033488 6.0791598,5.833201 5.459517,6.1981346 4.5939998,6.6915532 5.1550837,6.3713794 5.4284979,6.1884522 5.6808622,5.9744106 5.9735224,5.8209081 6.6807519,5.4262316 7.3170535,4.9045347 8.0668592,4.5836643 8.0923649,4.5733164 8.2447633,4.5102202 8.2507834,4.5126482 8.2875548,4.5274789 8.4009085,4.6172461 8.3727007,4.6901683 8.3451089,4.7614982 8.231128,4.7791937 8.2206685,4.8620101 7.6902981,5.298405 8.1165066,4.9592233 6.7358837,5.7588159 6.432287,5.934645 6.1184522,6.0928541 5.8010985,6.2420869 5.7198171,6.2799982 5.6385357,6.3179095 5.5572544,6.3558208 5.4836044,6.3908211 5.4101372,6.4262085 5.3363045,6.4608216 5.3227881,6.4671581 5.0381077,6.6130338 4.9848208,6.5901973 4.920582,6.5626673 4.7977578,6.4708515 4.8525743,6.4274962 5.2397475,6.1212755 5.7058245,5.9308463 6.1324496,5.6825214 6.2769624,5.6097398 6.4230571,5.5408067 6.5686678,5.4703027 6.6155492,5.447603 6.7533993,5.3741902 6.7086344,5.4008218 6.304367,5.641329 3.8688166,7.0462645 6.9640623,5.258207 7.0145686,5.2315782 7.2002482,5.1338369 7.2473626,5.108339 7.3012563,5.0791721 7.4612414,4.9886261 7.408394,5.0196484 5.4792301,6.1521008 6.3106213,5.6671155 6.7281821,5.4085281 7.0488462,5.1953901 7.3729653,4.9888861 7.7035461,4.7912586 8.0699114,4.5592902 8.4126231,4.2879633 8.7551357,4.0225678 9.0087172,3.8247323 9.2783095,3.627775 9.451995,3.3515176 9.5260493,3.2995084 9.4818067,3.3103632 9.5737493,3.41359 11.957255,2.3038213 10.955615,2.4772578 10.596933,2.8699248 10.414706,3.0248052 10.262399,3.2080609 10.102094,3.3847042 9.9434704,3.6040214 9.7775308,3.8181083 9.6614728,4.0641857 c -0.050001,0.082232 -0.078172,0.1227094 -0.1174788,0.208477 -0.011746,0.025631 -0.00586,0.06533 -0.030593,0.078856 -1.9632104,1.0734644 -1.4085148,1.10811 -1.3008935,0.5322894 0.00296,-0.039119 0.013707,-0.1473805 0.00783,-0.1904109 -0.00477,-0.03492 -0.00775,-0.087952 -0.041775,-0.09713 -0.00997,-0.00269 -0.03744,0.017241 -0.028569,0.01196 C 8.5362929,4.3782449 8.9240708,4.1507501 9.311111,3.9220116 9.0444325,4.1140087 8.8179152,4.3586969 8.551439,4.5521751 8.2575958,4.7945404 7.9824002,5.0577826 7.72485,5.3382757 7.701873,5.3647167 7.689177,5.4066037 7.655918,5.4175987 7.625443,5.4276727 7.5529354,5.3821827 7.577575,5.3616117 7.598897,5.3438107 7.6776012,5.3135817 7.653725,5.3277757 6.2117824,6.184979 6.2876892,6.1395293 6.7408429,5.8533768 6.8703031,5.768409 7.0000116,5.6784567 7.1337426,5.6003568 7.576219,5.3419472 8.0164124,5.0793871 8.4647768,4.8313342 c 0.029117,-0.016108 0.066583,-0.033554 0.097525,-0.021313 0.044061,0.017432 0.067416,0.066603 0.1011236,0.099904 0.00161,0.025848 0.011399,0.052497 0.00482,0.077544 -0.040868,0.1555292 -0.1965664,0.2736405 -0.2723639,0.410775 0,0 -1.3408362,0.5866609 -1.3408362,0.5866609 z"
     inkscape:connector-curvature="0" /><path
     inkscape:connector-curvature="0"
     style="fill:url(#linearGradient5661);fill-opacity:1;fill-rule:evenodd"
     id="path5"
     d="m 17.316,7.788 c 0,-6.568 -5.271,-8.102 -8.961,-7.739 -3.687,0.359 -6.899,2.279 -6.899,5.515 0,3.24 -0.212,4.354 -0.212,4.354 l 0.67,0.907 c 0,0 -2.084,3.446 -1.902,3.896 0.179,0.449 1.887,0.762 1.887,0.762 0,0 0.139,0.229 0,2.442 -0.151,2.508 1.674,2.595 3.013,2.407 0.646,-0.09 1.107,-0.194 1.548,-0.31 l 0.378,3.278 9.146,0 -1.358,-6.966 c 0.539,-2.264 2.69,-3.559 2.69,-8.546 z m -10.109,2.722 3.119,-3.654 -6.557,0 0,-10e-4 7.419,-4.78 -3.011,3.437 6.396,0 -7.366,4.998 z" /></svg>