<?xml version="1.0" encoding="UTF-8" standalone="no"?>
<!-- Generator: Adobe Illustrator 16.0.0, SVG Export Plug-In . SVG Version: 6.00 Build 0)  -->

<svg
   xmlns:dc="http://purl.org/dc/elements/1.1/"
   xmlns:cc="http://creativecommons.org/ns#"
   xmlns:rdf="http://www.w3.org/1999/02/22-rdf-syntax-ns#"
   xmlns:svg="http://www.w3.org/2000/svg"
   xmlns="http://www.w3.org/2000/svg"
   xmlns:sodipodi="http://sodipodi.sourceforge.net/DTD/sodipodi-0.dtd"
   xmlns:inkscape="http://www.inkscape.org/namespaces/inkscape"
   version="1.1"
   id="Capa_1"
   x="0px"
   y="0px"
   width="20.131px"
   height="25.152px"
   viewBox="0 0 20.131 25.152"
   style="enable-background:new 0 0 20.131 25.152;"
   xml:space="preserve"
   inkscape:version="0.92.2 5c3e80d, 2017-08-06"
   sodipodi:docname="CampaignSetup.svg"><metadata
     id="metadata4346"><rdf:RDF><cc:Work
         rdf:about=""><dc:format>image/svg+xml</dc:format><dc:type
           rdf:resource="http://purl.org/dc/dcmitype/StillImage" /><dc:title></dc:title></cc:Work></rdf:RDF></metadata><defs
     id="defs4344" /><sodipodi:namedview
     pagecolor="#ffffff"
     bordercolor="#666666"
     borderopacity="1"
     objecttolerance="10"
     gridtolerance="10"
     guidetolerance="10"
     inkscape:pageopacity="0"
     inkscape:pageshadow="2"
     inkscape:window-width="1837"
     inkscape:window-height="1059"
     id="namedview4342"
     showgrid="false"
     inkscape:zoom="9.3829515"
     inkscape:cx="10.0655"
     inkscape:cy="16.839051"
     inkscape:window-x="1858"
     inkscape:window-y="590"
     inkscape:window-maximized="0"
     inkscape:current-layer="Capa_1" /><path
     d="M 8.1467705,9.9845843 C 4.7725691,9.9845843 1.948238,8.9869151 1.176278,7.6362796 1.0398817,7.8754321 0.95918647,8.1217881 0.95918647,8.3760676 v 2.2056774 c 0,1.705043 3.21780933,3.085213 7.18758403,3.085213 3.9697735,0 7.1882965,-1.38017 7.1882965,-3.085213 V 8.3760676 c 0,-0.2549999 -0.08069,-0.5006355 -0.217805,-0.739788 -0.77196,1.3506355 -3.594863,2.3483047 -6.9704915,2.3483047 z"
     id="path4304"
     style="fill:#0000fc;fill-opacity:1;stroke-width:0.71722108"
     inkscape:connector-curvature="0" /><path
     d="m 8.1467705,14.541448 c -3.3742014,0 -6.1985325,-1.00199 -6.9704925,-2.346864 -0.1363963,0.236272 -0.21709153,0.481187 -0.21709153,0.737628 v 2.207118 c 0,1.703602 3.21780933,3.085212 7.18758403,3.085212 3.9697735,0 7.1882965,-1.38161 7.1882965,-3.085212 v -2.207118 c 0,-0.255721 -0.08069,-0.500636 -0.217805,-0.736907 -0.77196,1.344153 -3.594863,2.346143 -6.9704915,2.346143 z"
     id="path4306"
     style="fill:#0000fc;fill-opacity:1;stroke-width:0.71722108"
     inkscape:connector-curvature="0" /><path
     d="m 15.137257,3.2285254 c -0.139253,1.2476271 -3.210668,2.2467373 -6.9904865,2.2467373 -3.7783914,0 -6.8512351,-0.9991102 -6.9904879,-2.2467373 -0.122828,0.2276271 -0.19709613,0.4631779 -0.19709613,0.7059322 v 2.2049576 c 0,1.706483 3.21780933,3.0852116 7.18758403,3.0852116 3.9697735,0 7.1882965,-1.3787286 7.1882965,-3.0852116 V 3.9344576 c 0,-0.2427543 -0.07355,-0.4783051 -0.19781,-0.7059322 z"
     id="path4308"
     style="fill:#0000fc;fill-opacity:1;stroke-width:0.71722108"
     inkscape:connector-curvature="0" /><ellipse
     cx="8.1467695"
     cy="2.4411948"
     rx="7.0033422"
     ry="2.3346186"
     id="ellipse4310"
     style="fill:#0000fc;fill-opacity:1;stroke-width:0.71722108" /><g
     id="g4312" /><g
     id="g4314" /><g
     id="g4316" /><g
     id="g4318" /><g
     id="g4320" /><g
     id="g4322" /><g
     id="g4324" /><g
     id="g4326" /><g
     id="g4328" /><g
     id="g4330" /><g
     id="g4332" /><g
     id="g4334" /><g
     id="g4336" /><g
     id="g4338" /><g
     id="g4340" /><g
     id="g4598"
     transform="matrix(0.14372627,0,0,0.20027144,4.8391506,4.689962)"
     style="fill:#f50000;fill-opacity:1;stroke:#bbe600;stroke-width:3.00141525;stroke-miterlimit:4;stroke-dasharray:none;stroke-opacity:1"><path
       inkscape:connector-curvature="0"
       style="fill:#f50000;fill-opacity:1;stroke:#bbe600;stroke-width:3.00141525;stroke-miterlimit:4;stroke-dasharray:none;stroke-opacity:1"
       id="path3"
       d="m 58.20263,10.435395 c 0.334805,0 0.531842,0.01213 0.66961,0.01733 l 2.002421,-0.01733 c 0.658396,-0.0053 1.246307,-0.44701 1.483394,-1.1123281 C 62.595141,8.65775 62.430149,7.905801 61.943152,7.4241403 57.734864,3.2572407 52.498132,1.1452034 46.375527,1.1452034 c -12.208362,0 -24.849249,8.7392259 -27.412349,14.6317926 -3.032466,6.970243 -6.853087,11.166596 -6.893134,11.209911 -0.310778,0.337856 -0.480583,0.802193 -0.466165,1.278657 0.01442,0.478198 0.209854,0.928673 0.543057,1.24574 l 10.012107,9.529288 c 0.37165,0.355185 0.885871,0.483396 1.379268,0.375975 0.488591,-0.105683 0.913105,-0.471267 1.134173,-0.956394 0.0833,-0.181923 0.988395,-1.89373 4.004842,-1.59399 3.876686,0.381172 6.402943,2.269704 6.428573,2.287029 0.278737,0.213109 0.60233,0.318798 0.92592,0.318798 0.389271,0 0.776939,-0.154201 1.08291,-0.455674 l 9.611622,-9.529289 c 0.527037,-0.523245 0.66961,-1.36009 0.350825,-2.05313 l -4.028873,-8.713236 c 4.190669,-7.670213 12.608849,-8.285286 15.154327,-8.285286 z m -18.387037,7.448441 c -0.235483,0.492057 -0.240289,1.077675 -0.0112,1.573198 l 3.865474,8.359788 -7.844687,7.777633 c -1.321598,-0.758878 -3.724503,-1.871205 -6.856292,-2.179608 -0.344416,-0.03466 -0.672813,-0.04852 -0.983589,-0.04852 -2.319604,0 -3.940766,0.878427 -4.972412,1.871206 l -7.532308,-7.169492 c 1.475385,-1.872939 4.115376,-5.604956 6.382119,-10.814879 1.931937,-4.440649 13.340932,-12.6427692 24.512843,-12.6427692 3.588339,0 6.817844,0.8299146 9.645262,2.47415 -4.331637,0.4348826 -12.174722,2.416975 -16.205196,10.7992862 z" /><path
       inkscape:connector-curvature="0"
       style="fill:#f50000;fill-opacity:1;stroke:#bbe600;stroke-width:3.00141525;stroke-miterlimit:4;stroke-dasharray:none;stroke-opacity:1"
       id="path5"
       d="m 14.166979,50.312878 c 0.291553,0.26682 0.659998,0.412359 1.038055,0.412359 0.04646,0 0.09452,-0.0018 0.140971,-0.0069 0.429318,-0.03985 0.823396,-0.265088 1.095725,-0.623735 l 5.60678,-7.363542 c 0.549464,-0.720763 0.472571,-1.781111 -0.174612,-2.399649 L 11.461306,30.368937 c -0.317182,-0.304936 -0.72888,-0.450475 -1.159802,-0.431417 -0.4261146,0.02946 -0.8217927,0.239099 -1.1021323,0.583885 l -6.0072643,7.363582 c -0.285145,0.346521 -0.4277173,0.805659 -0.3956785,1.268261 0.030437,0.464337 0.2322808,0.894023 0.5590759,1.195495 l 10.8114742,9.964173 z m -3.626787,-16.199794 8.052939,7.704865 -3.588338,4.712667 -8.3316762,-7.677144 z" /><path
       inkscape:connector-curvature="0"
       style="fill:#f50000;fill-opacity:1;stroke:#bbe600;stroke-width:3.00141525;stroke-miterlimit:4;stroke-dasharray:none;stroke-opacity:1"
       id="path7"
       d="M 100.17018,81.366238 72.793074,52.960287 61.645192,41.194214 84.612166,18.232088 85.760755,19.47436 c 0.301164,0.325729 0.708055,0.507652 1.132569,0.507652 0.02243,0 0.04486,0 0.06729,-0.0018 0.446942,-0.02079 0.866649,-0.242563 1.1566,-0.613338 L 96.58665,8.5225543 C 96.865388,8.1656382 96.999952,7.7030343 96.9567,7.2404315 96.91665,6.7744213 96.70359,6.348202 96.368783,6.0553928 L 93.232189,3.3196143 C 92.647482,2.811963 91.812872,2.8067652 91.224962,3.314415 L 81.286544,11.9133 c -0.355629,0.308403 -0.571892,0.765809 -0.597524,1.257866 -0.02723,0.492059 0.144176,0.97372 0.466165,1.321974 l 1.19024,1.287319 -22.995809,22.99158 -8.482257,-8.952335 c -0.59592,-0.628933 -1.544266,-0.656656 -2.170625,-0.06584 L 37.683417,40.149456 c -0.328398,0.310135 -0.525437,0.750216 -0.547863,1.218016 -0.02243,0.469535 0.132956,0.928673 0.430921,1.271728 l 8.309249,9.605525 -1.050872,1.049954 -4.046493,-4.42852 c -0.587912,-0.646261 -1.54587,-0.686111 -2.181839,-0.09703 L 3.5973973,81.302132 c -0.1842226,0.173259 -0.3316009,0.388101 -0.4277171,0.628932 -1.1694141,2.931557 0.507814,7.564524 4.1730463,11.526976 2.7873705,3.016454 6.1258075,4.891126 8.7113345,4.891126 0.889074,0 1.678829,-0.211378 2.348439,-0.630665 0.120148,-0.0745 0.232282,-0.168064 0.329999,-0.273752 L 51.029155,62.539825 c 0.623153,-0.673981 0.626359,-1.765518 0.0064,-2.442965 l -3.961591,-4.33496 0.986794,-0.985849 36.870185,42.628848 c 0.107331,0.123012 0.232282,0.230437 0.366844,0.315335 0.66961,0.419287 1.459365,0.630664 2.34844,0.630664 2.583925,0 5.922362,-1.874672 8.711335,-4.891125 3.665238,-3.962452 5.344068,-8.595419 4.173048,-11.526977 -0.0833,-0.214842 -0.20505,-0.40716 -0.36043,-0.566558 z M 92.221368,6.8904992 93.081607,7.640714 86.794005,15.690365 84.685856,13.412 Z M 16.656389,94.790409 c -1.11655,0.438347 -4.16023,-0.656655 -7.0469215,-3.782261 -2.7633415,-2.987 -3.7933871,-6.039839 -3.5771255,-7.399929 l 33.514128,-31.155581 8.091383,8.853576 z m 24.381484,-53.208094 8.648858,-8.165735 7.306436,7.710062 -8.767402,8.766947 z M 94.09243,91.008148 c -2.870671,3.108279 -5.891925,4.20848 -7.027699,3.789192 l -36.65072,-42.374158 8.874733,-8.872635 11.276035,11.901218 27.099972,28.114872 c 0.243493,1.3393 -0.781746,4.425056 -3.572321,7.441511 z" /><path
       inkscape:connector-curvature="0"
       style="fill:#f50000;fill-opacity:1;stroke:#bbe600;stroke-width:3.00141525;stroke-miterlimit:4;stroke-dasharray:none;stroke-opacity:1"
       id="path9"
       d="m 12.029995,89.240897 c 0.158592,0.174992 0.366843,0.261622 0.573493,0.261622 0.201844,0 0.403687,-0.08144 0.559076,-0.246029 L 40.896903,60.051813 c 0.317183,-0.332659 0.323591,-0.883626 0.01602,-1.224947 -0.310776,-0.341322 -0.816988,-0.348253 -1.13257,-0.01733 L 12.044416,88.015947 c -0.317183,0.332658 -0.323591,0.881892 -0.01443,1.224947 z" /><path
       inkscape:connector-curvature="0"
       style="fill:#f50000;fill-opacity:1;stroke:#bbe600;stroke-width:3.00141525;stroke-miterlimit:4;stroke-dasharray:none;stroke-opacity:1"
       id="path11"
       d="m 38.399483,55.980207 c -0.289951,-0.363846 -0.796163,-0.40023 -1.129368,-0.08837 L 7.8745701,83.433227 c -0.3348057,0.3136 -0.3700483,0.859369 -0.081699,1.221482 0.1585924,0.197516 0.3812616,0.29974 0.6055324,0.29974 0.1858249,0 0.3716498,-0.0693 0.5238337,-0.211377 L 38.319385,57.201689 c 0.334805,-0.311868 0.370047,-0.859369 0.08009,-1.221482 z" /><path
       inkscape:connector-curvature="0"
       style="fill:#f50000;fill-opacity:1;stroke:#bbe600;stroke-width:3.00141525;stroke-miterlimit:4;stroke-dasharray:none;stroke-opacity:1"
       id="path13"
       d="m 16.243089,92.714757 c 0.156991,0.168061 0.360437,0.252959 0.565485,0.252959 0.20665,0 0.411698,-0.08489 0.567085,-0.254692 L 44.808833,62.858623 c 0.310776,-0.33959 0.309175,-0.888823 -0.0032,-1.224948 -0.312377,-0.336123 -0.820192,-0.336123 -1.13257,0.0035 L 16.239888,91.48979 c -0.310777,0.341321 -0.309175,0.888823 0.0032,1.224947 z" /></g></svg>