<?xml version="1.0" encoding="iso-8859-1"?>
<!-- Generator: Adobe Illustrator 16.0.4, SVG Export Plug-In . SVG Version: 6.00 Build 0)  -->
<!DOCTYPE svg PUBLIC "-//W3C//DTD SVG 1.1//EN" "http://www.w3.org/Graphics/SVG/1.1/DTD/svg11.dtd">
<svg version="1.1" id="Layer_1" xmlns="http://www.w3.org/2000/svg" xmlns:xlink="http://www.w3.org/1999/xlink" x="0px" y="0px"
	 width="71.232px" height="71.232px" viewBox="0 0 71.232 71.232" style="enable-background:new 0 0 71.232 71.232;"
	 xml:space="preserve">
<g>
	<g>
		<path d="M30.464,12.432c0.224,0.447,0.447,0.896,0.672,1.567h38.527v6.271H31.136c-0.225,0.448-0.448,1.12-0.672,1.567h40.767
			v-9.185H30.464V12.432z"/>
		<path d="M45.247,32.592h24.641v6.27H45.247c-0.223,0.449-0.447,1.121-0.672,1.57h26.656v-9.185H44.575
			C44.8,31.472,45.024,32.144,45.247,32.592z"/>
		<path d="M59.135,51.184h10.527v6.271H59.135c-0.225,0.447-0.447,1.119-0.672,1.566h12.77v-9.184h-12.77
			C58.688,50.063,58.911,50.735,59.135,51.184z"/>
		<path d="M21.728,24.976c4.256,0,7.84-3.36,7.84-7.84c0-4.257-3.36-7.841-7.84-7.841c-2.464,0-4.704,1.12-6.048,3.137H-0.001v9.184
			h15.456C17.024,23.631,19.264,24.976,21.728,24.976z"/>
		<path d="M35.615,43.567c4.256,0,7.84-3.357,7.84-7.839c0-4.256-3.359-7.84-7.84-7.84c-2.464,0-4.704,1.119-6.048,3.136H-0.001
			v9.186h29.345C30.911,42.223,33.152,43.567,35.615,43.567z"/>
		<path d="M49.505,46.479c-2.465,0-4.705,1.121-6.049,3.137H-0.001v9.186h43.457c1.344,1.791,3.584,3.135,6.271,3.135
			c4.256,0,7.84-3.359,7.84-7.84C57.344,50.063,53.76,46.479,49.505,46.479z"/>
	</g>
</g>
</svg>
