<?xml version="1.0" encoding="UTF-8" standalone="no"?>
<!-- Generator: Adobe Illustrator 16.0.0, SVG Export Plug-In . SVG Version: 6.00 Build 0)  -->

<svg
   xmlns:dc="http://purl.org/dc/elements/1.1/"
   xmlns:cc="http://creativecommons.org/ns#"
   xmlns:rdf="http://www.w3.org/1999/02/22-rdf-syntax-ns#"
   xmlns:svg="http://www.w3.org/2000/svg"
   xmlns="http://www.w3.org/2000/svg"
   xmlns:sodipodi="http://sodipodi.sourceforge.net/DTD/sodipodi-0.dtd"
   xmlns:inkscape="http://www.inkscape.org/namespaces/inkscape"
   version="1.1"
   x="0px"
   y="0px"
   width="96px"
   height="96px"
   viewBox="0 0 96 96"
   enable-background="new 0 0 96 96"
   xml:space="preserve"
   id="svg2"
   inkscape:version="0.48.4 r9939"
   sodipodi:docname="Cloud-Dax.svg"><metadata
     id="metadata48"><rdf:RDF><cc:Work
         rdf:about=""><dc:format>image/svg+xml</dc:format><dc:type
           rdf:resource="http://purl.org/dc/dcmitype/StillImage" /><dc:title></dc:title></cc:Work></rdf:RDF></metadata><defs
     id="defs46" /><sodipodi:namedview
     pagecolor="#ffffff"
     bordercolor="#666666"
     borderopacity="1"
     objecttolerance="10"
     gridtolerance="10"
     guidetolerance="10"
     inkscape:pageopacity="0"
     inkscape:pageshadow="2"
     inkscape:window-width="1561"
     inkscape:window-height="900"
     id="namedview44"
     showgrid="false"
     inkscape:zoom="2.4583333"
     inkscape:cx="-25.016949"
     inkscape:cy="-0.81355932"
     inkscape:window-x="1564"
     inkscape:window-y="308"
     inkscape:window-maximized="0"
     inkscape:current-layer="svg2" /><g
     id="Layer_2" /><rect
     style="fill:#5f3600;fill-opacity:1;stroke:#00f300;stroke-width:1.55971885;stroke-miterlimit:4;stroke-opacity:1;stroke-dasharray:none;stroke-dashoffset:0"
     id="rect4067"
     width="67.385719"
     height="52.383347"
     x="25.086798"
     y="42.514553" /><path
     id="path3290"
     d="m 55.378484,58.356998 h 14.739363 v 3.18286 h 1.965197 v -3.18286 H 87.2031 v 3.18286 h 1.965196 V 42.118855 c 0,-1.156701 -1.028349,-2.097971 -2.292072,-2.097971 H 30.105568 c -1.264514,0 -2.292106,0.941976 -2.292106,2.097971 v 45.96736 c 0,0.710351 0.389938,1.336926 0.982194,1.717096 v 0.330888 h 0.822225 c 0.157612,0.03097 0.319989,0.04997 0.487687,0.04997 h 26.07746 v -1.849443 h -0.804544 v -5.695495 h 0.804544 v -1.798762 h -0.804544 v -5.905996 h 0.804544 v -1.798764 h -0.804544 v -6.235476 h 0.804544 v -1.798057 h -0.804544 v -6.745183 z m 16.70456,-16.538054 h 14.792422 c 0.179956,0 0.327634,0.134468 0.327634,0.299911 v 6.046094 H 72.083044 v -6.346005 z m 0,8.144065 H 87.2031 v 6.595228 H 72.083044 v -6.595228 z m -16.70456,-8.144065 h 14.739363 v 6.346005 H 55.378484 v -6.346005 z m 0,8.144065 h 14.739363 v 6.595228 H 55.378484 V 49.963009 z M 36.874101,88.334732 h -6.938538 c -0.09244,-0.0521 -0.157611,-0.142231 -0.157611,-0.249221 v -5.446275 h 7.096234 v 5.695496 z m 0,-7.494257 h -7.096234 v -5.905996 h 7.096234 v 5.905996 z m 0,-7.704055 h -7.096234 v -6.235474 h 7.096234 v 6.235474 z m 0,-8.034239 h -7.096234 v -6.745183 h 7.096234 v 6.745183 z m 0,-8.543944 h -7.096234 v -6.595228 h 7.096234 v 6.595228 z M 53.413304,88.334732 H 38.838542 v -5.695496 h 14.574762 v 5.695496 z m 0,-7.494257 H 38.838542 v -5.905996 h 14.574762 v 5.905996 z m 0,-7.704055 H 38.838542 v -6.235474 h 14.574762 v 6.235474 z m 0,-8.034239 H 38.838542 v -6.745183 h 14.574762 v 6.745183 z m 0,-8.543944 H 38.838542 v -6.595228 h 14.574762 v 6.595228 z m 0,-8.393991 H 38.838542 v -6.346008 h 14.574762 v 6.346008 z m 8.892976,24.174523 c 0,-1.094041 0.96837,-1.980396 2.164401,-1.980396 1.194515,0 2.163625,0.886355 2.163625,1.980396 0,0.547725 -0.243018,1.043354 -0.63607,1.402403 l 3.430446,4.915441 c 0.283803,-0.102773 0.590692,-0.163339 0.91452,-0.163339 0.651462,0 1.240636,0.23514 1.682135,0.613198 l 4.502645,-3.012488 c -0.100695,-0.218948 -0.157611,-0.459723 -0.157611,-0.71317 0,-1.015191 0.899919,-1.838892 2.009802,-1.838892 1.109127,0 2.009029,0.823701 2.009029,1.838892 0,0.206277 -0.04513,0.400586 -0.11299,0.585742 l 4.720321,2.702722 c 0.494574,-0.395659 1.139115,-0.635727 1.845977,-0.635727 1.552932,0 2.812041,1.152472 2.812041,2.573884 0,1.42141 -1.259883,2.573885 -2.812041,2.573885 -1.552913,0 -2.812039,-1.152475 -2.812039,-2.573885 0,-0.465356 0.136737,-0.900436 0.372273,-1.277088 l -4.612637,-2.641468 c -0.363045,0.32807 -0.860685,0.531532 -1.409834,0.531532 -0.497655,0 -0.946849,-0.172477 -1.297586,-0.446347 l -4.510358,3.017416 c 0.15155,0.293573 0.243069,0.618829 0.243069,0.965206 0,1.250334 -1.106818,2.263412 -2.472838,2.263412 -1.366019,0 -2.472838,-1.013078 -2.472838,-2.263412 0,-0.64699 0.301517,-1.228508 0.777618,-1.641063 l -3.435061,-4.923188 c -0.232275,0.07813 -0.480733,0.127441 -0.742224,0.127441 -1.194515,0 -2.163625,-0.887062 -2.163625,-1.981106 z M 59.134275,64.144718 V 92.296234 H 92.827938 V 64.144718 H 59.134275 z m 32.30151,26.878656 H 60.525671 V 65.417581 h 30.910888 v 25.605793 z"
     inkscape:connector-curvature="0"
     style="fill:#5f3600;fill-opacity:1;stroke:#00f300;stroke-width:0.73586625;stroke-opacity:1" /><g
     id="g4790"
     transform="matrix(1.7122466,0,0,3.0853366,8.4275935,4.0849491)"
     style="fill:#cc8800;fill-opacity:0.60377359"><path
       id="path4746"
       d="M 11.705,15.953 C 6.211,15.953 1.607,14.339 0.35,12.163 0.129,12.546 0,12.944 0,13.357 v 3.561 c 0,2.751 5.242,4.983 11.705,4.983 6.467,0 11.711,-2.232 11.711,-4.983 v -3.561 c 0,-0.413 -0.131,-0.811 -0.354,-1.194 -1.257,2.175 -5.857,3.79 -11.357,3.79 z"
       inkscape:connector-curvature="0"
       style="fill:#cc8800;fill-opacity:0.60377359" /><path
       id="path4748"
       d="M 11.705,23.309 C 6.211,23.309 1.607,21.693 0.35,19.521 0.129,19.902 0,20.3 0,20.712 v 3.564 c 0,2.752 5.242,4.983 11.705,4.983 6.467,0 11.711,-2.23 11.711,-4.983 v -3.564 c 0,-0.412 -0.131,-0.81 -0.354,-1.19 -1.257,2.171 -5.857,3.787 -11.357,3.787 z"
       inkscape:connector-curvature="0"
       style="fill:#cc8800;fill-opacity:0.60377359" /><path
       id="path4750"
       d="M 23.096,5.041 C 22.866,7.057 17.864,8.67 11.705,8.67 5.549,8.67 0.547,7.057 0.318,5.042 0.117,5.408 0,5.79 0,6.183 v 3.561 c 0,2.752 5.242,4.983 11.705,4.983 6.467,0 11.711,-2.23 11.711,-4.983 V 6.183 c 0,-0.393 -0.119,-0.775 -0.32,-1.142 z"
       inkscape:connector-curvature="0"
       style="fill:#cc8800;fill-opacity:0.60377359" /><path
       id="path4752"
       d="m 11.705,7.54 c 6.303,0 11.41,-1.687 11.41,-3.771 0,-2.082 -5.107,-3.77 -11.41,-3.77 C 5.406,0 0.297,1.688 0.297,3.77 c 0,2.083 5.109,3.77 11.408,3.77 z"
       inkscape:connector-curvature="0"
       style="fill:#cc8800;fill-opacity:0.60377359" /><g
       id="g4754"
       style="fill:#cc8800;fill-opacity:0.60377359" /><g
       id="g4756"
       style="fill:#cc8800;fill-opacity:0.60377359" /><g
       id="g4758"
       style="fill:#cc8800;fill-opacity:0.60377359" /><g
       id="g4760"
       style="fill:#cc8800;fill-opacity:0.60377359" /><g
       id="g4762"
       style="fill:#cc8800;fill-opacity:0.60377359" /><g
       id="g4764"
       style="fill:#cc8800;fill-opacity:0.60377359" /><g
       id="g4766"
       style="fill:#cc8800;fill-opacity:0.60377359" /><g
       id="g4768"
       style="fill:#cc8800;fill-opacity:0.60377359" /><g
       id="g4770"
       style="fill:#cc8800;fill-opacity:0.60377359" /><g
       id="g4772"
       style="fill:#cc8800;fill-opacity:0.60377359" /><g
       id="g4774"
       style="fill:#cc8800;fill-opacity:0.60377359" /><g
       id="g4776"
       style="fill:#cc8800;fill-opacity:0.60377359" /><g
       id="g4778"
       style="fill:#cc8800;fill-opacity:0.60377359" /><g
       id="g4780"
       style="fill:#cc8800;fill-opacity:0.60377359" /><g
       id="g4782"
       style="fill:#cc8800;fill-opacity:0.60377359" /></g><path
     id="path4147"
     d="m 77.735412,26.466362 c 0,-12.972617 -10.796934,-23.4904788 -24.113753,-23.4904788 -9.030601,0 -16.909769,4.8390412 -21.033223,11.9977628 -1.000721,-0.164434 -2.031584,-0.252522 -3.080531,-0.252522 -8.162506,0 -15.071099,5.267739 -17.313675,12.514551 -7.4270349,2.213979 -12.82851669,8.926382 -12.82851669,16.848549 0,9.730932 8.06002249,17.61786 18.14559869,17.61786 h 60.163815 c 10.019265,0 18.1456,-7.910419 18.1456,-17.61786 0,-9.707442 -8.029879,-17.588497 -18.085315,-17.617862 z M 47.593219,55.829462 29.507905,32.338984 h 12.056876 v -17.61786 h 12.056878 v 17.61786 H 65.678534 L 47.593219,55.829462 z"
     inkscape:connector-curvature="0"
     style="fill:#0048ff;fill-opacity:1;fill-rule:evenodd;stroke:#00f3fa;stroke-width:1.49413919;stroke-opacity:1" /></svg>