<?xml version="1.0" encoding="UTF-8" standalone="no"?>
<!-- Generator: Adobe Illustrator 16.0.0, SVG Export Plug-In . SVG Version: 6.00 Build 0)  -->

<svg
   xmlns:dc="http://purl.org/dc/elements/1.1/"
   xmlns:cc="http://creativecommons.org/ns#"
   xmlns:rdf="http://www.w3.org/1999/02/22-rdf-syntax-ns#"
   xmlns:svg="http://www.w3.org/2000/svg"
   xmlns="http://www.w3.org/2000/svg"
   xmlns:sodipodi="http://sodipodi.sourceforge.net/DTD/sodipodi-0.dtd"
   xmlns:inkscape="http://www.inkscape.org/namespaces/inkscape"
   version="1.1"
   id="Layer_1"
   x="0px"
   y="0px"
   width="28.92px"
   height="31.154px"
   viewBox="0 0 28.92 31.154"
   style="enable-background:new 0 0 28.92 31.154;"
   xml:space="preserve"
   inkscape:version="0.48.4 r9939"
   sodipodi:docname="color4.svg"><metadata
     id="metadata43"><rdf:RDF><cc:Work
         rdf:about=""><dc:format>image/svg+xml</dc:format><dc:type
           rdf:resource="http://purl.org/dc/dcmitype/StillImage" /></cc:Work></rdf:RDF></metadata><defs
     id="defs41" /><sodipodi:namedview
     pagecolor="#ffffff"
     bordercolor="#666666"
     borderopacity="1"
     objecttolerance="10"
     gridtolerance="10"
     guidetolerance="10"
     inkscape:pageopacity="0"
     inkscape:pageshadow="2"
     inkscape:window-width="1097"
     inkscape:window-height="816"
     id="namedview39"
     showgrid="false"
     inkscape:zoom="7.5752714"
     inkscape:cx="14.46"
     inkscape:cy="15.577"
     inkscape:window-x="0"
     inkscape:window-y="0"
     inkscape:window-maximized="0"
     inkscape:current-layer="Layer_1" /><path
     inkscape:connector-curvature="0"
     id="path5"
     d="M 21.709,10.854 C 21.709,4.861 16.849,0 10.854,0 4.859,0 0,4.861 0,10.854 c 0,1.252 0.147,2.067 0.561,3.32 0.807,2.326 5.035,-2.051 6.854,0.53 1.819,2.583 -4.103,4.849 -0.132,6.399 1.808,0.439 2.319,0.604 3.571,0.604 5.995,10e-4 10.855,-4.857 10.855,-10.853 z m -1.105,-0.639 c 0,1.053 -1.004,1.908 -2.242,1.908 -1.238,0 -2.242,-0.854 -2.242,-1.908 0,-1.054 1.003,-1.909 2.242,-1.909 1.237,0.001 2.242,0.856 2.242,1.909 z M 16.12,3.618 c 1.238,0 2.242,0.855 2.242,1.909 0,1.054 -1.003,1.909 -2.242,1.909 -1.239,0 -2.241,-0.855 -2.241,-1.909 0,-1.054 1.003,-1.909 2.241,-1.909 z m -12.658,7.92 c -1.238,0 -2.241,-0.854 -2.241,-1.908 0,-1.054 1.003,-1.909 2.241,-1.909 1.238,0 2.241,0.855 2.241,1.909 0,1.054 -1.003,1.908 -2.241,1.908 z M 6.087,7.144 c -1.238,0 -2.241,-0.854 -2.241,-1.908 0,-1.054 1.003,-1.909 2.241,-1.909 1.238,0 2.242,0.855 2.242,1.909 0,1.054 -1.004,1.908 -2.242,1.908 z M 8.819,3.059 c 0,-1.054 1.004,-1.909 2.242,-1.909 1.238,0 2.242,0.855 2.242,1.909 0,1.054 -1.003,1.908 -2.242,1.908 -1.238,0 -2.242,-0.854 -2.242,-1.908 z m 3.844,17.114 c -1.239,0 -2.242,-0.855 -2.242,-1.909 0,-1.054 1.003,-1.908 2.242,-1.908 1.237,0 2.241,0.854 2.241,1.908 0,1.054 -1.004,1.909 -2.241,1.909 z m 2.241,-5.175 c 0,-1.054 1.003,-1.909 2.241,-1.909 1.238,0 2.242,0.855 2.242,1.909 0,1.054 -1.004,1.909 -2.242,1.909 -1.238,0 -2.241,-0.855 -2.241,-1.909 z"
     style="fill:#4f7800;fill-opacity:1" /><path
     inkscape:connector-curvature="0"
     id="path7"
     d="m 28.625,17.022 c 0.375,-0.364 0.397,-0.964 0.041,-1.364 -0.358,-0.399 -0.958,-0.445 -1.36,-0.113 l -0.002,-0.003 -9.274,8.289 c -1.299,-1.101 -2.521,-0.843 -3.926,0.413 -1.172,1.047 -1.393,2.791 -2.055,4.349 -0.22,0.458 -0.661,1.21 -0.989,1.611 -0.236,0.288 -0.255,0.501 -0.121,0.652 0.34,0.38 1.673,0.359 3.017,0.143 v -10e-4 c 1.721,-0.275 3.678,-0.923 4.494,-1.791 1.41,-1.501 1.598,-2.617 0.863,-3.855 l 9.316,-8.327 -0.004,-0.003 z m -14.967,13.24 c -0.028,0.115 -0.056,0.226 -0.081,0.331 -1.292,0.181 -2,0.092 -2.23,-0.004 0.015,-0.025 0.037,-0.055 0.068,-0.094 0.264,-0.323 0.592,-0.851 0.839,-1.302 0.469,0.192 1.041,0.275 1.599,0.235 -0.057,0.267 -0.129,0.568 -0.195,0.834 z"
     style="fill:#e50000;fill-opacity:1;stroke:#0000da;stroke-opacity:1;stroke-width:0.30000001;stroke-miterlimit:4;stroke-dasharray:none" /><g
     id="g9" /><g
     id="g11" /><g
     id="g13" /><g
     id="g15" /><g
     id="g17" /><g
     id="g19" /><g
     id="g21" /><g
     id="g23" /><g
     id="g25" /><g
     id="g27" /><g
     id="g29" /><g
     id="g31" /><g
     id="g33" /><g
     id="g35" /><g
     id="g37" /><path
     sodipodi:type="arc"
     style="fill:#d57800;fill-opacity:1;fill-rule:evenodd;stroke:#9e00da;stroke-width:0;stroke-miterlimit:4;stroke-opacity:1;stroke-dasharray:none;stroke-dashoffset:0"
     id="path3790"
     sodipodi:cx="-23.959538"
     sodipodi:cy="-8.8445673"
     sodipodi:rx="1.5180974"
     sodipodi:ry="1.4520932"
     d="m -22.44144,-8.8445673 a 1.5180974,1.4520932 0 1 1 -3.036195,0 1.5180974,1.4520932 0 1 1 3.036195,0 z"
     transform="matrix(1.3478261,0,0,1.2272727,38.431684,16.069031)" /><path
     sodipodi:type="arc"
     style="fill:#d5e300;fill-opacity:1;fill-rule:evenodd;stroke:#9e00da;stroke-width:0;stroke-miterlimit:4;stroke-opacity:1;stroke-dasharray:none;stroke-dashoffset:0"
     id="path3792"
     sodipodi:cx="-28.51383"
     sodipodi:cy="0.66004235"
     sodipodi:rx="1.9801271"
     sodipodi:ry="1.9801271"
     d="m -26.533703,0.66004235 a 1.9801271,1.9801271 0 1 1 -3.960254,0 1.9801271,1.9801271 0 1 1 3.960254,0 z"
     transform="matrix(1.1666667,0,0,1.0333334,36.632351,8.8885706)" /><path
     sodipodi:type="arc"
     style="fill:#d55af9;fill-opacity:1;fill-rule:evenodd;stroke:#9e00da;stroke-width:0;stroke-miterlimit:4;stroke-opacity:1;stroke-dasharray:none;stroke-dashoffset:0"
     id="path3794"
     sodipodi:cx="-22.177423"
     sodipodi:cy="10.29666"
     sodipodi:rx="2.3761525"
     sodipodi:ry="2.1121356"
     d="m -19.801271,10.29666 a 2.3761525,2.1121356 0 1 1 -4.752305,0 2.3761525,2.1121356 0 1 1 4.752305,0 z"
     transform="translate(33.266135,-7.1284576)" /><path
     sodipodi:type="arc"
     style="fill:#125af9;fill-opacity:1;fill-rule:evenodd;stroke:#9e00da;stroke-width:0;stroke-miterlimit:4;stroke-opacity:1;stroke-dasharray:none;stroke-dashoffset:0"
     id="path3796"
     sodipodi:cx="-27.259748"
     sodipodi:cy="16.633068"
     sodipodi:rx="2.1781397"
     sodipodi:ry="2.1121356"
     d="m -25.081609,16.633068 a 2.1781397,2.1121356 0 1 1 -4.356279,0 2.1781397,2.1121356 0 1 1 4.356279,0 z"
     transform="translate(44.486856,-1.5841017)" /><path
     sodipodi:type="arc"
     style="fill:#12fbf9;fill-opacity:1;fill-rule:evenodd;stroke:#9e00da;stroke-width:0;stroke-miterlimit:4;stroke-opacity:1;stroke-dasharray:none;stroke-dashoffset:0"
     id="path3798"
     sodipodi:cx="-20.989347"
     sodipodi:cy="28.909855"
     sodipodi:rx="2.3761525"
     sodipodi:ry="1.8481187"
     d="m -18.613195,28.909855 a 2.3761525,1.8481187 0 1 1 -4.752305,0 2.3761525,1.8481187 0 1 1 4.752305,0 z"
     transform="translate(36.962373,-23.3655)" /><path
     sodipodi:type="arc"
     style="fill:#12fb2d;fill-opacity:1;fill-rule:evenodd;stroke:#9e00da;stroke-width:0;stroke-miterlimit:4;stroke-opacity:1;stroke-dasharray:none;stroke-dashoffset:0"
     id="path3800"
     sodipodi:cx="-9.6366186"
     sodipodi:cy="23.431503"
     sodipodi:rx="2.3761525"
     sodipodi:ry="2.4421568"
     d="m -7.2604661,23.431503 a 2.3761525,2.4421568 0 1 1 -4.7523049,0 2.3761525,2.4421568 0 1 1 4.7523049,0 z"
     transform="translate(27.985796,-13.332856)" /><path
     sodipodi:type="arc"
     style="fill:#fcfb2d;fill-opacity:1;fill-rule:evenodd;stroke:#9e00da;stroke-width:0;stroke-miterlimit:4;stroke-opacity:1;stroke-dasharray:none;stroke-dashoffset:0"
     id="path3802"
     sodipodi:cx="-13.596872"
     sodipodi:cy="-6.7324319"
     sodipodi:rx="2.5081611"
     sodipodi:ry="2.3761525"
     d="m -11.088711,-6.7324319 a 2.5081611,2.3761525 0 1 1 -5.016322,0 2.5081611,2.3761525 0 1 1 5.016322,0 z"
     transform="translate(26.137678,24.949602)" /><path
     style="fill:none;stroke:#000000;stroke-width:0.4;stroke-linecap:butt;stroke-linejoin:miter;stroke-opacity:1;stroke-miterlimit:4;stroke-dasharray:none"
     d="m 17.689135,24.025542 c -0.176011,-0.08801 -0.341346,-0.201788 -0.528034,-0.264017 -0.07097,-0.02366 -0.416269,0 -0.528034,0 -0.127898,0 -0.713338,-0.02624 -0.79205,0 -0.09334,0.03111 -0.170673,0.100894 -0.264017,0.132008 -0.04175,0.01391 -0.09265,-0.01968 -0.132009,0 -0.05566,0.02783 -0.08023,0.09749 -0.132008,0.132009 -0.08187,0.05458 -0.182149,0.07743 -0.264017,0.132008 -0.05178,0.03452 -0.07635,0.104179 -0.132009,0.132009 -0.03936,0.01968 -0.09265,-0.01968 -0.132008,0 -0.02527,0.01263 -0.515399,0.502765 -0.528034,0.528034 -0.01968,0.03936 0.01968,0.09265 0,0.132008 -0.02783,0.05566 -0.104179,0.07635 -0.132009,0.132009 -0.01968,0.03936 0.01392,0.09026 0,0.132008 -0.03111,0.09334 -0.100893,0.170673 -0.132008,0.264017 -0.02783,0.08349 0,0.176011 0,0.264017 0,0.220014 0,0.440028 0,0.660042 0,0.044 0,0.08801 0,0.132009 0,0.044 0.044,0.132008 0,0.132008 -0.044,0 0.03111,-0.163123 0,-0.132008 -0.515194,0.515194 0.03056,0.0709 -0.132008,0.396025 -0.05566,0.11132 -0.208358,0.152698 -0.264017,0.264017 -0.01968,0.03936 0,0.08801 0,0.132009 0,0.05218 0.02819,0.603663 0,0.660042 -0.02783,0.05566 -0.08801,0.08801 -0.132009,0.132008"
     id="path3810"
     inkscape:connector-curvature="0" /><path
     style="fill:none;stroke:#000000;stroke-width:0.4;stroke-linecap:butt;stroke-linejoin:miter;stroke-opacity:1;stroke-miterlimit:4;stroke-dasharray:none"
     d="m 17.953152,25.213618 c -0.176011,-0.044 -0.346605,-0.132008 -0.528034,-0.132008 -0.04256,0 -0.190668,0.227342 -0.264017,0.264017 -0.03936,0.01968 -0.088,0 -0.132008,0 -0.08801,0.088 -0.16445,0.189341 -0.264017,0.264017 -0.07871,0.05904 -0.182149,0.07743 -0.264017,0.132008 -0.103556,0.06904 -0.160461,0.19498 -0.264017,0.264017 -0.08187,0.05458 -0.182149,0.07743 -0.264017,0.132008 -0.05595,0.0373 -0.368716,0.341407 -0.396025,0.396026 -0.0528,0.105607 0.0528,0.290418 0,0.396025 -0.02783,0.05566 -0.104179,0.07635 -0.132009,0.132009 -0.01968,0.03936 0.01968,0.09265 0,0.132008 -0.05566,0.111319 -0.208357,0.152698 -0.264017,0.264017 -0.01968,0.03936 0,0.08801 0,0.132009 0,0.044 0,0.08801 0,0.132008 0,0.05945 0.02009,0.355851 0,0.396025 -0.02783,0.05566 -0.08801,0.08801 -0.132008,0.132009"
     id="path3812"
     inkscape:connector-curvature="0" /><path
     style="fill:none;stroke:#000000;stroke-width:0.4;stroke-linecap:butt;stroke-linejoin:miter;stroke-opacity:1;stroke-miterlimit:4;stroke-dasharray:none"
     d="m 15.444991,30.097932 c 0.05945,0 0.355846,0.02009 0.396026,0 0.15841,-0.07921 0.237615,-0.316826 0.396025,-0.396026 0.03936,-0.01968 0.09265,0.01968 0.132008,0 0.05566,-0.02783 0.07635,-0.104178 0.132009,-0.132008 0.03936,-0.01968 0.09265,0.01968 0.132008,0 0.0705,-0.03525 0.326526,-0.326526 0.396026,-0.396026 0.0695,-0.0695 0.360775,-0.325525 0.396025,-0.396025 0.01968,-0.03936 -0.01968,-0.09265 0,-0.132009 0.0792,-0.15841 0.316816,-0.237615 0.396026,-0.396025 0.01968,-0.03936 -0.01968,-0.09265 0,-0.132009 0.157377,-0.314756 0.10664,0.05074 0.264017,-0.264016 0.03936,-0.07872 -0.03936,-0.185307 0,-0.264017 0.02783,-0.05566 0.08801,-0.08801 0.132008,-0.132009 0.151038,-0.151038 0.184097,-0.156268 0.264017,-0.396025 0.01391,-0.04175 0,-0.08801 0,-0.132009 0,-0.328795 0.01968,-0.09265 -0.264017,-0.660042 -0.176011,0.264017 -0.343602,0.533846 -0.528034,0.792051 -0.0823,0.115225 -0.339864,0.283703 -0.396025,0.396025 -0.01968,0.03936 0.01968,0.09265 0,0.132009 -0.437817,0.437817 0.06223,-0.124459 -0.132009,0.264017 -0.342857,0.685714 0.07884,-0.421698 -0.264017,0.264016 -0.01968,0.03936 0.01968,0.09265 0,0.132009 -0.02783,0.05566 -0.104178,0.07635 -0.132008,0.132008 -0.01968,0.03936 0.01968,0.09265 0,0.132009 -0.02783,0.05566 -0.104179,0.07635 -0.132009,0.132008 -0.01968,0.03936 0,0.08801 0,0.132009 -0.044,0.088 -0.07743,0.182149 -0.132008,0.264017 -0.03452,0.05178 -0.08801,0.088 -0.132009,0.132008 -0.132008,0.132009 -0.264016,0.264017 -0.396025,0.396026 -0.176011,0.176011 -0.29692,0.435588 -0.528034,0.528034 -0.245134,0.09805 -0.528034,0 -0.792051,0"
     id="path3814"
     inkscape:connector-curvature="0" /><path
     style="fill:none;stroke:#000000;stroke-width:0.4;stroke-linecap:butt;stroke-linejoin:miter;stroke-opacity:1;stroke-miterlimit:4;stroke-dasharray:none"
     d="m 16.501059,24.685584 c -0.176011,-0.044 -0.572037,0.044 -0.528034,-0.132008 0.044,-0.176012 0.609171,-0.03027 0.528034,0.132008 -0.100342,0.200684 -0.447185,0.06106 -0.660042,0.132009 -0.05904,0.01968 -0.08801,0.08801 -0.132009,0.132008 -0.044,0.044 -0.08801,0.08801 -0.132008,0.132009 -0.0695,0.0695 -0.360774,0.325521 -0.396026,0.396025 -0.01968,0.03936 0,0.08801 0,0.132009 0,0.132939 0.02433,0.719047 0,0.79205 -0.01968,0.05904 -0.104178,0.07635 -0.132008,0.132009 -0.01968,0.03936 0.01392,0.09026 0,0.132008 -0.03111,0.09334 -0.100894,0.170673 -0.132009,0.264017 -0.03027,0.0908 0.03894,0.318138 0,0.396026 -0.06495,0.1299 -0.463084,0.398133 -0.528034,0.528034 -0.01968,0.03936 0,0.088 0,0.132008"
     id="path3816"
     inkscape:connector-curvature="0" /><path
     style="fill:none;stroke:#000000;stroke-width:0.4;stroke-linecap:butt;stroke-linejoin:miter;stroke-opacity:1;stroke-miterlimit:4;stroke-dasharray:none"
     d="m 13.332856,27.589771 c -0.124986,0.404519 -0.271667,0.535683 -0.528034,0.79205"
     id="path3818"
     inkscape:connector-curvature="0" /><path
     style="fill:none;stroke:#000000;stroke-width:0.4;stroke-linecap:butt;stroke-linejoin:miter;stroke-opacity:1;stroke-miterlimit:4;stroke-dasharray:none"
     d="m 15.709008,28.249813 c -0.176011,0.132008 -0.356232,0.258584 -0.528034,0.396025 -0.273597,0.218878 -0.385244,0.528034 -0.792051,0.528034"
     id="path3820"
     inkscape:connector-curvature="0" /><path
     style="fill:none;stroke:#000000;stroke-width:0.4;stroke-linecap:butt;stroke-linejoin:miter;stroke-opacity:1;stroke-miterlimit:4;stroke-dasharray:none"
     d="m 19.141228,26.401694 c -0.044,0.176012 -0.06463,0.359582 -0.132008,0.528034 -0.02311,0.05778 -0.104179,0.07635 -0.132009,0.132009 -0.0528,0.105606 0.0528,0.290418 0,0.396025 -0.04,0.08 -0.224016,0.184017 -0.264016,0.264017 -0.01968,0.03936 0.01968,0.09265 0,0.132009 -0.302076,0.60415 0.05471,-0.560167 -0.264017,0.396025 -0.01391,0.04174 0.01968,0.09265 0,0.132008 -0.04204,0.08409 -0.556315,0.556315 -0.660043,0.660043"
     id="path3822"
     inkscape:connector-curvature="0" /></svg>