<?xml version="1.0" encoding="UTF-8" standalone="no"?>
<!-- Generator: Adobe Illustrator 16.0.0, SVG Export Plug-In . SVG Version: 6.00 Build 0)  -->

<svg
   xmlns:dc="http://purl.org/dc/elements/1.1/"
   xmlns:cc="http://creativecommons.org/ns#"
   xmlns:rdf="http://www.w3.org/1999/02/22-rdf-syntax-ns#"
   xmlns:svg="http://www.w3.org/2000/svg"
   xmlns="http://www.w3.org/2000/svg"
   xmlns:sodipodi="http://sodipodi.sourceforge.net/DTD/sodipodi-0.dtd"
   xmlns:inkscape="http://www.inkscape.org/namespaces/inkscape"
   version="1.1"
   id="Layer_1"
   x="0px"
   y="0px"
   width="31.655px"
   height="30.982px"
   viewBox="0 0 31.655 30.982"
   style="enable-background:new 0 0 31.655 30.982;"
   xml:space="preserve"
   inkscape:version="0.92.2 5c3e80d, 2017-08-06"
   sodipodi:docname="confplot.svg"><metadata
     id="metadata4596"><rdf:RDF><cc:Work
         rdf:about=""><dc:format>image/svg+xml</dc:format><dc:type
           rdf:resource="http://purl.org/dc/dcmitype/StillImage" /><dc:title></dc:title></cc:Work></rdf:RDF></metadata><defs
     id="defs4594" /><sodipodi:namedview
     pagecolor="#ffffff"
     bordercolor="#666666"
     borderopacity="1"
     objecttolerance="10"
     gridtolerance="10"
     guidetolerance="10"
     inkscape:pageopacity="0"
     inkscape:pageshadow="2"
     inkscape:window-width="1041"
     inkscape:window-height="825"
     id="namedview4592"
     showgrid="false"
     inkscape:zoom="6.128676"
     inkscape:cx="29.451183"
     inkscape:cy="11.451722"
     inkscape:window-x="2454"
     inkscape:window-y="186"
     inkscape:window-maximized="0"
     inkscape:current-layer="Layer_1" /><g
     id="g4554"
     style="fill:#0300ff;fill-opacity:1"><polygon
       points="31.655,29.02 28.522,27.056 28.522,28.384 2.598,28.384 2.598,3.133 3.926,3.133 1.963,0 0,3.133 1.328,3.133    1.328,29.652 28.522,29.652 28.522,30.982  "
       id="polygon4556"
       style="fill:#0300ff;fill-opacity:1" /><path
       d="M4.977,14.9c0.597,0,1.082-0.473,1.105-1.065l4.554-0.899c0.177,0.378,0.559,0.644,1.003,0.644   c0.613,0,1.111-0.499,1.111-1.112c0-0.209-0.062-0.402-0.163-0.569l3.783-3.865c0.178,0.121,0.392,0.191,0.623,0.191   c0.073,0,0.143-0.009,0.211-0.021l1.814,4.1c-0.265,0.202-0.439,0.52-0.439,0.878c0,0.614,0.497,1.111,1.111,1.111   c0.382,0,0.718-0.193,0.918-0.487l4.605,1.863c-0.003,0.035-0.011,0.069-0.011,0.104c0,0.614,0.499,1.112,1.111,1.112   c0.613,0,1.111-0.498,1.111-1.112c0-0.289-0.114-0.549-0.295-0.747l2.606-4.362c0.121,0.045,0.249,0.072,0.385,0.072   c0.613,0,1.11-0.497,1.11-1.109c0-0.613-0.498-1.11-1.11-1.11s-1.111,0.497-1.111,1.11c0,0.245,0.082,0.47,0.216,0.653L26.585,14.7   c-0.087-0.024-0.177-0.039-0.271-0.039c-0.35,0-0.659,0.166-0.862,0.42L20.8,13.197c0,0,0.001-0.012,0.001-0.017   c0-0.614-0.496-1.109-1.11-1.109c-0.026,0-0.05,0.005-0.076,0.007l-1.847-4.171c0.207-0.201,0.335-0.482,0.335-0.794   c0-0.612-0.497-1.11-1.11-1.11c-0.613,0-1.11,0.498-1.11,1.11c0,0.149,0.03,0.293,0.083,0.424l-3.848,3.932   c-0.146-0.068-0.307-0.113-0.48-0.113c-0.558,0-1.016,0.414-1.094,0.952l-4.62,0.913c-0.194-0.323-0.544-0.543-0.949-0.543   c-0.613,0-1.111,0.498-1.111,1.111C3.866,14.404,4.364,14.9,4.977,14.9z"
       id="path4558"
       style="fill:#0300ff;fill-opacity:1" /><path
       d="M29.011,24.062c0.613,0,1.111-0.497,1.111-1.11c0-0.614-0.498-1.111-1.111-1.111c-0.302,0-0.575,0.121-0.775,0.317   l-2.212-1.502c0.059-0.136,0.092-0.284,0.092-0.441c0-0.614-0.498-1.11-1.11-1.11c-0.613,0-1.111,0.496-1.111,1.11   c0,0.142,0.029,0.276,0.078,0.398l-2.974,2.471c-0.155-0.083-0.328-0.132-0.514-0.132c-0.218,0-0.418,0.064-0.589,0.171   l-3.025-2.935c0.077-0.148,0.124-0.318,0.124-0.497c0-0.613-0.497-1.111-1.11-1.111s-1.111,0.498-1.111,1.111   c0,0.082,0.011,0.164,0.029,0.242l-5.244,4.682c-0.168-0.102-0.364-0.163-0.576-0.163c-0.215,0-0.415,0.063-0.586,0.17   l-2.545-2.995c0.146-0.188,0.236-0.421,0.236-0.678c0-0.613-0.498-1.11-1.111-1.11s-1.111,0.497-1.111,1.11s0.498,1.11,1.111,1.11   c0.125,0,0.243-0.025,0.355-0.063l2.64,3.107c-0.062,0.14-0.101,0.294-0.101,0.458c0,0.612,0.498,1.109,1.11,1.109   c0.614,0,1.11-0.497,1.11-1.109c0-0.171-0.041-0.331-0.11-0.476l5.14-4.591c0.2,0.188,0.466,0.306,0.761,0.306   c0.201,0,0.387-0.059,0.55-0.152l3.042,2.953c-0.064,0.142-0.102,0.295-0.102,0.46c0,0.613,0.497,1.11,1.11,1.11   c0.613,0,1.11-0.497,1.11-1.11c0-0.192-0.053-0.373-0.141-0.532l2.908-2.414c0.183,0.13,0.403,0.21,0.645,0.21   c0.224,0,0.432-0.068,0.606-0.183l2.315,1.573c-0.016,0.076-0.025,0.153-0.025,0.235C27.901,23.564,28.398,24.062,29.011,24.062z"
       id="path4560"
       style="fill:#0300ff;fill-opacity:1" /></g><g
     id="g4562" /><g
     id="g4564" /><g
     id="g4566" /><g
     id="g4568" /><g
     id="g4570" /><g
     id="g4572" /><g
     id="g4574" /><g
     id="g4576" /><g
     id="g4578" /><g
     id="g4580" /><g
     id="g4582" /><g
     id="g4584" /><g
     id="g4586" /><g
     id="g4588" /><g
     id="g4590" /><path
     d="m 12.611183,1.9054567 h 0.651854 c 1.371558,0.1810983 2.476668,1.2674657 3.312934,2.4248424 0.03467,0.1234857 0.294985,0.1225926 0.254069,0.221516 -0.190604,-0.098477 -0.0067,0.1538561 -0.194996,-0.043321 -1.238633,-0.4153422 -2.743715,-0.2460799 -3.691549,0.8217541 -0.46164,0.5814784 -0.887757,1.197794 -1.32645,1.8009344 0.103195,-0.057166 0.220739,-0.057166 0.329317,-0.092001 0.425518,-0.5479845 0.786569,-1.1609505 1.255398,-1.665614 0.837863,-0.8465394 2.084081,-0.9253655 3.130113,-0.6000133 -1.036851,-0.1214767 -2.232574,0.037066 -2.961463,0.9675687 -0.375821,0.5261013 -0.719709,1.0821251 -1.067787,1.6314486 0.323529,0.3523717 0.679194,0.6676747 0.990745,1.0336677 -0.366441,-0.290963 -0.686175,-0.6493631 -1.036658,-0.9631037 -0.06245,0.056719 -0.14849,0.1554186 -0.0335,0.2181672 1.527235,1.5148831 3.057462,3.0268652 4.590486,4.5343802 0.04308,0.06699 0.08499,-0.03662 0.114519,-0.06298 0.872792,-1.242678 1.758956,-2.4750841 2.627157,-3.7213357 0.04272,-0.5173914 -0.08487,-1.0595706 -0.05171,-1.5881275 0.04028,-1.5910306 1.009305,-3.13673 2.381465,-3.6150441 0.578402,-0.185788 1.204303,-0.2331285 1.790687,-0.061408 0.121747,0.041979 0.153686,0.2373695 0.08382,0.3456721 -0.730235,1.0117824 -1.495447,1.9954311 -2.218749,3.0101171 0.845248,0.8324717 1.681913,1.6783418 2.532152,2.5032216 0.650644,-0.7766426 1.259385,-1.5983954 1.918019,-2.3649936 -0.614727,0.8494437 -1.27935,1.6533325 -1.902059,2.4974153 -0.911113,-0.8742281 -1.83799,-1.7361769 -2.73054,-2.6322896 0.698752,-0.973376 1.406284,-1.9398288 2.109825,-2.9096309 0.119753,-0.117458 -0.129729,-0.1453701 -0.151085,-0.039302 -0.687375,0.9441226 -1.376946,1.8871294 -2.065919,2.8301354 -0.07284,0.071233 -0.09561,0.1951669 0.004,0.2554586 0.914502,0.8831608 1.826213,1.7710118 2.741915,2.6532807 0.15169,0.1319711 0.253474,-0.1103113 0.359262,-0.2000798 -0.07985,0.12304 -0.223542,0.4079748 -0.379212,0.2210698 -0.921099,-0.8760154 -1.8376,-1.759177 -2.754898,-2.6403288 -0.132526,-0.089992 -0.07404,-0.2722058 0.02096,-0.365769 0.685181,-0.944123 1.379939,-1.8804315 2.05534,-2.8332627 -0.496772,-0.068106 -1.009308,-0.00692 -1.47634,0.1971762 -1.091536,0.4809935 -1.851761,1.7254579 -1.927007,3.0250784 -0.01297,-0.8132668 0.364046,-1.686156 0.888959,-2.2884044 0.632688,-0.7875867 1.632016,-1.1292402 2.558296,-0.9791803 0.02394,-0.037514 0.06981,-0.1125442 0.09386,-0.1500599 -0.703744,-0.1123206 -1.442808,0.00512 -2.062325,0.404625 -0.909915,0.6006829 -1.540806,1.7071468 -1.632617,2.8868545 -0.0725,0.6344013 0.05848,1.272824 0.06642,1.9027599 -0.941247,1.3648249 -1.892676,2.7227287 -2.832129,4.0895617 -0.05513,0.09915 -0.168879,0.07793 -0.226361,-0.0094 -1.587908,-1.528282 -3.176217,-3.0570105 -4.760333,-4.5897588 -0.03735,-0.023894 -0.100979,-0.069 -0.110317,0.032156 -0.158869,0.2532257 -0.341891,0.4876927 -0.494374,0.745607 0.192197,-0.1909241 0.314947,-0.449285 0.494572,-0.6527131 1.590704,1.5456984 3.173424,3.1025649 4.760935,4.6525079 0.122738,0.138224 0.359856,0.154078 0.468025,-0.01206 0.961011,-1.350533 1.91104,-2.711116 2.871649,-4.0618732 0.151492,-0.2375936 0.03374,-0.5350327 0.0397,-0.8000928 -0.100628,-0.8818218 -0.07529,-1.8444789 0.360849,-2.6171054 -0.381407,0.8143847 -0.420526,1.7558275 -0.31155,2.6514943 -0.0066,0.266623 0.120555,0.5817032 -0.05032,0.8112578 -0.945438,1.3592423 -1.892877,2.7166993 -2.83692,4.0770573 -0.142701,0.21303 -0.451264,0.220176 -0.608941,0.02523 -1.56138,-1.513322 -3.117355,-3.0335666 -4.675726,-4.5504596 -0.492972,0.6265867 -0.948636,1.2902426 -1.43243,1.9264306 -0.0279,0.04109 -0.09596,0.113438 -0.02918,0.158322 1.494902,1.593933 2.991999,3.185634 4.486302,4.780683 0.235508,0.219506 0.263058,0.658966 0.04973,0.908395 -0.923083,1.258756 -1.849367,2.514609 -2.773052,3.772695 -0.166655,0.302352 -0.507355,0.378052 -0.791764,0.260594 -1.4869174,-0.390556 -3.0039742,1.039026 -3.085405,2.703748 0.5171265,-0.589072 1.0007254,-1.215658 1.5142611,-1.809197 0.2051789,-0.239157 0.5811919,-0.263943 0.7949509,-0.02412 0.908911,0.894997 1.822225,1.784409 2.730541,2.679852 0.222538,0.188467 0.286008,0.581925 0.111718,0.831578 -0.533691,0.761463 -1.111696,1.487196 -1.634612,2.255357 1.172769,-0.165244 2.087872,-1.368846 2.217205,-2.65373 0.04926,-0.545527 0.01962,-1.099986 -0.102612,-1.631445 -0.06246,-0.228215 -0.07728,-0.495285 0.05848,-0.69581 0.887758,-1.269474 1.760951,-2.552126 2.651505,-3.819144 0.182625,-0.282924 0.586585,-0.330711 0.823295,-0.105175 2.370488,2.48223 4.705048,5.011579 7.066354,7.502963 0.658636,-0.839619 1.311283,-1.700002 1.935989,-2.567753 -1.840104,-1.864354 -3.733381,-3.669756 -5.567377,-5.542594 1.922013,1.820362 3.807108,3.691413 5.721141,5.521156 -0.678594,0.945461 -1.379142,1.874622 -2.071708,2.810261 -2.404814,-2.505904 -4.773505,-5.065173 -7.172931,-7.581123 -0.183816,-0.179534 -0.482805,-0.137554 -0.624106,0.08486 -0.866406,1.241116 -1.722428,2.492058 -2.588234,3.733841 -0.09035,0.131079 -0.162266,0.303468 -0.103197,0.46916 0.178026,0.865294 0.261261,1.807854 -0.04331,2.650151 -0.358654,1.020494 -1.178956,1.882442 -2.176888,2.007492 -0.136922,-0.0023 -0.28421,0.07146 -0.321135,0.23 1.367566,-0.04689 2.535743,-1.295153 2.777044,-2.773418 0.119948,-0.713451 0.04985,-1.448786 -0.110318,-2.147275 -0.05452,-0.158544 0.04576,-0.289846 0.123346,-0.408197 0.844646,-1.227494 1.694887,-2.450299 2.537142,-3.679355 0.107982,-0.176633 0.357463,-0.179982 0.483003,-0.02813 2.415593,2.530242 4.803844,5.096879 7.221633,7.620646 0.754432,-0.980299 1.482926,-1.990297 2.215408,-2.992478 -2.494829,-2.419259 -5.007222,-4.815072 -7.499057,-7.236787 -0.202984,-0.171944 -0.226133,-0.531907 -0.03794,-0.728859 1.013298,-1.328204 2.026003,-2.657747 3.051078,-3.974562 0.208366,-0.246303 0.502358,-0.06967 0.743458,-0.01608 1.588906,0.334731 3.091793,-1.1910954 3.265432,-2.9123113 0.08977,-0.5901892 -0.01203,-1.1866299 0.02194,-1.7786055 0.0439,0.713898 0.159663,1.4519135 0.02591,2.1662581 -0.275432,1.6711965 -1.748376,3.0536627 -3.295571,2.7946327 -0.210361,2.3e-4 -0.477014,-0.259478 -0.640472,-0.0079 -0.993137,1.315698 -1.994464,2.624028 -2.984812,3.942182 -0.08347,0.09892 -0.04892,0.26171 0.0523,0.329818 2.549517,2.460123 5.094242,4.926277 7.644956,7.385061 -0.828287,1.148441 -1.692496,2.31051 -2.542733,3.456052 -2.502414,-2.615768 -4.972894,-5.273065 -7.480696,-7.8799 -0.887163,1.189086 -1.718639,2.436008 -2.593027,3.639607 -0.04354,0.07905 -0.142105,0.14939 -0.117952,0.255013 0.127933,0.641772 0.198992,1.308774 0.124338,1.964613 -0.180233,1.553964 -1.349803,2.992033 -2.790617,3.061257 -0.09864,0.01787 -0.350074,-0.01563 -0.32333,0.142912 1.311283,0.06476 2.536344,-0.928938 3.005173,-2.275452 0.342894,-0.925368 0.30137,-1.965063 0.10553,-2.923253 0.859018,-1.222135 1.730014,-2.440919 2.605202,-3.648317 2.448525,2.628717 4.880684,5.27686 7.349568,7.882355 0.06187,0.08708 0.179624,0.12505 0.239499,0.0067 0.890151,-1.185737 1.768334,-2.386659 2.650506,-3.581101 0.115805,-0.166585 -0.09175,-0.294538 -0.185613,-0.392344 -2.52671,-2.426406 -5.064051,-4.841646 -7.573851,-7.289711 0.976374,-1.32932 2.00804,-2.608843 2.991001,-3.932358 1.070186,0.39145 2.305623,0 3.084008,-0.896336 0.848243,-0.9130853 1.173571,-2.2830458 1.027868,-3.5699388 0.337303,1.7535954 -0.447072,3.7036978 -1.89607,4.4961978 -0.648655,0.349469 -1.407085,0.476751 -2.112422,0.297216 -0.856029,1.189308 -1.722031,2.371026 -2.575263,3.563014 2.526762,2.357851 5.050933,4.72084 7.563723,7.098564 0.143705,0.119021 0.205577,0.31039 0.235508,0.500199 V 22.715 c -0.02591,0.267069 -0.199587,0.467372 -0.347284,0.664324 -0.830276,1.137726 -1.662556,2.274338 -2.502812,3.406482 -0.217553,0.303691 -0.664624,0.319321 -0.908117,0.04466 -2.362095,-2.474193 -4.664722,-5.021849 -6.997686,-7.527749 -0.692362,0.972705 -1.397704,1.933799 -2.097653,2.899582 -0.06105,0.07168 -0.02312,0.173507 -0.01378,0.258808 0.157677,1.00419 0.109732,2.080508 -0.304769,3.002748 -0.546066,1.292922 -1.696483,2.255356 -2.987408,2.344676 h -0.53429 c -0.301175,-0.07369 -0.723499,-0.0201 -0.874188,-0.393011 -0.106778,-0.332721 0.16506,-0.558257 0.326923,-0.786025 0.614328,-0.823988 1.252404,-1.625642 1.852162,-2.461018 -0.734078,-0.789598 -1.505879,-1.542795 -2.271692,-2.293762 -0.6145334,0.711441 -1.2160794,1.43762 -1.8266149,2.153974 -0.075647,0.06498 -0.092574,0.189136 -0.041675,0.278458 0.6229141,-0.750966 1.2386318,-1.513766 1.8852929,-2.237041 0.342684,0.319544 0.682987,0.651149 0.996732,1.006868 -0.345089,-0.293864 -0.659628,-0.630605 -0.995343,-0.936529 -0.7199121,0.881597 -1.4475987,1.755602 -2.1808782,2.62224 -0.2037779,0.256798 -0.6484566,0.165242 -0.7270913,-0.180876 -0.1063485,-1.136833 -0.1983849,-2.385538 0.3498754,-3.40871 -0.3522688,0.850782 -0.4626446,1.812098 -0.3299135,2.738578 0.2373054,-0.153631 0.080199,-0.469158 0.09841,-0.709432 -0.073195,-1.70826 0.9843587,-3.391293 2.4519172,-3.876752 0.5482604,-0.162117 1.1358504,-0.228215 1.6885004,-0.05404 0.915456,-1.213203 1.834949,-2.424842 2.735683,-3.651667 -1.456381,-1.609118 -2.940706,-3.185856 -4.4038723,-4.786936 -0.077635,-0.108077 -0.1826251,0.118574 -0.05872,0.156089 1.4334283,1.543914 2.8650603,3.09073 4.3016833,4.6304 -0.49497,0.682413 -0.987954,1.374427 -1.515659,2.025577 0.459445,-0.681072 0.95682,-1.330212 1.419658,-2.007712 C 12.663641,14.098428 11.210652,12.558757 9.7558674,11.027796 9.53752,11.241943 9.3497119,11.560372 9.1303612,11.800869 9.4049877,12.03757 9.526944,12.507397 9.2812451,12.8227 8.6824838,13.615872 8.0639682,14.391624 7.4492419,15.169387 7.2606283,15.426631 6.8884088,15.398048 6.7039861,15.15063 5.6713664,13.992375 4.6331181,12.840357 3.5900808,11.693923 3.5098467,11.602145 3.4188352,11.513271 3.3759237,11.390901 v -0.07905 C 3.9307794,10.422439 4.6149555,9.6223449 5.2183061,8.7668738 5.5206813,8.4241038 5.7416196,9.129516 6.0024822,9.1985163 6.334789,8.8180095 6.6381677,8.4031134 6.9495199,8.0000517 6.9261714,7.968345 6.8842635,7.8830417 6.8467905,7.9301589 6.5492017,8.2887829 6.2821636,8.7338243 5.9646245,9.0375166 6.2139065,8.6719697 6.5402364,8.2287146 6.803282,7.8265465 6.6271852,7.5974386 6.2120459,7.2535515 6.5351769,6.9572295 7.3906032,6.1993407 7.9843727,5.1670136 8.6861178,4.2508033 9.0006685,4.016782 9.1856866,4.6442624 9.4122175,4.7516705 9.9012095,4.1366955 10.327117,3.4574095 10.855627,2.8826286 11.331043,2.3609938 11.950958,2.009739 12.611188,1.9054567 m 0.276027,0.2116908 C 12.06232,2.1403722 11.318467,2.6649086 10.80034,3.3566999 10.24629,4.1375887 9.7046136,4.9296427 9.1519552,5.7118711 9.0623002,5.917533 8.9731241,6.1240873 8.8885009,6.3324287 9.616596,5.3677622 10.304566,4.3615614 11.046229,3.4085061 11.473946,2.9290755 12.046359,2.4773348 12.653698,2.4567911 11.950549,2.5693353 11.359979,3.0945423 10.926477,3.6987993 9.4427494,5.7855613 7.9402644,7.8555759 6.4160235,9.905046 6.151775,10.225932 5.685932,10.12098 5.4691847,9.7911623 5.1294884,10.273272 4.787002,10.777266 4.4554892,11.259153 5.2795783,12.168888 6.1166461,13.085321 7.0077989,13.919578 7.333322,13.446401 7.6810007,12.982378 7.9839736,12.495801 7.6572502,12.292373 7.5390963,11.774311 7.798159,11.45231 9.1419742,9.63485 10.503352,7.8265465 11.921215,6.0841171 10.585382,7.9498096 9.1998531,9.7739673 7.8676145,11.643233 c -0.1919989,0.344332 0.1049476,0.660305 0.3385056,0.846093 -0.3909909,0.566741 -0.7821803,1.1346 -1.1803549,1.69509 C 6.0366199,13.265079 5.0957664,12.270266 4.1589069,11.281482 4.5792342,10.692411 5.0021641,10.093737 5.434463,9.5223058 5.6570006,9.7199284 5.9527916,10.108252 6.2653463,9.8268902 6.8052247,9.1639053 7.3069884,8.4613953 7.8315007,7.7830028 7.1227721,8.253947 6.7435602,9.1366623 6.1264363,9.7219377 5.8051029,9.8648517 5.6428368,9.3537119 5.4011423,9.2610418 4.892795,9.953726 4.3580997,10.627207 3.8577413,11.325473 4.9379068,12.483297 5.9719586,13.6965 7.0694834,14.833109 7.6554738,14.103357 8.2288793,13.346585 8.8050867,12.601424 9.1258244,12.287907 8.4346536,12.092741 8.4332526,11.846885 8.7382193,11.429533 9.058957,11.025802 9.3641218,10.608896 9.3466114,10.518682 9.3176604,10.43137 9.2878921,10.3454 8.950986,10.818576 8.6110912,11.289522 8.2715937,11.76069 c -0.02895,0.04712 -0.091639,0.111651 -0.052649,0.17306 0.1584718,0.179758 0.3634405,0.318206 0.5033511,0.510916 C 8.1920016,13.20434 7.6249699,13.940569 7.048565,14.658264 6.5478057,14.116978 6.0384543,13.581052 5.5544616,13.022572 6.0578244,13.467391 6.537221,13.950394 7.0292054,14.412631 7.4820673,13.774655 7.9315321,13.124175 8.3650369,12.469229 8.166045,12.261334 7.7736652,12.036021 7.9906113,11.670699 9.528173,9.5564707 11.055408,7.4324169 12.596015,5.3210924 13.529879,4.048491 15.245324,3.8079943 16.528265,4.3626782 15.608771,3.1887763 14.35936,2.0606517 12.887211,2.1171475 m 10.650925,1.1948918 c -0.01599,0.2259824 0.197591,-0.012055 0,0 m -0.05591,0.024787 c -0.191404,0.1563114 0.18761,0.1409039 0,0 M 8.8270265,4.3642413 C 8.4959131,4.820225 8.241041,5.3380642 8.00972,5.8632711 8.2865469,5.4577538 8.6084787,4.8892258 9.088884,4.8403231 8.8142578,5.290947 8.4977106,5.7080757 8.1929427,6.1334671 7.9314845,6.4632853 7.7777987,6.891802 7.4432976,7.148377 7.3577286,7.2986596 7.1540906,7.4283983 7.1493042,7.5976619 7.4712328,7.3973599 7.6758162,7.0400756 7.9177092,6.7412967 8.3925276,6.1042146 8.8855052,5.4814241 9.3441541,4.8311679 9.1852838,4.6627974 9.0098476,4.4988929 8.8270265,4.3642413 M 7.6790057,6.3840125 C 7.4694374,6.5575189 7.2730491,6.7582679 7.1463064,7.0172984 7.1095339,6.8250354 6.9632847,7.093222 6.8910354,7.1401149 6.9051618,7.2586881 6.9888617,7.3714566 7.0682671,7.444699 7.2169565,7.4036123 6.9337499,7.1990669 7.1369092,7.2586881 7.3153434,6.9864834 7.5217127,6.6079853 7.6789825,6.3840125 m 4.1290415,0.7775398 c -0.0732,0.018534 -0.149892,0.048234 -0.194392,0.1210293 -0.70274,0.9474727 -1.40409,1.896286 -2.1102263,2.8401854 -0.08639,0.0815 -0.1069319,0.265507 -0.045063,0.355051 0.7516413,-1.1412994 1.6555683,-2.1702782 2.3960353,-3.3267615 -0.01158,0.00245 -0.03479,0.00782 -0.04635,0.010497 m -1.559549,3.1912135 c -0.05113,0.03082 -0.09444,0.107632 -0.03339,0.155642 1.484724,1.568476 2.949089,3.16107 4.422435,4.743169 0.178236,0.133535 0.28002,0.408867 0.10343,0.599567 -0.90932,1.22124 -1.824021,2.438016 -2.739123,3.654122 -0.08627,0.131971 -0.219946,0.305255 -0.382808,0.244069 -0.483599,-0.177526 -1.006317,-0.133312 -1.493703,0.0016 -1.3525961,0.399265 -2.3285744,1.97444 -2.2120162,3.528177 0.127735,-0.108078 0.2335114,-0.250545 0.1995873,-0.443924 0.053466,-1.70737 1.5124641,-3.214885 3.0530719,-3.006991 0.267646,0.01808 0.576802,0.233798 0.808527,-0.01876 0.967001,-1.291804 1.928603,-2.589191 2.894002,-3.88256 0.159067,-0.197846 0.135322,-0.531237 -0.05125,-0.698267 -1.524475,-1.61693 -3.03734,-3.297951 -4.568766,-4.875806 m -0.09176,10.676761 c -0.11452,0.01071 -0.1838164,0.127507 -0.2606529,0.207672 -0.5239207,0.62949 -1.0428327,1.264339 -1.5669529,1.893379 6.161e-4,0.08061 -0.05008,0.312624 0.035955,0.32044 0.5334932,-0.651371 1.0781695,-1.292026 1.6206411,-1.933799 0.095609,-0.102495 0.2243357,-0.320885 0.3680397,-0.17998 0.889754,0.873112 1.770931,1.758058 2.657692,2.635412 0.0579,0.0565 0.138113,0.137556 0.06444,0.217721 -0.619517,0.838056 -1.247414,1.670976 -1.872121,2.503893 -0.05452,0.08039 0.07483,0.04243 0.110784,0.02456 0.181621,-0.216605 0.328524,-0.47117 0.524714,-0.674375 -0.140307,0.241167 -0.314154,0.455538 -0.474214,0.681074 0.07343,0.04019 0.211566,0.03126 0.263455,-0.06253 0.550257,-0.748062 1.09533,-1.500592 1.642995,-2.25089 0.145701,-0.158545 0.148293,-0.462237 -0.01378,-0.606042 -0.91259,-0.890531 -1.828294,-1.777042 -2.741202,-2.666679 -0.09361,-0.112097 -0.228725,-0.14604 -0.359854,-0.109865 M 8.0931438,23.408378 C 7.9586264,23.53901 7.8961483,23.716312 7.9422599,23.914605 8.125877,23.841588 8.1793664,23.580766 8.0931438,23.408378 m -0.7073391,0.583049 c 0.037356,0.302353 -0.026732,0.748956 0.3161498,0.836044 0.287409,0.07145 0.4648395,-0.252331 0.624105,-0.460002 -0.1401091,-0.161224 -0.2353087,0.129516 -0.3432916,0.196506 -0.116388,0.221069 -0.4273195,0.104953 -0.4305065,-0.136214 -0.047046,-0.154079 0.048096,-0.439014 -0.1664567,-0.436334 m 3.6552243,2.935091 c -0.0307,0.0268 -0.08965,0.07369 -0.07647,0.116116 0.0746,0.178643 0.315742,-0.250098 0.07647,-0.116116 m 0.182228,0.0201 c -0.04611,0.03126 -0.161869,0.14738 -0.05055,0.160778 0.183618,0.102718 0.376422,-0.330489 0.05055,-0.160778 m -0.355268,0.196505 c -0.1459,0.145148 0.172247,0.09379 0,0 m 0.179426,0.0201 c -0.117357,0.163011 0.214751,0.180875 0.186419,0.0201 -0.06211,-0.01339 -0.123743,-0.02233 -0.186419,-0.0201 z"
     id="path4"
     inkscape:connector-curvature="0"
     style="stroke-width:0.02111117" /></svg>