<?xml version="1.0" encoding="UTF-8" standalone="no"?>
<!-- Generator: Adobe Illustrator 16.0.0, SVG Export Plug-In . SVG Version: 6.00 Build 0)  -->

<svg
   xmlns:dc="http://purl.org/dc/elements/1.1/"
   xmlns:cc="http://creativecommons.org/ns#"
   xmlns:rdf="http://www.w3.org/1999/02/22-rdf-syntax-ns#"
   xmlns:svg="http://www.w3.org/2000/svg"
   xmlns="http://www.w3.org/2000/svg"
   xmlns:sodipodi="http://sodipodi.sourceforge.net/DTD/sodipodi-0.dtd"
   xmlns:inkscape="http://www.inkscape.org/namespaces/inkscape"
   version="1.1"
   id="Layer_5"
   x="0px"
   y="0px"
   width="100px"
   height="100px"
   viewBox="0 0 100 100"
   enable-background="new 0 0 100 100"
   xml:space="preserve"
   inkscape:version="0.48.4 r9939"
   sodipodi:docname="console3.svg"><metadata
     id="metadata9"><rdf:RDF><cc:Work
         rdf:about=""><dc:format>image/svg+xml</dc:format><dc:type
           rdf:resource="http://purl.org/dc/dcmitype/StillImage" /></cc:Work></rdf:RDF></metadata><defs
     id="defs7" /><sodipodi:namedview
     pagecolor="#ffffff"
     bordercolor="#666666"
     borderopacity="1"
     objecttolerance="10"
     gridtolerance="10"
     guidetolerance="10"
     inkscape:pageopacity="0"
     inkscape:pageshadow="2"
     inkscape:window-width="804"
     inkscape:window-height="480"
     id="namedview5"
     showgrid="false"
     inkscape:zoom="2.36"
     inkscape:cx="138.13559"
     inkscape:cy="50"
     inkscape:window-x="71"
     inkscape:window-y="442"
     inkscape:window-maximized="0"
     inkscape:current-layer="Layer_5" /><path
     d="M73.344,10.913H26.656c-2.392,0-4.338,1.945-4.338,4.337v46.636c0,2.391,1.946,4.337,4.338,4.337h46.688  c2.392,0,4.338-1.946,4.338-4.337V15.25C77.682,12.858,75.735,10.913,73.344,10.913z M70.403,15.85c1.025,0,1.858,0.833,1.858,1.86  c0,1.027-0.833,1.859-1.858,1.859c-1.028,0-1.86-0.833-1.86-1.859C68.543,16.683,69.375,15.85,70.403,15.85z M63.74,15.85  c1.026,0,1.858,0.833,1.858,1.86c0,1.027-0.832,1.859-1.858,1.859s-1.859-0.833-1.859-1.859C61.881,16.683,62.714,15.85,63.74,15.85  z M72.725,61.267H27.275V24.185h45.449V61.267z M48.777,38.054l-14.967,6.86v-3.306l11.57-4.957v-0.063l-11.57-4.958v-3.305  l14.967,6.859V38.054z M66.189,43.784H50.598v-1.559h15.592V43.784z M61.912,83.894H74.9v2.371H61.934v0.113  c0,1.497-1.213,2.709-2.709,2.709H41.632c-1.496,0-2.71-1.213-2.71-2.709v-0.113H25.957v-2.371h12.988  c0.116-1.39,1.268-2.484,2.687-2.484h5.399V75.99c0-1.497,1.213-2.71,2.709-2.71h1.355c1.496,0,2.709,1.213,2.709,2.71v5.419h5.42  C60.644,81.409,61.795,82.504,61.912,83.894z"
     id="path3"
     style="fill:#0000fc;fill-opacity:1" /></svg>