<?xml version="1.0" encoding="UTF-8" standalone="no"?>
<!-- Generator: Adobe Illustrator 16.0.0, SVG Export Plug-In . SVG Version: 6.00 Build 0)  -->

<svg
   xmlns:dc="http://purl.org/dc/elements/1.1/"
   xmlns:cc="http://creativecommons.org/ns#"
   xmlns:rdf="http://www.w3.org/1999/02/22-rdf-syntax-ns#"
   xmlns:svg="http://www.w3.org/2000/svg"
   xmlns="http://www.w3.org/2000/svg"
   xmlns:sodipodi="http://sodipodi.sourceforge.net/DTD/sodipodi-0.dtd"
   xmlns:inkscape="http://www.inkscape.org/namespaces/inkscape"
   version="1.1"
   id="Capa_1"
   x="0px"
   y="0px"
   width="20.131px"
   height="25.152px"
   viewBox="0 0 20.131 25.152"
   style="enable-background:new 0 0 20.131 25.152;"
   xml:space="preserve"
   inkscape:version="0.48.4 r9939"
   sodipodi:docname="databasetable.svg"><metadata
     id="metadata45"><rdf:RDF><cc:Work
         rdf:about=""><dc:format>image/svg+xml</dc:format><dc:type
           rdf:resource="http://purl.org/dc/dcmitype/StillImage" /><dc:title /></cc:Work></rdf:RDF></metadata><defs
     id="defs43" /><sodipodi:namedview
     pagecolor="#ffffff"
     bordercolor="#666666"
     borderopacity="1"
     objecttolerance="10"
     gridtolerance="10"
     guidetolerance="10"
     inkscape:pageopacity="0"
     inkscape:pageshadow="2"
     inkscape:window-width="1305"
     inkscape:window-height="592"
     id="namedview41"
     showgrid="false"
     inkscape:zoom="4.7050855"
     inkscape:cx="-9.0649407"
     inkscape:cy="12.576"
     inkscape:window-x="0"
     inkscape:window-y="0"
     inkscape:window-maximized="0"
     inkscape:current-layer="Capa_1" /><path
     d="m 10.065,13.499847 c -4.725,0 -8.68,-1.385 -9.76099998,-3.26 -0.191,0.332 -0.303999997966101,0.674 -0.303999997966101,1.027 v 3.062 c 0,2.367 4.505999977966101,4.283 10.064999977966101,4.283 5.559,0 10.066,-1.916 10.066,-4.283 v -3.062 c 0,-0.354 -0.113,-0.695 -0.305,-1.027 -1.081,1.875 -5.034,3.26 -9.761,3.26 z"
     id="path3"
     inkscape:connector-curvature="0"
     style="fill:#000102;fill-opacity:0.22169812;stroke:#d2dd01;stroke-opacity:0.19811324" /><path
     d="m 10.065,19.825847 c -4.725,0 -8.68,-1.391 -9.76099998,-3.258 -0.191,0.328 -0.303999997966101,0.668 -0.303999997966101,1.024 v 3.064 c 0,2.365 4.505999977966101,4.283 10.064999977966101,4.283 5.559,0 10.066,-1.918 10.066,-4.283 v -3.064 c 0,-0.355 -0.113,-0.695 -0.305,-1.023 -1.081,1.866 -5.034,3.257 -9.761,3.257 z"
     id="path5"
     inkscape:connector-curvature="0"
     style="fill:#5b30f7;fill-opacity:0.88932806;stroke:#d2dd01;stroke-opacity:0.19811324000000000" /><path
     d="m 19.854,4.1208475 c -0.195,1.732 -4.496,3.119 -9.789,3.119 -5.291,0 -9.59399998,-1.387 -9.78899998,-3.119 -0.172,0.316 -0.2759999979661,0.643 -0.2759999979661,0.98 v 3.061 C 2.20339e-8,10.530847 4.506,12.444847 10.065,12.444847 c 5.559,0 10.066,-1.914 10.066,-4.2829995 v -3.061 c 0,-0.337 -0.103,-0.664 -0.277,-0.98 z"
     id="path7"
     inkscape:connector-curvature="0"
     style="fill:#5b30f7;fill-opacity:0.88932806;stroke:#d2dd01;stroke-opacity:0.19811324000000000" /><ellipse
     cx="10.065"
     cy="3.2409999"
     rx="9.8070002"
     ry="3.2409999"
     id="ellipse9"
     sodipodi:cx="10.065"
     sodipodi:cy="3.2409999"
     sodipodi:rx="9.8070002"
     sodipodi:ry="3.2409999"
     transform="translate(2.2033898e-8,-0.2131525)"
     style="fill:#5630f7;fill-opacity:0.88932806;stroke:#d2dd01;stroke-opacity:0.19811324000000000" /><g
     id="g11" /><g
     id="g13" /><g
     id="g15" /><g
     id="g17" /><g
     id="g19" /><g
     id="g21" /><g
     id="g23" /><g
     id="g25" /><g
     id="g27" /><g
     id="g29" /><g
     id="g31" /><g
     id="g33" /><g
     id="g35" /><g
     id="g37" /><g
     id="g39" /><path
     id="path4402"
     d="m 9.4856584,12.474702 h 3.3566786 v 1.013252 h 0.447546 v -1.013252 h 3.443383 v 1.013252 h 0.447545 V 7.30534 c 0,-0.3682382 -0.234189,-0.6678827 -0.521989,-0.6678827 H 3.7301022 c -0.2879809,0 -0.5219895,0.2998838 -0.5219895,0.6678827 v 14.633566 c 0,0.22615 0.088801,0.425594 0.2236777,0.546632 v 0.105348 H 3.619044 c 0.035901,0.0101 0.072879,0.01585 0.111055,0.01585 h 5.9387772 v -0.588706 h -0.183227 v -1.813143 h 0.183227 v -0.572631 h -0.183227 v -1.880158 h 0.183227 v -0.572634 h -0.183227 v -1.985043 h 0.183227 v -0.572404 h -0.183227 v -2.14731 z M 13.289883,7.2098611 h 3.36876 c 0.04097,0 0.07463,0.042746 0.07463,0.095489 V 9.2301032 H 13.289889 V 7.2098695 z m 0,2.5926421 h 3.443383 V 11.902072 H 13.289883 V 9.8025032 z M 9.4856584,7.2098611 H 12.842337 V 9.2300933 H 9.4856584 V 7.2098611 z m 0,2.5926421 H 12.842337 V 11.902072 H 9.4856584 V 9.8025032 z M 5.2715512,22.018025 h -1.58016 c -0.020901,-0.0168 -0.035902,-0.04516 -0.035902,-0.07937 v -1.733809 h 1.6160677 v 1.813148 z m 0,-2.385779 H 3.6554835 v -1.880152 h 1.6160677 v 1.880152 z m 0,-2.452561 H 3.6554835 v -1.985043 h 1.6160677 v 1.985043 z m 0,-2.557672 H 3.6554835 v -2.147311 h 1.6160677 v 2.147311 z m 0,-2.719941 H 3.6554835 V 9.8025032 H 5.2715512 V 11.902072 z M 9.0381123,22.018025 H 5.7189189 v -1.813149 h 3.3191934 v 1.813149 z m 0,-2.385779 H 5.7189189 v -1.880152 h 3.3191934 v 1.880152 z m 0,-2.452561 H 5.7189189 v -1.985043 h 3.3191934 v 1.985043 z m 0,-2.557672 H 5.7189189 v -2.147311 h 3.3191934 v 2.147311 z m 0,-2.719941 H 5.7189189 V 9.8025032 h 3.3191934 v 2.0995688 z m 0,-2.6722038 H 5.7189189 v -2.020228 h 3.3191934 v 2.020228 z m 2.0252537,7.6958868 c 0,-0.348304 0.220542,-0.630455 0.492912,-0.630455 0.272028,0 0.492739,0.282161 0.492739,0.630455 0,0.17437 -0.05536,0.332165 -0.144866,0.446442 l 0.781233,1.564819 c 0.06463,-0.03266 0.134538,-0.05202 0.208278,-0.05202 0.148371,0 0.28254,0.07484 0.383086,0.195215 l 1.025414,-0.959017 c -0.02306,-0.0697 -0.0359,-0.146364 -0.0359,-0.227016 0,-0.323181 0.204928,-0.585406 0.457704,-0.585406 0.252572,0 0.45753,0.262225 0.45753,0.585406 0,0.06567 -0.01045,0.127531 -0.02583,0.186474 l 1.074984,0.860405 c 0.11262,-0.125944 0.259426,-0.202373 0.420396,-0.202373 0.353658,0 0.640403,0.366895 0.640403,0.819388 0,0.452493 -0.286906,0.819388 -0.640403,0.819388 -0.353659,0 -0.640401,-0.366895 -0.640401,-0.819388 0,-0.148141 0.03117,-0.286628 0.08478,-0.406571 l -1.05046,-0.840903 c -0.08268,0.104425 -0.196013,0.169229 -0.321077,0.169229 -0.113333,0 -0.215626,-0.05491 -0.295513,-0.14209 l -1.027165,0.960584 c 0.03452,0.09348 0.05536,0.196992 0.05536,0.307282 0,0.398022 -0.252048,0.720554 -0.563154,0.720554 -0.311093,0 -0.563153,-0.322508 -0.563153,-0.720554 0,-0.205975 0.06867,-0.391105 0.17708,-0.522424 l -0.782285,-1.567283 c -0.05289,0.02497 -0.109481,0.04036 -0.169027,0.04036 -0.272027,0 -0.492736,-0.2824 -0.492736,-0.63068 z m -0.722381,-2.608551 v 8.961951 h 7.673259 v -8.961951 h -7.673259 z m 7.356212,8.556739 H 10.65786 v -8.151527 h 7.03951 v 8.151527 z"
     inkscape:connector-curvature="0" /></svg>