<?xml version="1.0" encoding="UTF-8" standalone="no"?>
<!-- Generator: Adobe Illustrator 16.0.0, SVG Export Plug-In . SVG Version: 6.00 Build 0)  -->

<svg
   xmlns:dc="http://purl.org/dc/elements/1.1/"
   xmlns:cc="http://creativecommons.org/ns#"
   xmlns:rdf="http://www.w3.org/1999/02/22-rdf-syntax-ns#"
   xmlns:svg="http://www.w3.org/2000/svg"
   xmlns="http://www.w3.org/2000/svg"
   xmlns:sodipodi="http://sodipodi.sourceforge.net/DTD/sodipodi-0.dtd"
   xmlns:inkscape="http://www.inkscape.org/namespaces/inkscape"
   version="1.1"
   id="Capa_1"
   x="0px"
   y="0px"
   width="23.416px"
   height="29.259px"
   viewBox="0 0 23.416 29.259"
   style="enable-background:new 0 0 23.416 29.259;"
   xml:space="preserve"
   inkscape:version="0.48.4 r9939"
   sodipodi:docname="database7.svg"><metadata
     id="metadata3880"><rdf:RDF><cc:Work
         rdf:about=""><dc:format>image/svg+xml</dc:format><dc:type
           rdf:resource="http://purl.org/dc/dcmitype/StillImage" /></cc:Work></rdf:RDF></metadata><defs
     id="defs3878" /><sodipodi:namedview
     pagecolor="#ffffff"
     bordercolor="#666666"
     borderopacity="1"
     objecttolerance="10"
     gridtolerance="10"
     guidetolerance="10"
     inkscape:pageopacity="0"
     inkscape:pageshadow="2"
     inkscape:window-width="640"
     inkscape:window-height="480"
     id="namedview3876"
     showgrid="false"
     inkscape:zoom="8.065894"
     inkscape:cx="11.708"
     inkscape:cy="14.6295"
     inkscape:window-x="0"
     inkscape:window-y="0"
     inkscape:window-maximized="0"
     inkscape:current-layer="Capa_1" /><path
     d="M11.705,15.953c-5.494,0-10.098-1.614-11.355-3.79C0.129,12.546,0,12.944,0,13.357v3.561c0,2.751,5.242,4.983,11.705,4.983  c6.467,0,11.711-2.232,11.711-4.983v-3.561c0-0.413-0.131-0.811-0.354-1.194C21.805,14.338,17.205,15.953,11.705,15.953z"
     id="path3838"
     style="fill:#0073fc;fill-opacity:1" /><path
     d="M11.705,23.309c-5.494,0-10.098-1.616-11.355-3.788C0.129,19.902,0,20.3,0,20.712v3.564c0,2.752,5.242,4.983,11.705,4.983  c6.467,0,11.711-2.23,11.711-4.983v-3.564c0-0.412-0.131-0.81-0.354-1.19C21.805,21.693,17.205,23.309,11.705,23.309z"
     id="path3840"
     style="fill:#0073fc;fill-opacity:1" /><path
     d="M23.096,5.041c-0.23,2.016-5.232,3.629-11.391,3.629c-6.156,0-11.158-1.613-11.387-3.628C0.117,5.408,0,5.79,0,6.183v3.561  c0,2.752,5.242,4.983,11.705,4.983c6.467,0,11.711-2.23,11.711-4.983V6.183C23.416,5.79,23.297,5.408,23.096,5.041z"
     id="path3842"
     style="fill:#0073fc;fill-opacity:1" /><path
     d="M11.705,7.54c6.303,0,11.41-1.687,11.41-3.771c0-2.082-5.107-3.77-11.41-3.77C5.406,0,0.297,1.688,0.297,3.77  C0.297,5.853,5.406,7.54,11.705,7.54z"
     id="path3844"
     style="fill:#0073fc;fill-opacity:1" /><g
     id="g3846" /><g
     id="g3848" /><g
     id="g3850" /><g
     id="g3852" /><g
     id="g3854" /><g
     id="g3856" /><g
     id="g3858" /><g
     id="g3860" /><g
     id="g3862" /><g
     id="g3864" /><g
     id="g3866" /><g
     id="g3868" /><g
     id="g3870" /><g
     id="g3872" /><g
     id="g3874" /></svg>