<?xml version="1.0" encoding="UTF-8" standalone="no"?>
<!-- Generator: Adobe Illustrator 16.0.0, SVG Export Plug-In . SVG Version: 6.00 Build 0)  -->

<svg
   xmlns:dc="http://purl.org/dc/elements/1.1/"
   xmlns:cc="http://creativecommons.org/ns#"
   xmlns:rdf="http://www.w3.org/1999/02/22-rdf-syntax-ns#"
   xmlns:svg="http://www.w3.org/2000/svg"
   xmlns="http://www.w3.org/2000/svg"
   xmlns:sodipodi="http://sodipodi.sourceforge.net/DTD/sodipodi-0.dtd"
   xmlns:inkscape="http://www.inkscape.org/namespaces/inkscape"
   version="1.1"
   id="Layer_5"
   x="0px"
   y="0px"
   width="100px"
   height="100px"
   viewBox="0 0 100 100"
   enable-background="new 0 0 100 100"
   xml:space="preserve"
   inkscape:version="0.48.4 r9939"
   sodipodi:docname="data25.svg"><metadata
     id="metadata9"><rdf:RDF><cc:Work
         rdf:about=""><dc:format>image/svg+xml</dc:format><dc:type
           rdf:resource="http://purl.org/dc/dcmitype/StillImage" /></cc:Work></rdf:RDF></metadata><defs
     id="defs7" /><sodipodi:namedview
     pagecolor="#ffffff"
     bordercolor="#666666"
     borderopacity="1"
     objecttolerance="10"
     gridtolerance="10"
     guidetolerance="10"
     inkscape:pageopacity="0"
     inkscape:pageshadow="2"
     inkscape:window-width="640"
     inkscape:window-height="480"
     id="namedview5"
     showgrid="false"
     inkscape:zoom="2.36"
     inkscape:cx="50"
     inkscape:cy="50"
     inkscape:window-x="0"
     inkscape:window-y="0"
     inkscape:window-maximized="0"
     inkscape:current-layer="Layer_5" /><path
     d="M 5.8082085,27.23699 H 73.490646 c 1.216402,0 2.200158,-0.99547 2.200158,-2.225011 V 4.7702953 c 0,-1.2295414 -0.983756,-2.2277021 -2.200158,-2.2277021 H 5.8082085 c -1.2164007,0 -2.2001577,0.9981607 -2.2001577,2.2277021 V 25.011979 c 0,1.228195 0.983757,2.225011 2.2001577,2.225011 z M 10.761555,8.4710239 H 39.649428 V 20.162422 H 10.761555 V 8.4710239 z M 75.692134,44.959057 v -10.33137 c 0,-1.229541 -0.983756,-2.225012 -2.200158,-2.225012 H 5.8082085 c -1.2164007,0 -2.2001577,0.995471 -2.2001577,2.225012 v 20.241684 c 0,1.23223 0.983757,2.227701 2.2001577,2.227701 H 44.943101 v -5.113221 c 0,-3.875609 3.114785,-7.02614 6.943458,-7.02614 H 75.692134 z M 39.649428,49.722518 H 10.761555 V 38.03112 H 39.649428 V 49.722518 z M 3.6080508,64.201234 v 20.241685 c 0,1.22954 0.983757,2.225011 2.2001577,2.225011 H 44.943101 V 61.973534 H 5.8082085 c -1.2164007,0 -2.2001577,0.998161 -2.2001577,2.2277 z m 7.1535042,4.275144 H 39.649428 V 80.167776 H 10.761555 V 68.476378 z M 96.038608,50.339979 H 51.886559 c -0.898675,0 -1.625857,0.73584 -1.625857,1.645217 v 44.676452 c 0,0.906685 0.727182,1.645217 1.625857,1.645217 h 44.152049 c 0.897345,0 1.624528,-0.738532 1.624528,-1.645217 V 51.983851 c 0,-0.909376 -0.727183,-1.643872 -1.624528,-1.643872 z M 59.335191,52.805787 H 88.589977 V 66.646864 H 59.335191 V 52.805787 z M 90.011106,94.807919 H 57.915391 v -20.48517 h 32.097045 v 20.48517 z m -9.682023,-39.94662 h 4.063977 v 9.868612 h -4.063977 v -9.868612 z m 6.736072,24.531624 H 60.858683 v -1.645217 h 26.206472 v 1.645217 z m 0,5.754896 H 60.858683 v -1.642526 h 26.206472 v 1.642526 z m 0,5.550422 H 60.858683 v -1.645218 h 26.206472 v 1.645218 z"
     id="path3"
     inkscape:connector-curvature="0"
     style="fill:#00ad00;fill-opacity:1;stroke:#6f0000;stroke-opacity:1" /></svg>