<?xml version="1.0" encoding="UTF-8" standalone="no"?>
<!-- Generator: Adobe Illustrator 17.0.0, SVG Export Plug-In . SVG Version: 6.00 Build 0)  -->

<svg
   xmlns:dc="http://purl.org/dc/elements/1.1/"
   xmlns:cc="http://creativecommons.org/ns#"
   xmlns:rdf="http://www.w3.org/1999/02/22-rdf-syntax-ns#"
   xmlns:svg="http://www.w3.org/2000/svg"
   xmlns="http://www.w3.org/2000/svg"
   xmlns:sodipodi="http://sodipodi.sourceforge.net/DTD/sodipodi-0.dtd"
   xmlns:inkscape="http://www.inkscape.org/namespaces/inkscape"
   version="1.1"
   id="Capa_1"
   x="0px"
   y="0px"
   width="52px"
   height="52px"
   viewBox="0 0 52 52"
   enable-background="new 0 0 52 52"
   xml:space="preserve"
   inkscape:version="0.48.4 r9939"
   sodipodi:docname="delete9.svg"><metadata
     id="metadata4410"><rdf:RDF><cc:Work
         rdf:about=""><dc:format>image/svg+xml</dc:format><dc:type
           rdf:resource="http://purl.org/dc/dcmitype/StillImage" /></cc:Work></rdf:RDF></metadata><defs
     id="defs4408" /><sodipodi:namedview
     pagecolor="#ffffff"
     bordercolor="#666666"
     borderopacity="1"
     objecttolerance="10"
     gridtolerance="10"
     guidetolerance="10"
     inkscape:pageopacity="0"
     inkscape:pageshadow="2"
     inkscape:window-width="640"
     inkscape:window-height="480"
     id="namedview4406"
     showgrid="false"
     inkscape:zoom="4.5384615"
     inkscape:cx="26"
     inkscape:cy="26"
     inkscape:window-x="0"
     inkscape:window-y="0"
     inkscape:window-maximized="0"
     inkscape:current-layer="Capa_1" /><g
     id="g4400"
     style="fill:#ff0022;fill-opacity:1"><path
       d="M24.676,28.779c0.2,0.067,0.405,0.134,0.608,0.197c1.055,0.327,1.319-0.257,0.538-1.038l-1.611-1.612   c-0.781-0.781-0.781-2.047,0.001-2.828l0.253-0.252c0.781-0.781,1.773-2.235,2.214-3.247l3.009-6.902   c0.44-1.19,0.221-2.087-0.042-2.626c-0.217-0.449-0.525-0.797-0.833-1.06c-0.571-0.486-1.668-0.931-2.328-1.108   c-0.432-0.116-0.841-0.174-1.223-0.174c-0.692,0-1.241,0.19-1.66,0.452c-0.816,0.511-1.455,2.136-1.914,3.14l-4.095,8.946   c-0.46,1.004-1.344,1.062-1.66,0.003c-0.57-1.911-0.007-3.195,0.031-3.275c0,0,4.283-9.224,4.866-10.449   c0.771-1.623,2.037-2.41,3.868-2.41c2.53,0,5.151,1.515,5.186,1.535c0.292,0.168,0.591,0.331,0.894,0.496   c2.82,1.542,4.352,2.549,3.01,5.299c-0.626,1.284-1.264,2.604-1.964,4.091c-0.47,0.999-0.527,2.13-0.134,2.523   c0.393,0.393,1.085-0.101,1.554-1.101c0.794-1.692,1.542-3.251,2.241-4.686c2.196-4.505-1.271-6.398-3.801-7.782   c-0.291-0.16-0.582-0.316-0.852-0.474c-0.125-0.071-3.081-1.791-6.133-1.791c-2.561,0-4.488,1.207-5.574,3.489   c-0.582,1.227-4.866,10.451-4.866,10.451c-0.076,0.156-1.812,3.895,1.97,8.366c0,0,0.07,0.082,0.156,0.184s0.136,0.226,0.111,0.278   c-0.024,0.052-0.068,0.092-0.096,0.089l-0.052-0.004c0,0-0.186-0.019-0.506-0.019c-1.121,0-3.592,0.211-5.628,1.946   c-0.841,0.716-1.706,2.298-2.166,3.302c-1.146,2.5-3.215,6.985-4.5,9.623c-2.196,4.505,1.272,6.401,3.805,7.786   c0.289,0.159,0.579,0.316,0.849,0.47c0.125,0.073,3.081,1.791,6.133,1.791c2.561,0,4.488-1.205,5.574-3.486   c0.583-1.228,4.868-10.452,4.868-10.452c0.064-0.136,1.405-3.019-0.81-6.744C23.399,28.767,23.629,28.427,24.676,28.779z    M15.161,32.809l6.665-14.444c0.215-0.463,0.683-0.763,1.192-0.763c0.191,0,0.375,0.041,0.553,0.122   c0.655,0.303,0.941,1.083,0.639,1.739l-6.666,14.444c-0.292,0.635-1.09,0.94-1.742,0.641c-0.317-0.146-0.56-0.407-0.68-0.736   C15,33.484,15.013,33.126,15.161,32.809z M18.197,46.1c-0.771,1.622-2.037,2.41-3.868,2.41c-2.53,0-5.151-1.514-5.185-1.535   c-0.291-0.165-0.591-0.33-0.891-0.494c-2.823-1.544-4.354-2.55-3.013-5.304c1.276-2.619,3.315-7.04,4.445-9.517   c0.459-1.005,1.324-2.601,2.246-3.209c0.306-0.202,0.621-0.367,0.936-0.501c1.016-0.433,1.569,0.311,1.127,1.323L9.338,39.955   c-0.439,1.189-0.218,2.084,0.044,2.626c0.218,0.448,0.525,0.795,0.833,1.057c0.571,0.485,1.667,0.928,2.329,1.107   c0.433,0.117,0.842,0.176,1.225,0.176c0.692,0,1.24-0.19,1.659-0.453c0.815-0.512,1.452-2.137,1.912-3.141l4.095-8.948   c0.46-1.004,1.343-1.063,1.658-0.004c0.571,1.915,0.006,3.2-0.031,3.279C23.063,35.652,18.78,44.873,18.197,46.1z"
       id="path4402"
       style="fill:#ff0022;fill-opacity:1" /><path
       d="M44.159,30.271l4.2-4.2c0.781-0.781,0.781-2.047,0-2.829l-2.637-2.638c-0.781-0.781-2.047-0.781-2.828,0l-4.2,4.2   c-0.781,0.781-2.047,0.781-2.828,0l-4.199-4.199c-0.781-0.781-2.047-0.781-2.828,0l-2.637,2.637c-0.781,0.781-0.781,2.047,0,2.829   l4.199,4.199c0.781,0.781,0.781,2.047,0,2.828l-4.198,4.198c-0.781,0.781-0.781,2.047,0,2.828l2.637,2.637   c0.781,0.781,2.047,0.781,2.828,0l4.199-4.199c0.781-0.781,2.047-0.781,2.829,0l4.199,4.199c0.781,0.781,2.047,0.781,2.829,0   l2.637-2.637c0.781-0.781,0.781-2.047,0-2.828l-4.199-4.199C43.378,32.318,43.378,31.052,44.159,30.271z"
       id="path4404"
       style="fill:#ff0022;fill-opacity:1" /></g></svg>