<?xml version="1.0" encoding="UTF-8" standalone="no"?>
<!-- Generator: Adobe Illustrator 16.0.4, SVG Export Plug-In . SVG Version: 6.00 Build 0)  -->

<svg
   xmlns:dc="http://purl.org/dc/elements/1.1/"
   xmlns:cc="http://creativecommons.org/ns#"
   xmlns:rdf="http://www.w3.org/1999/02/22-rdf-syntax-ns#"
   xmlns:svg="http://www.w3.org/2000/svg"
   xmlns="http://www.w3.org/2000/svg"
   xmlns:sodipodi="http://sodipodi.sourceforge.net/DTD/sodipodi-0.dtd"
   xmlns:inkscape="http://www.inkscape.org/namespaces/inkscape"
   version="1.1"
   id="Capa_1"
   x="0px"
   y="0px"
   width="16px"
   height="16px"
   viewBox="0 0 16 16"
   enable-background="new 0 0 16 16"
   xml:space="preserve"
   inkscape:version="0.48.4 r9939"
   sodipodi:docname="document9.svg"><metadata
     id="metadata19"><rdf:RDF><cc:Work
         rdf:about=""><dc:format>image/svg+xml</dc:format><dc:type
           rdf:resource="http://purl.org/dc/dcmitype/StillImage" /></cc:Work></rdf:RDF></metadata><defs
     id="defs17" /><sodipodi:namedview
     pagecolor="#ffffff"
     bordercolor="#666666"
     borderopacity="1"
     objecttolerance="10"
     gridtolerance="10"
     guidetolerance="10"
     inkscape:pageopacity="0"
     inkscape:pageshadow="2"
     inkscape:window-width="640"
     inkscape:window-height="480"
     id="namedview15"
     showgrid="false"
     inkscape:zoom="14.75"
     inkscape:cx="8"
     inkscape:cy="8"
     inkscape:window-x="0"
     inkscape:window-y="0"
     inkscape:window-maximized="0"
     inkscape:current-layer="Capa_1" /><g
     id="g3"
     style="stroke:#0003f9;stroke-opacity:1"
     transform="matrix(0.97024235,0,0,0.91464,0.47534945,0.64898161)"><path
       d="M 14,0 H 2 C 1.448,0 1,0.448 1,1 v 14 c 0,0.552 0.448,1 1,1 h 12 c 0.552,0 1,-0.448 1,-1 V 1 C 15,0.448 14.552,0 14,0 z m 0,15 H 2 V 1 h 12 v 14 z"
       id="path5"
       style="stroke:#0003f9;stroke-opacity:1"
       inkscape:connector-curvature="0" /><path
       d="m 7.5,4 h 4 C 11.775,4 12,3.776 12,3.5 12,3.224 11.775,3 11.5,3 h -4 C 7.224,3 7,3.224 7,3.5 7,3.776 7.224,4 7.5,4 z"
       id="path7"
       style="stroke:#0003f9;stroke-opacity:1"
       inkscape:connector-curvature="0" /><path
       d="m 4.5,7 h 7 C 11.775,7 12,6.776 12,6.5 12,6.224 11.775,6 11.5,6 h -7 C 4.224,6 4,6.224 4,6.5 4,6.776 4.224,7 4.5,7 z"
       id="path9"
       style="stroke:#0003f9;stroke-opacity:1"
       inkscape:connector-curvature="0" /><path
       d="m 4.5,10 h 7 C 11.775,10 12,9.775 12,9.5 12,9.225 11.775,9 11.5,9 h -7 C 4.224,9 4,9.225 4,9.5 4,9.775 4.224,10 4.5,10 z"
       id="path11"
       style="stroke:#0003f9;stroke-opacity:1"
       inkscape:connector-curvature="0" /><path
       d="m 4.5,13 h 7 C 11.775,13 12,12.775 12,12.5 12,12.225 11.775,12 11.5,12 h -7 C 4.224,12 4,12.225 4,12.5 4,12.775 4.224,13 4.5,13 z"
       id="path13"
       style="stroke:#0003f9;stroke-opacity:1"
       inkscape:connector-curvature="0" /></g></svg>