<?xml version="1.0" encoding="UTF-8" standalone="no"?>
<!-- Generator: Adobe Illustrator 16.0.0, SVG Export Plug-In . SVG Version: 6.00 Build 0)  -->

<svg
   xmlns:dc="http://purl.org/dc/elements/1.1/"
   xmlns:cc="http://creativecommons.org/ns#"
   xmlns:rdf="http://www.w3.org/1999/02/22-rdf-syntax-ns#"
   xmlns:svg="http://www.w3.org/2000/svg"
   xmlns="http://www.w3.org/2000/svg"
   xmlns:sodipodi="http://sodipodi.sourceforge.net/DTD/sodipodi-0.dtd"
   xmlns:inkscape="http://www.inkscape.org/namespaces/inkscape"
   version="1.1"
   id="Layer_3"
   x="0px"
   y="0px"
   width="100px"
   height="100px"
   viewBox="0 0 100 100"
   enable-background="new 0 0 100 100"
   xml:space="preserve"
   inkscape:version="0.48.4 r9939"
   sodipodi:docname="doubleback.svg"><metadata
     id="metadata9"><rdf:RDF><cc:Work
         rdf:about=""><dc:format>image/svg+xml</dc:format><dc:type
           rdf:resource="http://purl.org/dc/dcmitype/StillImage" /><dc:title></dc:title></cc:Work></rdf:RDF></metadata><defs
     id="defs7" /><sodipodi:namedview
     pagecolor="#ffffff"
     bordercolor="#666666"
     borderopacity="1"
     objecttolerance="10"
     gridtolerance="10"
     guidetolerance="10"
     inkscape:pageopacity="0"
     inkscape:pageshadow="2"
     inkscape:window-width="640"
     inkscape:window-height="480"
     id="namedview5"
     showgrid="false"
     inkscape:zoom="2.36"
     inkscape:cx="50"
     inkscape:cy="50"
     inkscape:window-x="0"
     inkscape:window-y="0"
     inkscape:window-maximized="0"
     inkscape:current-layer="Layer_3" /><path
     d="m 46.52375,21.598 c -2.041,-2.041 -2.041,-5.352 0,-7.393 2.041,-2.042 5.351,-2.042 7.393,0 l 32.1,32.099 c 1.02,1.021 1.53,2.358 1.53,3.696 0,1.338 -0.511,2.676 -1.53,3.696 l -32.1,32.099 c -2.042,2.042 -5.352,2.042 -7.393,0 -2.041,-2.041 -2.041,-5.351 0,-7.393 L 74.92575,50 46.52375,21.598 z M 42.38475,50 13.98275,78.402 c -2.041,2.042 -2.041,5.352 0,7.393 2.041,2.042 5.351,2.042 7.393,0 l 32.1,-32.099 c 1.02,-1.021 1.53,-2.358 1.53,-3.696 0,-1.338 -0.511,-2.676 -1.53,-3.696 l -32.1,-32.099 c -2.042,-2.042 -5.352,-2.042 -7.393,0 -2.041,2.041 -2.041,5.352 0,7.393 L 42.38475,50 z"
     id="path3"
     style="fill:#0000fa;fill-opacity:1;stroke:#9fdd00;stroke-opacity:1;stroke-width:2.50000000000000000;stroke-miterlimit:4;stroke-dasharray:none"
     inkscape:connector-curvature="0" /></svg>