<?xml version="1.0" encoding="UTF-8" standalone="no"?>
<!-- Generator: Adobe Illustrator 17.1.0, SVG Export Plug-In . SVG Version: 6.00 Build 0)  -->

<svg
   xmlns:dc="http://purl.org/dc/elements/1.1/"
   xmlns:cc="http://creativecommons.org/ns#"
   xmlns:rdf="http://www.w3.org/1999/02/22-rdf-syntax-ns#"
   xmlns:svg="http://www.w3.org/2000/svg"
   xmlns="http://www.w3.org/2000/svg"
   xmlns:sodipodi="http://sodipodi.sourceforge.net/DTD/sodipodi-0.dtd"
   xmlns:inkscape="http://www.inkscape.org/namespaces/inkscape"
   version="1.1"
   id="Layer_1"
   x="0px"
   y="0px"
   width="1000px"
   height="1000px"
   viewBox="0 0 1000 1000"
   enable-background="new 0 0 1000 1000"
   xml:space="preserve"
   inkscape:version="0.48.4 r9939"
   sodipodi:docname="download130.svg"><metadata
     id="metadata13"><rdf:RDF><cc:Work
         rdf:about=""><dc:format>image/svg+xml</dc:format><dc:type
           rdf:resource="http://purl.org/dc/dcmitype/StillImage" /><dc:title></dc:title></cc:Work></rdf:RDF></metadata><defs
     id="defs11" /><sodipodi:namedview
     pagecolor="#ffffff"
     bordercolor="#666666"
     borderopacity="1"
     objecttolerance="10"
     gridtolerance="10"
     guidetolerance="10"
     inkscape:pageopacity="0"
     inkscape:pageshadow="2"
     inkscape:window-width="640"
     inkscape:window-height="480"
     id="namedview9"
     showgrid="false"
     inkscape:zoom="0.236"
     inkscape:cx="500"
     inkscape:cy="500"
     inkscape:window-x="276"
     inkscape:window-y="283"
     inkscape:window-maximized="0"
     inkscape:current-layer="Layer_1" /><g
     id="g3"
     style="fill:#00ba00;fill-opacity:1;stroke:#e10000;stroke-opacity:1;stroke-width:15.7;stroke-miterlimit:4;stroke-dasharray:none"><path
       d="M110.379,976.063h779.242c21.647,0,39.195-17.548,39.195-39.195V711.397c0-21.647-17.548-39.195-39.195-39.195H620.623   l-80.506,74.125c-10.965,10.096-25.212,15.656-40.117,15.656c-14.905,0-29.152-5.56-40.117-15.656l-80.506-74.125H110.379   c-21.647,0-39.195,17.548-39.195,39.195v225.471C71.184,958.515,88.732,976.063,110.379,976.063z M684.752,876.35h141.084   c6.977,0,12.633,5.656,12.633,12.633c0,6.977-5.656,12.633-12.633,12.633H684.752c-6.977,0-12.633-5.656-12.633-12.633   C672.119,882.006,677.776,876.35,684.752,876.35z"
       id="path5"
       style="fill:#00ba00;fill-opacity:1;stroke:#e10000;stroke-opacity:1;stroke-width:15.7;stroke-miterlimit:4;stroke-dasharray:none" /><path
       d="M256.623,524.834l160.055,147.368l60.319,55.537c6.5,5.985,14.751,8.977,23.003,8.977s16.503-2.992,23.003-8.977   l60.319-55.537l160.055-147.368c9.183-8.455,3.201-23.784-9.281-23.784H675.27V58.034c0-17.657-14.313-31.97-31.97-31.97H355.018   c-16.728,0-30.288,13.561-30.288,30.288V501.05h-58.825C253.423,501.05,247.44,516.379,256.623,524.834z"
       id="path7"
       style="fill:#00ba00;fill-opacity:1;stroke:#e10000;stroke-opacity:1;stroke-width:15.7;stroke-miterlimit:4;stroke-dasharray:none" /></g></svg>