<?xml version="1.0" encoding="UTF-8" standalone="no"?>
<!-- Generator: Adobe Illustrator 16.0.0, SVG Export Plug-In . SVG Version: 6.00 Build 0)  -->

<svg
   xmlns:dc="http://purl.org/dc/elements/1.1/"
   xmlns:cc="http://creativecommons.org/ns#"
   xmlns:rdf="http://www.w3.org/1999/02/22-rdf-syntax-ns#"
   xmlns:svg="http://www.w3.org/2000/svg"
   xmlns="http://www.w3.org/2000/svg"
   xmlns:sodipodi="http://sodipodi.sourceforge.net/DTD/sodipodi-0.dtd"
   xmlns:inkscape="http://www.inkscape.org/namespaces/inkscape"
   version="1.1"
   id="Layer_6"
   x="0px"
   y="0px"
   width="100px"
   height="100px"
   viewBox="0 0 100 100"
   enable-background="new 0 0 100 100"
   xml:space="preserve"
   inkscape:version="0.92.2 5c3e80d, 2017-08-06"
   sodipodi:docname="EditStable.svg"><metadata
     id="metadata3808"><rdf:RDF><cc:Work
         rdf:about=""><dc:format>image/svg+xml</dc:format><dc:type
           rdf:resource="http://purl.org/dc/dcmitype/StillImage" /><dc:title></dc:title></cc:Work></rdf:RDF></metadata><defs
     id="defs3806"><linearGradient
       x1="335.72"
       y1="414.36"
       gradientTransform="matrix(2.5278,2.5256,-2.5278,2.5256,565.91,-1456.1)"
       x2="353.75"
       gradientUnits="userSpaceOnUse"
       y2="414.36"
       id="linearGradient7803"><stop
         offset="0"
         stop-opacity=".82653"
         stop-color="#fff"
         id="stop3708" /><stop
         offset="1"
         stop-opacity="0"
         stop-color="#fff"
         id="stop3710" /></linearGradient><linearGradient
       x1="331.72"
       y1="437.79"
       gradientTransform="matrix(2.5278,2.5256,-2.5278,2.5256,565.91,-1456.1)"
       x2="365.75"
       gradientUnits="userSpaceOnUse"
       y2="437.79"
       id="linearGradient7812"><stop
         offset="0"
         stop-color="#fff"
         id="stop3687" /><stop
         offset="1"
         stop-color="#ffdd7c"
         id="stop3711" /></linearGradient><linearGradient
       x1="148.7"
       y1="318.69"
       gradientTransform="matrix(2.3454,2.3434,-2.3454,2.3434,888.99,-800.77)"
       x2="185.48"
       gradientUnits="userSpaceOnUse"
       y2="318.69"
       id="linearGradient7819"><stop
         offset="0"
         stop-color="#ff9191"
         id="stop4256" /><stop
         offset="1"
         stop-color="#b55858"
         id="stop4258" /></linearGradient></defs><sodipodi:namedview
     pagecolor="#ffffff"
     bordercolor="#666666"
     borderopacity="1"
     objecttolerance="10"
     gridtolerance="10"
     guidetolerance="10"
     inkscape:pageopacity="0"
     inkscape:pageshadow="2"
     inkscape:window-width="1366"
     inkscape:window-height="703"
     id="namedview3804"
     showgrid="false"
     inkscape:zoom="2.36"
     inkscape:cx="50"
     inkscape:cy="64.40794"
     inkscape:window-x="0"
     inkscape:window-y="0"
     inkscape:window-maximized="1"
     inkscape:current-layer="Layer_6" /><path
     d="m 86.480271,14.373 h -73.808 c -1.644,0 -2.9799998,1.338 -2.9799998,2.98 v 65.293 c 0,1.009 0.5069998,1.899 1.2769998,2.439 v 0.47 h 1.069 c 0.205,0.044 0.416,0.071 0.634,0.071 h 73.809 c 0.218,0 0.429,-0.027 0.633,-0.071 h 0.147 V 85.51 c 1.264,-0.346 2.2,-1.492 2.2,-2.863 V 17.354 c 0,-1.643 -1.337,-2.981 -2.981,-2.981 z m 0.426,2.981 v 8.588 h -19.658 v -9.014 h 19.232 c 0.235,0 0.426,0.191 0.426,0.426 z M 86.701271,83 h -19.453 v -8.09 h 19.658 v 7.736 c 0,0.152 -0.085,0.28 -0.205,0.354 z m -74.455,-0.354 V 74.91 h 9.226 V 83 h -9.021 c -0.12,-0.074 -0.205,-0.202 -0.205,-0.354 z m 30.729,-30.091 v 8.857 h -18.949 V 52.555 Z M 24.026271,50 v -9.581 h 18.949 V 50 Z m 18.949,13.967 v 8.389 h -18.949 v -8.389 z m 0,10.943 V 83 h -18.949 v -8.09 z m 2.555,0 h 19.163 V 83 h -19.163 z m 0,-2.555 v -8.389 h 19.163 v 8.389 z m 0,-10.943 v -8.857 h 19.163 v 8.857 z m 0,-11.412 v -9.581 h 19.163 V 50 Z m 0,-12.136 v -9.368 h 19.163 v 9.368 z m 0,-11.923 v -9.014 h 19.163 v 9.014 z m -2.555,0 h -18.949 v -9.014 h 18.949 z m 0,2.555 v 9.368 h -18.949 v -9.368 h 18.949 z m -21.503,9.368 h -9.226 v -9.368 h 9.226 z m 0,2.555 V 50 h -9.226 v -9.581 z m 0,12.136 v 8.857 h -9.226 v -8.857 z m 0,11.412 v 8.389 h -9.226 v -8.389 z m 45.776,8.388 v -8.389 h 19.658 v 8.389 z m 0,-10.943 v -8.857 h 19.658 v 8.857 z m 0,-11.412 v -9.581 h 19.658 V 50 Z m 0,-12.136 v -9.368 h 19.658 v 9.368 z"
     id="path3802"
     style="fill:#0000fc;fill-opacity:1"
     inkscape:connector-curvature="0" /><text
     xml:space="preserve"
     style="font-style:normal;font-weight:normal;font-size:33.98379135px;line-height:1.25;font-family:sans-serif;letter-spacing:0px;word-spacing:0px;fill:#ee00c7;fill-opacity:1;stroke:none;stroke-width:0.84959477;"
     x="9.8360338"
     y="64.990379"
     id="text3717"
     transform="scale(0.86160802,1.1606206)"><tspan
       sodipodi:role="line"
       id="tspan3715"
       x="9.8360338"
       y="64.990379"
       style="stroke-width:0.84959477;fill:#ee00c7;fill-opacity:1;">Stable</tspan></text>
<g
     transform="matrix(0.19207257,0,0,0.16749145,-24.621304,-33.337806)"
     id="layer2"><g
       id="g7826"><path
         style="color:#000000;fill:url(#linearGradient7819)"
         d="m 567.38,303.44 c -23.74,-23.72 -49.66,-36.33 -57.82,-28.18 -0.55,0.55 -1.03,1.17 -1.4,1.88 l -51.66,51.62 7.8,7.79 30.34,30.31 9.74,9.74 38.14,38.11 53.37,-53.32 c -0.03,-0.1 -0.03,-0.21 -0.06,-0.31 l -0.06,-0.06 0.06,-0.06 c 7.68,-8.4 -4.93,-34.03 -28.45,-57.52 z"
         id="path4217"
         inkscape:connector-curvature="0" /><path
         style="color:#000000;fill:#e3dedb"
         d="m 470.45,314.82 -48.31,48.27 -5.54,5.54 7.79,7.79 78.23,78.16 53.85,-53.81 -43.01,-42.98 -35.21,-35.18 z"
         id="path4235"
         inkscape:connector-curvature="0" /><path
         d="m 538.99,418.24 -86.02,-85.95 -3.9,3.9 -1.95,1.94 86.02,85.95 1.95,-1.95 z"
         style="color:#000000"
         id="path4143"
         inkscape:connector-curvature="0" /><path
         d="m 548.74,408.5 -86.03,-85.95 -3.9,3.9 -1.94,1.95 86.02,85.94 1.95,-1.95 z"
         style="color:#000000"
         id="path4147"
         inkscape:connector-curvature="0" /><path
         d="m 529.24,427.98 -86.02,-85.95 -3.9,3.9 -1.95,1.94 86.02,85.95 1.95,-1.95 z"
         style="color:#000000"
         id="path4163"
         inkscape:connector-curvature="0" /><path
         style="color:#000000;fill:url(#linearGradient7812)"
         d="m 429.21,356.03 -184.9,184.74 -34.97,120.88 10.96,-3.16 110.03,-31.77 184.9,-184.74 -16.69,-16.68 -5.85,-5.84 -15.6,-15.59 -1.95,-1.94 -5.85,-5.85 -1.95,-1.95 -15.59,-15.58 -5.85,-5.84 -8.9,-8.89 z"
         id="path4106"
         inkscape:connector-curvature="0" /><path
         d="m 256.88,647.93 -16.9,-16.89 -16.9,-16.89 -13.74,47.5 z"
         style="color:#000000"
         id="path3990"
         inkscape:connector-curvature="0" /><path
         style="color:#000000;fill:#ff9191"
         d="m 595.83,361.08 c 0.03,0.1 0.03,0.21 0.06,0.31 l 0.12,-0.13 z"
         id="path4089"
         inkscape:connector-curvature="0" /><path
         style="color:#000000;fill:#ffc700"
         d="m 429.21,356.03 -184.9,184.74 41.73,1.28 1.28,41.69 41.73,1.28 1.28,41.7 184.9,-184.74 -21.51,-21.49 -21.5,-21.49 -21.51,-21.48 z"
         id="path3424"
         inkscape:connector-curvature="0" /><path
         style="color:#000000;fill:#ffda00"
         d="m 429.21,356.03 -184.9,184.74 41.73,1.28 164.67,-164.53 z"
         id="path3426"
         inkscape:connector-curvature="0" /><path
         style="color:#000000;fill:#ff8a00"
         d="m 329.05,585.02 1.28,41.7 184.9,-184.74 -21.51,-21.49 z"
         id="path3428"
         inkscape:connector-curvature="0" /><path
         style="color:#000000;fill:#ffa100"
         d="m 287.32,583.74 41.73,1.28 L 493.72,420.49 472.22,399 Z"
         id="path3430"
         inkscape:connector-curvature="0" /><path
         style="color:#000000;fill:url(#linearGradient7803)"
         d="m 491.1,336.97 c -1.55,-1.55 -3.37,-2.77 -5.29,-3.55 -1.92,-0.78 -3.96,-1.1 -6,-1.1 -2.05,0 -4.09,0.32 -6.01,1.1 -1.92,0.78 -3.73,2 -5.29,3.55 l -29.23,29.2 -173.55,173.4 c -0.54,0.54 -0.74,1.24 -1.18,1.82 l 21.48,0.63 1.27,41.67 24.64,0.79 172.92,-172.77 29.23,-29.2 c 1.56,-1.55 2.78,-3.37 3.56,-5.29 0.77,-1.92 1.1,-3.95 1.1,-5.99 0,-2.05 -0.33,-4.08 -1.1,-6 -0.78,-1.92 -2,-3.73 -3.56,-5.29 z"
         id="path3680"
         inkscape:connector-curvature="0" /><path
         style="color:#000000;opacity:0.8;fill:#ffffff"
         d="m 239.98,631.04 -11.24,-11.23 -19.4,41.84 z"
         id="path4288"
         inkscape:connector-curvature="0" /></g></g></svg>