<?xml version="1.0" encoding="UTF-8" standalone="no"?>
<!-- Generator: Adobe Illustrator 16.0.0, SVG Export Plug-In . SVG Version: 6.00 Build 0)  -->

<svg
   xmlns:dc="http://purl.org/dc/elements/1.1/"
   xmlns:cc="http://creativecommons.org/ns#"
   xmlns:rdf="http://www.w3.org/1999/02/22-rdf-syntax-ns#"
   xmlns:svg="http://www.w3.org/2000/svg"
   xmlns="http://www.w3.org/2000/svg"
   xmlns:sodipodi="http://sodipodi.sourceforge.net/DTD/sodipodi-0.dtd"
   xmlns:inkscape="http://www.inkscape.org/namespaces/inkscape"
   version="1.1"
   id="Layer_1"
   x="0px"
   y="0px"
   width="31.484px"
   height="30.814px"
   viewBox="0 0 31.484 30.814"
   style="enable-background:new 0 0 31.484 30.814;"
   xml:space="preserve"
   inkscape:version="0.48.4 r9939"
   sodipodi:docname="education20.svg"><metadata
     id="metadata3886"><rdf:RDF><cc:Work
         rdf:about=""><dc:format>image/svg+xml</dc:format><dc:type
           rdf:resource="http://purl.org/dc/dcmitype/StillImage" /></cc:Work></rdf:RDF></metadata><defs
     id="defs3884" /><sodipodi:namedview
     pagecolor="#ffffff"
     bordercolor="#666666"
     borderopacity="1"
     objecttolerance="10"
     gridtolerance="10"
     guidetolerance="10"
     inkscape:pageopacity="0"
     inkscape:pageshadow="2"
     inkscape:window-width="640"
     inkscape:window-height="480"
     id="namedview3882"
     showgrid="false"
     inkscape:zoom="7.6588566"
     inkscape:cx="15.742"
     inkscape:cy="15.407"
     inkscape:window-x="0"
     inkscape:window-y="0"
     inkscape:window-maximized="0"
     inkscape:current-layer="Layer_1" /><g
     id="g3846"
     style="fill:#f65d81;fill-opacity:1;stroke:#0003f9;stroke-width:0.30000001;stroke-miterlimit:4;stroke-opacity:1;stroke-dasharray:none"
     transform="matrix(0.92608412,0,0,0.92023965,1.2941516,1.5552871)"><polygon
       points="28.368,28.229 2.583,28.229 2.583,3.115 3.905,3.115 1.952,0 0,3.115 1.321,3.115 1.321,29.492 28.368,29.492 28.368,30.814 31.484,28.861 28.368,26.909 "
       id="polygon3848"
       style="fill:#f65d81;fill-opacity:1;stroke:#0003f9;stroke-width:0.30000001;stroke-miterlimit:4;stroke-opacity:1;stroke-dasharray:none" /><polygon
       points="6.163,20.17 8.395,20.17 8.395,19.886 10.722,22.07 10.722,24.154 13.562,24.154 13.562,21.313 12.926,21.313 15.001,13.778 15.12,13.778 17.018,19.341 16.402,19.341 16.402,22.181 19.242,22.181 19.242,20.075 21.254,18.604 21.254,18.748 23.303,18.748 25.035,21.865 24.764,21.865 24.764,24.705 27.604,24.705 27.604,21.865 26.643,21.865 27.702,11.214 28.946,11.214 28.946,8.374 26.106,8.374 26.106,11.214 27.067,11.214 26.009,21.865 25.757,21.865 24.026,18.748 24.095,18.748 24.095,15.908 21.254,15.908 21.254,17.82 19.175,19.341 17.684,19.341 15.786,13.778 16.402,13.778 16.402,10.938 13.562,10.938 13.562,13.778 14.346,13.778 12.271,21.313 10.838,21.313 8.395,19.02 8.395,17.329 5.555,17.329 5.555,19.955 3.825,22.806 4.365,23.134 "
       id="polygon3850"
       style="fill:#f65d81;fill-opacity:1;stroke:#0003f9;stroke-width:0.30000001;stroke-miterlimit:4;stroke-opacity:1;stroke-dasharray:none" /></g><g
     id="g3852" /><g
     id="g3854" /><g
     id="g3856" /><g
     id="g3858" /><g
     id="g3860" /><g
     id="g3862" /><g
     id="g3864" /><g
     id="g3866" /><g
     id="g3868" /><g
     id="g3870" /><g
     id="g3872" /><g
     id="g3874" /><g
     id="g3876" /><g
     id="g3878" /><g
     id="g3880" /></svg>