<?xml version="1.0" encoding="UTF-8" standalone="no"?>
<!-- Generator: Adobe Illustrator 16.0.4, SVG Export Plug-In . SVG Version: 6.00 Build 0)  -->

<svg
   xmlns:dc="http://purl.org/dc/elements/1.1/"
   xmlns:cc="http://creativecommons.org/ns#"
   xmlns:rdf="http://www.w3.org/1999/02/22-rdf-syntax-ns#"
   xmlns:svg="http://www.w3.org/2000/svg"
   xmlns="http://www.w3.org/2000/svg"
   xmlns:sodipodi="http://sodipodi.sourceforge.net/DTD/sodipodi-0.dtd"
   xmlns:inkscape="http://www.inkscape.org/namespaces/inkscape"
   version="1.1"
   id="Capa_1"
   x="0px"
   y="0px"
   width="100px"
   height="100px"
   viewBox="0 0 100 100"
   enable-background="new 0 0 100 100"
   xml:space="preserve"
   inkscape:version="0.48.4 r9939"
   sodipodi:docname="erasechecked.svg"><metadata
     id="metadata3852"><rdf:RDF><cc:Work
         rdf:about=""><dc:format>image/svg+xml</dc:format><dc:type
           rdf:resource="http://purl.org/dc/dcmitype/StillImage" /><dc:title></dc:title></cc:Work></rdf:RDF></metadata><defs
     id="defs3850" /><sodipodi:namedview
     pagecolor="#ffffff"
     bordercolor="#666666"
     borderopacity="1"
     objecttolerance="10"
     gridtolerance="10"
     guidetolerance="10"
     inkscape:pageopacity="0"
     inkscape:pageshadow="2"
     inkscape:window-width="764"
     inkscape:window-height="576"
     id="namedview3848"
     showgrid="false"
     inkscape:zoom="2.36"
     inkscape:cx="50"
     inkscape:cy="50"
     inkscape:window-x="403"
     inkscape:window-y="439"
     inkscape:window-maximized="0"
     inkscape:current-layer="Capa_1" /><g
     id="g3842"><path
       d="M0,0v100h100V0H0z M95,95H5C5,79.17,5,20.83,5,5h90V95z"
       id="path3844" /><polygon
       points="32.818,69.705 42.693,79.611 52.6,69.705 82.318,40.018 82.104,20.388 42.693,59.799 17.681,34.788 17.943,54.861     "
       id="polygon3846" /></g><g
     id="g3957"
     transform="matrix(1.9190406,-0.36249473,0.33409967,2.7335895,8.5380161,7.9778631)"
     style="stroke-width:0.21582666;stroke-miterlimit:4;stroke-dasharray:none;stroke:#a6b7e5;stroke-opacity:1"><g
       style="fill:#62add0;fill-opacity:1;stroke-width:0.21582666;stroke-miterlimit:4;stroke-dasharray:none;stroke:#a6b7e5;stroke-opacity:1"
       id="g3"><path
         style="fill:#62add0;fill-opacity:1;stroke-width:0.21582666;stroke-miterlimit:4;stroke-dasharray:none;stroke:#a6b7e5;stroke-opacity:1"
         id="path5"
         d="m 26.276,10.573 c -0.014,0.035 -0.031,0.067 -0.046,0.103 0.018,-0.031 0.038,-0.061 0.055,-0.091 -0.003,-0.004 -0.007,-0.008 -0.009,-0.012 z"
         inkscape:connector-curvature="0" /><path
         style="fill:#62add0;fill-opacity:1;stroke-width:0.21582666;stroke-miterlimit:4;stroke-dasharray:none;stroke:#a6b7e5;stroke-opacity:1"
         id="path7"
         d="m 13.238,29.559 c -0.546,0.709 -1.404,1.115 -2.356,1.115 -0.765,0 -1.533,-0.266 -2.164,-0.75 L 0.891,23.906 c -0.169,-0.13 -0.323,-0.274 -0.465,-0.427 0.233,0.785 0.702,1.493 1.379,2.013 l 6.951,5.342 c 0.699,0.537 1.554,0.832 2.407,0.832 1.101,0 2.1,-0.479 2.74,-1.313 L 27.285,12.937 c 0.543,-0.705 0.69,-1.721 0.697,-2.567 L 13.238,29.559 z"
         inkscape:connector-curvature="0" /><path
         style="fill:#62add0;fill-opacity:1;stroke-width:0.21582666;stroke-miterlimit:4;stroke-dasharray:none;stroke:#a6b7e5;stroke-opacity:1"
         id="path9"
         d="m 1.061,23.686 7.828,6.018 c 0.582,0.447 1.289,0.693 1.993,0.693 0.865,0 1.644,-0.367 2.136,-1.009 L 27.972,9.926 C 27.969,9.852 27.966,9.776 27.96,9.707 27.89,8.795 27.49,7.084 26.308,6.174 L 19.357,0.832 C 18.658,0.296 17.804,0 16.95,0 15.979,0 15.292,0.35 14.838,0.697 L 0.3,19.617 c -0.006,0.007 -0.009,0.016 -0.015,0.023 -0.262,0.607 -0.381,1.331 -0.196,2.207 0.11,0.604 0.14,0.764 0.177,0.973 0.209,0.326 0.474,0.62 0.795,0.866 z M 14.449,2.5 c 0.641,-0.834 1.64,-1.313 2.74,-1.313 0.854,0 1.708,0.296 2.405,0.832 l 5.777,4.21 c 1.183,0.909 1.503,1.596 1.573,2.508 0.028,0.527 -0.125,0.99 -0.292,1.327 l 0.006,0.005 -0.036,0.057 c -0.072,0.139 -0.141,0.244 -0.201,0.326 l -0.428,0.685 -0.079,0.104 c 0.125,-0.174 0.23,-0.361 0.315,-0.563 -0.03,0.055 -0.058,0.109 -0.098,0.161 L 25.91,11.246 20.888,17.8 20.167,17.248 20.154,17.266 11.078,10.293 9.514,9.099 14.449,2.5 z"
         inkscape:connector-curvature="0" /></g><g
       id="g11"
       style="stroke-width:0.21582666;stroke-miterlimit:4;stroke-dasharray:none;stroke:#a6b7e5;stroke-opacity:1" /><g
       id="g13"
       style="stroke-width:0.21582666;stroke-miterlimit:4;stroke-dasharray:none;stroke:#a6b7e5;stroke-opacity:1" /><g
       id="g15"
       style="stroke-width:0.21582666;stroke-miterlimit:4;stroke-dasharray:none;stroke:#a6b7e5;stroke-opacity:1" /><g
       id="g17"
       style="stroke-width:0.21582666;stroke-miterlimit:4;stroke-dasharray:none;stroke:#a6b7e5;stroke-opacity:1" /><g
       id="g19"
       style="stroke-width:0.21582666;stroke-miterlimit:4;stroke-dasharray:none;stroke:#a6b7e5;stroke-opacity:1" /><g
       id="g21"
       style="stroke-width:0.21582666;stroke-miterlimit:4;stroke-dasharray:none;stroke:#a6b7e5;stroke-opacity:1" /><g
       id="g23"
       style="stroke-width:0.21582666;stroke-miterlimit:4;stroke-dasharray:none;stroke:#a6b7e5;stroke-opacity:1" /><g
       id="g25"
       style="stroke-width:0.21582666;stroke-miterlimit:4;stroke-dasharray:none;stroke:#a6b7e5;stroke-opacity:1" /><g
       id="g27"
       style="stroke-width:0.21582666;stroke-miterlimit:4;stroke-dasharray:none;stroke:#a6b7e5;stroke-opacity:1" /><g
       id="g29"
       style="stroke-width:0.21582666;stroke-miterlimit:4;stroke-dasharray:none;stroke:#a6b7e5;stroke-opacity:1" /><g
       id="g31"
       style="stroke-width:0.21582666;stroke-miterlimit:4;stroke-dasharray:none;stroke:#a6b7e5;stroke-opacity:1" /><g
       id="g33"
       style="stroke-width:0.21582666;stroke-miterlimit:4;stroke-dasharray:none;stroke:#a6b7e5;stroke-opacity:1" /><g
       id="g35"
       style="stroke-width:0.21582666;stroke-miterlimit:4;stroke-dasharray:none;stroke:#a6b7e5;stroke-opacity:1" /><g
       id="g37"
       style="stroke-width:0.21582666;stroke-miterlimit:4;stroke-dasharray:none;stroke:#a6b7e5;stroke-opacity:1" /><g
       id="g39"
       style="stroke-width:0.21582666;stroke-miterlimit:4;stroke-dasharray:none;stroke:#a6b7e5;stroke-opacity:1" /></g></svg>