<?xml version="1.0" encoding="UTF-8" standalone="no"?>
<!-- Generator: Adobe Illustrator 16.0.0, SVG Export Plug-In . SVG Version: 6.00 Build 0)  -->

<svg
   xmlns:dc="http://purl.org/dc/elements/1.1/"
   xmlns:cc="http://creativecommons.org/ns#"
   xmlns:rdf="http://www.w3.org/1999/02/22-rdf-syntax-ns#"
   xmlns:svg="http://www.w3.org/2000/svg"
   xmlns="http://www.w3.org/2000/svg"
   xmlns:sodipodi="http://sodipodi.sourceforge.net/DTD/sodipodi-0.dtd"
   xmlns:inkscape="http://www.inkscape.org/namespaces/inkscape"
   version="1.1"
   id="Layer_1"
   x="0px"
   y="0px"
   width="512px"
   height="512px"
   viewBox="0 0 512 512"
   enable-background="new 0 0 512 512"
   xml:space="preserve"
   sodipodi:docname="eraseplot.svg"
   inkscape:version="0.92.2 5c3e80d, 2017-08-06"><metadata
     id="metadata9"><rdf:RDF><cc:Work
         rdf:about=""><dc:format>image/svg+xml</dc:format><dc:type
           rdf:resource="http://purl.org/dc/dcmitype/StillImage" /><dc:title></dc:title></cc:Work></rdf:RDF></metadata><defs
     id="defs7" /><sodipodi:namedview
     pagecolor="#ffffff"
     bordercolor="#666666"
     borderopacity="1"
     objecttolerance="10"
     gridtolerance="10"
     guidetolerance="10"
     inkscape:pageopacity="0"
     inkscape:pageshadow="2"
     inkscape:window-width="1119"
     inkscape:window-height="814"
     id="namedview5"
     showgrid="false"
     inkscape:zoom="0.4609375"
     inkscape:cx="-104.13559"
     inkscape:cy="256"
     inkscape:window-x="2057"
     inkscape:window-y="260"
     inkscape:window-maximized="0"
     inkscape:current-layer="Layer_1" /><path
     d="M512,480v32H0V0h32v480H512z M232.766,278l66.922,66.938l59.438-148.563l66.531,99.813l84.688-254.063l-60.688-20.25  l-43.313,129.938l-61.469-92.188l-68.563,171.438L215.234,170l-64,127.969l-32.609-32.594l-45.25,45.25l95.391,95.406L232.766,278z"
     id="path2" /><path
     style="fill:#ff0000;fill-opacity:1;stroke:#007d00;stroke-width:0.40000001;stroke-miterlimit:4;stroke-dasharray:none;stroke-opacity:1"
     id="path837"
     d="m 438.55804,51.763523 c 1.66033,23.468595 -8.25048,45.136049 -16.18116,66.657017 -14.02522,34.52562 -29.16732,68.89241 -50.48328,99.64721 -5.30416,7.65286 -11.17399,14.89777 -16.76098,22.34665 -31.82694,37.75181 -68.85075,70.71544 -107.13735,101.73804 -5.19869,4.12116 -10.2799,8.39502 -15.59607,12.36347 -4.73972,3.53815 -9.70898,6.75794 -14.55734,10.1457 -10.72617,7.49483 -22.14586,16.09975 -33.70409,22.28702 -7.31516,3.57661 -4.00806,1.8934 -4.18214,-4.25779 -0.0527,-1.86346 -0.85078,-3.64699 -0.97434,-5.50709 -0.0759,-1.1422 0.81704,2.1877 0.82987,3.33234 0.0354,3.15688 -0.45777,6.29753 -0.68665,9.4463 -0.91525,2.13505 -1.92167,4.23327 -2.74574,6.40514 -0.36201,0.95409 -0.42547,2.00643 -0.80525,2.95359 -3.58156,8.93238 -8.9901,17.20073 -14.36347,25.11001 -3.9904,5.22004 -8.1504,10.6265 -13.32126,14.78041 -0.66316,0.53273 -1.40077,1.48632 -2.22023,1.25813 -0.65377,-0.18204 -0.30211,-1.32388 -0.41752,-1.99264 -0.22416,-1.29895 -0.40056,-2.60569 -0.60085,-3.90853 -9.89025,-3.07078 -19.7805,-6.14156 -29.67076,-9.21233 -0.24482,-0.0661 -0.76098,0.0538 -0.73447,-0.19845 0.0971,-0.92376 0.68505,-1.72677 1.02758,-2.59016 1.34257,-2.21747 32.70228,16.76933 31.35971,18.9868 v 0 c -12.97926,10.09232 -2.31777,7.44722 -35.74008,-3.89389 -0.26543,-1.89956 -0.74913,-3.78125 -0.79628,-5.69869 -0.28264,-11.49558 5.34313,-22.13564 11.96987,-31.09044 6.46505,-7.75824 12.99443,-15.05835 20.8139,-21.47551 1.26863,-1.04111 2.17713,-3.09884 3.81824,-3.10822 1.0291,-0.006 0.0642,2.05723 0.0963,3.08584 0.0117,2.54089 -0.10807,5.08579 0.035,7.62268 0.0378,0.67031 0.65249,2.60479 0.50479,1.94985 -0.52604,-2.33245 -1.49239,-4.59664 -1.63993,-6.98312 -0.35019,-5.66426 1.58443,-11.20984 2.37919,-16.73972 0.87929,-2.48715 1.51789,-5.07299 2.63786,-7.46145 2.88018,-6.14228 9.11932,-15.60438 13.11285,-20.54649 3.12565,-3.8681 6.73124,-7.32244 10.09572,-10.98471 15.78923,-17.18672 7.27506,-8.32562 25.22449,-26.07706 10.13011,-9.86148 20.46797,-19.51012 30.4994,-29.47196 22.47462,-22.31869 44.16404,-45.46583 65.49672,-68.86886 5.21308,-5.88863 10.6639,-11.57506 15.63924,-17.66588 7.87008,-9.63454 20.01711,-26.95433 27.02728,-37.30732 2.62294,-3.87369 19.57082,-29.79336 22.62355,-34.67126 3.24051,-5.17796 6.31268,-10.45939 9.46901,-15.68908 5.50605,-8.209765 10.79318,-16.568245 16.45016,-24.674745 1.94694,-2.789971 4.15565,-5.390744 6.1089,-8.176292 0.23098,-0.329404 7.08066,-11.243531 8.40592,-12.263688 0.6271,-0.482731 1.56023,0.266118 2.34035,0.399178 0,-2.499861 35.35337,-2.499861 35.35337,0 z"
     inkscape:connector-curvature="0" /><path
     style="fill:#ff0000;fill-opacity:1;stroke:#007d00;stroke-width:0.40000001;stroke-miterlimit:4;stroke-dasharray:none;stroke-opacity:1"
     id="path839"
     d="m 148.64909,86.491607 c 3.17106,1.501377 8.74177,4.042426 11.55941,5.829652 2.54106,1.611787 4.90145,3.493102 7.31046,5.29629 5.05206,3.781551 13.31576,10.190391 17.82706,14.324971 3.53177,3.23685 6.80071,6.74927 10.20106,10.1239 3.76819,3.66176 7.47404,7.38879 11.30456,10.98529 8.63758,8.1099 17.70369,15.75526 26.33925,23.86733 15.32341,14.3945 29.73636,29.73707 44.4243,44.76856 15.75116,16.97951 32.71887,32.73618 49.2599,48.91858 17.40926,17.03181 34.47584,34.43252 51.38167,51.96133 15.14542,17.55762 31.53185,34.8472 39.64637,57.01503 2.31891,6.33496 2.51197,10.84621 3.36558,17.4915 -0.98357,9.72284 0.0786,12.03386 -7.31113,20.53483 -1.88171,2.16465 -4.74072,3.25219 -7.27625,4.59295 -0.4861,0.25705 -1.92842,0.59565 -1.64493,0.12448 13.49762,-22.43371 8.35841,-7.74136 12.14105,-19.74214 1.58848,0.83485 3.26223,1.52444 4.76544,2.50456 4.99988,3.26002 14.32017,10.80456 18.31227,14.18008 6.24359,5.27926 19.85501,17.44593 25.33634,23.03596 3.848,3.9243 7.32712,8.19405 10.99068,12.29108 2.01959,2.37501 11.24325,12.68593 13.38331,16.77859 0.36227,0.6928 0.63249,2.17732 -0.13183,2.3417 -7.29027,1.56782 -15.26,-0.17101 -22.23424,2.46828 -13.86134,5.24561 -2.65514,14.4468 -11.89149,4.40812 -3.31625,-6.70137 -5.40686,-10.00574 -7.19889,-17.3684 -0.67018,-2.75348 -0.78542,-5.61306 -1.17813,-8.41959 -0.83715,-3.03754 42.12008,-14.87664 42.95723,-11.83911 v 0 c 1.28016,2.23898 2.77332,4.36897 3.84048,6.71695 4.0578,8.92796 3.93659,11.10659 5.97656,20.82795 0.31363,9.36914 2.3239,25.16644 -6.59648,31.90676 -14.82932,11.20516 -36.52578,6.09589 -50.50057,-2.54743 -4.76974,-2.95005 -8.99989,-6.69439 -13.49983,-10.04159 -4.37909,-4.2825 -9.09362,-8.24695 -13.13728,-12.8475 -4.14486,-4.71568 -7.76541,-9.87611 -11.36003,-15.02356 -9.31634,-13.34088 -17.12463,-27.87156 -21.78981,-43.50256 -0.60721,-3.41675 -2.86698,-6.94116 -1.82162,-10.25025 2.06238,-6.52848 6.96468,-11.79163 10.61463,-17.58405 0.11979,-0.19011 0.78289,-0.4126 0.62485,-0.25287 -1.38661,1.40149 -3.27776,2.35519 -4.34496,4.0129 -4.43161,6.88372 -4.04681,7.56184 -4.73119,13.7139 -0.60447,0.19028 -1.22582,0.80817 -1.81342,0.57086 -1.29731,-0.52392 -13.6341,-8.84071 -13.73123,-8.90799 -15.19645,-10.52593 -29.35417,-22.3333 -43.38571,-34.35668 -17.46228,-15.79189 -19.99418,-17.49446 -36.45876,-34.82084 -21.66661,-22.80071 -41.25975,-47.49331 -62.68251,-70.51855 -13.88694,-15.2951 -27.73503,-30.58118 -41.20158,-46.24927 -4.3197,-5.02589 -8.79228,-9.92617 -12.9253,-15.10667 -6.41048,-8.03518 -13.4442,-18.4603 -19.36411,-27.01023 -6.38713,-8.92622 -12.81633,-17.78815 -18.81701,-26.98007 -1.06487,-1.63118 -4.40386,-6.58571 -5.37229,-8.80271 -0.1766,-0.4043 -0.0798,-0.87876 -0.11978,-1.31814 -1.98712,-1.48195 18.97077,-29.58413 20.9579,-28.102183 z"
     inkscape:connector-curvature="0" /></svg>