<?xml version="1.0" encoding="UTF-8" standalone="no"?>
<!-- Generator: Adobe Illustrator 17.0.0, SVG Export Plug-In . SVG Version: 6.00 Build 0)  -->

<svg
   xmlns:dc="http://purl.org/dc/elements/1.1/"
   xmlns:cc="http://creativecommons.org/ns#"
   xmlns:rdf="http://www.w3.org/1999/02/22-rdf-syntax-ns#"
   xmlns:svg="http://www.w3.org/2000/svg"
   xmlns="http://www.w3.org/2000/svg"
   xmlns:sodipodi="http://sodipodi.sourceforge.net/DTD/sodipodi-0.dtd"
   xmlns:inkscape="http://www.inkscape.org/namespaces/inkscape"
   version="1.1"
   id="Capa_1"
   x="0px"
   y="0px"
   width="64px"
   height="64px"
   viewBox="0 0 64 64"
   style="enable-background:new 0 0 64 64;"
   xml:space="preserve"
   inkscape:version="0.48.4 r9939"
   sodipodi:docname="film27.svg"><metadata
     id="metadata15"><rdf:RDF><cc:Work
         rdf:about=""><dc:format>image/svg+xml</dc:format><dc:type
           rdf:resource="http://purl.org/dc/dcmitype/StillImage" /></cc:Work></rdf:RDF></metadata><defs
     id="defs13" /><sodipodi:namedview
     pagecolor="#ffffff"
     bordercolor="#666666"
     borderopacity="1"
     objecttolerance="10"
     gridtolerance="10"
     guidetolerance="10"
     inkscape:pageopacity="0"
     inkscape:pageshadow="2"
     inkscape:window-width="904"
     inkscape:window-height="645"
     id="namedview11"
     showgrid="false"
     inkscape:zoom="3.6875"
     inkscape:cx="32"
     inkscape:cy="32"
     inkscape:window-x="0"
     inkscape:window-y="0"
     inkscape:window-maximized="0"
     inkscape:current-layer="Capa_1" /><g
     id="g3"
     transform="matrix(1.1329718,0,0,1.2261174,-4.2550969,-9.8476107)"
     style="stroke:#0000f0;stroke-opacity:1;fill:#4efcfc;fill-opacity:1"><path
       d="m 16.002,44.451 c 6.934,0 12.554,-5.62 12.554,-12.553 0,-6.933 -5.619,-12.554 -12.554,-12.554 -6.933,0 -12.554,5.621 -12.554,12.554 0,6.933 5.621,12.553 12.554,12.553 z m -5.974,-2.73 c -0.237,0 -0.432,-0.193 -0.432,-0.431 0,-0.239 0.194,-0.432 0.432,-0.432 0.239,0 0.433,0.193 0.433,0.432 0,0.238 -0.193,0.431 -0.433,0.431 z m -2.224,-5.396 6.542,-2.649 0.15,7.628 C 11.55,40.815 9.081,38.917 7.804,36.325 z m 7.917,-2.849 c -0.963,0 -1.741,-0.78 -1.741,-1.742 0,-0.963 0.778,-1.743 1.741,-1.743 0.962,0 1.743,0.779 1.743,1.743 0,0.962 -0.781,1.742 -1.743,1.742 z m 6.557,7.382 c -0.238,0 -0.431,-0.194 -0.431,-0.432 0,-0.239 0.192,-0.432 0.431,-0.432 0.239,0 0.433,0.193 0.433,0.432 0,0.238 -0.193,0.432 -0.433,0.432 z m -4.69,0.432 -0.154,-7.842 6.822,2.763 c -1.248,2.628 -3.714,4.561 -6.668,5.079 z m 8.299,-12.815 c 0.238,0 0.431,0.193 0.431,0.432 0,0.239 -0.192,0.433 -0.431,0.433 -0.239,0 -0.433,-0.194 -0.433,-0.433 0,-0.239 0.193,-0.432 0.433,-0.432 z m -0.75,3.821 c 0,0.31 -0.017,0.616 -0.046,0.918 l -7.053,-2.856 4.023,-4.896 c 1.886,1.674 3.076,4.114 3.076,6.834 z M 15.45,20.786 c 0.238,0 0.432,0.193 0.432,0.432 0,0.239 -0.193,0.432 -0.432,0.432 -0.237,0 -0.432,-0.194 -0.432,-0.432 0,-0.238 0.195,-0.432 0.432,-0.432 z m 0.552,2.375 c 1.205,0 2.353,0.236 3.405,0.66 l -3.983,4.85 -3.932,-4.316 c 1.332,-0.758 2.869,-1.194 4.51,-1.194 z m -10.586,6.61 c -0.238,0 -0.432,-0.193 -0.432,-0.433 0,-0.238 0.193,-0.432 0.432,-0.432 0.239,0 0.432,0.194 0.432,0.432 0,0.239 -0.193,0.433 -0.432,0.433 z m 1.452,2.525 c 0,-2.287 0.843,-4.375 2.231,-5.979 l 4.09,4.491 -6.259,2.536 C 6.89,33 6.868,32.65 6.868,32.296 z"
       id="path5"
       inkscape:connector-curvature="0"
       style="stroke:#0000f0;stroke-opacity:1;fill:#4efcfc;fill-opacity:1" /><path
       d="M 60.552,23.601 C 60.552,16.073 54.45,9.97 46.921,9.97 c -7.526,0 -13.63,6.103 -13.63,13.631 0,6.475 4.52,11.884 10.572,13.273 l -0.829,2.728 H 39.74 v -2.644 c 0,-0.38 -0.31,-0.689 -0.69,-0.689 h -9.77 c -0.381,0 -0.689,0.309 -0.689,0.689 v 2.644 h -1.315 c -1.376,1.966 -3.263,3.549 -5.466,4.555 v 0.47 l 4.506,-2.343 h 12.197 v 16.169 h -4.06 V 57.1 L 21.81,52.594 c 0,0 0,1.466 0,3.274 0,1.808 1.791,3.274 4,3.274 h 18.666 c 2.209,0 4,-1.791 4,-4 v -15.54 h -1.555 v -2.371 c 7.529,0 13.631,-6.103 13.631,-13.63 z M 38.361,39.602 H 29.97 v -1.955 h 8.392 v 1.955 z M 53.737,33.33 c -0.259,0 -0.469,-0.211 -0.469,-0.469 0,-0.26 0.21,-0.47 0.469,-0.47 0.26,0 0.469,0.21 0.469,0.47 0,0.258 -0.209,0.469 -0.469,0.469 z m -5.093,0.469 -0.169,-8.515 7.408,3 c -1.355,2.853 -4.032,4.953 -7.239,5.515 z m 9.01,-13.916 c 0.26,0 0.469,0.21 0.469,0.469 0,0.259 -0.209,0.469 -0.469,0.469 -0.26,0 -0.47,-0.21 -0.47,-0.469 0.001,-0.259 0.21,-0.469 0.47,-0.469 z m -0.814,4.15 c 0,0.336 -0.018,0.669 -0.05,0.998 L 49.132,21.93 53.5,16.615 c 2.048,1.815 3.34,4.465 3.34,7.418 z M 46.323,11.535 c 0.258,0 0.469,0.21 0.469,0.469 0,0.259 -0.211,0.469 -0.469,0.469 -0.259,0 -0.469,-0.21 -0.469,-0.469 0,-0.259 0.211,-0.469 0.469,-0.469 z m 0.598,2.579 c 1.309,0 2.558,0.256 3.699,0.717 l -4.325,5.266 -4.271,-4.687 c 1.447,-0.823 3.118,-1.296 4.897,-1.296 z M 35.428,21.29 c -0.259,0 -0.469,-0.21 -0.469,-0.469 0,-0.259 0.21,-0.469 0.469,-0.469 0.26,0 0.47,0.21 0.47,0.469 -0.001,0.26 -0.21,0.469 -0.47,0.469 z m 1.576,2.743 c 0,-2.483 0.915,-4.751 2.424,-6.491 l 4.439,4.876 -6.795,2.753 c -0.044,-0.373 -0.068,-0.753 -0.068,-1.138 z m 3.431,10.234 c -0.259,0 -0.469,-0.21 -0.469,-0.468 0,-0.259 0.21,-0.469 0.469,-0.469 0.26,0 0.469,0.21 0.469,0.469 0,0.258 -0.209,0.468 -0.469,0.468 z m -2.414,-5.859 7.102,-2.876 0.164,8.282 c -3.2,-0.531 -5.88,-2.592 -7.266,-5.406 z m 8.595,-3.093 c -1.045,0 -1.892,-0.847 -1.892,-1.892 0,-1.046 0.847,-1.892 1.892,-1.892 1.045,0 1.893,0.846 1.893,1.892 0,1.044 -0.848,1.892 -1.893,1.892 z"
       id="path7"
       inkscape:connector-curvature="0"
       style="stroke:#0000f0;stroke-opacity:1;fill:#4efcfc;fill-opacity:1" /><polygon
       points="20.735,51.403 35.143,56.538 35.143,57.687 37.824,57.687 37.824,42.897 26.483,42.897 20.735,45.886 "
       id="polygon9"
       style="stroke:#0000f0;stroke-opacity:1;fill:#4efcfc;fill-opacity:1" /></g></svg>