<?xml version="1.0" encoding="UTF-8" standalone="no"?>
<!-- Generator: Adobe Illustrator 16.0.4, SVG Export Plug-In . SVG Version: 6.00 Build 0)  -->

<svg
   xmlns:dc="http://purl.org/dc/elements/1.1/"
   xmlns:cc="http://creativecommons.org/ns#"
   xmlns:rdf="http://www.w3.org/1999/02/22-rdf-syntax-ns#"
   xmlns:svg="http://www.w3.org/2000/svg"
   xmlns="http://www.w3.org/2000/svg"
   xmlns:sodipodi="http://sodipodi.sourceforge.net/DTD/sodipodi-0.dtd"
   xmlns:inkscape="http://www.inkscape.org/namespaces/inkscape"
   version="1.1"
   id="Capa_1"
   x="0px"
   y="0px"
   width="52px"
   height="52px"
   viewBox="0 0 52 52"
   enable-background="new 0 0 52 52"
   xml:space="preserve"
   inkscape:version="0.48.4 r9939"
   sodipodi:docname="fit2.svg"><metadata
     id="metadata3954"><rdf:RDF><cc:Work
         rdf:about=""><dc:format>image/svg+xml</dc:format><dc:type
           rdf:resource="http://purl.org/dc/dcmitype/StillImage" /><dc:title /></cc:Work></rdf:RDF></metadata><defs
     id="defs3952" /><sodipodi:namedview
     pagecolor="#ffffff"
     bordercolor="#666666"
     borderopacity="1"
     objecttolerance="10"
     gridtolerance="10"
     guidetolerance="10"
     inkscape:pageopacity="0"
     inkscape:pageshadow="2"
     inkscape:window-width="804"
     inkscape:window-height="654"
     id="namedview3950"
     showgrid="false"
     inkscape:zoom="4.5384615"
     inkscape:cx="26"
     inkscape:cy="26"
     inkscape:window-x="132"
     inkscape:window-y="253"
     inkscape:window-maximized="0"
     inkscape:current-layer="Capa_1" /><path
     d="M19.567,15.192c0.904,0.823,0.946,1.497,0.318,2.334c-0.09,0.119-0.193,0.242-0.31,0.369  c-0.181,0.197-0.35,0.381-0.509,0.554c-2.389,2.587-2.546,2.452-5.351-0.409c-0.972-0.99-1.9-2.023-3.02-3.26  c-0.742-0.818-1.933-0.8-2.647,0.042c-0.808,0.952-1.546,1.815-2.358,2.601c-0.066,0.063-0.142,0.128-0.226,0.193  c-0.589,0.451-1.552,0.882-1.814,0.68c-0.59-0.453-1.033-1.445-1.055-2.229c-0.104-3.652,0-7.311-0.063-10.964  c-0.004-0.221,0.002-0.427,0.02-0.619C2.677,3.14,3.365,2.491,4.987,2.517C8.724,2.576,12.464,2.488,16.2,2.578  c0.723,0.018,1.802,0.393,2.046,0.916c0.115,0.245,0.053,0.636-0.099,1.031c-0.151,0.394-0.391,0.793-0.632,1.056  c-0.767,0.837-1.625,1.592-2.642,2.484c-0.232,0.204-0.394,0.448-0.498,0.707c-0.268,0.666-0.119,1.446,0.459,1.992  C16.532,12.368,18.036,13.795,19.567,15.192z M34.018,19.47c1.084,1.03,1.855,1.135,2.883,0.008  c1.352-1.483,2.752-2.921,4.345-4.569c0.192-0.199,0.412-0.347,0.646-0.444c0.234-0.098,0.482-0.144,0.729-0.141  c0.493,0.007,0.983,0.216,1.353,0.627c0.875,0.976,1.66,1.847,2.512,2.649c0.414,0.389,1.273,0.803,1.719,0.749  c0.064-0.008,0.119-0.025,0.163-0.053c0.558-0.355,1.028-1.281,1.047-1.979c0.099-3.82,0.028-7.645,0.058-11.467  c0.012-1.527-0.591-2.33-2.201-2.318l0,0l0,0c-0.006,0-0.011,0-0.016,0c-3.855,0.026-7.714-0.027-11.568,0.051  c-0.045,0.001-0.088,0-0.133,0.001c-0.64,0.013-1.722,0.479-1.797,0.884c-0.121,0.65,0.25,1.588,0.73,2.113  c0.574,0.628,1.209,1.22,1.875,1.824c0.224,0.203,0.438,0.403,0.672,0.612c0.076,0.068,0.138,0.144,0.199,0.219  c0.022,0.026,0.051,0.05,0.07,0.077c0.145,0.195,0.24,0.411,0.297,0.633c0.004,0.018,0.012,0.034,0.017,0.052  c0.016,0.071,0.018,0.143,0.024,0.215c0.006,0.051,0.018,0.101,0.018,0.152c0,0.036-0.008,0.072-0.01,0.109  c-0.004,0.087-0.008,0.173-0.024,0.259c-0.001,0.003-0.002,0.005-0.003,0.008c-0.023,0.118-0.061,0.235-0.107,0.349  c-0.01,0.021-0.024,0.039-0.033,0.06c-0.045,0.094-0.092,0.188-0.154,0.276c-0.044,0.062-0.102,0.118-0.153,0.176  c-0.038,0.042-0.067,0.088-0.11,0.127c-0.08,0.074-0.148,0.139-0.226,0.212c-1.067,1.003-2.038,1.916-2.978,2.844  c-1.449,1.432-2.16,2.139-2.133,2.846C31.753,17.337,32.518,18.042,34.018,19.47z M14.331,42.045  c1.282-1.303,2.57-2.599,3.863-3.891c2.789-2.789,2.727-2.724-0.059-5.526c-0.635-0.638-1.167-0.929-1.68-0.904  c-0.514,0.023-1.009,0.365-1.572,0.99c-1.284,1.428-2.632,2.799-4.165,4.373c-0.771,0.791-1.991,0.771-2.722-0.058  c-0.879-0.995-1.664-1.879-2.52-2.688c-0.348-0.33-0.974-0.627-1.473-0.674c-0.167-0.016-0.319-0.003-0.443,0.045  c-0.491,0.194-0.949,1.141-0.961,1.768c-0.085,3.986-0.137,7.979,0.047,11.959c0.033,0.697,1.212,1.885,1.905,1.916  c1.99,0.094,3.983,0.127,5.978,0.127c1.994-0.002,3.989-0.035,5.982-0.078c0.626-0.014,1.567-0.471,1.769-0.965  c0.197-0.485-0.185-1.445-0.621-1.906c-0.744-0.788-1.546-1.521-2.327-2.219c-0.824-0.735-1.38-1.543-1.254-1.807  C14.211,42.228,14.255,42.121,14.331,42.045z M49.454,38.066c-0.013-0.906-0.024-1.812-0.041-2.718  c-0.003-0.196-0.06-0.436-0.144-0.668c-0.16-0.44-0.432-0.859-0.699-0.934c-0.573-0.158-1.502,0.088-1.948,0.51  c-0.892,0.844-1.709,1.764-2.601,2.776c-0.729,0.829-1.945,0.847-2.705,0.046c-1.103-1.162-2.075-2.189-3.069-3.197  c-0.181-0.183-0.351-0.354-0.511-0.515c-2.391-2.401-2.516-2.173-5.192,0.58c-0.793,0.815-0.981,1.446-0.675,2.093  c0.148,0.312,0.402,0.63,0.779,0.973c1.492,1.355,2.932,2.767,4.637,4.42c0.793,0.77,0.748,1.961-0.11,2.656  c-0.612,0.496-1.177,0.969-1.721,1.442c-0.345,0.3-0.687,0.599-1.011,0.91c-0.465,0.45-0.969,1.497-0.756,1.862  c0.332,0.563,1.254,1.074,1.94,1.092c1.951,0.052,3.904,0.087,5.856,0.088c1.953,0.001,3.904-0.034,5.853-0.124  c0.06-0.003,0.127-0.023,0.192-0.04c0.035-0.01,0.066-0.01,0.102-0.021c0.729-0.244,1.692-1.168,1.719-1.746  C49.498,44.397,49.495,41.231,49.454,38.066z"
     id="path3948"
     style="fill:#2902ff;fill-opacity:1;stroke:#c50000;stroke-opacity:1" /><rect
     style="fill:#f302ff;fill-opacity:0.01851854;stroke:#005d00;stroke-width:1.22397614000000021;stroke-miterlimit:4;stroke-opacity:1;stroke-dasharray:none;stroke-dashoffset:0"
     id="rect3956"
     width="49.672634"
     height="49.892971"
     x="1.3840202"
     y="1.3840226" /></svg>