<?xml version="1.0" encoding="UTF-8" standalone="no"?>
<!-- Generator: Adobe Illustrator 16.0.0, SVG Export Plug-In . SVG Version: 6.00 Build 0)  -->

<svg
   xmlns:dc="http://purl.org/dc/elements/1.1/"
   xmlns:cc="http://creativecommons.org/ns#"
   xmlns:rdf="http://www.w3.org/1999/02/22-rdf-syntax-ns#"
   xmlns:svg="http://www.w3.org/2000/svg"
   xmlns="http://www.w3.org/2000/svg"
   xmlns:sodipodi="http://sodipodi.sourceforge.net/DTD/sodipodi-0.dtd"
   xmlns:inkscape="http://www.inkscape.org/namespaces/inkscape"
   version="1.1"
   id="Layer_1"
   x="0px"
   y="0px"
   width="100px"
   height="100px"
   viewBox="0 0 100 100"
   enable-background="new 0 0 100 100"
   xml:space="preserve"
   inkscape:version="0.48.4 r9939"
   sodipodi:docname="floppy16B.svg"><metadata
     id="metadata9"><rdf:RDF><cc:Work
         rdf:about=""><dc:format>image/svg+xml</dc:format><dc:type
           rdf:resource="http://purl.org/dc/dcmitype/StillImage" /><dc:title /></cc:Work></rdf:RDF></metadata><defs
     id="defs7" /><sodipodi:namedview
     pagecolor="#ffffff"
     bordercolor="#666666"
     borderopacity="1"
     objecttolerance="10"
     gridtolerance="10"
     guidetolerance="10"
     inkscape:pageopacity="0"
     inkscape:pageshadow="2"
     inkscape:window-width="640"
     inkscape:window-height="480"
     id="namedview5"
     showgrid="false"
     inkscape:zoom="2.36"
     inkscape:cx="50"
     inkscape:cy="50"
     inkscape:window-x="224"
     inkscape:window-y="187"
     inkscape:window-maximized="0"
     inkscape:current-layer="Layer_1" /><path
     d="M 69.742315,92.587593 80.744511,80.185075 v 9.317697 c 0,1.702821 -1.226115,3.084821 -2.736864,3.084821 H 69.742315 z M 13.806274,86.03235 h 27.036118 l -1.852857,6.555243 H 3.6566106 c -1.5121178,0 -2.73686484,-1.382 -2.73686484,-3.084821 V 5.6974805 c 0,-1.7028203 1.22474704,-3.0848195 2.73686484,-3.0848195 H 78.009016 c 1.510749,0 2.736864,1.3819992 2.736864,3.0848195 V 33.496332 l -0.511793,0.576862 -0.0014,-0.0016 L 67.860694,48.01811 V 47.600126 H 13.807641 V 86.03235 z M 16.198293,33.204817 H 65.461859 V 7.2414327 H 16.198293 V 33.204817 z m 35.352082,-3.5969 h 6.844899 v -18.51046 h -6.844899 v 18.51046 z M 62.52794,54.027348 H 18.764105 v 3.08482 h 41.026971 l 2.736864,-3.08482 z M 52.950281,64.824216 H 18.764105 v 3.08482 h 31.449312 l 2.736864,-3.08482 z M 18.764105,78.320302 h 24.2582 l 0.307897,-1.084314 c 0.04242,-0.141901 0.08484,-0.271464 0.124527,-0.393314 0.161476,-0.558353 0.387267,-1.092026 0.654111,-1.607191 H 18.765472 v 3.084819 z M 99.244349,44.192944 90.7847,34.656224 c -1.245274,-1.400508 -3.449818,-1.19691 -4.918146,0.458096 l -4.655407,5.247278 12.971371,14.620502 4.655407,-5.247278 c 1.469695,-1.653463 1.648965,-4.139828 0.406424,-5.541878 z M 79.049024,42.798605 92.020394,57.419107 61.088349,92.28528 c -0.142317,0.160411 -0.535057,0.604625 -1.087903,0.76195 -0.06432,0.03393 -0.128633,0.06324 -0.194318,0.08792 l -16.144766,5.796376 c -0.451582,0.161953 -0.905902,0.05861 -1.200115,-0.274549 -0.294212,-0.33316 -0.387266,-0.84524 -0.244949,-1.354235 l 5.145306,-18.194266 c 0.02326,-0.07558 0.04653,-0.148071 0.078,-0.21748 0.140948,-0.624676 0.533688,-1.067347 0.677374,-1.229301 L 79.049024,42.798605 z M 57.098,91.162406 49.111829,82.160902 46.971601,89.740304 50.373524,93.576277 57.098,91.162406 z m 21.451546,-42.552 c -0.461161,-0.518251 -1.20422,-0.518251 -1.662645,0 L 52.773754,75.789207 c -0.459794,0.518251 -0.459794,1.357321 0,1.874029 0.459793,0.518249 1.202852,0.518249 1.662646,0 L 78.549546,50.484433 c 0.459793,-0.51825 0.459793,-1.357321 0,-1.874027 z"
     id="path3"
     inkscape:connector-curvature="0"
     style="fill:#fc0226;fill-opacity:1" /></svg>