<?xml version="1.0" encoding="UTF-8" standalone="no"?>
<!-- Generator: Adobe Illustrator 16.0.0, SVG Export Plug-In . SVG Version: 6.00 Build 0)  -->

<svg
   xmlns:dc="http://purl.org/dc/elements/1.1/"
   xmlns:cc="http://creativecommons.org/ns#"
   xmlns:rdf="http://www.w3.org/1999/02/22-rdf-syntax-ns#"
   xmlns:svg="http://www.w3.org/2000/svg"
   xmlns="http://www.w3.org/2000/svg"
   xmlns:sodipodi="http://sodipodi.sourceforge.net/DTD/sodipodi-0.dtd"
   xmlns:inkscape="http://www.inkscape.org/namespaces/inkscape"
   version="1.1"
   id="Layer_3"
   x="0px"
   y="0px"
   width="100px"
   height="100px"
   viewBox="0 0 100 100"
   enable-background="new 0 0 100 100"
   xml:space="preserve"
   inkscape:version="0.48.4 r9939"
   sodipodi:docname="arrowheads3.svg"><metadata
     id="metadata9"><rdf:RDF><cc:Work
         rdf:about=""><dc:format>image/svg+xml</dc:format><dc:type
           rdf:resource="http://purl.org/dc/dcmitype/StillImage" /><dc:title></dc:title></cc:Work></rdf:RDF></metadata><defs
     id="defs7" /><sodipodi:namedview
     pagecolor="#ffffff"
     bordercolor="#666666"
     borderopacity="1"
     objecttolerance="10"
     gridtolerance="10"
     guidetolerance="10"
     inkscape:pageopacity="0"
     inkscape:pageshadow="2"
     inkscape:window-width="968"
     inkscape:window-height="708"
     id="namedview5"
     showgrid="false"
     inkscape:zoom="2.36"
     inkscape:cx="50"
     inkscape:cy="50"
     inkscape:window-x="0"
     inkscape:window-y="0"
     inkscape:window-maximized="0"
     inkscape:current-layer="Layer_3" /><path
     d="m 26.029565,75.423555 c 1.244722,1.816937 1.244722,4.764453 0,6.581392 -1.244722,1.817826 -3.263355,1.817826 -4.508687,0 L 1.9444059,53.429804 C 1.3223497,52.520889 1.011322,51.330666 1.011322,50.139553 c 0,-1.191112 0.3116381,-2.382227 0.9330839,-3.290251 L 21.520878,18.274159 c 1.245332,-1.817827 3.263965,-1.817827 4.508687,0 1.244722,1.816937 1.244722,4.763563 0,6.58139 L 8.7083515,50.139553 26.029565,75.423555 z M 28.553772,50.139553 45.874985,24.855549 c 1.244722,-1.817827 1.244722,-4.764453 0,-6.58139 -1.244722,-1.817827 -3.263356,-1.817827 -4.508687,0 L 21.789826,46.849302 c -0.622056,0.908915 -0.933085,2.099139 -0.933085,3.290251 0,1.191113 0.311638,2.382225 0.933085,3.290251 l 19.576472,28.575143 c 1.245331,1.817826 3.263965,1.817826 4.508687,0 1.244722,-1.816939 1.244722,-4.764455 0,-6.581392 L 28.553772,50.139553 z"
     id="path3"
     inkscape:connector-curvature="0"
     style="fill:#0000ee;fill-opacity:1" /><path
     id="path2986"
     d="m 71.426816,75.568181 c -1.244722,1.816938 -1.244722,4.764452 0,6.58139 1.244722,1.817828 3.263355,1.817828 4.508687,0 L 95.511974,53.574427 c 0.622054,-0.908913 0.933081,-2.099135 0.933081,-3.29025 0,-1.191113 -0.311637,-2.382225 -0.933081,-3.290248 L 75.935503,18.418785 c -1.245332,-1.817828 -3.263965,-1.817828 -4.508687,0 -1.244722,1.816936 -1.244722,4.763561 0,6.58139 L 88.748028,50.284177 71.426816,75.568181 z M 68.90261,50.284177 51.581394,25.000175 c -1.244722,-1.817829 -1.244722,-4.764454 0,-6.58139 1.244722,-1.817828 3.263357,-1.817828 4.508689,0 l 19.576472,28.575144 c 0.622056,0.908911 0.933084,2.099135 0.933084,3.290248 0,1.191115 -0.311638,2.382228 -0.933084,3.29025 L 56.090083,82.149571 c -1.245332,1.817828 -3.263967,1.817828 -4.508689,0 -1.244722,-1.816938 -1.244722,-4.764452 0,-6.58139 L 68.90261,50.284177 z"
     inkscape:connector-curvature="0"
     style="fill:#0000ee;fill-opacity:1" /></svg>