<?xml version="1.0" encoding="UTF-8" standalone="no"?>
<!-- Generator: Adobe Illustrator 16.0.0, SVG Export Plug-In . SVG Version: 6.00 Build 0)  -->

<svg
   xmlns:dc="http://purl.org/dc/elements/1.1/"
   xmlns:cc="http://creativecommons.org/ns#"
   xmlns:rdf="http://www.w3.org/1999/02/22-rdf-syntax-ns#"
   xmlns:svg="http://www.w3.org/2000/svg"
   xmlns="http://www.w3.org/2000/svg"
   xmlns:sodipodi="http://sodipodi.sourceforge.net/DTD/sodipodi-0.dtd"
   xmlns:inkscape="http://www.inkscape.org/namespaces/inkscape"
   version="1.1"
   id="Layer_6"
   x="0px"
   y="0px"
   width="100px"
   height="100px"
   viewBox="0 0 100 100"
   enable-background="new 0 0 100 100"
   xml:space="preserve"
   inkscape:version="0.91 r13725"
   sodipodi:docname="getchannels.svg"><metadata
     id="metadata9"><rdf:RDF><cc:Work
         rdf:about=""><dc:format>image/svg+xml</dc:format><dc:type
           rdf:resource="http://purl.org/dc/dcmitype/StillImage" /><dc:title></dc:title></cc:Work></rdf:RDF></metadata><defs
     id="defs7" /><sodipodi:namedview
     pagecolor="#ffffff"
     bordercolor="#666666"
     borderopacity="1"
     objecttolerance="10"
     gridtolerance="10"
     guidetolerance="10"
     inkscape:pageopacity="0"
     inkscape:pageshadow="2"
     inkscape:window-width="1498"
     inkscape:window-height="1057"
     id="namedview5"
     showgrid="false"
     inkscape:zoom="4.0959404"
     inkscape:cx="69.287744"
     inkscape:cy="61.77786"
     inkscape:window-x="1972"
     inkscape:window-y="54"
     inkscape:window-maximized="0"
     inkscape:current-layer="Layer_6" /><g
     id="g3172"
     transform="matrix(-1.7599593,0,0,-1.7424756,46.006741,52.607658)"
     style="fill:#6a0000;fill-opacity:1;stroke:#8c2b00;stroke-opacity:1"><path
       id="path3128"
       d="M 11.705,15.953 C 6.211,15.953 1.607,14.339 0.35,12.163 0.129,12.546 0,12.944 0,13.357 l 0,3.561 c 0,2.751 5.242,4.983 11.705,4.983 6.467,0 11.711,-2.232 11.711,-4.983 l 0,-3.561 c 0,-0.413 -0.131,-0.811 -0.354,-1.194 -1.257,2.175 -5.857,3.79 -11.357,3.79 z"
       inkscape:connector-curvature="0"
       style="fill:#6a0000;fill-opacity:1;stroke:#8c2b00;stroke-opacity:1" /><path
       id="path3130"
       d="M 11.705,23.309 C 6.211,23.309 1.607,21.693 0.35,19.521 0.129,19.902 0,20.3 0,20.712 l 0,3.564 c 0,2.752 5.242,4.983 11.705,4.983 6.467,0 11.711,-2.23 11.711,-4.983 l 0,-3.564 c 0,-0.412 -0.131,-0.81 -0.354,-1.19 -1.257,2.171 -5.857,3.787 -11.357,3.787 z"
       inkscape:connector-curvature="0"
       style="fill:#6a0000;fill-opacity:1;stroke:#8c2b00;stroke-opacity:1" /><path
       id="path3132"
       d="M 23.096,5.041 C 22.866,7.057 17.864,8.67 11.705,8.67 5.549,8.67 0.547,7.057 0.318,5.042 0.117,5.408 0,5.79 0,6.183 l 0,3.561 c 0,2.752 5.242,4.983 11.705,4.983 6.467,0 11.711,-2.23 11.711,-4.983 l 0,-3.561 c 0,-0.393 -0.119,-0.775 -0.32,-1.142 z"
       inkscape:connector-curvature="0"
       style="fill:#6a0000;fill-opacity:1;stroke:#8c2b00;stroke-opacity:1" /><path
       id="path3134"
       d="m 11.705,7.54 c 6.303,0 11.41,-1.687 11.41,-3.771 0,-2.082 -5.107,-3.77 -11.41,-3.77 C 5.406,0 0.297,1.688 0.297,3.77 c 0,2.083 5.109,3.77 11.408,3.77 z"
       inkscape:connector-curvature="0"
       style="fill:#6a0000;fill-opacity:1;stroke:#8c2b00;stroke-opacity:1" /><g
       id="g3136"
       style="fill:#6a0000;fill-opacity:1;stroke:#8c2b00;stroke-opacity:1" /><g
       id="g3138"
       style="fill:#6a0000;fill-opacity:1;stroke:#8c2b00;stroke-opacity:1" /><g
       id="g3140"
       style="fill:#6a0000;fill-opacity:1;stroke:#8c2b00;stroke-opacity:1" /><g
       id="g3142"
       style="fill:#6a0000;fill-opacity:1;stroke:#8c2b00;stroke-opacity:1" /><g
       id="g3144"
       style="fill:#6a0000;fill-opacity:1;stroke:#8c2b00;stroke-opacity:1" /><g
       id="g3146"
       style="fill:#6a0000;fill-opacity:1;stroke:#8c2b00;stroke-opacity:1" /><g
       id="g3148"
       style="fill:#6a0000;fill-opacity:1;stroke:#8c2b00;stroke-opacity:1" /><g
       id="g3150"
       style="fill:#6a0000;fill-opacity:1;stroke:#8c2b00;stroke-opacity:1" /><g
       id="g3152"
       style="fill:#6a0000;fill-opacity:1;stroke:#8c2b00;stroke-opacity:1" /><g
       id="g3154"
       style="fill:#6a0000;fill-opacity:1;stroke:#8c2b00;stroke-opacity:1" /><g
       id="g3156"
       style="fill:#6a0000;fill-opacity:1;stroke:#8c2b00;stroke-opacity:1" /><g
       id="g3158"
       style="fill:#6a0000;fill-opacity:1;stroke:#8c2b00;stroke-opacity:1" /><g
       id="g3160"
       style="fill:#6a0000;fill-opacity:1;stroke:#8c2b00;stroke-opacity:1" /><g
       id="g3162"
       style="fill:#6a0000;fill-opacity:1;stroke:#8c2b00;stroke-opacity:1" /><g
       id="g3164"
       style="fill:#6a0000;fill-opacity:1;stroke:#8c2b00;stroke-opacity:1" /></g><path
     id="path4067"
     d="m 38.751241,29.646367 5.862733,0 0.818131,-0.338408 c 0.639199,-0.263958 1.311812,-0.398192 1.998438,-0.398192 0.936702,0 1.847532,0.266214 2.650573,0.7366 l 9.324969,0 0,9.462991 -8.432463,0 -2.117008,2.882102 10.549471,0 0,9.990908 -17.887859,0 -2.117006,2.880973 20.005943,0 0,10.807597 -20.655922,0 0,-9.922099 -2.754051,3.748424 0,6.173675 -4.534752,0 -0.92161,1.25549 c -0.519552,0.700503 -1.165217,1.248723 -1.888493,1.626611 l 7.344855,0 0,10.567327 -21.189486,0 0,-10.567327 9.012377,0 c -0.734055,-0.379016 -1.386188,-0.928364 -1.89496,-1.616459 l -0.929155,-1.265642 -6.188262,0 0,-8.42521 -2.754051,-3.748424 0,38.191505 c 0,1.853343 1.441161,3.361512 3.212161,3.361512 l 79.559201,0 c 1.772079,0 3.212162,-1.509297 3.212162,-3.361512 l 0,-73.652065 c 0,-1.138176 -0.546499,-2.142117 -1.376487,-2.75125 l 0,-0.530172 -1.152282,0 c -0.220971,-0.04963 -0.448409,-0.08009 -0.683393,-0.08009 l -57.534336,0 0,17.998749 1.459485,-0.603492 0,-2.424123 z m -2.754051,62.52298 -20.730298,0 c -0.25223,0 -0.459188,-0.215453 -0.459188,-0.480538 l 0,-9.687469 21.189486,0 0,10.168007 z m 23.409973,0 -20.655922,0 0,-10.168007 20.655922,0 0,10.168007 z m 0,-13.048981 -20.655922,0 0,-10.567327 20.655922,0 0,10.567327 z m 25.932275,-61.481814 9.723795,0 c 0.129349,0.08347 0.22097,0.22786 0.22097,0.399321 l 0,8.726392 -9.944765,0 0,-9.125713 z m 0,12.007815 9.944765,0 0,9.462991 -9.944765,0 0,-9.462991 z m 0,12.343964 9.944765,0 0,9.990909 -9.944765,0 0,-9.990909 z m 0,12.87301 9.944765,0 0,10.807597 -9.944765,0 0,-10.807597 z m 0,13.689698 9.944765,0 0,10.567327 -9.944765,0 0,-10.567327 z m -23.178224,-50.914487 20.425251,0 0,9.125713 -20.425251,0 0,-9.125713 z m 0,12.007815 20.425251,0 0,9.462991 -20.425251,0 0,-9.462991 z m 0,12.343964 20.425251,0 0,9.990909 -20.425251,0 0,-9.990909 z m 0,12.87301 20.425251,0 0,10.807597 -20.425251,0 0,-10.807597 z m 0,13.689698 20.425251,0 0,10.567327 -20.425251,0 0,-10.567327 z m 0,13.449429 20.425251,0 0,10.168007 -20.425251,0 0,-10.168007 z m -23.409973,-64.363916 20.655922,0 0,9.125713 -20.655922,0 0,-9.125713 z M 3.9100693,36.290427 c 0,-0.250421 0.07546,-0.498587 0.226361,-0.708399 0.302892,-0.421881 0.842922,-0.580932 1.311812,-0.385785 l 14.0375767,5.802556 0,-34.0099207 c 0,-0.650869 0.503382,-1.176529 1.126412,-1.176529 l 11.249033,0 c 0.620874,0 1.125333,0.526787 1.125333,1.177657 l 0,34.0099207 14.036498,-5.803684 c 0.472123,-0.195147 1.008921,-0.03609 1.31289,0.385785 0.30397,0.423009 0.302892,1.006198 -0.0075,1.426951 L 27.129253,65.868342 c -0.214502,0.288773 -0.544342,0.459105 -0.893584,0.459105 -0.348164,0 -0.679081,-0.170332 -0.892506,-0.459105 L 4.1439753,37.008979 C 3.9887573,36.79691 3.9100693,36.543104 3.9100693,36.290427 Z"
     inkscape:connector-curvature="0" /><rect
     style="fill:#fefdfe;fill-opacity:0.99691354;stroke:#de4465;stroke-width:0;stroke-miterlimit:4;stroke-dasharray:none;stroke-opacity:0.11764706"
     id="rect4153"
     width="10.742344"
     height="10.498199"
     x="-95.704521"
     y="-92.675674"
     transform="scale(-1,-1)" /><polygon
     style="fill:#03c9ff;fill-opacity:1;stroke-width:0.06022898;stroke-miterlimit:4;stroke-dasharray:none"
     id="polygon4556"
     points="28.522,30.982 31.655,29.02 28.522,27.056 28.522,28.384 2.598,28.384 2.598,3.133 3.926,3.133 1.963,0 0,3.133 1.328,3.133 1.328,29.652 28.522,29.652 "
     transform="matrix(1.4704722,0,0,1.8747015,45.891775,22.242851)" /><path
     style="fill:#f200ff;fill-opacity:1;stroke-width:0.1;stroke-miterlimit:4;stroke-dasharray:none"
     id="path4558"
     d="m 54.431031,49.931759 c 0.87788,0 1.59106,-0.886733 1.62488,-1.996557 l 6.69653,-1.685356 c 0.26027,0.708637 0.82199,1.207307 1.47488,1.207307 0.9014,0 1.63369,-0.935476 1.63369,-2.084668 0,-0.391812 -0.0912,-0.75363 -0.23968,-1.066705 l 5.56279,-7.245721 c 0.26175,0.226839 0.57643,0.358068 0.91611,0.358068 0.10734,0 0.21028,-0.01687 0.31027,-0.03937 l 2.66743,7.686276 c -0.38967,0.37869 -0.64553,0.974845 -0.64553,1.645988 0,1.151067 0.73082,2.082794 1.63369,2.082794 0.56172,0 1.0558,-0.361818 1.3499,-0.91298 l 6.77152,3.492569 c -0.004,0.06561 -0.0162,0.129354 -0.0162,0.194969 0,1.151066 0.73377,2.084668 1.6337,2.084668 0.9014,0 1.63369,-0.933602 1.63369,-2.084668 0,-0.541789 -0.16763,-1.029211 -0.43379,-1.400402 l 3.83205,-8.177448 c 0.17793,0.08436 0.36615,0.134978 0.56614,0.134978 0.9014,0 1.63222,-0.931726 1.63222,-2.079044 0,-1.149192 -0.73229,-2.080918 -1.63222,-2.080918 -0.89993,0 -1.6337,0.931726 -1.6337,2.080918 0,0.459302 0.12058,0.88111 0.31762,1.22418 l -3.88204,8.286181 c -0.12793,-0.04499 -0.26028,-0.07311 -0.3985,-0.07311 -0.51467,0 -0.96904,0.3112 -1.26755,0.787374 l -6.84063,-3.531937 c 0,0 0.001,-0.0225 0.001,-0.03187 0,-1.151067 -0.72936,-2.079044 -1.63223,-2.079044 -0.0382,0 -0.0735,0.0094 -0.11175,0.01312 l -2.71597,-7.81938 c 0.30439,-0.376815 0.49261,-0.903606 0.49261,-1.488513 0,-1.147318 -0.73082,-2.080919 -1.63222,-2.080919 -0.9014,0 -1.63223,0.933601 -1.63223,2.080919 0,0.27933 0.0441,0.549287 0.12205,0.794873 l -5.65837,7.371327 c -0.21469,-0.12748 -0.45144,-0.211842 -0.70583,-0.211842 -0.82052,0 -1.494,0.776127 -1.6087,1.784716 l -6.79358,1.711603 c -0.28527,-0.605529 -0.79994,-1.017963 -1.39548,-1.017963 -0.9014,0 -1.63369,0.933601 -1.63369,2.082793 0.003,1.152941 0.73523,2.082793 1.63663,2.082793 z"
     inkscape:connector-curvature="0" /><path
     style="fill:#566036;fill-opacity:1;stroke:#00d100;stroke-width:0.1;stroke-miterlimit:4;stroke-dasharray:none;stroke-opacity:1"
     id="path4560"
     d="m 88.551641,67.351919 c 0.9014,0 1.6337,-0.931727 1.6337,-2.080919 0,-1.151067 -0.7323,-2.082794 -1.6337,-2.082794 -0.44408,0 -0.84552,0.226839 -1.13961,0.594281 l -3.25269,-2.815802 c 0.0868,-0.254959 0.13529,-0.532415 0.13529,-0.826743 0,-1.151067 -0.7323,-2.080919 -1.63223,-2.080919 -0.9014,0 -1.63369,0.929852 -1.63369,2.080919 0,0.266207 0.0426,0.517417 0.11469,0.746131 l -4.37318,4.632387 c -0.22792,-0.1556 -0.48232,-0.24746 -0.75582,-0.24746 -0.32057,0 -0.61466,0.119981 -0.86611,0.320574 l -4.44818,-5.502249 c 0.11323,-0.277456 0.18234,-0.596155 0.18234,-0.931727 0,-1.149192 -0.73083,-2.082793 -1.63223,-2.082793 -0.90139,0 -1.63369,0.933601 -1.63369,2.082793 0,0.153726 0.0162,0.307451 0.0426,0.453678 l -7.71115,8.777353 c -0.24704,-0.19122 -0.53525,-0.305577 -0.84699,-0.305577 -0.31616,0 -0.61025,0.118106 -0.8617,0.318699 l -3.74235,-5.614731 c 0.21469,-0.352444 0.34703,-0.789249 0.34703,-1.271047 0,-1.149192 -0.7323,-2.080919 -1.6337,-2.080919 -0.9014,0 -1.63369,0.931727 -1.63369,2.080919 0,1.149192 0.73229,2.080918 1.63369,2.080918 0.18381,0 0.35733,-0.04687 0.52202,-0.118106 l 3.88205,5.824698 c -0.0912,0.262458 -0.14852,0.551162 -0.14852,0.858613 0,1.147318 0.7323,2.079044 1.63222,2.079044 0.90287,0 1.63223,-0.931726 1.63223,-2.079044 0,-0.320574 -0.0603,-0.620526 -0.16175,-0.892358 l 7.55822,-8.606754 c 0.2941,0.352443 0.68524,0.573658 1.11903,0.573658 0.29557,0 0.56908,-0.110607 0.80876,-0.284954 l 4.47318,5.535993 c -0.0941,0.266208 -0.14999,0.553037 -0.14999,0.862363 0,1.149192 0.73083,2.080919 1.63223,2.080919 0.9014,0 1.63222,-0.931727 1.63222,-2.080919 0,-0.359943 -0.0779,-0.699264 -0.20734,-0.997341 l 4.27614,-4.52553 c 0.26909,0.243711 0.5926,0.393687 0.94845,0.393687 0.32939,0 0.63524,-0.127479 0.89111,-0.34307 l 3.40414,2.948906 c -0.0235,0.142477 -0.0368,0.286829 -0.0368,0.440554 10e-4,1.151067 0.73229,2.084669 1.63369,2.084669 z"
     inkscape:connector-curvature="0" /></svg>