<?xml version="1.0" encoding="utf-8"?>

<!DOCTYPE svg PUBLIC "-//W3C//DTD SVG 1.1//EN" "http://www.w3.org/Graphics/SVG/1.1/DTD/svg11.dtd">
<svg version="1.1" id="Layer_1" xmlns="http://www.w3.org/2000/svg" xmlns:xlink="http://www.w3.org/1999/xlink" x="0px" y="0px"
	 viewBox="0 0 2619.05 1260.413" enable-background="new 0 0 2619.05 1260.413" xml:space="preserve">
<path d="M2589.525,741.768c0,528.78,0.55,484.58-1.19,494.23c-5.82-1.16-8.18-7.26-11.8-11.24c-4.81-6.64-12.5-10.03-19.5-13.82
	c-75.74-39.65-114.18-85.98-398.12-299.28c-17.55-13.81-36.35-26.65-50.36-44.29c-29.07-35.6-34.05-48.99-90.51-41.95
	c-90.79,12.32-95.34,16.7-180.35-5.72c-76.14-20.27-107.25-19.72-177.61-3.8c-65.03,15.44-173.02,50.31-220.72,81.7
	c-53.8,36.82-95.78,100.69-111.25,106.45c-13.71,1.64-20.9-15.21-34.43-14.6c-10.88,0.88-17.41,12.12-28.24,13.15
	c-13.29,1.02-40.34-35.05-79.21-62.15c-37.61-27.67-250.59-103.4-339.76-113.15c-59.38-6.53-116.76,23.09-163.82,42.94
	c-74.66,31.25-88.01,5.26-135.78,3.9c-36.88-0.95-55.02,21.68-92.06,62.92c-74.44,84.45-98.91,108.75-226.53,166.86
	c-54.12,24.53-100.59,42.32-121.96,55.33c-32.2,20.54-56.43,55.67-76.8,56.09v-392.49c220.77-138.67,278.87-199.55,315.8-235.28
	c139.71-137.21,310.54-327.01,368.2-371.81c70.42-55.43,134.06-82.11,187.96-122.75c23.87-17.37,46.52-36.4,70.97-52.99
	c24.66-17.45,58.6-20.48,86.07-8c16.55,8.15,30.29,20.87,46.49,29.64c42.71,23.28,101.05,49.28,116.56,67.38
	c14.51,16.57,19.27,41.91,34.67,45.76c10.56,2.45,30.66-14.09,48.92-28.72c98.65-80.07,55.73-45.35,101.96-75.35
	c86.3-53.74,95.64-45.47,224.68,32c142.98,88.42,64.3,9.06,392.89,248.56c514.13,375.96,271.25,223.89,497.59,349.09
	C2545.195,713.368,2567.075,728.048,2589.525,741.768z M1645.835,609.458c22.8-45.59,53.03-103.74,34.64-151.32
	c-27.91-78.55-154.49-123.45-240.28-137.1c-66.24-9.53-70.67,7.76-112.72,62.01c-6.83,9.12-16.02,16.09-22.84,25.23
	c-19.35,22.73-29,38-55.35,21.01c-20.88-13.79-37.89-32.4-57.52-47.76c-14.55-11.15-33.57-12.12-49.85-19.49
	c-23.14-10.13-41.59-33.3-61.78-31.12c-18.38,1.85-25.2,15.4-56.89,4.64c-40.32-14.34-43.53,21.2-72.57,40.06
	c-13.99,9.79-33,11.26-44.46,24.8c-11.53,14.06-14.97,32.5-19.66,49.54c-6.11,10.1-12.88,20.45-14.5,32.41
	c-0.67,13.97,12.72,80.81,39.23,135.64c23.65,47.38,43.16,65.14,100.15,90.52c153.12,66.92,160.32,27.59,280.6,175.33
	c3.69-8.84,7.54-17.77,13.76-25.17c45.52-56.08,73.59-70.58,88.33-79.57C1581.535,667.058,1618.355,664.158,1645.835,609.458z"/>
<g id="America_Flag">
</g>
</svg>
