<?xml version="1.0" encoding="UTF-8" standalone="no"?>
<!-- Generator: Adobe Illustrator 16.0.4, SVG Export Plug-In . SVG Version: 6.00 Build 0)  -->

<svg
   xmlns:dc="http://purl.org/dc/elements/1.1/"
   xmlns:cc="http://creativecommons.org/ns#"
   xmlns:rdf="http://www.w3.org/1999/02/22-rdf-syntax-ns#"
   xmlns:svg="http://www.w3.org/2000/svg"
   xmlns="http://www.w3.org/2000/svg"
   xmlns:sodipodi="http://sodipodi.sourceforge.net/DTD/sodipodi-0.dtd"
   xmlns:inkscape="http://www.inkscape.org/namespaces/inkscape"
   version="1.1"
   id="Layer_1"
   x="0px"
   y="0px"
   width="50px"
   height="50px"
   viewBox="0 0 50 50"
   enable-background="new 0 0 50 50"
   xml:space="preserve"
   inkscape:version="0.48.4 r9939"
   sodipodi:docname="help14.svg"><metadata
     id="metadata3927"><rdf:RDF><cc:Work
         rdf:about=""><dc:format>image/svg+xml</dc:format><dc:type
           rdf:resource="http://purl.org/dc/dcmitype/StillImage" /></cc:Work></rdf:RDF></metadata><defs
     id="defs3925" /><sodipodi:namedview
     pagecolor="#ffffff"
     bordercolor="#666666"
     borderopacity="1"
     objecttolerance="10"
     gridtolerance="10"
     guidetolerance="10"
     inkscape:pageopacity="0"
     inkscape:pageshadow="2"
     inkscape:window-width="928"
     inkscape:window-height="826"
     id="namedview3923"
     showgrid="false"
     inkscape:zoom="4.72"
     inkscape:cx="25"
     inkscape:cy="25"
     inkscape:window-x="0"
     inkscape:window-y="0"
     inkscape:window-maximized="0"
     inkscape:current-layer="Layer_1" /><path
     d="m 46.159823,31.096148 c -0.346798,-0.39302 -0.976938,-0.859918 -2.002573,-0.859918 -0.02214,0 -0.04722,0.0073 -0.06936,0.0073 0.706878,-2.092176 1.125986,-4.318807 1.125986,-6.651819 0,-11.526174 -9.332553,-20.8700442 -20.844769,-20.8700442 -11.512215,0 -20.844768,9.3438702 -20.844768,20.8700442 0,11.526174 9.331078,20.871521 20.843293,20.871521 3.366154,0 6.540461,-0.809683 9.353214,-2.228108 0.04575,0.101946 0.100344,0.227539 0.135767,0.307326 l 0.153477,2.708303 c 0.04427,0.780133 0.690645,1.391829 1.47426,1.391829 h 7.917323 c 0.814606,0 1.475736,-0.661931 1.475736,-1.477525 v -3.092405 c 0.314331,-1.090413 1.738416,-6.088881 1.98634,-8.144119 0.07968,-0.669319 0.09592,-1.928171 -0.703926,-2.832417 z M 24.068057,10.140409 c 1.648397,0 2.849646,1.236688 2.849646,2.814686 0,1.576518 -1.199773,2.739331 -2.88654,2.739331 -1.725134,0 -2.849645,-1.162813 -2.849645,-2.739331 0,-1.577998 1.124511,-2.814686 2.886539,-2.814686 z m 4.759249,26.902779 h -8.919348 v -2.851624 l 1.235191,-0.113772 c 0.675886,-0.07387 1.087617,-0.299938 1.087617,-1.199751 V 22.445238 c 0,-0.824459 -0.225787,-1.08598 -0.938568,-1.08598 l -1.310453,-0.07831 v -3.113146 h 6.708694 v 15.760762 l 2.135391,0.113772 0.0014,3.000854 0,0 z m 16.569561,-3.291927 c -0.262681,2.170486 -1.998147,8.111614 -1.998147,8.111614 v 3.300792 h -7.917321 l -0.16971,-2.980169 c 0,0 -2.460052,-5.43286 -2.64452,-7.694951 -0.128388,-1.579474 1.82401,-1.876457 1.82401,-1.876457 0,0 -0.101831,-8.011142 0.494372,-10.435761 0.07083,-0.289595 0.624236,-0.432915 1.182065,-0.432915 0.560779,0 1.125986,0.144797 1.210103,0.432915 0.638993,2.180827 0.700974,9.541858 0.700974,9.541858 0.298099,-0.29846 0.646373,-0.40041 0.984316,-0.40041 0.785091,0 1.531814,0.554073 1.531814,0.554073 0.355652,-0.332444 0.695072,-0.450646 0.997597,-0.450646 0.754101,0 1.283891,0.729898 1.283891,0.729898 0,0 0.568158,-0.330965 0.737868,-0.369381 0.203651,-0.0458 0.380739,-0.06649 0.541594,-0.06649 1.345872,0 1.307503,1.483436 1.241094,2.03603 z"
     id="path3921"
     inkscape:connector-curvature="0"
     style="fill:#00eb00;fill-opacity:1;stroke:#2d6500;stroke-opacity:1" /></svg>