<?xml version="1.0" encoding="UTF-8" standalone="no"?>
<!-- Generator: Adobe Illustrator 17.1.0, SVG Export Plug-In . SVG Version: 6.00 Build 0)  -->

<svg
   xmlns:dc="http://purl.org/dc/elements/1.1/"
   xmlns:cc="http://creativecommons.org/ns#"
   xmlns:rdf="http://www.w3.org/1999/02/22-rdf-syntax-ns#"
   xmlns:svg="http://www.w3.org/2000/svg"
   xmlns="http://www.w3.org/2000/svg"
   xmlns:sodipodi="http://sodipodi.sourceforge.net/DTD/sodipodi-0.dtd"
   xmlns:inkscape="http://www.inkscape.org/namespaces/inkscape"
   version="1.1"
   id="Capa_1"
   x="0px"
   y="0px"
   viewBox="0 0 200 200"
   style="enable-background:new 0 0 200 200;"
   xml:space="preserve"
   inkscape:version="0.48.4 r9939"
   width="100%"
   height="100%"
   sodipodi:docname="help13.svg"><metadata
     id="metadata3987"><rdf:RDF><cc:Work
         rdf:about=""><dc:format>image/svg+xml</dc:format><dc:type
           rdf:resource="http://purl.org/dc/dcmitype/StillImage" /></cc:Work></rdf:RDF></metadata><defs
     id="defs3985" /><sodipodi:namedview
     pagecolor="#ffffff"
     bordercolor="#666666"
     borderopacity="1"
     objecttolerance="10"
     gridtolerance="10"
     guidetolerance="10"
     inkscape:pageopacity="0"
     inkscape:pageshadow="2"
     inkscape:window-width="640"
     inkscape:window-height="480"
     id="namedview3983"
     showgrid="false"
     inkscape:zoom="1.18"
     inkscape:cx="100"
     inkscape:cy="100"
     inkscape:window-x="0"
     inkscape:window-y="0"
     inkscape:window-maximized="0"
     inkscape:current-layer="Capa_1" /><g
     id="g3979"
     style="stroke:#2d6800;stroke-opacity:1;fill:#71eb00;fill-opacity:1"><path
       d="M9,191h182V9H9V191z M107.254,162.551H91.45v-15.805h15.805V162.551z M102.025,23.948   c23.176,0,38.926,14.625,38.926,38.026c0,17.326-9.9,27.901-22.276,38.476c-9.225,8.1-11.7,9.9-11.7,22.951v3.15H91.45v-3.825   c0-16.2,1.35-19.575,14.175-30.601c9.45-8.1,19.576-15.976,19.576-29.701c0-13.951-8.1-24.301-22.726-24.301   c-18,0-25.876,15.525-28.576,31.051l-14.851-3.825C63.774,41.273,75.474,23.948,102.025,23.948z"
       id="path3981"
       style="stroke:#2d6800;stroke-opacity:1;fill:#71eb00;fill-opacity:1" /></g></svg>