<?xml version="1.0" encoding="UTF-8" standalone="no"?>
<!-- Generator: Adobe Illustrator 16.0.4, SVG Export Plug-In . SVG Version: 6.00 Build 0)  -->

<svg
   xmlns:dc="http://purl.org/dc/elements/1.1/"
   xmlns:cc="http://creativecommons.org/ns#"
   xmlns:rdf="http://www.w3.org/1999/02/22-rdf-syntax-ns#"
   xmlns:svg="http://www.w3.org/2000/svg"
   xmlns="http://www.w3.org/2000/svg"
   xmlns:sodipodi="http://sodipodi.sourceforge.net/DTD/sodipodi-0.dtd"
   xmlns:inkscape="http://www.inkscape.org/namespaces/inkscape"
   version="1.1"
   id="Capa_1"
   x="0px"
   y="0px"
   width="216px"
   height="146px"
   viewBox="0 0 216 146"
   enable-background="new 0 0 216 146"
   xml:space="preserve"
   inkscape:version="0.92.2 5c3e80d, 2017-08-06"
   sodipodi:docname="histolocal.svg"><metadata
     id="metadata4671"><rdf:RDF><cc:Work
         rdf:about=""><dc:format>image/svg+xml</dc:format><dc:type
           rdf:resource="http://purl.org/dc/dcmitype/StillImage" /><dc:title></dc:title></cc:Work></rdf:RDF></metadata><defs
     id="defs4669"><clipPath
       id="_clipPath_GNh0RdoNQ6qTEq5U1h9SgHSlllkPXMnq"><rect
         id="rect3802"
         height="2500"
         width="2500" /></clipPath></defs><sodipodi:namedview
     pagecolor="#ffffff"
     bordercolor="#666666"
     borderopacity="1"
     objecttolerance="10"
     gridtolerance="10"
     guidetolerance="10"
     inkscape:pageopacity="0"
     inkscape:pageshadow="2"
     inkscape:window-width="1135"
     inkscape:window-height="877"
     id="namedview4667"
     showgrid="false"
     inkscape:zoom="0.94316065"
     inkscape:cx="-45.208258"
     inkscape:cy="73"
     inkscape:window-x="2173"
     inkscape:window-y="146"
     inkscape:window-maximized="0"
     inkscape:current-layer="Capa_1" /><g
     style="isolation:isolate;fill:#de9a00;fill-opacity:0.21301778"
     id="g3826"
     transform="matrix(0.08415279,0,0,0.07263964,6.3814164,-19.095805)"><g
       id="g3812"
       clip-path="url(#_clipPath_GNh0RdoNQ6qTEq5U1h9SgHSlllkPXMnq)"
       style="fill:#de9a00;fill-opacity:0.21301778"><g
         id="Group"
         style="fill:#de9a00;fill-opacity:0.21301778"><path
           id="path3807"
           d="M 2205.8,547.4 H 1151.9 L 917.7,313.2 H 332.2 C 203.39,313.2 98,418.59 98,547.4 v 468.4 H 2440 V 781.6 c 0,-128.81 -105.39,-234.2 -234.2,-234.2 z"
           inkscape:connector-curvature="0"
           style="fill:#de9a00;fill-opacity:0.21301778" /><path
           id="path3809"
           d="M 2205.8,547.4 H 332.2 C 203.39,547.4 98,652.79 98,781.6 v 1171 c 0,128.81 105.39,234.2 234.2,234.2 h 1873.6 c 128.81,0 234.2,-105.39 234.2,-234.2 v -1171 c 0,-128.81 -105.39,-234.2 -234.2,-234.2 z"
           inkscape:connector-curvature="0"
           style="fill:#de9a00;fill-opacity:0.21301778" /></g></g></g><g
     id="g3"
     transform="matrix(1.2186739,0,0,0.48224022,29.67506,61.417878)"><path
       d="m 134.61,127.02 c 0,7.232 -12.466,5.139 -16.893,5.139 H 82.866 11.781 c -5.097,0 -10.618,0.285 -10.618,-6.57 V 101.817 23.733 6.129 c 0,-7.045 9.389,-5.41 13.955,-5.41 h 74.194 32.241 c 4.684,0 13.056,-1.449 13.056,5.615 v 57.424 c -0.01,21.089 -0.01,42.179 -0.01,63.259"
       style="fill:#ffffff"
       id="path5"
       inkscape:connector-curvature="0" /><path
       d="m 130.48,123.2 c 0,6.988 -13.082,4.815 -17.279,4.815 H 77.105 11.654 c -6.842,0 -6.36,-5.552 -6.36,-10.638 V 86.054 13.499 c 0,-5.085 -0.481,-8.649 6.36,-8.649 h 24.996 76.551 c 4.212,0 17.279,-2.18 17.279,4.83 1.279,4.997 0,10 0,15.11 v 77.441 20.97"
       style="fill:#efefef"
       id="path7"
       inkscape:connector-curvature="0" /><linearGradient
       x1="-241.06"
       x2="-239.05"
       gradientTransform="matrix(716.96,0,0,-716.96,172320,331150)"
       y1="461.79001"
       gradientUnits="userSpaceOnUse"
       y2="461.79001"
       id="XMLID_5_"><stop
         offset="0"
         style="stop-color:#FFFFFF"
         id="stop10" /><stop
         offset="1"
         style="stop-color:#000000"
         id="stop12" /></linearGradient><path
       d="m 6.306,131.44 c -6.462,0 -4.418,-12.318 -4.418,-16.169 V 80.419 11.335 c 0,-4.707 -0.489,-9.894 5.851,-9.894 h 23.772 78.084 19.608 c 6.326,0 4.688,7.18 4.688,11.228 v 74.197 32.239 c 0,4.199 1.485,12.334 -4.896,12.334 H 69.568 c -21.092,0.01 -42.18,0.01 -63.267,0.01 M 129.461,0.009 H 9.161 c -5.879,0 -8.724,2.845 -8.724,8.729 v 24.601 77.502 c 0,5.027 -1.004,11.235 0,16.192 0,7.838 11.65,5.86 16.595,5.86 h 75.417 30.768 c 5.145,0 12.108,0.799 12.108,-6.599 V 65.449 20.059 c -0.01,-5.154 2.8,-20.045 -5.87,-20.045"
       style="fill:url(#XMLID_5_)"
       id="path14"
       inkscape:connector-curvature="0" /><path
       d="M 126.1,119.07 H 11.94 c 0.313,0 -1.301,-104.16 0.665,-104.16 h 113.37 c 0.25,0 0.12,94.24 0.12,104.16"
       style="fill:#cccccc"
       id="path16"
       inkscape:connector-curvature="0" /><path
       d="m 122.28,115.58 c -10.662,0 -106.65,0.601 -106.65,-0.597 V 49.747 20.727 c 0,-4.267 5.165,-2.314 8.85,-2.314 8.901,0 97.801,-0.61 97.801,0.597 v 96.573"
       style="fill:#ffffff"
       id="path18"
       inkscape:connector-curvature="0" /><path
       d="M 122.28,115.58 H 67.028 29.427 c -1.033,0 -18.417,1.31 -14.304,-3.082 1.612,-1.723 14.496,0 16.744,0 h 38.509 37.601 c 3.07,-0.01 16.22,-2.49 14.3,3.08"
       style="fill:#ffb600"
       id="path20"
       inkscape:connector-curvature="0" /><path
       d="M 122.28,112.49 H 65.354 28.264 17.773 c -3.277,0 -2.649,0.027 -2.649,-3.606 0,-1.622 -1.178,-8.396 0.841,-8.396 h 9.046 35.35 61.611 c 0.67,0.01 0.31,10.55 0.31,12.01"
       style="fill:#ffce00"
       id="path22"
       inkscape:connector-curvature="0" /><path
       d="m 57.639,66.046 c -1.837,0 -0.879,31.479 -0.879,34.43 0,1.781 -1.332,9.417 1.575,9.417 3.195,0 15.243,1.962 17.485,0 1.837,0 0.879,-31.478 0.879,-34.428 0,-1.779 1.332,-9.419 -1.575,-9.419 -5.828,-0.007 -11.657,-0.007 -17.485,-0.007 m 17.303,1.755 v 30.019 10.315 H 58.517 V 78.11 67.794 c 5.475,-0.005 10.951,-0.005 16.425,-0.005"
       style="fill:#ff9900"
       id="path24"
       inkscape:connector-curvature="0" /><path
       d="M 75.083,108.78 H 59.191 c -1.763,0 -0.813,-6.945 -0.813,-8.443 V 79.946 c 0,-1.751 -1.313,-11.555 0,-12.785 1.867,-1.749 13.125,0 15.892,0 1.763,0 0.813,6.945 0.813,8.444 v 33.172"
       style="fill:#fede58"
       id="path26"
       inkscape:connector-curvature="0" /><path
       d="M 75.083,76.499 H 60.116 c -2.609,0 -3.212,-8.078 -1.737,-9.34 1.959,-1.675 12.261,0 14.967,0 3.449,0 1.737,6.446 1.737,9.34"
       style="fill:#ffff3e"
       id="path28"
       inkscape:connector-curvature="0" /><path
       d="m 42.148,109 c -2.925,0.005 -16.502,1.92 -18.197,0.031 -1.7,-1.897 -0.023,-13.075 -0.027,-15.525 -0.027,-14.783 -0.053,-29.567 -0.081,-44.353 2.925,-0.002 16.47,-1.903 18.166,-0.014 1.7,1.896 0.031,13.072 0.035,15.519 0.036,14.784 0.071,29.564 0.104,44.343"
       style="fill:#d82a2a"
       id="path30"
       inkscape:connector-curvature="0" /><path
       d="m 42.072,58.784 c -5.216,0.008 -10.432,0.018 -15.648,0.025 -4.656,0.008 -2.565,-5.684 -2.577,-9.654 5.208,-0.008 10.416,-0.014 15.624,-0.021 4.647,-0.008 2.577,5.684 2.601,9.65"
       style="fill:#f74b4b"
       id="path32"
       inkscape:connector-curvature="0" /><path
       d="m 42.009,48.514 c -3.573,0.002 -16.102,-2.115 -18.612,0.198 -1.904,1.755 -0.159,13.604 -0.155,15.969 0.008,3.52 -0.606,44.981 0.708,44.981 1.121,1.026 17.547,0.87 18.639,-0.288 1.979,-2.102 0.154,-13.355 0.148,-16.002 -0.006,-3.508 0.589,-44.854 -0.728,-44.854 M 24.472,49.16 m 16.913,0.612 c 0.038,19.536 0.081,39.071 0.135,58.605 -3.864,0.007 -16.939,2.293 -16.947,-1.997 C 24.553,97.121 24.534,87.86 24.516,78.601 24.5,71.223 24.487,63.845 24.471,56.466 c -0.01,-4.86 -1.403,-6.676 3.648,-6.682 4.423,0.002 8.844,-0.006 13.266,-0.006"
       style="fill:#b20d0d"
       id="path34"
       inkscape:connector-curvature="0" /><path
       d="m 110.86,111.26 c -2.929,0 -18.191,1.391 -18.191,-1.113 V 85.792 50.59 c 0,-2.901 -1.979,-15.685 0,-17.974 1.315,-1.52 18.191,-0.401 18.191,1.115 v 24.354 53.172"
       style="fill:#9cd305"
       id="path36"
       inkscape:connector-curvature="0" /><path
       d="M 110.86,43.801 H 95.216 c -2.704,0 -2.548,0.354 -2.548,-2.416 0,-1.325 -0.911,-7.904 0,-8.771 1.789,-1.698 13.039,0 15.645,0 4.84,0 2.55,7.12 2.55,11.187"
       style="fill:#c2ef20"
       id="path38"
       inkscape:connector-curvature="0" /><path
       d="m 110.86,31.986 c -2.974,0 -18.819,-1.374 -18.819,1.101 v 25.751 c 0,3.863 -0.18,53.047 0.175,53.047 2.995,0 19.272,1.364 19.272,-1.104 V 85.032 48.411 c -0.01,-2.793 1.49,-15.113 -0.63,-16.424 m -0.63,1.256 v 49.643 25.116 c 0,2.579 0.437,2.629 -2.326,2.629 H 93.293 V 60.989 35.872 c 0,-2.581 -0.436,-2.629 2.324,-2.629 h 14.615"
       style="fill:#76aa04"
       id="path40"
       inkscape:connector-curvature="0" /><linearGradient
       x1="-238.85001"
       x2="-236.85001"
       gradientTransform="matrix(0,58,58,0,-25346,13958)"
       y1="437.20999"
       gradientUnits="userSpaceOnUse"
       y2="437.20999"
       id="XMLID_6_"><stop
         offset="0"
         style="stop-color:#EFEFEF"
         id="stop43" /><stop
         offset="1"
         style="stop-color:#000000"
         id="stop45" /></linearGradient><path
       d="m 11.806,115.85 c -0.65,0.852 -0.65,1.705 0,2.559 0,-0.85 -0.057,-1.71 0,-2.56"
       style="fill:url(#XMLID_6_)"
       id="path47"
       inkscape:connector-curvature="0" /><linearGradient
       x1="-238.88"
       x2="-236.59"
       gradientTransform="matrix(0,58,58,0,-25346,13958)"
       y1="438.20001"
       gradientUnits="userSpaceOnUse"
       y2="438.20001"
       id="XMLID_7_"><stop
         offset="0"
         style="stop-color:#CCCCCC"
         id="stop50" /><stop
         offset="1"
         style="stop-color:#000000"
         id="stop52" /></linearGradient><path
       d="m 124.14,115.18 c -4.47,1.041 -10.97,0.397 -16.091,0.397 H 70.625 c -18.072,0 -37.527,-2.102 -55.499,0 -1.545,0.18 -3.315,-1.061 -3.315,2.171 0,1.175 1.032,1.327 2.005,1.327 h 8.154 34.244 66.342 c 2.62,-0.01 5.43,-3.9 1.58,-3.9"
       style="fill:url(#XMLID_7_)"
       id="path54"
       inkscape:connector-curvature="0" /><linearGradient
       x1="-239.11"
       x2="-234.11"
       gradientTransform="matrix(0,58,58,0,-25346,13958)"
       y1="438.20001"
       gradientUnits="userSpaceOnUse"
       y2="438.20001"
       id="XMLID_8_"><stop
         offset="0"
         style="stop-color:#FFB600"
         id="stop57" /><stop
         offset="1"
         style="stop-color:#000000"
         id="stop59" /></linearGradient><path
       d="M 122.28,115.18 H 15.12 c 2.929,1.692 10.994,0.397 14.742,0.397 h 37.423 38.329 c 4.03,0 13.56,1.54 16.67,-0.4"
       style="fill:url(#XMLID_8_)"
       id="path61"
       inkscape:connector-curvature="0" /></g></svg>