<?xml version="1.0" encoding="UTF-8" standalone="no"?>
<svg
   xmlns:dc="http://purl.org/dc/elements/1.1/"
   xmlns:cc="http://creativecommons.org/ns#"
   xmlns:rdf="http://www.w3.org/1999/02/22-rdf-syntax-ns#"
   xmlns:svg="http://www.w3.org/2000/svg"
   xmlns="http://www.w3.org/2000/svg"
   xmlns:sodipodi="http://sodipodi.sourceforge.net/DTD/sodipodi-0.dtd"
   xmlns:inkscape="http://www.inkscape.org/namespaces/inkscape"
   id="Layer_1"
   version="1.1"
   viewBox="0 0 80 80"
   xml:space="preserve"
   inkscape:version="0.91 r13725"
   sodipodi:docname="if_hen-01_2140042.svg"><metadata
     id="metadata29"><rdf:RDF><cc:Work
         rdf:about=""><dc:format>image/svg+xml</dc:format><dc:type
           rdf:resource="http://purl.org/dc/dcmitype/StillImage" /></cc:Work></rdf:RDF></metadata><defs
     id="defs27" /><sodipodi:namedview
     pagecolor="#ffffff"
     bordercolor="#666666"
     borderopacity="1"
     objecttolerance="10"
     gridtolerance="10"
     guidetolerance="10"
     inkscape:pageopacity="0"
     inkscape:pageshadow="2"
     inkscape:window-width="1047"
     inkscape:window-height="664"
     id="namedview25"
     showgrid="false"
     inkscape:zoom="5.9"
     inkscape:cx="39.830508"
     inkscape:cy="40"
     inkscape:window-x="794"
     inkscape:window-y="322"
     inkscape:window-maximized="0"
     inkscape:current-layer="Layer_1" /><path
     style="fill:#808000"
     inkscape:connector-curvature="0"
     id="path7"
     d="m 42.722577,61.530508 c -0.182124,1.1 -2.731852,7.6 -4.188839,8.7 -1.456988,1.1 -10.56316,4.2 -10.56316,4.2 l 9.470419,-1.7 2.185481,3.1 1.274864,-3.4 7.467061,-1.8 -6.192197,-0.3 c 0,0 2.731852,-4.9 3.460346,-6.2 0.728493,-1.3 1.09274,-2.5 1.09274,-2.5 l -4.006715,-0.1 z" /><path
     style="fill:#808000;stroke-width:0.1;stroke-miterlimit:4;stroke-dasharray:none"
     inkscape:connector-curvature="0"
     id="path9"
     d="m 29.791812,57.930508 c 0,0 -3.096098,7.3 -3.824592,8.1 -0.728494,0.9 -11.10953,3.6 -11.10953,3.6 l 9.106172,-1.4 1.274864,3 2.367605,-3 7.467061,-1.3 -5.463703,-0.6 c 0,0 2.549728,-5.4 3.278222,-6.8 0.728494,-1.4 0.364247,-1.9 0.364247,-1.9 l -3.460346,0.3 z" /><path
     style="fill:#aa4400"
     inkscape:connector-curvature="0"
     id="path11"
     d="m 16.861048,25.630508 c 7.102814,-2.7 21.308443,-4.7 29.503997,-4.3 8.195555,0.4 22.583307,2.8 24.586665,4.6 2.003358,1.9 14.387752,16.1 0.728494,25.6 -8.195555,5.7 -18.607131,1.971186 -18.607131,1.971186 0,0 -0.333707,8.628814 -7.618645,8.628814 -6.556444,0 -0.902142,-6.820339 -0.902142,-6.820339 0,0 -8.325072,-0.03898 -15.671091,3.120339 1.793892,-2.942373 -6.010073,-2.5 -6.010073,-2.5 0,0 -16.2089864,-0.6 -19.6693318,-10.4 -3.82459224,-11 5.2815798,-16.7 13.6592578,-19.9 z"
     sodipodi:nodetypes="cscscsccccc" /><path
     style="fill:#762c07"
     inkscape:connector-curvature="0"
     id="path13"
     d="m 45.818675,22.130508 c -0.728494,-0.7 3.642469,-5.8 6.920691,-11.1 3.278222,-5.5999995 4.006716,-9.5999995 6.920691,-9.7999995 2.913975,-0.2 3.460345,1.5 3.460345,1.5 0,0 0.910617,-2.20000003 3.824592,-1.90000003 2.913975,0.30000003 2.367605,2.50000003 2.367605,2.50000003 0,0 1.092741,-1.1 3.460345,-0.3 2.367605,0.7 0.910617,3.2 0.910617,3.2 0,0 1.639111,-1.1 3.642469,-0.4 2.913975,0.9 3.096099,8.7999995 2.185482,13.6999995 -1.274865,7.2 -4.006716,12.3 -4.006716,12.3 0,0 -6.738567,-6.2 -14.205628,-7 -7.467061,-0.8 -13.841382,-0.9 -15.480493,-2.7 z" /><path
     style="fill:#762c07"
     inkscape:connector-curvature="0"
     id="path15"
     d="m 7.2085059,16.730508 c 1.0927406,-1 4.9173331,-3.4 9.6525421,-2.3 4.73521,1.1 8.377678,4.2 11.6559,7.7 3.278222,3.5 4.841542,1.840678 8.301887,3.340678 14.42493,-7.7951 8.45347,6.159322 8.45347,6.159322 l -11.6559,0.6 c 7.715661,-0.523887 2.389724,4.880226 3.584586,7.320339 L 24.87448,34.230508 c 1.571497,3.801762 -2.810785,7.726787 -3.748801,9.437288 L 15.768308,35.030508 12.877518,45.671186 8.1191231,34.830508 1.7448027,42.532203 c 0,0 2.1854813,-7.901695 3.4603453,-9.401695 6.37432,-7.7 -1.4569875,-13.5 2.0033579,-16.4 z"
     sodipodi:nodetypes="csscccccccccccc" /><path
     style="fill:#baa794"
     inkscape:connector-curvature="0"
     id="path17"
     d="m 2.8375433,18.130508 c -2.3676047,0.6 -3.2782219,4.9 -3.2782219,4.9 0,0 3.6424688,-1.4 6.192197,-1.8 2.7318516,-0.4 -0.9106172,-3.6 -2.9139751,-3.1 z" /><path
     style="fill:#cc291f"
     inkscape:connector-curvature="0"
     id="path19"
     d="M 8.5031462,17.924769 C 11.489313,18.956001 12.529293,14.917612 19.242193,12.161744 24.897158,9.717075 28.49214,9.2671929 29.466244,6.8974135 31.170927,2.7502981 25.114761,-1.370744 22.988903,2.292652 21.865091,4.2724613 20.61155,-0.21969168 17.194219,1.306354 14.291883,2.333703 14.553365,5.468447 13.645136,6.1696188 13.008377,6.964538 9.6010339,5.4495875 7.2695818,7.3506252 5.2095986,9.3454122 3.3452216,16.143554 8.5031462,17.924769 Z" /><path
     style="fill:#cc291f"
     inkscape:connector-curvature="0"
     id="path21"
     d="m 6.6621356,20.330508 c -2.3676048,0.4 -4.0067157,2.7 -0.9106172,3.7 3.4603453,1.2 5.4637036,-2.8 5.4637036,-2.8 0,0 6.192197,-2.1 5.463703,-3.2 -0.728494,-1.1 -8.9240488,-0.2 -8.9240488,-0.2 0,0 -3.2782219,-0.4 -4.9173329,0.3 -1.6391109,0.7 -1.6391109,1.1 -1.6391109,1.1 0,0 2.1854812,-0.3 4.0067156,0.2 1.8212344,0.5 1.4569876,0.9 1.4569876,0.9 z" /><path
     style="fill:#2d3134"
     inkscape:connector-curvature="0"
     id="path23"
     d="m 12.854333,18.030508 c 1.09274,-0.2 2.003357,0.9 0.54637,1.1 -1.274864,0.3 -2.003358,-0.8 -0.54637,-1.1 z" /><path
     style="fill:none;fill-rule:evenodd;stroke:#000000;stroke-width:1.18342149px;stroke-linecap:butt;stroke-linejoin:miter;stroke-opacity:1"
     d="m 28.736063,43.012385 c -0.03398,0.760933 0.99418,0.531709 1.434223,0.841549 0.125983,0.08871 0.113051,0.247913 0.239036,0.33662 0.125984,0.08871 0.33554,0.09304 0.478076,0.16831 0.270438,0.142815 0.435836,0.372896 0.71711,0.504929 0.148245,0.06959 0.32983,0.09873 0.478075,0.16831 0.473547,-0.0168 0.113051,0.247913 0.239038,0.33662 0.05634,0.03967 0.159357,0 0.239036,0 0.07968,0 0.16777,0.02509 0.239038,0 0.100781,-0.03548 0.138254,-0.203793 0.239036,-0.168311 0.15936,0.05611 0.140214,0.232239 0.239038,0.33662 0.06251,0.06602 0.188643,0.09735 0.239037,0.16831 0.03564,0.05018 -0.03564,0.11813 0,0.16831 0.05039,0.07096 0.188644,0.09735 0.239038,0.16831 0.112684,0.158684 0.145459,0.340204 0.239036,0.504929 0.06617,0.116478 0.182696,0.217607 0.239038,0.33662 0.0252,0.05323 -0.0252,0.115085 0,0.168309 0.05634,0.119014 0.182696,0.217608 0.239036,0.33662 0.0252,0.05323 -0.0252,0.115086 0,0.16831 0.05634,0.119013 0.182696,0.217606 0.239038,0.33662 0.0252,0.05323 -0.0252,0.115085 0,0.168309 0.05634,0.119013 0.195826,0.214915 0.239037,0.33662 0.03866,0.108856 -0.03864,0.227763 0,0.336619 0.04321,0.121706 0.182695,0.217607 0.239038,0.33662 0.0252,0.05323 0.07968,0.16831 0,0.16831 -0.07968,0 0,-0.112206 0,-0.16831 0,-0.112206 0,-0.224413 0,-0.33662 0,-0.112206 0,-0.224412 0,-0.336619 0,-0.05611 -0.0252,-0.115085 0,-0.16831 0.05634,-0.119013 0.182695,-0.217607 0.239038,-0.336619 0.05163,-0.109052 0,-0.703754 0,-0.84155 0,-0.224413 0,-0.448825 0,-0.673239 0,-0.112206 0,-0.224413 0,-0.336619 0,-0.05611 -0.0252,-0.115086 0,-0.16831 0.05634,-0.119013 0.204094,-0.213605 0.239036,-0.33662 0.04688,-0.165041 0,-0.33662 0,-0.504929 0,-0.112207 -0.05039,-0.230171 0,-0.336619 0.03564,-0.07527 0.203403,-0.09304 0.239038,-0.168311 0.03644,-0.07698 -0.05318,-0.598345 0,-0.673239 0.05039,-0.07096 0.188643,-0.09735 0.239036,-0.168309 0.07624,-0.107359 -0.0639,-0.796552 0,-0.841549 0.05634,-0.03967 0.19484,-0.04668 0.239038,0 0.139763,0.147617 0.145459,0.340204 0.239037,0.504929 0.07968,0.112207 0.159357,0.224413 0.239037,0.33662 0,0.112206 -0.05039,0.230171 0,0.33662 0.03564,0.07527 0.203404,0.09304 0.239037,0.168309 0.05039,0.106448 -0.03866,0.227764 0,0.336619 0.04321,0.121706 0.182696,0.217608 0.239038,0.33662 0.07171,0.151479 -0.07172,0.35345 0,0.50493 0.03564,0.07527 0.203403,0.09304 0.239036,0.168309 0.05039,0.106449 0,0.224413 0,0.33662 0,0.05611 -0.03564,0.118129 0,0.16831 0.05039,0.07096 0.176533,0.102293 0.239038,0.168309 0.09884,0.104382 0.132133,0.236259 0.239037,0.33662 0.135221,0.126947 0.318716,0.224413 0.478074,0.33662 0.07968,0.05611 0.188644,0.09735 0.239038,0.168309 0.03564,0.05018 -0.05634,0.128639 0,0.168311 0.05634,0.03967 0.159357,0 0.239036,0 0.07968,0 0.182696,0.03967 0.239038,0 0.0013,-8.95e-4 -0.002,-0.499304 0,-0.50493 0.04321,-0.121706 0.195826,-0.214914 0.239037,-0.33662 0.04701,-0.132395 0,-0.834829 0,-1.009858 0,-0.561033 0,-1.122066 0,-1.683098 0,-0.392724 0,-0.785446 0,-1.178169 0,-0.112206 0,-0.448827 0,-0.336619 0,0.364358 -0.07126,0.345504 0.239037,0.673239 0.06251,0.06602 0.203404,0.09304 0.239037,0.168309 0.07559,0.159673 -0.07559,0.345257 0,0.50493 0.04554,0.09618 0.641245,0.956439 0.717112,1.009858 0.125984,0.08871 0.32983,0.09873 0.478074,0.168311 0.09376,0.04401 0.159358,0.112206 0.239038,0.168309 0.159358,0.05611 0.32983,0.09873 0.478075,0.16831 0.09376,0.04401 0.145278,0.124298 0.239036,0.168309 0.148244,0.06959 0.30905,0.128639 0.478074,0.168311 0.07559,0.01774 0.182696,-0.03967 0.239038,0 0.05634,0.03967 -0.05634,0.20798 0,0.168309 0.125984,-0.08871 0.14737,-0.229046 0.239037,-0.33662 0.147808,-0.173456 0.371379,-0.317113 0.478074,-0.504928 0.05919,-0.104182 -0.03864,-0.227764 0,-0.33662 0.04321,-0.121705 0.182696,-0.217607 0.239038,-0.336619 0.0527,-0.111321 0,-0.844518 0,-1.00986 0,-0.05611 -0.0252,-0.115085 0,-0.168309 0.05634,-0.119014 0.182696,-0.217607 0.239036,-0.33662 0.031,-0.06549 -0.03709,-0.47881 0,-0.50493 0.05634,-0.03967 0.167771,0.02509 0.239038,0 0.256958,-0.09047 0.450373,-0.261493 0.717112,-0.336619 0.22194,-0.06251 0.478075,0 0.717111,0 0.133416,0 1.085764,-0.02568 1.195187,0 0.373002,0.08755 0.443376,0.752871 0.717111,1.009858 1.033905,0.72799 0.03746,-0.04459 0.717112,0.67324 0.291583,0.307962 0.304758,0.01679 0.478074,0.504929 0.03866,0.108857 -0.05039,0.230171 0,0.33662 0.03564,0.07527 0.176531,0.102294 0.239036,0.16831 0.09884,0.104381 0.15936,0.224412 0.239038,0.33662 0.07968,0.112206 0.182696,0.217606 0.239038,0.336619 0.0252,0.05323 -0.0252,0.115085 0,0.168309 -0.144075,0.304632 0.387226,0.313028 0.478075,0.50493 0.05039,0.106449 -0.05039,0.230171 0,0.33662 0.03564,0.07527 0.203403,0.09304 0.239036,0.168309 0.05039,0.106449 -0.05039,0.230172 0,0.33662 0.03564,0.07527 0.176533,0.102293 0.239038,0.16831 0.09884,0.104381 0.159358,0.224413 0.239036,0.336619 0.07968,0.112207 0.195826,0.214916 0.239038,0.33662 0.03866,0.108857 -0.05039,0.230171 0,0.33662 0.03564,0.07527 0.176531,0.102293 0.239037,0.16831 0.09884,0.104381 0.159359,0.224412 0.239038,0.336619 0.07968,0.112207 0.195824,0.214914 0.239036,0.33662 0.03866,0.108856 -0.05039,0.230171 0,0.336619 0.03564,0.07527 0.176532,0.102293 0.239038,0.16831 0.09884,0.104382 0.182695,0.217607 0.239036,0.336619 0.09892,0.208944 -0.196229,0.183382 0.239038,0.33662 0.912003,0.321078 0.495388,0.07387 1.434223,0.16831 0.325224,0.03271 0.634004,0.122944 0.956149,0.16831 0.07813,0.011 0.163447,-0.01775 0.239038,0 0.169024,0.03967 0.329828,0.09873 0.478074,0.16831 0.116069,0.05448 0.431961,0.336619 0.478074,0.336619 0.07968,0 0,-0.112206 0,-0.168309 0,-0.466743 0.03564,0.26867 -0.239038,-0.50493 -0.03866,-0.108857 0,-0.224413 0,-0.336619 0,-0.729343 0,-1.458686 0,-2.188028 0,-0.142835 -0.04393,-0.917073 0,-1.009859 0.03564,-0.07527 0.176533,-0.102293 0.239038,-0.16831 0.09884,-0.104381 0.182696,-0.217606 0.239037,-0.336619 0.0252,-0.05323 0,-0.112207 0,-0.16831 0,-0.364359 -0.07126,-0.345504 0.239038,-0.673239 0.364659,-0.385144 0.189214,0.105242 0.478074,-0.50493 0.0252,-0.05323 -0.03564,-0.118129 0,-0.168309 0.100781,-0.141931 0.377287,-0.194689 0.478074,-0.336619 0.03564,-0.05018 -0.07968,-0.168311 0,-0.168311 0.07968,0 0,0.112206 0,0.168311 0,0.380998 0.317056,0.501421 0.478075,0.841548 0.05039,0.106449 0,0.448827 0,0.336619 0,-0.168309 0,-0.336619 0,-0.504928 0,-0.05611 -0.0252,-0.115086 0,-0.168311 0.05634,-0.119012 0.195825,-0.214914 0.239036,-0.336619 0.03866,-0.108856 -0.03866,-0.227763 0,-0.33662 0.04321,-0.121704 0.195826,-0.214914 0.239038,-0.336619 0.03866,-0.108857 -0.05039,-0.230171 0,-0.33662 0.03564,-0.07527 0.159358,-0.112206 0.239036,-0.16831 0.07968,-0.112206 0.182696,-0.217606 0.239038,-0.33662 0.103884,-0.219449 0.117029,-0.458464 0.239038,-0.673239 0.04184,-0.07366 0.159358,-0.112206 0.239037,-0.168309 0.07968,-0.112207 0.182695,-0.217607 0.239037,-0.33662 0.103885,-0.219449 0.117029,-0.458464 0.239037,-0.673239 0.04184,-0.07366 0.171427,-0.104837 0.239038,-0.16831 0.172372,-0.161827 0.330266,-0.331473 0.478074,-0.504929 0.969001,-1.137149 -0.985112,0.867041 0.956149,-0.841549 0.111302,-0.09796 0.140214,-0.232238 0.239036,-0.33662 0.125011,-0.132033 0.353064,-0.204586 0.478075,-0.336619 0.07968,-0.112207 0.159359,-0.224413 0.239037,-0.33662 0,-0.05611 -0.03564,-0.118129 0,-0.16831 0.264262,-0.372142 0.148358,-0.05223 0.478075,-0.168309 0.100781,-0.03548 0.138253,-0.132828 0.239036,-0.16831 0.382461,-0.134648 0.175294,0.07855 0.239038,0.16831 0.12848,0.180927 0.349596,0.324001 0.478074,0.504929 0.03564,0.05018 -0.0252,0.115086 0,0.16831 0.57715,1.219138 -0.06891,-0.265359 0.478075,0.504929 0.09106,0.128236 -0.170741,0.264487 0.239038,0.16831 0.169024,-0.03967 0.318715,-0.112206 0.478074,-0.16831 0.159358,-0.05611 0.32983,-0.09872 0.478074,-0.16831 0.09376,-0.04401 0.145279,-0.124299 0.239037,-0.16831 0.148244,-0.06959 0.35209,-0.0796 0.478074,-0.168309 0.125984,-0.08871 0.113051,-0.247912 0.239038,-0.33662 0.125984,-0.08871 0.35209,-0.0796 0.478074,-0.16831 0.05634,-0.03967 -0.03564,-0.11813 0,-0.168309 0.364479,-0.513271 0.189501,0.307828 0.478075,-0.50493 0.03866,-0.108857 -0.05039,-0.230171 0,-0.33662 0.03564,-0.07527 0.203403,-0.09304 0.239036,-0.168309 0.03647,-0.07705 0,-0.747606 0,-0.841549 0,-0.185582 0.04294,-0.888905 0,-1.009859 -0.02733,-0.07697 -0.203403,-0.09304 -0.239036,-0.16831 -0.100782,-0.212896 0.100781,-0.460342 0,-0.673239 -0.03564,-0.07527 -0.203404,-0.09304 -0.239038,-0.168309 -0.05039,-0.106449 0.05039,-0.230172 0,-0.33662 -0.03564,-0.07527 -0.203404,-0.09304 -0.239037,-0.16831 -0.05039,-0.106449 0.05039,-0.230171 0,-0.33662 -0.03564,-0.07527 -0.188644,-0.09735 -0.239038,-0.16831 -0.03564,-0.05018 0.0252,-0.115085 0,-0.168309 -0.09431,-0.199222 -0.580734,-0.745524 -0.71711,-0.84155 -0.125984,-0.08871 -0.352091,-0.0796 -0.478075,-0.168309 -0.125984,-0.08871 -0.140214,-0.232238 -0.239038,-0.33662 -0.06251,-0.06602 -0.176531,-0.102293 -0.239036,-0.16831 -0.09883,-0.104381 -0.113051,-0.247912 -0.239038,-0.336619 -0.125984,-0.08871 -0.35209,-0.0796 -0.478074,-0.16831 -0.125984,-0.08871 -0.113051,-0.247913 -0.239037,-0.336619 -0.125984,-0.08871 -0.32983,-0.09873 -0.478074,-0.16831 -0.774117,-0.363379 0.09948,0.02091 -0.239038,-0.33662 -0.125011,-0.132033 -0.337289,-0.212709 -0.478074,-0.33662 -0.179468,-0.157956 -0.305702,-0.343103 -0.478075,-0.504929 -0.328194,-0.308115 -0.246872,-0.01655 -0.478074,-0.504929 -0.147185,-0.310904 0.364747,-0.0798 -0.239038,-0.50493 -0.05634,-0.03967 -0.182695,0.03967 -0.239036,0 -0.05634,-0.03967 0.07813,-0.157306 0,-0.168309 -2.124776,-0.299218 -0.382461,0.17953 -1.912298,0 -0.248539,-0.02917 -0.468573,-0.139143 -0.717112,-0.16831 -0.235784,-0.02767 -0.478074,0 -0.717112,0 -0.318715,0 -0.637432,0 -0.956149,0 -0.456152,0 -0.035,-0.03967 -0.478074,0.16831 -0.296489,0.139175 -0.659658,0.197444 -0.956149,0.336619 -0.09376,0.04401 -0.159357,0.112207 -0.239036,0.16831 -0.318717,0.224413 -0.637433,0.448826 -0.956149,0.673239 -0.07968,0.05611 -0.188644,0.09735 -0.239038,0.16831 -0.03564,0.05018 0.05634,0.128639 0,0.168309 -0.05634,0.03967 -0.182695,0.03967 -0.239037,0 -0.125984,-0.08871 -0.140214,-0.232237 -0.239037,-0.336619 -0.187516,-0.19805 -0.514281,-0.314508 -0.717112,-0.504929 -0.2138,-0.200722 -0.280414,-0.464477 -0.478074,-0.673239 -0.06251,-0.06602 -0.159358,-0.112207 -0.239037,-0.16831 -0.239038,-0.16831 -0.478074,-0.33662 -0.717112,-0.504929 -0.07968,-0.05611 -0.188643,-0.09735 -0.239036,-0.168311 -0.03564,-0.05018 0.03564,-0.118129 0,-0.168309 -0.05039,-0.07096 -0.188645,-0.09735 -0.239038,-0.16831 -0.112685,-0.158684 -0.145459,-0.340204 -0.239037,-0.50493 -0.06617,-0.116477 -0.182695,-0.217606 -0.239038,-0.336619 -0.0252,-0.05323 0.0252,-0.115085 0,-0.16831 -0.05634,-0.119013 -0.182695,-0.217607 -0.239036,-0.336619 -0.0252,-0.05323 0.0252,-0.115086 0,-0.168311 -0.05634,-0.119012 -0.182696,-0.217606 -0.239038,-0.336619 -0.031,-0.06549 0.03709,-0.478809 0,-0.504929 -0.05634,-0.03967 -0.159358,0 -0.239036,0"
     id="path3357"
     inkscape:connector-curvature="0" /><path
     style="fill:#ffffff;stroke-width:2.20000005;stroke-miterlimit:4;stroke-dasharray:none"
     id="path3363"
     d="M 64.680219,3.0490189 C 64.637485,3.5404162 64.469485,4.014318 64.325866,4.4838765 64.15431,5.0774931 63.955913,5.6609103 63.72554,6.2340294 63.442697,7.0091051 63.072775,7.7475411 62.654396,8.4573016 62.155582,9.2741155 61.559199,10.026667 60.97348,10.782016 c -0.495754,0.624983 -0.940175,1.287245 -1.403977,1.935527 -0.449603,0.607379 -0.860991,1.241173 -1.273598,1.87384 -0.339407,0.518859 -0.644267,1.060091 -0.944885,1.602171 -0.224997,0.438739 -0.484041,0.858418 -0.717899,1.292207 0,0 -2.227711,0.993723 -2.227711,0.993723 l 0,0 c 0.25625,-0.430369 0.529096,-0.851667 0.750635,-1.30155 0.294343,-0.556191 0.605339,-1.103957 0.952267,-1.629289 0.426545,-0.627467 0.830702,-1.270228 1.274755,-1.88568 0.4856,-0.650607 0.926336,-1.333577 1.443199,-1.961145 0.589421,-0.7429 1.174885,-1.493657 1.687052,-2.2924148 0.400801,-0.694506 0.780466,-1.404877 1.042062,-2.165381 0.197892,-0.578033 0.433578,-1.1431576 0.593498,-1.7340108 0.139168,-0.4216419 0.297236,-0.8708883 0.289547,-1.3187436 0,0 2.241794,-1.1422509 2.241794,-1.1422509 z"
     inkscape:connector-curvature="0" /><path
     style="fill:#ffffff;stroke-width:2.20000005;stroke-miterlimit:4;stroke-dasharray:none"
     id="path3365"
     d="m 70.781914,4.065968 c -0.0077,0.4684286 -0.118408,0.9180703 -0.25503,1.3635895 -0.245623,0.8022657 -0.569579,1.5768225 -0.900631,2.3467811 -0.416703,0.9770021 -0.930613,1.9063056 -1.460104,2.8254094 -0.43851,0.78668 -0.94758,1.528169 -1.4693,2.260897 -0.447841,0.619169 -0.969683,1.177884 -1.498353,1.727617 -0.578813,0.585278 -1.180738,1.147318 -1.775601,1.716236 -0.321119,0.289663 -0.62334,0.598553 -0.904295,0.927013 0,0 -2.230882,0.947599 -2.230882,0.947599 l 0,0 c 0.28804,-0.352783 0.607957,-0.67752 0.951224,-0.977299 0.597513,-0.557192 1.181179,-1.130024 1.765825,-1.700339 0.528699,-0.545603 1.055902,-1.095058 1.517058,-1.70034 0.546288,-0.728771 1.071637,-1.47266 1.528194,-2.2619 0.542833,-0.894351 1.047322,-1.8170657 1.446408,-2.7853256 0.316546,-0.7548718 0.642647,-1.5084641 0.859928,-2.299553 0.119823,-0.4022399 0.240275,-0.8250902 0.183765,-1.2481344 0,0 2.241794,-1.142251 2.241794,-1.142251 z"
     inkscape:connector-curvature="0" /><path
     style="fill:#ffffff;stroke-width:2.20000005;stroke-miterlimit:4;stroke-dasharray:none"
     id="path3367"
     d="m 75.18939,7.4203792 c 0.08189,0.7749157 -0.03277,1.5525707 -0.131698,2.3202791 -0.139883,1.0444247 -0.424859,2.0584177 -0.756183,3.0559307 -0.354945,1.062046 -0.733596,2.116442 -1.146662,3.157299 -0.49345,1.273347 -1.162259,2.462735 -1.819295,3.655759 -0.446471,0.807862 -0.868581,1.62855 -1.303547,2.442486 -0.172643,0.346174 -0.08789,0.176537 -0.25423,0.508926 0,0 -2.208875,0.994534 -2.208875,0.994534 l 0,0 c 0.184336,-0.338101 0.09148,-0.163277 0.277901,-0.524823 0.471592,-0.838288 0.962776,-1.665078 1.435164,-2.502863 0.659031,-1.173473 1.335526,-2.341067 1.793642,-3.612585 0.415965,-1.027352 0.782781,-2.073935 1.118627,-3.130156 0.338506,-0.984356 0.657918,-1.979747 0.786266,-3.017457 0.07925,-0.701057 0.194993,-1.4422922 0.0063,-2.1342402 0,0 2.202639,-1.2130896 2.202639,-1.2130896 z"
     inkscape:connector-curvature="0" /><path
     style="fill:#808000;stroke-width:0.1;stroke-miterlimit:4;stroke-dasharray:none"
     id="path4179"
     d="m 4.7871935,40.703141 c 0.5063032,-0.254636 1.0229302,-0.48705 1.5209383,-0.759131 1.1171479,-0.623166 -0.9805719,0.578061 -1.4776646,0.855107 -0.092155,0.05136 0.1766345,-0.11551 0.262754,-0.176453 0.2609894,-0.18469 0.5085504,-0.388861 0.7605561,-0.585406 0.074169,-0.06118 0.1483387,-0.122361 0.222508,-0.183542 0,0 2.2379291,-0.905169 2.2379291,-0.905169 l 0,0 c -0.076074,0.06586 -0.1521476,0.131723 -0.2282214,0.197584 -0.2553078,0.194462 -0.5041709,0.396396 -0.7580837,0.592666 -0.085539,0.06612 -0.1639023,0.142795 -0.2567415,0.1982 -0.7713695,0.46034 -1.5544247,0.900823 -2.333665,1.347711 -0.097711,0.05604 -0.198062,0.107337 -0.297093,0.161006 -0.5345372,0.27653 -1.0808241,0.529721 -1.6077834,0.820896 0,0 1.9545671,-1.563469 1.9545671,-1.563469 z"
     inkscape:connector-curvature="0" /><path
     style="fill:#808000;stroke-width:0.1;stroke-miterlimit:4;stroke-dasharray:none"
     id="path4181"
     d="m 10.111141,40.648308 c 0.205954,0.456979 0.45836,0.890968 0.722928,1.316017 0.32294,0.54938 0.664806,1.089198 0.962818,1.652709 0.138156,0.24256 0.179532,0.513209 0.226366,0.783387 0,0 -2.1385121,1.13623 -2.1385121,1.13623 l 0,0 C 9.8420447,45.289859 9.7988016,45.044183 9.6915255,44.815005 9.4262498,44.24275 9.0856744,43.710328 8.7516924,43.176269 8.4815465,42.745403 8.2253344,42.305204 7.9360573,41.886766 c 0,0 2.1750837,-1.238458 2.1750837,-1.238458 z"
     inkscape:connector-curvature="0" /><path
     style="fill:#808000;stroke-width:0.1;stroke-miterlimit:4;stroke-dasharray:none"
     id="path4183"
     d="m 18.724771,39.914079 c -0.09215,0.582764 -0.220759,1.150793 -0.396535,1.71419 -0.265315,0.799486 -0.536664,1.598444 -0.866563,2.373912 -0.255443,0.669801 -0.594432,1.300831 -0.9069,1.944211 -0.179309,0.376009 -0.08954,0.190279 -0.269206,0.557244 0,0 -2.19654,0.992328 -2.19654,0.992328 l 0,0 c 0.190649,-0.363563 0.09783,-0.177772 0.277922,-0.557638 0.320792,-0.648833 0.679636,-1.279136 0.951394,-1.951475 0.332093,-0.764895 0.61136,-1.551407 0.869035,-2.344294 0.149642,-0.535474 0.283689,-1.076883 0.30154,-1.635381 0,0 2.235853,-1.093097 2.235853,-1.093097 z"
     inkscape:connector-curvature="0" /><path
     style="fill:#808000;stroke-width:0.1;stroke-miterlimit:4;stroke-dasharray:none"
     id="path4185"
     d="m 29.088459,38.372416 c -0.525781,0.518274 -0.916505,1.164304 -1.295112,1.793834 -0.401332,0.674794 -0.767131,1.368678 -1.131582,2.063672 -0.211352,0.425507 -0.45592,0.83223 -0.713244,1.231055 0,0 -2.19345,0.95885 -2.19345,0.95885 l 0,0 c 0.269323,-0.385756 0.527476,-0.780017 0.721631,-1.210339 0.391718,-0.695871 0.760347,-1.404928 1.170248,-2.090526 0.353546,-0.605261 0.735433,-1.194495 1.115697,-1.783163 0,0 2.325812,-0.963383 2.325812,-0.963383 z"
     inkscape:connector-curvature="0" /><path
     style="fill:#808000;stroke-width:0.1;stroke-miterlimit:4;stroke-dasharray:none"
     id="path4187"
     d="m 32.988008,38.578729 c 0.366154,0.492719 1.038674,0.568083 1.597398,0.679886 2.099507,0.295269 4.226844,0.299629 6.342901,0.306644 1.318252,-0.01579 0.695874,-0.01066 1.867123,-0.01688 0,0 -1.786269,1.289493 -1.786269,1.289493 l 0,0 c -1.066481,-0.07524 -0.490648,-0.04539 -1.728035,-0.07852 -2.18783,-0.03918 -4.381445,-0.02004 -6.563702,-0.190627 -0.69287,-0.09733 -1.395917,-0.179856 -1.895522,-0.720726 0,0 2.166106,-1.269272 2.166106,-1.269272 z"
     inkscape:connector-curvature="0" /><path
     style="fill:#808000;stroke-width:0.1;stroke-miterlimit:4;stroke-dasharray:none"
     id="path4189"
     d="m 42.978191,34.298123 c 0.418421,0.478216 1.056783,0.556635 1.648943,0.651818 1.156365,0.124113 2.337626,0.11254 3.492666,-0.0273 0,0 -1.894022,1.400666 -1.894022,1.400666 l 0,0 c -1.16177,0.05334 -2.331347,0.04865 -3.490699,-0.04029 -0.715458,-0.09538 -1.329397,-0.205153 -1.90336,-0.669527 0,0 2.146472,-1.315359 2.146472,-1.315359 z"
     inkscape:connector-curvature="0" /><path
     style="fill:#808000;stroke-width:0.1;stroke-miterlimit:4;stroke-dasharray:none"
     id="path4191"
     d="m 41.420939,22.408696 c 0.700292,-0.289785 1.467141,-0.365041 2.214147,-0.444104 0.530838,-0.01612 1.102844,-0.192049 1.625439,-0.01524 0.206596,0.0699 0.357242,0.189186 0.534248,0.309343 0.319914,0.259601 0.687443,0.43098 1.071233,0.570383 0,0 -2.002897,1.34343 -2.002897,1.34343 l 0,0 c -0.388539,-0.164304 -0.757808,-0.363343 -1.10347,-0.606962 -0.192132,-0.117907 -0.255058,-0.175309 -0.475623,-0.235622 -0.490477,-0.134119 -1.016103,0.0042 -1.51071,0.02127 -0.794487,0.104715 -1.58969,0.235906 -2.313538,0.599692 0,0 1.961171,-1.54219 1.961171,-1.54219 z"
     inkscape:connector-curvature="0" /><path
     style="fill:#808000;stroke-width:0.1;stroke-miterlimit:4;stroke-dasharray:none"
     id="path4193"
     d="m 50.968251,29.346237 c 0.795241,0.549202 1.672284,0.96903 2.537631,1.394868 1.315241,0.633166 2.738677,0.957823 4.176593,1.15427 0.715626,0.07166 0.372867,0.04304 1.02804,0.08869 0,0 -1.910677,1.358312 -1.910677,1.358312 l 0,0 c -0.615378,-0.08588 -0.292695,-0.03758 -0.967744,-0.146939 -1.437535,-0.264605 -2.865575,-0.599717 -4.19931,-1.216337 -0.91129,-0.416697 -1.810743,-0.863735 -2.737277,-1.24424 0,0 2.072744,-1.388622 2.072744,-1.388622 z"
     inkscape:connector-curvature="0" /></svg>