<?xml version="1.0" encoding="UTF-8" standalone="no"?>
<!-- Generator: Adobe Illustrator 17.0.0, SVG Export Plug-In . SVG Version: 6.00 Build 0)  -->

<svg
   xmlns:dc="http://purl.org/dc/elements/1.1/"
   xmlns:cc="http://creativecommons.org/ns#"
   xmlns:rdf="http://www.w3.org/1999/02/22-rdf-syntax-ns#"
   xmlns:svg="http://www.w3.org/2000/svg"
   xmlns="http://www.w3.org/2000/svg"
   xmlns:sodipodi="http://sodipodi.sourceforge.net/DTD/sodipodi-0.dtd"
   xmlns:inkscape="http://www.inkscape.org/namespaces/inkscape"
   version="1.1"
   id="Capa_1"
   x="0px"
   y="0px"
   width="64px"
   height="64px"
   viewBox="0 0 64 64"
   enable-background="new 0 0 64 64"
   xml:space="preserve"
   inkscape:version="0.48.4 r9939"
   sodipodi:docname="information11.svg"><metadata
     id="metadata3039"><rdf:RDF><cc:Work
         rdf:about=""><dc:format>image/svg+xml</dc:format><dc:type
           rdf:resource="http://purl.org/dc/dcmitype/StillImage" /></cc:Work></rdf:RDF></metadata><defs
     id="defs3037" /><sodipodi:namedview
     pagecolor="#ffffff"
     bordercolor="#666666"
     borderopacity="1"
     objecttolerance="10"
     gridtolerance="10"
     guidetolerance="10"
     inkscape:pageopacity="0"
     inkscape:pageshadow="2"
     inkscape:window-width="977"
     inkscape:window-height="705"
     id="namedview3035"
     showgrid="false"
     inkscape:zoom="6.90625"
     inkscape:cx="32"
     inkscape:cy="32"
     inkscape:window-x="0"
     inkscape:window-y="0"
     inkscape:window-maximized="0"
     inkscape:current-layer="Capa_1" /><path
     d="M 4.0456425,10.005422 V 61.437303 H 54.182275 c 3.297445,0 5.970616,-2.742158 5.970616,-6.124699 V 3.8820905 H 10.014924 c -3.2974442,0 -5.9692815,2.7421579 -5.9692815,6.1233315 z m 28.0522905,3.838201 c 2.309012,0 4.183166,1.919784 4.183166,4.292489 0,2.371337 -1.872821,4.291121 -4.183166,4.291121 -2.310345,0 -4.183166,-1.919784 -4.183166,-4.291121 0.0013,-2.372705 1.872821,-4.292489 4.183166,-4.292489 z M 25.580411,29.00896 c 0,-1.462759 1.277893,-2.651848 2.851916,-2.651848 0.245441,0 0.465537,0 0.692304,0 h 2.159613 3.788325 v 18.787339 h 6.9217 v 2.651848 c 0,1.462758 -1.361931,2.649111 -3.042666,2.649111 H 35.071236 34.072131 29.123296 V 31.660808 H 25.579077 V 29.00896 z"
     id="path3033"
     inkscape:connector-curvature="0"
     style="fill:#00a200;fill-opacity:1;stroke:#2d6500;stroke-opacity:1" /></svg>