<?xml version="1.0" encoding="UTF-8" standalone="no"?>
<!-- Generator: Adobe Illustrator 16.0.4, SVG Export Plug-In . SVG Version: 6.00 Build 0)  -->

<svg
   xmlns:dc="http://purl.org/dc/elements/1.1/"
   xmlns:cc="http://creativecommons.org/ns#"
   xmlns:rdf="http://www.w3.org/1999/02/22-rdf-syntax-ns#"
   xmlns:svg="http://www.w3.org/2000/svg"
   xmlns="http://www.w3.org/2000/svg"
   xmlns:sodipodi="http://sodipodi.sourceforge.net/DTD/sodipodi-0.dtd"
   xmlns:inkscape="http://www.inkscape.org/namespaces/inkscape"
   version="1.1"
   id="Capa_1"
   x="0px"
   y="0px"
   width="64px"
   height="64px"
   viewBox="0 0 64 64"
   style="enable-background:new 0 0 64 64;"
   xml:space="preserve"
   inkscape:version="0.92.2 5c3e80d, 2017-08-06"
   sodipodi:docname="infotable.svg"><metadata
     id="metadata3871"><rdf:RDF><cc:Work
         rdf:about=""><dc:format>image/svg+xml</dc:format><dc:type
           rdf:resource="http://purl.org/dc/dcmitype/StillImage" /><dc:title></dc:title></cc:Work></rdf:RDF></metadata><defs
     id="defs3869" /><sodipodi:namedview
     pagecolor="#ffffff"
     bordercolor="#666666"
     borderopacity="1"
     objecttolerance="10"
     gridtolerance="10"
     guidetolerance="10"
     inkscape:pageopacity="0"
     inkscape:pageshadow="2"
     inkscape:window-width="864"
     inkscape:window-height="760"
     id="namedview3867"
     showgrid="false"
     inkscape:zoom="3.6875"
     inkscape:cx="32"
     inkscape:cy="32"
     inkscape:window-x="2102"
     inkscape:window-y="252"
     inkscape:window-maximized="0"
     inkscape:current-layer="Capa_1" /><path
     style="fill:#0000fc;fill-opacity:1;stroke-width:0.56650048"
     id="path3802"
     d="M 48.182684,11.126827 H 12.43978 c -0.796139,0 -1.443121,0.886687 -1.443121,1.974833 v 43.269394 c 0,0.668661 0.245524,1.25846 0.618411,1.616315 v 0.311467 h 0.517683 c 0.09928,0.02916 0.201456,0.04705 0.307027,0.04705 h 35.743388 c 0.105576,0 0.207752,-0.0179 0.306543,-0.04705 h 0.07119 v -0.02982 c 0.612115,-0.229295 1.065391,-0.988744 1.065391,-1.8973 V 13.102324 c 0,-1.08881 -0.647467,-1.975497 -1.443605,-1.975497 z m 0.206298,1.975497 v 5.691231 h -9.519754 v -5.973541 h 9.313456 c 0.113804,0 0.206298,0.126575 0.206298,0.28231 z m -0.09928,43.503325 H 38.869224 V 51.24444 h 9.519754 v 5.126614 c 0,0.100733 -0.04116,0.185556 -0.09928,0.234595 z M 12.233481,56.371054 V 51.24444 h 4.467864 v 5.361209 h -4.368589 c -0.05811,-0.04904 -0.09928,-0.133865 -0.09928,-0.234595 z M 27.114574,36.429876 v 5.869497 h -9.176408 v -5.869497 z m -9.176408,-1.693187 v -6.349288 h 9.176408 v 6.349288 z m 9.176408,9.255871 v 5.559355 H 17.938166 V 43.99256 Z m 0,7.25188 v 5.361209 H 17.938166 V 51.24444 Z m 1.237307,0 h 9.28004 v 5.361209 h -9.28004 z m 0,-1.693188 v -5.559354 h 9.28004 v 5.559354 z m 0,-7.251879 v -5.869497 h 9.28004 v 5.869497 z m 0,-7.562684 v -6.349288 h 9.28004 v 6.349288 z m 0,-8.042475 v -6.208135 h 9.28004 v 6.208135 z m 0,-7.901322 v -5.97354 h 9.28004 v 5.97354 z m -1.237307,0 h -9.176408 v -5.97354 h 9.176408 z m 0,1.693187 v 6.208135 h -9.176408 v -6.208135 z m -10.413229,6.208135 h -4.467864 v -6.208135 h 4.467864 z m 0,1.693187 v 6.349288 h -4.467864 v -6.349288 z m 0,8.042475 v 5.869497 h -4.467864 v -5.869497 z m 0,7.562684 v 5.559355 H 12.233481 V 43.99256 Z m 22.167883,5.558692 v -5.559354 h 9.519754 v 5.559354 z m 0,-7.251879 v -5.869497 h 9.519754 v 5.869497 z m 0,-7.562684 v -6.349288 h 9.519754 v 6.349288 z m 0,-8.042475 v -6.208135 h 9.519754 v 6.208135 z"
     inkscape:connector-curvature="0" /><path
     d="m 57.179311,5.8696443 c -8.466154,0 -16.930873,0 -25.397029,0 -5.439655,0 -10.879311,0 -16.318965,0 -0.692347,0 -1.256853,0.4179004 -1.383256,0.9489342 -2.186204,1.4349454 -4.3724086,2.8698909 -6.5614857,4.3059915 -0.097675,0.06464 -0.1522587,0.137376 -0.2097148,0.207795 -0.2800985,0.212414 -0.4625215,0.506791 -0.4625215,0.834646 0,5.695915 0,11.392983 0,17.088897 0,8.618909 0,17.238972 0,25.855571 0,1.447644 0,2.894133 0,4.341778 0,0.629159 0.653563,1.154421 1.4364022,1.154421 8.4661548,0 16.9308738,0 25.3970288,0 5.439656,0 10.879311,0 16.318966,0 0.392139,0 0.683728,-0.117751 0.910679,-0.280524 0.03304,-0.02194 0.07039,-0.0381 0.100551,-0.06234 0.02729,-0.02424 0.04597,-0.04964 0.07039,-0.07388 0.206841,-0.182399 0.354791,-0.417901 0.354791,-0.737675 0,-1.328739 0,-2.659786 0,-3.988526 1.914724,0 3.830884,0 5.74561,0 0.392137,0 0.683726,-0.11775 0.910678,-0.280524 0.03304,-0.02194 0.07039,-0.0381 0.100552,-0.06234 0.02729,-0.02424 0.04596,-0.04964 0.07039,-0.07388 0.206842,-0.182399 0.354792,-0.4179 0.354792,-0.737674 0,-5.697069 0,-11.392983 0,-17.088897 0,-8.618909 0,-17.237817 0,-25.855571 0,-1.447644 0,-2.8941336 0,-4.3417778 -0.0015,-0.6291595 -0.655,-1.1544211 -1.43784,-1.1544211 z M 14.026914,9.0777806 c 0,0.6453215 0,1.2894884 0,1.9348104 -0.982499,0 -1.964999,0 -2.947497,0 0.982498,-0.645322 1.964998,-1.2894889 2.947497,-1.9348104 z M 48.560898,29.255908 c 0,8.618909 0,17.238972 0,25.855571 0,1.063222 0,2.125289 0,3.187357 -7.987833,0 -15.97423,0 -23.960627,0 -4.959897,0 -9.92123,0 -14.8825638,0 0,-5.312647 0,-10.622984 0,-15.934475 0,-8.618909 0,-17.237818 0,-25.855571 0,-1.062068 0,-2.124136 0,-3.187357 7.9878338,0 15.9742308,0 23.9606258,0 4.961334,0 9.921232,0 14.882565,0 0,5.311492 0,10.624138 0,15.934475 z m 7.182011,-5.142946 c 0,8.617754 0,17.237817 0,25.85557 0,1.063222 0,2.12529 0,3.187357 -1.436401,0 -2.872804,0 -4.309206,0 0,-3.597176 0,-7.194352 0,-10.791528 0,-8.618909 0,-17.237818 0,-25.855571 0,-1.447644 0,-2.894135 0,-4.341779 0,-0.629159 -0.653564,-1.15442 -1.436403,-1.15442 -8.466155,0 -16.930873,0 -25.397029,0 -2.566851,0 -5.133701,0 -7.700553,0 0,-0.944317 0,-1.8897879 0,-2.8341044 7.987834,0 15.974231,0 23.962064,0 4.959896,0 9.919794,0 14.881127,0 0,5.3114914 0,10.6241374 0,15.9344754 z"
     id="path3861"
     inkscape:connector-curvature="0"
     style="stroke:#2d6500;stroke-opacity:1;fill:#00eb00;fill-opacity:1" /><path
     d="M31.136,34.572c0.659-1.469,0.825-3.753-1.221-4.715c-2.835-1.333-4.899,1.606-4.276,2.561  c0.223,0.215,0.65-0.059,1.019-0.243c0.41-0.205,0.748-0.299,0.651,0.511c-0.163,1.361-3.364,9.439-0.958,12.039  c1.367,1.476,3.644,0.765,4.615-0.121c0.324-0.295,0.573-0.707,0.559-1.19c-0.012-0.427-0.634-0.404-0.753-0.39  c-2.093,0.268-1.366-2.444-1.247-2.963C29.804,38.85,30.791,35.341,31.136,34.572z"
     id="path3863"
     style="stroke:#2d6500;stroke-opacity:1;fill:#00eb00;fill-opacity:1" /><circle
     cx="28.951"
     cy="26.581"
     r="2.186"
     id="circle3865"
     style="stroke:#2d6500;stroke-opacity:1;fill:#00eb00;fill-opacity:1" /></svg>