<?xml version="1.0" encoding="UTF-8" standalone="no"?>
<!-- Generator: Adobe Illustrator 16.0.4, SVG Export Plug-In . SVG Version: 6.00 Build 0)  -->

<svg
   xmlns:dc="http://purl.org/dc/elements/1.1/"
   xmlns:cc="http://creativecommons.org/ns#"
   xmlns:rdf="http://www.w3.org/1999/02/22-rdf-syntax-ns#"
   xmlns:svg="http://www.w3.org/2000/svg"
   xmlns="http://www.w3.org/2000/svg"
   xmlns:sodipodi="http://sodipodi.sourceforge.net/DTD/sodipodi-0.dtd"
   xmlns:inkscape="http://www.inkscape.org/namespaces/inkscape"
   version="1.1"
   id="Capa_1"
   x="0px"
   y="0px"
   width="87.5px"
   height="87.506px"
   viewBox="0 0 87.5 87.506"
   style="enable-background:new 0 0 87.5 87.506;"
   xml:space="preserve"
   inkscape:version="0.48.4 r9939"
   sodipodi:docname="label21.svg"><metadata
     id="metadata4118"><rdf:RDF><cc:Work
         rdf:about=""><dc:format>image/svg+xml</dc:format><dc:type
           rdf:resource="http://purl.org/dc/dcmitype/StillImage" /></cc:Work></rdf:RDF></metadata><defs
     id="defs4116" /><sodipodi:namedview
     pagecolor="#ffffff"
     bordercolor="#666666"
     borderopacity="1"
     objecttolerance="10"
     gridtolerance="10"
     guidetolerance="10"
     inkscape:pageopacity="0"
     inkscape:pageshadow="2"
     inkscape:window-width="640"
     inkscape:window-height="480"
     id="namedview4114"
     showgrid="false"
     inkscape:zoom="2.696958"
     inkscape:cx="43.75"
     inkscape:cy="43.752998"
     inkscape:window-x="0"
     inkscape:window-y="0"
     inkscape:window-maximized="0"
     inkscape:current-layer="Capa_1" /><g
     id="Tag_1_"
     style="fill:#367c04;fill-opacity:1"><g
       id="g4080"
       style="fill:#367c04;fill-opacity:1"><path
         d="M86.415,47.056L40.448,1.087c-0.794-0.792-1.906-1.188-3.013-1.064L6.943,3.273C5.225,3.455,3.861,4.808,3.658,6.524    L0.024,37.398c-0.131,1.123,0.26,2.251,1.062,3.054l45.966,45.969c0.725,0.727,1.671,1.085,2.62,1.085    c0.946,0,1.896-0.358,2.618-1.085l34.125-34.125c0.694-0.695,1.085-1.637,1.085-2.621C87.5,48.696,87.109,47.751,86.415,47.056z     M49.672,78.565L7.594,36.484l3.077-26.158l25.791-2.748l42.095,42.097L49.672,78.565z M22.587,16.101    c-3.403,0-6.176,2.771-6.176,6.171c0,3.406,2.772,6.176,6.176,6.176s6.173-2.77,6.173-6.176    C28.76,18.871,25.99,16.101,22.587,16.101z M22.587,24.742c-1.364,0-2.471-1.107-2.471-2.471c0-1.358,1.106-2.47,2.471-2.47    c1.36,0,2.47,1.111,2.47,2.47C25.057,23.635,23.947,24.742,22.587,24.742z M33.521,39.232c-0.722-0.722-1.893-0.722-2.617,0    s-0.725,1.898,0,2.62l18.103,18.1c0.36,0.364,0.834,0.546,1.31,0.546c0.474,0,0.946-0.182,1.308-0.546    c0.725-0.722,0.725-1.893,0-2.614L33.521,39.232z M56.415,52.547c0.36,0.358,0.834,0.54,1.308,0.54c0.476,0,0.948-0.182,1.31-0.54    c0.725-0.728,0.725-1.898,0-2.62L40.93,31.821c-0.722-0.722-1.896-0.722-2.617,0c-0.725,0.728-0.725,1.898,0,2.62L56.415,52.547z"
         id="path4082"
         style="fill:#367c04;fill-opacity:1" /></g></g><g
     id="g4084" /><g
     id="g4086" /><g
     id="g4088" /><g
     id="g4090" /><g
     id="g4092" /><g
     id="g4094" /><g
     id="g4096" /><g
     id="g4098" /><g
     id="g4100" /><g
     id="g4102" /><g
     id="g4104" /><g
     id="g4106" /><g
     id="g4108" /><g
     id="g4110" /><g
     id="g4112" /></svg>