<?xml version="1.0" encoding="UTF-8" standalone="no"?>
<!-- Generator: Adobe Illustrator 15.0.0, SVG Export Plug-In . SVG Version: 6.00 Build 0)  -->

<svg
   xmlns:dc="http://purl.org/dc/elements/1.1/"
   xmlns:cc="http://creativecommons.org/ns#"
   xmlns:rdf="http://www.w3.org/1999/02/22-rdf-syntax-ns#"
   xmlns:svg="http://www.w3.org/2000/svg"
   xmlns="http://www.w3.org/2000/svg"
   xmlns:sodipodi="http://sodipodi.sourceforge.net/DTD/sodipodi-0.dtd"
   xmlns:inkscape="http://www.inkscape.org/namespaces/inkscape"
   version="1.1"
   id="Layer_1"
   x="0px"
   y="0px"
   width="26px"
   height="26px"
   viewBox="0 0 26 26"
   enable-background="new 0 0 26 26"
   xml:space="preserve"
   inkscape:version="0.48.4 r9939"
   sodipodi:docname="line2.svg"><metadata
     id="metadata13"><rdf:RDF><cc:Work
         rdf:about=""><dc:format>image/svg+xml</dc:format><dc:type
           rdf:resource="http://purl.org/dc/dcmitype/StillImage" /></cc:Work></rdf:RDF></metadata><defs
     id="defs11" /><sodipodi:namedview
     pagecolor="#ffffff"
     bordercolor="#666666"
     borderopacity="1"
     objecttolerance="10"
     gridtolerance="10"
     guidetolerance="10"
     inkscape:pageopacity="0"
     inkscape:pageshadow="2"
     inkscape:window-width="804"
     inkscape:window-height="480"
     id="namedview9"
     showgrid="false"
     inkscape:zoom="9.0769231"
     inkscape:cx="35.915254"
     inkscape:cy="13"
     inkscape:window-x="286"
     inkscape:window-y="127"
     inkscape:window-maximized="0"
     inkscape:current-layer="Layer_1" /><g
     id="g3"
     transform="matrix(1.2892062,0,0,1.6281874,-4.139517,-8.7714253)"
     style="fill:#3200fc;fill-opacity:1"><path
       d="m 5.353,11.898 c 0.419,0 0.769,-0.273 0.894,-0.65 0.078,0.008 0.159,0 0.238,-0.03 l 3.063,-1.191 1.063,1.342 c -0.103,0.151 -0.163,0.333 -0.163,0.529 0,0.522 0.423,0.944 0.944,0.944 0.522,0 0.944,-0.422 0.944,-0.944 0,-0.102 -0.02,-0.199 -0.051,-0.291 l 1.139,-0.52 c 0.107,0.042 0.22,0.066 0.341,0.066 0.047,0 0.092,-0.007 0.137,-0.014 l 1.143,0.517 c 0.086,0.432 0.467,0.756 0.924,0.756 0.523,0 0.945,-0.422 0.945,-0.944 0,-0.016 -0.004,-0.031 -0.006,-0.048 l 4.086,-2.619 c 0.076,0.021 0.156,0.035 0.24,0.035 0.521,0 0.945,-0.422 0.945,-0.944 0,-0.522 -0.424,-0.944 -0.945,-0.944 -0.521,0 -0.943,0.422 -0.943,0.944 0,0.044 0.006,0.085 0.014,0.128 l -4.004,2.567 c -0.105,-0.039 -0.215,-0.063 -0.332,-0.063 -0.201,0 -0.389,0.065 -0.543,0.174 l -0.732,-0.332 c 0.01,-0.052 0.018,-0.104 0.018,-0.158 0,-0.521 -0.424,-0.944 -0.945,-0.944 -0.521,0 -0.944,0.422 -0.944,0.944 0,0.007 10e-4,0.013 0.002,0.02 L 11.5,10.833 10.446,9.501 c 0.069,-0.131 0.111,-0.278 0.111,-0.436 0,-0.521 -0.422,-0.944 -0.944,-0.944 -0.521,0 -0.944,0.423 -0.944,0.944 0,0.065 0.007,0.129 0.02,0.19 L 6.111,10.257 C 6.083,10.268 6.056,10.282 6.031,10.298 5.859,10.121 5.62,10.01 5.353,10.01 c -0.521,0 -0.944,0.423 -0.944,0.944 0,0.521 0.423,0.944 0.944,0.944 z"
       id="path5"
       inkscape:connector-curvature="0"
       style="fill:#3200fc;fill-opacity:1" /><path
       d="m 21.75,11.804 c -0.494,0 -0.895,0.382 -0.936,0.866 l -4.24,1.742 c -0.164,-0.139 -0.373,-0.226 -0.605,-0.226 -0.521,0 -0.943,0.423 -0.943,0.944 0,0.143 0.033,0.275 0.09,0.396 l -1.178,1.653 c -0.057,-0.011 -0.113,-0.017 -0.172,-0.017 -0.082,0 -0.162,0.014 -0.238,0.033 l -1.251,-1.537 c 0.037,-0.101 0.06,-0.208 0.06,-0.321 0,-0.521 -0.422,-0.944 -0.944,-0.944 -0.237,0 -0.45,0.091 -0.616,0.234 L 8.976,14 C 8.854,13.619 8.502,13.341 8.08,13.341 c -0.45,0 -0.825,0.315 -0.919,0.737 L 5.829,14.633 C 5.689,14.551 5.529,14.5 5.354,14.5 c -0.521,0 -0.944,0.424 -0.944,0.944 0,0.521 0.423,0.944 0.944,0.944 0.483,0 0.877,-0.363 0.933,-0.831 l 1.235,-0.514 c 0.156,0.115 0.348,0.187 0.558,0.187 0.238,0 0.452,-0.092 0.618,-0.236 l 1.799,0.627 c 0.121,0.381 0.474,0.66 0.896,0.66 0.02,0 0.039,-0.004 0.059,-0.006 l 1.384,1.702 c -0.005,0.043 -0.013,0.084 -0.013,0.128 0,0.521 0.423,0.944 0.944,0.944 0.521,0 0.945,-0.423 0.945,-0.944 0,-0.07 -0.01,-0.138 -0.023,-0.203 l 1.305,-1.832 c 0.416,-0.01 0.76,-0.287 0.877,-0.667 l 4.441,-1.825 c 0.131,0.069 0.279,0.113 0.439,0.113 0.521,0 0.943,-0.423 0.943,-0.945 0,-0.522 -0.423,-0.942 -0.944,-0.942 z"
       id="path7"
       inkscape:connector-curvature="0"
       style="fill:#3200fc;fill-opacity:1" /></g></svg>