<?xml version="1.0" encoding="UTF-8" standalone="no"?>
<!-- Generator: Adobe Illustrator 17.1.0, SVG Export Plug-In . SVG Version: 6.00 Build 0)  -->

<svg
   xmlns:dc="http://purl.org/dc/elements/1.1/"
   xmlns:cc="http://creativecommons.org/ns#"
   xmlns:rdf="http://www.w3.org/1999/02/22-rdf-syntax-ns#"
   xmlns:svg="http://www.w3.org/2000/svg"
   xmlns="http://www.w3.org/2000/svg"
   xmlns:sodipodi="http://sodipodi.sourceforge.net/DTD/sodipodi-0.dtd"
   xmlns:inkscape="http://www.inkscape.org/namespaces/inkscape"
   version="1.1"
   id="Capa_1"
   x="0px"
   y="0px"
   viewBox="0 0 200 200"
   style="enable-background:new 0 0 200 200;"
   xml:space="preserve"
   inkscape:version="0.48.4 r9939"
   width="100%"
   height="100%"
   sodipodi:docname="link35.svg"><metadata
     id="metadata3820"><rdf:RDF><cc:Work
         rdf:about=""><dc:format>image/svg+xml</dc:format><dc:type
           rdf:resource="http://purl.org/dc/dcmitype/StillImage" /></cc:Work></rdf:RDF></metadata><defs
     id="defs3818" /><sodipodi:namedview
     pagecolor="#ffffff"
     bordercolor="#666666"
     borderopacity="1"
     objecttolerance="10"
     gridtolerance="10"
     guidetolerance="10"
     inkscape:pageopacity="0"
     inkscape:pageshadow="2"
     inkscape:window-width="640"
     inkscape:window-height="480"
     id="namedview3816"
     showgrid="false"
     inkscape:zoom="1.18"
     inkscape:cx="100"
     inkscape:cy="100"
     inkscape:window-x="0"
     inkscape:window-y="0"
     inkscape:window-maximized="0"
     inkscape:current-layer="Capa_1" /><g
     id="g3810"
     style="fill:#3200fc;fill-opacity:1"><path
       d="M85.868,85.869c1.599-1.6,3.732-2.48,6.005-2.48c2.273,0,4.406,0.881,6.005,2.48l16.253,16.253   c0.563,0.562,1.326,0.879,2.121,0.879s1.559-0.316,2.121-0.879l16.253-16.253c0.563-0.562,0.879-1.326,0.879-2.121   s-0.316-1.559-0.879-2.121l-16.253-16.253c-7.081-7.079-16.493-10.977-26.501-10.977c-10.008,0-19.42,3.898-26.501,10.976   l-48.761,48.761c-7.081,7.081-10.981,16.494-10.981,26.505c0,10.012,3.9,19.422,10.982,26.498l16.252,16.252   c7.075,7.081,16.486,10.981,26.497,10.981c10.011,0,19.424-3.9,26.506-10.981l27.478-27.478c0.884-0.884,1.127-2.223,0.611-3.361   c-0.489-1.077-1.561-1.76-2.731-1.76c-0.067,0-0.133,0.002-0.201,0.007c-0.967,0.065-1.947,0.097-2.914,0.097   c-7.632,0-15.138-2.029-21.705-5.868c-0.472-0.276-0.994-0.41-1.513-0.41c-0.776,0-1.544,0.301-2.122,0.879l-17.398,17.398   c-1.602,1.602-3.734,2.485-6.004,2.485c-2.271,0-4.405-0.882-6.007-2.485l-16.253-16.253c-1.604-1.6-2.487-3.729-2.489-5.996   c-0.001-2.272,0.882-4.408,2.489-6.015L85.868,85.869z"
       id="path3812"
       style="fill:#3200fc;fill-opacity:1" /><path
       d="M183.388,32.86l-16.253-16.253C160.059,9.529,150.649,5.63,140.638,5.63c-10.011,0-19.424,3.898-26.505,10.976   l-27.479,27.49c-0.884,0.884-1.127,2.224-0.61,3.362c0.489,1.076,1.561,1.759,2.73,1.759c0.067,0,0.135-0.002,0.203-0.007   c0.976-0.066,1.965-0.099,2.941-0.099c7.647,0,15.136,2.028,21.658,5.865c0.474,0.279,0.999,0.414,1.52,0.414   c0.776,0,1.544-0.301,2.122-0.879l17.41-17.41c1.599-1.6,3.732-2.48,6.005-2.48s4.406,0.881,6.005,2.48l16.253,16.253   c3.308,3.312,3.308,8.704-0.001,12.018l-48.759,48.759c-1.599,1.603-3.728,2.485-5.996,2.485c-2.273,0-4.41-0.883-6.018-2.487   L85.868,97.879c-0.563-0.562-1.326-0.879-2.121-0.879s-1.559,0.316-2.121,0.879l-16.253,16.253c-1.172,1.172-1.172,3.071,0,4.243   l16.253,16.253c7.081,7.081,16.493,10.981,26.501,10.981c10.008,0,19.42-3.9,26.501-10.981l48.76-48.76   c7.081-7.078,10.981-16.491,10.981-26.504C194.369,49.351,190.469,39.938,183.388,32.86z"
       id="path3814"
       style="fill:#3200fc;fill-opacity:1" /></g></svg>