<?xml version="1.0" encoding="UTF-8" standalone="no"?>
<!-- Generator: Adobe Illustrator 17.0.0, SVG Export Plug-In . SVG Version: 6.00 Build 0)  -->

<svg
   xmlns:dc="http://purl.org/dc/elements/1.1/"
   xmlns:cc="http://creativecommons.org/ns#"
   xmlns:rdf="http://www.w3.org/1999/02/22-rdf-syntax-ns#"
   xmlns:svg="http://www.w3.org/2000/svg"
   xmlns="http://www.w3.org/2000/svg"
   xmlns:sodipodi="http://sodipodi.sourceforge.net/DTD/sodipodi-0.dtd"
   xmlns:inkscape="http://www.inkscape.org/namespaces/inkscape"
   version="1.1"
   id="Layer_1"
   x="0px"
   y="0px"
   width="26px"
   height="26px"
   viewBox="0 0 26 26"
   enable-background="new 0 0 26 26"
   xml:space="preserve"
   inkscape:version="0.48.4 r9939"
   sodipodi:docname="resize1.svg"><metadata
     id="metadata9"><rdf:RDF><cc:Work
         rdf:about=""><dc:format>image/svg+xml</dc:format><dc:type
           rdf:resource="http://purl.org/dc/dcmitype/StillImage" /><dc:title></dc:title></cc:Work></rdf:RDF></metadata><defs
     id="defs7" /><sodipodi:namedview
     pagecolor="#ffffff"
     bordercolor="#666666"
     borderopacity="1"
     objecttolerance="10"
     gridtolerance="10"
     guidetolerance="10"
     inkscape:pageopacity="0"
     inkscape:pageshadow="2"
     inkscape:window-width="1074"
     inkscape:window-height="850"
     id="namedview5"
     showgrid="false"
     inkscape:zoom="6.419267"
     inkscape:cx="2.1915396"
     inkscape:cy="1.0362413"
     inkscape:window-x="0"
     inkscape:window-y="0"
     inkscape:window-maximized="0"
     inkscape:current-layer="Layer_1" /><path
     d="M25.5,23.577v0.962c0,0.531-0.43,0.962-0.962,0.962h-0.962c-0.531,0-0.962-0.43-0.962-0.962s0.43-0.962,0.962-0.962  c0-0.531,0.43-0.962,0.962-0.962S25.5,23.045,25.5,23.577z M24.538,11.038c-0.531,0-0.962,0.43-0.962,0.961v2  c0,0.531,0.43,0.961,0.962,0.961S25.5,14.531,25.5,14v-2C25.5,11.469,25.07,11.038,24.538,11.038z M24.538,5.25  c-0.531,0-0.962,0.431-0.962,0.962v2c0,0.531,0.43,0.962,0.962,0.962S25.5,8.742,25.5,8.211v-2C25.5,5.68,25.07,5.25,24.538,5.25z   M24.538,16.826c-0.531,0-0.962,0.43-0.962,0.962v2c0,0.531,0.43,0.962,0.962,0.962s0.962-0.43,0.962-0.962v-2  C25.5,17.256,25.07,16.826,24.538,16.826z M24.538,0.5h-0.962c-0.531,0-0.962,0.431-0.962,0.962s0.43,0.962,0.962,0.962  c0,0.531,0.43,0.962,0.962,0.962S25.5,2.954,25.5,2.423V1.462C25.5,0.931,25.07,0.5,24.538,0.5z M17.788,2.423h2  c0.531,0,0.962-0.431,0.962-0.962S20.32,0.5,19.788,0.5h-2c-0.531,0-0.962,0.431-0.962,0.962S17.256,2.423,17.788,2.423z   M6.211,2.423h2c0.531,0,0.962-0.431,0.962-0.962S8.742,0.5,8.211,0.5h-2C5.68,0.5,5.25,0.931,5.25,1.462S5.68,2.423,6.211,2.423z   M12,2.423h2c0.531,0,0.961-0.431,0.961-0.962S14.531,0.5,14,0.5h-2c-0.531,0-0.961,0.431-0.961,0.962S11.469,2.423,12,2.423z   M1.462,3.385c0.531,0,0.962-0.431,0.962-0.962c0.531,0,0.962-0.431,0.962-0.962S2.954,0.5,2.423,0.5H1.462  C0.931,0.5,0.5,0.931,0.5,1.462v0.962C0.5,2.954,0.931,3.385,1.462,3.385z M1.462,9.173c0.531,0,0.962-0.431,0.962-0.962v-2  c0-0.531-0.431-0.962-0.962-0.962S0.5,5.68,0.5,6.211v2C0.5,8.742,0.931,9.173,1.462,9.173z M19.788,23.577h-2  c-0.531,0-0.962,0.43-0.962,0.962s0.43,0.962,0.962,0.962h2c0.531,0,0.962-0.43,0.962-0.962S20.32,23.577,19.788,23.577z   M21.176,4.405l-5.95,0.743c-0.263,0.032-0.324,0.213-0.138,0.399l2.038,2.038l-6.375,6.376H2.423V12  c0-0.531-0.431-0.961-0.962-0.961S0.5,11.469,0.5,12v2c0,0.171,0.056,0.323,0.134,0.461C0.556,14.6,0.5,14.752,0.5,14.923v2.865v2  v3.789v0.962c0,0.531,0.431,0.962,0.962,0.962h0.962h3.788h2h2.866c0.171,0,0.323-0.056,0.462-0.134  C11.677,25.444,11.829,25.5,12,25.5h2c0.531,0,0.961-0.43,0.961-0.962s-0.43-0.962-0.961-0.962h-1.962V15.25l6.376-6.377  l2.036,2.036c0.188,0.187,0.367,0.125,0.4-0.138l0.743-5.95C21.627,4.561,21.439,4.372,21.176,4.405z"
     id="path3"
     style="fill:#008800;fill-opacity:1" /><g
     style="fill:#3200fc;fill-opacity:1"
     id="g3810"
     transform="matrix(-0.00431365,-0.11114958,0.10611679,-0.00417121,2.3839117,24.099012)"><path
       style="fill:#3200fc;fill-opacity:1"
       id="path3812"
       d="m 85.868,85.869 c 1.599,-1.6 3.732,-2.48 6.005,-2.48 2.273,0 4.406,0.881 6.005,2.48 l 16.253,16.253 c 0.563,0.562 1.326,0.879 2.121,0.879 0.795,0 1.559,-0.316 2.121,-0.879 l 16.253,-16.253 c 0.563,-0.562 0.879,-1.326 0.879,-2.121 0,-0.795 -0.316,-1.559 -0.879,-2.121 L 118.373,65.374 C 111.292,58.295 101.88,54.397 91.872,54.397 c -10.008,0 -19.42,3.898 -26.501,10.976 L 16.61,114.134 c -7.081,7.081 -10.981,16.494 -10.981,26.505 0,10.012 3.9,19.422 10.982,26.498 l 16.252,16.252 c 7.075,7.081 16.486,10.981 26.497,10.981 10.011,0 19.424,-3.9 26.506,-10.981 l 27.478,-27.478 c 0.884,-0.884 1.127,-2.223 0.611,-3.361 -0.489,-1.077 -1.561,-1.76 -2.731,-1.76 -0.067,0 -0.133,0.002 -0.201,0.007 -0.967,0.065 -1.947,0.097 -2.914,0.097 -7.632,0 -15.138,-2.029 -21.705,-5.868 -0.472,-0.276 -0.994,-0.41 -1.513,-0.41 -0.776,0 -1.544,0.301 -2.122,0.879 l -17.398,17.398 c -1.602,1.602 -3.734,2.485 -6.004,2.485 -2.271,0 -4.405,-0.882 -6.007,-2.485 L 37.107,146.64 c -1.604,-1.6 -2.487,-3.729 -2.489,-5.996 -0.001,-2.272 0.882,-4.408 2.489,-6.015 l 48.761,-48.76 z"
       inkscape:connector-curvature="0" /><path
       style="fill:#3200fc;fill-opacity:1"
       id="path3814"
       d="M 183.388,32.86 167.135,16.607 C 160.059,9.529 150.649,5.63 140.638,5.63 c -10.011,0 -19.424,3.898 -26.505,10.976 l -27.479,27.49 c -0.884,0.884 -1.127,2.224 -0.61,3.362 0.489,1.076 1.561,1.759 2.73,1.759 0.067,0 0.135,-0.002 0.203,-0.007 0.976,-0.066 1.965,-0.099 2.941,-0.099 7.647,0 15.136,2.028 21.658,5.865 0.474,0.279 0.999,0.414 1.52,0.414 0.776,0 1.544,-0.301 2.122,-0.879 l 17.41,-17.41 c 1.599,-1.6 3.732,-2.48 6.005,-2.48 2.273,0 4.406,0.881 6.005,2.48 l 16.253,16.253 c 3.308,3.312 3.308,8.704 -0.001,12.018 l -48.759,48.759 c -1.599,1.603 -3.728,2.485 -5.996,2.485 -2.273,0 -4.41,-0.883 -6.018,-2.487 L 85.868,97.879 C 85.305,97.317 84.542,97 83.747,97 c -0.795,0 -1.559,0.316 -2.121,0.879 l -16.253,16.253 c -1.172,1.172 -1.172,3.071 0,4.243 l 16.253,16.253 c 7.081,7.081 16.493,10.981 26.501,10.981 10.008,0 19.42,-3.9 26.501,-10.981 l 48.76,-48.76 c 7.081,-7.078 10.981,-16.491 10.981,-26.504 0,-10.013 -3.9,-19.426 -10.981,-26.504 z"
       inkscape:connector-curvature="0" /></g></svg>