<?xml version="1.0" encoding="UTF-8" standalone="no"?>
<!-- Generator: Adobe Illustrator 16.0.0, SVG Export Plug-In . SVG Version: 6.00 Build 0)  -->

<svg
   xmlns:dc="http://purl.org/dc/elements/1.1/"
   xmlns:cc="http://creativecommons.org/ns#"
   xmlns:rdf="http://www.w3.org/1999/02/22-rdf-syntax-ns#"
   xmlns:svg="http://www.w3.org/2000/svg"
   xmlns="http://www.w3.org/2000/svg"
   xmlns:sodipodi="http://sodipodi.sourceforge.net/DTD/sodipodi-0.dtd"
   xmlns:inkscape="http://www.inkscape.org/namespaces/inkscape"
   version="1.1"
   id="Layer_1"
   x="0px"
   y="0px"
   width="512px"
   height="512px"
   viewBox="0 0 512 512"
   enable-background="new 0 0 512 512"
   xml:space="preserve"
   sodipodi:docname="magnifier13.svg"
   inkscape:version="0.92.2 5c3e80d, 2017-08-06"><metadata
     id="metadata15"><rdf:RDF><cc:Work
         rdf:about=""><dc:format>image/svg+xml</dc:format><dc:type
           rdf:resource="http://purl.org/dc/dcmitype/StillImage" /><dc:title></dc:title></cc:Work></rdf:RDF></metadata><defs
     id="defs13" /><sodipodi:namedview
     pagecolor="#ffffff"
     bordercolor="#666666"
     borderopacity="1"
     objecttolerance="10"
     gridtolerance="10"
     guidetolerance="10"
     inkscape:pageopacity="0"
     inkscape:pageshadow="2"
     inkscape:window-width="1157"
     inkscape:window-height="798"
     id="namedview11"
     showgrid="false"
     inkscape:zoom="0.4609375"
     inkscape:cx="253.83051"
     inkscape:cy="256"
     inkscape:window-x="609"
     inkscape:window-y="305"
     inkscape:window-maximized="0"
     inkscape:current-layer="Layer_1" /><g
     id="g8"><path
       d="M497.938,430.063L380.469,312.594c-17.5,27.219-40.656,50.375-67.875,67.875l117.469,117.469   c18.75,18.75,49.156,18.75,67.875,0C516.688,479.219,516.688,448.813,497.938,430.063z"
       id="path2" /><path
       d="M384,192C384,85.969,298.031,0,192,0S0,85.969,0,192s85.969,192,192,192S384,298.031,384,192z M192,336   c-79.406,0-144-64.594-144-144S112.594,48,192,48s144,64.594,144,144S271.406,336,192,336z"
       id="path4" /><path
       d="M80,192h32c0-44.109,35.891-80,80-80V80C130.25,80,80,130.25,80,192z"
       id="path6" /></g><text
     xml:space="preserve"
     style="font-style:normal;font-weight:bold;font-size:293.81333546px;line-height:1.25;font-family:sans-serif;letter-spacing:0px;word-spacing:0px;fill:#ff0000;fill-opacity:1;stroke:none;stroke-width:36.72709656;-inkscape-font-specification:'sans-serif, Bold';font-stretch:normal;font-variant:normal;text-anchor:start;text-align:start;writing-mode:lr;font-variant-ligatures:normal;font-variant-caps:normal;font-variant-numeric:normal;font-feature-settings:normal;"
     x="23.774248"
     y="244.36601"
     id="text827"
     transform="scale(0.50510073,1.9798031)"><tspan
       sodipodi:role="line"
       id="tspan825"
       x="23.774248"
       y="244.36601"
       style="fill:#ff0000;stroke-width:36.72709656;-inkscape-font-specification:'sans-serif, Bold';font-family:sans-serif;font-weight:bold;font-style:normal;font-stretch:normal;font-variant:normal;font-size:293.81333546px;text-anchor:start;text-align:start;writing-mode:lr;font-variant-ligatures:normal;font-variant-caps:normal;font-variant-numeric:normal;font-feature-settings:normal;">+ NEXT</tspan></text>
</svg>