<?xml version="1.0" encoding="UTF-8" standalone="no"?>
<!-- Generator: Adobe Illustrator 17.0.0, SVG Export Plug-In . SVG Version: 6.00 Build 0)  -->

<svg
   xmlns:dc="http://purl.org/dc/elements/1.1/"
   xmlns:cc="http://creativecommons.org/ns#"
   xmlns:rdf="http://www.w3.org/1999/02/22-rdf-syntax-ns#"
   xmlns:svg="http://www.w3.org/2000/svg"
   xmlns="http://www.w3.org/2000/svg"
   xmlns:sodipodi="http://sodipodi.sourceforge.net/DTD/sodipodi-0.dtd"
   xmlns:inkscape="http://www.inkscape.org/namespaces/inkscape"
   version="1.1"
   id="Capa_1"
   x="0px"
   y="0px"
   width="64px"
   height="64px"
   viewBox="0 0 64 64"
   style="enable-background:new 0 0 64 64;"
   xml:space="preserve"
   inkscape:version="0.48.4 r9939"
   sodipodi:docname="mathematical2.svg"><metadata
     id="metadata3888"><rdf:RDF><cc:Work
         rdf:about=""><dc:format>image/svg+xml</dc:format><dc:type
           rdf:resource="http://purl.org/dc/dcmitype/StillImage" /></cc:Work></rdf:RDF></metadata><defs
     id="defs3886" /><sodipodi:namedview
     pagecolor="#ffffff"
     bordercolor="#666666"
     borderopacity="1"
     objecttolerance="10"
     gridtolerance="10"
     guidetolerance="10"
     inkscape:pageopacity="0"
     inkscape:pageshadow="2"
     inkscape:window-width="640"
     inkscape:window-height="480"
     id="namedview3884"
     showgrid="false"
     inkscape:zoom="3.6875"
     inkscape:cx="32"
     inkscape:cy="32"
     inkscape:window-x="0"
     inkscape:window-y="0"
     inkscape:window-maximized="0"
     inkscape:current-layer="Capa_1" /><path
     d="m 36.801567,29.841624 h 18.050869 c 1.99402,0 3.610174,-1.631256 3.610174,-3.643907 V 7.9781786 c 0,-2.0126512 -1.616154,-3.6439074 -3.610174,-3.6439074 H 36.801567 c -1.99402,0 -3.610175,1.6312562 -3.610175,3.6439074 V 26.197717 c 0,2.012651 1.617359,3.643907 3.610175,3.643907 z m 2.736512,-14.218527 h 4.837632 V 10.74026 c 0,-0.8101612 0.651035,-1.466065 1.45129,-1.466065 0.802663,0 1.452493,0.657118 1.452493,1.466065 v 4.882837 h 4.837634 c 0.801459,0 1.451289,0.655903 1.451289,1.464851 0,0.808947 -0.64983,1.464851 -1.451289,1.464851 h -4.837634 v 4.882836 c 0,0.808947 -0.64983,1.463636 -1.452493,1.463636 -0.800255,0 -1.45129,-0.655904 -1.45129,-1.463636 v -4.882836 h -4.837632 c -0.801459,0 -1.451291,-0.655904 -1.451291,-1.464851 0.0012,-0.808948 0.649832,-1.464851 1.451291,-1.464851 z"
     id="path3876"
     inkscape:connector-curvature="0"
     style="fill:#af006f;fill-opacity:1;stroke:#78b000;stroke-opacity:1" /><path
     d="m 7.519445,59.581983 h 18.05087 c 1.994019,0 3.610174,-1.631256 3.610174,-3.643907 V 37.718537 c 0,-2.012651 -1.616155,-3.643907 -3.610174,-3.643907 H 7.519445 c -1.9940197,0 -3.6101738,1.631256 -3.6101738,3.643907 v 18.219539 c 0,2.011437 1.6161541,3.643907 3.6101738,3.643907 z m 3.552411,-18.277841 c 0.568001,-0.573307 1.484985,-0.573307 2.051783,0 l 3.420038,3.453211 3.421241,-3.453211 c 0.566798,-0.572093 1.486189,-0.572093 2.052986,0 0.566797,0.573309 0.566797,1.500076 0,2.072169 l -3.421242,3.45321 3.421242,3.451995 c 0.566797,0.572094 0.565594,1.498861 -0.0012,2.070955 -0.566797,0.572093 -1.484985,0.573308 -2.051783,0 l -3.421223,-3.451995 -3.420038,3.451995 c -0.566798,0.572093 -1.484986,0.572093 -2.051783,0 -0.565594,-0.570879 -0.566797,-1.498861 0,-2.070955 l 3.420039,-3.451995 -3.420039,-3.454424 c -0.568,-0.570879 -0.566797,-1.498861 0,-2.070955 z"
     id="path3878"
     inkscape:connector-curvature="0"
     style="fill:#af006f;fill-opacity:1;stroke:#78b000;stroke-opacity:1" /><path
     d="m 7.519445,29.841624 h 18.05087 c 1.994019,0 3.610174,-1.631256 3.610174,-3.643907 V 7.9781786 c 0,-2.0126512 -1.616155,-3.6439074 -3.610174,-3.6439074 H 7.519445 c -1.9940197,0 -3.6101738,1.6312562 -3.6101738,3.6439074 V 26.197717 c 0,2.012651 1.6161541,3.643907 3.6101738,3.643907 z m 3.610174,-13.968312 h 10.830523 c 0.664271,0 1.203391,0.544157 1.203391,1.214636 0,0.670478 -0.53912,1.214636 -1.203391,1.214636 H 11.129619 c -0.664271,0 -1.203391,-0.544158 -1.203391,-1.214636 0,-0.670479 0.53912,-1.214636 1.203391,-1.214636 z"
     id="path3880"
     inkscape:connector-curvature="0"
     style="fill:#af006f;fill-opacity:1;stroke:#78b000;stroke-opacity:1" /><path
     d="m 36.801567,59.581983 h 18.050869 c 1.99402,0 3.610174,-1.631256 3.610174,-3.643907 V 37.718537 c 0,-2.012651 -1.616154,-3.643907 -3.610174,-3.643907 H 36.801567 c -1.992816,0 -3.610175,1.631256 -3.610175,3.643907 v 18.219539 c 0,2.011437 1.617359,3.643907 3.610175,3.643907 z m 9.025434,-5.153699 c -0.996408,0 -1.805086,-0.815022 -1.805086,-1.821955 0,-1.006932 0.808678,-1.821954 1.805086,-1.821954 0.997612,0 1.805087,0.815022 1.805087,1.821954 0,1.006933 -0.806272,1.821955 -1.805087,1.821955 z m 0,-13.360995 c 0.997612,0 1.805087,0.815021 1.805087,1.821953 0,1.006934 -0.807475,1.821954 -1.805087,1.821954 -0.996408,0 -1.805086,-0.81502 -1.805086,-1.821954 0,-1.006932 0.808678,-1.821953 1.805086,-1.821953 z m -5.41526,5.617691 h 10.830521 c 0.664273,0 1.203391,0.544156 1.203391,1.214635 0,0.67048 -0.539118,1.214636 -1.203391,1.214636 H 40.411741 c -0.664273,0 -1.203392,-0.544156 -1.203392,-1.214636 0,-0.670479 0.539119,-1.214635 1.203392,-1.214635 z"
     id="path3882"
     inkscape:connector-curvature="0"
     style="fill:#af006f;fill-opacity:1;stroke:#78b000;stroke-opacity:1" /></svg>