<?xml version="1.0" encoding="UTF-8" standalone="no"?>
<!-- Generator: Adobe Illustrator 16.0.0, SVG Export Plug-In . SVG Version: 6.00 Build 0)  -->

<svg
   xmlns:dc="http://purl.org/dc/elements/1.1/"
   xmlns:cc="http://creativecommons.org/ns#"
   xmlns:rdf="http://www.w3.org/1999/02/22-rdf-syntax-ns#"
   xmlns:svg="http://www.w3.org/2000/svg"
   xmlns="http://www.w3.org/2000/svg"
   xmlns:sodipodi="http://sodipodi.sourceforge.net/DTD/sodipodi-0.dtd"
   xmlns:inkscape="http://www.inkscape.org/namespaces/inkscape"
   version="1.1"
   id="Layer_1"
   x="0px"
   y="0px"
   width="21.664px"
   height="21.665px"
   viewBox="0 0 21.664 21.665"
   enable-background="new 0 0 21.664 21.665"
   xml:space="preserve"
   inkscape:version="0.48.4 r9939"
   sodipodi:docname="mathematic.svg"><metadata
     id="metadata3892"><rdf:RDF><cc:Work
         rdf:about=""><dc:format>image/svg+xml</dc:format><dc:type
           rdf:resource="http://purl.org/dc/dcmitype/StillImage" /></cc:Work></rdf:RDF></metadata><defs
     id="defs3890" /><sodipodi:namedview
     pagecolor="#ffffff"
     bordercolor="#666666"
     borderopacity="1"
     objecttolerance="10"
     gridtolerance="10"
     guidetolerance="10"
     inkscape:pageopacity="0"
     inkscape:pageshadow="2"
     inkscape:window-width="640"
     inkscape:window-height="480"
     id="namedview3888"
     showgrid="false"
     inkscape:zoom="10.893145"
     inkscape:cx="10.832"
     inkscape:cy="10.8325"
     inkscape:window-x="0"
     inkscape:window-y="0"
     inkscape:window-maximized="0"
     inkscape:current-layer="Layer_1" /><g
     id="g3878"
     style="fill:#4d0fc1;fill-opacity:1"><path
       d="M11.694,0.416v9.28h9.556v-9.28H11.694z M20.204,6.146h-2.592v2.645h-2.251V6.146h-2.624V3.893h2.624V1.322h2.251v2.571   h2.592V6.146z"
       id="path3880"
       style="fill:#4d0fc1;fill-opacity:1" /><path
       d="M0.416,9.696h9.556v-9.28H0.416V9.696z M2.536,3.964h5.337v2.185H2.536V3.964z"
       id="path3882"
       style="fill:#4d0fc1;fill-opacity:1" /><path
       d="M0.416,21.249h9.556v-9.833H0.416V21.249z M1.812,14.203l1.254-1.253c0,0,1.999,2.13,2.128,2.13s2.13-2.13,2.13-2.13   l1.253,1.253c0,0-2.13,1.985-2.13,2.134c0,0.143,2.13,2.13,2.13,2.13l-1.253,1.25c0,0-1.983-2.129-2.13-2.129   c-0.146,0-2.128,2.129-2.128,2.129l-1.254-1.25c0,0,2.129-1.955,2.129-2.13C3.94,16.159,1.812,14.203,1.812,14.203z"
       id="path3884"
       style="fill:#4d0fc1;fill-opacity:1" /><path
       d="M11.695,21.249h9.555v-9.833h-9.555V21.249z M13.805,13.484h5.336v2.184h-5.336V13.484z M13.805,16.997h5.336v2.184h-5.336   V16.997z"
       id="path3886"
       style="fill:#4d0fc1;fill-opacity:1" /></g></svg>