<?xml version="1.0" encoding="UTF-8" standalone="no"?>
<!-- Generator: Adobe Illustrator 16.0.0, SVG Export Plug-In . SVG Version: 6.00 Build 0)  -->

<svg
   xmlns:dc="http://purl.org/dc/elements/1.1/"
   xmlns:cc="http://creativecommons.org/ns#"
   xmlns:rdf="http://www.w3.org/1999/02/22-rdf-syntax-ns#"
   xmlns:svg="http://www.w3.org/2000/svg"
   xmlns="http://www.w3.org/2000/svg"
   xmlns:sodipodi="http://sodipodi.sourceforge.net/DTD/sodipodi-0.dtd"
   xmlns:inkscape="http://www.inkscape.org/namespaces/inkscape"
   version="1.1"
   id="Layer_1"
   x="0px"
   y="0px"
   width="31.655px"
   height="30.982px"
   viewBox="0 0 31.655 30.982"
   style="enable-background:new 0 0 31.655 30.982;"
   xml:space="preserve"
   inkscape:version="0.91 r13725"
   sodipodi:docname="morecurves.svg"><metadata
     id="metadata45"><rdf:RDF><cc:Work
         rdf:about=""><dc:format>image/svg+xml</dc:format><dc:type
           rdf:resource="http://purl.org/dc/dcmitype/StillImage" /><dc:title></dc:title></cc:Work></rdf:RDF></metadata><defs
     id="defs43" /><sodipodi:namedview
     pagecolor="#ffffff"
     bordercolor="#666666"
     borderopacity="1"
     objecttolerance="10"
     gridtolerance="10"
     guidetolerance="10"
     inkscape:pageopacity="0"
     inkscape:pageshadow="2"
     inkscape:window-width="1406"
     inkscape:window-height="974"
     id="namedview41"
     showgrid="false"
     inkscape:zoom="13.268555"
     inkscape:cx="15.8275"
     inkscape:cy="20.999954"
     inkscape:window-x="2242"
     inkscape:window-y="63"
     inkscape:window-maximized="0"
     inkscape:current-layer="Layer_1" /><path
     inkscape:connector-curvature="0"
     id="path7"
     d="m 2.1576971,13.738284 c 0.6611117,0 1.1981957,-0.681751 1.2236656,-1.53502 l 5.0430529,-1.295759 c 0.196008,0.544824 0.6190309,0.928218 1.110712,0.928218 0.6788294,0 1.2303104,-0.719225 1.2303104,-1.602763 0,-0.3012385 -0.06866,-0.5794159 -0.180505,-0.8201187 l 4.189256,-5.5707555 c 0.197115,0.1744013 0.434096,0.2752948 0.689903,0.2752948 0.08084,0 0.158357,-0.012972 0.233659,-0.030268 l 2.008805,5.9094689 c -0.293457,0.2911498 -0.486144,0.7494938 -0.486144,1.2654908 0,0.88498 0.550373,1.601323 1.230311,1.601323 0.423023,0 0.795105,-0.278178 1.016583,-0.70193 l 5.09953,2.685205 c -0.0033,0.05045 -0.01218,0.09945 -0.01218,0.149898 0,0.88498 0.552588,1.602763 1.230311,1.602763 0.67883,0 1.23031,-0.717783 1.23031,-1.602763 0,-0.416545 -0.126243,-0.791292 -0.32668,-1.076676 l 2.885857,-6.2870983 c 0.133995,0.064859 0.27574,0.1037757 0.426346,0.1037757 0.678829,0 1.229202,-0.716343 1.229202,-1.5984394 0,-0.8835376 -0.55148,-1.5998806 -1.229202,-1.5998806 -0.677723,0 -1.230311,0.716343 -1.230311,1.5998806 0,0.3531269 0.09081,0.677427 0.239196,0.9411912 l -2.923508,6.3706948 c -0.09634,-0.03458 -0.196009,-0.05622 -0.300103,-0.05622 -0.387586,0 -0.72977,0.239261 -0.95457,0.60536 l -5.151578,-2.715466 c 0,0 0.0011,-0.0173 0.0011,-0.0245 0,-0.884979 -0.549265,-1.5984395 -1.229203,-1.5984395 -0.02879,0 -0.05537,0.00721 -0.08416,0.010092 L 16.322319,3.6590363 c 0.22923,-0.289708 0.370976,-0.6947229 0.370976,-1.1444191 0,-0.8820962 -0.550373,-1.59988056 -1.229203,-1.59988056 -0.67883,0 -1.229202,0.71778436 -1.229202,1.59988056 0,0.2147588 0.03322,0.4223109 0.09192,0.6111256 L 10.065573,8.7930677 C 9.9038883,8.695057 9.7255986,8.6301969 9.5340202,8.6301969 c -0.6179235,0 -1.125108,0.5967123 -1.2114844,1.3721501 L 3.2063951,11.318285 C 2.9915615,10.852734 2.6039752,10.53564 2.1554823,10.53564 c -0.6788299,0 -1.23031006,0.717785 -1.23031006,1.601322 0.002216,0.886421 0.55369486,1.601322 1.23252486,1.601322 z" /><path
     inkscape:connector-curvature="0"
     id="path9"
     d="m 28.772702,26.943786 c 0.67883,0 1.23031,-0.716344 1.23031,-1.599881 0,-0.884979 -0.55148,-1.601322 -1.23031,-1.601322 -0.334432,0 -0.636749,0.174401 -0.858227,0.456903 l -2.449546,-2.164883 c 0.06533,-0.196022 0.10188,-0.409339 0.10188,-0.635629 0,-0.884979 -0.55148,-1.599881 -1.229202,-1.599881 -0.67883,0 -1.230311,0.714902 -1.230311,1.599881 0,0.20467 0.03211,0.397808 0.08637,0.573651 l -3.293377,3.561536 c -0.171645,-0.119631 -0.363223,-0.190256 -0.569198,-0.190256 -0.241411,0 -0.462888,0.09225 -0.652252,0.246468 l -3.349855,-4.230315 c 0.08527,-0.213318 0.137317,-0.458344 0.137317,-0.716343 0,-0.883538 -0.550373,-1.601321 -1.229203,-1.601321 -0.67883,0 -1.23031,0.717783 -1.23031,1.601321 0,0.118189 0.01218,0.236379 0.03212,0.348802 L 7.2317569,27.740843 C 7.0457154,27.593827 6.828667,27.505906 6.5939003,27.505906 c -0.2380887,0 -0.4595667,0.0908 -0.6489303,0.245026 L 3.1266631,23.434137 c 0.1616789,-0.270971 0.261344,-0.606801 0.261344,-0.977224 0,-0.883538 -0.5514801,-1.599881 -1.23031,-1.599881 -0.67883,0 -1.23031005,0.716343 -1.23031005,1.599881 0,0.883538 0.55148005,1.599881 1.23031005,1.599881 0.1384237,0 0.2690957,-0.03603 0.3931233,-0.0908 l 2.923509,4.478224 c -0.068659,0.201786 -0.1118464,0.423753 -0.1118464,0.660131 0,0.882097 0.55148,1.598439 1.2292026,1.598439 0.6799373,0 1.2292026,-0.716342 1.2292026,-1.598439 0,-0.246468 -0.045403,-0.477081 -0.1218129,-0.686075 l 5.6919837,-6.617164 c 0.221477,0.270971 0.516044,0.441048 0.842723,0.441048 0.222585,0 0.42856,-0.08504 0.609064,-0.219082 l 3.36868,4.256259 c -0.07088,0.204669 -0.112954,0.425194 -0.112954,0.663013 0,0.883537 0.550374,1.599881 1.229203,1.599881 0.67883,0 1.229203,-0.716344 1.229203,-1.599881 0,-0.276736 -0.0587,-0.537617 -0.156142,-0.76679 l 3.220289,-3.479379 c 0.202652,0.187374 0.446278,0.30268 0.714266,0.30268 0.248056,0 0.478393,-0.09801 0.671079,-0.263764 l 2.563606,2.267218 c -0.01771,0.109537 -0.02769,0.220523 -0.02769,0.338714 0.0011,0.884978 0.551479,1.602763 1.230309,1.602763 z" /><g
     id="g11" /><g
     id="g13" /><g
     id="g15" /><g
     id="g17" /><g
     id="g19" /><g
     id="g21" /><g
     id="g23" /><g
     id="g25" /><g
     id="g27" /><g
     id="g29" /><g
     id="g31" /><g
     id="g33" /><g
     id="g35" /><g
     id="g37" /><g
     id="g39" /><text
     xml:space="preserve"
     style="font-style:normal;font-weight:normal;font-size:25.49563599px;line-height:125%;font-family:sans-serif;letter-spacing:0px;word-spacing:0px;fill:#eb6900;fill-opacity:0.6440678;stroke:none;stroke-width:1px;stroke-linecap:butt;stroke-linejoin:miter;stroke-opacity:1"
     x="6.3520784"
     y="24.606485"
     id="text4173"
     sodipodi:linespacing="125%"
     transform="scale(1.0828141,0.92351955)"><tspan
       sodipodi:role="line"
       id="tspan4175"
       x="6.3520784"
       y="24.606485">+</tspan></text>
</svg>