<?xml version="1.0" encoding="UTF-8" standalone="no"?>
<!-- Generator: Adobe Illustrator 16.0.0, SVG Export Plug-In . SVG Version: 6.00 Build 0)  -->

<svg
   xmlns:dc="http://purl.org/dc/elements/1.1/"
   xmlns:cc="http://creativecommons.org/ns#"
   xmlns:rdf="http://www.w3.org/1999/02/22-rdf-syntax-ns#"
   xmlns:svg="http://www.w3.org/2000/svg"
   xmlns="http://www.w3.org/2000/svg"
   xmlns:sodipodi="http://sodipodi.sourceforge.net/DTD/sodipodi-0.dtd"
   xmlns:inkscape="http://www.inkscape.org/namespaces/inkscape"
   version="1.1"
   id="Capa_1"
   x="0px"
   y="0px"
   width="26.646px"
   height="31.863px"
   viewBox="0 0 26.646 31.863"
   enable-background="new 0 0 26.646 31.863"
   xml:space="preserve"
   inkscape:version="0.48.4 r9939"
   sodipodi:docname="movie.svg"><metadata
     id="metadata3952"><rdf:RDF><cc:Work
         rdf:about=""><dc:format>image/svg+xml</dc:format><dc:type
           rdf:resource="http://purl.org/dc/dcmitype/StillImage" /></cc:Work></rdf:RDF></metadata><defs
     id="defs3950" /><sodipodi:namedview
     pagecolor="#ffffff"
     bordercolor="#666666"
     borderopacity="1"
     objecttolerance="10"
     gridtolerance="10"
     guidetolerance="10"
     inkscape:pageopacity="0"
     inkscape:pageshadow="2"
     inkscape:window-width="640"
     inkscape:window-height="480"
     id="namedview3948"
     showgrid="false"
     inkscape:zoom="7.4067098"
     inkscape:cx="13.323"
     inkscape:cy="15.9315"
     inkscape:window-x="0"
     inkscape:window-y="0"
     inkscape:window-maximized="0"
     inkscape:current-layer="Capa_1" /><g
     id="g3944"
     style="fill:#270fc1;fill-opacity:1"><path
       d="M25.62,15.441c0,0-16.851,0-21.492,0l0.72-0.511c5.334-3.08,17.138-10.487,17.138-10.487   c0.49-0.282,0.657-0.912,0.376-1.402l-1.026-2.528c-0.284-0.492-0.911-0.657-1.403-0.373L0.513,11.94   c-0.493,0.284-0.657,0.912-0.376,1.402l1.86,2.016l0.014,15.478c0,0.569,0.461,1.027,1.025,1.027H25.62   c0.564,0,1.026-0.458,1.026-1.027V16.469C26.646,15.899,26.185,15.441,25.62,15.441z M18.174,16.175l-3.168,3.079H10.9l3.081-3.079   H18.174z M16.837,2.944l3.645-2.338L19.95,4.038l-3.728,2.392L16.837,2.944z M10.342,6.939l3.707-2.31l-0.662,3.479l-3.703,2.308   L10.342,6.939z M2.955,14.627l0.62-3.487l3.68-2.349l-0.623,3.48L2.955,14.627z M6.793,16.175h4.106l-3.077,3.079H3.716   L6.793,16.175z M24.877,30.614H3.76v-9.759h21.117V30.614z M22.256,19.254h-4.171l3.082-3.079h4.073L22.256,19.254z"
       id="path3946"
       style="fill:#270fc1;fill-opacity:1" /></g></svg>