<?xml version="1.0" encoding="UTF-8" standalone="no"?>
<!-- Generator: Adobe Illustrator 16.0.4, SVG Export Plug-In . SVG Version: 6.00 Build 0)  -->

<svg
   xmlns:dc="http://purl.org/dc/elements/1.1/"
   xmlns:cc="http://creativecommons.org/ns#"
   xmlns:rdf="http://www.w3.org/1999/02/22-rdf-syntax-ns#"
   xmlns:svg="http://www.w3.org/2000/svg"
   xmlns="http://www.w3.org/2000/svg"
   xmlns:sodipodi="http://sodipodi.sourceforge.net/DTD/sodipodi-0.dtd"
   xmlns:inkscape="http://www.inkscape.org/namespaces/inkscape"
   version="1.1"
   id="Capa_1"
   x="0px"
   y="0px"
   width="22.705px"
   height="21.018px"
   viewBox="0 0 22.705 21.018"
   enable-background="new 0 0 22.705 21.018"
   xml:space="preserve"
   sodipodi:docname="newinst.svg"
   inkscape:version="0.92.2 5c3e80d, 2017-08-06"><metadata
     id="metadata15"><rdf:RDF><cc:Work
         rdf:about=""><dc:format>image/svg+xml</dc:format><dc:type
           rdf:resource="http://purl.org/dc/dcmitype/StillImage" /><dc:title></dc:title></cc:Work></rdf:RDF></metadata><defs
     id="defs13" /><sodipodi:namedview
     pagecolor="#ffffff"
     bordercolor="#666666"
     borderopacity="1"
     objecttolerance="10"
     gridtolerance="10"
     guidetolerance="10"
     inkscape:pageopacity="0"
     inkscape:pageshadow="2"
     inkscape:window-width="1920"
     inkscape:window-height="1051"
     id="namedview11"
     showgrid="false"
     inkscape:zoom="15.82424"
     inkscape:cx="3.5602555"
     inkscape:cy="17.28206"
     inkscape:window-x="0"
     inkscape:window-y="0"
     inkscape:window-maximized="1"
     inkscape:current-layer="Capa_1" /><path
     inkscape:connector-curvature="0"
     id="path2"
     d="m 19.633086,11.012458 c 0.480785,-0.146944 0.913491,-0.304728 1.293611,-0.475762 0,-0.7407427 0,-1.605545 0,-1.605545 h 1.760874 c 0.0076,-0.048179 0.02554,-0.096356 0.02554,-0.1445351 V 4.054294 C 22.711575,2.2692849 17.71295,0.82152448 11.546889,0.82152448 5.3793233,0.82152448 0.37916317,2.2692849 0.37916317,4.054294 v 4.7323219 c 0,1.7862141 5.00016013,3.2339741 11.16772583,3.2339741 1.493437,0 2.914756,-0.08672 4.21588,-0.239687 l 2.414439,-1.9319535 c 0,-0.00241 0.7963,0.6347495 1.455876,1.1635085 z M 2.622326,4.0530896 c 0,-1.4284891 3.9950199,-2.5835658 8.924565,-2.5835658 4.928041,0 8.921559,1.1550767 8.921559,2.5835658 C 20.466911,5.4815787 16.473431,6.63786 11.546891,6.63786 6.6173459,6.6366555 2.622326,5.4803742 2.622326,4.0530896 Z"
     style="stroke-width:1.34522963" /><path
     inkscape:connector-curvature="0"
     id="path4"
     d="m 11.784132,15.262995 c 0.05231,-0.157784 0.111145,-0.313159 0.173265,-0.464921 -0.274608,-0.304728 -0.992731,-1.098468 -1.356696,-1.500757 -0.6778036,0.07347 -1.3872086,0.115628 -2.1227669,0.115628 -4.277135,0 -7.77185398,-1.32611 -8.06934644,-3.001513 -0.0130772,0.07468 -0.0294217,0.151762 -0.0294217,0.230052 v 4.733526 c 0,1.783804 3.62657464,3.23277 8.09985844,3.23277 0.3650549,0 0.7224817,-0.01325 1.0755496,-0.03131 V 15.2642 c 0,-0.0012 1.699957,-0.0012 2.229558,-0.0012 z"
     style="stroke-width:1.14565206" /><path
     inkscape:connector-curvature="0"
     id="path6"
     d="M 14.74734,4.5244177 V 3.7230859 H 13.947391 C 13.892798,3.4374304 13.779805,3.172346 13.620765,2.9409226 l 0.564,-0.5554156 -0.575393,-0.5661689 -0.564,0.5554158 C 12.809897,2.2167314 12.541192,2.1073314 12.250645,2.0521639 V 1.2648575 h -0.81324 v 0.7868388 c -0.289122,0.056103 -0.558303,0.1655028 -0.793303,0.3225901 L 10.080104,1.8188706 9.5037607,2.3850394 10.06776,2.940455 C 9.9087195,3.1718778 9.7962057,3.4369631 9.741134,3.7226185 H 8.9421351 v 0.801332 h 0.7994742 c 0.055542,0.2842534 0.1675845,0.5507406 0.3266247,0.7821638 L 9.504236,5.8610624 10.080578,6.4276983 10.644576,5.872283 c 0.235001,0.1570868 0.504182,0.2674218 0.793304,0.3225895 v 0.7863713 h 0.813241 V 6.1948725 c 0.28912,-0.054701 0.559251,-0.1655027 0.794726,-0.3221224 L 13.609846,6.4276983 14.185714,5.8610624 13.621715,5.3061143 C 13.78123,5.0746911 13.893271,4.8091384 13.948341,4.5239505 H 14.74734 Z M 11.844262,4.99755 c -0.489463,0 -0.887301,-0.3913156 -0.887301,-0.8742655 0,-0.482482 0.397838,-0.8733301 0.887301,-0.8733301 0.48994,0 0.888253,0.3908481 0.888253,0.8733301 0,0.4829499 -0.397838,0.8742655 -0.888253,0.8742655 z"
     style="fill:#2f9a00;fill-opacity:1;stroke-width:0.47112036" /><text
     xml:space="preserve"
     style="font-style:normal;font-weight:normal;font-size:17.72416115px;line-height:1.25;font-family:sans-serif;letter-spacing:0px;word-spacing:0px;fill:#c10000;fill-opacity:1;stroke:none;stroke-width:0.44310409"
     x="3.8163836"
     y="19.463861"
     id="text864"
     transform="scale(1.0628355,0.94087935)"><tspan
       sodipodi:role="line"
       id="tspan862"
       x="3.8163836"
       y="19.463861"
       style="stroke-width:0.44310409">+</tspan></text>
<g
     id="Layer_3"
     transform="matrix(0.02189533,0,0,0.01844011,11.788353,12.384887)"><path
       id="path48593"
       d="m 358.774,0.007 c -2.988,0.072 -8.215,0.669 -14.845,1.732 -3.712,0.595 -15.525,2.296 -26.25,3.78 -10.725,1.485 -25.406,3.517 -32.625,4.517 -7.219,0.999 -16.5,2.318 -20.625,2.931 -4.125,0.612 -15.094,2.141 -24.375,3.397 -9.281,1.256 -20.081,2.768 -24,3.359 -3.919,0.591 -14.719,2.118 -24,3.395 -22.933,3.155 -46.739,6.492 -56.25,7.884 -4.331,0.634 -15.13,2.173 -23.997,3.419 -8.867,1.246 -16.319,2.503 -16.56,2.793 -0.405,0.488 -3.119,24.115 -4.068,35.404 -1.253,14.913 -2.622,47.627 -2.62,62.625 0.001,15.33 1.467,54.09 2.623,69.375 1.39,18.378 3.703,40.997 4.267,41.733 0.362,0.473 1.912,1.09 3.444,1.372 1.532,0.281 9.199,2.174 17.036,4.207 31.881,8.267 38.358,9.952 40.688,10.59 2.332,0.639 2.437,0.829 2.437,4.383 0,2.043 -0.185,3.715 -0.41,3.715 -0.225,0 -6.385,-1.713 -13.687,-3.806 -7.303,-2.092 -17.834,-5.087 -23.403,-6.656 -5.569,-1.569 -19.933,-5.633 -31.92,-9.032 L 67.84,244.944 35.829,276.936 C 18.223,294.531 3.652,309.673 3.448,310.585 2.786,313.547 1.124,327.067 0,333.351 c 3.348,2.707 1.325,1.268 13.099,7.729 12.079,6.628 80.304,43.544 127.943,69.946 l 22.862,12.671 c 5.892,-1.484 11.795,-2.938 17.65,-4.558 9.142,-2.502 17.7,-4.672 27,-7.159 9.432,-2.522 18.805,-4.986 28.125,-7.453 8.6,-2.282 17.433,-4.553 25.875,-6.803 3.506,-0.935 9.75,-2.589 13.875,-3.675 6.673,-1.749 13.324,-3.574 19.978,-5.392 1.048,-0.287 0.954,0.409 -0.642,4.75 -3.495,9.509 -2.129,20.914 3.529,29.461 5.861,8.853 16.241,16.202 27.01,19.122 2.856,0.775 6.664,1.037 12.375,0.854 6.909,-0.221 9.226,-0.628 14.25,-2.503 13.645,-5.094 24.158,-14.728 34.316,-31.449 3.519,-5.794 6.709,-12.842 10.081,-22.273 3.376,-9.443 3.581,-14.614 0.767,-19.415 -1.073,-1.832 -2.477,-3.768 -3.12,-4.301 -1.87,-1.552 -1.397,-2.061 2.394,-2.574 1.959,-0.264 7.443,-1.452 12.187,-2.639 43.868,-10.977 52.067,-21.84 28.074,-37.198 -3.643,-2.333 -26.743,-13.874 -27.768,-13.874 -0.255,0 -17.544,-7.199 -21.681,-9.028 -0.825,-0.364 -6.225,-2.541 -12,-4.835 -5.775,-2.295 -12.625,-5.053 -15.222,-6.129 l -4.723,-1.957 2.098,-1.269 c 1.153,-0.698 8.55,-4.601 16.437,-8.673 l 14.339,-7.403 2.105,-7.008 2.105,-7.008 9.806,-4.925 c 14.713,-7.39 14.106,-6.899 16.081,-13.03 4.179,-12.976 8.308,-33.725 10.214,-51.325 0.628,-5.794 1.307,-11.379 1.509,-12.41 0.202,-1.031 1.03,-9.263 1.84,-18.293 l 1.472,-16.418 -8.66,-8.332 -8.661,-8.332 1.597,-16.875 c 3.43,-36.236 3.869,-41.415 3.645,-43.002 C 422.016,59.34 410.61,47.951 391.742,29.996 375.139,14.195 361.554,0.904 361.554,0.46 c 0,-0.349 -0.987,-0.496 -2.78,-0.453 z m -9.595,287.969 2.625,1.14 c 1.444,0.626 12.075,4.954 23.625,9.618 35.423,14.304 47.399,20.182 57.183,28.064 3.793,3.055 6.277,7.795 5.671,10.818 -1.371,6.828 -17.519,14.521 -41.803,19.913 -5.665,1.258 -6.995,1.337 -8.625,0.515 -1.059,-0.534 -4.759,-1.905 -8.222,-3.047 -5.449,-1.796 -7.006,-2.009 -11.587,-1.583 -6.084,0.565 -22.036,4.149 -28.546,6.413 -2.437,0.847 -4.708,1.541 -5.048,1.541 -0.789,0 -1.07,-1.276 -2.882,-13.125 -3.386,-22.146 -4.62,-29.279 -5.157,-29.817 -0.312,-0.312 -4.937,-1.778 -10.276,-3.258 -5.34,-1.479 -11.733,-3.294 -14.208,-4.032 l -4.5,-1.341 3,-1.262 c 14.626,-6.151 14.118,-5.99 14.927,-4.707 0.668,1.06 2.892,0.119 17.295,-7.317 z"
       inkscape:connector-curvature="0"
       style="fill:#000000" /><path
       id="path48591"
       d="m 356.363,5.14 c 0.146,0.006 0.234,0.021 0.259,0.045 1.151,1.151 -1.593,63.214 -4.093,92.558 -1.589,18.663 -6.673,60.466 -8.209,67.5 -0.36,1.65 -1.21,6.881 -1.889,11.625 -1.925,13.443 -8.217,45.248 -12.39,62.625 -0.792,3.3 -2.477,10.388 -3.741,15.75 -1.265,5.363 -3.111,12.619 -4.102,16.125 -0.991,3.506 -3.032,10.763 -4.536,16.125 -1.505,5.363 -2.96,9.941 -3.235,10.175 -0.274,0.233 -4.717,-0.664 -9.873,-1.995 -5.156,-1.331 -15.281,-3.942 -22.5,-5.801 -7.219,-1.859 -19.031,-4.905 -26.25,-6.769 -20.034,-5.172 -38.646,-9.961 -54.375,-13.989 -7.837,-2.008 -19.65,-5.043 -26.25,-6.746 -6.6,-1.703 -19.762,-5.086 -29.25,-7.517 -9.487,-2.432 -23.773,-6.093 -31.747,-8.138 -7.974,-2.044 -14.601,-3.829 -14.728,-3.968 C 99.15,242.411 96.327,211.35 95.137,195.243 93.661,175.252 93.91,94.128 95.503,76.368 97.25,56.897 99.055,41.574 99.664,41.035 c 0.284,-0.252 4.903,-1.045 10.265,-1.763 5.363,-0.717 15.488,-2.11 22.5,-3.095 7.013,-0.985 16.631,-2.304 21.375,-2.932 4.744,-0.629 11.831,-1.635 15.75,-2.237 3.919,-0.602 15.9,-2.297 26.625,-3.768 10.725,-1.471 22.706,-3.163 26.625,-3.76 3.919,-0.597 9.994,-1.44 13.5,-1.872 3.506,-0.433 9.581,-1.276 13.5,-1.874 3.919,-0.597 14.719,-2.115 24,-3.373 9.281,-1.259 20.081,-2.774 24,-3.366 3.919,-0.593 14.55,-2.099 23.625,-3.345 9.075,-1.246 20.625,-2.842 25.666,-3.546 4.41,-0.617 8.245,-1.009 9.268,-0.964 z"
       inkscape:connector-curvature="0"
       style="fill:#808080" /><path
       id="path48589"
       d="m 361.746,8.118 c 0.418,0 1.487,0.759 2.375,1.688 0.887,0.928 9.023,8.775 18.079,17.437 32.822,31.397 35.239,33.774 35.853,35.25 0.624,1.498 -0.141,10.856 -2.115,25.875 -0.569,4.331 -1.407,11.925 -1.86,16.875 -0.454,4.95 -1.303,12.544 -1.886,16.875 -0.582,4.331 -1.27,10.069 -1.527,12.75 -0.926,9.642 -4.924,39.594 -6.709,50.25 -4.515,26.951 -9.534,48.978 -15.624,68.569 l -3.248,10.445 -4.452,2.348 c -2.449,1.292 -16.654,8.657 -31.567,16.368 -24.34,12.585 -28.761,14.697 -28.761,13.742 0,-0.769 4.118,-17.52 7.49,-30.472 2.094,-8.044 4.437,-17.494 5.206,-21 0.769,-3.506 2.308,-10.256 3.42,-15 3.012,-12.844 8.503,-41.853 10.861,-57.375 0.814,-5.362 1.821,-11.606 2.238,-13.875 0.417,-2.269 1.268,-8.344 1.891,-13.5 0.623,-5.156 1.452,-11.737 1.841,-14.625 0.651,-4.82 1.967,-17.845 3.83,-37.875 1.349,-14.512 3.091,-47.448 3.501,-66.187 0.257,-11.778 0.682,-18.563 1.164,-18.563 z"
       inkscape:connector-curvature="0"
       style="fill:#cacaca" /><path
       id="path48587"
       d="m 317.607,33.914 c -2.372,0.019 -19.601,2.193 -26.928,3.426 -2.475,0.417 -13.275,1.951 -24,3.409 -10.725,1.458 -21.662,3.001 -24.304,3.428 -2.643,0.427 -9.562,1.411 -15.375,2.187 -5.814,0.776 -16.815,2.286 -24.446,3.357 -7.631,1.071 -19.781,2.775 -27,3.787 -7.219,1.011 -19.2,2.701 -26.625,3.754 -7.425,1.053 -17.986,2.524 -23.471,3.27 -5.485,0.745 -10.268,1.66 -10.629,2.033 -0.621,0.642 -1.801,13.857 -3.945,44.178 -1.257,17.778 -1.258,72.409 -0.001,86.25 0.524,5.775 1.502,14.665 2.174,19.755 1.063,8.063 1.423,9.341 2.796,9.926 0.867,0.369 8.832,2.51 17.701,4.759 8.869,2.249 21.356,5.437 27.75,7.084 6.394,1.648 18.881,4.854 27.75,7.125 8.869,2.271 22.116,5.67 29.438,7.553 7.322,1.882 19.303,4.961 26.625,6.842 29.305,7.527 36.551,9.445 36.862,9.756 0.553,0.552 3.076,0.358 3.077,-0.237 0,-0.63 4.785,-24.938 5.941,-30.188 1.346,-6.114 8.198,-42.161 10.121,-53.25 6.173,-35.6 12.161,-79.064 13.588,-98.625 0.24,-3.3 0.749,-9.206 1.13,-13.125 0.915,-9.407 2.408,-36.061 2.041,-36.428 -0.019,-0.018 -0.111,-0.027 -0.27,-0.026 z"
       inkscape:connector-curvature="0"
       style="fill:#000000" /><path
       id="path48585"
       d="m 312.07,38.332 c 0.542,-0.043 0.945,0.216 1.152,0.753 0.655,1.708 -1.012,33.88 -2.684,51.775 -1.813,19.412 -3.538,32.187 -7.512,55.633 -1.677,9.9 -3.693,21.881 -4.479,26.625 -2.967,17.906 -8.326,45.935 -14.4,75.312 -1.357,6.566 -2.805,12.017 -3.218,12.114 -0.412,0.098 -6.319,-1.27 -13.125,-3.041 -12.967,-3.373 -42.344,-10.937 -64.308,-16.558 -7.113,-1.821 -19.432,-4.98 -27.375,-7.021 -7.943,-2.041 -21.867,-5.614 -30.942,-7.94 -23.219,-5.95 -25.391,-6.549 -26.354,-7.271 -0.929,-0.698 -1.766,-5.953 -3.797,-23.845 -1.065,-9.391 -1.312,-17.821 -1.283,-43.875 0.022,-19.19 0.41,-36.315 0.957,-42.288 0.505,-5.522 1.397,-17.294 1.982,-26.16 0.584,-8.866 1.232,-16.289 1.44,-16.497 0.388,-0.388 7.655,-1.586 21.43,-3.534 4.331,-0.613 10.744,-1.629 14.25,-2.258 6.425,-1.151 17.855,-3.059 33.75,-5.631 4.744,-0.767 14.025,-2.272 20.625,-3.345 26.011,-4.23 69.152,-9.714 88.125,-11.202 7.631,-0.599 14.463,-1.32 15.182,-1.602 0.208,-0.082 0.404,-0.13 0.584,-0.144 z"
       inkscape:connector-curvature="0"
       style="fill:#0000ff" /><path
       id="path48583"
       d="m 416.452,123.294 c 0.616,0.155 4.08,3.086 8.045,6.827 l 7.691,7.255 -0.49,6.058 c -0.269,3.333 -0.812,8.759 -1.207,12.059 -0.395,3.3 -1.39,12.413 -2.212,20.25 -2.671,25.473 -7.274,49.061 -12.073,61.875 -0.527,1.409 -3.305,3.217 -11.162,7.266 -5.753,2.964 -10.633,5.109 -10.844,4.766 -0.212,-0.342 0.117,-2.046 0.731,-3.785 3.125,-8.857 11.946,-49.716 13.52,-62.622 0.252,-2.062 0.929,-6.45 1.505,-9.75 1.061,-6.084 3.532,-26.098 5.109,-41.379 0.475,-4.608 1.061,-8.575 1.302,-8.814 0.015,-0.015 0.044,-0.016 0.085,-0.006 z"
       inkscape:connector-curvature="0"
       style="fill:#cacaca" /><path
       id="path48581"
       d="m 69.625,250.904 c 1.678,0.07 4.954,0.831 10.458,2.404 5.69,1.626 15.746,4.476 22.346,6.331 6.6,1.855 21.113,5.951 32.25,9.101 28.596,8.089 43.084,12.169 46.125,12.992 1.444,0.391 6.675,1.894 11.625,3.34 4.95,1.446 12.881,3.702 17.625,5.014 4.744,1.311 19.931,5.586 33.75,9.501 13.819,3.914 28.163,7.966 31.875,9.003 3.713,1.037 8.944,2.518 11.625,3.291 12.905,3.718 17.425,5.634 31.78,9.097 L 165.312,396.278 8.065,311.021 36.932,282.088 c 16.636,-16.676 30.822,-30.639 31.526,-31.029 0.227,-0.125 0.608,-0.178 1.167,-0.155 z"
       inkscape:connector-curvature="0"
       style="fill:#808080" /><path
       id="path48579"
       d="m 74.659,254.02 c -1.226,-0.44 -48.73,49.439 -48.73,51.165 0,1.245 8.096,5.22 48.75,23.932 26.813,12.341 49.735,22.72 49.957,22.737 0.222,0.017 1.632,-1.842 3.46,-4.623 4.484,-6.821 19.776,-22.125 34.387,-34.247 15.816,-13.12 25.749,-22.013 25.818,-23.115 0.031,-0.491 -3.7,-2.059 -7.309,-3.158 C 168.035,282.766 75.413,254.291 74.659,254.02 Z"
       inkscape:connector-curvature="0"
       style="fill:#000000" /><path
       id="path48577"
       d="m 74.679,256.551 5.193,1.629 5.191,1.629 -5.566,4.504 -5.568,4.506 -3.844,-1.564 -3.845,-1.563 4.22,-4.57 z"
       inkscape:connector-curvature="0"
       style="fill:#666666" /><path
       id="path48575"
       d="m 87.173,260.603 5.754,1.685 c 3.164,0.926 6.009,1.934 6.323,2.241 0.315,0.306 -1.859,2.646 -4.832,5.198 -2.973,2.553 -5.594,4.632 -5.823,4.621 -0.545,-0.028 -11.565,-4.505 -11.891,-4.831 -0.139,-0.139 2.16,-2.2 5.109,-4.582 z"
       inkscape:connector-curvature="0"
       style="fill:#666666" /><path
       id="path48573"
       d="m 164.733,264.618 c 0.536,0 20.373,5.014 44.196,11.171 7.838,2.026 23.7,6.125 35.25,9.11 11.55,2.985 22.688,5.83 24.75,6.321 l 3.75,0.892 -0.234,4.065 c -0.129,2.236 -0.406,4.657 -0.614,5.379 -0.208,0.721 -0.609,1.289 -0.891,1.264 -0.503,-0.048 -14.898,-4.103 -22.261,-6.271 -4.911,-1.447 -24.165,-6.964 -30.375,-8.704 -2.681,-0.752 -15.844,-4.539 -29.25,-8.414 l -24.375,-7.048 -0.227,-3.882 c -0.125,-2.135 0.002,-3.883 0.281,-3.883 z"
       inkscape:connector-curvature="0"
       style="fill:#464646" /><path
       id="path48571"
       d="m 103.229,265.459 7.989,2.42 7.991,2.42 -6.297,5.409 c -3.464,2.976 -6.563,5.396 -6.89,5.379 -1.145,-0.058 -13.012,-4.963 -13.668,-5.65 -0.395,-0.413 1.665,-2.568 5.105,-5.336 z"
       inkscape:connector-curvature="0"
       style="fill:#666666" /><path
       id="path48569"
       d="m 65.232,266.604 2.956,0.976 c 5.219,1.722 5.219,1.733 0.044,7.459 -2.641,2.923 -5.309,5.302 -5.928,5.288 -0.619,-0.015 -2.56,-0.779 -4.315,-1.698 l -3.191,-1.67 5.217,-5.178 z"
       inkscape:connector-curvature="0"
       style="fill:#666666" /><path
       id="path48567"
       d="m 75.533,270.549 5.574,2.24 c 3.065,1.231 5.572,2.582 5.572,3.003 0,0.42 -2.025,3.12 -4.5,5.998 -2.475,2.879 -5.006,5.239 -5.625,5.245 -0.619,0.005 -3.574,-1.246 -6.568,-2.779 l -5.445,-2.788 5.496,-5.459 z"
       inkscape:connector-curvature="0"
       style="fill:#666666" /><path
       id="path48565"
       d="m 122.278,271.293 8.26,2.474 c 4.543,1.362 8.26,2.657 8.262,2.877 0.002,0.221 -3.034,3.006 -6.749,6.188 -3.714,3.182 -6.836,5.772 -6.937,5.758 -0.102,-0.015 -3.054,-1.14 -6.56,-2.499 -3.506,-1.359 -7.004,-2.7 -7.772,-2.981 -1.817,-0.663 -1.129,-1.501 6.045,-7.364 z"
       inkscape:connector-curvature="0"
       style="fill:#666666" /><path
       id="path48563"
       d="m 90.081,276.618 c 1.148,0.001 14.351,5.773 14.355,6.275 0.002,0.325 -2.252,3.264 -5.01,6.532 -2.758,3.268 -5.405,5.925 -5.881,5.905 -0.477,-0.021 -3.989,-1.628 -7.806,-3.571 l -6.939,-3.533 5.439,-5.804 c 2.992,-3.192 5.621,-5.804 5.842,-5.804 z"
       inkscape:connector-curvature="0"
       style="fill:#666666" /><path
       id="path48561"
       d="m 142.466,277.488 3.232,0.979 c 1.777,0.538 6.2,1.886 9.829,2.995 l 6.596,2.017 -3.596,2.696 c -1.979,1.482 -5.513,4.495 -7.855,6.694 -2.341,2.199 -4.366,3.976 -4.5,3.948 -0.133,-0.028 -0.918,-0.353 -1.743,-0.724 -0.825,-0.37 -4.526,-1.833 -8.225,-3.249 -3.698,-1.416 -6.84,-2.922 -6.981,-3.347 -0.142,-0.425 2.78,-3.299 6.493,-6.39 z"
       inkscape:connector-curvature="0"
       style="fill:#666666" /><path
       id="path48559"
       d="m 54.259,277.957 3.648,1.709 c 2.006,0.94 3.647,1.981 3.647,2.315 0,0.334 -2.427,3.82 -5.393,7.747 -2.967,3.928 -5.751,7.119 -6.188,7.09 -1.569,-0.097 -9.467,-3.927 -9.258,-4.488 0.118,-0.316 3.214,-3.679 6.879,-7.474 z"
       inkscape:connector-curvature="0"
       style="fill:#666666" /><path
       id="path48557"
       d="m 63.604,283.022 c 0.855,-0.076 2.324,0.647 6.096,2.543 4.441,2.233 5.991,3.37 5.567,4.081 -0.324,0.542 -2.766,3.907 -5.429,7.478 -2.663,3.572 -5.363,6.477 -6,6.457 -0.937,-0.029 -10.957,-4.758 -11.92,-5.625 -0.215,-0.193 5.627,-8.033 10.445,-14.015 0.435,-0.541 0.727,-0.873 1.241,-0.919 z"
       inkscape:connector-curvature="0"
       style="fill:#666666" /><path
       id="path48555"
       d="m 108.337,284.146 c 1.882,0.063 14.832,5.651 14.708,6.347 -0.073,0.413 -2.524,3.534 -5.446,6.938 -2.921,3.403 -5.673,6.181 -6.116,6.172 -1.588,-0.03 -14.679,-6.663 -14.679,-7.438 0,-1.107 10.503,-12.054 11.533,-12.019 z"
       inkscape:connector-curvature="0"
       style="fill:#666666" /><path
       id="path48553"
       d="m 165.565,284.89 c 0.75,0.012 5.487,1.299 10.527,2.859 l 9.162,2.836 -4.662,4.461 c -2.565,2.453 -6.182,5.86 -8.038,7.57 l -3.375,3.109 -9.75,-3.787 c -5.362,-2.083 -9.886,-3.903 -10.053,-4.045 -0.167,-0.141 1.214,-1.594 3.069,-3.227 7.332,-6.454 11.82,-9.796 13.12,-9.776 z"
       inkscape:connector-curvature="0"
       style="fill:#666666" /><path
       id="path48549"
       d="m 78.042,289.57 c 0.213,0.116 3.508,1.721 7.322,3.567 3.814,1.846 6.936,3.728 6.937,4.184 0.002,0.455 -2.393,4.083 -5.32,8.062 -2.928,3.979 -5.543,7.207 -5.813,7.174 -1.077,-0.135 -15.114,-7.46 -15.114,-7.887 0,-0.756 11.569,-15.327 11.988,-15.1 z"
       inkscape:connector-curvature="0"
       style="fill:#666666" /><path
       id="path48547"
       d="m 126.691,291.388 8.351,3.259 c 4.594,1.793 8.531,3.549 8.75,3.903 0.219,0.354 -2.414,3.58 -5.851,7.169 -3.436,3.588 -6.757,6.594 -7.379,6.679 -1.411,0.194 -16.508,-6.948 -16.508,-7.809 0,-0.346 2.844,-3.458 6.32,-6.915 z"
       inkscape:connector-curvature="0"
       style="fill:#666666" /><path
       id="path48545"
       d="m 39.212,293.18 5.205,2.62 5.203,2.621 -4.289,6.161 c -2.359,3.389 -4.316,6.195 -4.346,6.236 -0.031,0.041 -2.863,-1.229 -6.293,-2.824 l -6.237,-2.901 5.378,-5.957 z"
       inkscape:connector-curvature="0"
       style="fill:#666666" /><path
       id="path48543"
       d="m 277.717,293.456 c 0.226,-0.226 27.61,6.507 28.274,6.953 0.62,0.415 -0.566,1.013 -8.604,4.334 -4.492,1.856 -8.345,3.334 -8.562,3.284 -2.106,-0.481 -12.357,-3.744 -12.635,-4.022 -0.353,-0.354 1.053,-10.075 1.527,-10.549 z"
       inkscape:connector-curvature="0"
       style="fill:#808080" /><path
       id="path48541"
       d="m 95.131,298.399 c 1.159,-0.038 14.151,6.422 14.699,7.308 0.214,0.347 -2.133,3.899 -5.214,7.895 -3.081,3.996 -5.846,7.248 -6.145,7.228 -1.537,-0.109 -15.235,-7.634 -15.028,-8.256 0.572,-1.715 10.822,-14.147 11.688,-14.175 z"
       inkscape:connector-curvature="0"
       style="fill:#666666" /><path
       id="path48539"
       d="m 213.054,298.412 c -1.284,-0.019 -79.485,56.365 -80.371,57.949 -0.32,0.571 -0.169,1.575 0.334,2.236 0.502,0.659 9.012,5.751 18.912,11.314 9.9,5.564 18.418,10.136 18.93,10.162 0.512,0.025 27.175,-13.066 59.25,-29.091 32.076,-16.024 58.774,-28.979 59.329,-28.788 0.647,0.222 0.917,-0.13 0.75,-0.98 -0.208,-1.068 -7.652,-3.421 -38.134,-12.056 -20.831,-5.901 -38.381,-10.737 -39,-10.746 z"
       inkscape:connector-curvature="0"
       style="fill:#000000" /><path
       id="path48537"
       d="m 50.748,299.118 c 0.187,0 3.06,1.369 6.387,3.041 4.427,2.226 5.933,3.343 5.616,4.169 -0.238,0.62 -1.984,3.302 -3.88,5.959 -1.897,2.657 -3.672,4.83 -3.945,4.83 -0.408,-0.001 -11.866,-5.15 -12.766,-5.737 -0.329,-0.214 8.109,-12.262 8.588,-12.262 z"
       inkscape:connector-curvature="0"
       style="fill:#666666" /><path
       id="path48535"
       d="m 147.945,300.119 c 0.088,-0.011 0.166,-0.01 0.234,0.006 3.694,0.824 17.598,6.95 17.433,7.68 -0.101,0.446 -3.69,3.737 -7.976,7.312 -4.286,3.576 -7.998,6.494 -8.25,6.488 -0.985,-0.027 -14.374,-6.478 -15.237,-7.342 -1.289,-1.288 11.051,-13.804 13.796,-14.144 z"
       inkscape:connector-curvature="0"
       style="fill:#666666" /><path
       id="path48533"
       d="m 213.148,300.718 3.401,1.024 c 1.872,0.563 3.522,1.142 3.667,1.287 0.145,0.145 -2.656,2.278 -6.224,4.739 -3.569,2.461 -6.843,4.694 -7.276,4.961 -0.966,0.597 -6.561,-1.558 -6.257,-2.409 0.121,-0.337 3.026,-2.634 6.455,-5.107 z"
       inkscape:connector-curvature="0"
       style="fill:#666666" /><path
       id="path48531"
       d="m 225.308,304.184 7.87,2.195 7.871,2.196 -2.934,1.761 c -1.615,0.968 -5.746,3.397 -9.182,5.396 -3.436,2 -6.811,3.603 -7.5,3.561 -1.441,-0.086 -10.651,-3.997 -10.863,-4.612 -0.078,-0.226 3.206,-2.68 7.298,-5.454 z"
       inkscape:connector-curvature="0"
       style="fill:#666666" /><path
       id="path48529"
       d="m 65.165,306.627 c 0.986,-0.009 13.501,6.344 14.59,7.406 0.317,0.309 -1.126,2.986 -3.207,5.949 -2.08,2.963 -3.858,5.381 -3.95,5.373 -1.256,-0.097 -15.672,-7.376 -15.639,-7.896 0.089,-1.391 7.234,-10.824 8.206,-10.832 z"
       inkscape:connector-curvature="0"
       style="fill:#666666" /><path
       id="path48527"
       d="m 112.44,306.993 c 1.22,0 16.541,7.498 16.578,8.112 0.02,0.337 -2.557,3.796 -5.726,7.688 -3.17,3.891 -5.954,7.057 -6.188,7.037 -1.099,-0.097 -16.55,-7.802 -16.55,-8.253 0,-0.858 11.187,-14.584 11.886,-14.584 z"
       inkscape:connector-curvature="0"
       style="fill:#666666" /><path
       id="path48525"
       d="m 245.679,310.116 6.375,1.672 c 3.506,0.919 8.202,2.197 10.436,2.84 l 4.06,1.169 -11.815,5.91 c -6.498,3.251 -12.376,5.881 -13.061,5.844 -1.15,-0.062 -14.189,-5.503 -14.906,-6.22 -0.174,-0.174 4.01,-2.768 9.297,-5.766 z"
       inkscape:connector-curvature="0"
       style="fill:#666666" /><path
       id="path48523"
       d="m 198.346,311.354 2.846,1.194 c 1.566,0.657 2.85,1.44 2.855,1.74 0.004,0.3 -0.921,1.138 -2.055,1.862 -1.135,0.723 -4.342,2.924 -7.128,4.891 -2.786,1.967 -5.317,3.568 -5.625,3.557 -0.804,-0.029 -4.69,-2.504 -4.658,-2.967 0.014,-0.214 3.116,-2.614 6.895,-5.333 z"
       inkscape:connector-curvature="0"
       style="fill:#666666" /><path
       id="path48521"
       d="m 6.687,312.403 -0.004,0.009 v -0.005 z"
       inkscape:connector-curvature="0"
       style="fill:#00ff00" /><path
       id="path48519"
       d="m 6.501,314.442 156.823,85.025 -1.068,17.621 C 110.542,387.099 51.242,358.427 5.063,330.388 c 0,0 0.957,-10.554 1.438,-15.946 z"
       inkscape:connector-curvature="0"
       style="fill:#c5c5c5" /><path
       id="path48517"
       d="m 81.511,314.952 c 0.269,-0.313 13.566,6.363 15.062,7.561 0.657,0.527 -0.022,1.988 -2.574,5.536 -1.907,2.651 -3.996,4.793 -4.644,4.76 -0.647,-0.032 -4.462,-1.635 -8.48,-3.562 l -7.305,-3.504 3.846,-5.25 c 2.114,-2.887 3.957,-5.381 4.095,-5.541 z"
       inkscape:connector-curvature="0"
       style="fill:#666666" /><path
       id="path48515"
       d="m 131.421,316.368 c 0.883,0 13.401,5.896 14.665,6.907 0.66,0.528 -1.018,2.645 -6.166,7.784 -3.888,3.883 -7.164,7.012 -7.28,6.955 -6.439,-3.188 -13.333,-7.206 -13.334,-7.772 -0.003,-1.029 11.214,-13.874 12.115,-13.874 z"
       inkscape:connector-curvature="0"
       style="fill:#666666" /><path
       id="path48513"
       d="m 208.411,316.504 c 2.38,0.099 10.667,3.764 10.381,4.708 -0.12,0.396 -3.738,2.832 -8.041,5.414 -4.302,2.582 -8.328,4.688 -8.947,4.676 -1.327,-0.022 -9.008,-4.355 -8.984,-5.068 0.022,-0.652 13.489,-9.247 15.198,-9.7 0.102,-0.027 0.234,-0.036 0.393,-0.03 z"
       inkscape:connector-curvature="0"
       style="fill:#666666" /><path
       id="path48511"
       d="m 272.502,317.48 c 0.51,0.169 3.458,1.039 6.552,1.935 l 5.625,1.63 -13.125,6.621 c -7.219,3.642 -13.462,6.602 -13.875,6.579 -1.317,-0.076 -10.5,-4.111 -10.5,-4.614 0,-0.808 24.326,-12.481 25.323,-12.151 z"
       inkscape:connector-curvature="0"
       style="fill:#666666" /><path
       id="path48509"
       d="m 321.942,321.666 c 0,10e-4 10e-4,0 10e-4,0 0.003,0.007 0.005,0.014 0.008,0.021 z"
       inkscape:connector-curvature="0"
       style="fill:#00ff00" /><path
       id="path48507"
       d="m 182.874,322.553 2.341,1.481 c 1.287,0.814 2.339,1.576 2.339,1.692 0,0.115 -4.031,3.12 -8.959,6.676 -4.928,3.556 -9.062,6.457 -9.187,6.446 -0.844,-0.074 -4.325,-2.687 -4.171,-3.131 0.106,-0.301 4.118,-3.387 8.915,-6.857 z"
       inkscape:connector-curvature="0"
       style="fill:#666666" /><path
       id="path48505"
       d="m 223.834,323.118 c 1.671,0 14.056,5.64 14.087,6.415 0.014,0.34 -4.478,2.906 -9.983,5.702 -5.504,2.797 -10.178,5.076 -10.384,5.064 -0.858,-0.046 -11.972,-6.346 -11.985,-6.794 -0.023,-0.768 16.891,-10.387 18.265,-10.387 z"
       inkscape:connector-curvature="0"
       style="fill:#666666" /><path
       id="path48503"
       d="m 322.616,323.426 c 3.989,11.243 3.307,26.518 7.082,38.751 0.356,1.12 -0.586,1.886 -4.988,4.062 -7.365,3.64 -13.711,8.003 -18.681,12.843 l -4.15,4.043 c -47.248,12.152 -91.778,22.721 -135.934,35.08 l 1.128,-18.613 z"
       inkscape:connector-curvature="0"
       style="fill:#c5c5c5" /><path
       id="path48501"
       d="m 98.919,323.493 8.334,4.106 c 5.397,2.659 8.203,4.443 7.964,5.064 -0.202,0.527 -1.768,2.814 -3.48,5.082 -1.712,2.267 -3.326,4.094 -3.586,4.059 -0.601,-0.082 -16.12,-7.47 -16.521,-7.865 -0.317,-0.312 2.446,-4.451 5.472,-8.196 z"
       inkscape:connector-curvature="0"
       style="fill:#666666" /><path
       id="path48499"
       d="m 190.39,327.895 c 1.755,0.168 9.095,4.107 9.142,5.002 0.012,0.223 -4.334,3.176 -9.659,6.563 -5.325,3.387 -9.965,6.123 -10.312,6.079 -0.933,-0.117 -7.727,-4.721 -7.744,-5.247 -0.015,-0.504 16.543,-11.706 18.299,-12.379 0.064,-0.025 0.157,-0.029 0.274,-0.018 z"
       inkscape:connector-curvature="0"
       style="fill:#666666" /><path
       id="path48497"
       d="m 242.974,331.15 5.658,2.546 5.658,2.546 -11.431,5.773 c -6.286,3.175 -11.598,5.76 -11.805,5.74 -0.206,-0.019 -2.517,-1.261 -5.134,-2.76 -5.669,-3.245 -6.171,-2.64 7.797,-9.379 z"
       inkscape:connector-curvature="0"
       style="fill:#666666" /><path
       id="path48495"
       d="m 118.072,333.309 c 1.488,0.078 3.471,1.355 7.427,3.542 l 5.82,3.217 -3.456,4.649 c -1.9,2.558 -3.507,4.625 -3.57,4.592 -0.062,-0.032 -3.392,-1.635 -7.398,-3.562 l -7.287,-3.504 2.037,-2.667 c 3.42,-4.484 4.514,-6.367 6.427,-6.267 z"
       inkscape:connector-curvature="0"
       style="fill:#666666" /><path
       id="path48493"
       d="m 202.723,335.118 c 1.172,0 11.843,6.104 11.8,6.75 -0.013,0.206 -4.886,2.991 -10.829,6.188 -5.943,3.196 -11.077,5.789 -11.41,5.764 -0.84,-0.068 -9.944,-6.231 -9.964,-6.746 -0.026,-0.691 19.198,-11.956 20.403,-11.956 z"
       inkscape:connector-curvature="0"
       style="fill:#666666" /><path
       id="path48491"
       d="m 163.447,336.798 c 0,0 1.828,1.095 3.337,2.224 1.245,0.931 0.864,1.423 -4.695,6.054 -3.327,2.773 -6.131,5.04 -6.23,5.038 -0.099,-0.003 -1.494,-0.799 -3.101,-1.771 l -2.921,-1.768 6.668,-4.906 c 3.636,-2.676 6.942,-4.871 6.942,-4.871 z"
       inkscape:connector-curvature="0"
       style="fill:#666666" /><path
       id="path48489"
       d="m 169.969,341.868 c 0.962,0 7.812,4.822 7.627,5.37 -0.091,0.272 -2.803,2.382 -6.025,4.688 -3.222,2.306 -6.09,4.189 -6.375,4.183 -0.284,-0.004 -2.125,-1.061 -4.091,-2.346 -2.834,-1.854 -3.399,-2.55 -2.728,-3.359 1.172,-1.411 10.847,-8.536 11.592,-8.536 z"
       inkscape:connector-curvature="0"
       style="fill:#666666" /><path
       id="path48487"
       d="m 217.368,343.352 4.962,2.821 c 2.728,1.552 4.964,2.995 4.967,3.207 0.004,0.212 -5.226,2.997 -11.624,6.187 -6.397,3.191 -11.712,5.793 -11.812,5.782 -0.624,-0.066 -8.468,-5.375 -8.628,-5.84 -0.108,-0.314 4.827,-3.177 10.969,-6.364 z"
       inkscape:connector-curvature="0"
       style="fill:#666666" /><path
       id="path48485"
       d="m 148.774,347.209 2.515,1.919 c 1.383,1.055 2.515,2.075 2.515,2.267 0,0.193 -2.075,2.685 -4.61,5.538 -2.535,2.852 -4.982,5.167 -5.437,5.147 -1.166,-0.053 -7.689,-3.955 -7.888,-4.718 -0.091,-0.347 2.776,-2.774 6.37,-5.392 z"
       inkscape:connector-curvature="0"
       style="fill:#666666" /><path
       id="path48483"
       d="m 179.999,348.502 5.02,3.583 c 4.326,3.088 4.842,3.691 3.728,4.37 -0.712,0.433 -3.496,2.222 -6.188,3.976 -2.692,1.753 -5.285,3.161 -5.763,3.129 -0.961,-0.065 -7.055,-3.934 -8.548,-5.428 -0.768,-0.767 -0.265,-1.471 2.614,-3.657 1.962,-1.489 4.82,-3.441 6.352,-4.339 z"
       inkscape:connector-curvature="0"
       style="fill:#666666" /><path
       id="path48481"
       d="m 155.856,353.118 c 1.309,0 6.948,3.766 6.948,4.639 0,0.38 -2.068,2.613 -4.595,4.963 -2.527,2.35 -4.805,4.341 -5.063,4.424 -0.257,0.083 -2.095,-0.697 -4.085,-1.731 -4.137,-2.151 -4.222,-1.803 2.049,-8.357 2.073,-2.166 4.208,-3.938 4.746,-3.938 z"
       inkscape:connector-curvature="0"
       style="fill:#666666" /><path
       id="path48479"
       d="m 191.761,356.925 4.31,3.059 c 2.37,1.682 4.208,3.148 4.084,3.259 -0.124,0.111 -3.263,1.711 -6.976,3.555 l -6.75,3.355 -4.011,-2.586 -4.01,-2.587 2.51,-1.672 c 1.381,-0.921 4.386,-2.734 6.677,-4.029 z"
       inkscape:connector-curvature="0"
       style="fill:#666666" /><path
       id="path48477"
       d="m 371.177,357.781 c 1.164,0 2.033,0.17 3.044,0.473 2.827,0.847 4.258,2.364 2.229,2.364 -1.997,0 -14.945,7.104 -17.215,9.445 -1.361,1.405 -2.83,2.521 -3.265,2.479 -0.929,-0.09 -14.553,-6.005 -16.104,-6.992 -1.423,-0.905 7.581,-3.564 21.003,-6.202 5.606,-1.102 8.367,-1.569 10.308,-1.567 z"
       inkscape:connector-curvature="0"
       style="fill:#808080" /><path
       id="path48475"
       d="m 164.656,359.118 c 0.97,0 9.398,6.078 9.398,6.778 0,0.397 -0.27,0.722 -0.6,0.722 -0.331,0 -2.461,1.659 -4.736,3.687 l -4.137,3.687 -5.027,-2.805 -5.028,-2.804 4.824,-4.633 c 2.653,-2.548 5.041,-4.632 5.306,-4.632 z"
       inkscape:connector-curvature="0"
       style="fill:#666666" /><path
       id="path48605"
       d="m 382.097,360.943 c -4.055,0.01 -23.543,10.314 -23.543,12.576 0,0.355 0.591,0.866 1.313,1.134 3.199,1.189 13.644,8.622 17.034,12.123 4.113,4.246 3.312,5.289 -1.041,1.356 -4.325,-3.907 -15.906,-10.778 -28.361,-16.825 l -11.43,-5.549 -6.059,2.619 c -8.521,3.684 -13.594,6.89 -19.462,12.298 -6.615,6.096 -9.648,10.922 -11.348,18.058 -0.022,0.093 -0.037,0.182 -0.058,0.274 4.549,6.785 9.686,13.169 16.356,17.817 6.658,4.639 14.732,7.315 22.683,6.091 10.06,-1.548 19.273,-7.147 26.719,-14.08 8.036,-7.483 14.498,-16.609 20.313,-26.01 2.906,-4.698 5.338,-9.705 7.704,-14.768 -2.4,-2.98 -7.36,-6.388 -10.477,-7.083 -0.098,-0.022 -0.212,-0.031 -0.343,-0.031 z"
       inkscape:connector-curvature="0"
       style="fill:#808080" /><path
       id="path48473"
       d="m 394.116,369.852 c -2.122,4.775 -4.305,9.819 -6.989,14.158 -5.864,9.482 -12.565,19.579 -20.828,27.273 -7.68,7.151 -17.251,13.015 -27.91,14.655 -8.661,1.333 -17.29,-1.566 -24.315,-6.461 -6.315,-4.401 -11.113,-11.623 -15.378,-18.196 -1.391,8.501 0.908,15.318 7.713,23.267 5.25,6.134 15.326,12.118 22.895,13.598 4.13,0.808 16.176,-0.188 20.457,-1.69 15.521,-5.448 28.74,-19.015 39.515,-40.556 6.88,-13.753 8.143,-20.213 4.84,-26.048 z"
       inkscape:connector-curvature="0"
       style="fill:#c5c5c5" /><path
       id="path48446"
       d="m 175.614,366.394 3.125,2.263 c 1.718,1.245 3.234,2.591 3.367,2.991 0.134,0.4 -2.174,1.794 -5.127,3.098 -6.14,2.713 -6.279,2.73 -9.271,1.111 l -2.22,-1.203 2.595,-2.209 c 1.428,-1.215 3.707,-3.072 5.064,-4.129 z"
       inkscape:connector-curvature="0"
       style="fill:#666666" /></g></svg>