<?xml version="1.0" encoding="UTF-8" standalone="no"?>
<!-- Generator: Adobe Illustrator 16.0.4, SVG Export Plug-In . SVG Version: 6.00 Build 0)  -->

<svg
   xmlns:dc="http://purl.org/dc/elements/1.1/"
   xmlns:cc="http://creativecommons.org/ns#"
   xmlns:rdf="http://www.w3.org/1999/02/22-rdf-syntax-ns#"
   xmlns:svg="http://www.w3.org/2000/svg"
   xmlns="http://www.w3.org/2000/svg"
   xmlns:sodipodi="http://sodipodi.sourceforge.net/DTD/sodipodi-0.dtd"
   xmlns:inkscape="http://www.inkscape.org/namespaces/inkscape"
   version="1.1"
   id="Capa_1"
   x="0px"
   y="0px"
   width="22.705px"
   height="21.018px"
   viewBox="0 0 22.705 21.018"
   enable-background="new 0 0 22.705 21.018"
   xml:space="preserve"
   sodipodi:docname="newstructuretable.svg"
   inkscape:version="0.92.2 5c3e80d, 2017-08-06"><metadata
     id="metadata15"><rdf:RDF><cc:Work
         rdf:about=""><dc:format>image/svg+xml</dc:format><dc:type
           rdf:resource="http://purl.org/dc/dcmitype/StillImage" /><dc:title></dc:title></cc:Work></rdf:RDF></metadata><defs
     id="defs13" /><sodipodi:namedview
     pagecolor="#ffffff"
     bordercolor="#666666"
     borderopacity="1"
     objecttolerance="10"
     gridtolerance="10"
     guidetolerance="10"
     inkscape:pageopacity="0"
     inkscape:pageshadow="2"
     inkscape:window-width="2764"
     inkscape:window-height="1786"
     id="namedview11"
     showgrid="false"
     inkscape:zoom="15.82424"
     inkscape:cx="-7.0563681"
     inkscape:cy="17.28206"
     inkscape:window-x="412"
     inkscape:window-y="176"
     inkscape:window-maximized="0"
     inkscape:current-layer="Capa_1" /><path
     style="fill:#0000fc;fill-opacity:1;stroke-width:0.15205675"
     id="path3802"
     d="M 21.293567,9.062343 H 10.693578 c -0.236104,0 -0.427975,0.21541 -0.427975,0.479762 v 10.511774 c 0,0.162443 0.07281,0.305728 0.183397,0.392664 v 0.07567 h 0.153525 c 0.02944,0.0071 0.05974,0.01143 0.09105,0.01143 h 10.600133 c 0.03131,0 0.06161,-0.0043 0.09091,-0.01143 h 0.02111 v -0.0072 c 0.18153,-0.0557 0.315955,-0.240203 0.315955,-0.460926 V 9.542313 c 0,-0.264513 -0.192015,-0.479923 -0.428119,-0.479923 z m 0.06118,0.479923 v 1.382615 H 18.53155 V 9.473682 h 2.762017 c 0.03375,0 0.06118,0.03075 0.06118,0.06858 z m -0.02944,10.568605 H 18.531551 V 18.80843 h 2.823197 v 1.245449 c 0,0.02447 -0.01221,0.04508 -0.02944,0.05699 z m -10.692908,-0.05699 v -1.245449 h 1.324998 v 1.302441 H 10.66184 c -0.01723,-0.01191 -0.02944,-0.03252 -0.02944,-0.05699 z m 4.413167,-4.844467 v 1.425923 h -2.721374 v -1.425923 z m -2.721374,-0.41134 v -1.542482 h 2.721374 v 1.542482 z m 2.721374,2.248602 v 1.350578 h -2.721374 v -1.350578 z m 0,1.761756 v 1.302441 h -2.721374 v -1.302441 z m 0.366938,0 h 2.752108 v 1.302441 h -2.752108 z m 0,-0.411339 v -1.350578 h 2.752108 v 1.350578 z m 0,-1.761756 v -1.425923 h 2.752108 v 1.425923 z m 0,-1.837263 v -1.542482 h 2.752108 v 1.542482 z m 0,-1.953821 v -1.508191 h 2.752108 v 1.508191 z m 0,-1.919531 V 9.473523 h 2.752108 v 1.451199 z m -0.366938,0 H 12.324192 V 9.473523 h 2.721374 z m 0,0.41134 v 1.508191 h -2.721374 v -1.508191 z m -3.088169,1.508191 h -1.324998 v -1.508191 h 1.324998 z m 0,0.411339 v 1.542482 h -1.324998 v -1.542482 z m 0,1.953822 v 1.425923 h -1.324998 v -1.425923 z m 0,1.837262 v 1.350578 h -1.324998 v -1.350578 z m 6.574154,1.350417 v -1.350578 h 2.823197 v 1.350578 z m 0,-1.761756 v -1.425923 h 2.823197 v 1.425923 z m 0,-1.837263 v -1.542482 h 2.823197 v 1.542482 z m 0,-1.953821 v -1.508191 h 2.823197 v 1.508191 z"
     inkscape:connector-curvature="0" /><path
     inkscape:connector-curvature="0"
     id="path2"
     d="m 19.633086,11.012458 c 0.480785,-0.146944 0.913491,-0.304728 1.293611,-0.475762 0,-0.7407427 0,-1.605545 0,-1.605545 h 1.760874 c 0.0076,-0.048179 0.02554,-0.096356 0.02554,-0.1445351 V 4.054294 C 22.711575,2.2692849 17.71295,0.82152448 11.546889,0.82152448 5.3793233,0.82152448 0.37916317,2.2692849 0.37916317,4.054294 v 4.7323219 c 0,1.7862141 5.00016013,3.2339741 11.16772583,3.2339741 1.493437,0 2.914756,-0.08672 4.21588,-0.239687 l 2.414439,-1.9319535 c 0,-0.00241 0.7963,0.6347495 1.455876,1.1635085 z M 2.622326,4.0530896 c 0,-1.4284891 3.9950199,-2.5835658 8.924565,-2.5835658 4.928041,0 8.921559,1.1550767 8.921559,2.5835658 C 20.466911,5.4815787 16.473431,6.63786 11.546891,6.63786 6.6173459,6.6366555 2.622326,5.4803742 2.622326,4.0530896 Z"
     style="stroke-width:1.34522963" /><path
     inkscape:connector-curvature="0"
     id="path4"
     d="m 11.784132,15.262995 c 0.05231,-0.157784 0.111145,-0.313159 0.173265,-0.464921 -0.274608,-0.304728 -0.992731,-1.098468 -1.356696,-1.500757 -0.6778036,0.07347 -1.3872086,0.115628 -2.1227669,0.115628 -4.277135,0 -7.77185398,-1.32611 -8.06934644,-3.001513 -0.0130772,0.07468 -0.0294217,0.151762 -0.0294217,0.230052 v 4.733526 c 0,1.783804 3.62657464,3.23277 8.09985844,3.23277 0.3650549,0 0.7224817,-0.01325 1.0755496,-0.03131 V 15.2642 c 0,-0.0012 1.699957,-0.0012 2.229558,-0.0012 z"
     style="stroke-width:1.14565206" /><path
     inkscape:connector-curvature="0"
     id="path6"
     d="m 20.233044,15.698183 v -0.801332 h -0.799949 c -0.05459,-0.285656 -0.167586,-0.55074 -0.326626,-0.782164 l 0.564,-0.555415 -0.575393,-0.566169 -0.564,0.555416 c -0.235475,-0.158023 -0.50418,-0.267423 -0.794727,-0.32259 v -0.787307 h -0.81324 v 0.786839 c -0.289122,0.0561 -0.558303,0.165503 -0.793303,0.32259 l -0.563998,-0.555416 -0.576343,0.566169 0.563999,0.555416 c -0.15904,0.231423 -0.271554,0.496508 -0.326626,0.782163 h -0.798999 v 0.801332 h 0.799474 c 0.05554,0.284254 0.167585,0.550741 0.326625,0.782164 l -0.563998,0.554948 0.576342,0.566636 0.563998,-0.555415 c 0.235001,0.157087 0.504182,0.267422 0.793304,0.322589 v 0.786372 h 0.813241 v -0.786372 c 0.28912,-0.0547 0.559251,-0.165502 0.794726,-0.322122 l 0.563999,0.554948 0.575868,-0.566636 -0.563999,-0.554948 c 0.159515,-0.231423 0.271556,-0.496976 0.326626,-0.782164 h 0.798999 z m -2.903078,0.473132 c -0.489463,0 -0.887301,-0.391316 -0.887301,-0.874266 0,-0.482482 0.397838,-0.87333 0.887301,-0.87333 0.48994,0 0.888253,0.390848 0.888253,0.87333 0,0.48295 -0.397838,0.874266 -0.888253,0.874266 z"
     style="fill:#2f9a00;fill-opacity:1;stroke-width:0.47112036" /><text
     xml:space="preserve"
     style="font-style:normal;font-weight:normal;font-size:17.72416115px;line-height:1.25;font-family:sans-serif;letter-spacing:0px;word-spacing:0px;fill:#c10000;fill-opacity:1;stroke:none;stroke-width:0.44310409"
     x="3.8163836"
     y="19.463861"
     id="text864"
     transform="scale(1.0628355,0.94087935)"><tspan
       sodipodi:role="line"
       id="tspan862"
       x="3.8163836"
       y="19.463861"
       style="stroke-width:0.44310409">+</tspan></text>
</svg>