<?xml version="1.0" encoding="UTF-8" standalone="no"?>
<!-- Generator: Adobe Illustrator 16.0.0, SVG Export Plug-In . SVG Version: 6.00 Build 0)  -->

<svg
   xmlns:dc="http://purl.org/dc/elements/1.1/"
   xmlns:cc="http://creativecommons.org/ns#"
   xmlns:rdf="http://www.w3.org/1999/02/22-rdf-syntax-ns#"
   xmlns:svg="http://www.w3.org/2000/svg"
   xmlns="http://www.w3.org/2000/svg"
   xmlns:sodipodi="http://sodipodi.sourceforge.net/DTD/sodipodi-0.dtd"
   xmlns:inkscape="http://www.inkscape.org/namespaces/inkscape"
   version="1.1"
   x="0px"
   y="0px"
   width="13.373px"
   height="17.804px"
   viewBox="0 0 13.373 17.804"
   style="enable-background:new 0 0 13.373 17.804;"
   xml:space="preserve"
   id="svg4006"
   inkscape:version="0.48.4 r9939"
   sodipodi:docname="next.svg"><metadata
     id="metadata4018"><rdf:RDF><cc:Work
         rdf:about=""><dc:format>image/svg+xml</dc:format><dc:type
           rdf:resource="http://purl.org/dc/dcmitype/StillImage" /></cc:Work></rdf:RDF></metadata><defs
     id="defs4016" /><sodipodi:namedview
     pagecolor="#ffffff"
     bordercolor="#666666"
     borderopacity="1"
     objecttolerance="10"
     gridtolerance="10"
     guidetolerance="10"
     inkscape:pageopacity="0"
     inkscape:pageshadow="2"
     inkscape:window-width="640"
     inkscape:window-height="480"
     id="namedview4014"
     showgrid="false"
     inkscape:zoom="13.255448"
     inkscape:cx="6.6865001"
     inkscape:cy="8.9020004"
     inkscape:window-x="208"
     inkscape:window-y="325"
     inkscape:window-maximized="0"
     inkscape:current-layer="svg4006" /><g
     id="c93_stop"
     style="fill:#0000fd;fill-opacity:1"><path
       style="fill:#0000fd;fill-opacity:1"
       d="M0.224,0.043c0.14-0.071,0.304-0.051,0.425,0.044l10.777,8.502c0.094,0.074,0.152,0.191,0.152,0.312   c0,0.118-0.059,0.24-0.152,0.314L0.648,17.718c-0.072,0.056-0.162,0.086-0.25,0.086l-0.175-0.04C0.086,17.699,0,17.558,0,17.402   V0.403C0,0.249,0.086,0.106,0.224,0.043z"
       id="path4009" /><path
       style="fill:#0000fd;fill-opacity:1"
       d="M10.4,0.034h2.656c0.175,0,0.316,0.181,0.316,0.399v16.935c0,0.222-0.142,0.403-0.316,0.403H10.4   c-0.174,0-0.316-0.182-0.316-0.403V0.434C10.084,0.215,10.227,0.034,10.4,0.034z"
       id="path4011" /></g><g
     id="Capa_1" /></svg>