<?xml version="1.0" encoding="UTF-8" standalone="no"?>
<!-- Generator: Adobe Illustrator 16.0.0, SVG Export Plug-In . SVG Version: 6.00 Build 0)  -->

<svg
   xmlns:dc="http://purl.org/dc/elements/1.1/"
   xmlns:cc="http://creativecommons.org/ns#"
   xmlns:rdf="http://www.w3.org/1999/02/22-rdf-syntax-ns#"
   xmlns:svg="http://www.w3.org/2000/svg"
   xmlns="http://www.w3.org/2000/svg"
   xmlns:sodipodi="http://sodipodi.sourceforge.net/DTD/sodipodi-0.dtd"
   xmlns:inkscape="http://www.inkscape.org/namespaces/inkscape"
   version="1.1"
   id="Layer_1"
   x="0px"
   y="0px"
   width="31.465px"
   height="23.519px"
   viewBox="0 0 31.465 23.519"
   style="enable-background:new 0 0 31.465 23.519;"
   xml:space="preserve"
   inkscape:version="0.91 r13725"
   sodipodi:docname="open161.svg"><metadata
     id="metadata69"><rdf:RDF><cc:Work
         rdf:about=""><dc:format>image/svg+xml</dc:format><dc:type
           rdf:resource="http://purl.org/dc/dcmitype/StillImage" /></cc:Work></rdf:RDF></metadata><defs
     id="defs67" /><sodipodi:namedview
     pagecolor="#ffffff"
     bordercolor="#666666"
     borderopacity="1"
     objecttolerance="10"
     gridtolerance="10"
     guidetolerance="10"
     inkscape:pageopacity="0"
     inkscape:pageshadow="2"
     inkscape:window-width="1304"
     inkscape:window-height="532"
     id="namedview65"
     showgrid="false"
     inkscape:zoom="10.034441"
     inkscape:cx="15.7325"
     inkscape:cy="11.7595"
     inkscape:window-x="469"
     inkscape:window-y="28"
     inkscape:window-maximized="0"
     inkscape:current-layer="Layer_1" /><path
     inkscape:connector-curvature="0"
     style="fill:#552200"
     id="path5"
     d="m 30.22,3.037 0,-1.982 -0.285,-0.112 C 29.836,0.904 27.507,0 24.4,0 21.072,0 18.206,1.014 15.873,3.014 13.541,1.014 10.674,0 7.346,0 4.239,0 1.91,0.904 1.813,0.943 l -0.287,0.112 0,1.836 C 0.586,3.067 0,3.382 0,3.896 0,6.572 0,22.814 0,22.814 l 13.934,0 c 0.482,0.431 1.187,0.704 1.975,0.704 0.789,0 1.493,-0.273 1.975,-0.704 l 13.582,0 c 0,0 0,-17.979 0,-18.918 C 31.465,3.478 30.99,3.205 30.22,3.037 Z M 15.723,21.322 c -1.156,-0.478 -5.14,-1.992 -9.13,-1.992 -1.577,0 -2.974,0.242 -4.163,0.72 l 0,-18.369 C 3.124,1.449 5.016,0.902 7.346,0.902 c 3.064,0 5.697,0.927 7.847,2.733 l 0,10.965 0.53,-0.585 0,7.307 z m 13.594,-1.268 c -1.278,-0.513 -2.745,-0.772 -4.37,-0.772 -3.988,0 -7.783,1.528 -8.925,2.031 l 0,-7.299 0.532,0.585 0,-10.964 c 2.15,-1.807 4.783,-2.733 7.846,-2.733 2.322,0 4.221,0.548 4.917,0.779 l 0,18.373 z" /><path
     inkscape:connector-curvature="0"
     style="fill:#000080"
     id="path7"
     d="m 4.217,4.097 0.187,0.707 c 4.705,-1.248 8.938,1.062 8.981,1.085 L 13.74,5.25 C 13.559,5.149 9.212,2.773 4.217,4.097 Z" /><path
     inkscape:connector-curvature="0"
     style="fill:#552200"
     id="path9"
     d="m 4.217,6.167 0.187,0.707 c 4.705,-1.249 8.938,1.061 8.981,1.084 L 13.74,7.32 C 13.559,7.218 9.212,4.843 4.217,6.167 Z" /><path
     inkscape:connector-curvature="0"
     style="fill:#0000ff"
     id="path11"
     d="m 4.217,8.112 0.187,0.707 c 4.705,-1.247 8.938,1.062 8.981,1.085 L 13.74,9.265 C 13.559,9.164 9.212,6.789 4.217,8.112 Z" /><path
     inkscape:connector-curvature="0"
     style="fill:#552200"
     id="path13"
     d="m 4.217,10.244 0.187,0.707 c 4.705,-1.248 8.938,1.062 8.981,1.085 L 13.74,11.398 C 13.559,11.295 9.212,8.919 4.217,10.244 Z" /><path
     inkscape:connector-curvature="0"
     style="fill:#00ffff"
     id="path15"
     d="m 4.217,12.219 0.187,0.707 c 4.705,-1.247 8.938,1.062 8.981,1.086 l 0.355,-0.64 C 13.559,13.271 9.212,10.896 4.217,12.219 Z" /><path
     inkscape:connector-curvature="0"
     style="fill:#552200"
     id="path17"
     d="m 4.217,14.248 0.187,0.707 c 4.705,-1.248 8.938,1.061 8.981,1.084 L 13.74,15.401 C 13.559,15.299 9.212,12.925 4.217,14.248 Z" /><path
     inkscape:connector-curvature="0"
     style="fill:#00ff00"
     id="path19"
     d="m 4.217,16.283 0.187,0.706 c 4.705,-1.248 8.938,1.062 8.981,1.085 L 13.74,17.437 C 13.559,17.334 9.212,14.958 4.217,16.283 Z" /><path
     inkscape:connector-curvature="0"
     style="fill:#d40000"
     id="path21"
     d="M 18.578,5.943 C 18.621,5.92 22.853,3.611 27.559,4.858 L 27.746,4.151 C 22.75,2.828 18.405,5.204 18.223,5.305 l 0.355,0.638 z" /><path
     inkscape:connector-curvature="0"
     style="fill:#552200"
     id="path23"
     d="m 18.223,7.375 0.355,0.638 C 18.621,7.99 22.853,5.68 27.559,6.929 L 27.746,6.221 C 22.75,4.897 18.405,7.272 18.223,7.375 Z" /><path
     inkscape:connector-curvature="0"
     style="fill:#d40000"
     id="path25"
     d="m 18.223,9.319 0.355,0.639 C 18.621,9.934 22.853,7.625 27.559,8.872 L 27.746,8.165 C 22.75,6.843 18.405,9.218 18.223,9.319 Z" /><path
     inkscape:connector-curvature="0"
     style="fill:#552200"
     id="path27"
     d="m 18.223,11.452 0.355,0.638 c 0.043,-0.023 4.275,-2.332 8.981,-1.084 l 0.187,-0.707 c -4.996,-1.326 -9.341,1.05 -9.523,1.153 z" /><path
     inkscape:connector-curvature="0"
     style="fill:#d40000"
     id="path29"
     d="m 18.223,13.427 0.355,0.639 c 0.043,-0.023 4.275,-2.332 8.981,-1.085 l 0.187,-0.708 c -4.996,-1.322 -9.341,1.052 -9.523,1.154 z" /><path
     inkscape:connector-curvature="0"
     style="fill:#552200"
     id="path31"
     d="m 18.223,15.456 0.355,0.638 c 0.043,-0.023 4.275,-2.332 8.981,-1.084 l 0.187,-0.707 c -4.996,-1.324 -9.341,1.051 -9.523,1.153 z" /><path
     inkscape:connector-curvature="0"
     style="fill:#d40000"
     id="path33"
     d="m 18.223,17.49 0.355,0.637 c 0.043,-0.022 4.275,-2.333 8.981,-1.084 l 0.187,-0.707 c -4.996,-1.324 -9.341,1.052 -9.523,1.154 z" /><g
     id="g35" /><g
     id="g37" /><g
     id="g39" /><g
     id="g41" /><g
     id="g43" /><g
     id="g45" /><g
     id="g47" /><g
     id="g49" /><g
     id="g51" /><g
     id="g53" /><g
     id="g55" /><g
     id="g57" /><g
     id="g59" /><g
     id="g61" /><g
     id="g63" /></svg>