<?xml version="1.0" encoding="UTF-8" standalone="no"?>
<!-- Generator: Adobe Illustrator 16.0.4, SVG Export Plug-In . SVG Version: 6.00 Build 0)  -->

<svg
   xmlns:dc="http://purl.org/dc/elements/1.1/"
   xmlns:cc="http://creativecommons.org/ns#"
   xmlns:rdf="http://www.w3.org/1999/02/22-rdf-syntax-ns#"
   xmlns:svg="http://www.w3.org/2000/svg"
   xmlns="http://www.w3.org/2000/svg"
   xmlns:sodipodi="http://sodipodi.sourceforge.net/DTD/sodipodi-0.dtd"
   xmlns:inkscape="http://www.inkscape.org/namespaces/inkscape"
   version="1.1"
   id="Capa_1"
   x="0px"
   y="0px"
   width="216px"
   height="146px"
   viewBox="0 0 216 146"
   enable-background="new 0 0 216 146"
   xml:space="preserve"
   inkscape:version="0.48.4 r9939"
   sodipodi:docname="open96.svg"><metadata
     id="metadata4671"><rdf:RDF><cc:Work
         rdf:about=""><dc:format>image/svg+xml</dc:format><dc:type
           rdf:resource="http://purl.org/dc/dcmitype/StillImage" /></cc:Work></rdf:RDF></metadata><defs
     id="defs4669" /><sodipodi:namedview
     pagecolor="#ffffff"
     bordercolor="#666666"
     borderopacity="1"
     objecttolerance="10"
     gridtolerance="10"
     guidetolerance="10"
     inkscape:pageopacity="0"
     inkscape:pageshadow="2"
     inkscape:window-width="640"
     inkscape:window-height="480"
     id="namedview4667"
     showgrid="false"
     inkscape:zoom="1.6164384"
     inkscape:cx="108"
     inkscape:cy="73"
     inkscape:window-x="408"
     inkscape:window-y="487"
     inkscape:window-maximized="0"
     inkscape:current-layer="Capa_1" /><path
     d="m 214.40938,75.448713 c -1.62957,-3.036857 -4.11968,-5.36495 -7.45531,-6.980636 -3.33836,-1.618118 -7.01001,-2.426567 -11.01631,-2.426567 h -21.3688 V 50.193447 c 0,-6.074929 -2.44913,-11.291562 -7.34466,-15.649901 -4.89827,-4.358339 -10.75953,-6.536901 -17.58377,-6.536901 H 89.100633 v -3.169369 c 0,-6.074928 -2.449133,-11.291562 -7.344668,-15.6486854 C 76.859066,4.8302518 70.99781,2.6504746 64.172201,2.6504746 H 28.560739 c -6.825611,0 -12.686865,2.1797772 -17.583766,6.538116 C 6.0800723,13.545714 3.6323051,18.762348 3.6323051,24.837276 v 95.087164 c 0,6.07371 2.4477672,11.29035 7.3446679,15.64747 4.896901,4.35955 10.758155,6.53933 17.583766,6.53933 H 149.64326 c 4.9693,0 10.1626,-1.14034 15.57993,-3.41859 5.41595,-2.27704 9.71731,-5.16679 12.90815,-8.66683 l 32.8304,-35.953567 c 3.41212,-3.829502 5.11682,-7.790302 5.11682,-11.886046 0.001,-2.377939 -0.55457,-4.620934 -1.66918,-6.737494 z M 17.877709,24.838492 c 0,-2.640533 1.038116,-4.885959 3.115713,-6.735062 2.076231,-1.847888 4.599125,-2.773046 7.567317,-2.773046 h 35.612827 c 2.968191,0 5.489719,0.923943 7.567317,2.773046 2.07623,1.849103 3.115712,4.094529 3.115712,6.735062 v 6.339955 c 0,2.641748 1.039482,4.887174 3.115712,6.735061 2.076232,1.847887 4.599126,2.773046 7.567316,2.773046 H 149.6419 c 2.96682,0 5.49108,0.925159 7.56731,2.773047 2.07624,1.847886 3.11572,4.093312 3.11572,6.735061 V 66.042725 H 74.856595 c -5.044422,0 -10.239098,1.139125 -15.581295,3.417375 -5.342197,2.27825 -9.644914,5.166789 -12.909513,8.668049 L 17.877709,109.32705 V 24.838492 z M 199.83204,86.049749 167.11365,122.00452 c -1.85358,2.04605 -4.48849,3.79668 -7.90197,5.24703 -3.41212,1.45278 -6.60296,2.17978 -9.56978,2.17978 H 28.560739 c -3.932546,0 -5.898136,-1.15614 -5.898136,-3.46722 0,-1.05646 0.667946,-2.37673 2.003836,-3.96323 L 57.384836,86.047317 c 1.92871,-2.047264 4.580002,-3.779657 7.95661,-5.199613 3.375242,-1.419955 6.546958,-2.129933 9.515149,-2.129933 H 195.93776 c 3.93253,0 5.89813,1.157361 5.89813,3.46722 0,1.124536 -0.66658,2.413195 -2.00385,3.864758 z"
     id="path4665"
     inkscape:connector-curvature="0"
     style="fill:#006e00;fill-opacity:1;stroke:#0402fc;stroke-opacity:1;stroke-width:2;stroke-miterlimit:4;stroke-dasharray:none" /></svg>