<?xml version="1.0" encoding="UTF-8" standalone="no"?>
<!-- Generator: Adobe Illustrator 16.0.0, SVG Export Plug-In . SVG Version: 6.00 Build 0)  -->

<svg
   xmlns:dc="http://purl.org/dc/elements/1.1/"
   xmlns:cc="http://creativecommons.org/ns#"
   xmlns:rdf="http://www.w3.org/1999/02/22-rdf-syntax-ns#"
   xmlns:svg="http://www.w3.org/2000/svg"
   xmlns="http://www.w3.org/2000/svg"
   xmlns:sodipodi="http://sodipodi.sourceforge.net/DTD/sodipodi-0.dtd"
   xmlns:inkscape="http://www.inkscape.org/namespaces/inkscape"
   version="1.1"
   id="Capa_1"
   x="0px"
   y="0px"
   width="800px"
   height="800px"
   viewBox="0 0 800 800"
   enable-background="new 0 0 800 800"
   xml:space="preserve"
   inkscape:version="0.48.4 r9939"
   sodipodi:docname="pictured.svg"><metadata
     id="metadata4347"><rdf:RDF><cc:Work
         rdf:about=""><dc:format>image/svg+xml</dc:format><dc:type
           rdf:resource="http://purl.org/dc/dcmitype/StillImage" /><dc:title></dc:title></cc:Work></rdf:RDF></metadata><defs
     id="defs4345" /><sodipodi:namedview
     pagecolor="#ffffff"
     bordercolor="#666666"
     borderopacity="1"
     objecttolerance="10"
     gridtolerance="10"
     guidetolerance="10"
     inkscape:pageopacity="0"
     inkscape:pageshadow="2"
     inkscape:window-width="1215"
     inkscape:window-height="821"
     id="namedview4343"
     showgrid="false"
     inkscape:zoom="0.295"
     inkscape:cx="-208.47458"
     inkscape:cy="400"
     inkscape:window-x="305"
     inkscape:window-y="193"
     inkscape:window-maximized="0"
     inkscape:current-layer="Capa_1" /><g
     id="g4327"><path
       style="fill:#1d1d1b"
       inkscape:connector-curvature="0"
       id="path4329"
       d="M 738.925,641.581 H 61.076 c -29.14,0 -52.847,-23.706 -52.847,-52.846 V 159.202 c 0,-29.145 23.707,-52.856 52.847,-52.856 h 677.849 c 29.14,0 52.847,23.711 52.847,52.856 v 429.533 c -0.001,29.14 -23.708,52.846 -52.847,52.846 z M 61.076,126.141 c -18.225,0 -33.052,14.832 -33.052,33.062 v 429.533 c 0,18.225 14.827,33.051 33.052,33.051 h 677.849 c 18.225,0 33.052,-14.826 33.052,-33.051 V 159.202 c 0,-18.23 -14.827,-33.062 -33.052,-33.062 H 61.076 z" /></g><g
     id="g4331"><path
       style="fill:#1dacf8;fill-opacity:1;stroke:#5300d5;stroke-opacity:1"
       inkscape:connector-curvature="0"
       id="path4333"
       d="m 676.578,578.249 -553.156,0 c -24.182,0 -43.854,-19.672 -43.854,-43.853 l 0,-320.865 c 0,-24.182 19.673,-43.854 43.854,-43.854 l 553.155,0 c 24.181,0 43.854,19.673 43.854,43.854 l 0,320.865 c 10e-4,11.719 -4.561,22.732 -12.844,31.014 -8.281,8.279 -19.294,12.839 -31.009,12.839 z M 167.4898,511.5059 c -11.21208,7.09243 -25.04494,-65.84069 -30.83966,-53.9061 L 99.362,534.397 C 93.567712,546.33069 369.26854,182.0767 377.65929,192.35331 L 676.578,558.455 c 8.39012,10.27583 36.44976,-19.31923 24.059,-24.058 L 402.33092,420.31166 C 389.93923,415.57254 687.78823,182.3801 676.577,189.472 z"
       sodipodi:nodetypes="sssssssccssssssssss" /></g><g
     id="g4335"
     transform="matrix(0.90493268,0,0,1.4548716,63.427773,-247.89046)"><path
       style="fill:#1db31b;fill-opacity:1"
       inkscape:connector-curvature="0"
       id="path4337"
       d="m 643.277,544.968 -486.553,-10e-4 c -15.824,0 -21.284,-7.479 -23.131,-11.938 -1.847,-4.459 -3.273,-13.607 7.915,-24.796 l 67.32599,-164.11985 c 7.147,-7.146 57.88343,77.45747 68.04243,77.45747 10.159,0 79.62516,-63.63359 86.77116,-56.48759 L 434.7,470.754 c 3.088,3.088 7.029,-121.03125 11.1,-121.03125 4.597,0 10.90698,124.1488 11.989,119.93825 l 22.34826,-86.96578 c 7.079,-8.562 36.19474,23.80778 47.22374,23.80778 9.028,0 100.16285,-47.93069 106.97385,-41.88469 L 656.916,509.045 c 2.01955,12.91682 10.943,19.641 9.263,24.068 -1.681,4.428 -6.892,11.855 -22.902,11.855 z m -486.553,-19.796 486.553,10e-4 c 0.686,0 1.015,-0.865 0.501,-1.32 L 538.786,430.685 c -3.187,-2.828 -7.244,-4.386 -11.425,-4.386 -5.107,0 76.2228,100.15241 72.9188,104.14941 L 473.045,482.275 c -6.862,8.301 -16.792,13.062 -27.244,13.062 -9.357,0 -18.271,-3.759 -25.097,-10.586 L 282.22452,465.29051 c -3.408,-3.408 -37.93558,25.00582 -42.80758,25.00582 -4.873,0 -118.06548,-158.89304 -121.47348,-155.48504 L 155.504,522.231 c -1.045,1.045 -0.259,2.941 1.22,2.941 z"
       sodipodi:nodetypes="sssccsccsscscscsssccsccsccsccs" /></g><g
     id="g4339"><path
       style="fill:#1d1df9;stroke:#0617fd;stroke-opacity:1;fill-opacity:1"
       inkscape:connector-curvature="0"
       id="path4341"
       d="m 614.72729,405.47327 c -22.074,0 -256.98115,-136.60307 -256.98115,-158.67707 0,-22.085 245.07664,-40.054 202.74386,4.0138 22.093,0.001 101.08195,140.0029 101.08195,162.0879 10e-4,22.074 -24.75266,-7.42463 -46.84466,-7.42463 z M 560.489,270.605 c -11.158,0 -254.13431,70.10495 -20.236,20.259 10.9149,-2.32607 -129.90505,77.86512 -118.74605,77.86512 11.177,0 159.25405,-66.70612 159.25405,-77.86512 0,-11.17 -9.094,-20.258 -20.272,-20.259 z"
       sodipodi:nodetypes="ssccscsssc" /></g></svg>