<?xml version="1.0" encoding="UTF-8" standalone="no"?>
<!-- Generator: Adobe Illustrator 16.0.0, SVG Export Plug-In . SVG Version: 6.00 Build 0)  -->

<svg
   xmlns:dc="http://purl.org/dc/elements/1.1/"
   xmlns:cc="http://creativecommons.org/ns#"
   xmlns:rdf="http://www.w3.org/1999/02/22-rdf-syntax-ns#"
   xmlns:svg="http://www.w3.org/2000/svg"
   xmlns="http://www.w3.org/2000/svg"
   xmlns:sodipodi="http://sodipodi.sourceforge.net/DTD/sodipodi-0.dtd"
   xmlns:inkscape="http://www.inkscape.org/namespaces/inkscape"
   version="1.1"
   x="0px"
   y="0px"
   width="13.373px"
   height="17.803px"
   viewBox="0 0 13.373 17.803"
   style="enable-background:new 0 0 13.373 17.803;"
   xml:space="preserve"
   id="svg4668"
   inkscape:version="0.48.4 r9939"
   sodipodi:docname="previous2.svg"><metadata
     id="metadata4680"><rdf:RDF><cc:Work
         rdf:about=""><dc:format>image/svg+xml</dc:format><dc:type
           rdf:resource="http://purl.org/dc/dcmitype/StillImage" /></cc:Work></rdf:RDF></metadata><defs
     id="defs4678" /><sodipodi:namedview
     pagecolor="#ffffff"
     bordercolor="#666666"
     borderopacity="1"
     objecttolerance="10"
     gridtolerance="10"
     guidetolerance="10"
     inkscape:pageopacity="0"
     inkscape:pageshadow="2"
     inkscape:window-width="640"
     inkscape:window-height="480"
     id="namedview4676"
     showgrid="false"
     inkscape:zoom="13.256193"
     inkscape:cx="6.6865001"
     inkscape:cy="8.9014997"
     inkscape:window-x="0"
     inkscape:window-y="0"
     inkscape:window-maximized="0"
     inkscape:current-layer="svg4668" /><g
     id="c92_stop"
     style="fill:#0000fe;fill-opacity:1"><path
       style="fill:#0000fe;fill-opacity:1"
       d="M13.148,0.042c-0.139-0.07-0.303-0.051-0.424,0.043L1.948,8.587C1.854,8.664,1.795,8.78,1.795,8.9   c0,0.119,0.059,0.24,0.153,0.314l10.776,8.502c0.071,0.057,0.162,0.086,0.249,0.086l0.175-0.039   c0.139-0.064,0.225-0.207,0.225-0.361V0.403C13.373,0.249,13.287,0.107,13.148,0.042z"
       id="path4671" /><path
       style="fill:#0000fe;fill-opacity:1"
       d="M2.973,0.033H0.315C0.143,0.033,0,0.215,0,0.434v16.936c0,0.221,0.143,0.403,0.315,0.403h2.657   c0.174,0,0.315-0.183,0.315-0.403V0.434C3.288,0.215,3.146,0.033,2.973,0.033z"
       id="path4673" /></g><g
     id="Capa_1" /></svg>