<?xml version="1.0" encoding="UTF-8" standalone="no"?>
<!-- Generator: Adobe Illustrator 17.0.0, SVG Export Plug-In . SVG Version: 6.00 Build 0)  -->

<svg
   xmlns:dc="http://purl.org/dc/elements/1.1/"
   xmlns:cc="http://creativecommons.org/ns#"
   xmlns:rdf="http://www.w3.org/1999/02/22-rdf-syntax-ns#"
   xmlns:svg="http://www.w3.org/2000/svg"
   xmlns="http://www.w3.org/2000/svg"
   xmlns:sodipodi="http://sodipodi.sourceforge.net/DTD/sodipodi-0.dtd"
   xmlns:inkscape="http://www.inkscape.org/namespaces/inkscape"
   version="1.1"
   id="Capa_1"
   x="0px"
   y="0px"
   width="64px"
   height="64px"
   viewBox="0 0 64 64"
   enable-background="new 0 0 64 64"
   xml:space="preserve"
   inkscape:version="0.48.4 r9939"
   sodipodi:docname="question11.svg"><metadata
     id="metadata4762"><rdf:RDF><cc:Work
         rdf:about=""><dc:format>image/svg+xml</dc:format><dc:type
           rdf:resource="http://purl.org/dc/dcmitype/StillImage" /></cc:Work></rdf:RDF></metadata><defs
     id="defs4760" /><sodipodi:namedview
     pagecolor="#ffffff"
     bordercolor="#666666"
     borderopacity="1"
     objecttolerance="10"
     gridtolerance="10"
     guidetolerance="10"
     inkscape:pageopacity="0"
     inkscape:pageshadow="2"
     inkscape:window-width="640"
     inkscape:window-height="480"
     id="namedview4758"
     showgrid="false"
     inkscape:zoom="3.6875"
     inkscape:cx="32"
     inkscape:cy="32"
     inkscape:window-x="0"
     inkscape:window-y="0"
     inkscape:window-maximized="0"
     inkscape:current-layer="Capa_1" /><path
     d="m 43.106,1.8553659 c 0.379,0.6002146 0.731,1.229425 1.039,1.9079284 1.107,2.4429023 1.661,5.0960246 1.661,7.9622667 0,2.255878 -0.315,4.233398 -0.947,5.932556 -0.632,1.697707 -1.382,3.164899 -2.252,4.398673 -0.869,1.233775 -2.431,3.311329 -4.682,6.231214 -0.623,0.822033 -1.122,1.546929 -1.497,2.170341 -0.375,0.623411 -0.654,1.194629 -0.838,1.712205 -0.183,0.517577 -0.324,1.035153 -0.425,1.55273 -0.102,0.517576 -0.252,1.426597 -0.453,2.727061 -0.349,2.760407 -1.438,4.140611 -3.269,4.140611 -0.952,0 -1.753,-0.450886 -2.402,-1.354107 -0.65,-0.901772 -0.976,-2.242831 -0.976,-4.020278 0,-2.229782 0.238,-4.160908 0.715,-5.793375 0.476,-1.632468 1.107,-3.066314 1.895,-4.300088 0.787,-1.233775 1.849,-2.700966 3.186,-4.400123 1.172,-1.486039 2.019,-2.60673 2.54,-3.363522 0.521,-0.756792 0.961,-1.597673 1.318,-2.52844 0.356,-0.929318 0.535,-1.936924 0.535,-3.025719 0,-2.1224983 -0.545,-3.9144432 -1.634,-5.3743854 -1.09,-1.4584924 -2.494,-2.1891884 -4.216,-2.1891884 -2.014,0 -3.496,0.7364952 -4.448,2.2094856 -0.952,1.4729903 -1.758,3.6433312 -2.417,6.5095732 -0.622,2.999623 -1.803,4.500159 -3.542,4.500159 -1.025,0 -1.891,-0.523375 -2.595,-1.573025 -0.705,-1.048201 -1.058,-2.183389 -1.058,-3.404116 0,-2.5211912 0.559,-5.0771773 1.675,-7.6650589 0.529,-1.2250756 1.182,-2.3428665 1.94,-3.3693204 C 11.426,5.9568321 3.949,17.288419 3.949,30.56273 c 0,17.230797 12.592,31.199558 28.125,31.199558 15.533,0 28.125,-13.968761 28.125,-31.199558 C 60.201,17.674064 53.156,6.6135886 43.106,1.8553659 z M 34.602,54.524919 c -0.824,1.061248 -1.775,1.593323 -2.855,1.593323 -1.117,0 -2.092,-0.524826 -2.925,-1.573026 -0.833,-1.048202 -1.25,-2.513943 -1.25,-4.398675 0,-1.671611 0.403,-3.079361 1.209,-4.220348 0.805,-1.140988 1.794,-1.712207 2.966,-1.712207 1.153,0 2.123,0.571219 2.91,1.712207 0.787,1.142436 1.181,2.548737 1.181,4.220348 0,1.855736 -0.411,3.317129 -1.236,4.378378 z"
     id="path4743"
     inkscape:connector-curvature="0"
     style="fill:#cd0057;fill-opacity:1" /><g
     id="Favoritos_-_Gris" /><g
     id="Juegos_-_Naranja" /><g
     id="Comprobar_-_Naranja" /><g
     id="Música-_Gris" /><g
     id="Herramientas_-_Gris" /><g
     id="Carro_de_la_compra_-_Naranja" /><g
     id="Calendario_-_Gris" /><g
     id="Música-_Gris_1_" /><g
     id="Inicio_-_Gris" /><g
     id="Flecha_5" /><g
     id="RSS" /><g
     id="Instalaciones_de_reciclado" /><g
     id="Aeropuerto" /></svg>