<?xml version="1.0" encoding="UTF-8" standalone="no"?>
<!-- Generator: Adobe Illustrator 16.0.4, SVG Export Plug-In . SVG Version: 6.00 Build 0)  -->

<svg
   xmlns:dc="http://purl.org/dc/elements/1.1/"
   xmlns:cc="http://creativecommons.org/ns#"
   xmlns:rdf="http://www.w3.org/1999/02/22-rdf-syntax-ns#"
   xmlns:svg="http://www.w3.org/2000/svg"
   xmlns="http://www.w3.org/2000/svg"
   xmlns:sodipodi="http://sodipodi.sourceforge.net/DTD/sodipodi-0.dtd"
   xmlns:inkscape="http://www.inkscape.org/namespaces/inkscape"
   version="1.1"
   id="Capa_1"
   x="0px"
   y="0px"
   width="64px"
   height="64px"
   viewBox="0 0 64 64"
   enable-background="new 0 0 64 64"
   xml:space="preserve"
   inkscape:version="0.48.4 r9939"
   sodipodi:docname="refresh19.svg"><metadata
     id="metadata4898"><rdf:RDF><cc:Work
         rdf:about=""><dc:format>image/svg+xml</dc:format><dc:type
           rdf:resource="http://purl.org/dc/dcmitype/StillImage" /></cc:Work></rdf:RDF></metadata><defs
     id="defs4896" /><sodipodi:namedview
     pagecolor="#ffffff"
     bordercolor="#666666"
     borderopacity="1"
     objecttolerance="10"
     gridtolerance="10"
     guidetolerance="10"
     inkscape:pageopacity="0"
     inkscape:pageshadow="2"
     inkscape:window-width="640"
     inkscape:window-height="480"
     id="namedview4894"
     showgrid="false"
     inkscape:zoom="3.6875"
     inkscape:cx="32"
     inkscape:cy="32"
     inkscape:window-x="293"
     inkscape:window-y="337"
     inkscape:window-maximized="0"
     inkscape:current-layer="Capa_1" /><g
     id="g4888"
     transform="matrix(2.3278765,0,0,1.5028044,-41.74535,-15.249466)"
     style="fill:#0000fe;fill-opacity:1"><path
       d="m 22.776,29.751 c 0.111,0.131 0.273,0.217 0.445,0.25 0.283,0.056 0.652,-0.168 0.828,-0.297 0.177,-0.13 0.86,-1.477 1.829,-2.822 3.598,-4.996 9.233,-6.635 10.623,-6.973 l 1.94,1.913 c 0.69,0.689 1.309,0.56 1.627,0.241 0.234,-0.233 0.354,-0.591 0.354,-1.061 L 40.42,14.066 c 0,-1.143 -0.93,-2.073 -2.072,-2.073 l -6.937,-0.002 c -0.472,0 -0.828,0.118 -1.061,0.353 -0.319,0.319 -0.448,0.938 0.241,1.627 l 1.752,1.751 c -2.394,1.079 -8.153,4.261 -9.621,10.382 -0.387,1.611 -0.276,3.134 -0.168,3.322 0.063,0.11 0.14,0.229 0.222,0.325 z m 10.578,-13.449 0.707,-0.303 -0.668,-0.708 -2.077,-2.046 c -0.081,-0.081 -0.134,-0.151 -0.165,-0.202 0.053,-0.013 0.136,-0.025 0.26,-0.025 l 6.935,10e-4 c 0.578,0 1.049,0.471 1.049,1.049 l 0.002,6.935 c 0,0.123 -0.013,0.206 -0.025,0.26 -0.051,-0.031 -0.121,-0.084 -0.202,-0.165 l -2.347,-2.347 c -0.092,0.015 -9.042,1.765 -13.211,9.519 0.571,-8.507 9.643,-11.935 9.742,-11.968 z"
       id="path4890"
       inkscape:connector-curvature="0"
       style="fill:#0000fe;fill-opacity:1" /><path
       d="m 40.098,31.446 c -0.111,-0.131 -0.273,-0.217 -0.445,-0.251 -0.283,-0.056 -0.652,0.168 -0.828,0.297 -0.178,0.13 -0.86,1.477 -1.829,2.822 -3.599,4.996 -9.234,6.635 -10.623,6.973 l -1.941,-1.913 c -0.691,-0.688 -1.308,-0.562 -1.627,-0.241 -0.234,0.233 -0.352,0.592 -0.352,1.062 l 0.002,6.936 c 0,1.143 0.93,2.073 2.073,2.073 l 6.935,0.002 c 0.472,0 0.828,-0.118 1.062,-0.353 0.318,-0.319 0.447,-0.938 -0.241,-1.627 l -1.752,-1.752 c 2.393,-1.078 8.154,-4.261 9.621,-10.382 0.388,-1.61 0.276,-3.134 0.168,-3.322 -0.065,-0.109 -0.141,-0.228 -0.223,-0.324 z m -10.578,13.449 -0.708,0.304 0.668,0.708 2.077,2.046 c 0.081,0.081 0.134,0.151 0.165,0.202 -0.053,0.013 -0.136,0.025 -0.26,0.025 l -6.935,-0.002 c -0.578,0 -1.048,-0.471 -1.049,-1.049 l -0.002,-6.936 c 0,-0.123 0.013,-0.205 0.026,-0.26 0.05,0.031 0.121,0.084 0.202,0.166 l 2.347,2.346 c 0.092,-0.014 9.042,-1.764 13.211,-9.519 -0.573,8.508 -9.643,11.935 -9.742,11.969 z"
       id="path4892"
       inkscape:connector-curvature="0"
       style="fill:#0000fe;fill-opacity:1" /></g></svg>