<?xml version="1.0" encoding="UTF-8" standalone="no"?>
<!-- Generator: Adobe Illustrator 16.0.0, SVG Export Plug-In . SVG Version: 6.00 Build 0)  -->

<svg
   xmlns:dc="http://purl.org/dc/elements/1.1/"
   xmlns:cc="http://creativecommons.org/ns#"
   xmlns:rdf="http://www.w3.org/1999/02/22-rdf-syntax-ns#"
   xmlns:svg="http://www.w3.org/2000/svg"
   xmlns="http://www.w3.org/2000/svg"
   xmlns:sodipodi="http://sodipodi.sourceforge.net/DTD/sodipodi-0.dtd"
   xmlns:inkscape="http://www.inkscape.org/namespaces/inkscape"
   version="1.1"
   id="Layer_1"
   x="0px"
   y="0px"
   width="100px"
   height="100px"
   viewBox="0 0 100 100"
   enable-background="new 0 0 100 100"
   xml:space="preserve"
   inkscape:version="0.48.4 r9939"
   sodipodi:docname="repair6.svg"><metadata
     id="metadata3098"><rdf:RDF><cc:Work
         rdf:about=""><dc:format>image/svg+xml</dc:format><dc:type
           rdf:resource="http://purl.org/dc/dcmitype/StillImage" /></cc:Work></rdf:RDF></metadata><defs
     id="defs3096" /><sodipodi:namedview
     pagecolor="#ffffff"
     bordercolor="#666666"
     borderopacity="1"
     objecttolerance="10"
     gridtolerance="10"
     guidetolerance="10"
     inkscape:pageopacity="0"
     inkscape:pageshadow="2"
     inkscape:window-width="804"
     inkscape:window-height="480"
     id="namedview3094"
     showgrid="false"
     inkscape:zoom="2.36"
     inkscape:cx="138.13559"
     inkscape:cy="50"
     inkscape:window-x="0"
     inkscape:window-y="0"
     inkscape:window-maximized="0"
     inkscape:current-layer="Layer_1" /><path
     d="m 57.100285,13.741256 c 0.310222,0 0.492793,0.01096 0.620444,0.01559 l 1.855397,-0.01559 c 0.610054,-0.0047 1.154798,-0.402193 1.374478,-1.000807 0.219678,-0.598613 0.0668,-1.275171 -0.384438,-1.708542 -3.899302,-3.7491296 -8.751535,-5.6494155 -14.424595,-5.6494155 -11.311982,0 -23.024729,7.8630375 -25.399637,13.1648205 -2.809812,6.271412 -6.349909,10.047043 -6.387016,10.086016 -0.287959,0.303983 -0.445296,0.721765 -0.431937,1.15046 0.01336,0.430253 0.194445,0.835564 0.503184,1.120841 l 9.276982,8.573892 c 0.344362,0.319573 0.820827,0.43493 1.277997,0.338279 0.452717,-0.0951 0.846061,-0.424018 1.050896,-0.860507 0.07718,-0.163683 0.915825,-1.703866 3.710794,-1.434178 3.592047,0.342956 5.932816,2.042145 5.956565,2.057734 0.258271,0.191743 0.558103,0.286836 0.857935,0.286836 0.360689,0 0.719894,-0.138742 1.003399,-0.409989 l 8.905903,-8.573891 c 0.48834,-0.470785 0.620445,-1.223728 0.325065,-1.847284 l -3.733058,-7.839656 c 3.882975,-6.901203 11.683062,-7.454609 14.041642,-7.454609 z m -17.036994,6.701666 c -0.218195,0.442725 -0.222648,0.96963 -0.01041,1.415472 l 3.581658,7.521641 -7.268702,6.997855 c -1.224562,-0.682794 -3.451038,-1.683601 -6.352878,-1.961083 -0.319128,-0.03118 -0.623413,-0.04365 -0.91137,-0.04365 -2.149291,0 -3.651421,0.790358 -4.607321,1.683601 l -6.979244,-6.450682 c 1.367057,-1.68516 3.813211,-5.043007 5.913521,-9.730587 1.790086,-3.995434 12.361393,-11.3752162 22.713022,-11.3752162 3.32487,0 6.317254,0.7467076 8.937073,2.2260942 -4.013594,0.391281 -11.28081,2.17465 -15.015353,9.716557 z"
     id="path3082"
     inkscape:connector-curvature="0"
     style="fill:#008600;fill-opacity:1" /><path
     d="m 16.297889,49.620655 c 0.270146,0.24007 0.611538,0.371016 0.961837,0.371016 0.04305,0 0.08758,-0.0016 0.13062,-0.0063 0.397797,-0.03586 0.762939,-0.238509 1.015273,-0.5612 l 5.19511,-6.62528 c 0.509121,-0.648498 0.437874,-1.602538 -0.161791,-2.159061 l -9.648062,-8.963615 c -0.293895,-0.274365 -0.675363,-0.405311 -1.074645,-0.388164 -0.394828,0.02651 -0.761454,0.215127 -1.02121,0.525346 l -5.5661897,6.62528 c -0.2642079,0.311778 -0.3963124,0.724884 -0.3666265,1.141108 0.028202,0.417782 0.2152267,0.804386 0.5180274,1.075633 l 10.0176568,8.965173 z m -3.360495,-14.575616 7.461663,6.932381 -3.32487,4.24018 -7.7199346,-6.907439 3.5831416,-4.265122 z"
     id="path3084"
     inkscape:connector-curvature="0"
     style="fill:#008600;fill-opacity:1" /><path
     d="M 95.986427,77.560631 70.619446,52.002638 60.290082,41.41622 81.570738,20.756258 l 1.064256,1.117725 c 0.279051,0.293071 0.656068,0.456755 1.049412,0.456755 0.02078,0 0.04156,0 0.06234,-0.0016 0.414124,-0.0187 0.803015,-0.218244 1.071677,-0.551846 l 7.847585,-9.75709 c 0.258271,-0.32113 0.382953,-0.737354 0.342877,-1.153578 C 92.971776,10.447317 92.77436,10.06383 92.464138,9.8003779 L 89.557849,7.3388977 c -0.541775,-0.4567545 -1.315105,-0.4614316 -1.85985,-0.0047 L 78.489295,15.07097 c -0.329518,0.277482 -0.5299,0.689029 -0.553649,1.131753 -0.02523,0.442726 0.133588,0.876096 0.431935,1.189433 l 1.102848,1.158255 -21.307373,20.686482 -7.85946,-8.054781 c -0.552166,-0.565878 -1.430881,-0.59082 -2.01125,-0.05923 l -10.204681,9.353336 c -0.304284,0.279041 -0.486856,0.674999 -0.507636,1.095899 -0.02078,0.422459 0.123198,0.835565 0.399281,1.144225 l 7.699154,8.642483 -0.973713,0.944686 -3.749385,-3.984521 c -0.544745,-0.581465 -1.432366,-0.61732 -2.02164,-0.0873 L 6.5043637,77.502951 C 6.3336674,77.65884 6.19711,77.852144 6.1080513,78.068829 5.0244988,80.706469 6.57858,84.87494 9.9746973,88.44012 c 2.5827117,2.714026 5.6760297,4.400745 8.0717177,4.400745 0.823795,0 1.555563,-0.190185 2.176008,-0.567436 0.111318,-0.06704 0.215226,-0.151212 0.305769,-0.246305 l 29.92532,-31.405386 c 0.577399,-0.606408 0.580368,-1.588508 0.0059,-2.198034 l -3.670676,-3.900342 0.914339,-0.887008 34.163045,38.354917 c 0.09945,0.110677 0.215226,0.207332 0.339909,0.283717 0.620444,0.377252 1.352214,0.567436 2.176009,0.567436 2.394203,0 5.487521,-1.686718 8.071717,-4.400745 3.396117,-3.56518 4.951682,-7.73365 3.866646,-10.371291 -0.07718,-0.193303 -0.189992,-0.36634 -0.333971,-0.509757 z m -7.365182,-67.008862 0.797079,0.674999 -5.825946,7.2426 -1.953361,-2.049939 6.982228,-5.86766 z M 18.604517,89.638906 C 17.569948,90.033305 14.749746,89.048086 12.075006,86.235851 9.5145592,83.548325 8.5601429,80.801562 8.7605262,79.577833 L 39.813926,51.545884 47.311212,59.511809 18.604517,89.638906 z m 22.591309,-47.873494 8.013828,-7.347046 6.769971,6.937058 -8.123668,7.88798 -6.660131,-7.477992 z m 49.159101,44.470439 c -2.659896,2.796647 -5.459318,3.786542 -6.5117,3.40929 L 49.883534,51.519383 58.106652,43.53631 68.554761,54.244322 93.664955,79.54042 c 0.225616,1.205022 -0.724347,3.981403 -3.310028,6.695431 z"
     id="path3086"
     inkscape:connector-curvature="0"
     style="fill:#008600;fill-opacity:1" /><path
     d="m 14.31781,84.645783 c 0.146947,0.157448 0.339909,0.235393 0.531385,0.235393 0.187024,0 0.374047,-0.07326 0.518027,-0.221363 l 25.697983,-26.27664 c 0.293895,-0.299307 0.299833,-0.795034 0.01485,-1.102135 -0.287957,-0.307101 -0.757001,-0.313337 -1.049412,-0.01559 L 14.331168,83.543648 c -0.293894,0.299308 -0.299832,0.793475 -0.01336,1.102135 z"
     id="path3088"
     inkscape:connector-curvature="0"
     style="fill:#008600;fill-opacity:1" /><path
     d="M 38.751156,54.719783 C 38.482494,54.392416 38.01345,54.35968 37.704711,54.64028 l -27.23722,24.780106 c -0.310222,0.282158 -0.342877,0.773208 -0.0757,1.099016 0.146947,0.177714 0.353267,0.269688 0.561071,0.269688 0.172181,0 0.344362,-0.06235 0.485372,-0.190184 L 38.676939,55.8188 c 0.310222,-0.280601 0.342877,-0.773209 0.07421,-1.099017 z"
     id="path3090"
     inkscape:connector-curvature="0"
     style="fill:#008600;fill-opacity:1" /><path
     d="m 18.221564,87.771356 c 0.145463,0.151212 0.333971,0.227598 0.523964,0.227598 0.191477,0 0.381469,-0.07638 0.525448,-0.229156 L 44.689908,60.908573 c 0.287958,-0.305541 0.286474,-0.79971 -0.003,-1.102134 -0.289442,-0.302425 -0.759971,-0.302425 -1.049413,0.0031 L 18.218596,86.669221 c -0.287959,0.307102 -0.286474,0.79971 0.003,1.102135 z"
     id="path3092"
     inkscape:connector-curvature="0"
     style="fill:#008600;fill-opacity:1" /></svg>