<?xml version="1.0" encoding="UTF-8" standalone="no"?>
<!-- Generator: Adobe Illustrator 16.0.0, SVG Export Plug-In . SVG Version: 6.00 Build 0)  -->

<svg
   version="1.1"
   id="Layer_1"
   x="0px"
   y="0px"
   width="126px"
   height="126px"
   viewBox="0 0 126 126"
   enable-background="new 0 0 126 126"
   xml:space="preserve"
   sodipodi:docname="report.svg"
   inkscape:version="1.1.2 (0a00cf5339, 2022-02-04)"
   xmlns:inkscape="http://www.inkscape.org/namespaces/inkscape"
   xmlns:sodipodi="http://sodipodi.sourceforge.net/DTD/sodipodi-0.dtd"
   xmlns="http://www.w3.org/2000/svg"
   xmlns:svg="http://www.w3.org/2000/svg"><defs
   id="defs9"><inkscape:path-effect
     effect="powerstroke"
     id="path-effect3501"
     is_visible="true"
     lpeversion="1"
     offset_points="1.1611886,2.5026483"
     not_jump="true"
     sort_points="true"
     interpolator_type="CentripetalCatmullRom"
     interpolator_beta="0.75"
     start_linecap_type="butt"
     linejoin_type="spiro"
     miter_limit="4"
     scale_width="1"
     end_linecap_type="butt" /><inkscape:path-effect
     effect="simplify"
     id="path-effect3499"
     is_visible="true"
     lpeversion="1"
     steps="1"
     threshold="0.0032025118"
     smooth_angles="0"
     helper_size="0"
     simplify_individual_paths="false"
     simplify_just_coalesce="false"
     step="1" /><inkscape:path-effect
     effect="powerstroke"
     id="path-effect3494"
     is_visible="true"
     lpeversion="1"
     offset_points="0.86753724,2.5026483"
     not_jump="true"
     sort_points="true"
     interpolator_type="CentripetalCatmullRom"
     interpolator_beta="0.75"
     start_linecap_type="butt"
     linejoin_type="spiro"
     miter_limit="4"
     scale_width="1"
     end_linecap_type="butt" /><inkscape:path-effect
     effect="simplify"
     id="path-effect3492"
     is_visible="true"
     lpeversion="1"
     steps="1"
     threshold="0.0032025118"
     smooth_angles="0"
     helper_size="0"
     simplify_individual_paths="false"
     simplify_just_coalesce="false"
     step="1" /><inkscape:path-effect
     effect="powerstroke"
     id="path-effect3487"
     is_visible="true"
     lpeversion="1"
     offset_points="0.4324429,2.5026483"
     not_jump="true"
     sort_points="true"
     interpolator_type="CentripetalCatmullRom"
     interpolator_beta="0.75"
     start_linecap_type="butt"
     linejoin_type="spiro"
     miter_limit="4"
     scale_width="1"
     end_linecap_type="butt" /><inkscape:path-effect
     effect="simplify"
     id="path-effect3485"
     is_visible="true"
     lpeversion="1"
     steps="1"
     threshold="0.0032025118"
     smooth_angles="0"
     helper_size="0"
     simplify_individual_paths="false"
     simplify_just_coalesce="false"
     step="1" /></defs><sodipodi:namedview
   id="namedview7"
   pagecolor="#ffffff"
   bordercolor="#666666"
   borderopacity="1.0"
   inkscape:pageshadow="2"
   inkscape:pageopacity="0.0"
   inkscape:pagecheckerboard="0"
   showgrid="false"
   inkscape:zoom="5.6190476"
   inkscape:cx="47.783898"
   inkscape:cy="62.822034"
   inkscape:window-width="1874"
   inkscape:window-height="1004"
   inkscape:window-x="2024"
   inkscape:window-y="54"
   inkscape:window-maximized="0"
   inkscape:current-layer="Layer_1"
   showguides="false" />


<path
   style="fill:none;stroke:#000000;stroke-width:6.59579;stroke-linecap:butt;stroke-linejoin:bevel;stroke-miterlimit:4;stroke-dasharray:none;stroke-opacity:1;paint-order:markers fill stroke"
   d="M 10.04366,121.53695 13.026184,2.554948 c 57.599759,26.440144 47.238708,0 70.858064,0 L 113.9636,30.291363 c -0.0174,-0.600144 -5.52983,61.053715 -4.64725,91.509067 -33.090897,-0.0878 -49.939429,-19.44892 -99.27269,-0.26348 z"
   id="path180"
   sodipodi:nodetypes="cccccc" /><ellipse
   style="fill:#28220b;fill-opacity:1;stroke:#ea0000;stroke-width:0;stroke-linejoin:bevel;stroke-miterlimit:4;stroke-dasharray:none;stroke-opacity:1;paint-order:markers fill stroke"
   id="path3952"
   ry="39.028999"
   rx="60.729"
   cy="63.872334"
   cx="61.252972" /><text
   xml:space="preserve"
   style="font-style:italic;font-variant:normal;font-weight:bold;font-stretch:normal;font-size:57.6956px;line-height:1.25;font-family:'Latin Modern Roman';-inkscape-font-specification:'Latin Modern Roman, Bold Italic';font-variant-ligatures:normal;font-variant-caps:normal;font-variant-numeric:normal;font-variant-east-asian:normal;fill:#ffffff;fill-opacity:1;stroke:#f90000;stroke-width:3.32263;stroke-miterlimit:4;stroke-dasharray:none;stroke-opacity:1"
   x="3.6482239"
   y="70.475204"
   id="text6782"
   transform="scale(0.78927548,1.2669848)"><tspan
     sodipodi:role="line"
     id="tspan6780"
     x="3.6482239"
     y="70.475204"
     style="fill:#ffffff;stroke:#f90000;stroke-width:3.32263;stroke-miterlimit:4;stroke-dasharray:none;stroke-opacity:1">REP</tspan></text><rect
   style="fill:#28220b;fill-opacity:1;stroke:#ea0000;stroke-width:0;stroke-linejoin:bevel;stroke-miterlimit:4;stroke-dasharray:none;stroke-opacity:1;paint-order:markers fill stroke"
   id="rect12531"
   width="9.0664072"
   height="1.969763"
   x="41.339146"
   y="78.938881" /><path
   style="fill:#0000ff;fill-opacity:1;stroke:#ea0000;stroke-width:0;stroke-linejoin:bevel;stroke-miterlimit:4;stroke-dasharray:none;stroke-opacity:1;paint-order:markers fill stroke"
   id="path12621"
   d="m 32.849842,23.984313 c 0.404115,-0.06825 0.787317,-0.20387 1.140672,-0.413667 2.345821,-1.392779 2.070635,-1.120463 3.398757,-2.270531 0.109341,-0.07506 0.218683,-0.150115 0.328025,-0.225172 -0.654757,0.391476 -1.325136,0.757935 -1.964272,1.174427 -0.06537,0.0426 0.151846,-0.04311 0.229863,-0.0442 0.21579,-0.003 0.410612,0.160459 0.584387,0.263574 0.840968,0.454754 1.550968,0.295012 2.410326,-0.01404 0.926829,-0.429829 1.80497,-0.948437 2.755652,-1.327937 0.164761,-0.05686 0.355928,-0.144381 0.538943,-0.132246 0.437949,0.02904 0.797107,0.47036 1.10671,0.730202 0.784508,0.700273 1.770033,1.038834 2.728775,1.419608 0.441004,0.109602 0.851174,0.583531 1.315176,0.595862 0.0761,0.002 0.150592,-0.02245 0.225888,-0.03367 0.815663,-0.495251 1.657117,-0.950327 2.446989,-1.485754 0.09138,-0.06194 0.108273,-0.192512 0.166857,-0.28608 0.06334,-0.101165 0.129081,-0.200936 0.198751,-0.297851 0.202389,-0.281531 0.400111,-0.562069 0.595959,-0.848779 0.647944,-0.602658 2.155118,-1.579194 -1.368934,0.701834 -0.10941,0.07082 0.240992,-0.10048 0.365719,-0.138284 0.350514,-0.106241 0.456336,-0.102847 0.813665,-0.144471 0.241788,8.58e-4 0.427859,-0.02726 0.653523,0.07309 0.541019,0.240585 0.761994,0.981142 0.99618,1.467851 0.470923,0.844377 1.049173,1.711879 1.90955,2.206799 0.150259,0.08643 0.314453,0.14599 0.47168,0.218984 0.662132,0.188533 1.429449,0.457191 2.122673,0.238012 0.137511,-0.04348 0.26412,-0.115926 0.396181,-0.173889 0.861869,-0.501848 1.726223,-0.999454 2.585609,-1.505543 0.770267,-0.453608 2.209129,-1.490779 -1.214274,0.697184 -0.130086,0.08314 0.282737,-0.124371 0.426794,-0.179888 0.155146,-0.05979 0.313609,-0.110586 0.470414,-0.16588 0.839645,-0.274502 1.71478,-0.397002 2.591853,-0.467782 0.958618,-0.130054 1.789938,0.296865 2.6211,0.706847 0.629158,0.292473 1.086013,0.184523 1.666298,-0.16924 2.689295,-1.639497 1.916543,-0.935085 3.064311,-2.077568 0.588486,-0.641323 1.29611,-1.151039 2.019139,-1.628202 0.175723,-0.115969 0.716352,-0.442319 0.532651,-0.339454 -0.56675,0.317354 -1.1216,0.655508 -1.682399,0.983262 1.058957,-0.5972 1.747526,-0.615679 2.884487,-0.244006 0.937919,0.285963 1.57933,1.032879 2.27677,1.676837 0.697783,0.666762 1.37016,1.365454 1.965953,2.125466 0.55365,0.788209 0.924883,0.989096 1.86146,1.148803 0.140027,0.01544 0.280055,0.03089 0.420083,0.04633 0,0 2.11522,-1.506048 2.11522,-1.506048 v 0 c -0.137388,-0.01122 -0.274777,-0.02243 -0.412166,-0.03365 -0.881401,-0.121191 -1.215519,-0.24609 -1.761746,-0.982203 -0.610625,-0.766657 -1.288821,-1.478653 -2.001707,-2.150922 -0.719367,-0.664656 -1.361115,-1.471707 -2.32969,-1.770599 -1.119496,-0.395918 -1.945359,-0.522806 -3.027262,0.07956 -1.834665,1.061383 -3.739461,2.017531 -5.219653,3.565776 -0.985828,0.906678 -0.528774,0.415207 1.302813,-0.516226 0.141913,-0.07217 -0.268835,0.170861 -0.407094,0.249804 -0.438719,0.250499 -0.619839,0.294574 -1.099189,0.109838 -0.858674,-0.396004 -1.716905,-0.905126 -2.696944,-0.814484 -0.896017,0.03844 -1.783477,0.185692 -2.64833,0.424995 -1.516323,0.487943 -1.502522,0.631407 -3.511675,1.775471 -0.214261,0.122006 -0.842306,0.512533 -0.62668,0.392954 0.623279,-0.345651 1.239177,-0.704447 1.858766,-1.05667 -0.115471,0.07096 -0.223956,0.154796 -0.346411,0.212873 -0.643176,0.305041 -1.405993,0.08149 -2.05125,-0.08012 -0.148955,-0.06039 -0.303812,-0.107879 -0.446865,-0.181157 -0.852196,-0.436532 -1.4206,-1.253883 -1.849739,-2.080111 -0.305063,-0.654436 -0.584113,-1.637639 -1.403594,-1.801154 -0.12722,-0.02538 -0.25906,-0.01433 -0.38859,-0.02149 -1.649514,0.101967 -3.210266,0.894013 -4.292847,2.170828 -0.261892,0.383741 -0.519446,0.776861 -0.802088,1.145643 -0.591896,0.772285 -1.211689,0.795873 1.867114,-0.904419 -0.115255,0.08468 -0.177649,0.165649 -0.334144,0.151539 -0.390013,-0.03516 -0.75602,-0.455325 -1.142671,-0.520415 -0.941588,-0.355625 -1.912311,-0.65497 -2.666418,-1.358254 -0.392707,-0.330689 -0.921578,-0.99118 -1.494143,-0.925797 -0.106885,0.01221 -0.205237,0.06459 -0.307855,0.09688 -0.966414,0.370045 -1.864269,0.870167 -2.779793,1.346983 -0.735187,0.310948 -1.469387,0.567928 -2.225306,0.173339 -0.217889,-0.131222 -0.417483,-0.321237 -0.669886,-0.384374 -1.184924,-0.296404 -2.187607,0.936537 -3.111627,1.617886 -0.119496,0.103751 -0.237465,0.209287 -0.358487,0.311254 -0.134514,0.113336 -0.56752,0.408798 -0.408045,0.334592 0.610247,-0.283957 1.176353,-0.654688 1.771516,-0.969034 0.136692,-0.0722 -0.257109,0.173285 -0.395461,0.242246 -0.11458,0.05711 -0.238456,0.09358 -0.359852,0.134234 -0.08904,0.02982 -0.180635,0.05136 -0.270952,0.07704 0,0 -2.125213,1.582546 -2.125213,1.582546 z" /><path
   style="fill:#0000ff;fill-opacity:1;stroke:#ea0000;stroke-width:0;stroke-linejoin:bevel;stroke-miterlimit:4;stroke-dasharray:none;stroke-opacity:1;paint-order:markers fill stroke"
   id="path12623"
   d="m 30.765832,31.258223 c 0.868342,-0.498502 1.832876,-0.738789 2.799745,-0.962762 0.938595,-0.188886 1.89314,-0.340441 2.852582,-0.346615 0.70621,0.07116 0.885473,0.784978 1.277937,1.253628 0.09571,0.114284 0.213595,0.207989 0.320392,0.311983 0.818518,0.507021 1.810489,0.637287 2.746498,0.42535 0.212862,-0.0482 0.418713,-0.123339 0.62807,-0.185009 1.187406,-0.485377 2.387345,-0.900954 3.647261,-1.147238 1.060014,-0.178617 2.137524,-0.197238 3.209781,-0.202443 0.340464,0.01931 0.701864,-0.03457 1.035107,0.06696 0.319336,0.09729 0.615685,0.296173 0.895958,0.469963 0.690748,0.516979 1.528789,0.668982 2.36474,0.764066 1.204466,0.03757 2.389137,-0.180332 3.549989,-0.478242 0.643265,-0.17811 1.286125,-0.358566 1.946731,-0.458878 0.722029,-0.02434 1.427721,-0.110008 2.117396,-0.328728 0.694602,-0.341123 1.476663,-0.44181 2.187427,-0.73417 0.178312,-0.07335 0.347737,-0.166666 0.521606,-0.249998 0.71499,-0.380195 1.413475,-0.798091 2.177583,-1.073633 0.211657,-0.04416 0.31739,-0.09363 0.533956,-0.0318 0.474358,0.13543 0.885035,0.73659 1.186517,1.09297 0.11237,0.100954 0.211794,0.218512 0.33711,0.30286 0.70208,0.472557 1.596497,0.212894 2.358606,0.07166 0.942248,-0.179426 1.898725,-0.295099 2.858354,-0.302313 0.124709,0.02488 0.25331,0.03496 0.374126,0.07464 0.466951,0.153372 0.87407,0.471045 1.322479,0.66886 0.479506,0.211533 0.647334,0.246302 1.149004,0.399456 0.884199,0.231887 1.78873,0.360043 2.699772,0.413726 0.78072,0.05101 1.558577,-0.06031 2.336874,-0.108858 0.900296,-0.03949 0.443705,-0.02236 1.369793,-0.0509 0,0 2.045381,-1.494109 2.045381,-1.494109 v 0 c -0.916585,0.01886 -0.465479,0.0082 -1.353323,0.03184 -0.760376,0.02517 -1.516869,0.09781 -2.276797,0.09438 -0.9122,-0.02558 -1.823768,-0.110641 -2.712549,-0.327722 -0.558656,-0.159569 -1.085306,-0.327857 -1.596553,-0.610199 -0.251455,-0.13887 -0.57589,-0.375081 -0.843136,-0.49069 -0.131753,-0.057 -0.27406,-0.08556 -0.41109,-0.128341 -0.973422,-0.01119 -1.94564,0.115616 -2.904518,0.27459 -0.611797,0.121826 -1.63966,0.437514 -2.216459,0.111775 -0.120967,-0.06831 -0.216335,-0.174351 -0.324503,-0.261526 -0.398166,-0.469308 -0.89233,-1.264306 -1.557298,-1.354986 -0.09811,-0.01338 -0.197909,0.0069 -0.296864,0.01033 -0.803959,0.244016 -1.52417,0.683194 -2.256822,1.085127 -0.163512,0.08967 -0.321181,0.190926 -0.490536,0.268996 -0.692243,0.319116 -1.481706,0.363397 -2.162771,0.715778 -0.660489,0.256615 -1.350707,0.383296 -2.061097,0.360665 -0.69519,0.05014 -1.358633,0.283008 -2.026149,0.469557 -0.330238,0.09271 -0.834854,0.240379 -1.166375,0.307829 -0.758749,0.154374 -1.536837,0.209821 -2.30908,0.233193 -0.798087,-0.0786 -1.614139,-0.187222 -2.278404,-0.676473 -0.25694,-0.171151 -0.649723,-0.4392 -0.932831,-0.556496 -0.350035,-0.145026 -0.740492,-0.07907 -1.106023,-0.08904 -1.084975,0.01373 -2.174584,0.01605 -3.250488,0.175259 -1.27096,0.235431 -2.495083,0.61049 -3.679148,1.133714 -0.414955,0.140288 -0.741451,0.274641 -1.177533,0.331351 -0.687762,0.08944 -1.394744,-0.04787 -2.000874,-0.377311 -0.09786,-0.08689 -0.207555,-0.162046 -0.293572,-0.260672 -0.451764,-0.517986 -0.63458,-1.308113 -1.394045,-1.477675 -0.990644,-0.02383 -1.978493,0.178111 -2.950274,0.344938 -0.935475,0.205026 -1.888597,0.387893 -2.741337,0.837289 0,0 -2.080326,1.664097 -2.080326,1.664097 z" /><path
   style="fill:#0000ff;fill-opacity:1;stroke:#ea0000;stroke-width:0;stroke-linejoin:bevel;stroke-miterlimit:4;stroke-dasharray:none;stroke-opacity:1;paint-order:markers fill stroke"
   id="path12625"
   d="m 29.774804,107.00605 c 0.306689,-0.1661 0.514325,-0.27602 0.826317,-0.45783 0.901362,-0.52528 1.802399,-1.05114 2.700064,-1.58271 0.185914,-0.11009 0.3654,-0.23075 0.550518,-0.34218 0.190968,-0.11495 0.769802,-0.4498 0.57763,-0.33687 -0.545352,0.32046 -1.091448,0.63965 -1.637172,0.95948 0.649288,-0.32594 1.304372,-0.64712 1.977628,-0.92145 0.75581,-0.25959 1.288436,0.21354 1.781137,0.73823 1.285571,1.83776 0.701878,1.41421 3.425228,-0.29261 0.01494,-0.0686 0.03439,-0.13638 0.04482,-0.20582 0.0517,-0.34415 0.08457,-0.68258 0.170169,-1.02258 0.103679,-0.41182 0.159779,-0.53271 0.305758,-0.93148 0.06654,-0.17218 0.222855,-0.60693 0.330258,-0.7776 0.362726,-0.57641 2.640329,-2.038442 -1.720598,0.92895 -0.0923,0.0628 0.212539,-0.077 0.323866,-0.0854 0.123901,-0.009 0.247541,0.0219 0.371312,0.0329 0.122789,0.0374 0.246733,0.0712 0.368368,0.11218 0.253952,0.0856 0.544397,0.21235 0.802523,0.28328 0.573197,0.1575 1.160049,0.22361 1.748881,0.28721 0.970562,0.0637 1.95299,0.20978 2.913985,0.002 1.274042,-0.39336 2.419583,-1.23738 3.535966,-1.89359 0.755659,-0.48422 1.756461,-1.33307 -1.689446,0.9835 -0.09063,0.0609 0.21395,-0.0487 0.322978,-0.0549 0.418896,-0.0237 0.483783,0.0268 0.902794,0.12824 0.760191,0.31751 1.376446,0.83122 1.919471,1.43707 0.44047,0.73542 0.948095,1.01795 1.733688,1.30918 1.087231,0.2869 2.228547,0.27351 3.345598,0.2893 1.165023,0.0244 2.322121,0.17659 3.482298,0.27424 0.86527,0.0905 1.735393,0.0719 2.603491,0.0992 0.70602,0.023 1.425018,0.28348 2.116905,0.0581 1.169763,-0.64057 2.236663,-0.79252 2.642742,-1.8977 0.07219,-0.19649 0.115183,-0.36108 0.230634,-0.5373 0.849215,-0.38888 1.576022,-1.02293 -1.817601,1.09747 -0.06744,0.0421 0.152291,-0.049 0.23119,-0.0589 0.250459,-0.0317 0.460367,0.002 0.712458,0.0237 1.118977,0.14392 1.450928,0.58628 2.076158,1.44401 0.446628,0.59868 1.029447,1.06872 1.770321,1.24052 0.144662,0.0335 0.294176,0.0409 0.441264,0.0613 0.546279,0.0386 1.061301,-0.15762 1.588773,-0.26049 0.490849,-0.0957 0.640556,-0.10293 1.154029,-0.16363 1.368485,-0.12683 2.743989,-0.14101 4.117303,-0.14509 0.495331,0.0335 1.130678,-0.11426 1.543958,0.25025 0.228549,0.20157 0.295096,0.37147 0.44514,0.63392 0.222459,0.43238 0.348696,0.90145 0.442174,1.37615 0.08315,0.42226 0.04166,0.48899 0.222271,0.87816 0.05535,0.11925 0.135976,0.22505 0.203964,0.33758 0.10198,0.0892 0.192179,0.19404 0.30594,0.26764 0.637815,0.41266 1.509157,0.42553 2.240223,0.47639 0.356006,0.0243 0.712753,0.0246 1.06934,0.0245 0,0 2.112255,-1.53537 2.112255,-1.53537 v 0 c -0.35823,0.002 -0.716517,0.005 -1.07471,-0.002 -0.666898,-0.0263 -1.535719,-0.0253 -2.137224,-0.3485 -0.09588,-0.0515 -0.174653,-0.12992 -0.26198,-0.19488 -0.06201,-0.0942 -0.136237,-0.18138 -0.18604,-0.28255 -0.159,-0.323 -0.149441,-0.48192 -0.22658,-0.84135 -0.106673,-0.49704 -0.232436,-0.99289 -0.462137,-1.44967 -0.201234,-0.36261 -0.402552,-0.78343 -0.797453,-0.97918 -0.42154,-0.20896 -0.931973,-0.0874 -1.376656,-0.11184 -1.377505,0.0192 -2.756327,0.0306 -4.131196,0.12575 -0.529558,0.0455 -1.05808,0.0863 -1.57826,0.20189 -0.243002,0.054 -0.477428,0.14425 -0.721897,0.19115 -0.12466,0.0239 -0.251969,0.031 -0.377953,0.0465 -0.136611,-0.006 -0.274784,0.002 -0.409833,-0.0193 -0.703179,-0.11236 -1.267896,-0.54113 -1.688939,-1.09483 -0.671543,-0.91533 -0.992959,-1.40633 -2.180517,-1.63181 -0.242237,-0.0342 -0.482414,-0.0903 -0.726763,-0.10214 -1.126291,-0.0545 -2.27059,0.75218 -2.940487,1.6321 -0.07602,0.17616 -0.129605,0.36599 -0.217208,0.53668 -0.416393,0.81131 -2.139583,1.3647 1.835612,-0.82979 -0.109863,0.0623 -0.283564,0.1706 -0.406881,0.19633 -0.557185,0.11625 -1.139738,-0.11712 -1.695428,-0.1151 -0.86328,-0.0515 -1.728654,-0.0431 -2.591987,-0.0981 -1.172522,-0.0775 -2.339906,-0.2185 -3.513809,-0.27094 -1.088871,-0.0144 -2.194772,-0.002 -3.261755,-0.24699 -0.82255,-0.26734 -1.181676,-0.46868 -1.641333,-1.21478 -0.586702,-0.63065 -1.259359,-1.14745 -2.03556,-1.53091 -0.164673,-0.0564 -0.32484,-0.12832 -0.494018,-0.16932 -0.02554,-0.006 -0.70803,-0.10126 -0.781715,-0.0664 -1.03927,0.49175 -1.963318,0.9505 -2.845978,1.60294 0.695648,-0.39513 1.394655,-0.78441 2.086945,-1.18539 0.06547,-0.0379 -0.138201,0.0618 -0.205775,0.0958 -0.141457,0.0712 -0.271372,0.16426 -0.413852,0.23343 -0.150592,0.0731 -0.318353,0.10686 -0.467306,0.18393 -0.942037,0.31587 -1.941158,0.18604 -2.91511,0.11929 -0.991007,-0.10769 -1.955628,-0.27531 -2.866185,-0.70204 -0.135855,-0.0327 -0.268938,-0.0805 -0.407564,-0.098 -0.126561,-0.016 -0.269581,-0.0609 -0.382702,-0.002 -2.229449,1.16224 -2.405055,0.93562 -2.980774,2.58706 -0.144358,0.42245 -0.190375,0.53214 -0.30408,0.96591 -0.08619,0.32881 -0.115825,0.69737 -0.235995,1.01671 -0.0192,0.051 -0.05353,0.095 -0.08029,0.14243 0.72475,-0.40692 1.434749,-0.84132 2.174252,-1.22078 0.0458,-0.0235 -0.02064,0.11621 -0.06665,0.13931 -0.04557,0.0229 -0.107859,-0.002 -0.149895,-0.0306 -0.343747,-0.23609 -0.453203,-0.70386 -0.74309,-0.98788 -0.501778,-0.57477 -1.088652,-1.16568 -1.914219,-1.02716 -0.710338,0.25914 -1.378526,0.62402 -2.06214,0.94413 -0.906567,0.51811 -1.81462,1.03361 -2.719699,1.55431 -0.194519,0.11191 -0.386955,0.22742 -0.579033,0.34346 -0.188564,0.11393 -0.756325,0.4518 -0.562853,0.34643 3.258342,-1.77463 1.662429,-0.95009 0.917774,-0.53977 0,0 -2.060048,1.65737 -2.060048,1.65737 z" /><path
   style="fill:#0000ff;fill-opacity:1;stroke:#ea0000;stroke-width:0;stroke-linejoin:bevel;stroke-miterlimit:4;stroke-dasharray:none;stroke-opacity:1;paint-order:markers fill stroke"
   id="path12627"
   d="m 71.340982,97.665012 c 0.944951,-0.02173 1.891747,0.14471 2.804263,0.378289 0.779882,0.274153 1.557554,0.499685 2.377667,0.605664 0.544024,0.04992 1.061129,-0.135636 1.583519,-0.253235 0.457504,-0.102993 0.536177,-0.110031 0.997358,-0.188268 1.113869,-0.170529 2.242767,-0.18966 3.367183,-0.207069 0.520628,-0.0048 1.041267,-0.0046 1.561907,-0.0035 0,0 2.085825,-1.515777 2.085825,-1.515777 v 0 c -0.525777,0.0022 -1.051575,0.003 -1.577314,0.01044 -1.126891,0.01525 -2.258278,0.02645 -3.37779,0.168188 -0.488639,0.07557 -0.975055,0.153356 -1.455975,0.27016 -0.242309,0.05885 -0.478535,0.139089 -0.725512,0.1787 -0.110194,0.01767 -0.222146,0.0217 -0.333219,0.03256 -0.822,-0.08231 -1.609239,-0.281232 -2.390934,-0.55023 -0.902526,-0.250249 -1.835893,-0.425427 -2.770716,-0.485264 0,0 -2.146262,1.55935 -2.146262,1.55935 z" /><path
   style="fill:#ff0000;fill-opacity:1;stroke:#f90000;stroke-width:0.47161;stroke-linejoin:bevel;stroke-miterlimit:4;stroke-dasharray:none;stroke-opacity:1;paint-order:markers fill stroke"
   d="m 85.96937,86.002119 c 0.18868,-0.665375 7.019831,-44.057062 7.018307,-44.580509 -2.14e-4,-0.07341 0.749438,-0.133474 1.665894,-0.133474 h 1.666282 l -0.242141,0.756356 c -0.344453,1.075937 -3.834888,23.623638 -3.738831,24.152306 0.06421,0.353377 -2.67303,18.805749 -3.003933,20.250236 -0.08751,0.382017 -0.172486,0.400424 -1.84851,0.400424 h -1.756781 z"
   id="path27641" /><path
   style="fill:#ff0000;fill-opacity:1;stroke:#f90000;stroke-width:0.47161;stroke-linejoin:bevel;stroke-miterlimit:4;stroke-dasharray:none;stroke-opacity:1;paint-order:markers fill stroke"
   d="m 105.79277,63.189306 c 1.37009,-1.924105 2.41774,-5.790068 3.13604,-11.572373 0.59526,-4.79187 0.17741,-7.487557 -1.46278,-9.43681 l -0.49013,-0.582482 0.43578,0.126717 c 2.6149,0.760372 4.34595,2.786986 5.00487,5.859413 0.33465,1.560421 0.0843,5.625669 -0.45939,7.459066 -1.01086,3.408889 -2.81117,6.16862 -5.15259,7.89852 -1.2185,0.900262 -1.53078,0.976788 -1.0118,0.247949 z"
   id="path27680" /><path
   style="fill:#ff0000;fill-opacity:1;stroke:#f90000;stroke-width:0.47161;stroke-linejoin:bevel;stroke-miterlimit:4;stroke-dasharray:none;stroke-opacity:1;paint-order:markers fill stroke"
   d="m 51.252017,86.720447 c 0.337329,-0.826153 0.657257,-2.764268 3.742256,-22.670461 1.811218,-11.687026 3.338743,-21.469372 3.394498,-21.738545 l 0.101374,-0.489407 h 1.679928 c 1.650955,0 1.678331,0.0069 1.587281,0.400424 -0.05096,0.220233 -0.812814,5.085381 -1.693018,10.81144 -0.880203,5.72606 -2.422407,15.69661 -3.427118,22.15678 l -1.826748,11.745763 -1.844129,0.05096 c -1.710975,0.04727 -1.834756,0.028 -1.714324,-0.266949 z"
   id="path27719" /><path
   style="fill:#ff0000;fill-opacity:1;stroke:#f90000;stroke-width:0.47161;stroke-linejoin:bevel;stroke-miterlimit:4;stroke-dasharray:none;stroke-opacity:1;paint-order:markers fill stroke"
   d="m 45.180894,91.121235 c -1.388017,-0.560499 -1.92254,-3.643633 -0.995165,-5.740118 0.547886,-1.238588 1.181644,-1.557594 3.096051,-1.558418 1.880594,-8.89e-4 2.030672,-0.116121 2.19919,-1.689716 0.114286,-1.067194 0.157455,-1.158407 0.548237,-1.158407 0.399138,0 0.424183,-0.06217 0.424183,-1.052966 0,-0.675126 -0.07856,-1.079153 -0.218928,-1.125942 -0.162618,-0.05421 0.435907,-4.303548 2.327027,-16.521186 1.400276,-9.046516 2.588619,-16.628401 2.640763,-16.848635 0.09186,-0.387992 0.05352,-0.400423 -1.23523,-0.400423 -1.095559,0 -1.416648,-0.06813 -1.821312,-0.386436 -1.514567,-1.191359 -1.564204,-5.053376 -0.08319,-6.472447 l 0.549703,-0.52671 12.668464,-0.04581 c 12.455919,-0.04504 12.678341,-0.03975 13.2572,0.315118 0.792307,0.485723 1.271054,1.58653 1.276046,2.934079 0.007,1.903639 -1.067932,15.819991 -1.271616,16.461865 -0.63084,1.987984 -2.604837,2.58823 -3.849565,1.170563 -0.837354,-0.953696 -0.99479,-1.985869 -0.752137,-4.931114 0.312877,-3.797583 -0.03475,-6.56845 -0.929524,-7.409046 -0.839517,-0.788686 -1.779894,-0.97033 -5.517449,-1.065756 -1.933157,-0.04936 -3.51483,-0.03757 -3.51483,0.0262 0,0.06377 -0.480509,3.235428 -1.067797,7.048133 -0.587288,3.812705 -1.067797,7.09427 -1.067797,7.292365 0,0.289932 0.116303,0.360177 0.596326,0.360177 0.735295,0 1.697017,-0.311656 2.135878,-0.692153 0.579988,-0.502857 0.859889,-1.276785 1.378037,-3.810274 0.692308,-3.385049 1.126693,-4.031237 2.713996,-4.037322 1.47725,-0.0057 2.26921,0.965332 2.382398,2.920978 0.102014,1.762568 -2.614423,19.182666 -3.170368,20.331094 -0.47529,0.981819 -1.182409,1.376473 -2.250568,1.256075 -1.575611,-0.177594 -2.308536,-1.533345 -2.115909,-3.913974 0.06522,-0.805993 0.167192,-2.114022 0.226612,-2.906735 l 0.108038,-1.441292 -0.579551,-0.115911 c -0.318753,-0.06375 -1.048522,-0.11591 -1.62171,-0.11591 -0.935571,0 -1.051323,0.04095 -1.131746,0.400424 -0.170239,0.760919 -2.408721,15.438618 -2.408721,15.793952 0,0.34066 0.116445,0.356354 2.625,0.353842 3.683169,-0.0037 5.08596,-0.363719 6.786754,-1.741824 1.73321,-1.404373 2.975114,-4.005803 4.64828,-9.736798 1.360555,-4.660224 1.626849,-5.069596 3.297758,-5.069596 0.702618,0 0.920968,0.09062 1.419483,0.589139 0.720362,0.720363 1.047834,1.834954 0.924943,3.14815 -0.08835,0.944096 -4.303991,17.106372 -4.8611,18.636887 -0.150408,0.413213 -0.514115,0.953785 -0.808236,1.201272 l -0.534767,0.449976 -13.022362,-0.01128 c -7.1623,-0.0062 -13.192656,-0.08005 -13.400791,-0.164094 z m 6.04911,-4.183773 C 51.173878,86.791203 51.056265,86.715845 50.96864,86.77 c -0.251274,0.155296 -0.185795,0.43339 0.102046,0.43339 0.15876,0 0.221304,-0.104395 0.159318,-0.265928 z m 3.450081,0.14325 c -0.171293,-0.04476 -0.451589,-0.04476 -0.622882,0 -0.171292,0.04476 -0.03114,0.08139 0.311441,0.08139 0.342585,0 0.482733,-0.03663 0.311441,-0.08139 z m 16.994227,-2.413339 c 0.3659,-1.394809 0.983061,-3.729915 1.37147,-5.189125 0.728613,-2.737322 0.730637,-3.193637 0.0052,-1.173163 -1.521719,4.238287 -3.298587,6.783649 -5.76933,8.264564 l -1.05732,0.633741 h 2.392356 2.392354 z m -17.058327,1.512712 c 0.05371,-0.269174 0.905728,-5.734958 1.893374,-12.146187 3.324538,-21.580991 4.797404,-31.052816 4.891322,-31.455508 0.09072,-0.388995 0.05379,-0.400424 -1.293834,-0.400424 h -1.387222 l -2.821191,18.108051 c -2.575885,16.533537 -3.811778,24.263275 -4.125925,25.805085 l -0.117848,0.57839 h 1.431834 c 1.419683,0 1.432663,-0.0041 1.52949,-0.489407 z M 67.268359,63.934906 c 0.860407,-5.572343 0.960597,-6.632065 0.466961,-4.939143 -0.171246,0.587288 -0.518755,1.471436 -0.772241,1.964772 -0.491343,0.956251 -1.907665,2.395397 -2.357408,2.395397 -0.414832,0 -0.324422,0.249445 0.242265,0.668414 0.881795,0.65194 1.310736,1.817141 1.41763,3.850932 0.05199,0.989148 0.118055,1.678324 0.14682,1.531502 0.02876,-0.146822 0.413951,-2.609165 0.855973,-5.471874 z m 9.731512,-17.0954 c 0.168299,-2.221262 0.31059,-4.298934 0.316199,-4.617048 l 0.0102,-0.57839 h -2.251278 -2.251278 l 0.720228,0.521731 c 1.852058,1.341624 2.892498,4.042596 2.892498,7.508902 0,2.572221 0.248446,1.322035 0.563431,-2.835195 z M 62.021186,41.822034 c 0,-0.09788 -0.08481,-0.177966 -0.188469,-0.177966 -0.103658,0 -0.138974,0.08009 -0.07848,0.177966 C 61.814732,41.919915 61.899543,42 61.942707,42 c 0.04316,0 0.07848,-0.08008 0.07848,-0.177966 z"
   id="path27758" /><path
   style="fill:#ff0000;fill-opacity:1;stroke:#f90000;stroke-width:0.47161;stroke-linejoin:bevel;stroke-miterlimit:4;stroke-dasharray:none;stroke-opacity:1;paint-order:markers fill stroke"
   d="m 12.248119,86.598531 c 0.208672,-0.54379 0.624428,-3.119117 3.838429,-23.776497 l 3.336531,-21.444915 1.633799,-0.05117 c 0.89859,-0.02814 1.6338,-0.01334 1.6338,0.03291 0,0.04624 -0.08359,0.303945 -0.185765,0.572675 -0.102171,0.26873 -1.185156,6.940998 -2.406634,14.827264 -1.221478,7.886264 -2.741602,17.702223 -3.378053,21.81324 -0.636451,4.111017 -1.196729,7.654767 -1.245062,7.875 -0.08327,0.379434 -0.172658,0.400424 -1.705222,0.400424 -1.312478,0 -1.599339,-0.04692 -1.521823,-0.248927 z"
   id="path27797" /></svg>
