<?xml version="1.0" encoding="UTF-8" standalone="no"?>
<!-- Generator: Adobe Illustrator 16.0.0, SVG Export Plug-In . SVG Version: 6.00 Build 0)  -->

<svg
   xmlns:dc="http://purl.org/dc/elements/1.1/"
   xmlns:cc="http://creativecommons.org/ns#"
   xmlns:rdf="http://www.w3.org/1999/02/22-rdf-syntax-ns#"
   xmlns:svg="http://www.w3.org/2000/svg"
   xmlns="http://www.w3.org/2000/svg"
   xmlns:sodipodi="http://sodipodi.sourceforge.net/DTD/sodipodi-0.dtd"
   xmlns:inkscape="http://www.inkscape.org/namespaces/inkscape"
   version="1.1"
   id="Capa_1"
   x="0px"
   y="0px"
   width="26.608px"
   height="24.885px"
   viewBox="0 0 26.608 24.885"
   style="enable-background:new 0 0 26.608 24.885;"
   xml:space="preserve"
   inkscape:version="0.91 r13725"
   sodipodi:docname="rubber3.svg"><metadata
     id="metadata43"><rdf:RDF><cc:Work
         rdf:about=""><dc:format>image/svg+xml</dc:format><dc:type
           rdf:resource="http://purl.org/dc/dcmitype/StillImage" /></cc:Work></rdf:RDF></metadata><defs
     id="defs41" /><sodipodi:namedview
     pagecolor="#ffffff"
     bordercolor="#666666"
     borderopacity="1"
     objecttolerance="10"
     gridtolerance="10"
     guidetolerance="10"
     inkscape:pageopacity="0"
     inkscape:pageshadow="2"
     inkscape:window-width="865"
     inkscape:window-height="764"
     id="namedview39"
     showgrid="false"
     inkscape:zoom="9.4836246"
     inkscape:cx="13.304"
     inkscape:cy="12.4425"
     inkscape:window-x="567"
     inkscape:window-y="124"
     inkscape:window-maximized="0"
     inkscape:current-layer="Capa_1" /><path
     style="opacity:0.63300003;fill:#00ffff;fill-opacity:1;fill-rule:evenodd;stroke:#f52572;stroke-width:0;stroke-miterlimit:4;stroke-dasharray:none;stroke-opacity:0.99215698"
     id="path4173"
     d="m 6.4802232,6.0590394 c 0.5423557,-0.4135049 0.8290685,-0.6396089 1.6469569,-0.998001 0.05156,-0.022593 0.078411,0.088762 0.087789,0.1442685 0.00963,0.056993 -0.023139,0.1132622 -0.034708,0.1698933 C 7.7687409,5.981962 7.2153697,6.4744967 6.684365,6.9738394 6.1321499,7.5148776 5.6497028,7.7601513 4.849532,8.1386048 4.7059322,8.2065225 4.6776716,7.891223 4.6781793,7.8804033 4.6813533,7.8127583 4.7200437,7.7515971 4.7409759,7.687194 5.0559782,7.1425337 5.5841372,6.7590409 6.0688173,6.3731738 6.4057353,6.0794903 6.7988535,5.837805 7.0994985,5.5033432 7.5726375,5.2997624 8.0306649,5.0566648 8.5189156,4.892601 8.5691358,4.8757258 8.4917504,4.9957279 8.4684918,5.043329 8.4391253,5.1034303 8.4000966,5.1584271 8.3621218,5.213495 8.1903267,5.462618 7.988479,5.6869187 7.7869866,5.9117623 7.1608085,6.5808887 6.4742615,6.9847585 5.6108768,7.3845289 5.5681521,7.4043116 5.5331112,7.3314295 5.4942284,7.3048798 5.4811122,7.243073 5.4517275,7.182564 5.4548798,7.1194596 5.4606715,7.0035172 5.5760971,6.8025753 5.6279807,6.7153745 5.7867115,6.4485958 5.9726519,6.1962152 6.1491226,5.941135 6.2038701,5.8628807 6.2587132,5.7846934 6.3133649,5.7063723 6.4115976,5.5655951 6.511248,5.4257886 6.6075727,5.2836991 6.6411737,5.2341341 6.6748507,5.1845541 6.7058237,5.133306 6.7205817,5.108887 6.7195857,5.070732 6.7445907,5.05699 6.7594737,5.04881 6.7504407,5.09045 6.7533607,5.107179 9.0674705,4.0323161 8.3978897,4.166915 8.0215716,4.5627309 7.8416271,4.7519987 7.6766974,4.9557101 7.4973678,5.1459284 7.4524945,5.1875849 7.4152971,5.2394741 7.362748,5.2708981 6.8951028,5.5505467 6.4289471,5.835158 5.9406077,6.0768604 5.7762292,6.1582191 5.7303726,5.7849339 5.7468566,5.698552 5.7611112,5.6238533 5.7946474,5.5541624 5.8185428,5.4819675 6.020819,5.0281906 6.3208652,4.6259878 6.6401667,4.248497 7.0359473,3.8102007 8.047033,2.5235942 8.4762259,3.1007451 c 0.026774,0.036003 0.035207,0.082539 0.052811,0.1238089 0.090574,0.8482541 -0.2058565,0.5197772 -1.3770391,1.0729098 0.4827739,-0.8560465 -0.00199,-0.3345206 1.6338106,-1.1731 0.015008,0.042954 0.040834,0.083554 0.045025,0.128861 0.019949,0.2156781 -0.2211401,0.7279978 -0.3021565,0.9359016 -0.06636,0.1718067 -0.1454095,0.338928 -0.2082237,0.5121485 -0.00727,0.020056 0.00169,0.052829 -0.017816,0.061472 -1.464946,0.649126 -1.6404593,0.9572989 -1.2976425,0.4433873 0.179206,-0.2770207 0.367795,-0.5478037 0.5404,-0.8290528 C 7.809141,3.8646302 8.8834656,2.9696052 9.0513192,3.6727732 9.0957378,3.8588505 8.9810258,4.1245037 8.9318931,4.2944471 8.8451197,4.5662041 8.7455972,4.8336967 8.6461329,5.1009979 8.6451455,5.1036514 8.553593,5.3552001 8.5382441,5.3648065 8.09297,5.6434896 7.628337,5.8899751 7.1733834,6.1525594 7.1506979,6.0899057 7.1049944,6.0312317 7.1053267,5.9645983 7.1056775,5.8942686 7.2686151,5.6705568 7.2968756,5.6363558 7.5204953,5.3657303 7.8053003,5.1806467 8.0925435,4.9853201 8.9895735,4.3635922 9.8482393,3.9598474 10.842794,3.6089479 11.25249,3.4643987 11.029042,3.5107732 11.40914,3.465589 c 0.06246,0.015168 0.133468,0.010499 0.187372,0.045505 0.304303,0.1976187 0.0014,0.6957941 -0.121595,0.9000456 C 11.217116,4.792157 10.907091,5.1294348 10.567875,5.4382844 10.077342,5.9171793 9.6340657,6.103662 8.9140416,6.4849909 8.8345488,6.5270908 8.7442088,6.4071313 8.7232568,6.3627263 8.7029327,6.319652 8.7034045,6.2695612 8.6934783,6.2229786 8.8637957,5.2701826 9.5979034,5.2001109 10.478525,4.7364592 c 0.03601,0.033767 0.07938,0.0611 0.108037,0.1013001 0.198101,0.2779231 0.112336,0.6784465 0.04666,0.9825118 -0.204786,0.7924215 -0.432424,0.7303147 -1.5139689,1.2639056 -0.043059,0.021244 -0.07127,-0.067741 -0.091397,-0.111333 -0.019364,-0.04194 -0.015398,-0.091097 -0.023097,-0.1366459 0.1255386,-0.7516393 0.6970546,-0.7928819 1.5537379,-1.1091205 0.05333,-0.019687 0.0226,0.111429 0.03391,0.1671436 -0.0367,0.3334605 -0.119074,0.6593056 -0.163561,0.9921252 -0.02681,0.2151356 0.0076,0.1602239 0.160101,0.1156244 0.04516,-0.013208 0.199697,-0.052971 0.242277,-0.064034 0.01741,-0.00807 0.180285,-0.089238 0.211596,-0.083617 0.241038,0.04327 0.186872,0.3877701 0.158658,0.5404721 -0.14407,0.469816 -0.333233,0.9249995 -0.533114,1.3735398 -0.209371,0.4786945 1.202881,-0.3320117 -1.4177861,0.643128 -0.037721,0.014036 0.052211,-0.061317 0.079921,-0.090506 C 9.4050599,9.2424134 9.462163,9.1925648 9.5421028,9.119169 10.112449,8.7742857 11.183787,7.6621831 11.270018,8.7782038 c 0.0025,0.081023 -0.0023,0.1621475 -1.19e-4,0.2431783 4.97e-4,0.018695 0.01435,0.071708 0.0043,0.055941 -0.0247,-0.038709 -0.0082,-0.1464282 -0.05039,-0.1282012 -0.836119,0.361627 -1.7193289,1.0325985 -1.168128,0.6190595 0.130303,-0.081174 0.249892,-0.1846156 0.387276,-0.2545753 0.370551,-0.1886942 1.29166,-1.2430503 1.533118,-0.5605122 0.01932,0.054603 0.01468,0.1149046 0.02202,0.1723569 -0.08957,0.5507702 -0.347315,1.0591159 -0.58839,1.5572472 -0.103523,0.06758 -0.07762,0.213373 -0.147582,0.300198 -0.02754,0.03418 0.0077,-0.09835 0.04296,-0.124459 0.03826,-0.02831 0.260548,-0.0745 0.285262,-0.08031 0.06001,-0.0134 0.290611,-0.07079 0.357974,-0.06326 0.196784,0.022 0.328862,0.184729 0.361486,0.369787 0.01501,0.08517 0.0052,0.172892 0.0078,0.259338 -0.04621,0.612746 -0.269845,1.192423 -0.389521,1.791289 0.0034,0.02547 -0.01552,0.07529 0.01014,0.0764 0.03131,0.0014 0.03166,-0.05767 0.05877,-0.07341 0.061,-0.0354 0.131592,-0.0508 0.197685,-0.07541 0.342489,-0.127524 0.683014,-0.248665 1.032487,-0.355983 0.310265,-0.06765 0.95159,-0.333971 1.251705,-0.09416 0.13324,0.106467 0.106638,0.220554 0.114516,0.367245 -0.175681,0.524645 -0.48039,0.99687 -0.738188,1.484623 -0.0986,-0.345012 -0.06973,0.322951 -0.110637,0.243677 -0.02111,-0.04092 -0.02851,-0.0951 -0.01102,-0.137694 0.03524,-0.08581 0.444575,-0.275651 0.518472,-0.316566 0.20608,-0.09115 0.822468,-0.581349 1.039183,-0.394848 0.04712,0.04055 0.05938,0.109244 0.08906,0.163865 0.0014,0.05987 0.0144,0.120606 0.0041,0.1796 -0.06314,0.362459 -0.468846,0.831464 -0.689702,1.123002 -0.45028,0.58216 -0.697525,0.740765 -1.627317,1.122733 -0.06994,0.02873 -0.09111,-0.137406 -0.08012,-0.212216 0.01215,-0.08275 0.374425,-0.344466 0.380973,-0.349645 1.110242,-0.769339 2.318418,-1.382202 3.520048,-1.993751 0.103135,-0.04099 0.513058,-0.298627 0.653775,-0.203109 0.189566,0.128677 0.01683,0.360573 -0.05712,0.479532 -0.210228,0.25858 -0.435676,0.507138 -0.674227,0.740134 -0.04903,0.04789 -0.09311,0.103146 -0.151566,0.138919 -0.464213,0.284087 -0.941859,0.545617 -1.412789,0.818425 -0.03772,-0.01166 -0.0849,-0.0074 -0.113161,-0.03498 -0.22448,-0.219026 0.09468,-0.58931 0.217832,-0.764328 0.191883,-0.249441 0.361098,-0.515268 0.519461,-0.786939 0.158086,-0.329657 0.327994,-0.652855 0.500398,-0.975174 0.443376,-0.919125 0.227662,-0.535821 1.711161,-1.169531 -0.02256,0.03939 -0.0405,0.08181 -0.06767,0.118176 -0.04341,0.05811 -0.269341,0.297492 -0.306298,0.336986 -0.175384,0.187424 -0.355747,0.367188 -0.541449,0.544347 -0.508752,0.493506 -0.973489,0.697324 -1.716953,1.057679 -0.07669,0.03717 -0.167668,-0.137719 -0.175064,-0.167516 -0.01185,-0.04773 9.22e-4,-0.09835 0.0014,-0.147528 0.140296,-0.348918 0.407161,-0.627695 0.646793,-0.911576 0.110162,-0.130636 0.07571,-0.08146 0.150019,-0.192428 0.004,-0.006 0.01123,-0.02569 0.01168,-0.01843 0.0016,0.02587 0.01015,0.05888 -0.008,0.07735 -0.02225,0.0226 -0.06119,0.01671 -0.092,0.02424 -0.04979,0.01217 -0.09985,0.02323 -0.149771,0.03484 -0.416834,0.04367 -0.811711,0.233469 -1.232868,0.225521 -0.372807,-0.123864 -0.348022,-0.489536 -0.26248,-0.804677 0.04255,-0.132705 0.09885,-0.259554 0.146197,-0.390351 0.01577,-0.04358 0.03089,0.09558 0.01319,0.138413 -0.01464,0.03541 -0.06306,0.04355 -0.09459,0.06533 0.388887,-0.222739 0.775862,-0.448849 1.166662,-0.668216 0.05544,-0.03112 -0.106661,0.06922 -0.160313,0.103325 -0.0336,0.02136 -0.276339,0.173589 -0.313388,0.194518 -0.47703,0.269474 -0.942989,0.560266 -1.434355,0.802617 -0.04133,0.02039 -0.0902,-0.01895 -0.135306,-0.02843 -0.293243,-0.259023 -0.09447,-0.598216 0.066,-0.873489 -0.02196,-0.05658 0.188833,-0.309868 0.07524,-0.0602 -0.0099,0.02171 -0.334651,0.181284 -0.356675,0.193382 -0.167157,0.107731 -0.501162,0.221161 -0.561061,-0.07942 -0.0336,-0.168584 0.04847,-0.336527 0.09923,-0.487702 0.264877,-0.577975 0.591489,-1.1251638 0.891002,-1.6856862 0.237213,0.2560231 0.01755,-0.2659331 0.0955,-0.2339854 0.05061,0.020745 -0.03188,0.1458964 -0.03465,0.1486963 -0.02827,0.028567 -0.135253,0.086753 -0.100276,0.066956 0.388857,-0.2200875 0.774781,-0.4453162 1.162171,-0.6679743 -0.640531,0.4397815 -1.249184,0.8095945 -1.976215,1.1604861 -0.03387,0.016348 -0.06878,-0.030456 -0.10317,-0.045685 -0.130092,-0.1233446 -0.08834,-0.2562735 -0.07549,-0.4110012 2.51e-4,-0.00302 -0.006,0.00181 -0.0083,0.00375 -0.01594,0.013194 -0.03083,0.0276 -0.04624,0.0414 -0.247773,0.060793 -0.559085,0.3382334 -0.809125,0.3010894 -0.0471,-0.007 -0.08668,-0.039428 -0.130023,-0.059143 -0.02729,-0.042879 -0.07059,-0.079079 -0.08187,-0.128638 -0.07606,-0.3341645 0.361999,-0.7753632 0.555532,-0.9983402 0.598988,-0.6632933 0.351525,-0.4219191 1.746038,-0.9327785 0.04319,-0.015821 -0.06842,0.061508 -0.103438,0.091326 -0.04449,0.037877 -0.09003,0.074489 -0.135051,0.1117337 -0.543732,0.5270307 -0.988819,0.7455776 -1.777783,1.1550729 -0.03059,0.015876 -0.07044,-0.013295 -0.09735,-0.034828 -0.03468,-0.027751 -0.05311,-0.07121 -0.07966,-0.106815 -0.119726,-0.1670931 0.05348,-0.4232016 -0.07018,-0.5810011 -0.01829,-0.02334 -0.04644,-0.036886 -0.06966,-0.055328 -0.01684,-0.00463 -0.190451,-0.051093 -0.199784,-0.059073 -0.20453,-0.1748704 -0.194593,-0.5041441 -0.19424,-0.7427943 0.04182,-0.4288773 0.189053,-0.8356169 0.316954,-1.2439644 0.0059,-0.044485 0.02477,-0.089161 0.01761,-0.1334554 C 11.523785,5.8671873 11.041851,5.9420421 10.96883,5.9507234 10.663236,5.9223247 10.543929,5.6731423 10.401937,5.440145 10.127798,5.3553914 9.8253056,5.4465016 9.5584858,5.5223665 9.18669,5.6295089 8.989099,5.5296354 8.8207831,5.1906615 8.7626421,5.0237001 8.7183056,4.8522418 8.6831513,4.6790661 8.6768714,4.64813 8.6416229,4.4286447 8.6211108,4.3881479 8.6075291,4.3613337 8.5778814,4.3463738 8.5562668,4.3254867 8.3347891,4.2006509 8.1369863,4.3307193 7.9297466,4.3226141 7.8903081,4.3210717 7.8527897,4.3050437 7.8143112,4.2962585 7.6321496,4.2318588 7.6517759,3.9766892 7.5640115,3.8815809 7.538041,3.8534372 7.4989552,3.9253785 7.4773361,3.9569879 9.6872546,2.72007 8.800891,3.1191712 8.4092734,3.5216999 8.2589958,3.6761645 8.1250683,3.8471395 7.9882565,4.0132985 7.728381,4.3406493 7.4795912,4.6765456 7.2215331,5.005319 6.7457409,5.5258083 5.8279003,6.5529225 5.1834425,6.1639883 5.1825888,6.1635373 5.08762,6.1025277 5.0651836,6.1223025 5.04507,6.1400302 5.0119393,6.2094647 5.0357601,6.1971604 5.4536507,5.9813033 5.8480146,5.7220388 6.2642211,5.5029523 6.3107109,5.4784805 6.1860849,5.5733161 6.1494187,5.6109427 6.0987391,5.6629497 6.0513815,5.7180936 6.0023629,5.771669 5.6995997,6.12404 5.4016486,6.4806135 5.1024366,6.8360571 4.8565028,7.1286581 4.5808796,7.3945021 4.3281956,7.6809246 3.8726812,7.9321981 3.4476128,8.2490725 2.9616525,8.4347451 2.8920214,8.4613493 2.9193356,8.2849343 2.9369145,8.2124964 2.9463176,8.1737487 3.2194332,7.949973 3.2654046,7.9230805 3.7258222,7.6537447 4.1922597,7.394834 4.6556872,7.1307108 c 0.02727,0.030223 0.068981,0.052036 0.081809,0.090668 0.016754,0.050458 0.01687,0.1086725 0.00126,0.1594954 C 4.7003169,7.5059971 4.3327434,7.8302513 4.2341691,7.924687 4.0791222,8.0724656 3.9224362,8.2185302 3.7679395,8.3668874 3.6974853,8.4345419 3.6401034,8.5195664 3.5560117,8.5692605 3.0958411,8.8411991 2.6267479,9.0977481 2.162116,9.3619918 1.9169985,9.1947776 1.9916694,8.9086479 2.046539,8.662642 2.0696233,8.5371531 2.1211407,8.4576947 2.2377209,8.3885322 3.6157602,7.5709946 3.2015895,7.7497636 3.9155923,7.4610063 4.4444605,7.3079181 4.9688436,7.0891602 5.521054,7.0430317 c 0.058538,0.012904 0.1222251,0.011459 0.1756152,0.038713 0.3216056,0.1641685 0.2168599,0.5697367 0.1535694,0.8402657 -0.0647,0.2443528 -0.1728133,0.473395 -0.2618058,0.7091223 -0.014467,0.038322 -0.020193,0.080738 -0.041725,0.1155838 -0.011792,0.019084 0.00753,-0.04423 0.011298,-0.066344 0.027198,-0.027605 0.048694,-0.062337 0.081595,-0.082815 C 5.7636752,8.5203315 5.9066178,8.4785787 6.0384654,8.4155345 6.2696146,8.3050083 6.4988348,8.1943709 6.7342324,8.093038 6.7947364,8.076984 6.853492,8.038318 6.9157456,8.044875 6.9666756,8.050245 7.0219492,8.080842 7.0462746,8.125909 7.2018942,8.4142139 6.6818547,8.941023 6.5276876,9.1305201 6.2817363,9.4250259 6.0384532,9.7215651 5.7954747,10.018487 5.7691054,10.05071 5.579945,10.292013 5.5081439,10.333934 5.0495626,10.601674 4.5785047,10.847448 4.1136851,11.104205 4.0946687,11.027984 4.0384305,10.951962 4.056636,10.875543 4.091275,10.730145 4.427508,10.470603 4.5074511,10.409225 4.9459012,10.0726 5.4253777,9.7968555 5.9002049,9.5164107 6.7782447,8.9661161 7.7021762,8.498436 8.6044772,7.9915467 8.9096786,7.8200925 9.2028826,7.6320013 9.5278813,7.5006951 9.8638908,7.6552806 9.4607096,7.9063375 9.3314517,8.0096312 9.1579162,8.1483084 9.1888672,8.1232151 9.0226998,8.2475653 8.2467128,8.7016007 7.1754932,9.7409916 7.3541544,8.4258175 7.3623508,8.229022 7.608002,7.8844601 7.5718327,7.7008509 7.5660065,7.6712746 7.5104152,7.7014189 7.4150781,7.7393414 7.1445224,7.8253321 6.8887557,7.9527318 6.6395996,8.0873062 6.5332611,8.1447419 6.2194641,8.3264584 6.3244292,8.2665496 7.3456581,7.6836832 7.5300448,7.5601795 6.955188,7.9254608 6.3164646,8.3602696 6.3890539,8.3199803 5.2471634,8.9327695 5.1069971,9.007989 4.9209492,8.9556146 4.9154465,8.7732237 c -0.00175,-0.057862 0.03015,-0.1117824 0.045225,-0.1676736 0.088339,-0.2183525 0.484472,-0.598664 0.4753036,-0.8178348 -0.013269,0.0011 -0.027341,-0.00137 -0.039808,0.00331 -0.064544,0.024202 -0.1243532,0.059536 -0.186027,0.090325 C 5.16496,7.9039024 5.0328883,7.978174 5.0767203,7.9531008 6.3480355,7.2258724 6.5729896,7.0777543 6.0409504,7.417898 5.6703463,7.6797397 5.3654636,8.0210232 5.0619895,8.3552973 4.8354081,8.6022446 4.6837126,8.9058047 4.47446,9.1651588 4.4213056,9.1926484 3.1887719,10.425791 2.9944149,9.7666014 2.9362437,9.5693053 3.0583743,9.3320905 3.1219431,9.1526451 3.1151452,9.0933399 3.4702273,8.434769 3.2202397,8.6095452 2.7480595,8.9475702 3.278232,8.5630002 4.3167571,8.0109249 4.367059,7.9841847 4.2243226,8.0777915 4.1812995,8.1151323 4.0361923,8.2410739 3.9366735,8.3824486 3.8384946,8.5455123 3.787038,8.6928387 3.5806972,8.9859604 3.7229929,9.1389162 3.7476587,9.1654299 3.781402,9.1817401 3.8106066,9.203152 4.2424503,9.3825825 4.6996121,9.3189359 5.1340202,9.1895238 5.3963189,9.0902984 5.3648578,9.1092576 5.6135974,8.987686 5.687566,8.9515337 5.9046341,8.8337532 5.8334243,8.8750751 3.8871522,10.004464 4.6953129,9.56326 5.1024238,9.2225904 5.5924235,8.8436462 5.6976876,8.7520311 6.6307728,8.3787556 6.7380884,8.3358246 6.7339303,8.601825 6.7132788,8.7155493 6.6994031,8.7919612 6.5891323,9.114325 6.5660376,9.1837189 6.3747466,9.6805818 6.1570012,10.166049 5.9935305,10.673167 c -0.1901564,-0.04932 0.013558,0.138658 -0.036825,0.160162 -0.4555496,0.194435 -0.9136123,0.38471 -1.3815661,0.547035 -0.069749,0.02419 0.1157261,-0.09249 0.179314,-0.129995 1.0432518,-0.615363 1.1463811,-0.668863 1.8644059,-1.061576 0.6857169,-0.3455626 1.3513191,-0.7437814 2.0603397,-1.0403799 0.06351,-0.0091 0.1268577,-0.035198 0.1905286,-0.027304 0.047277,0.00586 0.094957,0.030857 0.1264473,0.066603 C 9.1740734,9.389654 8.96377,9.7263134 8.8754049,9.9152666 8.7335969,10.211223 8.579428,10.501682 8.4716569,10.812385 8.007293,11.055751 7.5653516,11.347804 7.078565,11.542482 c -0.050581,0.02023 -0.03236,-0.105889 -0.031522,-0.160358 0.00259,-0.168418 0.1864842,-0.449421 0.2658915,-0.59457 0.3719534,-0.728775 0.01736,-0.329983 1.5619208,-0.9258879 0.042197,-0.01628 -0.063979,0.063983 -0.094602,0.097267 -0.045299,0.049235 -0.088737,0.1001509 -0.133106,0.1502259 -0.3385503,0.385596 -0.6543692,0.788553 -0.9353893,1.217901 -0.3590538,0.587224 -0.3281208,0.454074 -1.5408971,0.867264 -0.060306,0.02055 -0.00494,-0.132435 0.022861,-0.189758 0.055813,-0.11507 0.3247473,-0.332882 0.4004342,-0.399783 C 7.3084225,11.024787 8.075972,10.516973 8.763474,9.9042986 9.0573732,9.5927048 9.5542939,9.1556335 9.6206551,8.7021824 c 0.00486,-0.033203 -0.010077,-0.066353 -0.015115,-0.09953 -0.024633,0.00941 -0.049147,0.019149 -0.0739,0.028243 C 9.455249,8.6589608 9.2212809,8.7409934 9.1646764,8.7671607 9.0806271,8.8060153 8.8387199,8.9430276 8.9196793,8.8980883 10.032236,8.2805261 10.206546,8.1298572 9.6618871,8.5415464 9.2092656,8.9138633 8.7968899,9.3296269 8.4242415,9.7812202 7.9743069,10.286151 8.3420112,9.9687528 6.8896339,10.470833 c -0.05464,0.01889 0.093021,-0.06869 0.1388262,-0.10396 0.1515741,-0.116721 0.301619,-0.235418 0.4530233,-0.352359 C 7.9440965,9.6631515 8.3582586,9.2577855 8.7142389,8.799452 8.707464,8.781189 8.934608,8.5387562 8.8550989,8.4876762 8.852837,8.486223 8.6122322,8.5858813 8.5241983,8.6201452 8.452486,8.6542951 8.3788419,8.6846535 8.3090614,8.7225951 8.225477,8.7680424 7.981276,8.9158353 8.0646549,8.870012 8.3981808,8.686713 8.721124,8.4839677 9.0596542,8.3100847 9.1497451,8.2638103 8.893314,8.4257359 8.8120157,8.4861368 8.635996,8.6169114 8.5570309,8.6863564 8.3914539,8.8242659 7.8678069,9.2603798 7.9155211,9.237646 6.8091852,9.7292397 6.7100641,9.7732836 6.6539465,9.5407148 6.672648,9.4338733 6.7007887,9.2731061 6.8705914,9.0436548 6.9496639,8.9207781 7.4220649,8.3054708 7.9193063,7.7124079 8.34071,7.0600447 8.4342482,6.8970996 8.5114488,6.7865988 8.5688486,6.6125514 c 0.00929,-0.028159 0.00293,-0.1166407 0.011388,-0.088221 0.011436,0.038448 0.013867,0.083414 -0.00184,0.1203244 -0.01616,0.037984 -0.1235541,0.1072061 -0.086898,0.088226 C 8.8622457,6.5409153 9.2208765,6.3264025 9.5855653,6.1231632 8.9622434,6.5949164 8.426625,7.1623724 7.9456448,7.775363 7.5986906,8.228616 7.2835839,8.7097611 7.0896588,9.248999 7.1467388,9.285418 7.0707208,9.246489 7.1740478,9.184942 7.2261258,9.15392 7.2885989,9.145097 7.3448038,9.122393 7.4234908,9.090608 7.5016729,9.057442 7.5785684,9.02154 7.821651,8.9080456 7.8927448,8.8629162 8.1290189,8.7314913 8.9573057,8.2542575 7.6527756,9.007215 7.3960693,9.1390908 7.3223421,9.1769662 7.5305768,9.0419974 7.5945052,8.9892393 7.64795,8.945133 7.6980119,8.8970211 7.7477965,8.8488215 c 0.031712,-0.030702 0.054397,-0.071556 0.091052,-0.096146 0.00908,-0.00609 0.00246,0.021724 0.00369,0.032586 C 10.147706,7.6437959 9.2652283,8.1059248 8.776986,8.5256841 8.5041165,8.7602798 8.248332,9.0092117 7.9961227,9.2655896 7.71873,9.5926536 7.4356321,9.9299364 7.2529353,10.322189 c -0.081211,0.17436 -0.1095507,0.140287 -0.02901,0.193515 0.4405534,-0.294708 1.3483706,-0.6745203 -0.7182137,0.391026 -0.064896,0.03346 0.1139778,-0.0914 0.1684424,-0.140027 0.044863,-0.04006 0.086211,-0.08389 0.129316,-0.125827 0.348772,-0.386375 1.5066881,-1.3626312 1.5099726,-0.6587671 3.917e-4,0.083929 -0.2325187,0.4349641 -0.2738927,0.5088901 -0.2684707,0.446687 -0.4573588,0.932589 -0.637366,1.419681 -0.031851,0.0127 -0.1109277,0.43392 -0.1217437,0.439855 -1.4297353,0.784412 -1.2942665,1.235413 -1.423603,0.588608 0.1269207,-0.227212 0.3138754,-0.409634 0.446805,-0.634543 0.2855671,-0.590323 -0.2814616,-0.06044 1.4666378,-0.739775 0.035159,-0.01366 -0.045712,0.06002 -0.068346,0.09019 -0.1169438,0.155909 -0.087792,0.117556 -0.2151312,0.296666 -0.2655253,0.364637 -0.4823027,0.755364 -0.6444247,1.17574 -0.1508449,0.563345 -1.3794664,1.445558 -1.4568583,0.704917 -0.00914,-0.08748 0.1201904,-0.336509 0.1537507,-0.420292 0.1766217,-0.365125 0.2364231,-0.763438 0.3040617,-1.158513 0.010586,-0.222488 0.142369,-0.596798 0.081411,-0.809308 -0.00728,-0.02537 -0.028478,-0.04443 -0.042717,-0.06665 -0.093399,-0.02955 -0.1812506,0.0018 -0.2671279,0.04158 -0.038986,0.01808 -0.1507557,0.08256 -0.1133833,0.06135 1.2602655,-0.715271 1.5730139,-0.94503 1.0938587,-0.601884 -0.5674279,0.469936 -1.6417619,1.462862 -1.6482763,0.432064 0.043157,-0.723748 -0.1408465,-0.195743 1.394638,-0.859825 0.02761,-0.01194 -0.049939,0.034 -0.071847,0.05461 -0.029586,0.02784 -0.05467,0.0601 -0.082006,0.09016 -0.3644938,0.43583 -1.4711184,1.55036 -1.7090906,0.901698 -0.015034,-0.04098 -0.00796,-0.08694 -0.011943,-0.130403 0.064175,-0.199796 0.1811263,-0.406552 0.3700251,-0.514983 1.4522687,-0.833627 0.9458518,-0.706018 1.7177024,-0.8640067 0.7235041,-0.094187 1.4521697,-0.06672 2.1744361,0.01849 0.5740516,0.08691 0.9228881,0.215332 1.1498853,0.768539 0.089026,0.367117 -0.017244,0.733254 -0.1247521,1.084376 -0.274798,0.714662 -0.1570217,0.399601 -1.5044218,0.860691 -0.063589,0.02176 0.1036473,-0.08568 0.1575959,-0.125767 0.070419,-0.05232 0.1435584,-0.100877 0.2153376,-0.151315 0.6703474,-0.442946 1.3756345,-0.839353 2.0805037,-1.220703 0.112054,-0.06062 0.355119,-0.14164 0.49623,-0.13827 0.05475,0.0013 0.105703,0.02874 0.158555,0.04311 0.03097,0.04221 0.07905,0.07614 0.09291,0.126618 0.08976,0.326809 -0.410533,0.818351 -0.597917,1.033704 -0.345078,0.360895 -0.672739,0.737509 -1.0076743,1.107619 -0.4640524,0.27533 -0.9089546,0.585851 -1.392157,0.82599 -0.040447,0.0201 -0.086518,-0.04084 -0.1096185,-0.07965 -0.1414714,-0.237688 0.073883,-0.584496 0.1668979,-0.795143 0.1529782,-0.363013 0.3483817,-0.714406 0.4263275,-1.103681 -0.00843,-0.01598 -0.00782,-0.04335 -0.025301,-0.04795 -0.026506,-0.007 -0.052756,0.01515 -0.079666,0.02034 -0.052336,0.01011 -0.1059916,0.01324 -0.1578568,0.02554 -0.2526984,0.05992 -0.4968086,0.159785 -0.738325,0.252866 -0.240922,0.102389 -0.4746946,0.222033 -0.7051797,0.345973 -0.081215,0.04367 -0.2500413,0.152596 -0.348424,0.173042 -0.049148,0.01022 -0.1003565,-0.0028 -0.1505347,-0.0042 -0.04238,-0.03198 -0.092994,-0.05528 -0.1271385,-0.09593 -0.2161128,-0.257318 -0.064325,-0.62 0.030176,-0.888516 0.037048,-0.04563 0.2107383,-0.563683 0.2343958,-0.575919 1.4614648,-0.755916 1.3353088,-1.190904 1.4464026,-0.511581 -0.058862,0.423451 -0.2051647,0.832506 -0.3379466,1.238001 -0.07821,0.222845 -0.1370282,0.453692 -0.2286754,0.671762 -0.04526,0.107694 -0.039085,0.0498 -0.041994,0.112118 -0.022942,-0.06383 -0.072468,-0.123767 -0.068825,-0.191499 0.0019,-0.03529 0.5735666,-0.08938 0.620471,-0.08997 0.3612089,0.148544 0.3763575,0.556834 0.4052336,0.895381 0.046487,0.13585 -0.027421,0.56141 0.049783,0.665674 0.00252,0.0034 0.026501,-0.02415 0.084412,-0.08779 0.5144846,-0.325233 -0.1427924,0.0929 -1.0019812,0.560844 -0.06556,0.03571 0.1238883,-0.08335 0.1849789,-0.126255 0.180481,-0.126761 0.3550048,-0.259126 0.5250826,-0.399394 0.5059309,-0.434949 0.2818658,-0.254632 1.5147848,-0.914941 0.07258,-0.03887 0.157072,0.07272 0.177337,0.110849 0.0493,0.09275 0.03807,0.172704 0.03935,0.272652 -0.0059,0.05079 -0.01013,0.101824 -0.01784,0.152379 -0.02407,0.157828 -0.06721,0.313852 -0.08403,0.472815 -0.01144,0.108083 -0.01307,0.102261 0.01418,0.06442 0.01559,-0.02448 0.02464,-0.05467 0.04677,-0.07345 0.121754,-0.103327 0.37469,-0.204491 0.515593,-0.279594 0.931097,-0.496287 -0.467672,0.238727 0.431645,-0.23254 0.06102,-0.01713 0.119951,-0.04547 0.183049,-0.05138 0.405403,-0.03796 0.225687,0.472611 0.155923,0.657852 -0.112854,0.350226 -0.313699,0.670319 -0.420095,1.02216 -0.468446,0.193528 -0.92987,0.405014 -1.4053381,0.580586 -0.042891,0.01584 0.063506,-0.06583 0.096642,-0.09734 0.0443,-0.04212 0.089248,-0.08361 0.1355934,-0.123462 0.1796417,-0.154491 0.3684337,-0.299127 0.5525517,-0.448211 0.516588,-0.462711 0.91194,-0.728997 1.681426,-1.038445 0.06456,-0.02596 0.07916,0.123171 0.08018,0.192751 0.0015,0.102515 -0.193556,0.303462 -0.234523,0.352646 -0.363019,0.413422 -0.695488,0.850637 -0.999681,1.308722 -0.369782,0.493301 -0.270483,0.388952 -1.4529951,0.853717 -0.061979,0.02436 -0.056265,-0.125735 -0.054179,-0.192298 0.00376,-0.119948 0.2394834,-0.362013 0.3117012,-0.447786 0.3642009,-0.424099 1.6273209,-1.6484 1.8366729,-0.949223 0.01638,0.0547 0.0074,0.113956 0.01103,0.170934 -0.01217,0.06184 -0.02235,0.124117 -0.03651,0.185536 -0.04164,0.180496 -0.09819,0.357098 -0.149895,0.534744 -0.02688,0.09235 -0.03002,0.139932 -0.02545,0.08638 -0.08721,-0.602308 0.02322,-0.140822 -1.238391,0.556808 -0.05694,0.03149 0.107708,-0.07304 0.161318,-0.10992 0.197327,-0.13574 0.39181,-0.275479 0.587299,-0.413839 0.595592,-0.39816 0.593098,-0.402633 1.647292,-0.970888 0.158523,-0.08545 0.305438,0.03735 0.354555,0.183322 0.01675,0.04978 0.014,0.104112 0.021,0.156168 -0.03411,0.378281 -0.133515,0.747006 -0.187196,1.123352 -0.0077,0.06674 -0.02583,0.201232 -0.02562,0.275204 4.2e-5,0.01522 0.009,0.06015 0.0079,0.04497 -0.05573,-0.787396 -1.850927,0.977326 -1.144345,0.490774 0.717359,-0.593296 0.691711,-0.65277 1.894752,-1.223309 0.0373,-0.01769 0.05802,0.05875 0.08702,0.08812 0.0097,0.04769 0.02886,0.09441 0.02903,0.14307 6.31e-4,0.178368 -0.259369,0.633316 -0.339943,0.808804 -0.02736,0.06078 -0.05525,0.121318 -0.08208,0.182331 -0.02499,0.05682 -0.09873,0.228179 -0.123619,0.296527 -0.0069,0.01897 0.0019,0.04962 -0.01633,0.0583 -1.485008,0.707963 -1.654692,1.072532 -1.361545,0.525865 0.167405,-0.314586 0.402363,-0.584657 0.597377,-0.88129 0.339282,-0.573098 0.231223,-0.372062 1.503714,-0.857892 0.04639,-0.01771 0.02366,0.09773 0.02185,0.14735 -0.0026,0.07233 -0.06629,0.21699 -0.08969,0.277053 -0.05045,0.206893 -0.280682,0.543384 -0.246748,0.755013 -0.297541,-0.596941 0.0062,-0.110949 -1.354848,0.593622 -0.04438,0.02297 0.05692,-0.08215 0.08576,-0.122966 0.107014,-0.151451 0.218427,-0.299562 0.329068,-0.448363 0.317474,-0.55206 1.408772,-1.819807 1.799837,-0.994714 0.03729,0.126275 0.01011,0.255976 0.01611,0.384054 7e-4,0.01494 0.02324,0.03707 0.0099,0.04376 -1.453448,0.727514 -1.532463,1.15385 -1.381746,0.553744 0.160552,-0.498152 0.573769,-0.852174 0.939946,-1.202799 0.415272,-0.373846 0.884,-0.681927 1.366403,-0.961469 1.514021,-0.877341 1.036765,-0.631101 1.840968,-1.03434 0.178703,-0.0713 0.718403,-0.402594 0.782865,-0.01598 0.0079,0.04762 -0.0096,0.09608 -0.01436,0.144126 -0.253667,0.53467 -1.174578,1.4223 -1.615014,0.95504 -0.07231,-0.07672 -0.08302,-0.150666 -0.113313,-0.247258 -0.07467,-0.34335 -0.01373,-0.689468 0.06201,-1.026408 0.08092,-0.306927 0.214638,-0.595766 0.340554,-0.885944 0.02505,-0.132669 0.09168,-0.251182 0.139952,-0.376395 0.05686,-0.182642 0.214372,-0.290358 0.352236,-0.413268 0.620854,-0.525538 1.275835,-1.061219 2.065494,-1.312393 0.271411,0.158182 0.105129,0.442292 -0.01103,0.648828 -0.3767,0.662181 -0.401909,0.489531 -1.553963,1.105292 -0.02696,0.01441 -0.06179,-0.01307 -0.0861,-0.03161 -0.04186,-0.03192 -0.07153,-0.07725 -0.107301,-0.115873 -0.22793,-0.278506 -0.452951,-0.557644 -0.758024,-0.753849 -0.402439,-0.139509 -0.48142,-0.551883 -0.541497,-0.926557 -0.08154,-0.378661 -0.0289,-0.774717 -0.09786,-1.1531 -0.294505,0.03792 -0.557823,0.191761 -0.821133,0.319665 -0.128313,0.0677 -0.249882,0.168315 -0.388527,0.217122 -0.06208,0.02185 -0.10158,0.0189 -0.158263,0.05308 -0.02657,-0.03997 -0.06027,-0.07603 -0.07971,-0.119917 -0.07454,-0.168225 0.0082,-0.517535 0.03079,-0.695004 -0.0053,-0.03524 0.07758,-0.4721935 0.0095,-0.4505117 -0.01792,0.00571 -0.02736,0.026183 -0.04326,0.036223 -0.02724,0.017194 -0.05699,0.030035 -0.08549,0.045052 0.05401,-0.044541 -0.316675,0.1849617 -0.236885,0.1397953 0.395725,-0.2240078 1.603234,-0.8533622 1.183432,-0.6785934 -0.705038,0.2935161 -1.13714,1.1814228 -1.601155,0.6282054 -0.0945,-0.014442 -0.05533,-0.4458225 -0.09595,-0.4717151 -0.0081,-0.00517 -0.01462,0.01249 -0.02194,0.018735 -0.07293,0.045229 -0.306421,0.1877926 -0.384753,0.1502973 -0.03883,-0.018588 -0.06272,-0.058991 -0.09408,-0.088486 -0.183304,-0.165761 -0.01278,-0.4924484 -0.122149,-0.6643553 -0.243178,0.018683 -0.35374,-0.1619154 -0.444724,-0.3601715 -0.08731,-0.255192 -0.09152,-0.5254656 -0.116786,-0.7908812 -0.0062,-0.015447 -0.0022,-0.043177 -0.01854,-0.046342 -0.01662,-0.00322 -0.02087,0.028294 -0.03606,0.035762 -0.02503,0.012306 -0.05361,0.015559 -0.08083,0.021696 -0.104728,0.023618 -0.204837,0.044341 -0.312038,0.047843 -0.02893,-0.00866 -0.05787,-0.017329 -0.0868,-0.025993 -0.02417,-0.019019 -0.04354,-0.04676 -0.07252,-0.057057 -0.05329,-0.018933 -0.388481,0.043093 -0.451308,0.052792 C 11.045553,7.7947678 10.874705,7.912807 10.633787,7.5258194 10.516813,7.391874 10.556361,6.950759 10.474569,6.8290345 10.462397,6.8109199 10.436991,6.806829 10.418203,6.7957262 10.259181,6.7211568 10.095786,6.8019775 9.9407594,6.7929211 9.819209,6.7858204 9.7809597,6.7417623 9.6831243,6.6776719 9.4253543,6.3617477 9.3927328,5.9362351 9.3671816,5.5441932 9.3097682,5.1986031 9.4186675,4.7788047 9.2807805,4.4561191 9.1568616,4.3239182 8.9395843,4.3563038 8.8023332,4.2491282 8.773344,4.2264913 8.7530702,4.194499 8.7284386,4.1671844 8.6040527,4.0001198 8.5324175,3.8016992 8.3713747,3.6659078 8.0368582,3.5180703 7.6416055,3.5826873 7.2935649,3.6487728 7.1838544,3.6726461 7.0467651,3.7005168 6.9371998,3.7313285 6.7337505,3.7885421 6.6855535,3.7868277 6.6595149,3.5520208 6.6747822,3.5269491 6.6864031,3.4992545 6.705317,3.4768057 6.7503988,3.4232981 6.8494459,3.3508027 6.899461,3.3082734 7.0109783,3.2134467 7.1168096,3.1124312 7.220744,3.0094696 7.5493277,2.6558743 8.6575007,1.6623345 8.7348116,2.3408428 8.7406486,2.392071 8.4883456,2.6705457 8.4598659,2.704818 8.1786207,3.0651937 7.8682036,3.400799 7.5653409,3.7426927 7.2811741,4.0740624 6.9980742,4.4065076 6.704822,4.7299087 6.4027714,5.0874876 6.0301088,5.3710355 5.6608146,5.6542142 5.2873981,5.9439156 4.9080944,6.2272074 4.541875,6.526044 4.3620816,6.7288775 3.9754056,6.9256697 3.9113033,7.2042011 4.3214008,7.3567092 4.7882624,7.1318558 5.1634716,6.9765246 5.5934842,6.7346014 6.7551313,6.1280665 4.7701415,7.2095788 4.6885086,7.2540561 4.9262831,7.1086404 5.0042235,7.0579702 5.3008344,6.8651393 5.1066725,6.9885667 5.3946164,6.8078754 4.3288802,7.7586863 6.7519187,5.5215927 7.084689,6.0541541 7.179811,6.2063855 7.114425,6.4031752 7.082199,6.5610589 7.065738,6.6187939 7.049278,6.6765287 7.032817,6.7342636 7.015528,6.7879266 6.996869,6.8411677 6.980949,6.8952527 6.9703642,6.9312171 6.9592098,7.0428881 6.958258,7.00541 6.9568659,6.9505971 7.0003465,6.8195823 6.949927,6.8411293 6.5379797,7.0171772 6.171917,7.28551 5.7829119,7.5077003 6.6293768,6.9841609 7.471333,6.4088696 8.4549314,6.1967323 c 0.06023,0.015181 0.1250673,0.017899 0.1806894,0.045545 C 8.9737719,6.4103476 8.9011197,6.8694689 8.85464,7.166168 8.837823,7.243091 8.823242,7.3205377 8.804189,7.3969379 8.780223,7.4930419 8.707845,7.7343932 8.6788259,7.8335755 c -0.025442,0.086956 -0.038,0.1778873 -0.070125,0.2626022 -0.00737,0.019432 0.00557,-0.04119 0.00835,-0.061785 0.015931,-0.024696 0.025232,-0.055256 0.047794,-0.074089 0.030366,-0.025348 0.069891,-0.037124 0.1056619,-0.054007 0.1185889,-0.05597 0.2557774,-0.1247157 0.3715993,-0.015293 0.035309,0.033358 0.05121,0.082556 0.076816,0.1238341 0.00684,0.055655 0.023092,0.1109509 0.020521,0.1669661 -0.00609,0.1327072 -0.07315,0.3445057 -0.1108261,0.4644862 -0.09273,0.295302 -0.2002478,0.5863442 -0.3032219,0.8781537 -0.050581,0.2291601 -0.1955662,0.4523265 -0.1812728,0.6948492 6.103e-4,0.01036 0.017664,0.02945 0.023237,0.0207 0.1380082,-0.216681 -0.1329503,-0.0671 0.2622481,-0.189367 1.0832806,-0.2858633 2.1882186,-0.4857559 3.2898976,-0.6872585 0.284004,-0.00857 0.909371,-0.2689448 1.107898,0.090517 0.08665,0.1568961 0.03457,0.277232 0.0067,0.4392934 -0.218519,0.5835571 -0.554185,1.1144241 -0.851255,1.6602121 -0.357099,0.616356 -0.577406,0.674203 -1.563794,1.051937 -0.07159,0.02742 -0.05979,-0.148139 -0.05091,-0.224285 0.01066,-0.09135 0.205583,-0.259493 0.251994,-0.30517 0.599808,-0.473617 1.292945,-0.834446 1.964935,-1.18383 0.11982,-0.0623 0.170042,0.01522 0.252018,0.07789 0.01633,0.06143 0.04412,0.120917 0.04898,0.184296 0.02656,0.346468 -0.280899,0.883621 -0.436694,1.183655 -0.533959,0.895147 -0.641383,1.074789 -1.887756,1.59118 -0.06804,0.02819 -0.0538,-0.137115 -0.08071,-0.205673 0.21835,-0.31439 0.555621,-0.543587 0.882782,-0.734831 1.45231,-0.848955 1.033772,-0.64163 1.824361,-1.015898 0.288363,-0.111854 0.635141,-0.169297 0.643464,0.261571 0.0034,0.173671 -0.08072,0.327281 -0.144037,0.481322 -0.327247,0.643863 -0.737389,1.241845 -1.159533,1.826417 -0.177814,0.225728 -0.317833,0.50069 -0.550317,0.678746 -0.01711,0.01958 -0.04101,0.03488 -0.05134,0.05875 -0.01889,0.04363 -0.0553,0.284847 -0.05867,0.307456 -0.03279,0.21987 -0.05098,0.441192 -0.07799,0.661803 -0.02972,0.29138 -0.11468,0.584396 -0.02912,0.87182 0.07433,0.248794 0.09218,0.508781 0.110017,0.766385 0.0024,0.04433 0.005,0.08864 0.0071,0.13298 0.002,0.0423 0.0026,0.08467 0.005,0.126945 0.0018,0.03122 0.0023,0.06272 0.0078,0.09351 0.0014,0.0077 0.01948,0.0165 0.01244,0.01991 -1.126234,0.545264 -1.887363,0.84342 -1.351356,0.632661 0.07619,-0.279796 0.07304,-0.575005 0.08189,-0.862985 0.0049,-0.339427 0.04064,-0.68317 -0.08774,-1.003976 -0.172185,-0.287726 -0.479187,-0.389309 -0.797826,-0.406073 -0.225991,-0.009 -0.446613,0.04377 -0.650804,0.139354 -0.050881,0.02382 -0.1976179,0.106948 -0.1487914,0.07916 0.3835861,-0.218299 0.7687484,-0.433816 1.1531224,-0.650725 -0.582027,0.404215 -1.5481491,1.584627 -1.8543349,0.622086 -0.072128,-0.278869 -0.0067,-0.559431 4.461e-4,-0.840108 C 8.738976,15.843963 8.7243898,15.473191 8.5954254,15.425132 8.4658443,15.48657 8.3536742,15.379858 8.2819424,15.281994 8.1966789,15.088558 8.1958926,14.874555 8.1492467,14.670723 8.0761623,14.455483 7.9334103,14.282129 7.8624793,14.065016 7.7802743,13.777482 7.7116387,13.483985 7.6037322,13.204677 7.4148891,12.979991 7.0909069,12.894179 6.8257247,12.78676 6.5014299,12.684102 6.2432221,12.576297 6.0536321,12.285598 5.8933249,12.043406 5.9474319,11.731664 5.8355317,11.477966 5.6432204,11.316687 5.3476582,11.30072 5.1070805,11.324897 4.857365,11.359481 4.6888535,11.208062 4.4886454,11.09618 4.2920321,11.031994 4.1395936,10.90028 3.9407876,10.84058 3.6830115,10.790188 3.607048,10.674558 3.5666957,10.425258 3.5726118,9.9844708 3.7546214,9.5829286 3.9658083,9.2055641 4.2423418,8.7719423 4.603675,8.4076497 4.9992395,8.0832678 5.3593336,7.791248 5.7667555,7.5701499 6.1546672,7.3195701 6.5043804,7.1054354 6.8397079,6.8701343 7.1725403,6.63101 7.807017,6.1326924 8.4663376,5.7386319 9.2226724,5.4026433 c 0.054951,-0.024411 0.1092282,0.050311 0.1638423,0.075467 0.3267,0.3381639 0.2736917,0.8143886 0.2219603,1.2448964 0.00174,0.1429493 -0.1602013,0.5426568 -0.052933,0.6619259 0.03344,0.037181 0.2042362,0.068545 0.2315541,0.075062 0.2066135,0.058022 0.4904719,-0.039075 0.6671119,0.1153247 0.118862,0.1038972 0.147237,0.2380546 0.199567,0.3783321 0.15003,0.634415 0.09697,1.2905022 0.06596,1.9349476 -0.0043,0.528316 -0.08678,1.08283 0.0759,1.595928 0.129848,0.294493 0.187392,0.612167 0.281582,0.918603 0.136691,0.399318 0.325933,0.610913 0.720244,0.757386 0.558031,0.13648 1.141623,0.02349 1.695574,-0.0846 0.286504,-0.0373 0.896466,-0.29154 1.121733,-0.02414 0.04317,0.05124 0.05827,0.120678 0.08741,0.181017 0.08523,0.532632 -0.150548,1.042124 -0.334047,1.52986 -0.08417,0.201271 -0.164157,0.404112 -0.240864,0.608312 -0.01392,0.03705 -0.02875,0.07376 -0.04201,0.111047 -0.0011,0.0031 -1.92e-4,0.01304 -9.82e-4,0.0098 -0.01194,-0.04839 -0.02174,-0.09728 -0.0326,-0.145916 0.260517,-0.164337 0.545409,-0.295739 0.84188,-0.38197 0.03114,-0.0018 0.06473,-0.0176 0.09342,-0.0054 0.06851,0.0292 0.160377,0.262024 0.09388,0.291462 -0.47165,0.208808 -0.94454,0.414804 -1.41681,0.622206 0.01809,-0.0093 0.03674,-0.01762 0.05426,-0.02798 0.458148,-0.270808 0.90122,-0.568486 1.372644,-0.815457 0.02852,-0.01494 0.0604,0.02882 0.07969,0.0546 0.09852,0.131712 0.04559,0.254186 2.06e-4,0.391677 -0.188379,0.549597 -0.896517,1.976682 -1.629685,1.243472 -0.251715,-0.628488 0.310151,-0.436782 1.359158,-0.84741 0.03774,-0.01477 -0.0029,0.08765 -0.05842,0.244081 -0.127855,0.270063 -0.294147,0.519022 -0.435719,0.781689 -0.165242,0.35408 -0.356562,0.687091 -0.613825,0.98201 -0.482242,0.558645 -0.870734,0.675434 -1.709654,1.073024 -0.03025,0.01433 -0.06609,-0.0269 -0.08382,-0.0553 -0.02963,-0.04745 -0.03376,-0.106671 -0.05064,-0.160006 0.06182,-0.548997 0.467324,-0.984647 0.816508,-1.382299 0.4511,-0.491648 0.968923,-0.914883 1.472761,-1.350156 0.323364,-0.287703 0.594402,-0.625159 0.858169,-0.966425 0.166467,-0.237271 0.333328,-0.479302 0.39872,-0.765043 0.02004,-0.305105 -0.290842,-0.335556 -0.521726,-0.381502 -0.452919,-0.232921 -0.331731,-0.604135 -0.178619,-0.998834 0.205972,-0.465697 0.492434,-0.887482 0.753485,-1.322386 0.0079,-0.02998 0.02285,-0.05895 0.0238,-0.08995 7.68e-4,-0.02483 -0.04926,-0.0093 -0.07407,-0.0081 -0.110964,0.0054 -0.2114,0.0278 -0.321199,0.04829 -0.101865,-0.0055 -0.415365,0.103006 -0.500073,0.08746 -0.08408,-0.01544 -0.124428,-0.08422 -0.173515,-0.142326 -0.119434,-0.250233 -0.113805,-0.543158 -0.148866,-0.815441 -0.03026,-0.349097 -0.06334,-0.394627 -0.397862,-0.471793 -0.327288,-0.04554 -0.659549,-0.04205 -0.989375,-0.04345 -0.346021,-0.02269 -0.698482,0.04264 -1.042415,-0.0026 -0.289173,-0.1705321 -0.248454,-0.5553432 -0.260607,-0.848568 0.0045,-0.3240706 -0.02862,-0.5230257 -0.293207,-0.7240116 -0.274998,-0.199559 -0.53366,-0.2832481 -0.871462,-0.2398577 -0.176098,0.01579 -0.0928,0.00753 -0.249934,0.024297 0,0 1.237879,-0.9132488 1.237879,-0.9132488 l 0,0 c 0.146148,-0.00536 0.06813,-0.00248 0.234041,-0.00865 0.351538,0.0068 0.65646,0.110122 0.93469,0.3300933 0.299245,0.2491239 0.368053,0.4547006 0.34757,0.8421453 0.0047,0.1238429 -0.0046,0.5462285 0.114409,0.627536 0.01752,0.01197 0.04019,0.013607 0.06029,0.02041 0.332218,0.028583 0.667361,0.00568 1.000302,0.012095 0.346479,-0.00175 0.697563,-0.018979 1.037564,0.061414 0.366543,0.1244054 0.463035,0.2381618 0.481336,0.6288819 0.02797,0.2379166 0.04741,0.4890896 0.12922,0.7141226 0.09765,0.07444 0.444,-0.0527 0.570558,-0.05569 0.179458,-0.02518 0.526111,-0.0557 0.554858,0.211799 0.0054,0.05016 -0.01985,0.09894 -0.02977,0.148405 -0.272555,0.427868 -0.578517,0.838557 -0.782947,1.305788 -0.111811,0.285291 -0.301896,0.61024 0.08606,0.75404 0.309107,0.07726 0.628194,0.208745 0.642101,0.57554 -0.02698,0.322627 -0.21541,0.582759 -0.391897,0.845533 -0.265831,0.357815 -0.550756,0.704707 -0.877983,1.008427 -0.50926,0.440483 -1.047627,0.850751 -1.509383,1.343601 -0.314053,0.358839 -0.673155,0.734105 -0.773537,1.216805 -0.03079,0.02021 -0.03056,0.01866 0.0043,0.0018 -0.419926,0.243827 -0.839851,0.487654 -1.259776,0.73148 -0.03398,0.02016 0.0757,-0.02591 0.108259,-0.04829 0.06953,-0.04779 0.185493,-0.180587 0.239147,-0.238551 0.28377,-0.288903 0.464436,-0.557987 0.609518,-0.938252 0.138053,-0.25802 0.288923,-0.506515 0.439749,-0.757721 0.01831,-0.05226 0.01407,-0.127291 0.06266,-0.153859 0.462231,-0.252751 0.933558,-0.488499 1.400337,-0.732749 -0.05148,-0.02112 -0.0052,0.04605 -0.06255,-0.0228 -0.29125,-0.472163 0.0021,-0.03169 -1.30633,0.729902 -0.02686,0.01563 0.04416,-0.04419 0.062,-0.06963 0.08266,-0.117876 0.130608,-0.256129 0.176239,-0.391121 0.01354,-0.03773 0.02628,-0.07576 0.04062,-0.113188 0.0077,-0.02006 0.0072,-0.0479 0.02543,-0.05922 0.01129,-0.007 0.02716,0.01122 0.03219,0.02351 0.0045,0.01108 -0.01866,0.04089 -0.0083,0.03494 1.275917,-0.730692 1.500433,-1.209504 1.251615,-0.70699 -0.485373,0.215769 -0.965788,0.443055 -1.456119,0.647308 -0.02886,0.01202 0.0055,-0.0713 0.03173,-0.08827 0.02167,-0.014 0.109828,0.06144 -0.02255,0.03955 -0.302741,0.100634 -0.573458,0.268239 -0.860041,0.405351 -0.04437,-0.03648 -0.100643,-0.06206 -0.13311,-0.109443 -0.03851,-0.05621 0.05566,-0.17039 0.06869,-0.195682 0.10399,-0.201882 0.172889,-0.419115 0.277584,-0.620735 0.179616,-0.444584 0.392864,-0.908194 0.345693,-1.39934 -0.01535,-0.03388 -0.02056,-0.07457 -0.04606,-0.101652 -0.152693,-0.162141 -0.804514,0.05753 -1.002998,0.07201 -0.587857,0.09682 -1.196261,0.213756 -1.781756,0.04342 -0.06578,-0.02891 -0.134877,-0.05121 -0.197328,-0.08674 -0.295261,-0.167927 -0.4826002,-0.4702 -0.5921232,-0.78165 -0.1025647,-0.305272 -0.1878281,-0.61557 -0.2978994,-0.91838 -0.1236149,-0.5493 -0.027654,-1.119693 -0.018278,-1.67603 C 9.4638928,9.9155061 9.5094802,9.2860083 9.345028,8.6838718 9.304788,8.5891629 9.2812526,8.4831058 9.1882741,8.4220229 9.0034485,8.3006003 8.7300885,8.4042348 8.5338012,8.312008 8.4068434,8.2621733 8.3023707,8.2426413 8.2180084,8.1209297 8.0826775,7.9256845 8.2533555,7.591511 8.2698946,7.3807436 8.3270423,7.0515168 8.4124478,6.5840191 8.1258233,6.3383901 7.5859178,6.3165947 7.9958702,6.3509327 9.1698697,5.6520764 9.2257809,5.6187937 9.0582138,5.7189606 9.0034427,5.7540879 8.815662,5.8745203 8.8882265,5.8305673 8.7168132,5.9660285 8.6690361,6.0037848 8.6202286,6.0402186 8.5719364,6.0773137 8.2384096,6.3200279 7.9030941,6.5610464 7.5491525,6.7735524 7.1659412,7.0398431 6.7415023,7.2403033 6.3750328,7.5321036 5.9758573,7.8359561 5.6081619,8.1808582 5.3277174,8.600383 5.1196621,8.9382747 4.9357382,9.3012455 4.9187256,9.7059516 c 0.040798,0.2019246 0.1007091,0.2146883 0.2954802,0.2727492 0.1990668,0.07712 0.3693424,0.2041622 0.5700966,0.2785262 0.1883859,0.118337 0.3209597,0.192186 0.5567555,0.167437 0.3006147,0.01749 0.6326879,0.05023 0.8319948,0.30216 0.018147,0.04324 0.043343,0.08415 0.054441,0.129709 0.010392,0.04266 0.00477,0.08772 0.00916,0.131402 0.018167,0.180416 0.052076,0.360982 0.1375291,0.522767 0.1773662,0.251601 0.4135154,0.340228 0.6986247,0.440794 0.3087406,0.122784 0.6850349,0.213356 0.8703103,0.511363 0.095871,0.284756 0.1578091,0.580484 0.2566207,0.864486 0.07845,0.218987 0.2308378,0.393512 0.3078416,0.612636 0.040758,0.180983 0.045743,0.369281 0.1096899,0.543471 0.081053,0.08362 0.2195133,0.03442 0.3019955,0.126381 0.1390225,0.18621 0.1821625,0.441348 0.1929115,0.669019 -0.0072,0.264547 -0.07861,0.528824 -0.01598,0.791664 0.0077,0.02579 0.02457,0.110454 0.056,0.133907 0.0082,0.0061 0.0394,-0.0082 0.03061,-0.003 -2.2872263,1.374037 -1.4013299,0.902059 -0.9888943,0.538288 0.7351011,-0.431482 1.4042973,-1.053743 2.2882543,-0.995373 0.366373,0.0628 0.691936,0.206769 0.887192,0.541243 0.02238,0.05402 0.05037,0.106048 0.06714,0.162066 0.08697,0.290524 0.02732,0.602474 0.04331,0.89932 -0.0016,0.2927 -0.0059,0.585672 -0.02471,0.877832 0.06875,0.630851 0.05338,0.167135 -1.422794,0.786787 -0.02138,0.009 -0.01339,-0.04481 -0.01495,-0.06794 -0.0079,-0.117393 0.0141,-0.238238 -0.0022,-0.355831 -0.01259,-0.245741 -0.03091,-0.493609 -0.109124,-0.728765 -0.09017,-0.323889 -0.001,-0.62512 0.04691,-0.950512 0.0483,-0.363274 0.07475,-0.729788 0.08301,-1.096157 0.06216,-0.06832 0.140728,-0.107199 0.210514,-0.168972 0.174329,-0.154313 0.313461,-0.340623 0.450344,-0.527763 0.433914,-0.559 0.844426,-1.140676 1.147972,-1.78258 0.04283,-0.09724 0.206316,-0.368982 0.145889,-0.496168 -0.06774,-0.14257 -0.380284,0.03045 -0.440008,0.04277 -0.564347,0.276655 -0.47003,0.239027 0.652307,-0.41082 0.100356,-0.05811 -0.200733,0.116487 -0.297168,0.180893 -0.199118,0.132986 -0.249141,0.185495 -0.418794,0.333105 -0.03116,0.02711 -0.06243,0.05411 -0.09364,0.08117 -0.49056,-0.410831 -0.03937,-0.0967 -1.352116,0.643326 -0.05047,0.02845 0.08942,-0.07463 0.126644,-0.11902 0.108732,-0.12965 0.198861,-0.273917 0.293303,-0.414319 0.05173,-0.0769 0.09946,-0.156418 0.149184,-0.234627 0.192899,-0.351719 0.396559,-0.722227 0.42966,-1.129502 -0.07527,-0.0094 -0.02787,-0.0093 -0.139818,0.02592 0.38099,-0.223807 0.76198,-0.447615 1.14297,-0.671422 0.05885,-0.0347 -0.119578,0.06624 -0.177617,0.102283 -0.08511,0.05286 -0.275689,0.185671 -0.358605,0.242829 -0.04935,0.0405 -0.100394,0.07902 -0.148043,0.121512 -0.0324,0.02889 -0.04908,0.08468 -0.0918,0.09235 -0.03946,0.0071 -0.07026,-0.07492 -0.106024,-0.05681 -1.945154,0.985016 -1.43626,1.061139 -1.024936,0.487799 0.306869,-0.523109 0.642503,-1.037628 0.851092,-1.61019 0.01472,-0.05499 0.07603,-0.216861 0.04444,-0.293124 -0.09127,-0.220297 -0.76691,-0.06392 -0.909135,-0.06202 -1.1342639,0.179077 -2.2736952,0.378963 -3.358335,0.766445 -0.091726,0.03183 -0.1783073,0.08894 -0.2751788,0.0955 -0.065646,0.0044 -0.1358985,-0.02236 -0.1866375,-0.06425 -0.089728,-0.07408 0.1804925,-0.748462 0.2094412,-0.847279 C 7.6605448,9.7020018 7.847113,9.2539513 7.8834307,8.7908993 7.7914115,8.6366511 7.4568846,9.0196041 7.3040537,8.8755176 7.2762457,8.8346301 7.2289681,8.8015947 7.2206296,8.7528551 7.218944,8.7430025 7.32698,8.4764372 7.3288727,8.4711329 7.4047914,8.2583751 7.4683068,8.0401401 7.5178522,7.8198217 7.5494899,7.6406451 7.6568186,7.1904412 7.3928059,7.1130895 7.35095,7.1008264 7.3057521,7.1075368 7.2622253,7.1047604 7.0315098,7.1604034 6.8107564,7.2320185 6.5930869,7.3282585 6.5052169,7.3671092 6.2516471,7.5038227 6.333505,7.4535256 6.6153331,7.280358 7.859358,6.5575481 7.1936713,6.9587118 6.6761842,7.2612401 6.0271172,8.111519 5.5675837,7.7266224 5.5401574,7.7036506 5.7007685,7.2838517 5.7199838,7.2200912 5.7234796,7.203845 5.7919031,6.917535 5.7820748,6.8950286 5.7728659,6.8739404 5.5882772,6.9722011 5.6645352,6.9258362 6.0339281,6.701245 6.4105833,6.4888219 6.7836073,6.2703148 5.8715955,6.8194409 4.9864894,7.4217599 4.0204669,7.8741532 3.6690416,8.004757 3.0229836,8.2698707 2.66334,8.0352114 2.6105216,8.0007486 2.5777687,7.9425431 2.534983,7.8962089 2.5336719,7.8501329 2.5200839,7.8027523 2.5310496,7.757981 2.5932147,7.5041711 2.9923059,7.273094 3.1581438,7.08545 3.5177112,6.7728157 3.9138897,6.5024674 4.2847408,6.2035804 4.64795,5.9219941 5.0279269,5.6544906 5.3322002,5.3064025 5.6247346,4.9832784 5.9099382,4.6532597 6.1916096,4.3208932 6.4927733,3.9856935 6.8050125,3.6586012 7.0735578,3.2961783 7.0961508,3.267433 7.2939351,2.9975874 7.3136957,3.0076989 7.3632171,3.0330389 7.371193,3.1575607 7.4219214,3.1347327 7.7389523,2.9920671 9.2004592,2.0717676 8.6353732,2.4271494 8.4568468,2.592732 8.2949693,2.7840972 8.0842253,2.9086127 c -0.00466,-0.00249 -0.089121,-0.04 -0.085405,-0.063637 0.00151,-0.0096 0.4599784,-0.088039 0.4901692,-0.093872 0.3951746,-0.050859 0.8295511,-0.1125858 1.1852329,0.1073614 0.1540073,0.1468166 0.2521232,0.328761 0.3740726,0.5008285 0.169925,0.1438284 0.441388,0.1379855 0.561718,0.3533868 0.0206,0.052292 0.04983,0.1019604 0.0618,0.1568751 0.06186,0.2839566 -0.03249,0.6918194 0.02038,0.987345 0.02676,0.3314963 0.03097,0.7290791 0.272668,0.9834799 0.245174,0.097224 0.534796,-0.029597 0.76327,0.1458423 0.03153,0.035572 0.07124,0.06531 0.09459,0.1067159 0.09609,0.1704206 0.0068,0.4856805 0.131966,0.6611187 0.019,0.02751 0.03284,0.059413 0.05699,0.082529 0.160697,0.1538012 0.455482,-0.014181 0.638536,-0.013873 0.140004,-0.019989 0.290361,-0.048278 0.432086,-0.021909 0.05035,0.00937 0.09542,0.041906 0.146424,0.046574 0.01927,0.00176 0.0387,-8.295e-4 0.05805,-0.00124 0.210334,-0.029645 0.499851,-0.1180702 0.577193,0.1547401 -0.0076,0.2485337 0.0058,0.502273 0.07946,0.7411187 0.13375,0.2895402 0.244106,0.1609205 0.458265,0.3505476 0.01402,0.034331 0.03449,0.066691 0.04206,0.1029933 0.03008,0.14418 -0.03285,0.3024077 0.01099,0.4448763 0.0052,0.01687 0.01952,0.029409 0.02929,0.044114 0.159361,-0.049359 0.310316,-0.1534109 0.479037,-0.071968 0.0258,0.026181 0.05739,0.047712 0.07741,0.078542 0.08107,0.1248541 -0.03106,0.2911629 0.05461,0.4142066 0.01139,0.00808 0.02039,0.021955 0.03417,0.024238 0.01548,0.00256 0.05921,-0.019069 0.04576,-0.010992 -0.405003,0.243225 -1.633638,0.9497401 -1.222226,0.7175196 0.489451,-0.2762699 1.094098,-0.7427962 1.6978,-0.9427491 0.04463,-7.126e-4 0.09074,-0.013595 0.133877,-0.00214 0.271742,0.072179 0.124651,0.4359045 0.119112,0.6281647 -0.01446,0.1449599 -0.04151,0.2943855 -0.04228,0.4403352 -5.96e-4,0.1121017 0.02797,0.1481917 0.0092,0.1377907 -0.02215,-0.01226 -0.02896,-0.04153 -0.04344,-0.0623 0.177057,-0.040902 0.323395,-0.1605226 0.488175,-0.2334984 0.214158,-0.099987 0.662548,-0.3537457 0.896257,-0.2094607 0.04481,0.027667 0.07305,0.075885 0.109576,0.1138276 0.01946,0.3883355 -0.0094,0.7798965 0.05279,1.1659815 0.07753,0.406168 0.115897,0.624463 0.511471,0.808337 0.287031,0.22274 0.502049,0.513877 0.77504,0.751683 0.02362,0.0079 0.04595,0.02453 0.07086,0.02384 0.01485,-4.1e-4 0.04839,-0.03439 0.03563,-0.02678 -0.418268,0.249582 -0.834914,0.501871 -1.252371,0.752806 0.02317,-0.01902 0.05047,-0.0339 0.0695,-0.05705 0.0076,-0.0092 0.123703,-0.209772 0.125778,-0.213336 0.05297,-0.08119 0.07941,-0.115579 0.120694,-0.201624 0.02869,-0.05981 0.08845,-0.182143 0.0938,-0.131995 0.0011,0.0099 -0.01381,0.0143 -0.02071,0.02144 -0.469381,0.238327 -0.311232,0.159815 1.125966,-0.666963 0.04817,-0.02771 -0.0935,0.06027 -0.137814,0.09381 -0.148377,0.112304 -0.283905,0.241861 -0.431974,0.354676 -0.06142,0.05769 -0.128286,0.109762 -0.186301,0.170876 -0.01779,0.01874 -0.02767,0.04429 -0.04641,0.06208 -0.06199,0.05885 -0.02282,-0.02173 -0.08561,0.05111 -0.01496,0.01736 -0.02221,0.04008 -0.03331,0.06013 -0.06075,0.119999 -0.115532,0.248481 -0.143008,0.380261 -0.13906,0.285932 -0.302172,0.561652 -0.385961,0.872693 -0.07332,0.305841 -0.147487,0.627528 -0.07608,0.940388 0.0141,0.04022 0.01431,0.112486 0.05688,0.11451 0.0115,5.47e-4 0.03504,-0.02954 0.02513,-0.02369 -2.325396,1.373295 -1.442508,0.994034 -1.089263,0.598992 0.01547,-0.01874 0.03027,-0.03806 0.04641,-0.05622 0.0042,-0.0047 0.02014,-0.0095 0.01446,-0.01228 -0.111445,-0.05418 -0.47807,0.163821 -0.570914,0.189026 -0.570836,0.288626 -0.405038,0.21207 0.609782,-0.380661 0.120139,-0.07017 -0.240285,0.140357 -0.359198,0.212586 -0.281978,0.171273 -0.434347,0.264969 -0.697164,0.46417 -0.104815,0.07944 -0.204367,0.1656 -0.306551,0.248401 -0.327101,0.318375 -0.710466,0.635835 -0.867179,1.078924 -0.138761,0.581206 0.0014,0.07094 -1.428216,0.785434 -0.01218,0.0061 0.02646,-0.01392 0.0308,-0.02683 0.01133,-0.0337 0.01113,-0.07031 0.01377,-0.105763 0.0065,-0.08671 0.0027,-0.120965 -0.0013,-0.202069 -0.0064,-0.01281 -0.0065,-0.03165 -0.01915,-0.03844 -0.0077,-0.0042 -0.01159,0.03033 -0.004,0.02594 0.420273,-0.244012 0.829646,-0.506514 1.250446,-0.749614 0.03753,-0.02168 -0.07103,0.0512 -0.09893,0.08437 -0.03884,0.04618 -0.06648,0.100732 -0.09934,0.151349 -0.03459,0.0533 -0.06868,0.106922 -0.103014,0.160384 -0.55457,0.781556 -0.456058,0.765102 -1.739525,1.417166 -0.04936,0.02508 -0.06361,-0.09065 -0.09541,-0.13598 0.02662,-0.288916 0.182045,-0.547378 0.262455,-0.822111 0.02903,-0.07394 0.04082,-0.156279 0.08381,-0.223079 0.0062,-0.0097 0.02308,-0.0041 0.03327,-0.0096 0.454047,-0.24202 0.90582,-0.488282 1.35873,-0.732423 -0.02265,0.01372 -0.04948,0.02218 -0.06794,0.04117 -0.03097,0.03186 -0.05165,0.07231 -0.07748,0.108469 -0.183157,0.291599 -0.421069,0.545562 -0.578738,0.853082 -0.234079,0.558208 -0.02559,0.107827 -1.46324,0.744144 -0.02354,0.01042 0.03712,-0.03637 0.05071,-0.05823 0.09495,-0.152705 0.1411,-0.330655 0.228747,-0.487099 0.260826,-0.614288 -0.09643,0.217855 0.165209,-0.362904 0.04946,-0.109776 0.08453,-0.267647 0.154922,-0.367969 0.0063,-0.0089 0.02059,-0.0072 0.03089,-0.01086 0.226036,0.467384 0.0022,0.03332 1.260613,-0.698138 0.04106,-0.02387 -0.08247,0.04799 -0.119114,0.07821 -0.134552,0.11093 -0.239637,0.258144 -0.387974,0.353918 -0.410357,0.381144 -1.349872,1.301908 -1.652536,0.788563 -0.03961,-0.06718 0.07567,-0.297644 0.04693,-0.367993 0.05818,-0.361541 0.144412,-0.718925 0.182849,-1.082887 6.05e-4,-0.02156 0.01791,-0.113889 -0.02083,-0.13812 -0.04713,-0.02948 -0.210352,0.06488 -0.162838,0.03602 1.938912,-1.177655 1.314629,-0.780877 0.900667,-0.515185 -0.75993,0.520717 -1.163233,0.877198 -2.126973,1.341721 -0.04833,0.0233 -0.09279,-0.05389 -0.139181,-0.08084 -0.0065,-0.02915 -0.02454,-0.05804 -0.0194,-0.08746 0.0069,-0.03941 0.03816,-0.07049 0.05342,-0.107469 0.0885,-0.214443 0.134517,-0.444559 0.189423,-0.66894 0.09167,-0.586197 -0.4280122,0.176437 1.286363,-0.826978 0.03791,-0.02219 -0.08308,0.03127 -0.119046,0.05648 -0.0884,0.06198 -0.200074,0.193845 -0.269926,0.270334 -0.01321,0.01532 -0.291559,0.354443 -0.295771,0.35515 -0.03227,0.0054 -0.05233,-0.06948 -0.08152,-0.05469 -0.9296728,0.47124 -1.7328302,1.081182 -1.1797337,0.665983 0.3335005,-0.440377 0.6422087,-0.899571 1.0015357,-1.320205 0.02441,-0.03065 0.172715,-0.234255 0.214744,-0.23685 0.03529,-0.0022 0.05502,0.0772 0.08659,0.06128 2.189245,-1.104693 1.370652,-0.929381 0.919135,-0.468952 -0.176975,0.14357 -0.357428,0.283714 -0.531229,0.431132 -0.0408,0.0346 -0.08103,0.06993 -0.119886,0.106696 -0.02512,0.02377 -0.04061,0.06006 -0.0719,0.07477 -0.481737,0.226531 -0.973729,0.430579 -1.4605942,0.645869 0.1226925,-0.09666 0.1670203,-0.251487 0.2307396,-0.390454 0.092557,-0.201861 0.1818036,-0.404717 0.2531696,-0.615357 0.09469,-0.241665 0.265516,-0.487764 -0.1353555,-0.308126 -0.2179461,0.115401 -0.4339785,0.23447 -0.6527086,0.34838 -0.063279,0.03295 -0.2829144,0.154813 -0.3692507,0.159561 -0.050309,0.0028 -0.09671,-0.02832 -0.1450644,-0.04247 -0.02129,-0.03415 -0.055002,-0.0632 -0.06387,-0.102462 -0.00785,-0.03474 0.011069,-0.07037 0.016888,-0.105514 0.032905,-0.19872 0.070198,-0.39668 0.1024098,-0.595521 -6.701e-4,-0.09572 0.016225,-0.158755 -0.00953,-0.14227 -0.013963,0.0089 -0.05708,0.03375 -0.042813,0.02531 1.2566014,-0.74363 1.5767864,-1.001817 1.0732553,-0.610086 -0.6858554,0.596783 -1.4993032,1.115293 -2.3288584,1.455428 -0.044256,-0.0092 -0.093815,-0.0048 -0.1327671,-0.02774 -0.03659,-0.02156 -0.06555,-0.05875 -0.081091,-0.09827 -0.01477,-0.03756 -0.00455,-0.08062 -0.00512,-0.120978 -0.00269,-0.189078 0.00538,-0.378542 -0.011454,-0.567309 -0.017834,-0.177698 -0.012624,-0.571892 -0.2165454,-0.66634 -0.028105,-0.01302 -0.06085,-0.01161 -0.091275,-0.01741 -0.1823535,0.01726 -0.3575843,0.05373 -0.5317511,0.111161 -0.031966,0.01054 -0.065613,0.05032 -0.095069,0.03403 -0.064534,-0.03568 -0.096813,-0.111258 -0.1452197,-0.166887 0.2155623,-0.06744 0.2856388,-0.57079 0.3681211,-0.750726 0.1378563,-0.378025 0.2772621,-0.768044 0.3212942,-1.169117 0.2817735,-0.477922 -0.00931,0.0013 1.362914,-0.77672 0.024091,-0.01366 -0.060256,0.0043 -0.079484,0.02418 -0.1279944,0.132675 -0.1281917,0.358369 -0.2361479,0.503741 -0.048722,0.131402 -0.2424034,0.559717 -0.098793,0.68776 0.017691,0.01577 0.045323,0.01389 0.067985,0.02083 0.3930608,-0.09578 0.7314187,-0.400177 1.1254524,-0.507059 0.2611166,-0.09647 0.924457,-0.410228 1.167735,-0.151883 0.03381,0.0359 0.03645,0.09165 0.05468,0.13747 -0.08267,0.406752 -0.287884,0.771973 -0.4504829,1.150544 -0.059723,0.137829 -0.1154126,0.255354 -0.1604656,0.397755 -0.013335,0.04215 -0.015722,0.0875 -0.031283,0.128875 -0.00216,0.0057 -0.054055,0.05911 -0.018332,0.0017 -0.3989372,0.239179 -0.7978744,0.478358 -1.1968116,0.717537 0.3717787,-0.351679 0.6880737,-0.759036 1.0532878,-1.117797 0.2102698,-0.237143 0.4051881,-0.470672 0.5685153,-0.742545 0.01581,-0.02632 0.04006,-0.04901 0.04785,-0.07871 0.0034,-0.01284 -0.01192,-0.02373 -0.01789,-0.03559 -0.129831,-0.01517 -0.1238792,-0.0255 -0.2779749,0.02573 -0.08435,0.02804 -0.3207092,0.151048 -0.2460641,0.102784 1.814865,-1.173462 0.841587,-0.465024 0.421115,-0.226669 -0.7530343,0.513161 -0.1413414,0.152318 -1.8095263,0.878181 -0.017365,0.0076 0.039562,-0.0077 0.05259,-0.02149 0.055635,-0.0587 0.1099354,-0.188991 0.1419877,-0.256029 0.1152933,-0.313866 0.219702,-0.65416 0.1731575,-0.990904 C 8.3771126,11.015405 8.06032,10.921692 7.5615482,10.833284 c -0.7268633,-0.09072 -1.4660611,-0.09611 -2.1859149,0.05717 -0.6471602,0.199208 -0.2442266,0.0953 0.8661693,-0.587786 0.048885,-0.03007 -0.1066224,0.04505 -0.1532,0.07859 -0.1020909,0.0735 -0.1746189,0.193457 -0.2293274,0.303528 -0.011981,0.007 -0.023963,0.01405 -0.035944,0.02107 -0.0056,-0.0086 -0.00781,-0.03079 -0.016803,-0.02583 -0.4337579,0.239179 -0.8577158,0.495716 -1.2861555,0.744296 -0.038029,0.02207 0.2716566,-0.172363 0.2552116,-0.229692 0.023057,-0.02966 0.047911,-0.058 0.069169,-0.08897 0.016434,-0.02394 0.017682,-0.0624 0.043651,-0.0754 1.7773585,-0.889808 1.4807999,-1.1522349 1.4284912,-0.415151 -0.00128,0.03365 -0.0035,0.06727 -0.00385,0.100941 -2.43e-4,0.02335 -0.00156,0.04696 0.00207,0.07003 0.00837,0.0533 0.041071,-0.01379 0.025085,-0.0046 -1.1860361,0.680838 -1.6481919,1.036355 -1.1614747,0.667845 0.4918245,-0.460272 0.1516599,-0.156088 1.5224205,-0.91387 0.1731587,-0.09572 0.3775922,-0.05336 0.5141051,0.07692 0.020626,0.04189 0.049269,0.08071 0.061879,0.125674 0.070018,0.249636 -0.064028,0.605174 -0.086878,0.858175 -0.070131,0.396871 -0.1163775,0.803793 -0.2764257,1.177732 -0.034892,0.09529 -0.1184941,0.359654 -0.1328223,0.361406 -0.033074,0.004 -0.043245,-0.0837 -0.072863,-0.06843 -0.4508279,0.232337 -0.8640605,0.531892 -1.3067315,0.779418 -0.033364,0.01866 0.048126,-0.0594 0.072189,-0.08911 0.1900285,-0.414875 0.3676051,-0.833135 0.6390108,-1.204348 0.012954,-0.02085 0.1933938,-0.341653 0.222137,-0.355861 1.7496283,-0.864867 1.6979565,-1.087614 1.3536749,-0.516211 -0.1029877,0.224895 -0.2472595,0.418611 -0.413483,0.601314 -0.4625358,-0.379263 -0.038308,-0.06288 -1.4293706,0.695199 -0.012834,0.007 0.029691,-0.009 0.038753,-0.02052 0.043167,-0.05462 0.078302,-0.181722 0.097206,-0.235046 0.021625,-0.061 0.043876,-0.121778 0.065814,-0.182666 0.1960738,-0.484971 0.3871264,-0.973991 0.633414,-1.436242 0.0109,-0.0225 0.2211316,-0.443668 0.2282231,-0.444229 0.040854,-0.0032 0.054386,0.100241 0.091268,0.08237 0.451145,-0.218542 0.8632633,-0.509981 1.2998801,-0.7562693 0.03872,-0.021841 -0.069989,0.054831 -0.1049842,0.082247 C 7.5724636,10.668305 7.6711596,10.511864 6.431205,11.230976 6.338183,11.284926 6.1684337,11.37014 6.0491164,11.35411 5.9888874,11.34601 5.9386241,11.30348 5.883378,11.27817 5.865662,11.22735 5.82596,11.17935 5.83023,11.125701 5.83739,11.035721 6.0199317,10.723303 6.0502204,10.672803 6.2327324,10.368505 6.4525579,10.091113 6.6747834,9.8152981 6.9144289,9.5645702 7.155271,9.3137853 7.4105326,9.078673 7.4728877,9.02124 7.5400785,8.9692095 7.6024332,8.9117761 7.6499445,8.8680145 7.6823462,8.804467 7.7399549,8.7752501 8.2327703,8.5253128 8.7429088,8.31111 9.2443858,8.07904 9.2447175,8.10956 9.2605588,8.144119 9.245381,8.1706 9.218773,8.21702 9.167153,8.243625 9.1287134,8.2808435 9.0740864,8.3337349 9.0232432,8.3906428 8.9661967,8.4409156 8.387463,8.9509308 7.6609538,9.2557415 6.9978897,9.6426654 6.778231,9.7593551 6.1807011,10.099808 5.9373374,10.091684 5.8754817,10.089619 5.8096754,10.066699 5.7641382,10.024785 5.7273471,9.9909218 5.7293019,9.9310426 5.7118838,9.8841714 5.9677728,9.3324012 6.2710937,8.8100373 6.6503002,8.3313069 7.115077,7.7215721 7.617002,7.1661662 8.2054646,6.6719688 8.6968589,6.3737503 9.1811427,6.0634873 9.6796476,5.7773132 c 0.048101,-0.027613 0.107162,-0.058879 0.16053,-0.043775 0.055973,0.01584 0.1048206,0.068654 0.1228313,0.1239668 C 10.000899,5.9738688 9.6938823,6.395887 9.6577116,6.482091 9.2352298,7.1263575 8.7497929,7.7215633 8.2838134,8.3342938 7.7504917,9.1672674 8.2922119,8.6750186 6.848255,9.50946 6.7847808,9.5461408 6.9651242,9.4209196 7.0235588,9.3766495 7.8344415,8.6962007 8.7397946,8.1280694 9.7088399,7.7002889 9.8391822,7.6636374 9.9652481,7.6025166 10.104471,7.6560719 10.373569,7.7595868 10.189806,8.0741716 10.083294,8.2120553 9.7201975,8.6813323 9.3006328,9.09927 8.8387021,9.4720698 8.7635381,9.5308689 8.6872532,9.5882625 8.6132101,9.6484671 8.5533941,9.6971037 8.4949146,9.747394 8.4372132,9.7985216 8.4034498,9.8284383 8.3801883,9.8733493 8.338901,9.8915244 5.5949178,11.099459 6.5912853,10.719139 7.0541285,10.363139 7.4414455,9.9049659 7.8617279,9.4780477 8.3118612,9.0809688 8.9891264,8.5420202 8.6178509,8.8197151 10.063188,7.983621 c 0.179313,-0.1037284 0.518594,-0.272 0.740366,-0.2062629 0.06222,0.018444 0.10336,0.078514 0.155039,0.1177705 0.0045,0.056286 0.02142,0.1129744 0.01335,0.1688569 -0.07317,0.5070812 -0.57744,0.9601517 -0.906301,1.309341 -0.6728519,0.6050021 -1.4237542,1.1058185 -2.1197351,1.6824905 -0.071819,0.06139 -0.1455823,0.120572 -0.215456,0.184166 -0.047181,0.04294 -0.082117,0.100209 -0.1354567,0.135207 -0.023213,0.01523 -0.058063,-0.0043 -0.0829,0.0081 -0.4600916,0.229832 -0.9139142,0.472117 -1.3666857,0.716054 -0.029388,0.01583 0.070031,-0.0091 0.095216,-0.03103 0.044411,-0.03863 0.069518,-0.09501 0.1042771,-0.142518 0.2838193,-0.425591 0.6010115,-0.826291 0.9164353,-1.228581 0.036249,-0.04574 0.074245,-0.09014 0.1087464,-0.137207 0.020824,-0.02841 0.025378,-0.07351 0.057033,-0.08896 1.9343362,-0.9439552 1.6074636,-1.0136251 1.2609144,-0.299911 -0.022137,0.04098 -0.1373643,0.25273 -0.1604909,0.301147 -0.020202,0.0423 -0.037003,0.08614 -0.055072,0.129384 -0.01245,0.0298 -0.013095,0.06748 -0.036482,0.08975 -0.011449,0.0109 -0.030743,-0.0074 -0.046114,-0.01109 -0.4463175,0.252462 -0.8926349,0.504924 -1.3389524,0.757386 0.095856,-0.09747 0.1303012,-0.220279 0.1873238,-0.343196 0.08766,-0.188958 0.1936044,-0.368733 0.2746744,-0.560847 0.102811,-0.203801 0.080509,-0.145601 0.1568475,-0.347772 0.071453,-0.1892316 0.062519,-0.169653 -0.1463808,-0.124843 -0.691825,0.29667 -1.3513529,0.668363 -2.0141686,1.023463 -0.8059871,0.455989 -0.089518,0.05225 0.6455339,-0.379117 0.0485,-0.02846 -0.097201,0.05701 -0.1484647,0.08012 -0.4953636,0.223385 -0.9946229,0.438037 -1.4909866,0.659191 -0.016478,0.0073 0.039325,-0.0041 0.051151,-0.01768 0.03055,-0.03519 0.046335,-0.08087 0.069502,-0.121305 0.2028922,-0.494257 0.3914634,-0.994475 0.5890818,-1.4908847 0.059866,-0.1896167 0.078191,-0.2361689 0.1237751,-0.4206522 0.00817,-0.033078 0.00392,-0.070407 0.020587,-0.1001242 0.00506,-0.00902 0.01828,0.019807 0.027302,0.014748 0.4166899,-0.2336934 0.8267586,-0.4790536 1.2370361,-0.72383 0.047082,-0.02809 -0.09807,0.049043 -0.1471051,0.073564 C 5.7826841,9.3249672 4.8735062,9.7674443 3.9641191,10.086711 3.4829975,10.199279 2.9731524,10.239785 2.5166815,10.012732 2.4759394,9.976141 2.4287594,9.9456442 2.394455,9.9029589 2.2124904,9.6765388 2.372177,9.3894796 2.4629419,9.1600711 2.5313816,9.0290908 2.5690262,8.9447394 2.6579147,8.8249849 2.6896714,8.7822008 2.8498105,8.5977276 2.9018935,8.5659716 4.2921808,7.7182885 3.7965828,7.7923838 4.480382,7.7165603 4.522728,7.7365613 4.572374,7.7455003 4.6074213,7.7765643 4.7979489,7.9454354 4.5448633,8.3277209 4.4888386,8.5110904 4.1984007,9.4263854 4.5071726,8.9001748 3.0381636,9.734908 3.1856323,9.672048 3.2305096,9.5714385 3.3195142,9.441132 3.4379866,9.2676831 3.5668408,9.1010266 3.6902793,8.9311637 3.9951441,8.5960681 4.2932693,8.2506823 4.6452471,7.9635583 5.2465821,7.5501486 4.968185,7.7351802 6.2651134,7.0092341 c 0.1890304,-0.1058083 0.397326,-0.1276054 0.536903,0.057539 0.00804,0.044106 0.029814,0.087848 0.024116,0.1323169 -0.027105,0.2115088 -0.3802484,0.5640609 -0.4750885,0.7721504 -0.021683,0.023776 -0.039733,0.051464 -0.065048,0.071329 -0.00749,0.00588 -0.036592,0.00705 -0.028481,0.00206 0.00867,-0.00532 0.020589,-3.438e-4 0.030349,-0.00321 C 6.3281621,8.0295831 6.442727,7.978444 6.4071002,8.0006875 6.0605111,8.2170793 5.7086285,8.4251759 5.3524723,8.6254311 5.2617771,8.6764262 5.5241024,8.5077555 5.6099175,8.4489177 6.3716808,7.9581743 5.9454164,8.2265809 7.4403825,7.3656092 7.8173976,7.1484811 8.2118112,6.9270376 8.6434915,6.8469351 c 0.066513,0.014943 0.14161,0.00889 0.1995385,0.044828 0.2363006,0.1465975 -0.085135,0.6613883 -0.1319878,0.8689747 -0.01091,0.060742 -0.062608,0.3022823 -0.028031,0.3652405 0.017454,0.03178 0.1390812,-0.031695 0.1079867,-0.013047 C 8.4028606,8.3456998 8.0103642,8.5711209 7.6200474,8.8002157 7.832844,8.6600895 7.7281912,8.7355558 7.9382443,8.5689032 7.9491372,8.5602609 8.1945114,8.3637237 8.203502,8.3625791 8.27354,8.3536591 8.303084,8.3977331 8.3337475,8.4380021 8.0582005,8.5389944 7.802355,8.7043667 7.5463941,8.8444467 7.3895597,8.9302775 7.2319137,9.0146182 7.0749483,9.1002094 6.8975844,9.1969238 6.3908235,9.5237613 6.5434082,9.3913621 6.7204486,9.2377426 6.947655,9.1539732 7.1497784,9.0352787 6.7023152,9.2999567 6.2603376,9.5605691 5.8431137,9.8716313 5.7566749,9.9360759 5.6692569,9.9996204 5.5880679,10.070565 c -0.049608,0.04335 -0.07467,0.119921 -0.1363466,0.143072 -0.037446,0.01406 -0.072363,-0.0341 -0.1085445,-0.05115 -0.412417,0.243205 -0.8248339,0.48641 -1.2372509,0.729615 0.055418,-0.03398 0.1165847,-0.06001 0.1662532,-0.101949 C 4.639565,10.47993 4.8829015,10.035332 5.2143901,9.6914443 5.397318,9.4596185 5.4487178,9.4069986 5.6000156,9.1733107 c 0.034546,-0.053358 0.057527,-0.1142749 0.096578,-0.1644302 0.014254,-0.018308 0.048695,-0.015556 0.059532,-0.036072 0.03001,-0.056814 -0.5223157,0.1738776 -0.1879579,0.042745 C 5.3362286,9.1173415 5.1096091,9.2281598 4.8804982,9.3360277 4.8283256,9.3605911 4.5014137,9.5144524 4.4303697,9.5279303 4.3701788,9.5393493 4.3079582,9.5225655 4.2467525,9.519883 4.2167872,9.4752621 4.1635776,9.4393472 4.1568568,9.3860201 4.1513227,9.3421092 4.1969742,9.3070667 4.2148272,9.266569 4.3154198,9.038384 4.4169542,8.8087555 4.4944155,8.57169 4.534075,8.4218709 4.6941499,8.032853 4.4538652,7.9521595 4.4103764,7.9375549 4.3627375,7.9414809 4.3171737,7.9361416 3.777711,8.0001628 3.2570562,8.193994 2.7511712,8.3834167 2.1441277,8.6738373 2.4277365,8.5458764 3.6562441,7.8266256 3.7399504,7.7776183 3.326655,8.0147907 3.4377735,8.0037152 3.4209098,8.0484936 3.3032719,8.4134308 3.3675149,8.4291163 3.37609,8.43121 3.3763251,8.4138179 3.3807302,8.4061686 2.9665318,8.6509623 2.5523335,8.8957559 2.1381351,9.1405495 2.1751924,9.113383 2.2140764,9.088547 2.2493069,9.05905 2.4606672,8.8820875 2.6461953,8.6745416 2.853728,8.4932553 2.8830065,8.4650379 3.1040199,8.2530322 3.1398528,8.2148807 c 0.00479,-0.0051 0.1510888,-0.1858528 0.1850662,-0.1975472 0.053057,-0.018261 0.092922,0.04759 0.1165301,0.07555 0.4147644,-0.242522 0.8292572,-0.4855094 1.2442934,-0.7275661 0.039973,-0.023313 -0.081197,0.044781 -0.1190973,0.071331 -0.040144,0.028122 -0.077754,0.059823 -0.1144739,0.092289 -0.030148,0.026656 -0.045835,0.088854 -0.085878,0.084852 C 4.3101255,7.6081773 4.286344,7.4844185 4.234701,7.5072062 3.7674221,7.7133953 3.3452116,8.0094639 2.9004669,8.2605928 3.2210608,8.0347196 3.4498492,7.6929781 3.72602,7.418628 4.0310507,7.0687875 4.3304165,6.7143564 4.6237365,6.354818 5.0573315,5.8160607 5.7802246,4.9395684 6.4725197,5.3038148 c 0.074797,0.00494 0.03348,0.00824 0.122681,-0.020295 C 6.2014764,5.5177735 5.8077522,5.7520274 5.4140279,5.9862813 5.3627658,6.0160288 5.5143999,5.9225594 5.5597468,5.8843968 5.6196886,5.8339516 5.7918998,5.6495719 5.8447602,5.5939605 6.1084114,5.2670719 6.3562237,4.9278443 6.6155814,4.5975239 7.3761678,3.6725615 7.2400406,3.7613424 8.706586,3.0200956 c 0.041912,0.00962 0.088028,0.00819 0.1257348,0.028868 0.1455115,0.07978 0.077824,0.3084949 0.2403956,0.3584562 0.2797202,0.00184 0.5577787,-0.070247 0.795915,0.1295911 0.031821,0.042847 0.073126,0.080069 0.095463,0.1285413 0.020249,0.043941 0.020988,0.094497 0.02928,0.1421631 0.036944,0.2123791 0.060793,0.4290778 0.1548986,0.6266352 0.146861,0.2865941 0.321472,0.2433119 0.605092,0.1740114 0.324491,-0.071532 0.710052,-0.1820131 0.986068,0.061788 0.10248,0.1997701 0.189501,0.3913663 0.44801,0.3778241 0.233996,-0.015901 0.647105,-0.055864 0.717895,0.2596831 0.01205,0.053718 -0.01118,0.1095369 -0.01676,0.1643054 -0.123135,0.4008618 -0.304772,0.7872405 -0.343847,1.2102418 -0.0068,0.1625698 -0.03868,0.4530569 0.129756,0.56102 0.07259,0.046526 0.172332,0.041187 0.232549,0.1132265 0.241007,0.2504712 0.144732,0.3315957 0.164524,0.6408355 0.02837,0.00598 0.01038,0.00588 0.04925,-0.022064 -0.406782,0.2395813 -0.813564,0.4791626 -1.220347,0.7187439 -0.04252,0.024598 0.08308,-0.052754 0.121668,-0.083155 0.04763,-0.037528 0.09254,-0.078483 0.136504,-0.1202519 0.04644,-0.044125 0.08967,-0.091506 0.134509,-0.1372584 0.520971,-0.4634107 0.564609,-0.3410809 1.659399,-0.7871731 0.02709,-0.011037 -0.04854,0.032809 -0.07108,0.05145 -0.05324,0.044035 -0.106425,0.088359 -0.156072,0.136414 -0.06237,0.060366 -0.119752,0.1256755 -0.179628,0.1885133 -0.20969,0.2333111 -0.383559,0.4367531 -0.531057,0.7134742 -0.01495,0.028049 -0.04218,0.05083 -0.04881,0.081916 -0.0032,0.015065 0.01517,0.026811 0.02276,0.040216 0.315656,0.039701 0.598152,-0.3130979 0.929303,-0.2683692 0.289855,0.1501194 0.136006,0.1524676 0.140047,0.3703969 0.496096,-0.1558872 0.01496,-0.00837 -1.17541,0.6989075 -0.04268,0.025359 0.09139,-0.039929 0.133046,-0.066935 0.149594,-0.096982 0.275747,-0.2319075 0.434072,-0.3173033 0.481225,-0.277995 0.959756,-0.5607077 1.443676,-0.8339852 0.109766,-0.061987 0.309918,-0.106906 0.339425,0.082041 0.01682,0.1077287 -0.166124,0.1996206 -0.14621,0.2926075 -0.316318,0.5427191 -0.641456,1.0843598 -0.897259,1.6586875 -0.05326,0.156611 -0.135834,0.369907 -0.08836,0.389767 0.120102,0.05025 0.289359,-0.105568 0.385577,-0.136333 0.09948,-0.0483 0.336229,-0.206211 0.461007,-0.147372 0.179264,0.08453 0.09556,0.230017 0.02475,0.346333 -0.05687,0.08871 -0.356508,0.500324 -0.196495,0.585469 0.519755,-0.115977 0.119593,-0.03537 -1.084681,0.668013 -0.05276,0.03082 0.103615,-0.06482 0.155918,-0.09641 0.05312,-0.03209 0.107786,-0.06163 0.16034,-0.09464 0.05108,-0.03209 0.100293,-0.06706 0.150439,-0.100586 0.478882,-0.280912 0.957764,-0.561825 1.436646,-0.842737 0.133455,-0.06061 0.145634,-0.109303 0.274227,0.02787 0.01865,0.01989 0.01779,0.05386 0.01318,0.08073 -0.02383,0.138928 -0.153176,0.249733 -0.171822,0.391803 -0.07225,0.198346 -0.180347,0.512634 0.119311,0.555454 0.411516,-0.02842 0.806182,-0.1746 1.211368,-0.244551 0.05207,-0.0099 0.245547,-0.0594 0.313631,-0.03035 0.2544,0.10855 0.07239,0.312134 -0.04129,0.434234 -0.238847,0.255158 -0.466333,0.526802 -0.651312,0.823943 -0.01235,0.01702 -0.02455,0.03414 -0.03704,0.05106 -0.0016,0.0022 -0.0079,0.0068 -0.0052,0.0062 0.01276,-0.0029 0.04811,-0.0201 0.0369,-0.01335 -0.395617,0.238063 -0.79383,0.471786 -1.190744,0.707679 0.05242,-0.03398 0.108062,-0.06345 0.157268,-0.101938 0.06151,-0.04811 0.115886,-0.104705 0.173829,-0.157058 0.306233,-0.281498 0.594072,-0.579183 0.868164,-0.890927 0.477458,-0.222947 0.952276,-0.451638 1.432376,-0.66884 0.02507,-0.01134 -0.04752,0.02948 -0.0654,0.0504 -0.124103,0.145253 -0.19911,0.331148 -0.284162,0.499459 -0.172668,0.317317 -0.355213,0.629848 -0.488054,0.967028 -0.135248,0.293639 -0.341153,0.551575 -0.52877,0.813253 -0.06703,0.09523 -0.137255,0.188258 -0.201525,0.285366 -0.02475,0.0374 -0.04848,0.07556 -0.06983,0.115 -0.01302,0.02406 -0.014,0.0555 -0.03307,0.07511 -0.0074,0.0076 -0.03398,-1.63e-4 -0.03018,-0.01007 0.0055,-0.01426 0.02766,-0.01296 0.04149,-0.01944 -2.535984,1.51202 -1.317041,0.848679 -0.996187,0.563855 0.241745,-0.214599 0.45008,-0.467965 0.664549,-0.708526 0.03498,-0.04354 0.0698,-0.0872 0.104943,-0.130614 0.01625,-0.02007 0.02678,-0.04703 0.04921,-0.05983 0.01058,-0.006 0.04561,0.007 0.03451,0.01205 -0.02238,0.01019 -0.04977,-5.25e-4 -0.07356,0.0057 -0.170729,0.04479 -0.28236,0.110216 -0.448321,0.188659 -0.146283,0.07201 -0.579684,0.284683 -0.709931,0.351797 -0.142528,0.07344 -0.558158,0.314609 -0.424925,0.225408 0.248392,-0.166302 0.51218,-0.308451 0.771373,-0.45736 0.234197,-0.134549 -0.855204,0.509185 -0.682984,0.435996 -0.02794,0.02301 -0.287474,0.248511 -0.323495,0.243738 -0.05424,-0.0072 -0.07492,-0.130001 -0.124537,-0.106931 -1.739575,0.808881 -1.441646,1.060143 -0.936226,0.428029 0.254563,-0.319358 0.606901,-0.724371 0.701216,-1.126544 -0.0093,-0.0622 0.0044,-0.06307 -0.100381,-0.04039 -0.308123,0.06675 -0.549047,0.327126 -0.837429,0.440823 -0.08685,0.04885 -0.529714,0.33445 -0.630016,0.308705 -0.280791,-0.07207 -0.02221,-0.31535 0.03162,-0.419347 0.257292,-0.461537 0.528679,-0.916919 0.734686,-1.404613 0.0069,-0.04593 0.04626,-0.163993 -0.01364,-0.210085 -0.259221,-0.199457 -0.857321,0.06249 -1.116057,0.117196 -0.696407,0.235987 -0.117678,0.03382 -0.769077,0.277217 -0.185964,0.06949 -0.611556,0.302986 -0.776145,0.06204 -0.0251,-0.03675 0.0065,-0.08877 0.0097,-0.13315 0.202717,-0.564296 0.369754,-1.154255 0.418624,-1.753181 -0.0036,-0.0695 0.0051,-0.247687 -0.04949,-0.32403 -0.121258,-0.169458 -0.406387,-0.0298 -0.553517,-0.0039 -0.134578,0.03882 -0.342752,0.146732 -0.4747231,0.03221 -0.034604,-0.03003 -0.060012,-0.08091 -0.054118,-0.126344 0.016227,-0.125096 0.2486861,-0.162727 0.2093181,-0.315271 0.242344,-0.462363 0.478533,-0.940568 0.572191,-1.4583813 -0.0026,-0.6208201 -0.49541,0.1532683 1.219484,-0.862874 0.04202,-0.024898 -0.08505,0.048048 -0.127168,0.072781 -0.158334,0.092986 -0.113087,0.065573 -0.259924,0.1691943 -0.47841,0.3118393 -1.364317,1.394192 -1.6019857,0.7582389 -0.00199,-0.00533 0.057177,-0.2460233 0.035155,-0.2849565 C 9.9079852,9.4125055 9.9248015,9.2820725 9.8555717,9.2329065 9.827147,9.2127197 9.7240119,9.275431 9.7539153,9.2575074 10.152464,9.0186238 10.553427,8.7837892 10.953182,8.54693 10.906179,8.5847808 10.717391,8.7773067 10.680989,8.7948568 8.6782834,9.7604098 8.8782895,9.8467922 9.2864208,9.3888926 9.5425553,8.9784136 9.7188896,8.5205824 9.8394293,8.0530187 9.9315097,7.6879537 9.8874666,7.7891336 9.6165147,7.8646218 9.3514494,7.9222568 8.9780872,7.9619568 9.0698284,7.5553526 9.1156912,7.2363386 9.1874356,6.920779 9.2189725,6.6006221 9.6989197,6.3141209 8.5716508,6.9865378 10.595363,5.852258 c 0.02036,-0.011414 -0.04938,0.00102 -0.06855,0.014344 -0.08122,0.056479 -0.11462,0.1771364 -0.143159,0.2644361 -0.09873,0.1217392 0.108004,-0.1166713 -0.05419,-0.026725 C 9.9001395,6.342403 9.4976318,6.6263271 9.0726652,6.872111 9.0401232,6.890932 9.1264722,6.818926 9.1476192,6.787846 9.2314012,6.6647081 9.2351132,6.6141692 9.2827909,6.4676361 c 0.048185,-0.1716815 0.1983345,-0.73716 -0.049477,-0.820166 0.4103829,-0.247472 0.8178781,-0.4997966 1.2311491,-0.742416 0.04186,-0.024575 -0.08282,0.052544 -0.116154,0.087833 -0.13373,0.1415907 -0.214695,0.3374779 -0.287385,0.5143897 -0.0031,0.015841 -0.0078,0.031446 -0.0092,0.047523 -0.0019,0.021827 0.07572,-0.044095 0.05688,-0.032928 C 7.9158499,6.820996 8.784187,6.3928747 9.1828596,6.0021466 9.5265856,5.7061676 9.846124,5.388463 10.10567,5.0138362 10.14916,4.9490782 10.487019,4.439783 10.35278,4.3763492 10.31201,4.3570852 10.26371,4.3622132 10.219181,4.3551442 9.792704,4.4228653 9.3680882,4.5901712 8.9757306,4.767777 8.8425523,4.8280619 8.4614617,5.0438393 8.5823235,4.9616007 8.8504008,4.7791915 9.1403232,4.631161 9.4193231,4.4659411 9.1595114,4.6367571 8.8805464,4.8002686 8.673129,5.0374471 8.6461452,5.0683027 8.5124016,5.2760431 8.5036859,5.2768686 8.4664373,5.2803964 8.4474939,5.2274514 8.4193978,5.2027428 7.9883001,5.4597419 7.5572024,5.716741 7.1261046,5.9737401 c 0.028633,-0.026497 0.062906,-0.047974 0.085898,-0.07949 0.2031312,-0.2784477 0.2641221,-0.6486309 0.3842411,-0.9638453 0.020045,-0.077099 0.044258,-0.1532339 0.060135,-0.2312983 0.012083,-0.059411 0.016268,-0.1201617 0.023587,-0.1803454 0.00379,-0.031173 -0.00975,-0.069083 0.00974,-0.093705 0.010492,-0.013253 0.022106,0.042911 0.036919,0.034766 0.4368898,-0.2402157 0.8550436,-0.5131246 1.286739,-0.7625547 0.028913,-0.016706 -0.051521,0.042493 -0.077281,0.06374 C 8.7688864,4.043499 8.5686818,4.3043894 8.4059901,4.5895665 8.0684456,5.1500839 8.349632,4.7250083 6.8836462,5.3936353 c -0.02459,0.011215 0.03925,-0.037924 0.053634,-0.060804 0.1014542,-0.161373 0.1508792,-0.3500317 0.240044,-0.5175023 0.077827,-0.1979851 0.1661019,-0.3959355 0.2223075,-0.6016209 0.020677,-0.075668 0.011087,-0.1644252 0.056374,-0.2284739 0.00512,-0.00724 0.015824,0.00801 0.023737,0.01201 0.4502013,-0.2459245 0.903713,-0.4858833 1.3506038,-0.7377734 0.020328,-0.011458 -0.051546,-0.00113 -0.068371,0.015042 -0.06289,0.060447 -0.1432144,0.2950674 -0.1867109,0.3807641 -1.8049281,0.9374566 -1.39382,1.1874523 -1.404412,0.3187645 0.011975,-0.050441 -0.00361,0.013842 -0.00132,0.01251 C 7.5822107,3.7464374 7.9776203,3.4767822 8.395592,3.2460005 8.4427253,3.219976 8.3252329,3.3275179 8.2897595,3.3680205 8.1293933,3.5511227 8.1877359,3.486007 8.0111401,3.6700415 7.6873475,4.0266892 7.3854081,4.4109442 7.1764074,4.8475623 7.1546923,4.9036238 7.128719,4.958217 7.111262,5.015747 7.100845,5.050076 7.100239,5.086667 7.09318,5.1218399 7.09152,5.1301299 7.076865,5.1441719 7.08514,5.1458879 7.10366,5.1497279 7.156147,5.1216369 7.140042,5.1315549 5.7680748,5.9765143 5.622066,6.0955123 6.1156439,5.7218558 6.2551096,5.5781717 6.3851176,5.4339278 6.512365,5.2796447 6.544718,5.2404177 6.581925,5.2051557 6.61215,5.1642674 6.63562,5.1325174 6.638105,5.0813164 6.672843,5.0625489 7.1491557,4.8052219 7.644021,4.5838246 8.12961,4.3444624 c 0.00752,0.029393 0.029471,0.058636 0.022562,0.088179 -0.00917,0.0392 -0.043389,0.067862 -0.066727,0.1006649 C 8.0466317,4.587863 8.0054707,4.6407134 7.965776,4.694634 7.8034219,4.9151732 7.6472636,5.1400538 7.4841156,5.3600163 7.3132305,5.6053718 7.1368769,5.8469263 6.9862749,6.1056232 6.9269714,6.207492 6.8857141,6.3193893 6.8239537,6.4197875 6.8154337,6.4336365 6.7994817,6.4412025 6.7872457,6.4519105 7.2473082,6.2971485 6.8761547,6.4198045 5.637473,7.1440583 5.576778,7.1795463 5.7575908,7.0705183 5.813678,7.0281206 6.0373343,6.8590541 6.2446595,6.6644714 6.4491606,6.4734698 6.6586133,6.2459257 6.6634931,6.2513844 6.8465497,6.011968 6.8622967,5.9913729 7.0974418,5.626303 7.1262668,5.6116381 7.5930192,5.3741762 8.0700146,5.1574094 8.5418886,4.930295 8.388846,5.0182236 8.272777,5.1428223 8.1387112,5.2564751 7.9003693,5.4585268 7.646028,5.641334 7.4034359,5.8380756 6.9423146,6.2039276 6.4463511,6.5596647 6.1127791,7.0527038 c -0.021862,0.042679 -0.038177,0.08869 -0.065587,0.1280356 -0.00948,0.013604 -0.03761,0.01055 -0.042081,0.026515 -0.00336,0.01198 0.024429,-0.00473 0.036643,-0.0071 C 5.6625101,7.4283786 5.2832664,7.6566023 4.9040227,7.8848259 4.7353416,7.9820855 5.6463246,7.3959744 5.3578209,7.5170189 5.8704426,7.0532833 6.3973964,6.59148 6.7874888,6.0148707 c 0.020291,-0.017288 0.040582,-0.034576 0.060873,-0.051864 0.018525,0.018679 0.032256,0.068212 0.055576,0.056036 2.4559039,-1.2823061 1.3738115,-0.9719064 1.0320256,-0.5295934 0,0 -1.4557403,0.5695902 -1.4557403,0.5695902 z"
     inkscape:connector-curvature="0" /><path
     inkscape:connector-curvature="0"
     id="path5"
     d="M 8.484,0 0,8.486 12.404,20.89 20.889,12.405 8.484,0 Z M 1.791,8.486 8.484,1.792 19.096,12.405 12.404,19.1 1.791,8.486 Z"
     style="fill:#ffff00" /><path
     inkscape:connector-curvature="0"
     id="path7"
     d="m 26.534,17.692 -4.45,-4.451 c -0.1,-0.101 -0.261,-0.101 -0.357,0 l -8.487,8.485 c -0.099,0.099 -0.099,0.259 0,0.358 l 2.711,2.71 c 0.039,0.042 0.091,0.066 0.147,0.072 l 3.467,0.015 c 0.076,0.012 0.154,-0.017 0.211,-0.072 l 6.759,-6.759 c 0.099,-0.098 0.099,-0.257 -0.001,-0.358 z"
     style="fill:#000080" /><g
     id="g9" /><g
     id="g11" /><g
     id="g13" /><g
     id="g15" /><g
     id="g17" /><g
     id="g19" /><g
     id="g21" /><g
     id="g23" /><g
     id="g25" /><g
     id="g27" /><g
     id="g29" /><g
     id="g31" /><g
     id="g33" /><g
     id="g35" /><g
     id="g37" /></svg>