<?xml version="1.0" encoding="UTF-8" standalone="no"?>
<!-- Generator: Adobe Illustrator 16.0.0, SVG Export Plug-In . SVG Version: 6.00 Build 0)  -->

<svg
   xmlns:dc="http://purl.org/dc/elements/1.1/"
   xmlns:cc="http://creativecommons.org/ns#"
   xmlns:rdf="http://www.w3.org/1999/02/22-rdf-syntax-ns#"
   xmlns:svg="http://www.w3.org/2000/svg"
   xmlns="http://www.w3.org/2000/svg"
   xmlns:sodipodi="http://sodipodi.sourceforge.net/DTD/sodipodi-0.dtd"
   xmlns:inkscape="http://www.inkscape.org/namespaces/inkscape"
   version="1.1"
   id="Layer_1"
   x="0px"
   y="0px"
   width="100px"
   height="100px"
   viewBox="0 0 100 100"
   enable-background="new 0 0 100 100"
   xml:space="preserve"
   inkscape:version="0.48.4 r9939"
   sodipodi:docname="saveplot.svg"><metadata
     id="metadata9"><rdf:RDF><cc:Work
         rdf:about=""><dc:format>image/svg+xml</dc:format><dc:type
           rdf:resource="http://purl.org/dc/dcmitype/StillImage" /><dc:title></dc:title></cc:Work></rdf:RDF></metadata><defs
     id="defs7" /><sodipodi:namedview
     pagecolor="#ffffff"
     bordercolor="#666666"
     borderopacity="1"
     objecttolerance="10"
     gridtolerance="10"
     guidetolerance="10"
     inkscape:pageopacity="0"
     inkscape:pageshadow="2"
     inkscape:window-width="640"
     inkscape:window-height="480"
     id="namedview5"
     showgrid="false"
     inkscape:zoom="2.36"
     inkscape:cx="50"
     inkscape:cy="50"
     inkscape:window-x="224"
     inkscape:window-y="187"
     inkscape:window-maximized="0"
     inkscape:current-layer="Layer_1" /><path
     d="m 75.195415,93.901103 8.911743,-11.723226 v 8.807363 c 0,1.609559 -0.99315,2.915863 -2.216851,2.915863 H 75.195415 z M 29.887401,87.704894 H 51.786568 L 50.28576,93.901103 H 21.666205 c -1.224811,0 -2.216851,-1.306304 -2.216851,-2.915863 V 11.769997 c 0,-1.609557 0.99204,-2.9158626 2.216851,-2.9158626 h 60.225211 c 1.2237,0 2.216851,1.3063056 2.216851,2.9158626 v 26.276297 l -0.414551,0.545268 -0.0011,-0.0015 -10.021274,13.18266 V 51.377619 H 29.888508 V 87.704894 z M 31.824929,37.770747 H 71.728258 V 13.229386 H 31.824929 V 37.770747 z M 60.46,34.37085 h 5.544348 V 16.874213 H 60.46 V 34.37085 z m 8.891793,23.081969 H 33.903227 v 2.915863 h 33.231715 l 2.216851,-2.915863 z m -7.757872,10.20552 H 33.903227 v 2.915864 H 59.37707 l 2.216851,-2.915864 z m -27.690694,12.7569 h 19.649065 l 0.249395,-1.024926 c 0.03437,-0.134128 0.06871,-0.256596 0.100877,-0.371773 0.1308,-0.527771 0.313685,-1.032216 0.529829,-1.519164 H 33.904335 v 2.915863 z m 65.18874,-32.25819 -6.852289,-9.01439 c -1.008667,-1.323801 -2.794341,-1.131355 -3.983681,0.433006 l -3.770867,4.959881 10.50677,13.819732 3.770864,-4.959881 c 1.190448,-1.562903 1.335656,-3.913089 0.329203,-5.238348 z m -16.358148,-1.31797 10.506767,13.81973 -25.054857,32.95654 c -0.115281,0.151621 -0.433394,0.57151 -0.881198,0.720218 -0.0521,0.03208 -0.104188,0.05976 -0.157397,0.0831 l -13.077208,5.478907 c -0.365782,0.153006 -0.733778,0.05542 -0.972089,-0.25952 C 52.859527,99.32315 52.784152,98.839118 52.899429,98.358 L 57.06711,81.160238 c 0.01886,-0.07143 0.03769,-0.139958 0.06319,-0.205567 0.114173,-0.590462 0.432286,-1.008889 0.548672,-1.161971 L 82.733819,46.839079 z m -17.780259,45.714897 -6.468773,-8.508488 -1.733578,7.164274 2.755547,3.625876 5.446804,-2.281662 z M 82.329243,52.332565 c -0.373538,-0.489865 -0.975414,-0.489865 -1.346737,0 L 61.450935,78.022773 c -0.372433,0.489865 -0.372433,1.282981 0,1.771387 0.37243,0.489865 0.974305,0.489865 1.346737,0 L 82.329243,54.103952 c 0.372431,-0.489866 0.372431,-1.282981 0,-1.771387 z"
     id="path3"
     inkscape:connector-curvature="0"
     style="fill:#fc0226;fill-opacity:1;stroke:#6f0000;stroke-width:1.61853898;stroke-opacity:1" /><g
     id="g3959"
     transform="matrix(2.3118125,0,0,2.6822233,3.6640257,2.729339)"><g
       style="fill:#0300ff;fill-opacity:1"
       id="g4554"><polygon
         style="fill:#0300ff;fill-opacity:1"
         id="polygon4556"
         points="1.328,3.133 1.328,29.652 28.522,29.652 28.522,30.982 31.655,29.02 28.522,27.056 28.522,28.384 2.598,28.384 2.598,3.133 3.926,3.133 1.963,0 0,3.133 " /><path
         style="fill:#0300ff;fill-opacity:1"
         id="path4558"
         d="m 4.977,14.9 c 0.597,0 1.082,-0.473 1.105,-1.065 l 4.554,-0.899 c 0.177,0.378 0.559,0.644 1.003,0.644 0.613,0 1.111,-0.499 1.111,-1.112 0,-0.209 -0.062,-0.402 -0.163,-0.569 L 16.37,8.034 c 0.178,0.121 0.392,0.191 0.623,0.191 0.073,0 0.143,-0.009 0.211,-0.021 l 1.814,4.1 c -0.265,0.202 -0.439,0.52 -0.439,0.878 0,0.614 0.497,1.111 1.111,1.111 0.382,0 0.718,-0.193 0.918,-0.487 l 4.605,1.863 c -0.003,0.035 -0.011,0.069 -0.011,0.104 0,0.614 0.499,1.112 1.111,1.112 0.613,0 1.111,-0.498 1.111,-1.112 0,-0.289 -0.114,-0.549 -0.295,-0.747 l 2.606,-4.362 c 0.121,0.045 0.249,0.072 0.385,0.072 0.613,0 1.11,-0.497 1.11,-1.109 0,-0.613 -0.498,-1.11 -1.11,-1.11 -0.612,0 -1.111,0.497 -1.111,1.11 0,0.245 0.082,0.47 0.216,0.653 l -2.64,4.42 c -0.087,-0.024 -0.177,-0.039 -0.271,-0.039 -0.35,0 -0.659,0.166 -0.862,0.42 L 20.8,13.197 c 0,0 10e-4,-0.012 10e-4,-0.017 0,-0.614 -0.496,-1.109 -1.11,-1.109 -0.026,0 -0.05,0.005 -0.076,0.007 L 17.768,7.907 c 0.207,-0.201 0.335,-0.482 0.335,-0.794 0,-0.612 -0.497,-1.11 -1.11,-1.11 -0.613,0 -1.11,0.498 -1.11,1.11 0,0.149 0.03,0.293 0.083,0.424 l -3.848,3.932 c -0.146,-0.068 -0.307,-0.113 -0.48,-0.113 -0.558,0 -1.016,0.414 -1.094,0.952 l -4.62,0.913 C 5.73,12.898 5.38,12.678 4.975,12.678 c -0.613,0 -1.111,0.498 -1.111,1.111 0.002,0.615 0.5,1.111 1.113,1.111 z"
         inkscape:connector-curvature="0" /><path
         style="fill:#0300ff;fill-opacity:1"
         id="path4560"
         d="m 29.011,24.062 c 0.613,0 1.111,-0.497 1.111,-1.11 0,-0.614 -0.498,-1.111 -1.111,-1.111 -0.302,0 -0.575,0.121 -0.775,0.317 l -2.212,-1.502 c 0.059,-0.136 0.092,-0.284 0.092,-0.441 0,-0.614 -0.498,-1.11 -1.11,-1.11 -0.613,0 -1.111,0.496 -1.111,1.11 0,0.142 0.029,0.276 0.078,0.398 l -2.974,2.471 c -0.155,-0.083 -0.328,-0.132 -0.514,-0.132 -0.218,0 -0.418,0.064 -0.589,0.171 l -3.025,-2.935 c 0.077,-0.148 0.124,-0.318 0.124,-0.497 0,-0.613 -0.497,-1.111 -1.11,-1.111 -0.613,0 -1.111,0.498 -1.111,1.111 0,0.082 0.011,0.164 0.029,0.242 L 9.559,24.615 C 9.391,24.513 9.195,24.452 8.983,24.452 c -0.215,0 -0.415,0.063 -0.586,0.17 L 5.852,21.627 c 0.146,-0.188 0.236,-0.421 0.236,-0.678 0,-0.613 -0.498,-1.11 -1.111,-1.11 -0.613,0 -1.111,0.497 -1.111,1.11 0,0.613 0.498,1.11 1.111,1.11 0.125,0 0.243,-0.025 0.355,-0.063 l 2.64,3.107 c -0.062,0.14 -0.101,0.294 -0.101,0.458 0,0.612 0.498,1.109 1.11,1.109 0.614,0 1.11,-0.497 1.11,-1.109 0,-0.171 -0.041,-0.331 -0.11,-0.476 l 5.14,-4.591 c 0.2,0.188 0.466,0.306 0.761,0.306 0.201,0 0.387,-0.059 0.55,-0.152 l 3.042,2.953 c -0.064,0.142 -0.102,0.295 -0.102,0.46 0,0.613 0.497,1.11 1.11,1.11 0.613,0 1.11,-0.497 1.11,-1.11 0,-0.192 -0.053,-0.373 -0.141,-0.532 l 2.908,-2.414 c 0.183,0.13 0.403,0.21 0.645,0.21 0.224,0 0.432,-0.068 0.606,-0.183 l 2.315,1.573 c -0.016,0.076 -0.025,0.153 -0.025,0.235 0.001,0.614 0.498,1.112 1.111,1.112 z"
         inkscape:connector-curvature="0" /></g><g
       id="g4562" /><g
       id="g4564" /><g
       id="g4566" /><g
       id="g4568" /><g
       id="g4570" /><g
       id="g4572" /><g
       id="g4574" /><g
       id="g4576" /><g
       id="g4578" /><g
       id="g4580" /><g
       id="g4582" /><g
       id="g4584" /><g
       id="g4586" /><g
       id="g4588" /><g
       id="g4590" /></g></svg>