<?xml version="1.0" encoding="UTF-8" standalone="no"?>
<!-- Generator: Adobe Illustrator 16.0.0, SVG Export Plug-In . SVG Version: 6.00 Build 0)  -->

<svg
   xmlns:dc="http://purl.org/dc/elements/1.1/"
   xmlns:cc="http://creativecommons.org/ns#"
   xmlns:rdf="http://www.w3.org/1999/02/22-rdf-syntax-ns#"
   xmlns:svg="http://www.w3.org/2000/svg"
   xmlns="http://www.w3.org/2000/svg"
   xmlns:sodipodi="http://sodipodi.sourceforge.net/DTD/sodipodi-0.dtd"
   xmlns:inkscape="http://www.inkscape.org/namespaces/inkscape"
   version="1.1"
   id="Layer_4"
   x="0px"
   y="0px"
   width="100px"
   height="100px"
   viewBox="0 0 100 100"
   enable-background="new 0 0 100 100"
   xml:space="preserve"
   inkscape:version="0.48.4 r9939"
   sodipodi:docname="server20_cor.svg"><metadata
     id="metadata9"><rdf:RDF><cc:Work
         rdf:about=""><dc:format>image/svg+xml</dc:format><dc:type
           rdf:resource="http://purl.org/dc/dcmitype/StillImage" /><dc:title></dc:title></cc:Work></rdf:RDF></metadata><defs
     id="defs7" /><sodipodi:namedview
     pagecolor="#ffffff"
     bordercolor="#666666"
     borderopacity="1"
     objecttolerance="10"
     gridtolerance="10"
     guidetolerance="10"
     inkscape:pageopacity="0"
     inkscape:pageshadow="2"
     inkscape:window-width="1424"
     inkscape:window-height="867"
     id="namedview5"
     showgrid="false"
     inkscape:zoom="2.9004633"
     inkscape:cx="57.243319"
     inkscape:cy="30.450063"
     inkscape:window-x="1794"
     inkscape:window-y="239"
     inkscape:window-maximized="0"
     inkscape:current-layer="Layer_4" /><path
     style="fill:#49b0ef;fill-opacity:0.60679614;stroke:#000000;stroke-width:0;stroke-linecap:butt;stroke-linejoin:miter;stroke-miterlimit:4;stroke-opacity:1;stroke-dasharray:none"
     d="m 17.318753,36.143319 3.872347,-5.646105 6.24572,-10.620054 8.619095,-8.065865 2.248459,0.806586 3.37269,6.721554 0.999315,6.990416 0.124908,3.764069 5.870978,0.134437 -0.499658,19.223643 5.746064,0.941017 4.621834,-12.098796 2.748117,-1.882036 3.12286,1.07545 3.872347,5.646104 6.620463,-0.537724 7.869609,3.898501 2.748118,-11.023348 -5.121491,-5.242811 -0.624573,-12.098796 -1.998631,-4.436225 5.746064,4.705088 5.870978,9.141311 3.372689,9.275744 1.124229,9.275744 -0.499657,8.334726 -9.743325,2.150898 -4.496919,0.672155 -2.623203,1.613173 -1.873716,3.495207 -0.499658,3.898501 2.24846,4.570657 4.24709,6.855985 -1.998631,2.419759 -6.745378,4.167362 -8.868924,3.49521 2.123545,-5.108383 -2.748117,-6.587121 -1.748801,-5.914968 -1.498974,-2.150896 -4.496918,0 -3.622519,-1.20988 -2.623202,-1.747604 0.249828,27.827231 -5.870971,-2.823058 0.249829,-53.906858 z"
     id="path3754"
     inkscape:connector-curvature="0" /><path
     d="M 8.421747,89.373239 H 36.931769 V 84.157776 H 8.421747 v 5.215463 z m 22.666275,-3.335834 h 3.901717 v 1.457561 h -3.901717 v -1.457561 z m -9.4075,-40.692284 c 0,-0.930994 0.70367,-1.686918 1.567496,-1.686918 0.863826,0 1.567497,0.757281 1.567497,1.686918 0,0.929635 -0.703671,1.686916 -1.567497,1.686916 -0.863826,0 -1.567496,-0.757281 -1.567496,-1.686916 z m 10.174225,0 c 0,-0.930994 0.70367,-1.686918 1.567496,-1.686918 0.865086,0 1.567496,0.757281 1.567496,1.686918 0,0.929635 -0.703671,1.686916 -1.567496,1.686916 -0.863826,0 -1.567496,-0.757281 -1.567496,-1.686916 z m -23.433,30.317 h 28.510022 v -5.21682 H 8.421747 v 5.21682 z M 31.088022,72.32493 h 3.901717 v 1.456204 H 31.088022 V 72.32493 z M 2.0786201,97.985606 H 42.848658 V 36.393469 H 2.0786201 V 97.985606 z M 33.422243,40.896438 c 2.279994,0 4.133751,1.996342 4.133751,4.448683 0,2.45234 -1.855018,4.447325 -4.133751,4.447325 -2.278735,0 -4.132491,-1.994985 -4.132491,-4.447325 0,-2.452341 1.852495,-4.448683 4.132491,-4.448683 z m -10.174225,0 c 2.279995,0 4.133751,1.996342 4.133751,4.448683 0,2.45234 -1.853756,4.447325 -4.133751,4.447325 -2.279995,0 -4.133752,-1.994985 -4.133752,-4.447325 0,-2.452341 1.853757,-4.448683 4.133752,-4.448683 z M 5.8554919,53.782418 H 39.498025 V 64.521414 H 5.8554919 V 53.782418 z m 0,13.902474 H 39.498025 V 78.42253 H 5.8554919 V 67.684892 z m 0,13.712474 H 39.498025 V 92.135004 H 5.8554919 V 81.397366 z M 8.421747,61.759648 H 36.931769 V 56.542827 H 8.421747 v 5.216821 z m 22.666275,-3.528547 h 3.901717 v 1.456204 H 31.088022 V 58.231101 z M 98.955698,47.185394 c 0,2.700694 -0.229513,5.345747 -0.644401,7.922943 l -0.750331,3.761973 c -4.821028,19.837218 -21.615813,34.520043 -41.539284,34.520043 -2.530946,0 -5.007667,-0.25107 -7.420072,-0.705709 V 65.159266 c 1.133692,0.508925 2.042916,1.382919 3.064374,2.24877 1.50066,1.272991 3.784438,0.230713 5.537309,0.294498 4.393531,0.157427 5.148905,5.258891 5.45282,8.950294 0.223208,2.707481 2.549862,4.94268 1.909243,7.775017 -0.287521,1.267562 -0.900396,2.543268 -1.886544,3.330405 6.983746,-1.324563 13.315523,-4.686182 18.450555,-9.498576 -1.779355,-4.787966 -6.904298,-7.715303 -6.4541,-14.01783 1.050462,-10.734924 12.552581,-6.134242 19.02938,-9.789002 0.393451,-2.361412 0.609092,-4.786609 0.609092,-7.267448 0,-15.427892 -7.923234,-28.894725 -19.617035,-35.957247 0.190421,0.191355 0.387146,0.381354 0.55865,0.567281 7.542394,8.115658 3.480523,8.739939 4.641958,18.106873 0,3.121407 5.995075,2.601625 5.414988,8.22287 -1.158914,5.619889 -1.354378,11.133922 -6.576423,6.450454 -5.220784,-4.683466 -8.701307,-0.935064 -10.44283,-1.560703 -2.32161,-1.248562 -3.481784,-6.868451 -6.383481,-6.868451 -8.12122,0.624281 -2.900435,18.106873 -12.764439,13.112622 -0.192943,-0.108572 -0.364446,-0.233427 -0.546039,-0.351498 V 30.405797 H 43.114742 C 42.924322,23.324276 42.408549,16.071756 36.707301,11.621716 29.842096,15.955042 24.367839,22.537138 21.090346,30.405797 H 16.027194 C 22.280785,13.201419 37.843515,0.9790763 56.017898,0.9790763 c 23.677645,0.001357 42.9378,20.7274967 42.9378,46.2063177 z"
     id="path3"
     style="fill:#efaa00;fill-opacity:1;stroke:#110af4;stroke-width:1.30821455;stroke-opacity:1"
     inkscape:connector-curvature="0" /></svg>