<?xml version="1.0" encoding="iso-8859-1"?>
<!-- Generator: Adobe Illustrator 17.0.2, SVG Export Plug-In . SVG Version: 6.00 Build 0)  -->
<!DOCTYPE svg PUBLIC "-//W3C//DTD SVG 1.1//EN" "http://www.w3.org/Graphics/SVG/1.1/DTD/svg11.dtd">
<svg version="1.1" id="Capa_1" xmlns="http://www.w3.org/2000/svg" xmlns:xlink="http://www.w3.org/1999/xlink" x="0px" y="0px"
	 width="64px" height="64px" viewBox="0 0 64 64" style="enable-background:new 0 0 64 64;" xml:space="preserve">
<g>
	<path style="fill:#010202;" d="M61.279,29.171C53.548,22.724,45.815,16.277,38.084,9.83c-0.029-0.022-0.054-0.044-0.092-0.063
		c-0.133-0.086-0.297-0.122-0.471-0.118c-0.359-0.046-0.719-0.092-1.079-0.139c-0.501-0.064-0.991,0.171-1.258,0.59
		c-1.74,2.735-0.708,7.614-0.708,10.723c0,6.921,0,13.842,0,20.764c0,3.009-0.936,7.393,0.746,10.037
		c1.359,2.136,6.628-3.395,7.271-3.93c4.957-4.134,9.914-8.268,14.871-12.4C58.616,34.251,63.786,31.261,61.279,29.171z
		 M51.965,23.758c0.052,0.043,0.104,0.087,0.156,0.13c-0.059,0.059-0.12,0.113-0.166,0.191c-1.465,2.513-2.943,5.014-4.462,7.487
		c-2.476,4.033-5.091,7.984-7.597,11.994c-0.292,0.469-0.293,0.467-0.004-0.004c3.998-6.51,7.977-13.033,11.973-19.545
		C51.913,23.932,51.936,23.844,51.965,23.758z M48.97,21.292c0.005-0.007,0.003-0.018,0.008-0.025
		c0.556,0.463,1.111,0.926,1.667,1.39c-0.061,0.059-0.125,0.113-0.174,0.192c-4.685,7.635-9.341,15.29-14.037,22.919
		c0-0.428,0-0.854,0-1.281c2.94-5.744,5.922-11.465,9.044-17.103c1.025-1.831,2.049-3.651,3.106-5.427
		C48.714,21.736,48.842,21.515,48.97,21.292z M46.476,19.182c0.304,0.253,0.607,0.506,0.911,0.759
		c-0.066,0.057-0.135,0.108-0.186,0.186c-3.229,4.895-6.452,9.797-9.695,14.684c-0.305,0.461-0.376,0.422-0.15-0.082
		c0.471-1.051,0.964-2.091,1.482-3.119c2.429-4.111,4.917-8.185,7.532-12.177C46.42,19.355,46.445,19.268,46.476,19.182z
		 M41.477,15.014c1.21,1.009,2.419,2.017,3.628,3.025c-0.066,0.056-0.136,0.108-0.189,0.185c-3.111,4.443-6.022,9.011-8.437,13.824
		c-0.016,0.026-0.03,0.052-0.046,0.079c0-2.733,0-5.464,0-8.196c1.667-2.879,3.321-5.766,4.958-8.662
		C41.436,15.19,41.454,15.101,41.477,15.014z M37.854,12.595c0.03-0.084,0.062-0.17,0.093-0.254c0.026-0.074,0.037-0.15,0.054-0.226
		c0.134,0.111,0.267,0.222,0.399,0.333c-0.071,0.053-0.146,0.103-0.204,0.178c-0.028,0.037-0.057,0.072-0.084,0.109
		C37.776,13.173,37.665,13.115,37.854,12.595z M36.361,18.103c0.946-1.469,1.923-2.939,2.952-4.393
		c0.134-0.189,0.21-0.274,0.248-0.294c0.007,0.005,0.014,0.011,0.021,0.017c-0.003,0.046-0.043,0.15-0.147,0.352
		c-0.995,1.912-2.009,3.815-3.034,5.714C36.388,19.097,36.373,18.623,36.361,18.103z M37.954,46.727
		c-0.519,0.867-1.022,1.743-1.521,2.62c0-0.065,0-0.129,0-0.193c0.504-0.81,1.008-1.621,1.511-2.433
		C38.235,46.252,38.237,46.254,37.954,46.727z M41.903,46.245c-1.026,0.857-2.053,1.712-3.079,2.567
		c4.007-7.062,8.711-13.754,12.868-20.72c0.562-0.941,1.112-1.894,1.665-2.841c0.046-0.08,0.067-0.167,0.094-0.254
		c0.573,0.478,1.146,0.956,1.719,1.434c-0.059,0.059-0.122,0.113-0.168,0.193c-0.454,0.785-0.908,1.572-1.36,2.36
		C49.94,34.878,46.008,40.626,41.903,46.245z M57.192,33.497c-2.485,2.072-4.97,4.143-7.454,6.216
		c1.962-3.618,3.982-7.21,6.034-10.786c0.228-0.362,0.45-0.729,0.673-1.095c0.049-0.08,0.07-0.169,0.098-0.257
		c0.348,0.29,0.695,0.58,1.043,0.87C60.528,30.897,60.048,31.116,57.192,33.497z"/>
	<path style="fill:#010202;" d="M29.425,51.614c2.259-1.638,0.995-7.96,0.995-10.183c0-6.922,0-13.843,0-20.765
		c0-3.186,1.042-8.07-0.742-10.875c-0.148-0.232-0.548-0.291-0.793-0.26c-0.401,0.052-0.804,0.103-1.205,0.155
		C27.65,9.691,27.627,9.705,27.6,9.71c-0.233,0.015-0.467,0.09-0.648,0.24c-7.688,6.411-15.377,12.821-23.065,19.231
		c-2.677,2.232,1.388,4.425,2.967,5.741c5.148,4.293,10.295,8.585,15.443,12.877C23.674,48.948,27.175,53.245,29.425,51.614z
		 M27.044,49.258c-0.016,0.043-0.031,0.086-0.047,0.129c-0.085-0.07-0.17-0.142-0.255-0.212c0.015-0.02,0.029-0.038,0.044-0.058
		C27.122,48.68,27.233,48.738,27.044,49.258z M28.467,43.858c-0.925,1.433-1.878,2.867-2.882,4.284
		c-0.013,0.018-0.019,0.023-0.031,0.041c-0.034-0.029-0.069-0.058-0.104-0.086c0.006-0.013,0.007-0.017,0.014-0.029
		c0.984-1.892,1.988-3.776,3.003-5.655C28.467,42.894,28.467,43.377,28.467,43.858z M26.944,15.127
		c0.523-0.875,1.03-1.758,1.534-2.644c0.01,0.05,0.02,0.098,0.028,0.15c-0.518,0.833-1.036,1.665-1.553,2.499
		C26.663,15.602,26.661,15.601,26.944,15.127z M8.492,33.957c-1.074-0.896-2.148-1.792-3.223-2.688
		c-0.142-0.119-0.237-0.238-0.296-0.357c0.298-0.526,0.595-1.052,0.893-1.579c0.329-0.251,0.666-0.472,0.876-0.647
		c2.966-2.473,5.933-4.946,8.898-7.42c-2.108,3.917-4.297,7.795-6.515,11.66C8.912,33.268,8.702,33.613,8.492,33.957z M9.936,35.161
		c0.441-0.762,0.882-1.526,1.32-2.292c3.967-6.316,8.193-12.469,12.62-18.471c0.903-0.752,1.806-1.505,2.708-2.257
		c-4.112,7.394-9.045,14.357-13.379,21.62c-0.548,0.919-1.086,1.847-1.625,2.772C11.033,36.076,10.484,35.618,9.936,35.161z
		 M12.984,37.703c1.452-2.488,2.917-4.966,4.421-7.416c2.476-4.034,5.091-7.984,7.597-11.994c0.292-0.468,0.293-0.467,0.004,0.003
		c-3.984,6.489-7.951,12.99-11.933,19.48C13.044,37.752,13.014,37.727,12.984,37.703z M16.087,40.289
		c-0.54-0.45-1.08-0.899-1.619-1.35c4.737-7.722,9.446-15.464,14.197-23.18c-0.008,0.443-0.023,0.88-0.042,1.302
		c-2.991,5.847-6.025,11.67-9.202,17.409c-1.025,1.83-2.049,3.65-3.106,5.426C16.238,40.027,16.162,40.158,16.087,40.289z
		 M17.738,41.666c3.216-4.874,6.426-9.755,9.655-14.623c0.305-0.46,0.376-0.422,0.15,0.082c-0.471,1.052-0.964,2.092-1.482,3.119
		c-2.416,4.091-4.893,8.142-7.493,12.114C18.291,42.128,18.015,41.897,17.738,41.666z M20.022,43.57
		c3.096-4.425,5.992-8.972,8.396-13.765c0.016-0.027,0.032-0.055,0.048-0.082c0,2.732,0,5.464,0,8.195
		c-1.653,2.856-3.294,5.72-4.918,8.593c-0.575-0.479-1.149-0.959-1.724-1.438C21.224,44.573,20.623,44.072,20.022,43.57z"/>
</g>
</svg>
