<?xml version="1.0" encoding="UTF-8" standalone="no"?>
<!-- Generator: Adobe Illustrator 16.0.0, SVG Export Plug-In . SVG Version: 6.00 Build 0)  -->

<svg
   xmlns:dc="http://purl.org/dc/elements/1.1/"
   xmlns:cc="http://creativecommons.org/ns#"
   xmlns:rdf="http://www.w3.org/1999/02/22-rdf-syntax-ns#"
   xmlns:svg="http://www.w3.org/2000/svg"
   xmlns="http://www.w3.org/2000/svg"
   xmlns:sodipodi="http://sodipodi.sourceforge.net/DTD/sodipodi-0.dtd"
   xmlns:inkscape="http://www.inkscape.org/namespaces/inkscape"
   version="1.1"
   id="Layer_6"
   x="0px"
   y="0px"
   width="100px"
   height="100px"
   viewBox="0 0 100 100"
   enable-background="new 0 0 100 100"
   xml:space="preserve"
   inkscape:version="0.48.4 r9939"
   sodipodi:docname="spreadsheet6.svg"><metadata
     id="metadata4559"><rdf:RDF><cc:Work
         rdf:about=""><dc:format>image/svg+xml</dc:format><dc:type
           rdf:resource="http://purl.org/dc/dcmitype/StillImage" /></cc:Work></rdf:RDF></metadata><defs
     id="defs4557" /><sodipodi:namedview
     pagecolor="#ffffff"
     bordercolor="#666666"
     borderopacity="1"
     objecttolerance="10"
     gridtolerance="10"
     guidetolerance="10"
     inkscape:pageopacity="0"
     inkscape:pageshadow="2"
     inkscape:window-width="640"
     inkscape:window-height="480"
     id="namedview4555"
     showgrid="false"
     inkscape:zoom="2.36"
     inkscape:cx="50"
     inkscape:cy="50"
     inkscape:window-x="0"
     inkscape:window-y="0"
     inkscape:window-maximized="0"
     inkscape:current-layer="Layer_6" /><path
     d="M 42.721713,83.99605 V 74.290087 H 54.68334 L 52.479617,71.224731 H 42.721713 V 61.160043 H 64.23468 v 5.62442 l 2.701049,1.14096 V 36.162092 c 0,-0.400715 0.0696,-0.782236 0.166149,-1.149359 v -2.103158 h 1.282044 c 0.689295,-0.614271 1.564948,-0.99819 2.531532,-0.99819 h 11.716895 c 0.965461,0 1.841114,0.383919 2.530408,0.99819 h 4.008914 V 44.404362 H 86.61095 v 3.065356 h 2.560721 V 58.095887 H 86.61095 v 3.065356 h 2.560721 v 5.683207 l 2.868321,-1.210546 V 5.237385 c 0,-1.9711862 -1.500957,-3.5752494 -3.345439,-3.5752494 H 5.8343202 c -1.8456045,0 -3.3454388,1.605263 -3.3454388,3.5752494 v 78.335153 c 0,1.210546 0.5691736,2.278321 1.433599,2.926185 v 0.563882 h 1.200092 c 0.2301393,0.05279 0.4670143,0.08519 0.7117478,0.08519 H 63.932692 L 61.664979,83.99605 H 42.721713 z M 67.103001,4.7262923 h 21.59043 c 0.262694,0 0.47824,0.2291519 0.47824,0.5110927 V 15.540821 H 67.103001 V 4.7262923 z m 0,13.8786867 h 22.06867 v 11.23924 H 67.103001 V 18.604979 z M 42.721713,4.7262923 H 64.23468 V 15.540821 H 42.721713 V 4.7262923 z m 0,13.8786867 H 64.23468 v 11.23924 H 42.721713 v -11.23924 z m 0,14.304596 H 64.23468 V 44.404362 H 42.721713 V 32.909575 z m 0,14.560143 H 64.23468 V 58.095887 H 42.721713 V 47.469718 z M 15.713468,83.99605 H 5.5862188 C 5.4515032,83.907268 5.3560796,83.7537 5.3560796,83.571338 V 74.290087 H 15.713468 v 9.705963 z m 0,-12.771319 H 5.3560796 V 61.160043 H 15.713468 v 10.064688 z m 0,-13.128844 H 5.3560796 V 47.469718 H 15.713468 v 10.626169 z m 0,-13.691525 H 5.3560796 V 32.909575 H 15.713468 v 11.494787 z m 0,-14.560143 H 5.3560796 V 18.604979 H 15.713468 v 11.23924 z M 39.853392,83.99605 H 18.580667 v -9.705963 h 21.272725 v 9.705963 z m 0,-12.771319 H 18.580667 V 61.160043 h 21.272725 v 10.064688 z m 0,-13.128844 H 18.580667 V 47.469718 h 21.272725 v 10.626169 z m 0,-13.691525 H 18.580667 V 32.909575 h 21.272725 v 11.494787 z m 0,-14.560143 H 18.580667 v -11.23924 h 21.272725 v 11.23924 z m 0,-14.304597 H 18.580667 V 4.7250926 H 39.853392 V 15.539622 z M 99.221459,67.191178 77.142685,97.885533 c -0.223403,0.307136 -0.566928,0.488298 -0.93066,0.488298 -0.36261,0 -0.707258,-0.181162 -0.929539,-0.488298 L 53.203713,67.191178 c -0.162781,-0.225553 -0.244734,-0.494297 -0.244734,-0.76304 0,-0.266345 0.07858,-0.530289 0.235753,-0.754642 0.315459,-0.448706 0.877897,-0.61787 1.366242,-0.410314 L 69.18099,71.435887 V 35.262281 c 0,-0.692254 0.524269,-1.251338 1.173149,-1.251338 h 11.716894 c 0.646635,0 1.172027,0.560283 1.172027,1.251338 v 36.172406 l 14.618893,-6.172704 c 0.491713,-0.207557 1.050782,-0.0384 1.367364,0.410314 0.316582,0.451104 0.31546,1.071374 -0.0078,1.518881 z"
     id="path4553"
     inkscape:connector-curvature="0"
     style="stroke:#0e1fe5;stroke-opacity:1;fill:#00f5f9;fill-opacity:1" /></svg>