<?xml version="1.0" encoding="UTF-8" standalone="no"?>
<!-- Generator: Adobe Illustrator 16.0.0, SVG Export Plug-In . SVG Version: 6.00 Build 0)  -->

<svg
   xmlns:dc="http://purl.org/dc/elements/1.1/"
   xmlns:cc="http://creativecommons.org/ns#"
   xmlns:rdf="http://www.w3.org/1999/02/22-rdf-syntax-ns#"
   xmlns:svg="http://www.w3.org/2000/svg"
   xmlns="http://www.w3.org/2000/svg"
   xmlns:sodipodi="http://sodipodi.sourceforge.net/DTD/sodipodi-0.dtd"
   xmlns:inkscape="http://www.inkscape.org/namespaces/inkscape"
   version="1.1"
   id="Layer_6"
   x="0px"
   y="0px"
   width="100px"
   height="100px"
   viewBox="0 0 100 100"
   enable-background="new 0 0 100 100"
   xml:space="preserve"
   inkscape:version="0.48.4 r9939"
   sodipodi:docname="spreadsheet1.svg"><metadata
     id="metadata4001"><rdf:RDF><cc:Work
         rdf:about=""><dc:format>image/svg+xml</dc:format><dc:type
           rdf:resource="http://purl.org/dc/dcmitype/StillImage" /></cc:Work></rdf:RDF></metadata><defs
     id="defs3999" /><sodipodi:namedview
     pagecolor="#ffffff"
     bordercolor="#666666"
     borderopacity="1"
     objecttolerance="10"
     gridtolerance="10"
     guidetolerance="10"
     inkscape:pageopacity="0"
     inkscape:pageshadow="2"
     inkscape:window-width="640"
     inkscape:window-height="480"
     id="namedview3997"
     showgrid="false"
     inkscape:zoom="2.36"
     inkscape:cx="50"
     inkscape:cy="50"
     inkscape:window-x="0"
     inkscape:window-y="0"
     inkscape:window-maximized="0"
     inkscape:current-layer="Layer_6" /><path
     d="M 44.240171,81.876941 V 72.92033 h 19.832605 v 4.416307 l 2.644278,-2.941622 1.324726,-1.474685 1.2647,-1.407151 -1.235721,-1.421544 h -1.353705 v -1.557719 l -2.644278,-3.04237 v 4.598982 H 44.240171 v -9.28764 H 59.998207 L 57.540218,57.974193 H 44.240171 V 48.16842 h 10.841023 c 0.841409,-1.441472 2.187869,-2.444524 3.721654,-2.828695 H 44.241206 V 34.732397 h 19.832605 v 10.423546 h 2.644278 V 34.732397 h 20.343866 v 10.423546 h 2.644279 V 9.1966451 c 0,-1.8190003 -1.383719,-3.2992214 -3.084129,-3.2992214 H 10.234027 c -1.7014454,0 -3.0841287,1.4813283 -3.0841287,3.2992214 V 81.483913 c 0,1.117085 0.5247159,2.102423 1.3216217,2.700269 v 0.520346 h 1.1063536 c 0.2121633,0.04871 0.4305364,0.07861 0.6561534,0.07861 h 47.14474 l 2.614265,-2.906193 H 44.240171 z M 66.717054,8.7272256 H 86.62107 c 0.242176,0 0.440885,0.2114602 0.440885,0.4716337 V 18.706817 H 66.717054 V 8.7272256 z m 0,12.8071784 H 87.061955 V 31.905916 H 66.717054 V 21.534404 z M 44.240171,8.7272256 H 64.072776 V 18.706817 H 44.240171 V 8.7272256 z m 0,12.8071784 H 64.072776 V 31.905916 H 44.240171 V 21.534404 z M 19.341522,81.876941 H 10.005305 C 9.8811118,81.795014 9.7931417,81.653302 9.7931417,81.48502 v -8.56469 h 9.5483803 v 8.956611 z m 0,-11.785306 H 9.7931417 v -9.28764 h 9.5483803 v 9.28764 z m 0,-12.115228 H 9.7931417 v -9.805773 h 9.5483803 v 9.805773 z m 0,-12.634467 H 9.7931417 V 34.734611 H 19.341522 V 45.34194 z m 0,-13.436024 H 9.7931417 V 21.534404 H 19.341522 V 31.905916 z M 41.595893,81.876941 H 21.984765 V 72.92033 h 19.611128 v 8.956611 z m 0,-11.785306 H 21.984765 v -9.28764 h 19.611128 v 9.28764 z m 0,-12.115228 H 21.984765 v -9.805773 h 19.611128 v 9.805773 z m 0,-12.634467 H 21.984765 V 34.734611 H 41.595893 V 45.34194 z m 0,-13.436024 H 21.984765 V 21.534404 h 19.611128 v 10.371512 z m 0,-13.200207 H 21.984765 V 8.7261185 h 19.611128 v 9.9795905 z m 48.65679,39.23527 V 54.112554 H 66.994419 l 13.687115,15.745479 c 0.855898,0.985337 0.843479,2.5187 -0.02691,3.489646 L 67.122751,88.403421 h 23.129932 v -2.310562 c 0,-1.401616 1.063921,-2.540844 2.373124,-2.540844 1.309202,0 2.375193,1.139228 2.375193,2.540844 v 4.851405 c 0,1.400508 -1.065991,2.539736 -2.375193,2.539736 H 61.544411 c -0.952147,0 -1.81115,-0.606702 -2.183729,-1.544434 -0.373614,-0.939946 -0.190429,-2.022711 0.471934,-2.757839 L 75.671377,71.558571 59.804672,53.302141 c -0.642699,-0.739557 -0.814499,-1.816786 -0.436745,-2.744553 0.377754,-0.926661 1.230546,-1.525613 2.176484,-1.525613 h 31.081396 c 1.309202,0 2.375193,1.139227 2.375193,2.539736 v 6.368161 c 0,1.401616 -1.065991,2.540844 -2.375193,2.540844 -1.309203,0 -2.373124,-1.138121 -2.373124,-2.539737 z"
     id="path3995"
     inkscape:connector-curvature="0"
     style="fill:#0002ff;fill-opacity:1" /></svg>