<?xml version="1.0" encoding="UTF-8" standalone="no"?>
<!-- Generator: Adobe Illustrator 16.0.0, SVG Export Plug-In . SVG Version: 6.00 Build 0)  -->

<svg
   xmlns:dc="http://purl.org/dc/elements/1.1/"
   xmlns:cc="http://creativecommons.org/ns#"
   xmlns:rdf="http://www.w3.org/1999/02/22-rdf-syntax-ns#"
   xmlns:svg="http://www.w3.org/2000/svg"
   xmlns="http://www.w3.org/2000/svg"
   xmlns:sodipodi="http://sodipodi.sourceforge.net/DTD/sodipodi-0.dtd"
   xmlns:inkscape="http://www.inkscape.org/namespaces/inkscape"
   version="1.1"
   id="Layer_6"
   x="0px"
   y="0px"
   width="100px"
   height="100px"
   viewBox="0 0 100 100"
   enable-background="new 0 0 100 100"
   xml:space="preserve"
   inkscape:version="0.48.4 r9939"
   sodipodi:docname="spreadsheet2.svg"><metadata
     id="metadata9"><rdf:RDF><cc:Work
         rdf:about=""><dc:format>image/svg+xml</dc:format><dc:type
           rdf:resource="http://purl.org/dc/dcmitype/StillImage" /></cc:Work></rdf:RDF></metadata><defs
     id="defs7" /><sodipodi:namedview
     pagecolor="#ffffff"
     bordercolor="#666666"
     borderopacity="1"
     objecttolerance="10"
     gridtolerance="10"
     guidetolerance="10"
     inkscape:pageopacity="0"
     inkscape:pageshadow="2"
     inkscape:window-width="804"
     inkscape:window-height="480"
     id="namedview5"
     showgrid="false"
     inkscape:zoom="2.36"
     inkscape:cx="138.13559"
     inkscape:cy="50"
     inkscape:window-x="0"
     inkscape:window-y="0"
     inkscape:window-maximized="0"
     inkscape:current-layer="Layer_6" /><path
     d="m 42.458918,35.413598 h 21.372449 v 5.785167 h 2.849585 v -5.785167 h 21.924521 v 5.785167 h 2.849585 V 5.8991356 c 0,-2.1024176 -1.491153,-3.8132712 -3.323587,-3.8132712 H 5.8124683 c -1.8335494,0 -3.3235869,1.7121331 -3.3235869,3.8132712 V 89.449441 c 0,1.291139 0.5654559,2.430001 1.424235,3.120997 v 0.601422 h 1.1922532 c 0.2286361,0.0563 0.4639638,0.09085 0.7070987,0.09085 H 43.625519 V 89.901148 H 42.458918 V 79.549012 h 1.166601 V 76.27958 H 42.458918 V 65.544838 h 1.166601 V 62.275406 H 42.458918 V 50.941801 h 1.166601 V 47.673648 H 42.458918 V 35.413598 z M 66.680952,5.3540169 h 21.449403 c 0.26098,0 0.475118,0.2444077 0.475118,0.5451187 V 16.888523 H 66.680952 V 5.3540169 z m 0,14.8026571 H 88.605473 V 32.144166 H 66.680952 V 20.156674 z M 42.458918,5.3540169 H 63.831367 V 16.888523 H 42.458918 V 5.3540169 z m 0,14.8026571 H 63.831367 V 32.144166 H 42.458918 V 20.156674 z M 15.627087,89.901148 H 5.5659875 c -0.1338357,-0.09469 -0.228636,-0.258484 -0.228636,-0.452986 v -9.89915 H 15.627087 v 10.352136 z m 0,-13.621568 H 5.3373515 V 65.544838 H 15.627087 V 76.27958 z m 0,-14.002895 H 5.3373515 V 50.943081 H 15.627087 v 11.333604 z m 0,-14.603037 H 5.3373515 V 35.413598 H 15.627087 v 12.26005 z m 0,-15.529482 H 5.3373515 V 20.156674 H 15.627087 V 32.144166 z M 39.609332,89.901148 H 18.475557 V 79.549012 h 21.133775 v 10.352136 z m 0,-13.621568 H 18.475557 V 65.544838 H 39.609332 V 76.27958 z m 0,-14.002895 H 18.475557 V 50.943081 h 21.133775 v 11.333604 z m 0,-14.603037 H 18.475557 v -12.26005 h 21.133775 v 12.26005 z m 0,-15.529482 H 18.475557 V 20.156674 h 21.133775 v 11.987492 z m 0,-15.256924 H 18.475557 V 5.3527373 H 39.609332 V 16.887242 z m 12.895072,43.939633 c 0,-1.988532 1.404159,-3.599575 3.138447,-3.599575 1.732057,0 3.137333,1.611043 3.137333,3.599575 0,0.995545 -0.352435,1.896398 -0.922352,2.549005 l 4.974228,8.934315 c 0.411545,-0.186825 0.856548,-0.296872 1.326089,-0.296872 0.944656,0 1.798975,0.427394 2.439155,1.11455 l 6.528953,-5.475499 c -0.146105,-0.397962 -0.228636,-0.835592 -0.228636,-1.296256 0,-1.845214 1.304898,-3.34237 2.914273,-3.34237 1.608259,0 2.913157,1.497156 2.913157,3.34237 0,0.374929 -0.0658,0.728104 -0.163949,1.064644 l 6.844581,4.912467 c 0.717137,-0.719148 1.651756,-1.155499 2.676715,-1.155499 2.251786,0 4.077528,2.094741 4.077528,4.678296 0,2.583555 -1.826858,4.678295 -4.077528,4.678295 -2.251786,0 -4.077528,-2.09474 -4.077528,-4.678295 0,-0.84583 0.198523,-1.636636 0.539804,-2.321233 l -6.68844,-4.801139 c -0.52642,0.596304 -1.248018,0.966114 -2.04434,0.966114 -0.721598,0 -1.372932,-0.313507 -1.881507,-0.811279 l -6.540106,5.484456 c 0.219714,0.533601 0.352434,1.124787 0.352434,1.75436 0,2.272607 -1.604914,4.113983 -3.585681,4.113983 -1.980769,0 -3.585682,-1.841376 -3.585682,-4.113983 0,-1.175971 0.437196,-2.232938 1.127565,-2.982796 l -4.980919,-8.948392 c -0.33682,0.142039 -0.697061,0.231612 -1.076262,0.231612 -1.732058,0 -3.137332,-1.612322 -3.137332,-3.600854 z M 47.904916,45.933364 V 97.101576 H 96.761644 V 45.933364 H 47.904916 z M 94.742955,94.788021 H 49.92249 V 48.246919 h 44.821581 v 46.541102 z"
     id="path3"
     inkscape:connector-curvature="0"
     style="fill:#0000fb;fill-opacity:1" /></svg>