<?xml version="1.0" encoding="UTF-8" standalone="no"?>
<!-- Generator: Adobe Illustrator 16.0.4, SVG Export Plug-In . SVG Version: 6.00 Build 0)  -->

<svg
   xmlns:dc="http://purl.org/dc/elements/1.1/"
   xmlns:cc="http://creativecommons.org/ns#"
   xmlns:rdf="http://www.w3.org/1999/02/22-rdf-syntax-ns#"
   xmlns:svg="http://www.w3.org/2000/svg"
   xmlns="http://www.w3.org/2000/svg"
   xmlns:sodipodi="http://sodipodi.sourceforge.net/DTD/sodipodi-0.dtd"
   xmlns:inkscape="http://www.inkscape.org/namespaces/inkscape"
   version="1.1"
   id="Layer_1"
   x="0px"
   y="0px"
   width="500px"
   height="500px"
   viewBox="0 0 500 500"
   enable-background="new 0 0 500 500"
   xml:space="preserve"
   inkscape:version="0.48.4 r9939"
   sodipodi:docname="sync.svg"><metadata
     id="metadata9"><rdf:RDF><cc:Work
         rdf:about=""><dc:format>image/svg+xml</dc:format><dc:type
           rdf:resource="http://purl.org/dc/dcmitype/StillImage" /><dc:title /></cc:Work></rdf:RDF></metadata><defs
     id="defs7" /><sodipodi:namedview
     pagecolor="#ffffff"
     bordercolor="#666666"
     borderopacity="1"
     objecttolerance="10"
     gridtolerance="10"
     guidetolerance="10"
     inkscape:pageopacity="0"
     inkscape:pageshadow="2"
     inkscape:window-width="1305"
     inkscape:window-height="958"
     id="namedview5"
     showgrid="false"
     inkscape:zoom="0.472"
     inkscape:cx="250"
     inkscape:cy="250"
     inkscape:window-x="130"
     inkscape:window-y="252"
     inkscape:window-maximized="0"
     inkscape:current-layer="Layer_1" /><path
     d="m 205.16242,96.26876 c 0,-6.194177 8.965,-11.208163 19.953,-11.208163 10.988,0 19.953,5.013986 19.953,11.208163 0,6.19418 -8.965,11.20816 -19.953,11.20816 -10.988,0 -19.953,-5.01398 -19.953,-11.20816 z m 19.953,124.83286 c -10.184,0 -18.488,4.64549 -18.488,10.38523 0,5.73974 8.305,10.38523 18.488,10.38523 10.183,0 18.488,-4.64549 18.488,-10.38523 0,-5.73974 -8.305,-10.38523 -18.488,-10.38523 z m -119.266,-67.61972 c -10.183996,0 -18.487996,4.66515 -18.487996,10.38523 0,5.7403 8.305,10.38523 18.487996,10.38523 10.254,0 18.488,-4.64549 18.488,-10.38523 0,-5.71839 -8.234,-10.38523 -18.488,-10.38523 z m 218.817,10.38748 c 0,5.8914 8.527,10.65991 18.977,10.65991 10.527,0 18.977,-4.76795 18.977,-10.65991 0,-5.87175 -8.449,-10.65992 -18.977,-10.65992 -10.454,-0.002 -18.977,4.78817 -18.977,10.65992 z m -90.953,-12.88268 v -2.65922 h -11.719 v 2.65922 c -5.785,0.9218 -10.57,3.16422 -13.262,6.11778 h -49.238 v 10.97112 h 49.238 c 2.691,2.95356 7.477,5.19598 13.262,6.11778 v 39.96191 h 11.719 v -39.96416 c 5.785,-0.91955 10.57,-3.16421 13.262,-6.11778 h 14.082 v -10.97111 h -14.082 c -2.692,-2.95132 -7.477,-5.19599 -13.262,-6.11554 z m 242.187,-6.68344 v 39.49623 h -46.875 v -11.19075 h -18.531 c -3.223,21.35466 -17.141,40.9865 -39.691,56.79354 -5.043,19.10325 -21.211,50.94369 -21.211,50.94369 l -41.984,23.36677 h -167.97 l -39,-23.36677 c 0,0 -16.104996,-31.82303 -21.151996,-50.94201 -25.648,-17.96014 -41.086,-40.71406 -41.086,-65.53571 0,-24.82164 15.438,-47.57781 41.086,-65.5357 5.047,-19.120667 21.151996,-50.577448 21.151996,-50.577448 l 39.445,-23.733017 h 167.969 l 41.539,23.733017 c 0,0 16.168,31.474194 21.211,50.592614 22.551,15.791864 36.469,35.422014 39.691,56.778364 h 18.532 v -10.82451 h 46.875 z m -99.094,19.56387 c 0,-46.98351 -68.023,-85.209111 -151.691,-85.209111 -83.609,0 -151.690996,38.228411 -151.690996,85.209111 0,46.9807 68.080996,85.20912 151.690996,85.20912 83.668,0 151.691,-38.22617 151.691,-85.20912 z m -202.343,-32.36397 -37.742,-21.20018 -11.048,6.20597 37.742,21.20074 11.048,-6.20653 z m 150.675,-15.22957 -11.473,-5.95938 -34.695,21.07379 11.473,5.95938 34.695,-21.07379 z m -199.48,97.87945 11.048,6.20654 37.739,-21.19907 -11.048,-6.20597 -37.739,21.1985 z m 153.306,-14.86108 34.692,21.0693 11.471,-5.95937 -34.692,-21.06931 -11.471,5.95938 z"
     id="path3"
     inkscape:connector-curvature="0"
     style="fill:#0000fc;fill-opacity:1" /><g
     id="g3056"
     transform="matrix(1.9092411,0,0,1.6173859,729.62864,551.18513)"
     style="fill:#fb0002;fill-opacity:1"><g
       id="g3071"
       transform="matrix(0.77061952,0.18441927,-0.19321584,0.52784854,-272.63974,-170.31497)"
       style="fill:#fb0002;fill-opacity:1"><path
         inkscape:connector-curvature="0"
         d="m 31.6447,79.091701 c 2.398099,-1.699941 5.597065,-2.634908 9.005995,-2.634908 3.40893,0 6.607895,0.93603 9.005995,2.634908 l 24.375425,17.268211 c 0.844359,0.597104 1.988668,0.933905 3.180968,0.933905 1.192301,0 2.338109,-0.335738 3.180969,-0.933905 L 104.76948,79.091701 c 0.84436,-0.597104 1.31828,-1.408826 1.31828,-2.253484 0,-0.844658 -0.47392,-1.65638 -1.31828,-2.253484 L 80.394052,57.316522 C 69.774327,49.795346 55.658686,45.653865 40.649195,45.653865 c -15.009491,0 -29.125131,4.141481 -39.74485625,11.661594 L -72.224937,109.12222 c -10.619725,7.5233 -16.468747,17.52426 -16.468747,28.16058 0,10.63738 5.849022,20.63516 16.470246,28.15314 l 24.373926,17.26715 c 10.610727,7.5233 24.724867,11.66691 39.7388577,11.66691 15.0139903,0 29.1311303,-4.14361 39.7523553,-11.66691 l 41.210111,-29.19435 c 1.325779,-0.93922 1.690218,-2.36186 0.916347,-3.57094 -0.733377,-1.14428 -2.341109,-1.86994 -4.095815,-1.86994 -0.100483,0 -0.199467,0.002 -0.30145,0.007 -1.450257,0.0691 -2.920012,0.10306 -4.370269,0.10306 -11.446087,0 -22.703205,-2.15574 -32.552059,-6.23453 -0.707882,-0.29324 -1.490751,-0.43561 -2.269121,-0.43561 -1.163805,0 -2.315613,0.3198 -3.182468,0.9339 L 0.90433875,160.92685 c -2.40259835,1.70207 -5.60006395,2.64022 -9.00449485,2.64022 -3.4059309,0 -6.6063959,-0.93709 -9.0089939,-2.64022 l -24.375426,-17.26821 c -2.405598,-1.69994 -3.729876,-3.96192 -3.732876,-6.37053 -0.0015,-2.41391 1.322779,-4.68333 3.732876,-6.39071 L 31.6447,79.091701 z"
         id="path3058"
         style="fill:#fb0002;fill-opacity:1" /><path
         inkscape:connector-curvature="0"
         d="M 177.90025,22.771599 153.52483,5.503388 C 142.9126,-2.0167252 128.79996,-6.1592685 113.78597,-6.1592685 c -15.01399,0 -29.131131,4.1414808 -39.750855,11.661594 L 32.823503,34.709434 c -1.325778,0.939217 -1.690217,2.362917 -0.914847,3.572 0.733378,1.14321 2.341109,1.868873 4.094316,1.868873 0.100483,0 0.202466,-0.0021 0.304449,-0.0074 1.463755,-0.07012 2.947007,-0.105183 4.410763,-0.105183 11.468583,0 22.700205,2.154675 32.48157,6.231345 0.710881,0.296427 1.49825,0.43986 2.279619,0.43986 1.163806,0 2.315613,-0.319801 3.182468,-0.933905 L 104.77248,27.277505 c 2.3981,-1.699941 5.59706,-2.634908 9.00599,-2.634908 3.40893,0 6.6079,0.93603 9.006,2.634908 l 24.37542,17.268211 c 4.96117,3.518878 4.96117,9.247678 -10e-4,12.768681 L 74.032115,109.11903 c -2.398099,1.70313 -5.591065,2.64022 -8.992497,2.64022 -3.40893,0 -6.613894,-0.93815 -9.025491,-2.64234 L 31.6447,91.851882 c -0.844359,-0.597104 -1.988667,-0.933905 -3.180968,-0.933905 -1.192301,0 -2.338109,0.335738 -3.180968,0.933905 L 0.90733824,109.12009 c -1.75770619,1.24521 -1.75770619,3.26283 0,4.50803 L 25.282764,130.89633 c 10.619725,7.52331 24.735365,11.66691 39.744856,11.66691 15.009491,0 29.125132,-4.1436 39.74486,-11.66691 l 73.12777,-51.805691 c 10.61973,-7.520114 16.46875,-17.521078 16.46875,-28.15952 0,-10.638442 -5.84902,-20.639407 -16.46875,-28.15952 z"
         id="path3060"
         style="fill:#fb0002;fill-opacity:1" /></g></g></svg>