<?xml version="1.0" encoding="UTF-8" standalone="no"?>
<!-- Created with Inkscape (http://www.inkscape.org/) -->

<svg
   xmlns:dc="http://purl.org/dc/elements/1.1/"
   xmlns:cc="http://creativecommons.org/ns#"
   xmlns:rdf="http://www.w3.org/1999/02/22-rdf-syntax-ns#"
   xmlns:svg="http://www.w3.org/2000/svg"
   xmlns="http://www.w3.org/2000/svg"
   xmlns:sodipodi="http://sodipodi.sourceforge.net/DTD/sodipodi-0.dtd"
   xmlns:inkscape="http://www.inkscape.org/namespaces/inkscape"
   version="1.0"
   width="400"
   height="400"
   id="svg24159"
   sodipodi:docname="Time_kill.svg"
   inkscape:version="0.92.2 5c3e80d, 2017-08-06">
  <metadata
     id="metadata44">
    <rdf:RDF>
      <cc:Work
         rdf:about="">
        <dc:format>image/svg+xml</dc:format>
        <dc:type
           rdf:resource="http://purl.org/dc/dcmitype/StillImage" />
        <dc:title></dc:title>
      </cc:Work>
    </rdf:RDF>
  </metadata>
  <sodipodi:namedview
     pagecolor="#ffffff"
     bordercolor="#666666"
     borderopacity="1"
     objecttolerance="10"
     gridtolerance="10"
     guidetolerance="10"
     inkscape:pageopacity="0"
     inkscape:pageshadow="2"
     inkscape:window-width="1018"
     inkscape:window-height="642"
     id="namedview42"
     showgrid="false"
     inkscape:zoom="0.59"
     inkscape:cx="13.559322"
     inkscape:cy="200"
     inkscape:window-x="646"
     inkscape:window-y="161"
     inkscape:window-maximized="0"
     inkscape:current-layer="svg24159" />
  <defs
     id="defs24161" />
  <g
     id="layer1"
     transform="matrix(0.6161677,0,0,0.45919591,86.087242,214.09257)">
    <g
       transform="matrix(0.651999,0,0,0.651999,-51.23088,-96.82474)"
       id="g879">
      <g
         transform="translate(87.13029,195.4545)"
         style="font-size:12px;fill:#000000;fill-opacity:1;stroke:#000000;stroke-opacity:0.99122799"
         id="g670">
        <path
           d="m 294.895,259.711 c -9.696,7.373 -11.853,9.849 -17.211,18.008 -1.939,3.149 -5.56,10.508 -6.55,15.445 -0.989,4.936 -1.73,12.098 -1.727,15.891 0.012,12.853 4.103,20.916 8.571,20.635 3.992,-0.458 9.072,-4.621 16.77,-14.076"
           style="fill:#000000;fill-opacity:1;fill-rule:evenodd;stroke:#000000;stroke-width:1.00000003pt;stroke-linecap:butt;stroke-linejoin:miter;stroke-opacity:0.99122799"
           id="path584"
           inkscape:connector-curvature="0" />
        <path
           d="m 294.895,259.711 c -9.696,7.373 -11.853,9.849 -17.211,18.008 -1.939,3.149 -5.56,10.508 -6.55,15.445 -0.989,4.936 -1.73,12.098 -1.727,15.891 0.012,12.853 4.103,20.916 8.571,20.635 3.992,-0.458 9.072,-4.621 16.77,-14.076"
           transform="matrix(-1,0,0,1,596.772,0.208099)"
           style="fill:#000000;fill-opacity:1;fill-rule:evenodd;stroke:#000000;stroke-width:1.00000003pt;stroke-linecap:butt;stroke-linejoin:bevel;stroke-opacity:0.99122799"
           id="path585"
           inkscape:connector-curvature="0" />
        <path
           d="m 211.888,203.561 c 13.46,-2.359 26.503,-3.885 39.963,-5.411 17.623,-4.441 26.504,15.68 21.647,30.805 -6.105,13.46 -14.708,25.255 -24.56,36.633 -7.632,8.603 -16.724,9.995 -25.394,7.076 -6.998,-1.94 -13.461,-6.243 -20.399,-16.234 -3.052,-8.604 -5.688,-13.045 -9.574,-23.729 -3.052,-9.852 1.695,-24.6 18.317,-29.14 z"
           transform="translate(0.588722,-3.051758e-5)"
           style="fill:#000000;fill-opacity:1;fill-rule:evenodd;stroke:#000000;stroke-width:1.00000003pt;stroke-linecap:butt;stroke-linejoin:miter;stroke-opacity:0.99122799"
           id="path586"
           inkscape:connector-curvature="0" />
        <path
           d="m 211.888,203.561 c 13.46,-2.359 26.503,-3.885 39.963,-5.411 17.623,-4.441 26.504,15.68 21.647,30.805 -6.105,13.46 -14.708,25.255 -24.56,36.633 -7.632,8.603 -16.724,9.995 -25.394,7.076 -6.998,-1.94 -13.461,-6.243 -20.399,-16.234 -3.052,-8.604 -5.688,-13.045 -9.574,-23.729 -3.052,-9.852 1.695,-24.6 18.317,-29.14 z"
           transform="matrix(-1,0,0,1,596.4468,-3.051758e-5)"
           style="fill:#000000;fill-opacity:1;fill-rule:evenodd;stroke:#000000;stroke-width:1.00000003pt;stroke-linecap:butt;stroke-linejoin:miter;stroke-opacity:0.99122799"
           id="path587"
           inkscape:connector-curvature="0" />
      </g>
      <g
         transform="translate(87.13029,195.4545)"
         style="font-size:12px;stroke:#000000;stroke-opacity:0.99122799"
         id="g775">
        <g
           style="fill:none;fill-opacity:1;stroke:#000000;stroke-opacity:0.99122799"
           id="g740">
          <g
             style="font-size:12px;fill:none;fill-opacity:1;stroke:#000000;stroke-opacity:0.99122799"
             id="g652">
            <path
               d="m 212.232,318.53 c 5.69,13.344 7.45,18.415 11.553,31.718 3.496,12.289 4.781,19.794 6.941,37.258"
               style="fill:none;fill-opacity:1;fill-rule:evenodd;stroke:#000000;stroke-width:6.25;stroke-linecap:butt;stroke-linejoin:miter;stroke-dasharray:none;stroke-opacity:0.99122799"
               id="path611"
               inkscape:connector-curvature="0" />
            <path
               d="m 212.232,318.53 c 5.69,13.344 7.45,18.415 11.553,31.718 3.496,12.289 4.781,19.794 6.941,37.258"
               transform="matrix(-1,0,0,1,596.3183,-0.735886)"
               style="fill:none;fill-opacity:1;fill-rule:evenodd;stroke:#000000;stroke-width:6.25;stroke-linecap:butt;stroke-linejoin:miter;stroke-dasharray:none;stroke-opacity:0.99122799"
               id="path612"
               inkscape:connector-curvature="0" />
            <g
               style="fill:none;fill-opacity:1;stroke:#000000;stroke-opacity:0.99122799"
               id="g637">
              <path
                 d="m 236.516,349.732 c 14.718,9.027 40.161,10.419 62.956,10.009 25.394,-0.129 47.133,-1.963 61.409,-10.597"
                 style="fill:none;fill-opacity:1;fill-rule:evenodd;stroke:#000000;stroke-width:5;stroke-linecap:butt;stroke-linejoin:miter;stroke-dasharray:none;stroke-opacity:0.99122799"
                 id="path588"
                 inkscape:connector-curvature="0" />
              <path
                 d="m 241.667,373.282 c 16.238,10.204 35.334,13.708 57.326,12.878 22.842,-0.556 40.351,-2.478 56.001,-13.172"
                 style="fill:none;fill-opacity:1;fill-rule:evenodd;stroke:#000000;stroke-width:5;stroke-linecap:butt;stroke-linejoin:miter;stroke-dasharray:none;stroke-opacity:0.99122799"
                 id="path608"
                 inkscape:connector-curvature="0" />
              <g
                 style="fill:none;fill-opacity:1;stroke:#000000;stroke-opacity:0.99122799"
                 id="g625">
                <path
                   d="m 229.893,385.644 c 17.367,20.948 41.608,24.585 69.173,25.315 29.519,1.077 59.166,-10.645 66.819,-25.314"
                   style="fill:none;fill-opacity:1;fill-rule:evenodd;stroke:#000000;stroke-width:6.25;stroke-linecap:butt;stroke-linejoin:miter;stroke-dasharray:none;stroke-opacity:0.99122799"
                   id="path609"
                   inkscape:connector-curvature="0" />
                <g
                   style="fill:none;fill-opacity:1;stroke:#000000;stroke-opacity:0.99122799"
                   id="g615">
                  <path
                     d="m 241.444,354.256 -0.416,41.212"
                     style="fill:none;fill-opacity:1;fill-rule:evenodd;stroke:#000000;stroke-width:5;stroke-linecap:butt;stroke-linejoin:miter;stroke-dasharray:none;stroke-opacity:0.99122799"
                     id="path589"
                     inkscape:connector-curvature="0" />
                  <path
                     d="m 254.973,358.627 -0.208,44.126"
                     style="fill:none;fill-opacity:1;fill-rule:evenodd;stroke:#000000;stroke-width:5;stroke-linecap:butt;stroke-linejoin:miter;stroke-dasharray:none;stroke-opacity:0.99122799"
                     id="path592"
                     inkscape:connector-curvature="0" />
                  <path
                     d="m 269.959,360.5 -0.416,46.208"
                     style="fill:none;fill-opacity:1;fill-rule:evenodd;stroke:#000000;stroke-width:5;stroke-linecap:butt;stroke-linejoin:miter;stroke-dasharray:none;stroke-opacity:0.99122799"
                     id="path593"
                     inkscape:connector-curvature="0" />
                  <path
                     d="m 283.489,361.541 -0.209,46.832"
                     style="fill:none;fill-opacity:1;fill-rule:evenodd;stroke:#000000;stroke-width:5;stroke-linecap:butt;stroke-linejoin:miter;stroke-dasharray:none;stroke-opacity:0.99122799"
                     id="path594"
                     inkscape:connector-curvature="0" />
                  <path
                     d="m 298.683,361.957 v 46.832"
                     style="fill:none;fill-opacity:1;fill-rule:evenodd;stroke:#000000;stroke-width:5;stroke-linecap:butt;stroke-linejoin:miter;stroke-dasharray:none;stroke-opacity:0.99122799"
                     id="path595"
                     inkscape:connector-curvature="0" />
                  <path
                     d="m 313.253,361.749 0.208,46.832"
                     style="fill:none;fill-opacity:1;fill-rule:evenodd;stroke:#000000;stroke-width:5;stroke-linecap:butt;stroke-linejoin:miter;stroke-dasharray:none;stroke-opacity:0.99122799"
                     id="path598"
                     inkscape:connector-curvature="0" />
                  <path
                     d="m 326.782,360.5 0.416,46"
                     transform="translate(-0.41626,-3.051758e-5)"
                     style="fill:none;fill-opacity:1;fill-rule:evenodd;stroke:#000000;stroke-width:5;stroke-linecap:butt;stroke-linejoin:miter;stroke-dasharray:none;stroke-opacity:0.99122799"
                     id="path599"
                     inkscape:connector-curvature="0" />
                  <path
                     d="m 341.56,358.003 0.208,44.126"
                     style="fill:none;fill-opacity:1;fill-rule:evenodd;stroke:#000000;stroke-width:5;stroke-linecap:butt;stroke-linejoin:miter;stroke-dasharray:none;stroke-opacity:0.99122799"
                     id="path604"
                     inkscape:connector-curvature="0" />
                  <path
                     d="m 355.297,352.591 0.417,41.628"
                     style="fill:none;fill-opacity:1;fill-rule:evenodd;stroke:#000000;stroke-width:5;stroke-linecap:butt;stroke-linejoin:miter;stroke-dasharray:none;stroke-opacity:0.99122799"
                     id="path606"
                     inkscape:connector-curvature="0" />
                </g>
              </g>
            </g>
          </g>
          <g
             style="font-size:12px;fill:none;fill-opacity:1;stroke:#000000;stroke-opacity:0.99122799"
             id="g675">
            <path
               d="m 171.498,235.561 c -19.136,-18.603 -32.51,-50.888 -34.366,-85.752 -2.015,-38.42 18.218,-76.5701 48.537,-98.3192 33.969,-23.9094 90.766,-30.522 126.082,-28.7375 23.921,0.0166 77.206,12.4202 96.015,26.4277 32.994,23.9901 50.688,58.04 51.914,96.85 1.813,38.983 -14.606,68.675 -34.711,87.206"
               style="fill:none;fill-opacity:1;fill-rule:evenodd;stroke:#000000;stroke-width:12.5;stroke-linecap:round;stroke-linejoin:round;stroke-dasharray:none;stroke-opacity:0.99122799"
               id="path573"
               inkscape:connector-curvature="0" />
            <path
               d="m 172.662,126.267 c -7.752,6.782 -6.774,16.977 -5.378,32.192 1.102,11.56 8.478,22.939 8.866,33.5 2.712,22.285 -3.876,44.57 -6.977,62.786 -2.132,20.928 3.877,38.95 11.628,45.926 7.751,6.88 17.756,9.729 28.268,12.936 9.551,2.498 14.504,6.842 21.728,12.228 8.606,9.137 10.659,16.694 10.465,25.996"
               style="fill:none;fill-opacity:1;fill-rule:evenodd;stroke:#000000;stroke-width:12.5;stroke-linecap:butt;stroke-linejoin:round;stroke-dasharray:none;stroke-opacity:0.99122799"
               id="path580"
               inkscape:connector-curvature="0" />
            <path
               d="m 172.662,126.267 c -7.752,6.782 -6.774,16.977 -5.378,32.192 1.102,11.56 8.478,22.939 8.866,33.5 2.712,22.285 -3.876,44.57 -6.977,62.786 -2.132,20.928 3.877,38.95 11.628,45.926 7.751,6.88 21.937,10.575 28.268,12.936 7.377,2.581 14.92,7.258 21.728,12.644 8.19,7.888 10.659,16.278 10.465,25.58"
               transform="matrix(-1,0,0,1,597.7228,-0.58139)"
               style="fill:none;fill-opacity:1;fill-rule:evenodd;stroke:#000000;stroke-width:12.5;stroke-linecap:butt;stroke-linejoin:round;stroke-dasharray:none;stroke-opacity:0.99122799"
               id="path581"
               inkscape:connector-curvature="0" />
            <path
               d="m 194.821,310.959 c 6.938,16.79 14.292,33.164 14.986,50.37 -3.191,13.876 -2.22,30.25 1.249,43.294 4.441,17.9 21.786,39.13 39.132,46.207 17.761,6.452 28.862,8.118 48.704,8.118"
               style="fill:none;fill-opacity:1;fill-rule:evenodd;stroke:#000000;stroke-width:12.5;stroke-linecap:butt;stroke-linejoin:miter;stroke-dasharray:none;stroke-opacity:0.99122799"
               id="path613"
               inkscape:connector-curvature="0" />
            <path
               d="m 194.821,310.959 c 6.938,16.79 14.292,33.164 14.986,50.37 -3.191,13.876 -2.22,30.25 1.249,43.294 4.441,17.9 21.994,38.506 39.34,45.583 17.345,7.077 28.445,8.742 48.288,8.742"
               transform="matrix(-1,0,0,1,596.7438,-3.051758e-5)"
               style="fill:none;fill-opacity:1;fill-rule:evenodd;stroke:#000000;stroke-width:12.5;stroke-linecap:butt;stroke-linejoin:miter;stroke-dasharray:none;stroke-opacity:0.99122799"
               id="path614"
               inkscape:connector-curvature="0" />
          </g>
        </g>
        <g
           style="stroke:#000000;stroke-opacity:0.99122799"
           id="g770">
          <path
             d="m 391.308,389.636 68.272,31.638 c 8.325,3.469 14.985,2.359 21.23,0.416 9.852,-2.914 17.622,-1.248 25.809,2.082 9.852,4.995 10.131,12.072 3.748,19.149 -5.828,6.799 -11.657,10.268 -18.733,17.067 -1.527,10.962 -0.556,21.092 -5.413,31.222 -6.105,8.88 -12.627,7.354 -22.895,-2.082 -10.407,-8.049 -6.661,-16.929 -21.647,-29.973 l -63.276,-32.886 v 0"
             style="fill:none;fill-opacity:1;fill-rule:evenodd;stroke:#000000;stroke-width:12.5;stroke-linecap:butt;stroke-linejoin:round;stroke-dasharray:none;stroke-opacity:0.99122799"
             id="path765"
             inkscape:connector-curvature="0" />
          <path
             d="m 204.812,389.22 c -22.757,12.072 -43.432,23.311 -69.519,33.302 -21.231,5.273 -20.398,-7.77 -46.2079,0.833 -7.3544,5.828 -7.2156,14.153 -1.2488,20.397 6.9382,6.8 11.795,11.102 17.9007,17.069 1.943,8.603 2.22,15.957 3.33,26.225 4.163,12.628 13.321,11.934 21.23,5.829 3.469,-4.302 7.771,-8.187 10.407,-12.905 3.608,-6.244 7.632,-13.321 12.489,-19.149 l 62.859,-33.303"
             style="fill:none;fill-opacity:1;fill-rule:evenodd;stroke:#000000;stroke-width:12.5;stroke-linecap:butt;stroke-linejoin:round;stroke-dasharray:none;stroke-opacity:0.99122799"
             id="path766"
             inkscape:connector-curvature="0" />
          <path
             d="m 401.299,321.365 c 25.81,-12.766 47.04,-23.035 70.352,-34.552 14.292,-11.933 10.685,-23.451 22.064,-32.054 11.239,-10.685 18.732,-8.048 22.895,-2.081 4.024,10.129 5.967,20.259 5.412,30.805 10.684,9.852 16.374,15.541 22.48,24.562 0.832,11.378 -9.159,16.095 -21.231,16.234 -15.819,2.914 -18.317,-7.077 -36.217,0 l -94.497,44.542 v 0"
             style="fill:none;fill-opacity:1;fill-rule:evenodd;stroke:#000000;stroke-width:12.5;stroke-linecap:square;stroke-linejoin:round;stroke-dasharray:none;stroke-opacity:0.99122799"
             id="path767"
             inkscape:connector-curvature="0" />
          <path
             d="m 197.22,322.353 c -26.1,-12.756 -47.784,-22.274 -73.59,-36.501 -14.031,-11.186 -9.517,-23.844 -26.4917,-34.146 -7.4571,-3.728 -12.8536,-5.396 -18.8389,4.71 -3.8267,9.028 -3.5323,18.643 -4.121,27.965 -6.6721,7.162 -14.2273,11.382 -19.722,20.311 -7.9477,12.756 4.1209,16.975 10.5968,18.545 18.4463,4.611 25.1183,-3.729 42.0928,-0.295 33.067,15.405 66.427,31.398 98.316,47.097"
             style="fill:none;fill-opacity:1;fill-rule:evenodd;stroke:#000000;stroke-width:12.5;stroke-linecap:butt;stroke-linejoin:round;stroke-dasharray:none;stroke-opacity:0.99122799"
             id="path769"
             inkscape:connector-curvature="0" />
        </g>
      </g>
    </g>
  </g>
  <g
     id="g1028"
     transform="matrix(4.6597482,0,0,2.6164404,28.58869,17.660204)">
    <g
       id="_x33__x5F_2">
      <g
         id="g970">
        <path
           id="path968"
           d="M 68.555,71.295 55.747,69.892 C 67.222,63.537 75.026,51.319 75.026,37.283 75.026,16.725 58.329,0 37.805,0 37.772,0 37.741,0.003 37.708,0.004 37.691,0.004 37.676,0 37.66,0 37.609,0 37.561,0.011 37.512,0.014 37.429,0.021 37.344,0.027 37.259,0.027 V 0.04 C 36,0.235 35.032,1.315 35.032,2.632 c 0,1.338 1.001,2.433 2.293,2.598 v 0.059 c 0.162,-0.002 0.318,-0.023 0.48,-0.023 17.654,0 31.966,14.335 31.966,32.019 0,12.083 -6.699,22.576 -16.566,28.023 l 1.268,-11.586 c 0.157,-1.445 -0.883,-2.745 -2.326,-2.904 -1.45,-0.157 -2.741,0.887 -2.898,2.332 L 47.23,71.605 c -0.076,0.691 0.126,1.389 0.562,1.933 0.437,0.544 1.071,0.892 1.764,0.969 l 18.428,2.021 c 0.097,0.01 0.193,0.016 0.289,0.016 1.322,0 2.461,-0.998 2.609,-2.346 0.158,-1.444 -0.884,-2.744 -2.327,-2.903 z m -30.853,0.018 -10e-4,-0.059 c -0.162,0.004 -0.317,0.025 -0.48,0.025 -17.655,0 -31.966,-14.336 -31.966,-32.02 0,-12.084 6.699,-22.575 16.566,-28.024 l -1.267,11.588 c -0.158,1.443 0.882,2.743 2.326,2.902 1.449,0.159 2.74,-0.885 2.897,-2.33 L 27.796,4.937 C 27.872,4.244 27.67,3.548 27.234,3.002 26.798,2.458 26.164,2.11 25.471,2.034 L 7.042,0.016 C 6.944,0.004 6.849,0 6.753,0 5.431,0 4.292,0.997 4.145,2.346 3.987,3.789 5.029,5.09 6.471,5.247 L 19.28,6.652 C 7.805,13.007 0,25.224 0,39.261 c 0,20.558 16.698,37.283 37.221,37.283 0.032,0 0.065,-0.005 0.097,-0.006 0.017,0.001 0.032,0.006 0.049,0.006 0.05,0 0.098,-0.013 0.147,-0.016 0.084,-0.007 0.168,-0.011 0.253,-0.013 v -0.013 c 1.259,-0.194 2.227,-1.275 2.227,-2.592 0,-1.337 -1.001,-2.43 -2.292,-2.597 z"
           inkscape:connector-curvature="0" />
      </g>
    </g>
    <g
       id="g973" />
    <g
       id="g975" />
    <g
       id="g977" />
    <g
       id="g979" />
    <g
       id="g981" />
    <g
       id="g983" />
    <g
       id="g985" />
    <g
       id="g987" />
    <g
       id="g989" />
    <g
       id="g991" />
    <g
       id="g993" />
    <g
       id="g995" />
    <g
       id="g997" />
    <g
       id="g999" />
    <g
       id="g1001" />
  </g>
  <g
     style="fill:#0000fd;fill-opacity:1"
     id="g3"
     transform="matrix(4.6020645,0,0,3.7593682,111.61806,61.973642)">
    <circle
       style="fill:#0000fd;fill-opacity:1"
       id="circle5"
       r="0.86199999"
       cy="7.152"
       cx="15.729" />
    <circle
       style="fill:#0000fd;fill-opacity:1"
       id="circle7"
       r="0.86199999"
       cy="24.330999"
       cx="15.729" />
    <circle
       style="fill:#0000fd;fill-opacity:1"
       id="circle9"
       r="0.86199999"
       cy="15.741"
       cx="24.318001" />
    <circle
       style="fill:#0000fd;fill-opacity:1"
       id="circle11"
       r="0.86199999"
       cy="15.741"
       cx="7.138" />
    <circle
       style="fill:#0000fd;fill-opacity:1"
       id="circle13"
       r="0.86000001"
       cy="9.6669998"
       cx="21.802999" />
    <circle
       style="fill:#0000fd;fill-opacity:1"
       id="circle15"
       r="0.86000001"
       cy="21.815001"
       cx="9.6549997" />
    <circle
       style="fill:#0000fd;fill-opacity:1"
       id="circle17"
       r="0.861"
       cy="21.816"
       cx="21.802" />
    <path
       style="fill:#0000fd;fill-opacity:1"
       id="path19"
       d="m 10.264,10.277 c 0.338,-0.337 0.337,-0.883 0,-1.218 -0.337,-0.337 -0.881,-0.337 -1.22,0 -0.334,0.335 -0.334,0.881 0.003,1.217 0.336,0.337 0.88,0.338 1.217,10e-4 z"
       inkscape:connector-curvature="0" />
    <path
       style="fill:#0000fd;fill-opacity:1"
       id="path21"
       d="m 3.471,25.072 -2.699,4.084 c -0.557,0.841 -0.326,1.973 0.516,2.527 0.309,0.205 0.658,0.303 1.005,0.303 0.59,0 1.171,-0.288 1.521,-0.819 L 6.071,27.753 C 5.1,26.969 4.226,26.068 3.471,25.072 Z"
       inkscape:connector-curvature="0" />
    <path
       style="fill:#0000fd;fill-opacity:1"
       id="path23"
       d="m 30.674,29.157 -2.693,-4.075 c -0.756,0.995 -1.631,1.896 -2.602,2.68 l 2.252,3.407 c 0.35,0.531 0.932,0.819 1.521,0.819 0.347,0 0.695,-0.098 1.006,-0.303 0.841,-0.555 1.071,-1.687 0.516,-2.528 z"
       inkscape:connector-curvature="0" />
    <path
       style="fill:#0000fd;fill-opacity:1"
       id="path25"
       d="M 1.18,10.802 C 2.765,6.199 6.474,2.577 11.133,1.116 10.076,0.51 8.855,0.161 7.552,0.161 6.474,0.161 5.45,0.399 4.532,0.823 4.117,0.495 3.595,0.297 3.024,0.297 c -1.345,0 -2.433,1.089 -2.433,2.432 0,0.544 0.181,1.045 0.482,1.45 -0.48,0.968 -0.752,2.058 -0.752,3.212 0.001,1.235 0.313,2.395 0.859,3.411 z"
       inkscape:connector-curvature="0" />
    <path
       style="fill:#0000fd;fill-opacity:1"
       id="path27"
       d="m 26.547,4.872 c 1.443,1.43 2.605,3.143 3.396,5.048 0.295,-0.787 0.459,-1.638 0.459,-2.528 0,-1.154 -0.271,-2.245 -0.752,-3.212 0.301,-0.405 0.479,-0.906 0.479,-1.45 0,-1.343 -1.089,-2.432 -2.432,-2.432 -0.57,0 -1.095,0.197 -1.509,0.525 -0.92,-0.423 -1.94,-0.661 -3.021,-0.661 -1.2,0 -2.33,0.295 -3.325,0.813 2.17,0.604 4.148,1.672 5.82,3.092 0.309,0.256 0.602,0.525 0.885,0.805 z"
       inkscape:connector-curvature="0" />
    <path
       style="fill:#0000fd;fill-opacity:1"
       id="path29"
       d="M 29.759,15.795 C 29.759,8.059 23.465,1.766 15.73,1.766 7.993,1.766 1.7,8.059 1.7,15.795 c 0,7.736 6.293,14.029 14.03,14.029 7.735,0 14.029,-6.293 14.029,-14.029 z m -14.03,10.38 c -5.725,0 -10.382,-4.657 -10.382,-10.38 0,-5.724 4.657,-10.381 10.382,-10.381 5.724,0 10.38,4.657 10.38,10.381 0,5.723 -4.656,10.38 -10.38,10.38 z"
       inkscape:connector-curvature="0" />
    <path
       style="fill:#0000fd;fill-opacity:1"
       id="path31"
       d="m 21.613,14.806 h -3.746 c -0.199,-0.401 -0.465,-0.799 -0.865,-1.04 v -3.237 c 0,-0.671 -0.597,-1.216 -1.269,-1.216 -0.672,0 -1.269,0.544 -1.269,1.216 v 3.237 c -0.669,0.414 -1.129,1.167 -1.129,2.029 0,1.307 1.074,2.364 2.381,2.364 0.772,0 1.47,-0.415 1.902,-0.949 h 3.995 c 0.673,0 1.217,-0.53 1.217,-1.202 0.001,-0.672 -0.543,-1.202 -1.217,-1.202 z"
       inkscape:connector-curvature="0" />
  </g>
</svg>
