<?xml version="1.0" encoding="UTF-8" standalone="no"?>
<!-- Created with Inkscape (http://www.inkscape.org/) -->

<svg
   xmlns:dc="http://purl.org/dc/elements/1.1/"
   xmlns:cc="http://creativecommons.org/ns#"
   xmlns:rdf="http://www.w3.org/1999/02/22-rdf-syntax-ns#"
   xmlns:svg="http://www.w3.org/2000/svg"
   xmlns="http://www.w3.org/2000/svg"
   xmlns:xlink="http://www.w3.org/1999/xlink"
   xmlns:sodipodi="http://sodipodi.sourceforge.net/DTD/sodipodi-0.dtd"
   xmlns:inkscape="http://www.inkscape.org/namespaces/inkscape"
   width="98.11319mm"
   height="102.18146mm"
   viewBox="0 0 98.11319 102.18146"
   version="1.1"
   id="svg8"
   inkscape:version="0.92.2 5c3e80d, 2017-08-06"
   sodipodi:docname="tsmalladjustments.svg">
  <defs
     id="defs2">
    <filter
       id="imagebot_18"
       style="color-interpolation-filters:sRGB">
      <feGaussianBlur
         id="imagebot_62"
         stdDeviation="1.04638" />
    </filter>
    <filter
       id="imagebot_23"
       style="color-interpolation-filters:sRGB">
      <feGaussianBlur
         id="imagebot_61"
         stdDeviation="2.48714" />
    </filter>
    <linearGradient
       gradientUnits="userSpaceOnUse"
       gradientTransform="scale(1.349503,0.74101356)"
       id="imagebot_7"
       y2="732.98401"
       xlink:href="#imagebot_58"
       x2="347.40891"
       y1="732.98401"
       x1="252.29716" />
    <linearGradient
       id="imagebot_58">
      <stop
         id="imagebot_60"
         offset="0"
         stop-color="#ffffff" />
      <stop
         id="imagebot_59"
         offset="1"
         stop-opacity="0"
         stop-color="#ffffff" />
    </linearGradient>
    <linearGradient
       gradientUnits="userSpaceOnUse"
       gradientTransform="scale(1.30339,0.76723004)"
       id="imagebot_5"
       y2="700.91345"
       xlink:href="#imagebot_58"
       y1="700.91345"
       x2="364.68994"
       x1="268.79285" />
    <radialGradient
       id="imagebot_46"
       gradientUnits="userSpaceOnUse"
       cy="332.35999"
       cx="-485.70999"
       gradientTransform="matrix(0.14589687,-5.0927801e-4,5.0820268e-4,0.14558881,133.14385,75.635002)"
       r="262.85999">
      <stop
         id="imagebot_57"
         stop-color="#f0f7f9"
         offset="0" />
      <stop
         id="imagebot_56"
         stop-color="#ccc"
         offset="1" />
    </radialGradient>
    <linearGradient
       gradientUnits="userSpaceOnUse"
       id="imagebot_20"
       y2="473.73102"
       x2="636.49335"
       y1="747.19794"
       x1="358.16431"
       gradientTransform="matrix(0.23162278,-8.0851897e-4,8.0851897e-4,0.23162278,-51.397035,-20.619081)">
      <stop
         id="imagebot_55"
         offset="0" />
      <stop
         id="imagebot_54"
         stop-color="#fff"
         offset="1" />
    </linearGradient>
    <radialGradient
       id="imagebot_15"
       gradientUnits="userSpaceOnUse"
       cy="353"
       cx="-257.14001"
       gradientTransform="matrix(1.6357,-0.014127,0.0086362,0.99996,160.42,-3.6194)"
       r="52.319">
      <stop
         id="imagebot_53"
         stop-color="#fff"
         offset="0" />
      <stop
         id="imagebot_52"
         stop-color="#fff"
         stop-opacity="0"
         offset="1" />
    </radialGradient>
    <radialGradient
       id="imagebot_13"
       gradientUnits="userSpaceOnUse"
       cy="219.21001"
       cx="-260.01001"
       gradientTransform="matrix(-0.99218,0.12477,-0.075183,-0.59784,-502.2,415.88)"
       r="37.015999">
      <stop
         id="imagebot_51"
         stop-color="#fff"
         offset="0" />
      <stop
         id="imagebot_50"
         stop-color="#fff"
         stop-opacity="0"
         offset="1" />
    </radialGradient>
    <filter
       id="imagebot_18-3"
       style="color-interpolation-filters:sRGB">
      <feGaussianBlur
         id="imagebot_62-6"
         stdDeviation="1.04638" />
    </filter>
    <filter
       id="imagebot_23-7"
       style="color-interpolation-filters:sRGB">
      <feGaussianBlur
         id="imagebot_61-5"
         stdDeviation="2.48714" />
    </filter>
    <radialGradient
       id="imagebot_46-6"
       gradientUnits="userSpaceOnUse"
       cy="332.35999"
       cx="-485.70999"
       gradientTransform="matrix(0.14589687,-5.0927801e-4,5.0820268e-4,0.14558881,213.32742,75.466285)"
       r="262.85999">
      <stop
         id="imagebot_57-2"
         stop-color="#f0f7f9"
         offset="0" />
      <stop
         id="imagebot_56-9"
         stop-color="#ccc"
         offset="1" />
    </radialGradient>
    <linearGradient
       gradientUnits="userSpaceOnUse"
       id="imagebot_20-1"
       y2="473.73102"
       x2="636.49335"
       y1="747.19794"
       x1="358.16431"
       gradientTransform="matrix(0.23162278,-8.0851897e-4,8.0851897e-4,0.23162278,28.786531,-20.787798)">
      <stop
         id="imagebot_55-2"
         offset="0" />
      <stop
         id="imagebot_54-7"
         stop-color="#fff"
         offset="1" />
    </linearGradient>
    <radialGradient
       id="imagebot_15-0"
       gradientUnits="userSpaceOnUse"
       cy="353"
       cx="-257.14001"
       gradientTransform="matrix(1.6357,-0.014127,0.0086362,0.99996,160.42,-3.6194)"
       r="52.319">
      <stop
         id="imagebot_53-9"
         stop-color="#fff"
         offset="0" />
      <stop
         id="imagebot_52-3"
         stop-color="#fff"
         stop-opacity="0"
         offset="1" />
    </radialGradient>
    <radialGradient
       id="imagebot_13-6"
       gradientUnits="userSpaceOnUse"
       cy="219.21001"
       cx="-260.01001"
       gradientTransform="matrix(-0.99218,0.12477,-0.075183,-0.59784,-502.2,415.88)"
       r="37.015999">
      <stop
         id="imagebot_51-0"
         stop-color="#fff"
         offset="0" />
      <stop
         id="imagebot_50-6"
         stop-color="#fff"
         stop-opacity="0"
         offset="1" />
    </radialGradient>
  </defs>
  <sodipodi:namedview
     id="base"
     pagecolor="#ffffff"
     bordercolor="#666666"
     borderopacity="1.0"
     inkscape:pageopacity="0.0"
     inkscape:pageshadow="2"
     inkscape:zoom="1.5208438"
     inkscape:cx="275.82103"
     inkscape:cy="209.41329"
     inkscape:document-units="mm"
     inkscape:current-layer="layer1"
     showgrid="false"
     fit-margin-top="0"
     fit-margin-left="0"
     fit-margin-right="0"
     fit-margin-bottom="0"
     inkscape:window-width="2167"
     inkscape:window-height="1031"
     inkscape:window-x="821"
     inkscape:window-y="504"
     inkscape:window-maximized="0" />
  <metadata
     id="metadata5">
    <rdf:RDF>
      <cc:Work
         rdf:about="">
        <dc:format>image/svg+xml</dc:format>
        <dc:type
           rdf:resource="http://purl.org/dc/dcmitype/StillImage" />
        <dc:title></dc:title>
      </cc:Work>
    </rdf:RDF>
  </metadata>
  <g
     inkscape:label="Layer 1"
     inkscape:groupmode="layer"
     id="layer1"
     transform="translate(-9.0623617,-74.223717)">
    <g
       id="g979">
      <rect
         style="opacity:0.45976999;fill:none;stroke-width:0.19372572"
         x="9.0623617"
         y="74.392433"
         width="53.049793"
         height="101.09464"
         ry="16.581436"
         id="imagebot_48" />
      <rect
         style="opacity:0.45976999;fill:none;stroke-width:0.19372572"
         x="52.049152"
         y="74.223717"
         width="53.049793"
         height="101.09464"
         ry="16.581436"
         id="imagebot_48-1" />
      <g
         transform="matrix(0.52845329,0,0,1,5.6736259,0)"
         id="g5292">
        <rect
           id="imagebot_49"
           transform="rotate(90)"
           ry="16.404167"
           height="102.65833"
           width="98.954163"
           y="-111.89002"
           x="77.451012"
           style="fill:none;stroke-width:0.26458332" />
        <path
           inkscape:connector-curvature="0"
           style="fill:url(#imagebot_46);fill-rule:evenodd;stroke-width:0.23162419"
           id="imagebot_45"
           d="m 100.79986,124.13449 a 38.268949,38.35002 89.8 1 1 -76.699566,0.26773 38.268949,38.35002 89.8 1 1 76.699566,-0.26773 z" />
        <path
           style="fill:#0012fd;fill-opacity:1;fill-rule:evenodd;stroke-width:0.23162419"
           inkscape:connector-curvature="0"
           id="imagebot_44"
           d="m 61.227336,89.169767 0.282526,4.69476 1.597039,-0.0056 0.249743,-4.696618 z m -2.149646,0.152965 -0.885624,0.09875 0.581944,3.47907 0.486465,-0.0515 z m 6.429848,-0.02245 -0.158163,3.527515 0.486582,0.04833 0.557641,-3.483048 -0.886059,-0.09257 z m -10.050584,0.563421 -0.872811,0.186031 0.943477,3.403225 0.477939,-0.105668 -0.548605,-3.483356 z m 13.675008,-0.04773 -0.524489,3.49127 0.478649,0.09816 0.915774,-3.405314 z m -17.223562,0.962535 -0.843307,0.27742 1.288188,3.285281 0.469426,-0.155438 z m 20.774247,-0.07252 -0.886546,3.417719 0.470486,0.148219 1.265453,-3.294195 -0.849392,-0.271512 z m -24.204785,1.353104 -0.80988,0.364626 1.624663,3.130308 0.448651,-0.201227 z m 27.644179,-0.0965 -1.236225,3.306602 0.449814,0.198091 1.602755,-3.145743 z m -30.384336,1.416136 -1.843011,1.071217 2.59239,3.925343 1.382316,-0.80347 z m 33.138271,-0.115674 -2.106538,4.207883 1.387892,0.7938 2.564922,-3.943345 z m -36.766836,2.395029 -0.717837,0.522505 2.243077,2.724657 0.394146,-0.28836 z m 40.404278,-0.141038 -1.89867,2.976067 0.400319,0.285587 2.223769,-2.74025 z m -43.270805,2.417732 -0.659206,0.597115 2.512509,2.474258 0.364831,-0.32578 -2.218133,-2.745362 z m 46.155486,-0.156944 -2.198927,2.756837 0.362942,0.32741 2.499113,-2.491748 -0.663359,-0.592499 z m -48.768527,2.723907 -0.596668,0.66337 2.761009,2.19891 0.327395,-0.36711 z m 51.397095,-0.17941 -2.474243,2.51644 0.329705,0.36088 2.741422,-2.21812 z m -53.728973,3.00319 -0.52165,0.72148 2.97213,1.89868 0.289756,-0.40033 z m 56.080522,-0.19159 -2.724672,2.23891 0.288375,0.39831 2.96274,-1.9194 -0.526675,-0.71782 z m -57.797357,2.70562 -1.058324,1.85045 4.207869,2.10237 0.793801,-1.38789 z m 59.529371,-0.20779 -3.925344,2.59239 0.803239,1.38231 4.193089,-2.13169 z m -61.528991,3.9912 -0.358949,0.81657 3.302447,1.24041 0.197859,-0.45004 -3.141589,-1.60694 z m 63.554989,-0.21768 -3.130293,1.62883 0.201213,0.44448 3.293721,-1.25926 -0.364872,-0.81405 z m -64.898107,3.62448 -0.271511,0.84939 3.41355,0.88656 0.152172,-0.46633 z m 66.264976,-0.22714 -3.281097,1.29258 0.151254,0.46527 3.407278,-0.91037 z m -67.248642,3.75754 -0.179948,0.86992 3.487101,0.5245 0.102329,-0.47866 -3.409714,-0.91576 z m 68.252299,-0.23408 -3.403238,0.93954 0.105668,0.47794 3.483355,-0.54884 -0.186017,-0.86864 z m -68.860447,3.84632 -0.08841,0.88211 3.523346,0.15817 0.05227,-0.48682 z m 69.491481,-0.2384 -3.483253,0.57778 0.05567,0.48646 3.522156,-0.18278 z m -69.719454,3.27534 0.0074,2.12954 4.69476,-0.28252 -0.0056,-1.59727 z m 69.966293,-0.24423 -4.694759,0.28276 0.0056,1.59704 4.696617,0.24974 z m -66.28306,4.33624 -3.522155,0.18301 0.09458,0.8854 3.483254,-0.57779 -0.05591,-0.49061 z m 62.630814,-0.21445 -0.05249,0.491 3.487202,0.55346 0.0884,-0.88605 -3.523347,-0.15841 z m -62.130748,3.46195 -3.483354,0.54884 0.18603,0.87258 3.403239,-0.93931 -0.105683,-0.48211 z m 61.648734,-0.21102 -0.102315,0.48283 3.409714,0.91553 0.179934,-0.87386 -3.487102,-0.5245 z m -60.808389,3.39827 -3.407277,0.91037 0.27742,0.84331 3.281112,-1.28841 -0.151486,-0.46527 z m 59.994947,-0.20525 -0.152403,0.46633 3.294196,1.26545 0.271758,-0.84522 z m -58.826075,3.28295 -3.293707,1.26343 0.364626,0.80988 3.130308,-1.62466 z m 57.681035,-0.19718 -0.19809,0.45005 3.141574,1.60277 0.358963,-0.81241 z m -55.462461,2.07348 -4.19309,2.13169 1.071202,1.83884 3.925112,-2.59239 z m 53.257026,-0.18591 -0.793815,1.38373 3.943345,2.56492 1.058339,-1.84628 -4.207869,-2.10214 z m -52.210589,4.02098 -2.96274,1.9194 0.526442,0.71783 2.724658,-2.24308 z m 51.195598,-0.17453 -0.289771,0.39616 2.740251,2.224 0.521418,-0.72148 -2.972129,-1.89845 z m -49.134434,2.74186 -2.741421,2.21812 0.596884,0.65921 2.474256,-2.51251 z m 47.08661,-0.1602 -0.327395,0.36735 2.491737,2.49517 0.596668,-0.66337 -2.761009,-2.19892 z m -44.769143,2.49778 -2.499098,2.49592 0.66336,0.5925 2.19868,-2.76101 -0.362941,-0.32718 z m 42.468052,-0.14407 -0.364817,0.32995 2.217902,2.74559 0.659193,-0.60128 -2.51251,-2.47426 z m -39.917516,2.23138 -2.224001,2.74025 0.725637,0.51747 1.898451,-2.97213 z m 37.379284,-0.13048 -0.394132,0.29253 1.919386,2.9588 0.717592,-0.52644 -2.242845,-2.72466 z m -34.521546,0.64467 -2.564937,3.93918 1.850213,1.05832 2.102384,-4.20393 -1.387661,-0.7938 z m 31.669783,-0.11055 -1.382317,0.80324 2.13585,4.18914 1.838611,-1.07097 -2.592375,-3.92117 z m -28.850399,2.90801 -1.60277,3.14158 0.816344,0.35895 1.236239,-3.30244 z m 26.043665,-0.0909 -0.448419,0.20123 1.263216,3.29788 0.80988,-0.36463 z m -22.974391,1.28627 -1.265468,3.29003 0.849393,0.27151 0.88656,-3.41355 z m 19.913537,-0.0695 -0.46944,0.15127 0.914321,3.41143 0.843307,-0.27742 z m -10.749696,0.47831 -0.249744,4.69662 2.129309,-0.007 -0.282526,-4.69475 z m -5.983376,0.45773 -0.915542,3.40531 0.869702,0.18412 0.524489,-3.49127 z m 13.558271,-0.0473 -0.477953,0.1015 0.548619,3.48753 0.872796,-0.1902 z m -10.308338,0.5766 -0.557641,3.48305 0.886045,0.0884 0.158409,-3.52335 z m 7.061947,-0.0247 -0.486465,0.0517 0.182771,3.52216 0.885638,-0.0946 -0.581943,-3.47907 z" />
        <g
           id="imagebot_38"
           transform="matrix(0.11938314,-0.19848691,0.19848691,0.11938314,-193.39602,226.90215)"
           style="fill:#0700e6;fill-opacity:1">
          <g
             style="fill:#0700e6;fill-opacity:1;fill-rule:evenodd"
             id="imagebot_42"
             transform="matrix(0.5746,0,0,0.5746,564.71,371.42)">
            <path
               inkscape:connector-curvature="0"
               id="imagebot_43"
               d="m 825.74,501.88 -148.77,87.091 2.235,3.357 -27.309,12.971 11.043,16.586 22.501,-20.193 2.573,3.864 137.73,-103.68 z"
               style="fill:#0700e6;fill-opacity:1" />
          </g>
          <g
             style="opacity:0.66176997;fill:#0700e6;fill-opacity:1;fill-rule:evenodd;filter:url(#imagebot_23)"
             id="imagebot_39"
             transform="matrix(0.5746,0,0,0.5746,686.9,306.95)">
            <g
               id="imagebot_40"
               style="fill:#0700e6;fill-opacity:1">
              <path
                 inkscape:connector-curvature="0"
                 id="imagebot_41"
                 d="m 615.1,616.93 -148.77,87.091 2.235,3.357 -27.309,12.971 11.043,16.586 22.501,-20.193 2.573,3.864 137.73,-103.68 z"
                 style="fill:#0700e6;fill-opacity:1" />
            </g>
          </g>
        </g>
        <g
           id="imagebot_25"
           transform="matrix(0.29089505,-0.00101542,0.00101542,0.29089505,-62.596345,-38.330384)">
          <path
             inkscape:connector-curvature="0"
             id="imagebot_37"
             d="m 336.17,567.46 c -2.552,0 -4.389,-0.306 -5.512,-0.918 -1.123,-0.611 -1.625,-1.584 -1.506,-2.917 v -0.297 h 3.609 v 0.297 c 0,0.738 0.289,1.299 0.867,1.682 0.578,0.383 1.426,0.574 2.542,0.574 1.874,0 3.05,-0.328 3.529,-0.984 0.425,-0.588 0.658,-1.907 0.698,-3.958 -1.609,0.69 -3.31,1.032 -5.104,1.025 -2.26,0 -3.871,-0.33 -4.835,-0.989 -0.963,-0.66 -1.445,-1.762 -1.445,-3.307 v -0.554 c 0,-1.497 0.608,-2.618 1.824,-3.363 1.216,-0.745 3.047,-1.117 5.492,-1.117 2.991,0 5.008,0.41 6.051,1.23 1.044,0.82 1.559,2.41 1.545,4.768 v 1.733 c -0.013,2.789 -0.551,4.668 -1.614,5.639 -1.051,0.971 -3.097,1.456 -6.141,1.456 z m 4.107,-10.387 c 0,-1.087 -0.266,-1.827 -0.798,-2.22 -0.531,-0.393 -1.535,-0.589 -3.01,-0.589 -1.369,0 -2.346,0.215 -2.931,0.646 -0.584,0.43 -0.877,1.151 -0.877,2.163 v 0.554 c 0,0.957 0.299,1.647 0.897,2.071 0.598,0.424 1.569,0.636 2.911,0.636 1.249,0 2.196,-0.231 2.841,-0.692 0.645,-0.462 0.967,-1.133 0.967,-2.015 z" />
          <path
             inkscape:connector-curvature="0"
             id="imagebot_36"
             transform="scale(1.3944,0.71715)"
             d="m 374.7,775.58 c 0,-1.001 -0.195,-1.713 -0.586,-2.137 -0.391,-0.425 -1.049,-0.637 -1.973,-0.637 -0.839,0 -1.475,0.26 -1.909,0.78 -0.434,0.519 -0.636,1.255 -0.608,2.208 v 0.601 h -2.616 v -0.601 c -0.105,-1.658 0.288,-2.938 1.18,-3.838 0.891,-0.901 2.213,-1.351 3.967,-1.351 1.687,0 2.969,0.383 3.846,1.15 0.877,0.768 1.315,1.89 1.315,3.367 v 0.587 c 0,1.715 -0.386,2.926 -1.158,3.631 -0.438,0.41 -1.067,0.696 -1.887,0.858 0.887,0.162 1.539,0.443 1.959,0.844 0.724,0.676 1.086,1.992 1.086,3.946 v 1.115 c 0,1.725 -0.459,3.019 -1.379,3.882 -0.92,0.862 -2.305,1.293 -4.154,1.293 -1.687,0 -2.971,-0.467 -3.853,-1.401 -0.881,-0.934 -1.294,-2.263 -1.236,-3.989 v -0.6 h 2.587 v 0.6 c -0.019,1.077 0.174,1.876 0.579,2.395 0.406,0.52 1.032,0.779 1.881,0.779 1.019,0 1.772,-0.274 2.259,-0.822 0.486,-0.548 0.729,-1.389 0.729,-2.523 v -1.115 c 0,-1.011 -0.243,-1.8 -0.729,-2.367 -0.487,-0.567 -1.163,-0.85 -2.031,-0.85 h -0.772 v -2.317 h 0.272 c 1.125,0 1.944,-0.231 2.459,-0.693 0.515,-0.462 0.772,-1.199 0.772,-2.209 z" />
          <path
             inkscape:connector-curvature="0"
             id="imagebot_35"
             d="m 432.6,459.87 c -2.525,0 -4.368,0.297 -5.551,0.898 -1.183,0.602 -1.702,1.502 -1.556,2.712 v 0.433 h 3.642 v -0.433 c -0.04,-0.773 0.201,-1.3 0.706,-1.605 0.505,-0.304 1.417,-0.465 2.759,-0.465 1.037,0 1.881,0.174 2.519,0.529 0.638,0.356 0.962,0.84 0.962,1.428 0,1.046 -0.795,2.252 -2.39,3.626 -1.595,1.374 -4.433,3.271 -8.487,5.711 v 1.765 h 14.775 v -1.572 h -11.182 c 4.027,-2.468 6.817,-4.349 8.358,-5.647 1.715,-1.456 2.567,-2.767 2.567,-3.915 0,-1.135 -0.603,-1.995 -1.813,-2.583 -1.209,-0.594 -2.984,-0.882 -5.31,-0.882 z m -12.05,0.15 c -0.851,0.437 -1.638,0.776 -2.342,1.043 -0.691,0.26 -1.568,0.547 -2.631,0.834 v 1.733 c 1.422,-0.376 2.596,-0.75 3.513,-1.091 l 0.722,-0.273 v 12.209 h 3.642 V 460.02 Z" />
          <path
             inkscape:connector-curvature="0"
             id="imagebot_34"
             d="m 428.05,641.81 c 2.552,0 4.389,0.306 5.512,0.918 1.123,0.612 1.625,1.584 1.506,2.917 v 0.297 h -3.609 v -0.297 c 0,-0.738 -0.289,-1.299 -0.867,-1.682 -0.578,-0.383 -1.426,-0.574 -2.542,-0.574 -1.701,0 -2.811,0.369 -3.329,1.107 -0.452,0.636 -0.698,1.887 -0.738,3.753 1.608,-0.629 3.363,-0.943 5.263,-0.943 2.14,0 3.668,0.33 4.586,0.989 0.917,0.66 1.375,1.762 1.375,3.307 v 0.554 c 0,1.497 -0.621,2.618 -1.864,3.363 -1.243,0.745 -3.107,1.117 -5.592,1.117 -2.578,0 -4.462,-0.376 -5.652,-1.128 -1.19,-0.751 -1.784,-1.941 -1.784,-3.568 v -1.732 c 0.013,-3.473 0.511,-5.742 1.495,-6.809 0.97,-1.059 3.05,-1.589 6.24,-1.589 z m -4.087,10.387 c 0,1.087 0.266,1.827 0.797,2.22 0.532,0.393 1.529,0.589 2.991,0.589 1.369,0 2.346,-0.215 2.931,-0.646 0.584,-0.43 0.877,-1.151 0.877,-2.163 v -0.554 c 0,-0.957 -0.299,-1.647 -0.897,-2.071 -0.598,-0.424 -1.569,-0.636 -2.911,-0.636 -1.236,0 -2.177,0.231 -2.821,0.692 -0.645,0.462 -0.967,1.133 -0.967,2.015 z" />
          <path
             inkscape:connector-curvature="0"
             id="imagebot_33"
             d="m 376.46,472.72 c -0.851,0.438 -1.638,0.792 -2.342,1.059 -0.691,0.26 -1.568,0.531 -2.631,0.818 v 1.733 c 1.422,-0.376 2.596,-0.734 3.513,-1.075 l 0.722,-0.273 v 12.209 h 3.642 V 472.72 Z m 12.241,0 c -0.851,0.438 -1.622,0.792 -2.326,1.059 -0.691,0.26 -1.568,0.531 -2.631,0.818 v 1.733 c 1.422,-0.376 2.58,-0.734 3.497,-1.075 l 0.722,-0.273 v 12.209 h 3.658 V 472.72 Z" />
          <path
             inkscape:connector-curvature="0"
             id="imagebot_32"
             d="m 355.72,506.09 c -2.525,0 -4.383,0.314 -5.599,0.947 -1.216,0.632 -1.829,1.607 -1.829,2.919 v 6.819 c 0,1.326 0.636,2.346 1.925,3.064 1.289,0.717 3.124,1.075 5.503,1.075 2.432,0 4.297,-0.355 5.567,-1.059 1.269,-0.704 1.893,-1.727 1.893,-3.08 v -6.819 c 0,-1.367 -0.579,-2.363 -1.749,-2.967 -1.169,-0.605 -3.079,-0.899 -5.711,-0.899 z m -11.872,0.144 c -0.851,0.438 -1.622,0.793 -2.326,1.059 -0.691,0.26 -1.568,0.531 -2.631,0.818 v 1.733 c 1.422,-0.376 2.596,-0.733 3.513,-1.075 l 0.706,-0.289 v 12.225 h 3.658 v -14.471 z m 11.872,1.444 c 1.342,0 2.322,0.174 2.92,0.53 0.598,0.355 0.898,0.942 0.898,1.748 v 6.819 c 0,0.82 -0.318,1.449 -0.962,1.877 -0.645,0.427 -1.607,0.625 -2.856,0.625 -1.289,0 -2.238,-0.199 -2.856,-0.609 -0.618,-0.41 -0.93,-1.039 -0.93,-1.893 v -6.819 c 0,-0.847 0.292,-1.445 0.85,-1.78 0.558,-0.335 1.527,-0.498 2.936,-0.498 z" />
          <path
             inkscape:connector-curvature="0"
             id="imagebot_31"
             transform="scale(1.3944,0.71715)"
             d="m 253.42,845.81 c 0.877,0.191 1.525,0.51 1.944,0.958 0.725,0.772 1.087,2.264 1.087,4.475 v -0.429 c 0,1.83 -0.469,3.262 -1.408,4.296 -0.939,1.035 -2.243,1.552 -3.911,1.552 -1.801,0 -3.135,-0.477 -4.003,-1.43 -0.867,-0.953 -1.301,-2.426 -1.301,-4.418 v 0.429 c 0,-2.068 0.4,-3.527 1.201,-4.375 0.496,-0.524 1.211,-0.882 2.145,-1.072 -0.763,-0.21 -1.373,-0.534 -1.83,-0.972 -0.801,-0.782 -1.201,-2.021 -1.201,-3.718 v 0.401 c 0,-1.764 0.436,-3.124 1.308,-4.082 0.872,-0.958 2.113,-1.437 3.724,-1.437 1.754,0 3.034,0.441 3.839,1.322 0.805,0.882 1.208,2.281 1.208,4.197 v -0.401 c 0,1.697 -0.367,2.941 -1.101,3.732 -0.429,0.457 -0.996,0.782 -1.701,0.972 z m -2.245,-1.13 c 0.83,0 1.442,-0.285 1.837,-0.857 0.396,-0.572 0.594,-1.454 0.594,-2.645 v 0.4 c 0,-1.201 -0.191,-2.066 -0.572,-2.595 -0.381,-0.529 -1.001,-0.793 -1.859,-0.794 -0.8,0.001 -1.403,0.284 -1.808,0.851 -0.405,0.567 -0.608,1.413 -0.608,2.538 v -0.4 c 0,1.191 0.2,2.073 0.601,2.645 0.39,0.572 0.996,0.857 1.815,0.857 z m -0.043,2.26 c -0.972,0 -1.663,0.297 -2.073,0.893 -0.41,0.596 -0.614,1.589 -0.614,2.981 v -0.429 c 0,1.544 0.188,2.598 0.564,3.16 0.377,0.562 1.084,0.843 2.123,0.843 0.973,0 1.666,-0.307 2.081,-0.922 0.414,-0.615 0.622,-1.642 0.622,-3.081 v 0.429 c 0,-1.496 -0.191,-2.516 -0.572,-3.06 -0.372,-0.543 -1.082,-0.814 -2.13,-0.814 z" />
          <path
             inkscape:connector-curvature="0"
             id="imagebot_30"
             transform="scale(1.3944,0.71715)"
             d="m 270.41,899.39 6.748,-17.972 h -7.749 v -2.202 h 10.08 v 2.202 l -5.976,17.972 z" />
          <path
             inkscape:connector-curvature="0"
             id="imagebot_29"
             transform="scale(1.3944,0.71715)"
             d="m 344.76,893.68 c 0,2.278 -0.384,3.882 -1.151,4.811 -0.767,0.929 -2.09,1.394 -3.967,1.394 -1.859,0 -3.153,-0.338 -3.882,-1.015 -0.729,-0.677 -1.137,-1.911 -1.222,-3.703 v -0.6 h 2.587 v 0.6 c 0.057,0.848 0.265,1.47 0.622,1.866 0.358,0.395 0.899,0.593 1.623,0.593 1.106,0 1.849,-0.293 2.23,-0.879 0.382,-0.586 0.572,-1.728 0.572,-3.424 v -1.344 c 0,-1.268 -0.174,-2.152 -0.522,-2.653 -0.347,-0.5 -0.965,-0.75 -1.851,-0.75 -0.848,0 -1.48,0.226 -1.894,0.679 -0.415,0.453 -0.613,1.132 -0.594,2.037 h -2.673 l 0.185,-11.881 h 9.437 v 2.274 h -7.049 l -0.1,6.419 c 0.448,-0.448 0.82,-0.781 1.115,-1.001 0.668,-0.486 1.483,-0.729 2.445,-0.729 1.525,0 2.588,0.436 3.188,1.308 0.601,0.873 0.901,2.424 0.901,4.654 z" />
          <path
             inkscape:connector-curvature="0"
             id="imagebot_28"
             transform="scale(1.3944,0.71715)"
             d="m 363.55,848.88 h -7.277 v -2.087 l 6.262,-13.139 h 3.631 v 13.025 h 2.317 v 2.201 h -2.317 v 4.947 h -2.61 v -4.947 z m 0,-2.202 v -10.523 l -4.961,10.523 z" />
          <path
             inkscape:connector-curvature="0"
             id="imagebot_27"
             transform="scale(1.3944,0.71715)"
             d="m 368.06,709.68 c 0,1.601 -0.615,3.417 -1.844,5.447 -1.106,1.811 -3.103,4.437 -5.991,7.878 h 8.021 v 2.202 h -10.594 v -2.459 c 2.907,-3.403 4.932,-6.062 6.076,-7.978 1.144,-1.916 1.716,-3.603 1.716,-5.062 0,-0.819 -0.229,-1.477 -0.686,-1.973 -0.458,-0.495 -1.058,-0.743 -1.802,-0.743 -0.963,0 -1.625,0.212 -1.987,0.636 -0.362,0.424 -0.529,1.175 -0.501,2.252 v 0.601 h -2.616 v -0.601 c -0.105,-1.687 0.267,-2.95 1.115,-3.789 0.849,-0.838 2.178,-1.258 3.989,-1.258 1.668,0 2.936,0.415 3.803,1.244 0.868,0.82 1.301,2.021 1.301,3.603 z" />
          <path
             inkscape:connector-curvature="0"
             id="imagebot_26"
             transform="scale(1.3944,0.71715)"
             d="m 339.99,678.33 v -17.028 l -0.515,0.386 c -0.657,0.477 -1.496,0.977 -2.516,1.501 v -2.416 c 0.762,-0.4 1.392,-0.782 1.887,-1.144 0.505,-0.371 1.063,-0.862 1.673,-1.472 h 2.087 v 20.174 h -2.616 z" />
        </g>
        <g
           style="fill:#0000f8;fill-opacity:1"
           id="imagebot_21"
           transform="matrix(0.23162418,8.6430865e-5,-8.6430865e-5,0.23162418,-124.04229,-9.85181)">
          <path
             style="fill:#0000f8;fill-opacity:1;fill-rule:evenodd"
             inkscape:connector-curvature="0"
             id="imagebot_24"
             d="m 731.76,452.66 61.632,117.31 1.85,-1.068 9.52,21.085 9.144,-5.279 -13.5,-18.788 2.13,-1.23 -70.779,-112.03 z" />
          <path
             style="opacity:0.66176997;fill:#0000f8;fill-opacity:1;fill-rule:evenodd;filter:url(#imagebot_23)"
             inkscape:connector-curvature="0"
             id="imagebot_22"
             d="m 293.95,363.68 107.26,204.16 3.221,-1.859 16.566,36.695 15.914,-9.188 -23.496,-32.695 3.708,-2.14 -123.18,-194.971 z"
             transform="matrix(0.5746,0,0,0.5746,564.23,242.9)" />
        </g>
        <path
           inkscape:connector-curvature="0"
           style="opacity:0.31019999;fill:url(#imagebot_20);stroke-width:0.23162419"
           id="imagebot_19"
           d="m 20.616297,124.30321 c 0.08059,23.08769 18.8622,41.73795 41.949201,41.65736 23.087695,-0.0806 41.737942,-18.8622 41.657352,-41.9492 C 104.14226,100.92367 85.360653,82.273419 62.273655,82.354008 39.185959,82.4346 20.535708,101.21621 20.616297,124.30321 Z m 3.65964,-0.0128 c -0.07354,-21.06655 16.944632,-38.203246 38.01049,-38.27678 21.066558,-0.07354 38.203253,16.94463 38.276783,38.01049 0.0735,21.06656 -16.944631,38.20325 -38.010489,38.27678 -21.066555,0.0735 -38.20325,-16.94463 -38.276784,-38.01049 z" />
        <g
           style="fill-rule:evenodd"
           id="imagebot_11"
           transform="matrix(0.14686503,-0.02706158,0.02706158,0.14686503,-12.928239,52.491285)">
          <path
             style="opacity:0.8;filter:url(#imagebot_18)"
             inkscape:connector-curvature="0"
             id="imagebot_17"
             transform="matrix(0.2172,0,0,0.2172,465.07,500.18)"
             d="m -204.82001,291.64999 a 52.32,52.32 0 1 1 -104.64,0 52.32,52.32 0 1 1 104.64,0 z" />
          <path
             inkscape:connector-curvature="0"
             id="imagebot_16"
             transform="matrix(0.2172,0,0,0.2172,465.01,499.76)"
             d="m -204.82001,291.64999 a 52.32,52.32 0 1 1 -104.64,0 52.32,52.32 0 1 1 104.64,0 z" />
          <path
             inkscape:connector-curvature="0"
             style="fill:url(#imagebot_15)"
             id="imagebot_14"
             transform="matrix(0.18827,0,0,0.18827,457.57,508.48)"
             d="m -204.82001,291.64999 a 52.32,52.32 0 1 1 -104.64,0 52.32,52.32 0 1 1 104.64,0 z" />
          <path
             inkscape:connector-curvature="0"
             style="opacity:0.8;fill:url(#imagebot_13)"
             id="imagebot_12"
             transform="matrix(0.2172,0,0,0.2172,465.01,500.05)"
             d="m -257.16,243.62 c -17.158,0 -32.072,9.028 -40.562,22.531 11.164,-10.63 26.221,-17.188 42.812,-17.188 11.38,0 22.033,3.108 31.219,8.469 -8.652,-8.469 -20.389,-13.812 -33.469,-13.812 z" />
        </g>
        <rect
           id="imagebot_49-6"
           transform="rotate(90)"
           ry="16.404167"
           height="102.65833"
           width="98.954163"
           y="-192.07359"
           x="77.282295"
           style="fill:none;stroke-width:0.26458332" />
        <path
           inkscape:connector-curvature="0"
           style="fill:url(#imagebot_46-6);fill-rule:evenodd;stroke-width:0.23162419"
           id="imagebot_45-0"
           d="m 180.98343,123.96577 a 38.268949,38.35002 89.8 1 1 -76.69957,0.26774 38.268949,38.35002 89.8 1 1 76.69957,-0.26774 z" />
        <path
           style="fill:#f1120f;fill-opacity:1;fill-rule:evenodd;stroke-width:0.23162419"
           inkscape:connector-curvature="0"
           id="imagebot_44-2"
           d="m 141.4109,89.00105 0.28253,4.69476 1.59704,-0.0056 0.24974,-4.696618 z m -2.14964,0.152965 -0.88563,0.09875 0.58195,3.47907 0.48646,-0.0515 z m 6.42984,-0.02244 -0.15816,3.527515 0.48658,0.04833 0.55764,-3.483048 -0.88606,-0.09257 z m -10.05058,0.563421 -0.87281,0.186031 0.94348,3.403225 0.47793,-0.105668 -0.5486,-3.483356 z m 13.67501,-0.04773 -0.52449,3.49127 0.47865,0.09816 0.91577,-3.405314 z m -17.22356,0.962535 -0.84331,0.27742 1.28819,3.285281 0.46942,-0.155438 z m 20.77424,-0.07252 -0.88654,3.417719 0.47048,0.148219 1.26546,-3.294195 -0.8494,-0.271512 z m -24.20478,1.353104 -0.80988,0.364626 1.62466,3.130308 0.44865,-0.201227 z m 27.64418,-0.0965 -1.23623,3.306602 0.44982,0.198091 1.60275,-3.145743 z m -30.38434,1.416136 -1.84301,1.071217 2.59239,3.925343 1.38232,-0.80347 z m 33.13827,-0.115674 -2.10654,4.207883 1.3879,0.7938 2.56492,-3.943345 z m -36.76683,2.395029 -0.71784,0.522505 2.24308,2.724657 0.39414,-0.28836 z m 40.40427,-0.141038 -1.89867,2.976067 0.40032,0.285587 2.22377,-2.74025 z m -43.2708,2.417732 -0.65921,0.597115 2.51251,2.474255 0.36483,-0.32578 -2.21813,-2.745359 z m 46.15549,-0.156944 -2.19893,2.756834 0.36294,0.32741 2.49911,-2.491745 -0.66336,-0.592499 z m -48.76853,2.723904 -0.59667,0.66337 2.76101,2.19892 0.32739,-0.36711 z m 51.39709,-0.17941 -2.47424,2.51645 0.32971,0.36088 2.74142,-2.21812 z m -53.72897,3.00319 -0.52165,0.72148 2.97213,1.89869 0.28976,-0.40034 z m 56.08052,-0.19159 -2.72467,2.23891 0.28837,0.39832 2.96274,-1.9194 -0.52667,-0.71783 z m -57.79736,2.70563 -1.05832,1.85044 4.20787,2.10237 0.7938,-1.38789 z m 59.52938,-0.2078 -3.92535,2.59239 0.80324,1.38232 4.19309,-2.1317 z m -61.52899,3.9912 -0.35895,0.81658 3.30244,1.2404 0.19786,-0.45004 -3.14159,-1.60694 z m 63.55498,-0.21768 -3.13029,1.62883 0.20121,0.44448 3.29372,-1.25926 -0.36487,-0.81405 z m -64.8981,3.62449 -0.27151,0.84939 3.41355,0.88656 0.15217,-0.46633 z m 66.26497,-0.22714 -3.28109,1.29257 0.15125,0.46527 3.40728,-0.91037 z m -67.24864,3.75753 -0.17995,0.86992 3.4871,0.52451 0.10233,-0.47867 -3.40971,-0.91576 z m 68.2523,-0.23408 -3.40324,0.93955 0.10567,0.47793 3.48335,-0.54883 -0.18601,-0.86864 z m -68.86045,3.84632 -0.0884,0.88211 3.52335,0.15818 0.0523,-0.48683 z m 69.49148,-0.2384 -3.48325,0.57779 0.0557,0.48645 3.52215,-0.18277 z m -69.71945,3.27535 0.007,2.12954 4.69476,-0.28253 -0.006,-1.59727 z m 69.96629,-0.24423 -4.69476,0.28275 0.006,1.59704 4.69662,0.24975 z m -66.28306,4.33624 -3.52215,0.183 0.0946,0.88541 3.48325,-0.57779 -0.0559,-0.49062 z m 62.63082,-0.21446 -0.0525,0.491 3.4872,0.55346 0.0884,-0.88605 -3.52334,-0.15841 z m -62.13075,3.46196 -3.48336,0.54883 0.18603,0.87258 3.40324,-0.93931 -0.10568,-0.4821 z m 61.64873,-0.21103 -0.10231,0.48283 3.40971,0.91553 0.17994,-0.87386 -3.48711,-0.5245 z m -60.80839,3.39827 -3.40727,0.91037 0.27742,0.84331 3.28111,-1.28841 -0.15149,-0.46527 z m 59.99495,-0.20525 -0.1524,0.46633 3.29419,1.26545 0.27176,-0.84522 z m -58.82607,3.28295 -3.29371,1.26343 0.36463,0.80988 3.1303,-1.62466 z m 57.68103,-0.19718 -0.19809,0.45005 3.14157,1.60277 0.35897,-0.81241 z m -55.46246,2.07348 -4.19309,2.13169 1.0712,1.83885 3.92511,-2.59239 z m 53.25703,-0.1859 -0.79382,1.38372 3.94335,2.56492 1.05833,-1.84627 -4.20786,-2.10214 z m -52.21059,4.02098 -2.96274,1.9194 0.52644,0.71782 2.72466,-2.24308 z m 51.19559,-0.17454 -0.28977,0.39616 2.74025,2.224 0.52142,-0.72148 -2.97213,-1.89845 z m -49.13443,2.74186 -2.74142,2.21812 0.59688,0.65921 2.47426,-2.51251 z m 47.08661,-0.16019 -0.32739,0.36734 2.49173,2.49517 0.59667,-0.66337 -2.76101,-2.19891 z m -44.76914,2.49777 -2.4991,2.49592 0.66336,0.5925 2.19868,-2.76101 -0.36294,-0.32717 z m 42.46805,-0.14407 -0.36482,0.32995 2.21791,2.74559 0.65919,-0.60128 -2.51251,-2.47426 z m -39.91752,2.23138 -2.224,2.74025 0.72564,0.51747 1.89845,-2.97213 z m 37.37929,-0.13048 -0.39413,0.29253 1.91938,2.95881 0.71759,-0.52645 -2.24284,-2.72465 z m -34.52155,0.64468 -2.56494,3.93917 1.85022,1.05833 2.10238,-4.20393 -1.38766,-0.79381 z m 31.66978,-0.11055 -1.38231,0.80324 2.13585,4.18913 1.83861,-1.07097 -2.59238,-3.92117 z m -28.85039,2.90801 -1.60277,3.14157 0.81634,0.35895 1.23624,-3.30243 z m 26.04366,-0.0909 -0.44842,0.20122 1.26322,3.29788 0.80988,-0.36463 z m -22.97439,1.28627 -1.26547,3.29002 0.84939,0.27152 0.88656,-3.41355 z m 19.91354,-0.0695 -0.46944,0.15126 0.91432,3.41144 0.84331,-0.27742 z m -10.7497,0.4783 -0.24974,4.69662 2.12931,-0.007 -0.28253,-4.69476 z m -5.98338,0.45773 -0.91554,3.40532 0.8697,0.18412 0.52449,-3.49128 z m 13.55828,-0.0473 -0.47796,0.1015 0.54862,3.48752 0.8728,-0.1902 z m -10.30834,0.57659 -0.55764,3.48305 0.88604,0.0884 0.15841,-3.52335 z m 7.06195,-0.0247 -0.48647,0.0517 0.18277,3.52216 0.88564,-0.0946 -0.58194,-3.47906 z" />
        <g
           id="imagebot_38-3"
           transform="matrix(0.20263229,-0.11220313,0.11220313,0.20263229,-130.42216,84.873151)"
           style="fill:#f1120f;fill-opacity:1">
          <g
             style="fill:#f1120f;fill-opacity:1;fill-rule:evenodd"
             id="imagebot_42-7"
             transform="matrix(0.5746,0,0,0.5746,564.71,371.42)">
            <path
               inkscape:connector-curvature="0"
               id="imagebot_43-5"
               d="m 825.74,501.88 -148.77,87.091 2.235,3.357 -27.309,12.971 11.043,16.586 22.501,-20.193 2.573,3.864 137.73,-103.68 z"
               style="fill:#f1120f;fill-opacity:1" />
          </g>
          <g
             style="opacity:0.66176997;fill:#f1120f;fill-opacity:1;fill-rule:evenodd;filter:url(#imagebot_23-7)"
             id="imagebot_39-9"
             transform="matrix(0.5746,0,0,0.5746,686.9,306.95)">
            <g
               id="imagebot_40-2"
               style="fill:#f1120f;fill-opacity:1">
              <path
                 inkscape:connector-curvature="0"
                 id="imagebot_41-2"
                 d="m 615.1,616.93 -148.77,87.091 2.235,3.357 -27.309,12.971 11.043,16.586 22.501,-20.193 2.573,3.864 137.73,-103.68 z"
                 style="fill:#f1120f;fill-opacity:1" />
            </g>
          </g>
        </g>
        <g
           id="imagebot_25-8"
           transform="matrix(0.29089505,-0.00101542,0.00101542,0.29089505,17.587221,-38.499101)">
          <path
             inkscape:connector-curvature="0"
             id="imagebot_37-9"
             d="m 336.17,567.46 c -2.552,0 -4.389,-0.306 -5.512,-0.918 -1.123,-0.611 -1.625,-1.584 -1.506,-2.917 v -0.297 h 3.609 v 0.297 c 0,0.738 0.289,1.299 0.867,1.682 0.578,0.383 1.426,0.574 2.542,0.574 1.874,0 3.05,-0.328 3.529,-0.984 0.425,-0.588 0.658,-1.907 0.698,-3.958 -1.609,0.69 -3.31,1.032 -5.104,1.025 -2.26,0 -3.871,-0.33 -4.835,-0.989 -0.963,-0.66 -1.445,-1.762 -1.445,-3.307 v -0.554 c 0,-1.497 0.608,-2.618 1.824,-3.363 1.216,-0.745 3.047,-1.117 5.492,-1.117 2.991,0 5.008,0.41 6.051,1.23 1.044,0.82 1.559,2.41 1.545,4.768 v 1.733 c -0.013,2.789 -0.551,4.668 -1.614,5.639 -1.051,0.971 -3.097,1.456 -6.141,1.456 z m 4.107,-10.387 c 0,-1.087 -0.266,-1.827 -0.798,-2.22 -0.531,-0.393 -1.535,-0.589 -3.01,-0.589 -1.369,0 -2.346,0.215 -2.931,0.646 -0.584,0.43 -0.877,1.151 -0.877,2.163 v 0.554 c 0,0.957 0.299,1.647 0.897,2.071 0.598,0.424 1.569,0.636 2.911,0.636 1.249,0 2.196,-0.231 2.841,-0.692 0.645,-0.462 0.967,-1.133 0.967,-2.015 z" />
          <path
             inkscape:connector-curvature="0"
             id="imagebot_36-7"
             transform="scale(1.3944,0.71715)"
             d="m 374.7,775.58 c 0,-1.001 -0.195,-1.713 -0.586,-2.137 -0.391,-0.425 -1.049,-0.637 -1.973,-0.637 -0.839,0 -1.475,0.26 -1.909,0.78 -0.434,0.519 -0.636,1.255 -0.608,2.208 v 0.601 h -2.616 v -0.601 c -0.105,-1.658 0.288,-2.938 1.18,-3.838 0.891,-0.901 2.213,-1.351 3.967,-1.351 1.687,0 2.969,0.383 3.846,1.15 0.877,0.768 1.315,1.89 1.315,3.367 v 0.587 c 0,1.715 -0.386,2.926 -1.158,3.631 -0.438,0.41 -1.067,0.696 -1.887,0.858 0.887,0.162 1.539,0.443 1.959,0.844 0.724,0.676 1.086,1.992 1.086,3.946 v 1.115 c 0,1.725 -0.459,3.019 -1.379,3.882 -0.92,0.862 -2.305,1.293 -4.154,1.293 -1.687,0 -2.971,-0.467 -3.853,-1.401 -0.881,-0.934 -1.294,-2.263 -1.236,-3.989 v -0.6 h 2.587 v 0.6 c -0.019,1.077 0.174,1.876 0.579,2.395 0.406,0.52 1.032,0.779 1.881,0.779 1.019,0 1.772,-0.274 2.259,-0.822 0.486,-0.548 0.729,-1.389 0.729,-2.523 v -1.115 c 0,-1.011 -0.243,-1.8 -0.729,-2.367 -0.487,-0.567 -1.163,-0.85 -2.031,-0.85 h -0.772 v -2.317 h 0.272 c 1.125,0 1.944,-0.231 2.459,-0.693 0.515,-0.462 0.772,-1.199 0.772,-2.209 z" />
          <path
             inkscape:connector-curvature="0"
             id="imagebot_35-3"
             d="m 432.6,459.87 c -2.525,0 -4.368,0.297 -5.551,0.898 -1.183,0.602 -1.702,1.502 -1.556,2.712 v 0.433 h 3.642 v -0.433 c -0.04,-0.773 0.201,-1.3 0.706,-1.605 0.505,-0.304 1.417,-0.465 2.759,-0.465 1.037,0 1.881,0.174 2.519,0.529 0.638,0.356 0.962,0.84 0.962,1.428 0,1.046 -0.795,2.252 -2.39,3.626 -1.595,1.374 -4.433,3.271 -8.487,5.711 v 1.765 h 14.775 v -1.572 h -11.182 c 4.027,-2.468 6.817,-4.349 8.358,-5.647 1.715,-1.456 2.567,-2.767 2.567,-3.915 0,-1.135 -0.603,-1.995 -1.813,-2.583 -1.209,-0.594 -2.984,-0.882 -5.31,-0.882 z m -12.05,0.15 c -0.851,0.437 -1.638,0.776 -2.342,1.043 -0.691,0.26 -1.568,0.547 -2.631,0.834 v 1.733 c 1.422,-0.376 2.596,-0.75 3.513,-1.091 l 0.722,-0.273 v 12.209 h 3.642 V 460.02 Z" />
          <path
             inkscape:connector-curvature="0"
             id="imagebot_34-6"
             d="m 428.05,641.81 c 2.552,0 4.389,0.306 5.512,0.918 1.123,0.612 1.625,1.584 1.506,2.917 v 0.297 h -3.609 v -0.297 c 0,-0.738 -0.289,-1.299 -0.867,-1.682 -0.578,-0.383 -1.426,-0.574 -2.542,-0.574 -1.701,0 -2.811,0.369 -3.329,1.107 -0.452,0.636 -0.698,1.887 -0.738,3.753 1.608,-0.629 3.363,-0.943 5.263,-0.943 2.14,0 3.668,0.33 4.586,0.989 0.917,0.66 1.375,1.762 1.375,3.307 v 0.554 c 0,1.497 -0.621,2.618 -1.864,3.363 -1.243,0.745 -3.107,1.117 -5.592,1.117 -2.578,0 -4.462,-0.376 -5.652,-1.128 -1.19,-0.751 -1.784,-1.941 -1.784,-3.568 v -1.732 c 0.013,-3.473 0.511,-5.742 1.495,-6.809 0.97,-1.059 3.05,-1.589 6.24,-1.589 z m -4.087,10.387 c 0,1.087 0.266,1.827 0.797,2.22 0.532,0.393 1.529,0.589 2.991,0.589 1.369,0 2.346,-0.215 2.931,-0.646 0.584,-0.43 0.877,-1.151 0.877,-2.163 v -0.554 c 0,-0.957 -0.299,-1.647 -0.897,-2.071 -0.598,-0.424 -1.569,-0.636 -2.911,-0.636 -1.236,0 -2.177,0.231 -2.821,0.692 -0.645,0.462 -0.967,1.133 -0.967,2.015 z" />
          <path
             inkscape:connector-curvature="0"
             id="imagebot_33-1"
             d="m 376.46,472.72 c -0.851,0.438 -1.638,0.792 -2.342,1.059 -0.691,0.26 -1.568,0.531 -2.631,0.818 v 1.733 c 1.422,-0.376 2.596,-0.734 3.513,-1.075 l 0.722,-0.273 v 12.209 h 3.642 V 472.72 Z m 12.241,0 c -0.851,0.438 -1.622,0.792 -2.326,1.059 -0.691,0.26 -1.568,0.531 -2.631,0.818 v 1.733 c 1.422,-0.376 2.58,-0.734 3.497,-1.075 l 0.722,-0.273 v 12.209 h 3.658 V 472.72 Z" />
          <path
             inkscape:connector-curvature="0"
             id="imagebot_32-2"
             d="m 355.72,506.09 c -2.525,0 -4.383,0.314 -5.599,0.947 -1.216,0.632 -1.829,1.607 -1.829,2.919 v 6.819 c 0,1.326 0.636,2.346 1.925,3.064 1.289,0.717 3.124,1.075 5.503,1.075 2.432,0 4.297,-0.355 5.567,-1.059 1.269,-0.704 1.893,-1.727 1.893,-3.08 v -6.819 c 0,-1.367 -0.579,-2.363 -1.749,-2.967 -1.169,-0.605 -3.079,-0.899 -5.711,-0.899 z m -11.872,0.144 c -0.851,0.438 -1.622,0.793 -2.326,1.059 -0.691,0.26 -1.568,0.531 -2.631,0.818 v 1.733 c 1.422,-0.376 2.596,-0.733 3.513,-1.075 l 0.706,-0.289 v 12.225 h 3.658 v -14.471 z m 11.872,1.444 c 1.342,0 2.322,0.174 2.92,0.53 0.598,0.355 0.898,0.942 0.898,1.748 v 6.819 c 0,0.82 -0.318,1.449 -0.962,1.877 -0.645,0.427 -1.607,0.625 -2.856,0.625 -1.289,0 -2.238,-0.199 -2.856,-0.609 -0.618,-0.41 -0.93,-1.039 -0.93,-1.893 v -6.819 c 0,-0.847 0.292,-1.445 0.85,-1.78 0.558,-0.335 1.527,-0.498 2.936,-0.498 z" />
          <path
             inkscape:connector-curvature="0"
             id="imagebot_31-9"
             transform="scale(1.3944,0.71715)"
             d="m 253.42,845.81 c 0.877,0.191 1.525,0.51 1.944,0.958 0.725,0.772 1.087,2.264 1.087,4.475 v -0.429 c 0,1.83 -0.469,3.262 -1.408,4.296 -0.939,1.035 -2.243,1.552 -3.911,1.552 -1.801,0 -3.135,-0.477 -4.003,-1.43 -0.867,-0.953 -1.301,-2.426 -1.301,-4.418 v 0.429 c 0,-2.068 0.4,-3.527 1.201,-4.375 0.496,-0.524 1.211,-0.882 2.145,-1.072 -0.763,-0.21 -1.373,-0.534 -1.83,-0.972 -0.801,-0.782 -1.201,-2.021 -1.201,-3.718 v 0.401 c 0,-1.764 0.436,-3.124 1.308,-4.082 0.872,-0.958 2.113,-1.437 3.724,-1.437 1.754,0 3.034,0.441 3.839,1.322 0.805,0.882 1.208,2.281 1.208,4.197 v -0.401 c 0,1.697 -0.367,2.941 -1.101,3.732 -0.429,0.457 -0.996,0.782 -1.701,0.972 z m -2.245,-1.13 c 0.83,0 1.442,-0.285 1.837,-0.857 0.396,-0.572 0.594,-1.454 0.594,-2.645 v 0.4 c 0,-1.201 -0.191,-2.066 -0.572,-2.595 -0.381,-0.529 -1.001,-0.793 -1.859,-0.794 -0.8,0.001 -1.403,0.284 -1.808,0.851 -0.405,0.567 -0.608,1.413 -0.608,2.538 v -0.4 c 0,1.191 0.2,2.073 0.601,2.645 0.39,0.572 0.996,0.857 1.815,0.857 z m -0.043,2.26 c -0.972,0 -1.663,0.297 -2.073,0.893 -0.41,0.596 -0.614,1.589 -0.614,2.981 v -0.429 c 0,1.544 0.188,2.598 0.564,3.16 0.377,0.562 1.084,0.843 2.123,0.843 0.973,0 1.666,-0.307 2.081,-0.922 0.414,-0.615 0.622,-1.642 0.622,-3.081 v 0.429 c 0,-1.496 -0.191,-2.516 -0.572,-3.06 -0.372,-0.543 -1.082,-0.814 -2.13,-0.814 z" />
          <path
             inkscape:connector-curvature="0"
             id="imagebot_30-3"
             transform="scale(1.3944,0.71715)"
             d="m 270.41,899.39 6.748,-17.972 h -7.749 v -2.202 h 10.08 v 2.202 l -5.976,17.972 z" />
          <path
             inkscape:connector-curvature="0"
             id="imagebot_29-1"
             transform="scale(1.3944,0.71715)"
             d="m 344.76,893.68 c 0,2.278 -0.384,3.882 -1.151,4.811 -0.767,0.929 -2.09,1.394 -3.967,1.394 -1.859,0 -3.153,-0.338 -3.882,-1.015 -0.729,-0.677 -1.137,-1.911 -1.222,-3.703 v -0.6 h 2.587 v 0.6 c 0.057,0.848 0.265,1.47 0.622,1.866 0.358,0.395 0.899,0.593 1.623,0.593 1.106,0 1.849,-0.293 2.23,-0.879 0.382,-0.586 0.572,-1.728 0.572,-3.424 v -1.344 c 0,-1.268 -0.174,-2.152 -0.522,-2.653 -0.347,-0.5 -0.965,-0.75 -1.851,-0.75 -0.848,0 -1.48,0.226 -1.894,0.679 -0.415,0.453 -0.613,1.132 -0.594,2.037 h -2.673 l 0.185,-11.881 h 9.437 v 2.274 h -7.049 l -0.1,6.419 c 0.448,-0.448 0.82,-0.781 1.115,-1.001 0.668,-0.486 1.483,-0.729 2.445,-0.729 1.525,0 2.588,0.436 3.188,1.308 0.601,0.873 0.901,2.424 0.901,4.654 z" />
          <path
             inkscape:connector-curvature="0"
             id="imagebot_28-9"
             transform="scale(1.3944,0.71715)"
             d="m 363.55,848.88 h -7.277 v -2.087 l 6.262,-13.139 h 3.631 v 13.025 h 2.317 v 2.201 h -2.317 v 4.947 h -2.61 v -4.947 z m 0,-2.202 v -10.523 l -4.961,10.523 z" />
          <path
             inkscape:connector-curvature="0"
             id="imagebot_27-4"
             transform="scale(1.3944,0.71715)"
             d="m 368.06,709.68 c 0,1.601 -0.615,3.417 -1.844,5.447 -1.106,1.811 -3.103,4.437 -5.991,7.878 h 8.021 v 2.202 h -10.594 v -2.459 c 2.907,-3.403 4.932,-6.062 6.076,-7.978 1.144,-1.916 1.716,-3.603 1.716,-5.062 0,-0.819 -0.229,-1.477 -0.686,-1.973 -0.458,-0.495 -1.058,-0.743 -1.802,-0.743 -0.963,0 -1.625,0.212 -1.987,0.636 -0.362,0.424 -0.529,1.175 -0.501,2.252 v 0.601 h -2.616 v -0.601 c -0.105,-1.687 0.267,-2.95 1.115,-3.789 0.849,-0.838 2.178,-1.258 3.989,-1.258 1.668,0 2.936,0.415 3.803,1.244 0.868,0.82 1.301,2.021 1.301,3.603 z" />
          <path
             inkscape:connector-curvature="0"
             id="imagebot_26-7"
             transform="scale(1.3944,0.71715)"
             d="m 339.99,678.33 v -17.028 l -0.515,0.386 c -0.657,0.477 -1.496,0.977 -2.516,1.501 v -2.416 c 0.762,-0.4 1.392,-0.782 1.887,-1.144 0.505,-0.371 1.063,-0.862 1.673,-1.472 h 2.087 v 20.174 h -2.616 z" />
        </g>
        <g
           style="fill:#ef0000;fill-opacity:1"
           id="imagebot_21-8"
           transform="matrix(0.23162418,8.6430865e-5,-8.6430865e-5,0.23162418,-43.858726,-10.020527)">
          <path
             style="fill:#ef0000;fill-opacity:1;fill-rule:evenodd"
             inkscape:connector-curvature="0"
             id="imagebot_24-4"
             d="m 731.76,452.66 61.632,117.31 1.85,-1.068 9.52,21.085 9.144,-5.279 -13.5,-18.788 2.13,-1.23 -70.779,-112.03 z" />
          <path
             style="opacity:0.66176997;fill:#ef0000;fill-opacity:1;fill-rule:evenodd;filter:url(#imagebot_23-7)"
             inkscape:connector-curvature="0"
             id="imagebot_22-5"
             d="m 293.95,363.68 107.26,204.16 3.221,-1.859 16.566,36.695 15.914,-9.188 -23.496,-32.695 3.708,-2.14 -123.18,-194.971 z"
             transform="matrix(0.5746,0,0,0.5746,564.23,242.9)" />
        </g>
        <path
           inkscape:connector-curvature="0"
           style="opacity:0.31019999;fill:url(#imagebot_20-1);stroke-width:0.23162419"
           id="imagebot_19-0"
           d="m 100.79986,124.13449 c 0.0806,23.0877 18.8622,41.73795 41.9492,41.65736 23.0877,-0.0806 41.73795,-18.8622 41.65736,-41.9492 -0.0806,-23.0877 -18.8622,-41.737948 -41.9492,-41.657359 -23.08769,0.08059 -41.73795,18.862199 -41.65736,41.949199 z m 3.65964,-0.0128 c -0.0735,-21.06656 16.94464,-38.203253 38.01049,-38.276787 21.06656,-0.07354 38.20326,16.944637 38.27679,38.010487 0.0735,21.06656 -16.94464,38.20325 -38.01049,38.27679 -21.06656,0.0735 -38.20325,-16.94463 -38.27679,-38.01049 z" />
        <g
           style="fill-rule:evenodd"
           id="imagebot_11-3"
           transform="matrix(0.14686503,-0.02706158,0.02706158,0.14686503,67.255327,52.322568)">
          <path
             style="opacity:0.8;filter:url(#imagebot_18-3)"
             inkscape:connector-curvature="0"
             id="imagebot_17-6"
             transform="matrix(0.2172,0,0,0.2172,465.07,500.18)"
             d="m -204.82001,291.64999 a 52.32,52.32 0 1 1 -104.64,0 52.32,52.32 0 1 1 104.64,0 z" />
          <path
             inkscape:connector-curvature="0"
             id="imagebot_16-1"
             transform="matrix(0.2172,0,0,0.2172,465.01,499.76)"
             d="m -204.82001,291.64999 a 52.32,52.32 0 1 1 -104.64,0 52.32,52.32 0 1 1 104.64,0 z" />
          <path
             inkscape:connector-curvature="0"
             style="fill:url(#imagebot_15-0)"
             id="imagebot_14-0"
             transform="matrix(0.18827,0,0,0.18827,457.57,508.48)"
             d="m -204.82001,291.64999 a 52.32,52.32 0 1 1 -104.64,0 52.32,52.32 0 1 1 104.64,0 z" />
          <path
             inkscape:connector-curvature="0"
             style="opacity:0.8;fill:url(#imagebot_13-6)"
             id="imagebot_12-6"
             transform="matrix(0.2172,0,0,0.2172,465.01,500.05)"
             d="m -257.16,243.62 c -17.158,0 -32.072,9.028 -40.562,22.531 11.164,-10.63 26.221,-17.188 42.812,-17.188 11.38,0 22.033,3.108 31.219,8.469 -8.652,-8.469 -20.389,-13.812 -33.469,-13.812 z" />
        </g>
      </g>
    </g>
  </g>
</svg>
