<?xml version="1.0" encoding="iso-8859-1"?>
<!-- Generator: Adobe Illustrator 16.0.4, SVG Export Plug-In . SVG Version: 6.00 Build 0)  -->
<!DOCTYPE svg PUBLIC "-//W3C//DTD SVG 1.1//EN" "http://www.w3.org/Graphics/SVG/1.1/DTD/svg11.dtd">
<svg version="1.1" id="Capa_1" xmlns="http://www.w3.org/2000/svg" xmlns:xlink="http://www.w3.org/1999/xlink" x="0px" y="0px"
	 width="75.026px" height="76.544px" viewBox="0 0 75.026 76.544" style="enable-background:new 0 0 75.026 76.544;"
	 xml:space="preserve">
<g id="_x33__x5F_2">
	<g>
		<path d="M68.555,71.295l-12.808-1.403c11.475-6.355,19.279-18.573,19.279-32.609C75.026,16.725,58.329,0,37.805,0
			c-0.033,0-0.064,0.003-0.097,0.004C37.691,0.004,37.676,0,37.66,0c-0.051,0-0.099,0.011-0.148,0.014
			c-0.083,0.007-0.168,0.013-0.253,0.013v0.013c-1.259,0.195-2.227,1.275-2.227,2.592c0,1.338,1.001,2.433,2.293,2.598v0.059
			c0.162-0.002,0.318-0.023,0.48-0.023c17.654,0,31.966,14.335,31.966,32.019c0,12.083-6.699,22.576-16.566,28.023l1.268-11.586
			c0.157-1.445-0.883-2.745-2.326-2.904c-1.45-0.157-2.741,0.887-2.898,2.332L47.23,71.605c-0.076,0.691,0.126,1.389,0.562,1.933
			c0.437,0.544,1.071,0.892,1.764,0.969l18.428,2.021c0.097,0.01,0.193,0.016,0.289,0.016c1.322,0,2.461-0.998,2.609-2.346
			C71.04,72.754,69.998,71.454,68.555,71.295z M37.702,71.313l-0.001-0.059c-0.162,0.004-0.317,0.025-0.48,0.025
			c-17.655,0-31.966-14.336-31.966-32.02c0-12.084,6.699-22.575,16.566-28.024l-1.267,11.588c-0.158,1.443,0.882,2.743,2.326,2.902
			c1.449,0.159,2.74-0.885,2.897-2.33l2.019-18.458c0.076-0.693-0.126-1.389-0.562-1.935c-0.436-0.544-1.07-0.892-1.763-0.968
			L7.042,0.016C6.944,0.004,6.849,0,6.753,0C5.431,0,4.292,0.997,4.145,2.346C3.987,3.789,5.029,5.09,6.471,5.247L19.28,6.652
			C7.805,13.007,0,25.224,0,39.261c0,20.558,16.698,37.283,37.221,37.283c0.032,0,0.065-0.005,0.097-0.006
			c0.017,0.001,0.032,0.006,0.049,0.006c0.05,0,0.098-0.013,0.147-0.016c0.084-0.007,0.168-0.011,0.253-0.013v-0.013
			c1.259-0.194,2.227-1.275,2.227-2.592C39.994,72.573,38.993,71.48,37.702,71.313z"/>
	</g>
</g>
<g>
</g>
<g>
</g>
<g>
</g>
<g>
</g>
<g>
</g>
<g>
</g>
<g>
</g>
<g>
</g>
<g>
</g>
<g>
</g>
<g>
</g>
<g>
</g>
<g>
</g>
<g>
</g>
<g>
</g>
</svg>
