<?xml version="1.0" encoding="UTF-8" standalone="no"?>
<!-- Generator: Adobe Illustrator 16.0.4, SVG Export Plug-In . SVG Version: 6.00 Build 0)  -->

<svg
   xmlns:dc="http://purl.org/dc/elements/1.1/"
   xmlns:cc="http://creativecommons.org/ns#"
   xmlns:rdf="http://www.w3.org/1999/02/22-rdf-syntax-ns#"
   xmlns:svg="http://www.w3.org/2000/svg"
   xmlns="http://www.w3.org/2000/svg"
   xmlns:sodipodi="http://sodipodi.sourceforge.net/DTD/sodipodi-0.dtd"
   xmlns:inkscape="http://www.inkscape.org/namespaces/inkscape"
   version="1.1"
   id="Capa_1"
   x="0px"
   y="0px"
   width="216px"
   height="146px"
   viewBox="0 0 216 146"
   enable-background="new 0 0 216 146"
   xml:space="preserve"
   inkscape:version="0.92.2 5c3e80d, 2017-08-06"
   sodipodi:docname="typlotlocal.svg"><metadata
     id="metadata4671"><rdf:RDF><cc:Work
         rdf:about=""><dc:format>image/svg+xml</dc:format><dc:type
           rdf:resource="http://purl.org/dc/dcmitype/StillImage" /><dc:title></dc:title></cc:Work></rdf:RDF></metadata><defs
     id="defs4669"><clipPath
       id="_clipPath_GNh0RdoNQ6qTEq5U1h9SgHSlllkPXMnq"><rect
         id="rect3802"
         height="2500"
         width="2500" /></clipPath></defs><sodipodi:namedview
     pagecolor="#ffffff"
     bordercolor="#666666"
     borderopacity="1"
     objecttolerance="10"
     gridtolerance="10"
     guidetolerance="10"
     inkscape:pageopacity="0"
     inkscape:pageshadow="2"
     inkscape:window-width="1135"
     inkscape:window-height="877"
     id="namedview4667"
     showgrid="false"
     inkscape:zoom="0.94316065"
     inkscape:cx="-45.208258"
     inkscape:cy="73"
     inkscape:window-x="2173"
     inkscape:window-y="146"
     inkscape:window-maximized="0"
     inkscape:current-layer="Capa_1" /><g
     style="isolation:isolate;fill:#de9a00;fill-opacity:0.21301778"
     id="g3826"
     transform="matrix(0.08415279,0,0,0.07263964,6.3814164,-19.095805)"><g
       id="g3812"
       clip-path="url(#_clipPath_GNh0RdoNQ6qTEq5U1h9SgHSlllkPXMnq)"
       style="fill:#de9a00;fill-opacity:0.21301778"><g
         id="Group"
         style="fill:#de9a00;fill-opacity:0.21301778"><path
           id="path3807"
           d="M 2205.8,547.4 H 1151.9 L 917.7,313.2 H 332.2 C 203.39,313.2 98,418.59 98,547.4 v 468.4 H 2440 V 781.6 c 0,-128.81 -105.39,-234.2 -234.2,-234.2 z"
           inkscape:connector-curvature="0"
           style="fill:#de9a00;fill-opacity:0.21301778" /><path
           id="path3809"
           d="M 2205.8,547.4 H 332.2 C 203.39,547.4 98,652.79 98,781.6 v 1171 c 0,128.81 105.39,234.2 234.2,234.2 h 1873.6 c 128.81,0 234.2,-105.39 234.2,-234.2 v -1171 c 0,-128.81 -105.39,-234.2 -234.2,-234.2 z"
           inkscape:connector-curvature="0"
           style="fill:#de9a00;fill-opacity:0.21301778" /></g></g></g><g
     id="g4836"
     transform="matrix(5.3877645,0,0,3.532425,28.026484,29.942116)"><g
       style="fill:#0300ff;fill-opacity:1"
       id="g4554"><polygon
         style="fill:#0300ff;fill-opacity:1"
         id="polygon4556"
         points="3.926,3.133 1.963,0 0,3.133 1.328,3.133 1.328,29.652 28.522,29.652 28.522,30.982 31.655,29.02 28.522,27.056 28.522,28.384 2.598,28.384 2.598,3.133 " /><path
         style="fill:#0300ff;fill-opacity:1"
         id="path4558"
         d="m 4.977,14.9 c 0.597,0 1.082,-0.473 1.105,-1.065 l 4.554,-0.899 c 0.177,0.378 0.559,0.644 1.003,0.644 0.613,0 1.111,-0.499 1.111,-1.112 0,-0.209 -0.062,-0.402 -0.163,-0.569 L 16.37,8.034 c 0.178,0.121 0.392,0.191 0.623,0.191 0.073,0 0.143,-0.009 0.211,-0.021 l 1.814,4.1 c -0.265,0.202 -0.439,0.52 -0.439,0.878 0,0.614 0.497,1.111 1.111,1.111 0.382,0 0.718,-0.193 0.918,-0.487 l 4.605,1.863 c -0.003,0.035 -0.011,0.069 -0.011,0.104 0,0.614 0.499,1.112 1.111,1.112 0.613,0 1.111,-0.498 1.111,-1.112 0,-0.289 -0.114,-0.549 -0.295,-0.747 l 2.606,-4.362 c 0.121,0.045 0.249,0.072 0.385,0.072 0.613,0 1.11,-0.497 1.11,-1.109 0,-0.613 -0.498,-1.11 -1.11,-1.11 -0.612,0 -1.111,0.497 -1.111,1.11 0,0.245 0.082,0.47 0.216,0.653 l -2.64,4.42 c -0.087,-0.024 -0.177,-0.039 -0.271,-0.039 -0.35,0 -0.659,0.166 -0.862,0.42 L 20.8,13.197 c 0,0 10e-4,-0.012 10e-4,-0.017 0,-0.614 -0.496,-1.109 -1.11,-1.109 -0.026,0 -0.05,0.005 -0.076,0.007 L 17.768,7.907 c 0.207,-0.201 0.335,-0.482 0.335,-0.794 0,-0.612 -0.497,-1.11 -1.11,-1.11 -0.613,0 -1.11,0.498 -1.11,1.11 0,0.149 0.03,0.293 0.083,0.424 l -3.848,3.932 c -0.146,-0.068 -0.307,-0.113 -0.48,-0.113 -0.558,0 -1.016,0.414 -1.094,0.952 l -4.62,0.913 C 5.73,12.898 5.38,12.678 4.975,12.678 c -0.613,0 -1.111,0.498 -1.111,1.111 0.002,0.615 0.5,1.111 1.113,1.111 z"
         inkscape:connector-curvature="0" /><path
         style="fill:#0300ff;fill-opacity:1"
         id="path4560"
         d="m 29.011,24.062 c 0.613,0 1.111,-0.497 1.111,-1.11 0,-0.614 -0.498,-1.111 -1.111,-1.111 -0.302,0 -0.575,0.121 -0.775,0.317 l -2.212,-1.502 c 0.059,-0.136 0.092,-0.284 0.092,-0.441 0,-0.614 -0.498,-1.11 -1.11,-1.11 -0.613,0 -1.111,0.496 -1.111,1.11 0,0.142 0.029,0.276 0.078,0.398 l -2.974,2.471 c -0.155,-0.083 -0.328,-0.132 -0.514,-0.132 -0.218,0 -0.418,0.064 -0.589,0.171 l -3.025,-2.935 c 0.077,-0.148 0.124,-0.318 0.124,-0.497 0,-0.613 -0.497,-1.111 -1.11,-1.111 -0.613,0 -1.111,0.498 -1.111,1.111 0,0.082 0.011,0.164 0.029,0.242 L 9.559,24.615 C 9.391,24.513 9.195,24.452 8.983,24.452 c -0.215,0 -0.415,0.063 -0.586,0.17 L 5.852,21.627 c 0.146,-0.188 0.236,-0.421 0.236,-0.678 0,-0.613 -0.498,-1.11 -1.111,-1.11 -0.613,0 -1.111,0.497 -1.111,1.11 0,0.613 0.498,1.11 1.111,1.11 0.125,0 0.243,-0.025 0.355,-0.063 l 2.64,3.107 c -0.062,0.14 -0.101,0.294 -0.101,0.458 0,0.612 0.498,1.109 1.11,1.109 0.614,0 1.11,-0.497 1.11,-1.109 0,-0.171 -0.041,-0.331 -0.11,-0.476 l 5.14,-4.591 c 0.2,0.188 0.466,0.306 0.761,0.306 0.201,0 0.387,-0.059 0.55,-0.152 l 3.042,2.953 c -0.064,0.142 -0.102,0.295 -0.102,0.46 0,0.613 0.497,1.11 1.11,1.11 0.613,0 1.11,-0.497 1.11,-1.11 0,-0.192 -0.053,-0.373 -0.141,-0.532 l 2.908,-2.414 c 0.183,0.13 0.403,0.21 0.645,0.21 0.224,0 0.432,-0.068 0.606,-0.183 l 2.315,1.573 c -0.016,0.076 -0.025,0.153 -0.025,0.235 0.001,0.614 0.498,1.112 1.111,1.112 z"
         inkscape:connector-curvature="0" /></g><g
       id="g4562" /><g
       id="g4564" /><g
       id="g4566" /><g
       id="g4568" /><g
       id="g4570" /><g
       id="g4572" /><g
       id="g4574" /><g
       id="g4576" /><g
       id="g4578" /><g
       id="g4580" /><g
       id="g4582" /><g
       id="g4584" /><g
       id="g4586" /><g
       id="g4588" /><g
       id="g4590" /></g></svg>