<?xml version="1.0" encoding="UTF-8" standalone="no"?>
<!-- Generator: Adobe Illustrator 17.0.0, SVG Export Plug-In . SVG Version: 6.00 Build 0)  -->

<svg
   xmlns:dc="http://purl.org/dc/elements/1.1/"
   xmlns:cc="http://creativecommons.org/ns#"
   xmlns:rdf="http://www.w3.org/1999/02/22-rdf-syntax-ns#"
   xmlns:svg="http://www.w3.org/2000/svg"
   xmlns="http://www.w3.org/2000/svg"
   xmlns:sodipodi="http://sodipodi.sourceforge.net/DTD/sodipodi-0.dtd"
   xmlns:inkscape="http://www.inkscape.org/namespaces/inkscape"
   version="1.1"
   id="Layer_1"
   x="0px"
   y="0px"
   width="26px"
   height="26px"
   viewBox="0 0 26 26"
   enable-background="new 0 0 26 26"
   xml:space="preserve"
   inkscape:version="0.48.4 r9939"
   sodipodi:docname="linkresize.svg"><metadata
     id="metadata9"><rdf:RDF><cc:Work
         rdf:about=""><dc:format>image/svg+xml</dc:format><dc:type
           rdf:resource="http://purl.org/dc/dcmitype/StillImage" /><dc:title></dc:title></cc:Work></rdf:RDF></metadata><defs
     id="defs7" /><sodipodi:namedview
     pagecolor="#ffffff"
     bordercolor="#666666"
     borderopacity="1"
     objecttolerance="10"
     gridtolerance="10"
     guidetolerance="10"
     inkscape:pageopacity="0"
     inkscape:pageshadow="2"
     inkscape:window-width="1074"
     inkscape:window-height="850"
     id="namedview5"
     showgrid="false"
     inkscape:zoom="6.419267"
     inkscape:cx="2.1915396"
     inkscape:cy="1.0362413"
     inkscape:window-x="0"
     inkscape:window-y="0"
     inkscape:window-maximized="0"
     inkscape:current-layer="Layer_1" /><path
     d="M25.5,23.577v0.962c0,0.531-0.43,0.962-0.962,0.962h-0.962c-0.531,0-0.962-0.43-0.962-0.962s0.43-0.962,0.962-0.962  c0-0.531,0.43-0.962,0.962-0.962S25.5,23.045,25.5,23.577z M24.538,11.038c-0.531,0-0.962,0.43-0.962,0.961v2  c0,0.531,0.43,0.961,0.962,0.961S25.5,14.531,25.5,14v-2C25.5,11.469,25.07,11.038,24.538,11.038z M24.538,5.25  c-0.531,0-0.962,0.431-0.962,0.962v2c0,0.531,0.43,0.962,0.962,0.962S25.5,8.742,25.5,8.211v-2C25.5,5.68,25.07,5.25,24.538,5.25z   M24.538,16.826c-0.531,0-0.962,0.43-0.962,0.962v2c0,0.531,0.43,0.962,0.962,0.962s0.962-0.43,0.962-0.962v-2  C25.5,17.256,25.07,16.826,24.538,16.826z M24.538,0.5h-0.962c-0.531,0-0.962,0.431-0.962,0.962s0.43,0.962,0.962,0.962  c0,0.531,0.43,0.962,0.962,0.962S25.5,2.954,25.5,2.423V1.462C25.5,0.931,25.07,0.5,24.538,0.5z M17.788,2.423h2  c0.531,0,0.962-0.431,0.962-0.962S20.32,0.5,19.788,0.5h-2c-0.531,0-0.962,0.431-0.962,0.962S17.256,2.423,17.788,2.423z   M6.211,2.423h2c0.531,0,0.962-0.431,0.962-0.962S8.742,0.5,8.211,0.5h-2C5.68,0.5,5.25,0.931,5.25,1.462S5.68,2.423,6.211,2.423z   M12,2.423h2c0.531,0,0.961-0.431,0.961-0.962S14.531,0.5,14,0.5h-2c-0.531,0-0.961,0.431-0.961,0.962S11.469,2.423,12,2.423z   M1.462,3.385c0.531,0,0.962-0.431,0.962-0.962c0.531,0,0.962-0.431,0.962-0.962S2.954,0.5,2.423,0.5H1.462  C0.931,0.5,0.5,0.931,0.5,1.462v0.962C0.5,2.954,0.931,3.385,1.462,3.385z M1.462,9.173c0.531,0,0.962-0.431,0.962-0.962v-2  c0-0.531-0.431-0.962-0.962-0.962S0.5,5.68,0.5,6.211v2C0.5,8.742,0.931,9.173,1.462,9.173z M19.788,23.577h-2  c-0.531,0-0.962,0.43-0.962,0.962s0.43,0.962,0.962,0.962h2c0.531,0,0.962-0.43,0.962-0.962S20.32,23.577,19.788,23.577z   M21.176,4.405l-5.95,0.743c-0.263,0.032-0.324,0.213-0.138,0.399l2.038,2.038l-6.375,6.376H2.423V12  c0-0.531-0.431-0.961-0.962-0.961S0.5,11.469,0.5,12v2c0,0.171,0.056,0.323,0.134,0.461C0.556,14.6,0.5,14.752,0.5,14.923v2.865v2  v3.789v0.962c0,0.531,0.431,0.962,0.962,0.962h0.962h3.788h2h2.866c0.171,0,0.323-0.056,0.462-0.134  C11.677,25.444,11.829,25.5,12,25.5h2c0.531,0,0.961-0.43,0.961-0.962s-0.43-0.962-0.961-0.962h-1.962V15.25l6.376-6.377  l2.036,2.036c0.188,0.187,0.367,0.125,0.4-0.138l0.743-5.95C21.627,4.561,21.439,4.372,21.176,4.405z"
     id="path3"
     style="fill:#008800;fill-opacity:1" /><path
     inkscape:connector-curvature="0"
     d="m 13.938304,20.370474 c -0.237782,0.06274 -0.490606,0.02981 -0.711902,-0.09247 -0.221293,-0.122285 -0.383754,-0.318942 -0.457374,-0.553637 l -0.748329,-2.385531 c -0.02597,-0.08254 -0.08399,-0.153065 -0.16139,-0.195834 -0.07738,-0.04279 -0.167999,-0.05449 -0.251605,-0.03238 l -2.4164088,0.6368 c -0.08365,0.02197 -0.153624,0.076 -0.194418,0.14992 -0.04081,0.07391 -0.04923,0.161953 -0.02326,0.244492 l 0.7483287,2.385532 c 0.3261291,1.039126 1.0424381,1.907892 2.0168021,2.446295 0.974365,0.538404 2.090735,0.682316 3.143346,0.405159 l 7.249526,-1.910472 c 1.052764,-0.277437 1.915501,-0.942825 2.429226,-1.873623 0.513779,-0.930891 0.616963,-2.01562 0.290582,-3.054522 L 24.103142,14.154824 C 23.7777,13.115835 23.061591,12.246936 22.086934,11.708372 21.112279,11.169804 19.995708,11.026027 18.942846,11.303409 l -4.085283,1.076597 c -0.131429,0.03463 -0.223798,0.14606 -0.231957,0.279629 -0.0077,0.126441 0.06166,0.247618 0.175569,0.31056 0.0065,0.0036 0.01306,0.007 0.01992,0.01017 0.09748,0.04598 0.194534,0.09573 0.288678,0.147749 0.743041,0.410583 1.369695,1.003035 1.812047,1.713262 0.03179,0.05105 0.07574,0.09159 0.126264,0.119515 0.07552,0.04179 0.165767,0.05508 0.251702,0.03243 l 2.586642,-0.681659 c 0.238176,-0.06277 0.491057,-0.03017 0.712062,0.09195 0.221102,0.12217 0.383604,0.31898 0.457312,0.554209 l 0.748328,2.385532 c 0.07406,0.235055 0.05077,0.480507 -0.06536,0.691394 -0.116483,0.211305 -0.312075,0.362395 -0.550992,0.42536 l -7.249469,1.910369 z"
     id="path3812"
     style="fill:#d700fc;fill-opacity:1" /><path
     inkscape:connector-curvature="0"
     d="m 2.3783355,11.880313 1.3412297,2.109943 c 0.5838746,0.918803 1.5006908,1.572197 2.5816518,1.839649 1.0809609,0.267452 2.1965768,0.117033 3.1413369,-0.423554 L 13.10943,13.306178 c 0.117956,-0.06753 0.178303,-0.199193 0.15145,-0.330335 -0.02541,-0.124003 -0.123777,-0.223061 -0.250002,-0.254292 -0.0072,-0.0018 -0.01463,-0.0034 -0.02209,-0.0047 -0.107066,-0.01927 -0.214696,-0.04229 -0.320082,-0.06836 -0.825702,-0.204296 -1.582722,-0.613463 -2.189277,-1.183309 -0.04408,-0.04143 -0.09733,-0.06937 -0.153587,-0.08329 -0.08379,-0.02073 -0.174379,-0.01022 -0.251503,0.03394 L 7.7512657,12.745717 C 7.5378814,12.867963 7.285165,12.901709 7.0397327,12.840987 6.7943002,12.780267 6.5864107,12.632443 6.454458,12.424863 L 5.1132283,10.314917 C 4.8403475,9.8850649 4.9776026,9.3291341 5.4192586,9.0758539 L 11.925302,5.3512985 c 0.213461,-0.1225554 0.465796,-0.1566136 0.710688,-0.096023 0.245431,0.06073 0.453703,0.2088587 0.5865,0.4171927 l 1.340875,2.1095274 c 0.04648,0.072985 0.120801,0.1260557 0.206644,0.1472942 0.08583,0.021266 0.176381,0.00907 0.251395,-0.033963 L 17.190085,6.6538083 C 17.346468,6.5642832 17.394807,6.3684904 17.29809,6.2163429 L 15.95686,4.1063995 C 15.372522,3.1871534 14.455515,2.5336036 13.374878,2.2662316 12.294242,1.9988587 11.178683,2.1495109 10.233846,2.6904075 L 3.7276723,6.4150366 C 2.7829119,6.9556242 2.1221891,7.8219397 1.8673049,8.8543085 1.6124205,9.8866769 1.793921,10.961376 2.3783355,11.880313 z"
     id="path3814"
     style="fill:#d700fc;fill-opacity:1" /></svg>