<?xml version="1.0" encoding="UTF-8" standalone="no"?>
<!-- Generator: Adobe Illustrator 16.0.4, SVG Export Plug-In . SVG Version: 6.00 Build 0)  -->

<svg
   xmlns:dc="http://purl.org/dc/elements/1.1/"
   xmlns:cc="http://creativecommons.org/ns#"
   xmlns:rdf="http://www.w3.org/1999/02/22-rdf-syntax-ns#"
   xmlns:svg="http://www.w3.org/2000/svg"
   xmlns="http://www.w3.org/2000/svg"
   xmlns:sodipodi="http://sodipodi.sourceforge.net/DTD/sodipodi-0.dtd"
   xmlns:inkscape="http://www.inkscape.org/namespaces/inkscape"
   version="1.1"
   id="Layer_1"
   x="0px"
   y="0px"
   width="500px"
   height="500px"
   viewBox="0 0 500 500"
   enable-background="new 0 0 500 500"
   xml:space="preserve"
   inkscape:version="0.48.4 r9939"
   sodipodi:docname="sync.svg"><metadata
     id="metadata9"><rdf:RDF><cc:Work
         rdf:about=""><dc:format>image/svg+xml</dc:format><dc:type
           rdf:resource="http://purl.org/dc/dcmitype/StillImage" /><dc:title></dc:title></cc:Work></rdf:RDF></metadata><defs
     id="defs7" /><sodipodi:namedview
     pagecolor="#ffffff"
     bordercolor="#666666"
     borderopacity="1"
     objecttolerance="10"
     gridtolerance="10"
     guidetolerance="10"
     inkscape:pageopacity="0"
     inkscape:pageshadow="2"
     inkscape:window-width="1305"
     inkscape:window-height="958"
     id="namedview5"
     showgrid="false"
     inkscape:zoom="0.472"
     inkscape:cx="250"
     inkscape:cy="250"
     inkscape:window-x="130"
     inkscape:window-y="180"
     inkscape:window-maximized="0"
     inkscape:current-layer="Layer_1" /><path
     d="m 205.16242,96.26876 c 0,-6.194177 8.965,-11.208163 19.953,-11.208163 10.988,0 19.953,5.013986 19.953,11.208163 0,6.19418 -8.965,11.20816 -19.953,11.20816 -10.988,0 -19.953,-5.01398 -19.953,-11.20816 z m 19.953,124.83286 c -10.184,0 -18.488,4.64549 -18.488,10.38523 0,5.73974 8.305,10.38523 18.488,10.38523 10.183,0 18.488,-4.64549 18.488,-10.38523 0,-5.73974 -8.305,-10.38523 -18.488,-10.38523 z m -119.266,-67.61972 c -10.183996,0 -18.487996,4.66515 -18.487996,10.38523 0,5.7403 8.305,10.38523 18.487996,10.38523 10.254,0 18.488,-4.64549 18.488,-10.38523 0,-5.71839 -8.234,-10.38523 -18.488,-10.38523 z m 218.817,10.38748 c 0,5.8914 8.527,10.65991 18.977,10.65991 10.527,0 18.977,-4.76795 18.977,-10.65991 0,-5.87175 -8.449,-10.65992 -18.977,-10.65992 -10.454,-0.002 -18.977,4.78817 -18.977,10.65992 z m -90.953,-12.88268 v -2.65922 h -11.719 v 2.65922 c -5.785,0.9218 -10.57,3.16422 -13.262,6.11778 h -49.238 v 10.97112 h 49.238 c 2.691,2.95356 7.477,5.19598 13.262,6.11778 v 39.96191 h 11.719 v -39.96416 c 5.785,-0.91955 10.57,-3.16421 13.262,-6.11778 h 14.082 v -10.97111 h -14.082 c -2.692,-2.95132 -7.477,-5.19599 -13.262,-6.11554 z m 242.187,-6.68344 v 39.49623 h -46.875 v -11.19075 h -18.531 c -3.223,21.35466 -17.141,40.9865 -39.691,56.79354 -5.043,19.10325 -21.211,50.94369 -21.211,50.94369 l -41.984,23.36677 h -167.97 l -39,-23.36677 c 0,0 -16.104996,-31.82303 -21.151996,-50.94201 -25.648,-17.96014 -41.086,-40.71406 -41.086,-65.53571 0,-24.82164 15.438,-47.57781 41.086,-65.5357 5.047,-19.120667 21.151996,-50.577448 21.151996,-50.577448 l 39.445,-23.733017 h 167.969 l 41.539,23.733017 c 0,0 16.168,31.474194 21.211,50.592614 22.551,15.791864 36.469,35.422014 39.691,56.778364 h 18.532 v -10.82451 h 46.875 z m -99.094,19.56387 c 0,-46.98351 -68.023,-85.209111 -151.691,-85.209111 -83.609,0 -151.690996,38.228411 -151.690996,85.209111 0,46.9807 68.080996,85.20912 151.690996,85.20912 83.668,0 151.691,-38.22617 151.691,-85.20912 z m -202.343,-32.36397 -37.742,-21.20018 -11.048,6.20597 37.742,21.20074 11.048,-6.20653 z m 150.675,-15.22957 -11.473,-5.95938 -34.695,21.07379 11.473,5.95938 34.695,-21.07379 z m -199.48,97.87945 11.048,6.20654 37.739,-21.19907 -11.048,-6.20597 -37.739,21.1985 z m 153.306,-14.86108 34.692,21.0693 11.471,-5.95937 -34.692,-21.06931 -11.471,5.95938 z"
     id="path3"
     inkscape:connector-curvature="0"
     style="fill:#005c60;fill-opacity:0.6007905" /><path
     inkscape:connector-curvature="0"
     d="m 209.52671,276.41114 c 4.15542,-0.736 9.20696,-0.58004 14.22251,0.43677 5.01555,1.0168 9.37689,2.7701 12.2785,4.93579 l 29.49336,22.01311 c 1.02204,0.76162 2.58141,1.39048 4.33564,1.74611 1.75423,0.35564 3.56391,0.41078 5.02467,0.15151 l 42.2337,-7.47184 c 1.46257,-0.25792 2.45929,-0.80955 2.77088,-1.53067 0.31159,-0.72111 -0.0863,-1.55547 -1.10828,-2.31709 l -29.49337,-22.0131 c -12.85025,-9.58871 -32.0908,-17.33481 -54.17424,-21.8118 -22.08344,-4.47699 -44.37954,-5.15164 -62.77846,-1.89908 L 45.625338,271.0673 c -18.400099,3.25528 -30.695066,10.04882 -34.618758,19.12941 -3.9240832,9.08151 0.993437,19.36159 13.847077,28.94802 l 29.491546,22.01175 c 12.836234,9.58784 32.073785,17.33531 54.163847,21.81364 22.09007,4.47833 44.38915,5.1516 62.79146,1.89677 l 71.40204,-12.6322 c 2.29709,-0.40639 3.35809,-1.51225 2.66552,-2.77531 -0.65689,-1.19566 -2.75465,-2.29473 -5.33635,-2.81812 -0.14784,-0.03 -0.29421,-0.0578 -0.44611,-0.0839 -2.15925,-0.37358 -4.33422,-0.78299 -6.46798,-1.21556 -16.84061,-3.41411 -32.60795,-8.61228 -45.59391,-15.03217 -0.93333,-0.4615 -2.03264,-0.81656 -3.17786,-1.04873 -1.7123,-0.34713 -3.52493,-0.41767 -5.02687,-0.15195 l -45.20916,7.99859 c -4.16282,0.73648 -9.21333,0.58368 -14.22226,-0.43178 -5.01114,-1.01591 -9.3743,-2.77057 -12.28096,-4.94123 l -29.49336,-22.0131 c -2.912252,-2.16883 -4.026226,-4.49497 -3.142114,-6.55218 0.888274,-2.06128 3.673863,-3.60376 7.84968,-4.34254 L 209.52671,276.41114 z"
     id="path3058"
     style="fill:#fb0002;fill-opacity:1" /><path
     inkscape:connector-curvature="0"
     d="m 186.69591,405.42798 29.49335,-22.0131 c 12.83962,-9.58557 32.07536,-17.33168 54.16543,-21.81001 22.09006,-4.47833 44.38836,-5.15342 62.78728,-1.90086 l 71.40896,12.64264 c 2.29709,0.40639 3.35848,1.51315 2.66371,2.77666 -0.6573,1.19475 -2.75506,2.29383 -5.33455,2.81677 -0.14784,0.03 -0.29866,0.0586 -0.45066,0.0845 -2.17949,0.37674 -4.37473,0.78923 -6.52835,1.22583 -16.87371,3.42082 -32.60393,8.61047 -45.49137,15.00843 -0.93657,0.46511 -2.04211,0.82241 -3.19174,1.05548 -1.7123,0.34714 -3.52493,0.41767 -5.02687,0.15195 l -45.2402,-8.00377 c -4.15542,-0.736 -9.20695,-0.58004 -14.22251,0.43677 -5.01555,1.0168 -9.37689,2.7701 -12.2785,4.93579 l -29.49336,22.01311 c -6.00126,4.48399 -3.88793,9.37487 4.71179,10.90077 l 126.70181,22.41536 c 4.1566,0.73872 9.20009,0.58636 14.20462,-0.42821 5.01555,-1.01681 9.38493,-2.7737 12.30444,-4.94795 l 29.48571,-22.0086 c 1.02203,-0.76162 2.58141,-1.39048 4.33564,-1.74612 1.75423,-0.35564 3.56391,-0.41077 5.02466,-0.1515 l 42.2337,7.47184 c 3.04546,0.53879 3.78975,2.2613 1.66299,3.84866 l -29.49336,22.0131 c -12.84947,9.59053 -32.08923,17.33844 -54.17267,21.81543 -22.08345,4.47699 -44.38032,5.14982 -62.78043,1.89454 L 207.47176,453.50951 c -18.39893,-3.25256 -30.6939,-10.04611 -34.61837,-19.12851 -3.92448,-9.08241 0.99187,-19.36521 13.84252,-28.95302 z"
     id="path3060"
     style="fill:#fb0002;fill-opacity:1" /></svg>