<?xml version="1.0" encoding="utf-8"?>
<!-- Generator: Adobe Illustrator 15.0.0, SVG Export Plug-In . SVG Version: 6.00 Build 0)  -->
<!DOCTYPE svg PUBLIC "-//W3C//DTD SVG 1.1//EN" "http://www.w3.org/Graphics/SVG/1.1/DTD/svg11.dtd">
<svg version="1.1" id="Capa_1" xmlns="http://www.w3.org/2000/svg" xmlns:xlink="http://www.w3.org/1999/xlink" x="0px" y="0px"
	 width="600px" height="600px" viewBox="0 0 600 600" enable-background="new 0 0 600 600" xml:space="preserve">
<path fill="#222221" d="M459.691,30.83l-84.977,12.096l38.156,48.66c-39.808,36.498-68.607,102.006-87.741,160.008
	c-9.484,28.75-17.919,59.774-25.129,91.864c-7.21-32.09-15.646-63.115-25.129-91.864c-19.133-58.001-47.934-123.51-87.742-160.008
	l38.157-48.66L140.308,30.83L55.33,18.73l32.014,79.643l32.013,79.64l33.144-42.267c5.405,5.358,10.908,11.941,16.398,19.677
	c18.774,26.457,37.054,65.771,52.861,113.69c31.008,93.999,50.272,213.59,50.278,312.116c0,0.013,0,0.026,0,0.04h0h55.927
	c0-98.533,19.265-218.145,50.277-312.156c15.808-47.919,34.087-87.233,52.861-113.69c5.49-7.737,10.992-14.319,16.398-19.677
	l33.144,42.267l32.012-79.64L544.67,18.73L459.691,30.83z"/>
</svg>
