<?xml version="1.0" encoding="UTF-8" standalone="no"?>
<!-- Generator: Adobe Illustrator 17.0.2, SVG Export Plug-In . SVG Version: 6.00 Build 0)  -->

<svg
   xmlns:dc="http://purl.org/dc/elements/1.1/"
   xmlns:cc="http://creativecommons.org/ns#"
   xmlns:rdf="http://www.w3.org/1999/02/22-rdf-syntax-ns#"
   xmlns:svg="http://www.w3.org/2000/svg"
   xmlns="http://www.w3.org/2000/svg"
   xmlns:sodipodi="http://sodipodi.sourceforge.net/DTD/sodipodi-0.dtd"
   xmlns:inkscape="http://www.inkscape.org/namespaces/inkscape"
   version="1.1"
   id="Capa_1"
   x="0px"
   y="0px"
   width="64px"
   height="64px"
   viewBox="0 0 64 64"
   style="enable-background:new 0 0 64 64;"
   xml:space="preserve"
   inkscape:version="0.91 r13725"
   sodipodi:docname="Uparrow.svg"><metadata
     id="metadata23"><rdf:RDF><cc:Work
         rdf:about=""><dc:format>image/svg+xml</dc:format><dc:type
           rdf:resource="http://purl.org/dc/dcmitype/StillImage" /><dc:title></dc:title></cc:Work></rdf:RDF></metadata><defs
     id="defs21" /><sodipodi:namedview
     pagecolor="#ffffff"
     bordercolor="#666666"
     borderopacity="1"
     objecttolerance="10"
     gridtolerance="10"
     guidetolerance="10"
     inkscape:pageopacity="0"
     inkscape:pageshadow="2"
     inkscape:window-width="865"
     inkscape:window-height="480"
     id="namedview19"
     showgrid="false"
     inkscape:zoom="3.6875"
     inkscape:cx="52.474576"
     inkscape:cy="32"
     inkscape:window-x="503"
     inkscape:window-y="215"
     inkscape:window-maximized="0"
     inkscape:current-layer="Capa_1" /><g
     id="g3"
     transform="matrix(-1,0,0,-1,63.884711,63.919227)"
     style="fill:#0000fc;fill-opacity:1"><path
       style="fill:#0000fc;fill-opacity:1"
       d="m 29.764,60.253 c 2.193,2.598 4.103,0.24 5.646,-1.588 4.198,-4.974 8.396,-9.948 12.594,-14.922 1.301,-1.542 6.492,-6.005 2.24,-7.246 -0.073,-0.021 -0.156,-0.026 -0.242,-0.019 -0.038,-0.004 -0.066,-0.015 -0.11,-0.015 -2.556,0 -7.728,0.143 -7.728,-3.345 0,-1.257 0.043,-1.821 -0.435,-2.976 -0.418,-1.009 -2.66,-0.732 -3.473,-0.732 -4.686,0 -11.182,-1.287 -15.573,0.531 -2.976,1.231 1.56,6.521 -5.07,6.521 -1.976,0 -3.962,-0.444 -5.361,1.153 -1.63,1.861 5.064,7.889 5.932,8.918 3.86,4.574 7.72,9.147 11.58,13.72 z m -4.322,-9.198 c 1.634,-2.853 3.293,-5.688 5.002,-8.487 1.948,-3.189 4.003,-6.315 5.977,-9.483 0.327,-0.525 0.328,-0.525 0.005,0.003 -3.657,5.992 -7.294,11.996 -10.956,17.984 -0.322,0.529 -0.336,0.52 -0.028,-0.017 z m 3.173,5.826 c -0.228,-0.322 -0.449,-0.633 -0.66,-0.92 0.108,-0.053 0.21,-0.134 0.287,-0.271 0.135,-0.245 0.269,-0.489 0.406,-0.732 3.237,-4.918 6.456,-9.851 9.697,-14.767 0.341,-0.517 0.421,-0.473 0.167,0.091 -0.341,0.758 -0.698,1.509 -1.071,2.251 -2.7,4.591 -5.479,9.13 -8.508,13.51 -0.182,0.265 -0.289,0.566 -0.318,0.838 z m 12.767,-7.75 c -0.091,0.258 -0.183,0.517 -0.274,0.775 -0.044,0.125 -0.065,0.216 -0.077,0.295 -0.42,0.498 -0.841,0.997 -1.261,1.495 0.182,-0.341 0.363,-0.682 0.549,-1.022 0.297,-0.54 0.593,-1.08 0.891,-1.621 0.299,-0.541 0.378,-0.505 0.172,0.078 z M 49.609,38.69 c 0.187,-0.372 0.26,-0.762 0.214,-1.019 0.219,0.23 0.257,0.575 0.165,0.999 -0.051,0.094 -0.102,0.19 -0.156,0.296 -0.322,0.633 -0.642,1.268 -0.962,1.902 -0.034,0.067 -0.045,0.104 -0.067,0.157 -0.454,0.671 -0.993,1.376 -1.558,2.067 0.212,-0.315 0.41,-0.635 0.547,-0.892 0.62,-1.162 1.225,-2.333 1.817,-3.51 z m -2.128,-1.236 c 0.365,0.005 0.738,0.008 1.124,0.008 -0.182,0.175 -0.401,0.483 -0.585,0.85 -0.89,1.776 -1.807,3.538 -2.752,5.285 -0.296,0.545 -0.366,0.512 -0.146,-0.066 0.549,-1.448 1.136,-2.878 1.73,-4.305 0.239,-0.571 0.552,-1.231 0.702,-1.475 0.071,-0.116 0.034,-0.219 -0.073,-0.297 z m -6.396,-2.968 c 0.778,2.262 2.698,2.806 5.315,2.934 -0.396,0.163 -0.787,0.491 -0.991,0.878 -0.343,0.647 -0.688,1.292 -1.036,1.936 -3.708,6.223 -7.307,12.508 -10.83,18.839 -0.013,0.016 -0.026,0.031 -0.039,0.047 -1.495,1.771 -2.973,0.333 -4.257,-1.371 0.106,-0.008 0.206,-0.046 0.276,-0.142 0.106,-0.147 0.212,-0.293 0.317,-0.44 3.511,-4.796 6.872,-9.711 9.505,-14.99 0.885,-1.509 1.764,-3.023 2.64,-4.539 0.31,-0.537 0.095,-1.197 -0.321,-1.656 C 41.298,35.58 41.085,35.108 41.085,34.6 l 0,-0.114 z M 27.01,31.438 c 0.315,-0.532 0.072,-0.962 -0.546,-0.962 l -0.896,0 c -0.62,0 -1.367,0.438 -1.669,0.979 -0.117,0.207 -0.234,0.415 -0.351,0.623 0.21,-1.146 0.676,-1.67 2.9,-1.67 1.415,0 8.876,-0.704 12.398,0.069 0.003,0 0.004,0 0.007,0 0.009,0 0.014,0.006 0.023,0.006 0.564,0.126 1.035,0.286 1.351,0.498 -0.221,0.104 -0.441,0.316 -0.578,0.586 -2.459,4.838 -4.958,9.655 -7.573,14.401 -0.829,1.487 -1.657,2.967 -2.509,4.408 -0.744,1.26 -1.473,2.527 -2.193,3.799 -0.099,0.164 -0.196,0.331 -0.294,0.496 -0.025,0.042 -0.032,0.098 -0.045,0.149 -0.474,-0.561 -0.947,-1.122 -1.42,-1.683 0.199,-0.046 0.39,-0.164 0.528,-0.391 4.347,-7.091 8.648,-14.211 12.956,-21.311 0.314,-0.518 0.211,-0.936 -0.221,-0.953 -0.01,-0.002 -0.021,-0.004 -0.03,-0.006 -0.453,0.001 -0.883,0.105 -0.963,0.235 -0.079,0.129 -0.081,0.13 -0.005,0 0.077,-0.13 -0.233,-0.235 -0.691,-0.235 -0.457,0 -1.083,0.431 -1.403,0.961 -2.832,4.697 -5.939,9.247 -8.733,13.954 -0.981,1.655 -1.952,3.317 -2.913,4.987 -0.133,0.231 -0.181,0.515 -0.177,0.801 -0.483,-0.573 -0.967,-1.146 -1.45,-1.718 0.173,-0.075 0.344,-0.218 0.478,-0.452 0.83,-1.448 1.66,-2.894 2.487,-4.343 2.827,-4.524 5.803,-8.956 8.923,-13.283 0.361,-0.502 0.278,-0.907 -0.188,-0.907 -0.467,0 -0.966,0.167 -1.113,0.375 -0.146,0.207 -0.181,0.207 -0.075,0 0.105,-0.207 -0.193,-0.375 -0.667,-0.375 -0.473,0 -1.082,0.448 -1.363,1 -2.29,4.472 -4.743,8.863 -7.24,13.236 -0.622,0.996 -1.236,1.998 -1.843,3.002 -0.14,0.233 -0.21,0.502 -0.231,0.762 -0.926,-1.097 -1.852,-2.194 -2.778,-3.291 0.203,-0.043 0.395,-0.17 0.531,-0.41 2.525,-4.448 4.972,-8.949 7.576,-13.337 z m -11.796,9.378 c -0.457,-0.541 -0.913,-1.081 -1.369,-1.622 -0.172,-0.204 -0.242,-0.379 -0.263,-0.54 0.088,-0.07 0.201,-0.212 0.315,-0.425 0.046,-0.087 0.073,-0.162 0.099,-0.235 0.765,-0.439 2.396,-0.573 3.729,-0.621 -0.397,0.133 -0.836,0.475 -1.094,0.884 -0.376,0.6 -0.755,1.198 -1.138,1.794 -0.156,0.24 -0.245,0.511 -0.279,0.765 z m 2.199,2.606 c -0.22,-0.26 -0.439,-0.52 -0.659,-0.78 -0.28,-0.331 -0.559,-0.662 -0.838,-0.993 0.183,-0.077 0.372,-0.23 0.528,-0.468 0.636,-0.969 1.262,-1.944 1.88,-2.927 0.288,-0.456 0.504,-0.82 0.548,-0.91 0.35,-0.007 0.624,-0.012 0.753,-0.026 0.528,-0.057 1.243,-0.301 1.89,-0.663 -0.475,0.354 -1.032,0.837 -1.289,1.289 -0.879,1.545 -1.758,3.091 -2.637,4.636 -0.138,0.242 -0.187,0.543 -0.176,0.842 z"
       id="path5"
       inkscape:connector-curvature="0" /><path
       style="fill:#0000fc;fill-opacity:1"
       d="m 23.445,27.532 c 0.001,0 0.001,0 0.002,0 0.063,0.025 0.151,0.042 0.288,0.042 5.086,0 10.171,0 15.257,0 1.518,0 2.729,-0.331 3.162,-1.931 0.461,-1.706 0.481,-5.2 -1.729,-5.517 -4.817,-0.69 -10.187,-0.009 -15.056,-0.009 -0.969,0 -2.986,-0.045 -3.323,1.194 -0.522,1.923 -0.941,5.588 1.399,6.221 z m 14.571,-6.685 c 0.538,0 1.077,0 1.615,0 1.736,0 1.349,5.996 0.454,5.996 -0.559,0 -1.118,0 -1.677,0 0.485,-0.178 0.954,-0.496 1.205,-0.876 0.052,-0.077 0.102,-0.155 0.153,-0.232 0.376,-0.568 0.68,-1.58 0.68,-2.261 l 0,-1.414 c 0,-0.289 -0.09,-0.556 -0.244,-0.776 -0.262,-0.373 -0.899,-0.01 -1.215,0.593 -0.708,1.349 -1.425,2.692 -2.148,4.032 -0.216,0.399 -0.154,0.745 0.109,0.933 -0.575,0 -1.15,0 -1.726,0 -0.291,0 -0.581,0 -0.872,0 0.359,-0.181 0.735,-0.509 0.974,-0.9 0.854,-1.399 1.709,-2.798 2.564,-4.197 0.237,-0.39 0.264,-0.718 0.128,-0.898 z m -1.727,0 c 0.31,0 0.619,0 0.929,0 -0.358,0.181 -0.732,0.508 -0.971,0.899 -0.857,1.4 -1.715,2.798 -2.572,4.197 -0.24,0.392 -0.265,0.719 -0.128,0.9 -0.275,0 -0.55,0 -0.825,0 0.173,-0.077 0.315,-0.176 0.382,-0.287 0.087,-0.147 0.174,-0.294 0.263,-0.438 0.905,-1.473 1.831,-2.931 2.761,-4.386 0.246,-0.385 0.284,-0.707 0.161,-0.885 z m -0.777,0 c -0.353,0.179 -0.728,0.501 -0.975,0.886 -0.899,1.402 -1.798,2.805 -2.681,4.215 -0.243,0.389 -0.272,0.714 -0.137,0.895 -0.924,0 -1.848,0 -2.772,0 0.374,-0.179 0.762,-0.501 1.009,-0.886 0.919,-1.424 1.855,-2.838 2.804,-4.243 0.255,-0.377 0.222,-0.691 -0.009,-0.868 0.92,0.001 1.841,0.001 2.761,0.001 z m -9.15,0.922 c 0.223,-0.395 0.169,-0.735 -0.089,-0.922 0.606,0 1.212,0 1.818,0 1.177,0 2.354,0 3.531,0 -0.461,0.185 -0.9,0.524 -1.124,0.929 -0.766,1.387 -1.543,2.769 -2.327,4.149 -0.227,0.399 -0.233,0.734 -0.075,0.918 -1.19,0 -2.379,0 -3.569,0 -0.272,-0.109 -0.505,-0.359 -0.695,-0.713 0.106,-0.109 0.207,-0.242 0.292,-0.392 0.746,-1.324 1.491,-2.648 2.238,-3.969 z M 23.78,20.847 c 0.064,0 0.128,0 0.192,0 -0.129,0.179 -0.335,0.508 -0.557,0.896 -0.083,0.146 -0.162,0.322 -0.234,0.514 0.062,-0.815 0.26,-1.41 0.599,-1.41 z"
       id="path7"
       inkscape:connector-curvature="0" /><path
       style="fill:#0000fc;fill-opacity:1"
       d="m 23.442,18.786 c 0.002,0 0.006,0 0.008,0 0.062,0.022 0.15,0.035 0.28,0.035 5.086,0 10.172,0 15.257,0 1.51,0 2.733,-0.328 3.164,-1.92 0.449,-1.657 0.445,-5.026 -1.725,-5.294 -4.867,-0.6 -10.149,-0.006 -15.055,-0.006 -0.958,0 -2.993,-0.044 -3.325,1.184 -0.514,1.9 -0.903,5.38 1.396,6.001 z m 14.6,-6.483 c 0.528,0 1.057,0 1.586,0 1.717,0 1.354,5.816 0.462,5.816 -0.495,0 -0.99,0 -1.485,0 0.402,-0.188 0.773,-0.464 0.985,-0.786 0.052,-0.077 0.102,-0.155 0.153,-0.232 0.375,-0.568 0.68,-1.58 0.68,-2.261 l 0,-1.414 c 0,-0.289 -0.09,-0.556 -0.244,-0.776 -0.262,-0.373 -0.899,-0.01 -1.215,0.593 -0.708,1.349 -1.425,2.692 -2.148,4.032 -0.185,0.343 -0.164,0.644 0.01,0.843 -0.533,0 -1.066,0 -1.6,0 -0.247,0 -0.493,0 -0.739,0 0.308,-0.193 0.611,-0.477 0.815,-0.81 0.854,-1.399 1.709,-2.798 2.564,-4.197 0.201,-0.332 0.246,-0.615 0.176,-0.808 z m -1.732,0 c 0.242,0 0.483,0 0.725,0 -0.306,0.192 -0.608,0.476 -0.812,0.809 -0.857,1.4 -1.715,2.798 -2.572,4.197 -0.204,0.333 -0.249,0.618 -0.177,0.81 -0.203,0 -0.406,0 -0.609,0 0.093,-0.06 0.172,-0.125 0.215,-0.197 0.087,-0.147 0.174,-0.294 0.263,-0.438 0.905,-1.473 1.831,-2.931 2.761,-4.386 0.21,-0.326 0.266,-0.605 0.206,-0.795 z m -3.488,0 c 0.836,0 1.671,0 2.507,0 -0.303,0.19 -0.605,0.469 -0.815,0.796 -0.9,1.402 -1.798,2.805 -2.681,4.215 -0.207,0.33 -0.254,0.613 -0.185,0.805 -0.852,0 -1.704,0 -2.555,0 0.318,-0.19 0.631,-0.469 0.841,-0.796 0.919,-1.424 1.855,-2.838 2.804,-4.243 0.215,-0.318 0.221,-0.59 0.084,-0.777 z m -6.483,0.832 c 0.191,-0.338 0.177,-0.635 0.009,-0.832 0.579,0 1.159,0 1.739,0 1.105,0 2.211,0 3.317,0 -0.386,0.198 -0.738,0.492 -0.929,0.839 -0.766,1.387 -1.543,2.769 -2.327,4.149 -0.194,0.342 -0.222,0.632 -0.132,0.828 -1.159,0 -2.317,0 -3.475,0 -0.264,-0.102 -0.493,-0.341 -0.682,-0.681 0.087,-0.098 0.17,-0.208 0.241,-0.334 0.747,-1.324 1.492,-2.647 2.239,-3.969 z m -2.563,-0.832 c 0.037,0 0.074,0 0.111,0 -0.13,0.191 -0.306,0.475 -0.495,0.807 -0.073,0.127 -0.142,0.283 -0.206,0.447 0.065,-0.732 0.259,-1.254 0.59,-1.254 z"
       id="path9"
       inkscape:connector-curvature="0" /><path
       style="fill:#0000fc;fill-opacity:1"
       d="m 23.444,10.268 c 0.064,0.026 0.152,0.044 0.292,0.044 5.086,0 10.171,0 15.257,0 1.521,0 2.727,-0.332 3.161,-1.935 0.464,-1.718 0.482,-5.208 -1.731,-5.54 -4.8,-0.719 -10.201,-0.01 -15.056,-0.01 -0.973,0 -2.985,-0.046 -3.322,1.198 -0.522,1.924 -0.943,5.608 1.399,6.243 z M 37.962,3.566 c 0.557,0 1.114,0 1.67,0 1.735,0 1.349,6.005 0.452,6.005 -0.57,0 -1.14,0 -1.71,0 C 38.855,9.392 39.318,9.077 39.567,8.7 39.619,8.623 39.669,8.545 39.72,8.468 40.096,7.9 40.4,6.888 40.4,6.207 l 0,-1.413 c 0,-0.289 -0.09,-0.556 -0.244,-0.776 -0.262,-0.373 -0.899,-0.01 -1.215,0.593 -0.708,1.349 -1.425,2.692 -2.148,4.032 -0.214,0.396 -0.156,0.739 0.102,0.928 -0.558,0 -1.116,0 -1.674,0 -0.303,0 -0.605,0 -0.908,0 C 34.67,9.388 35.042,9.063 35.279,8.676 36.133,7.277 36.988,5.878 37.843,4.479 38.085,4.08 38.11,3.744 37.962,3.566 Z m -1.726,0 c 0.32,0 0.64,0 0.96,0 -0.365,0.178 -0.75,0.513 -0.995,0.913 -0.857,1.4 -1.715,2.798 -2.572,4.197 -0.238,0.388 -0.264,0.713 -0.13,0.895 -0.271,0 -0.542,0 -0.813,0 0.168,-0.077 0.308,-0.173 0.372,-0.282 0.087,-0.146 0.174,-0.293 0.263,-0.438 0.905,-1.473 1.831,-2.931 2.761,-4.386 0.252,-0.393 0.289,-0.723 0.154,-0.899 z m -0.746,0 C 35.13,3.742 34.744,4.072 34.491,4.465 33.592,5.867 32.693,7.27 31.81,8.68 c -0.241,0.385 -0.271,0.708 -0.14,0.89 -0.92,0 -1.84,0 -2.76,0 0.371,-0.18 0.755,-0.5 1,-0.881 0.919,-1.424 1.855,-2.838 2.804,-4.243 0.261,-0.386 0.223,-0.708 -0.023,-0.881 0.933,10e-4 1.866,10e-4 2.799,10e-4 z m -9.174,0.936 c 0.229,-0.405 0.166,-0.753 -0.11,-0.936 0.628,0 1.257,0 1.886,0 1.171,0 2.342,0 3.514,0 -0.472,0.182 -0.925,0.529 -1.154,0.942 -0.766,1.387 -1.543,2.77 -2.327,4.149 -0.225,0.396 -0.232,0.729 -0.079,0.913 -1.175,0 -2.349,0 -3.524,0 C 24.244,9.457 24.008,9.195 23.815,8.827 23.91,8.726 24,8.606 24.077,8.471 24.824,7.147 25.569,5.824 26.316,4.502 Z M 23.781,3.566 c 0.052,0 0.103,0 0.155,0 -0.128,0.175 -0.34,0.513 -0.566,0.91 -0.064,0.113 -0.123,0.253 -0.182,0.395 0.071,-0.761 0.268,-1.305 0.593,-1.305 z"
       id="path11"
       inkscape:connector-curvature="0" /><path
       style="fill:#0000fc;fill-opacity:1"
       d="m 40.296,25.765 c -0.048,0.108 -0.097,0.215 -0.15,0.32 -0.074,0.127 -0.15,0.253 -0.226,0.379 -0.126,0.209 0.103,0.229 0.321,-0.122 0.13,-0.207 0.205,-0.451 0.205,-0.713 0,0 0,-0.041 0,-0.091 -10e-4,-0.052 -0.069,0.05 -0.15,0.227 z"
       id="path13"
       inkscape:connector-curvature="0" /><path
       style="fill:#0000fc;fill-opacity:1"
       d="m 40.273,17.131 c -0.048,0.108 -0.097,0.215 -0.15,0.32 -0.074,0.127 -0.15,0.253 -0.226,0.379 -0.126,0.209 0.103,0.229 0.321,-0.122 0.13,-0.207 0.205,-0.451 0.205,-0.713 0,0 0,-0.041 0,-0.091 -0.001,-0.052 -0.069,0.051 -0.15,0.227 z"
       id="path15"
       inkscape:connector-curvature="0" /><path
       style="fill:#0000fc;fill-opacity:1"
       d="m 40.25,8.498 c -0.048,0.108 -0.097,0.215 -0.15,0.32 -0.074,0.127 -0.15,0.253 -0.226,0.379 -0.126,0.209 0.103,0.229 0.321,-0.122 0.13,-0.207 0.205,-0.451 0.205,-0.713 0,0 0,-0.041 0,-0.091 -10e-4,-0.052 -0.069,0.05 -0.15,0.227 z"
       id="path17"
       inkscape:connector-curvature="0" /></g></svg>