<?xml version="1.0" encoding="UTF-8" standalone="no"?>
<!-- Generator: Adobe Illustrator 16.0.0, SVG Export Plug-In . SVG Version: 6.00 Build 0)  -->

<svg
   xmlns:osb="http://www.openswatchbook.org/uri/2009/osb"
   xmlns:dc="http://purl.org/dc/elements/1.1/"
   xmlns:cc="http://creativecommons.org/ns#"
   xmlns:rdf="http://www.w3.org/1999/02/22-rdf-syntax-ns#"
   xmlns:svg="http://www.w3.org/2000/svg"
   xmlns="http://www.w3.org/2000/svg"
   xmlns:xlink="http://www.w3.org/1999/xlink"
   xmlns:sodipodi="http://sodipodi.sourceforge.net/DTD/sodipodi-0.dtd"
   xmlns:inkscape="http://www.inkscape.org/namespaces/inkscape"
   version="1.1"
   id="Layer_1"
   x="0px"
   y="0px"
   width="96px"
   height="96px"
   viewBox="0 0 96 96"
   enable-background="new 0 0 96 96"
   xml:space="preserve"
   inkscape:version="0.48.4 r9939"
   sodipodi:docname="subinterval.svg"><metadata
     id="metadata13"><rdf:RDF><cc:Work
         rdf:about=""><dc:format>image/svg+xml</dc:format><dc:type
           rdf:resource="http://purl.org/dc/dcmitype/StillImage" /><dc:title></dc:title></cc:Work></rdf:RDF></metadata><defs
     id="defs11"><linearGradient
       inkscape:collect="always"
       id="linearGradient5202"
       osb:paint="gradient"><stop
         style="stop-color:#00d100;stop-opacity:1;"
         offset="0"
         id="stop5204" /><stop
         style="stop-color:#00d100;stop-opacity:0;"
         offset="1"
         id="stop5206" /></linearGradient><linearGradient
       inkscape:collect="always"
       id="linearGradient3760"><stop
         style="stop-color:#0000fc;stop-opacity:1;"
         offset="0"
         id="stop3762" /><stop
         style="stop-color:#0000fc;stop-opacity:0;"
         offset="1"
         id="stop3764" /></linearGradient><linearGradient
       inkscape:collect="always"
       xlink:href="#linearGradient3760"
       id="linearGradient3766"
       x1="0.9795754"
       y1="48.627153"
       x2="95.264488"
       y2="48.627153"
       gradientUnits="userSpaceOnUse"
       gradientTransform="matrix(0.61283451,0,0,1.3032693,17.410851,-15.153897)" /></defs><sodipodi:namedview
     pagecolor="#ffffff"
     bordercolor="#666666"
     borderopacity="1"
     objecttolerance="10"
     gridtolerance="10"
     guidetolerance="10"
     inkscape:pageopacity="0"
     inkscape:pageshadow="2"
     inkscape:window-width="737"
     inkscape:window-height="580"
     id="namedview9"
     showgrid="false"
     inkscape:zoom="2.4583333"
     inkscape:cx="48"
     inkscape:cy="48"
     inkscape:window-x="0"
     inkscape:window-y="0"
     inkscape:window-maximized="0"
     inkscape:current-layer="Layer_1" /><path
     inkscape:connector-curvature="0"
     id="path5"
     d="M 80.439746,16.620758 V 5.7975418 H 71.743991 V 8.6947284 H 51.534319 V 5.7975418 H 42.838563 V 8.6947284 H 22.628891 V 5.7975418 H 13.933135 V 16.620758 h 2.327704 v 23.917928 h -2.327704 v 10.823216 h 2.327704 v 26.390219 h -2.327704 v 10.823218 h 8.695756 v -2.897186 h 20.209672 v 2.896289 h 8.695756 v -2.896289 h 20.209672 v 2.896289 h 8.695755 V 77.752121 H 78.112043 V 51.361902 h 2.326984 V 40.538686 H 78.112043 V 16.620758 h 2.327703 z m -6.368772,23.917928 h -2.326983 v 10.823216 h 2.326983 v 26.390219 h -2.326983 v 2.896294 H 51.534319 v -2.896294 h -8.695756 v 2.896294 H 22.628891 V 77.752121 H 20.301908 V 51.361902 h 2.326983 V 40.538686 H 20.301908 V 16.620758 h 2.326983 v -2.89629 h 20.209672 v 2.89629 h 8.695756 v -2.89629 h 20.209672 v 2.89629 h 2.326983 v 23.917928 z"
     style="fill:#00d100;fill-opacity:1;stroke:#0000fc;stroke-width:0.80349046;stroke-opacity:1" /><rect
     id="rect7"
     height="52.899696"
     width="57.781048"
     y="21.770527"
     x="18.011169"
     style="opacity:0.51408452;fill:#e2d100;fill-opacity:1;stroke:url(#linearGradient3766);stroke-width:0.89369357" /><g
     style="fill:#0000fe;fill-opacity:1"
     transform="matrix(2.2147052,0,0,1.0874443,-21.828575,12.691938)"
     id="g4888"><path
       style="fill:#0000fe;fill-opacity:1"
       inkscape:connector-curvature="0"
       id="path4890"
       d="m 22.776,29.751 c 0.111,0.131 0.273,0.217 0.445,0.25 0.283,0.056 0.652,-0.168 0.828,-0.297 0.177,-0.13 0.86,-1.477 1.829,-2.822 3.598,-4.996 9.233,-6.635 10.623,-6.973 l 1.94,1.913 c 0.69,0.689 1.309,0.56 1.627,0.241 0.234,-0.233 0.354,-0.591 0.354,-1.061 L 40.42,14.066 c 0,-1.143 -0.93,-2.073 -2.072,-2.073 l -6.937,-0.002 c -0.472,0 -0.828,0.118 -1.061,0.353 -0.319,0.319 -0.448,0.938 0.241,1.627 l 1.752,1.751 c -2.394,1.079 -8.153,4.261 -9.621,10.382 -0.387,1.611 -0.276,3.134 -0.168,3.322 0.063,0.11 0.14,0.229 0.222,0.325 z m 10.578,-13.449 0.707,-0.303 -0.668,-0.708 -2.077,-2.046 c -0.081,-0.081 -0.134,-0.151 -0.165,-0.202 0.053,-0.013 0.136,-0.025 0.26,-0.025 l 6.935,10e-4 c 0.578,0 1.049,0.471 1.049,1.049 l 0.002,6.935 c 0,0.123 -0.013,0.206 -0.025,0.26 -0.051,-0.031 -0.121,-0.084 -0.202,-0.165 l -2.347,-2.347 c -0.092,0.015 -9.042,1.765 -13.211,9.519 0.571,-8.507 9.643,-11.935 9.742,-11.968 z" /><path
       style="fill:#0000fe;fill-opacity:1"
       inkscape:connector-curvature="0"
       id="path4892"
       d="m 40.098,31.446 c -0.111,-0.131 -0.273,-0.217 -0.445,-0.251 -0.283,-0.056 -0.652,0.168 -0.828,0.297 -0.178,0.13 -0.86,1.477 -1.829,2.822 -3.599,4.996 -9.234,6.635 -10.623,6.973 l -1.941,-1.913 c -0.691,-0.688 -1.308,-0.562 -1.627,-0.241 -0.234,0.233 -0.352,0.592 -0.352,1.062 l 0.002,6.936 c 0,1.143 0.93,2.073 2.073,2.073 l 6.935,0.002 c 0.472,0 0.828,-0.118 1.062,-0.353 0.318,-0.319 0.447,-0.938 -0.241,-1.627 l -1.752,-1.752 c 2.393,-1.078 8.154,-4.261 9.621,-10.382 0.388,-1.61 0.276,-3.134 0.168,-3.322 -0.065,-0.109 -0.141,-0.228 -0.223,-0.324 z m -10.578,13.449 -0.708,0.304 0.668,0.708 2.077,2.046 c 0.081,0.081 0.134,0.151 0.165,0.202 -0.053,0.013 -0.136,0.025 -0.26,0.025 l -6.935,-0.002 c -0.578,0 -1.048,-0.471 -1.049,-1.049 l -0.002,-6.936 c 0,-0.123 0.013,-0.205 0.026,-0.26 0.05,0.031 0.121,0.084 0.202,0.166 l 2.347,2.346 c 0.092,-0.014 9.042,-1.764 13.211,-9.519 -0.573,8.508 -9.643,11.935 -9.742,11.969 z" /></g></svg>