<?xml version="1.0" encoding="UTF-8" standalone="no"?>
<!-- Generator: Adobe Illustrator 16.0.0, SVG Export Plug-In . SVG Version: 6.00 Build 0)  -->

<svg
   xmlns:dc="http://purl.org/dc/elements/1.1/"
   xmlns:cc="http://creativecommons.org/ns#"
   xmlns:rdf="http://www.w3.org/1999/02/22-rdf-syntax-ns#"
   xmlns:svg="http://www.w3.org/2000/svg"
   xmlns="http://www.w3.org/2000/svg"
   xmlns:sodipodi="http://sodipodi.sourceforge.net/DTD/sodipodi-0.dtd"
   xmlns:inkscape="http://www.inkscape.org/namespaces/inkscape"
   version="1.1"
   id="Capa_1"
   x="0px"
   y="0px"
   width="23.416px"
   height="29.259px"
   viewBox="0 0 23.416 29.259"
   style="enable-background:new 0 0 23.416 29.259;"
   xml:space="preserve"
   inkscape:version="0.91 r13725"
   sodipodi:docname="uploadhtml.svg"><metadata
     id="metadata3880"><rdf:RDF><cc:Work
         rdf:about=""><dc:format>image/svg+xml</dc:format><dc:type
           rdf:resource="http://purl.org/dc/dcmitype/StillImage" /><dc:title></dc:title></cc:Work></rdf:RDF></metadata><defs
     id="defs3878" /><sodipodi:namedview
     pagecolor="#ffffff"
     bordercolor="#666666"
     borderopacity="1"
     objecttolerance="10"
     gridtolerance="10"
     guidetolerance="10"
     inkscape:pageopacity="0"
     inkscape:pageshadow="2"
     inkscape:window-width="1168"
     inkscape:window-height="764"
     id="namedview3876"
     showgrid="false"
     inkscape:zoom="14.490583"
     inkscape:cx="11.097496"
     inkscape:cy="15.437695"
     inkscape:window-x="2195"
     inkscape:window-y="334"
     inkscape:window-maximized="0"
     inkscape:current-layer="Capa_1" /><path
     d="M11.705,15.953c-5.494,0-10.098-1.614-11.355-3.79C0.129,12.546,0,12.944,0,13.357v3.561c0,2.751,5.242,4.983,11.705,4.983  c6.467,0,11.711-2.232,11.711-4.983v-3.561c0-0.413-0.131-0.811-0.354-1.194C21.805,14.338,17.205,15.953,11.705,15.953z"
     id="path3838"
     style="fill:#0073fc;fill-opacity:1" /><path
     d="M11.705,23.309c-5.494,0-10.098-1.616-11.355-3.788C0.129,19.902,0,20.3,0,20.712v3.564c0,2.752,5.242,4.983,11.705,4.983  c6.467,0,11.711-2.23,11.711-4.983v-3.564c0-0.412-0.131-0.81-0.354-1.19C21.805,21.693,17.205,23.309,11.705,23.309z"
     id="path3840"
     style="fill:#0073fc;fill-opacity:1" /><path
     d="M23.096,5.041c-0.23,2.016-5.232,3.629-11.391,3.629c-6.156,0-11.158-1.613-11.387-3.628C0.117,5.408,0,5.79,0,6.183v3.561  c0,2.752,5.242,4.983,11.705,4.983c6.467,0,11.711-2.23,11.711-4.983V6.183C23.416,5.79,23.297,5.408,23.096,5.041z"
     id="path3842"
     style="fill:#0073fc;fill-opacity:1" /><path
     d="M11.705,7.54c6.303,0,11.41-1.687,11.41-3.771c0-2.082-5.107-3.77-11.41-3.77C5.406,0,0.297,1.688,0.297,3.77  C0.297,5.853,5.406,7.54,11.705,7.54z"
     id="path3844"
     style="fill:#0073fc;fill-opacity:1" /><g
     id="g3846" /><g
     id="g3848" /><g
     id="g3850" /><g
     id="g3852" /><g
     id="g3854" /><g
     id="g3856" /><g
     id="g3858" /><g
     id="g3860" /><g
     id="g3862" /><g
     id="g3864" /><g
     id="g3866" /><g
     id="g3868" /><g
     id="g3870" /><g
     id="g3872" /><g
     id="g3874" /><text
     xml:space="preserve"
     style="font-style:normal;font-variant:normal;font-weight:bold;font-stretch:normal;font-size:6.68484211px;line-height:125%;font-family:'Bera Sans';-inkscape-font-specification:'Bera Sans, Bold';text-align:start;letter-spacing:0px;word-spacing:0px;writing-mode:lr-tb;text-anchor:start;fill:#000000;fill-opacity:1;stroke:none;stroke-width:1px;stroke-linecap:butt;stroke-linejoin:miter;stroke-opacity:1"
     x="2.6288261"
     y="28.341951"
     id="text4170"
     sodipodi:linespacing="125%"
     transform="scale(1.0468238,0.95527058)"><tspan
       sodipodi:role="line"
       id="tspan4172"
       x="2.6288261"
       y="28.341951">html</tspan></text>
<g
     id="g4179"
     transform="matrix(3.5757996e-4,-0.00824369,0.00996038,1.9818043e-4,3.3276477,22.054908)"><polygon
       id="polygon4181"
       points="187.1013,793.0156 151.5635,844.1791 121.4249,844.1791 146.3,808.3578 84.7647,808.3578 84.7647,777.6607 146.3,777.6607 121.4249,741.8426 151.5635,741.8426 " /><polygon
       id="polygon4183"
       points="1511.764,501.3776 1477.4714,550.7487 1448.3887,550.7487 1472.3922,516.1824 1413.0129,516.1824 1413.0129,486.5607 1472.3922,486.5607 1448.3887,451.9975 1477.4714,451.9975 " /><polygon
       id="polygon4185"
       points="1777.6313,844.9065 1742.7043,895.1908 1713.0836,895.1908 1737.5313,859.9851 1677.0535,859.9851 1677.0535,829.8155 1737.5313,829.8155 1713.0836,794.613 1742.7043,794.613 " /><polygon
       id="polygon4187"
       points="1668.8495,799.4975 1629.5157,856.1261 1596.158,856.1261 1623.6901,816.4786 1555.5819,816.4786 1555.5819,782.5025 1623.6901,782.5025 1596.158,742.8586 1629.5157,742.8586 " /><polygon
       id="polygon4189"
       points="815.3284,911.2288 777.5918,965.558 745.5884,965.558 772.0026,927.5203 706.6599,927.5203 706.6599,894.9238 772.0026,894.9238 745.5884,856.8895 777.5918,856.8895 " /><polygon
       id="polygon4191"
       points="1510.4742,1181.8137 1473.7614,1234.6691 1442.6261,1234.6691 1468.3237,1197.6633 1404.7537,1197.6633 1404.7537,1165.951 1468.3237,1165.951 1442.6261,1128.9486 1473.7614,1128.9486 " /><polygon
       id="polygon4193"
       points="568.673,658.7498 534.9681,707.2745 506.3839,707.2745 529.976,673.3007 471.6145,673.3007 471.6145,644.1868 529.976,644.1868 506.3839,610.2161 534.9681,610.2161 " /><polygon
       id="polygon4195"
       points="2167.8335,885.7135 2134.3975,933.8513 2106.0413,933.8513 2129.4451,900.1484 2071.5491,900.1484 2071.5491,871.2667 2129.4451,871.2667 2106.0413,837.567 2134.3975,837.567 " /><polygon
       id="polygon4197"
       points="1728.1299,598.248 1694.381,646.8362 1665.7595,646.8362 1689.3824,612.8181 1630.9447,612.8181 1630.9447,583.6661 1689.3824,583.6661 1665.7595,549.6511 1694.381,549.6511 " /><polygon
       id="polygon4199"
       points="651.5923,879.1375 617.8478,927.7193 589.2301,927.7193 612.8499,893.7056 554.4198,893.7056 554.4198,864.5574 612.8499,864.5574 589.2301,830.5468 617.8478,830.5468 " /><polygon
       id="polygon4201"
       points="1657.2631,407.2983 1619.106,462.2329 1586.746,462.2329 1613.4545,423.7714 1547.3837,423.7714 1547.3837,390.8117 1613.4545,390.8117 1586.746,352.3536 1619.106,352.3536 " /><polygon
       id="polygon4203"
       points="377.7169,980.8736 338.8682,1036.804 305.9217,1036.804 333.1143,997.6453 265.846,997.6453 265.846,964.0881 333.1143,964.0881 305.9217,924.933 338.8682,924.933 " /><polygon
       id="polygon4205"
       points="1699.8761,300.8434 1660.3951,357.684 1626.9125,357.684 1654.5476,317.888 1586.1846,317.888 1586.1846,283.7848 1654.5476,283.7848 1626.9125,243.9924 1660.3951,243.9924 " /><polygon
       id="polygon4207"
       points="1035.3705,823.6267 1002.0145,871.6492 973.7263,871.6492 997.0742,838.0271 939.3168,838.0271 939.3168,809.2145 997.0742,809.2145 973.7263,775.5955 1002.0145,775.5955 " /><polygon
       id="polygon4209"
       points="1362.1449,331.698 1328.2572,380.4861 1299.5179,380.4861 1323.238,346.328 1264.5598,346.328 1264.5598,317.0561 1323.238,317.0561 1299.5179,282.901 1328.2572,282.901 " /><polygon
       id="polygon4211"
       points="1568.9941,307.9234 1534.8752,357.0443 1505.9399,357.0443 1529.8219,322.6532 1470.7435,322.6532 1470.7435,293.1816 1529.8219,293.1816 1505.9399,258.7936 1534.8752,258.7936 " /><polygon
       id="polygon4213"
       points="1616.5284,1201.585 1579.0587,1255.53 1547.2816,1255.53 1573.509,1217.7612 1508.6284,1217.7612 1508.6284,1185.3953 1573.509,1185.3953 1547.2816,1147.63 1579.0587,1147.63 " /><polygon
       id="polygon4215"
       points="1973.9709,841.2291 1934.6991,897.7687 1901.3937,897.7687 1928.8824,858.1835 1860.8815,858.1835 1860.8815,824.2609 1928.8824,824.2609 1901.3937,784.6793 1934.6991,784.6793 " /><polygon
       id="polygon4217"
       points="1737.2684,1267.3992 1700.7443,1319.9829 1669.769,1319.9829 1695.3346,1283.1674 1632.0913,1283.1674 1632.0913,1251.6182 1695.3346,1251.6182 1669.769,1214.8058 1700.7443,1214.8058 " /><polygon
       id="polygon4219"
       points="989.9888,716.5599 956.4991,764.7749 928.0974,764.7749 951.5389,731.018 893.55,731.018 893.55,702.09 951.5389,702.09 928.0974,668.3361 956.4991,668.3361 " /><polygon
       id="polygon4221"
       points="1499.1493,197.3426 1460.9432,252.3477 1428.5416,252.3477 1455.2844,213.8368 1389.1289,213.8368 1389.1289,180.8348 1455.2844,180.8348 1428.5416,142.3273 1460.9432,142.3273 " /><polygon
       id="polygon4223"
       points="1458.4838,409.7351 1421.4189,463.0972 1389.9852,463.0972 1415.9292,425.7366 1351.7498,425.7366 1351.7498,393.7204 1415.9292,393.7204 1389.9852,356.3632 1421.4189,356.3632 " /><polygon
       id="polygon4225"
       points="1328.2689,711.053 1292.8539,762.04 1262.8193,762.04 1287.6085,726.3423 1226.2856,726.3423 1226.2856,695.7512 1287.6085,695.7512 1262.8193,660.0568 1292.8539,660.0568 " /><polygon
       id="polygon4227"
       points="286.2298,743.027 247.4987,798.788 214.652,798.788 241.7622,759.7479 174.6977,759.7479 174.6977,726.2925 241.7622,726.2925 214.652,687.2559 247.4987,687.2559 " /><polygon
       id="polygon4229"
       points="1547.6758,1405.1201 1510.8724,1458.1057 1479.6606,1458.1057 1505.4215,1421.0088 1441.6949,1421.0088 1441.6949,1389.2185 1505.4215,1389.2185 1479.6606,1352.1249 1510.8724,1352.1249 " /><polygon
       id="polygon4231"
       points="1865.833,997.2237 1831.3899,1046.8114 1802.1796,1046.8114 1826.2885,1012.0934 1766.6487,1012.0934 1766.6487,982.3418 1826.2885,982.3418 1802.1796,947.627 1831.3899,947.627 " /><polygon
       id="polygon4233"
       points="152.3103,967.7205 116.8294,1018.8022 86.7389,1018.8022 111.5742,983.0382 50.1374,983.0382 50.1374,952.3901 111.5742,952.3901 86.7389,916.6293 116.8294,916.6293 " /><polygon
       id="polygon4235"
       points="265.8708,997.5266 229.1236,1050.4313 197.9594,1050.4313 223.681,1013.3909 160.0516,1013.3909 160.0516,981.6491 223.681,981.6491 197.9594,944.6121 229.1236,944.6121 " /><polygon
       id="polygon4237"
       points="1236.9551,1482.4662 1202.3367,1532.3064 1172.9777,1532.3064 1197.2092,1497.4116 1137.2657,1497.4116 1137.2657,1467.5085 1197.2092,1467.5085 1172.9777,1432.6169 1202.3367,1432.6169 " /><polygon
       id="polygon4239"
       points="2082.7097,603.0433 2048.2539,652.649 2019.033,652.649 2043.1506,617.9184 1983.489,617.9184 1983.489,588.1559 2043.1506,588.1559 2019.033,553.4283 2048.2539,553.4283 " /><polygon
       id="polygon4241"
       points="1528.7933,679.1752 1492.6199,731.2539 1461.9423,731.2539 1487.2622,694.7919 1424.6265,694.7919 1424.6265,663.5457 1487.2622,663.5457 1461.9423,627.087 1492.6199,627.087 " /><polygon
       id="polygon4243"
       points="1353.6459,75.578 1319.1307,125.2694 1289.8594,125.2694 1314.0187,90.4788 1254.254,90.4788 1254.254,60.665 1314.0187,60.665 1289.8594,25.8775 1319.1307,25.8775 " /><polygon
       id="polygon4245"
       points="511.5961,880.0898 475.985,931.3589 445.7841,931.3589 470.7106,895.4637 409.0483,895.4637 409.0483,864.7032 470.7106,864.7032 445.7841,828.8112 475.985,828.8112 " /><polygon
       id="polygon4247"
       points="281.0537,634.2463 244.2146,687.2836 212.9723,687.2836 238.7583,650.1505 174.9696,650.1505 174.9696,618.3292 238.7583,618.3292 212.9723,581.1995 244.2146,581.1995 " /><polygon
       id="polygon4249"
       points="1213.5237,101.9231 1179.9067,150.3213 1151.3971,150.3213 1174.9276,116.4361 1116.7184,116.4361 1116.7184,87.3981 1174.9276,87.3981 1151.3971,53.516 1179.9067,53.516 " /><polygon
       id="polygon4251"
       points="1433.0679,872.078 1397.627,923.1022 1367.5704,923.1022 1392.3777,887.3785 1331.0101,887.3785 1331.0101,856.765 1392.3777,856.765 1367.5704,821.0446 1397.627,821.0446 " /><polygon
       id="polygon4253"
       points="751.9951,629.647 717.1379,679.8307 687.5765,679.8307 711.9752,644.6955 651.6185,644.6955 651.6185,614.5862 711.9752,614.5862 687.5765,579.4542 717.1379,579.4542 " /><polygon
       id="polygon4255"
       points="643.8831,988.1088 607.2421,1040.8607 576.1678,1040.8607 601.8151,1003.9273 538.3696,1003.9273 538.3696,972.2772 601.8151,972.2772 576.1678,935.3472 607.2421,935.3472 " /><polygon
       id="polygon4257"
       points="1089.9452,1552.6783 1054.2372,1604.0869 1023.9543,1604.0869 1048.9485,1568.0941 987.1185,1568.0941 987.1185,1537.25 1048.9485,1537.25 1023.9543,1501.2604 1054.2372,1501.2604 " /><polygon
       id="polygon4259"
       points="1657.4673,664.7328 1624.1309,712.7271 1595.8593,712.7271 1619.1934,679.1248 1561.47,679.1248 1561.47,650.3292 1619.1934,650.3292 1595.8593,616.7298 1624.1309,616.7298 " /><polygon
       id="polygon4261"
       points="1535.5303,902.017 1501.6672,950.7697 1472.9489,950.7697 1496.6517,916.6364 1438.0162,916.6364 1438.0162,887.3857 1496.6517,887.3857 1472.9489,853.2556 1501.6672,853.2556 " /><polygon
       id="polygon4263"
       points="2200.084,746.0887 2160.1008,803.6525 2126.1921,803.6525 2154.1787,763.3502 2084.946,763.3502 2084.946,728.813 2154.1787,728.813 2126.1921,688.5143 2160.1008,688.5143 " /><polygon
       id="polygon4265"
       points="751.8601,743.7885 714.9239,796.9654 683.5992,796.9654 709.4532,759.7345 645.4965,759.7345 645.4965,727.8293 709.4532,727.8293 683.5992,690.6017 714.9239,690.6017 " /><polygon
       id="polygon4267"
       points="1155.9362,715.3736 1122.0276,764.1917 1093.2705,764.1917 1117.0052,730.0126 1058.291,730.0126 1058.291,700.7227 1117.0052,700.7227 1093.2705,666.5466 1122.0276,666.5466 " /><polygon
       id="polygon4269"
       points="1331.0397,1364.6201 1297.5435,1412.8444 1269.1364,1412.8444 1292.5823,1379.0809 1234.5823,1379.0809 1234.5823,1350.1473 1292.5823,1350.1473 1269.1364,1316.387 1297.5435,1316.387 " /><polygon
       id="polygon4271"
       points="2060.9868,742.3079 2022.938,797.0866 1990.6698,797.0866 2017.3025,758.7342 1951.4193,758.7342 1951.4193,725.868 2017.3025,725.868 1990.6698,687.5191 2022.938,687.5191 " /><polygon
       id="polygon4273"
       points="127.0272,711.7997 93.6908,759.794 65.4192,759.794 88.7534,726.1917 31.0299,726.1917 31.0299,697.3961 88.7534,697.3961 65.4192,663.7967 93.6908,663.7967 " /><polygon
       id="polygon4275"
       points="629.8664,732.9641 596.53,780.9584 568.2584,780.9584 591.5925,747.356 533.8691,747.356 533.8691,718.5604 591.5925,718.5604 568.2584,684.9611 596.53,684.9611 " /><polygon
       id="polygon4277"
       points="1426.1733,735.7763 1392.4672,784.303 1363.8818,784.303 1387.4749,750.3279 1329.1111,750.3279 1329.1111,721.2128 1387.4749,721.2128 1363.8818,687.2408 1392.4672,687.2408 " /><polygon
       id="polygon4279"
       points="1398.3101,1470.2975 1360.7588,1524.36 1328.9125,1524.36 1355.197,1486.509 1290.1752,1486.509 1290.1752,1454.0726 1355.197,1454.0726 1328.9125,1416.225 1360.7588,1416.225 " /><polygon
       id="polygon4281"
       points="1308.6448,944.3737 1274.0865,994.1269 1244.7788,994.1269 1268.9681,959.293 1209.1292,959.293 1209.1292,929.442 1268.9681,929.442 1244.7788,894.6113 1274.0865,894.6113 " /><polygon
       id="polygon4283"
       points="1592.1531,979.9212 1558.8168,1027.9154 1530.545,1027.9154 1553.8793,994.3131 1496.1558,994.3131 1496.1558,965.5175 1553.8793,965.5175 1530.545,931.9182 1558.8168,931.9182 " /><polygon
       id="polygon4285"
       points="394.1099,671.4489 356.3548,725.8048 324.3357,725.8048 350.7628,687.7485 285.3881,687.7485 285.3881,655.1359 350.7628,655.1359 324.3357,617.083 356.3548,617.083 " /><polygon
       id="polygon4287"
       points="1907.6403,1095.5007 1872.655,1145.869 1842.9849,1145.869 1867.4733,1110.6045 1806.8945,1110.6045 1806.8945,1080.3845 1867.4733,1080.3845 1842.9849,1045.1233 1872.655,1045.1233 " /><polygon
       id="polygon4289"
       points="426.6758,781.401 389.5284,834.882 358.0247,834.882 384.0264,797.4382 319.704,797.4382 319.704,765.3506 384.0264,765.3506 358.0247,727.9102 389.5284,727.9102 " /><polygon
       id="polygon4291"
       points="1089.6467,61.2699 1056.3076,109.268 1028.0338,109.268 1051.3698,75.6629 993.6418,75.6629 993.6418,46.8651 1051.3698,46.8651 1028.0338,13.2631 1056.3076,13.2631 " /><polygon
       id="polygon4293"
       points="1160.306,827.1128 1125.594,877.0877 1096.1555,877.0877 1120.4528,842.0986 1060.347,842.0986 1060.347,812.1147 1120.4528,812.1147 1096.1555,777.1287 1125.594,777.1287 " /><polygon
       id="polygon4295"
       points="1840.7832,683.9761 1805.7615,734.3968 1776.0605,734.3968 1800.5743,699.0956 1739.9327,699.0956 1739.9327,668.8442 1800.5743,668.8442 1776.0605,633.5463 1805.7615,633.5463 " /><polygon
       id="polygon4297"
       points="1553.8019,1551.3455 1516.6206,1604.8751 1485.0881,1604.8751 1511.1136,1567.3972 1446.7325,1567.3972 1446.7325,1535.2804 1511.1136,1535.2804 1485.0881,1497.8059 1516.6206,1497.8059 " /><polygon
       id="polygon4299"
       points="1393.4617,164.0137 1360.1252,212.0079 1331.8536,212.0079 1355.1879,178.4056 1297.4644,178.4056 1297.4644,149.61 1355.1879,149.61 1331.8536,116.0106 1360.1252,116.0106 " /><polygon
       id="polygon4301"
       points="931.6358,860.0969 897.6253,909.0617 868.7819,909.0617 892.588,874.7798 833.6973,874.7798 833.6973,845.4019 892.588,845.4019 868.7819,811.1232 897.6253,811.1232 " /><polygon
       id="polygon4303"
       points="919.8553,1005.2009 886.5099,1053.2081 858.2306,1053.2081 881.5711,1019.5967 823.832,1019.5967 823.832,990.7933 881.5711,990.7933 858.2306,957.1849 886.5099,957.1849 " /><polygon
       id="polygon4305"
       points="1242.8242,770.8551 1208.1456,820.7817 1178.7357,820.7817 1203.0093,785.8265 1142.9618,785.8265 1142.9618,755.8715 1203.0093,755.8715 1178.7357,720.9194 1208.1456,720.9194 " /><polygon
       id="polygon4307"
       points="2014.9692,998.5581 1980.0303,1048.8596 1950.3994,1048.8596 1974.8553,1013.6419 1914.3569,1013.6419 1914.3569,983.462 1974.8553,983.462 1950.3994,948.2474 1980.0303,948.2474 " /><polygon
       id="polygon4309"
       points="1408.8469,1210.848 1372.619,1263.0051 1341.8951,1263.0051 1367.2533,1226.4883 1304.5231,1226.4883 1304.5231,1195.1949 1367.2533,1195.1949 1341.8951,1158.6813 1372.619,1158.6813 " /><polygon
       id="polygon4311"
       points="1901.3602,573.2722 1866.6675,623.2192 1837.2456,623.2192 1861.5292,588.2497 1801.4572,588.2497 1801.4572,558.2825 1861.5292,558.2825 1837.2456,523.3161 1866.6675,523.3161 " /><polygon
       id="polygon4313"
       points="1710.6161,1087.2563 1674.1846,1139.7068 1643.288,1139.7068 1668.7886,1102.9845 1605.7057,1102.9845 1605.7057,1071.5153 1668.7886,1071.5153 1643.288,1034.7964 1674.1846,1034.7964 " /><polygon
       id="polygon4315"
       points="1336.8282,1556.0109 1303.4918,1604.0051 1275.2202,1604.0051 1298.5543,1570.4028 1240.8309,1570.4028 1240.8309,1541.6072 1298.5543,1541.6072 1275.2202,1508.0078 1303.4918,1508.0078 " /><polygon
       id="polygon4317"
       points="1811.2825,1124.5526 1777.946,1172.5469 1749.6743,1172.5469 1773.0085,1138.9446 1715.2852,1138.9446 1715.2852,1110.1489 1773.0085,1110.1489 1749.6743,1076.5497 1777.946,1076.5497 " /><polygon
       id="polygon4319"
       points="1544.7498,97.602 1506.7153,152.3601 1474.4592,152.3601 1501.0819,114.0221 1435.2235,114.0221 1435.2235,81.1683 1501.0819,81.1683 1474.4592,42.8338 1506.7153,42.8338 " /><polygon
       id="polygon4321"
       points="1897.6548,449.5379 1864.1035,497.8415 1835.6495,497.8415 1859.1342,464.0226 1801.0387,464.0226 1801.0387,435.0413 1859.1342,435.0413 1835.6495,401.2254 1864.1035,401.2254 " /><polygon
       id="polygon4323"
       points="1210.199,212.9169 1174.9125,263.7188 1144.9869,263.7188 1169.6862,228.1508 1108.5859,228.1508 1108.5859,197.6706 1169.6862,197.6706 1144.9869,162.1057 1174.9125,162.1057 " /><polygon
       id="polygon4325"
       points="2010.6718,1104.2015 1975.3406,1155.0677 1945.3771,1155.0677 1970.1075,1119.4546 1908.9299,1119.4546 1908.9299,1088.9358 1970.1075,1088.9358 1945.3771,1053.3259 1975.3406,1053.3259 " /><polygon
       id="polygon4327"
       points="2006.8142,538.3647 1970.8887,590.0865 1940.4213,590.0865 1965.5677,553.8744 1903.3611,553.8744 1903.3611,522.8422 1965.5677,522.8422 1940.4213,486.6333 1970.8887,486.6333 " /><polygon
       id="polygon4329"
       points="1655.8134,904.0366 1622.4771,952.0308 1594.2053,952.0308 1617.5396,918.4285 1559.816,918.4285 1559.816,889.6328 1617.5396,889.6328 1594.2053,856.0335 1622.4771,856.0335 " /><polygon
       id="polygon4331"
       points="1968.1194,683.5398 1930.1375,738.2222 1897.926,738.2222 1924.512,699.9373 1858.7446,699.9373 1858.7446,667.1289 1924.512,667.1289 1897.926,628.8474 1930.1375,628.8474 " /><polygon
       id="polygon4333"
       points="1739.8875,992.6335 1706.551,1040.6278 1678.2794,1040.6278 1701.6135,1007.0254 1643.8901,1007.0254 1643.8901,978.2298 1701.6135,978.2298 1678.2794,944.6305 1706.551,944.6305 " /><polygon
       id="polygon4335"
       points="1751.1815,386.7147 1717.8452,434.709 1689.5735,434.709 1712.9077,401.1066 1655.1842,401.1066 1655.1842,372.311 1712.9077,372.311 1689.5735,338.7117 1717.8452,338.7117 " /><polygon
       id="polygon4337"
       points="1522.3845,1294.9502 1483.8346,1350.4503 1451.1415,1350.4503 1478.125,1311.5929 1411.3741,1311.5929 1411.3741,1278.2938 1478.125,1278.2938 1451.1415,1239.4399 1483.8346,1239.4399 " /><polygon
       id="polygon4339"
       points="1816.9543,520.2219 1783.2015,568.8156 1754.5768,568.8156 1778.2024,534.7935 1719.7579,534.7935 1719.7579,505.6382 1778.2024,505.6382 1754.5768,471.6192 1783.2015,471.6192 " /><polygon
       id="polygon4341"
       points="899.1268,684.2787 865.7903,732.273 837.5187,732.273 860.8529,698.6707 803.1295,698.6707 803.1295,669.8751 860.8529,669.8751 837.5187,636.2757 865.7903,636.2757 " /><polygon
       id="polygon4343"
       points="1559.6401,1091.9745 1526.0565,1140.3247 1497.5752,1140.3247 1521.0825,1106.4731 1462.931,1106.4731 1462.931,1077.464 1521.0825,1077.464 1497.5752,1043.6155 1526.0565,1043.6155 " /><polygon
       id="polygon4345"
       points="1711.5624,1369.4407 1677.6039,1418.3306 1648.8046,1418.3306 1672.5742,1384.1011 1613.7736,1384.1011 1613.7736,1354.7681 1672.5742,1354.7681 1648.8046,1320.5417 1677.6039,1320.5417 " /><polygon
       id="polygon4347"
       points="1654.2513,526.6994 1620.2224,575.6908 1591.3634,575.6908 1615.1824,541.3903 1556.2596,541.3903 1556.2596,511.9964 1615.1824,511.9964 1591.3634,477.699 1620.2224,477.699 " /><polygon
       id="polygon4349"
       points="1553.0345,797.0905 1519.4354,845.463 1490.9409,845.463 1514.459,811.5958 1456.2806,811.5958 1456.2806,782.5733 1514.459,782.5733 1490.9409,748.7092 1519.4354,748.7092 " /><polygon
       id="polygon4351"
       points="1884.0127,1228.9165 1850.5072,1277.1543 1822.092,1277.1543 1845.5446,1243.3815 1787.5283,1243.3815 1787.5283,1214.4397 1845.5446,1214.4397 1822.092,1180.6699 1850.5072,1180.6699 " /><polygon
       id="polygon4353"
       points="483.0765,982.543 446.4845,1035.2245 415.4518,1035.2245 441.0648,998.3405 377.704,998.3405 377.704,966.7326 441.0648,966.7326 415.4518,929.8519 446.4845,929.8519 " /><polygon
       id="polygon4355"
       points="1224.7405,629.4713 1189.9663,679.5354 1160.4755,679.5354 1184.8159,644.4839 1124.603,644.4839 1124.603,614.4464 1184.8159,614.4464 1160.4755,579.398 1189.9663,579.398 " /><polygon
       id="polygon4357"
       points="1444.3297,982.8508 1406.2054,1037.738 1373.8734,1037.738 1400.5588,999.3097 1334.5452,999.3097 1334.5452,966.3784 1400.5588,966.3784 1373.8734,927.9535 1406.2054,927.9535 " /><polygon
       id="polygon4359"
       points="1075.7825,981.3271 1041.1964,1031.1205 1011.865,1031.1205 1036.0739,996.2585 976.1866,996.2585 976.1866,966.3834 1036.0739,966.3834 1011.865,931.5246 1041.1964,931.5246 " /><polygon
       id="polygon4361"
       points="739.8704,986.6876 706.534,1034.6819 678.2623,1034.6819 701.5965,1001.0795 643.8731,1001.0795 643.8731,972.2839 701.5965,972.2839 678.2623,938.6845 706.534,938.6845 " /><polygon
       id="polygon4363"
       points="1311.9733,243.6713 1278.168,292.3405 1249.4988,292.3405 1273.1611,258.2656 1214.6259,258.2656 1214.6259,229.065 1273.1611,229.065 1249.4988,194.9931 1278.168,194.9931 " /><polygon
       id="polygon4365"
       points="295.6301,848.8046 260.236,899.7613 230.2193,899.7613 254.9938,864.0848 193.7073,864.0848 193.7073,833.5117 254.9938,833.5117 230.2193,797.8385 260.236,797.8385 " /><polygon
       id="polygon4367"
       points="1447.0195,1375.5059 1424.7842,1407.5181 1405.927,1407.5181 1421.4908,1385.1052 1382.9894,1385.1052 1382.9894,1365.8986 1421.4908,1365.8986 1405.927,1343.4878 1424.7842,1343.4878 " /><polygon
       id="polygon4369"
       points="1127.9941,1478.7905 1101.324,1517.1876 1078.7056,1517.1876 1097.3738,1490.3046 1051.193,1490.3046 1051.193,1467.2671 1097.3738,1467.2671 1078.7056,1440.3864 1101.324,1440.3864 " /><polygon
       id="polygon4371"
       points="1265.7682,345.8134 1241.9673,380.0794 1221.7823,380.0794 1238.4421,356.0886 1197.2297,356.0886 1197.2297,335.5297 1238.4421,335.5297 1221.7823,311.541 1241.9673,311.541 " /><polygon
       id="polygon4373"
       points="1434.3242,83.7811 1406.1777,124.3034 1382.3075,124.3034 1402.0089,95.9324 1353.2721,95.9324 1353.2721,71.6198 1402.0089,71.6198 1382.3075,43.2513 1406.1777,43.2513 " /><polygon
       id="polygon4375"
       points="653.024,645.0539 628.7382,680.0181 608.142,680.0181 625.1412,655.5385 583.0892,655.5385 583.0892,634.5607 625.1412,634.5607 608.142,610.0833 628.7382,610.0833 " /><polygon
       id="polygon4377"
       points="1423.7296,632.3553 1399.3256,667.4899 1378.629,667.4899 1395.7109,642.891 1353.4541,642.891 1353.4541,621.8109 1395.7109,621.8109 1378.629,597.2143 1399.3256,597.2143 " /><polygon
       id="polygon4379"
       points="1290.1792,1288.2537 1267.9438,1320.2659 1249.0867,1320.2659 1264.6505,1297.853 1226.149,1297.853 1226.149,1278.6464 1264.6505,1278.6464 1249.0867,1256.2356 1267.9438,1256.2356 " /><polygon
       id="polygon4381"
       points="1798.4873,305.9694 1770.2986,346.5524 1746.3926,346.5524 1766.1235,318.1389 1717.3136,318.1389 1717.3136,293.7898 1766.1235,293.7898 1746.3926,265.3788 1770.2986,265.3788 " /><polygon
       id="polygon4383"
       points="1656.3745,203.5912 1632.6316,237.7737 1612.496,237.7737 1629.115,213.8414 1588.0032,213.8414 1588.0032,193.3326 1629.115,193.3326 1612.496,169.4025 1632.6316,169.4025 " /><polygon
       id="polygon4385"
       points="1228.1454,289.118 1205.1049,322.2895 1185.5647,322.2895 1201.6923,299.065 1161.7964,299.065 1161.7964,279.1628 1201.6923,279.1628 1185.5647,255.9405 1205.1049,255.9405 " /><polygon
       id="polygon4387"
       points="1862.6478,823.2974 1838.1005,858.638 1817.2826,858.638 1834.4647,833.8949 1791.9601,833.8949 1791.9601,812.6912 1834.4647,812.6912 1817.2826,787.9503 1838.1005,787.9503 " /><polygon
       id="polygon4389"
       points="1703.6836,480.3072 1681.4482,512.3193 1662.5911,512.3193 1678.1549,489.9066 1639.6534,489.9066 1639.6534,470.6999 1678.1549,470.6999 1662.5911,448.2892 1681.4482,448.2892 " /><polygon
       id="polygon4391"
       points="175.1449,639.7664 151.5228,673.7751 131.4894,673.7751 148.024,649.9645 107.1212,649.9645 107.1212,629.5599 148.024,629.5599 131.4894,605.7514 151.5228,605.7514 " /><polygon
       id="polygon4393"
       points="1329.6202,818.7482 1305.5695,853.374 1285.1726,853.374 1302.0073,829.1313 1260.3623,829.1313 1260.3623,808.3565 1302.0073,808.3565 1285.1726,784.116 1305.5695,784.116 " /><polygon
       id="polygon4395"
       points="97.9263,620.0086 70.4431,659.576 47.1354,659.576 66.3726,631.8735 18.7843,631.8735 18.7843,608.1339 66.3726,608.1339 47.1354,580.434 70.4431,580.434 " /><polygon
       id="polygon4397"
       points="1435.2379,1116.6548 1413.0026,1148.667 1394.1454,1148.667 1409.7094,1126.2542 1371.2078,1126.2542 1371.2078,1107.0475 1409.7094,1107.0475 1394.1454,1084.6367 1413.0026,1084.6367 " /><polygon
       id="polygon4399"
       points="831.9352,775.6285 808.298,809.6589 788.252,809.6589 804.7971,785.8331 763.8682,785.8331 763.8682,765.4155 804.7971,765.4155 788.252,741.5918 808.298,741.5918 " /><polygon
       id="polygon4401"
       points="537.0395,756.9252 510.1246,795.6744 487.2988,795.6744 506.1382,768.5448 459.5339,768.5448 459.5339,745.296 506.1382,745.296 487.2988,718.1688 510.1246,718.1688 " /><polygon
       id="polygon4403"
       points="1713.6001,710.9565 1689.2297,746.0424 1668.5619,746.0424 1685.6202,721.4776 1643.4219,721.4776 1643.4219,700.4267 1685.6202,700.4267 1668.5619,675.8641 1689.2297,675.8641 " /><polygon
       id="polygon4405"
       points="820.7046,1021.1496 798.437,1053.2081 779.5525,1053.2081 795.1389,1030.7629 756.5817,1030.7629 756.5817,1011.5284 795.1389,1011.5284 779.5525,989.0852 798.437,989.0852 " /><polygon
       id="polygon4407"
       points="1124.1733,147.8412 1097.0385,186.9071 1074.0262,186.9071 1093.0195,159.5558 1046.0343,159.5558 1046.0343,136.117 1093.0195,136.117 1074.0262,108.7681 1097.0385,108.7681 " /><polygon
       id="polygon4409"
       points="1233.8873,856.3315 1209.0859,892.038 1188.0526,892.038 1205.4126,867.0387 1162.4679,867.0387 1162.4679,845.6155 1205.4126,845.6155 1188.0526,820.6185 1209.0859,820.6185 " /><polygon
       id="polygon4411"
       points="1446.4331,305.5049 1422.3423,340.1883 1401.9116,340.1883 1418.7742,315.9053 1377.0601,315.9053 1377.0601,295.0959 1418.7742,295.0959 1401.9116,270.8152 1422.3423,270.8152 " /><polygon
       id="polygon4413"
       points="1143.0181,909.103 1120.7827,941.1151 1101.9255,941.1151 1117.4895,918.7023 1078.9879,918.7023 1078.9879,899.4957 1117.4895,899.4957 1101.9255,877.0849 1120.7827,877.0849 " /><polygon
       id="polygon4415"
       points="958.8608,927.9678 936.6254,959.98 917.7682,959.98 933.3321,937.5672 894.8306,937.5672 894.8306,918.3605 933.3321,918.3605 917.7682,895.9498 936.6254,895.9498 " /><polygon
       id="polygon4417"
       points="1876.9836,899.886 1848.0479,941.5449 1823.5081,941.5449 1843.7621,912.3782 1793.6583,912.3782 1793.6583,887.3837 1843.7621,887.3837 1823.5081,858.2195 1848.0479,858.2195 " /><polygon
       id="polygon4419"
       points="1600.3683,1467.0111 1576.6803,1501.1147 1556.5911,1501.1147 1573.1718,1477.2377 1532.1548,1477.2377 1532.1548,1456.7761 1573.1718,1456.7761 1556.5911,1432.9012 1576.6803,1432.9012 " /><polygon
       id="polygon4421"
       points="950.0969,616.3464 926.549,650.2482 906.5786,650.2482 923.0613,626.5125 882.287,626.5125 882.287,606.1721 923.0613,606.1721 906.5786,582.4384 926.549,582.4384 " /><polygon
       id="polygon4423"
       points="1498.3628,582.6703 1476.1274,614.6825 1457.2703,614.6825 1472.8341,592.2697 1434.3326,592.2697 1434.3326,573.063 1472.8341,573.063 1457.2703,550.6523 1476.1274,550.6523 " /><polygon
       id="polygon4425"
       points="1071.5607,609.36 1048.0696,643.18 1028.1473,643.18 1044.5902,619.5015 1003.9144,619.5015 1003.9144,599.2101 1044.5902,599.2101 1028.1473,575.5338 1048.0696,575.5338 " /><polygon
       id="polygon4427"
       points="2089.2729,1019.3289 2064.4763,1055.0284 2043.4469,1055.0284 2060.8035,1030.0341 2017.8671,1030.0341 2017.8671,1008.6149 2060.8035,1008.6149 2043.4469,983.6227 2064.4763,983.6227 " /><polygon
       id="polygon4429"
       points="377.2178,896.0967 354.9825,928.1089 336.1252,928.1089 351.6891,905.6962 313.1876,905.6962 313.1876,886.4895 351.6891,886.4895 336.1252,864.0787 354.9825,864.0787 " /><polygon
       id="polygon4431"
       points="2023.713,905.9493 1997.5059,943.6796 1975.2803,943.6796 1993.6243,917.2634 1948.2455,917.2634 1948.2455,894.6259 1993.6243,894.6259 1975.2803,868.2121 1997.5059,868.2121 " /><polygon
       id="polygon4433"
       points="478.2361,625.2081 450.6435,664.9333 427.2429,664.9333 446.5567,637.1204 398.7787,637.1204 398.7787,613.2861 446.5567,613.2861 427.2429,585.4758 450.6435,585.4758 " /><polygon
       id="polygon4435"
       points="1403.4316,1570.0247 1379.8832,1603.9272 1359.9124,1603.9272 1376.3954,1580.1909 1335.6202,1580.1909 1335.6202,1559.85 1376.3954,1559.85 1359.9124,1536.1158 1379.8832,1536.1158 " /><polygon
       id="polygon4437"
       points="2276.468,783.6661 2248.7783,823.5311 2225.2952,823.5311 2244.677,795.6204 2196.7307,795.6204 2196.7307,771.7021 2244.677,771.7021 2225.2952,743.7939 2248.7783,743.7939 " /><polygon
       id="polygon4439"
       points="1945.5995,933.9984 1923.3641,966.0106 1904.507,966.0106 1920.0708,943.5978 1881.5692,943.5978 1881.5692,924.3911 1920.0708,924.3911 1904.507,901.9803 1923.3641,901.9803 " /><polygon
       id="polygon4441"
       points="1406.2422,1307.1067 1375.5134,1351.3467 1349.4532,1351.3467 1370.9622,1320.3728 1317.754,1320.3728 1317.754,1293.8297 1370.9622,1293.8297 1349.4532,1262.8586 1375.5134,1262.8586 " /><polygon
       id="polygon4443"
       points="726.6543,854.5593 701.6747,890.5223 680.4902,890.5223 697.975,865.3434 654.7217,865.3434 654.7217,843.7663 697.975,843.7663 680.4902,818.5897 701.6747,818.5897 " /><polygon
       id="polygon4445"
       points="1542.4968,423.1822 1515.4263,462.1555 1492.4685,462.1555 1511.4169,434.869 1464.543,434.869 1464.543,411.4857 1511.4169,411.4857 1492.4685,384.2017 1515.4263,384.2017 " /><polygon
       id="polygon4447"
       points="2089.6123,937.4828 2065.2493,972.5581 2044.5878,972.5581 2061.6409,948.0008 2019.4553,948.0008 2019.4553,926.9563 2061.6409,926.9563 2044.5878,902.4011 2065.2493,902.4011 " /><polygon
       id="polygon4449"
       points="1185.693,995.2839 1161.6249,1029.9347 1141.2134,1029.9347 1158.0602,1005.6746 1116.3851,1005.6746 1116.3851,984.8848 1158.0602,984.8848 1141.2134,960.6268 1161.6249,960.6268 " /><polygon
       id="polygon4451"
       points="457.3454,705.0611 433.1042,739.9611 412.5459,739.9611 429.5138,715.5265 387.5391,715.5265 387.5391,694.5872 429.5138,694.5872 412.5459,670.1547 433.1042,670.1547 " /><polygon
       id="polygon4453"
       points="1768.5092,1200.5164 1746.2738,1232.5284 1727.4166,1232.5284 1742.9805,1210.1157 1704.479,1210.1157 1704.479,1190.9091 1742.9805,1190.9091 1727.4166,1168.4983 1746.2738,1168.4983 " /><polygon
       id="polygon4455"
       points="1586.3402,1291.3384 1564.1049,1323.3506 1545.2477,1323.3506 1560.8115,1300.9379 1522.3101,1300.9379 1522.3101,1281.7312 1560.8115,1281.7312 1545.2477,1259.3204 1564.1049,1259.3204 " /><polygon
       id="polygon4457"
       points="1293.0807,149.9981 1264.5769,191.0348 1240.4037,191.0348 1260.3552,162.3036 1210.9998,162.3036 1210.9998,137.6824 1260.3552,137.6824 1240.4037,108.9539 1264.5769,108.9539 " /><polygon
       id="polygon4459"
       points="2037.3491,830.5004 2015.1138,862.5125 1996.2566,862.5125 2011.8204,840.0997 1973.319,840.0997 1973.319,820.8931 2011.8204,820.8931 1996.2566,798.4823 2015.1138,798.4823 " /><polygon
       id="polygon4461"
       points="192.9934,888.3496 163.5521,930.7361 138.5838,930.7361 159.1915,901.0599 108.2127,901.0599 108.2127,875.6289 159.1915,875.6289 138.5838,845.9554 163.5521,845.9554 " /><polygon
       id="polygon4463"
       points="1755.9698,1054.2162 1738.6339,1079.1748 1723.9316,1079.1748 1736.0662,1061.7004 1706.0482,1061.7004 1706.0482,1046.7258 1736.0662,1046.7258 1723.9316,1029.2532 1738.6339,1029.2532 " /><polygon
       id="polygon4465"
       points="1571.1128,471.169 1553.6715,496.2792 1538.88,496.2792 1551.0883,478.6988 1520.8879,478.6988 1520.8879,463.6331 1551.0883,463.6331 1538.88,446.0543 1553.6715,446.0543 " /><polygon
       id="polygon4467"
       points="1267.2198,623.7565 1252.3888,645.1086 1239.811,645.1086 1250.1921,630.1592 1224.5116,630.1592 1224.5116,617.3484 1250.1921,617.3484 1239.811,602.4005 1252.3888,602.4005 " /><polygon
       id="polygon4469"
       points="177.545,719.531 160.6535,743.8496 146.3283,743.8496 158.1517,726.8234 128.9034,726.8234 128.9034,712.2327 158.1517,712.2327 146.3283,695.2079 160.6535,695.2079 " /><polygon
       id="polygon4471"
       points="1125.3519,1396.0836 1106.9148,1422.6273 1091.2788,1422.6273 1104.1841,1404.0432 1072.2595,1404.0432 1072.2595,1388.1174 1104.1841,1388.1174 1091.2788,1369.5349 1106.9148,1369.5349 " /><polygon
       id="polygon4473"
       points="1829.4281,753.5322 1814.5972,774.8843 1802.0194,774.8843 1812.4005,759.935 1786.72,759.935 1786.72,747.1241 1812.4005,747.1241 1802.0194,732.1761 1814.5972,732.1761 " /><polygon
       id="polygon4475"
       points="1620.0668,1340.0046 1604.0347,1363.0861 1590.4382,1363.0861 1601.6602,1346.926 1573.8999,1346.926 1573.8999,1333.0776 1601.6602,1333.0776 1590.4382,1316.9191 1604.0347,1316.9191 " /><polygon
       id="polygon4477"
       points="1565.3123,739.4871 1550.4813,760.8392 1537.9036,760.8392 1548.2847,745.8899 1522.6041,745.8899 1522.6041,733.079 1548.2847,733.079 1537.9036,718.131 1550.4813,718.131 " /><polygon
       id="polygon4479"
       points="1693.3799,228.104 1678.5488,249.4561 1665.9711,249.4561 1676.3523,234.5068 1650.6718,234.5068 1650.6718,221.696 1676.3523,221.696 1665.9711,206.748 1678.5488,206.748 " /><polygon
       id="polygon4481"
       points="1357.6497,928.1719 1342.8187,949.524 1330.241,949.524 1340.6221,934.5747 1314.9415,934.5747 1314.9415,921.7639 1340.6221,921.7639 1330.241,906.8159 1342.8187,906.8159 " /><polygon
       id="polygon4483"
       points="1562.373,1345.7725 1547.1349,1367.7108 1534.2118,1367.7108 1544.8779,1352.3511 1518.4923,1352.3511 1518.4923,1339.1885 1544.8779,1339.1885 1534.2118,1323.8301 1547.1349,1323.8301 " /><polygon
       id="polygon4485"
       points="1159.2214,1548.8643 1144.1556,1570.5544 1131.3788,1570.5544 1141.9243,1555.3684 1115.8372,1555.3684 1115.8372,1542.3547 1141.9243,1542.3547 1131.3788,1527.17 1144.1556,1527.17 " /><polygon
       id="polygon4487"
       points="2088.3301,788.1699 2073.499,809.522 2060.9214,809.522 2071.3025,794.5727 2045.6219,794.5727 2045.6219,781.7618 2071.3025,781.7618 2060.9214,766.8139 2073.499,766.8139 " /><polygon
       id="polygon4489"
       points="560.2264,907.0368 545.3954,928.3889 532.8176,928.3889 543.1988,913.4396 517.5182,913.4396 517.5182,900.6287 543.1988,900.6287 532.8176,885.6808 545.3954,885.6808 " /><polygon
       id="polygon4491"
       points="1790.5208,1249.1027 1775.6898,1270.4548 1763.1121,1270.4548 1773.4932,1255.5055 1747.8126,1255.5055 1747.8126,1242.6947 1773.4932,1242.6947 1763.1121,1227.7467 1775.6898,1227.7467 " /><polygon
       id="polygon4493"
       points="880.4042,607.4261 860.3647,636.2769 843.3699,636.2769 857.3967,616.0775 822.6975,616.0775 822.6975,598.7677 857.3967,598.7677 843.3699,578.5702 860.3647,578.5702 " /><polygon
       id="polygon4495"
       points="1939.3107,461.597 1924.4797,482.9492 1911.902,482.9492 1922.2831,467.9998 1896.6025,467.9998 1896.6025,455.189 1922.2831,455.189 1911.902,440.241 1924.4797,440.241 " /><polygon
       id="polygon4497"
       points="1556.9868,635.3414 1542.1559,656.6935 1529.5781,656.6935 1539.9592,641.7442 1514.2787,641.7442 1514.2787,628.9333 1539.9592,628.9333 1529.5781,613.9854 1542.1559,613.9854 " /><polygon
       id="polygon4499"
       points="1802.283,1314.4452 1781.5913,1344.2347 1764.0433,1344.2347 1778.5267,1323.3781 1742.6982,1323.3781 1742.6982,1305.5049 1778.5267,1305.5049 1764.0433,1284.65 1781.5913,1284.65 " /><polygon
       id="polygon4501"
       points="1323.9128,643.2657 1309.0819,664.6179 1296.5042,664.6179 1306.8853,649.6686 1281.2047,649.6686 1281.2047,636.8577 1306.8853,636.8577 1296.5042,621.9097 1309.0819,621.9097 " /><polygon
       id="polygon4503"
       points="1493.1611,1000.0134 1476.0698,1024.6198 1461.5752,1024.6198 1473.5385,1007.3921 1443.9441,1007.3921 1443.9441,992.6288 1473.5385,992.6288 1461.5752,975.4026 1476.0698,975.4026 " /><polygon
       id="polygon4505"
       points="1389.0236,500.9068 1373.9907,522.5496 1361.2417,522.5496 1371.7642,507.3967 1345.734,507.3967 1345.734,494.4115 1371.7642,494.4115 1361.2417,479.26 1373.9907,479.26 " /><polygon
       id="polygon4507"
       points="1793.39,403.3398 1778.0378,425.4423 1765.0181,425.4423 1775.764,409.9677 1749.1812,409.9677 1749.1812,396.7066 1775.764,396.7066 1765.0181,381.2334 1778.0378,381.2334 " /><polygon
       id="polygon4509"
       points="825.2844,625.3248 801.4216,659.68 781.1842,659.68 797.8872,635.6268 756.5677,635.6268 756.5677,615.0144 797.8872,615.0144 781.1842,590.9634 801.4216,590.9634 " /><polygon
       id="polygon4511"
       points="326.3776,595.6643 310.8239,618.0569 297.6332,618.0569 308.5202,602.3792 281.5883,602.3792 281.5883,588.944 308.5202,588.944 297.6332,573.2676 310.8239,573.2676 " /><polygon
       id="polygon4513"
       points="1592.5919,226.9815 1573.3357,254.7046 1557.005,254.7046 1570.4836,235.2947 1537.1405,235.2947 1537.1405,218.6614 1570.4836,218.6614 1557.005,199.2532 1573.3357,199.2532 " /><polygon
       id="polygon4515"
       points="767.1709,686.0485 752.3399,707.4006 739.7621,707.4006 750.1432,692.4514 724.4628,692.4514 724.4628,679.6405 750.1432,679.6405 739.7621,664.6925 752.3399,664.6925 " /><polygon
       id="polygon4517"
       points="693.1709,914.0485 678.3399,935.4006 665.7621,935.4006 676.1432,920.4514 650.4628,920.4514 650.4628,907.6405 676.1432,907.6405 665.7621,892.6925 678.3399,892.6925 " /><polygon
       id="polygon4519"
       points="90.8962,855.4954 75.9885,876.9578 63.3458,876.9578 73.7806,861.9312 47.9674,861.9312 47.9674,849.0542 73.7806,849.0542 63.3458,834.029 75.9885,834.029 " /><polygon
       id="polygon4521"
       points="1631.313,1030.2255 1614.7482,1054.0737 1600.7001,1054.0737 1612.2948,1037.3768 1583.6122,1037.3768 1583.6122,1023.0684 1612.2948,1023.0684 1600.7001,1006.3729 1614.7482,1006.3729 " /><polygon
       id="polygon4523"
       points="1480.452,272.2243 1465.6211,293.5764 1453.0433,293.5764 1463.4244,278.6271 1437.7439,278.6271 1437.7439,265.8162 1463.4244,265.8162 1453.0433,250.8682 1465.6211,250.8682 " /><polygon
       id="polygon4525"
       points="1322.2695,883.6756 1306.2308,906.7663 1292.629,906.7663 1303.8553,890.5997 1276.0839,890.5997 1276.0839,876.7458 1303.8553,876.7458 1292.629,860.5806 1306.2308,860.5806 " /><polygon
       id="polygon4527"
       points="1598.8734,143.1601 1580.9637,168.9446 1565.775,168.9446 1578.311,150.8921 1547.2997,150.8921 1547.2997,135.4219 1578.311,135.4219 1565.775,117.3709 1580.9637,117.3709 " /><polygon
       id="polygon4529"
       points="402.632,603.837 387.7332,625.2869 375.0978,625.2869 385.5265,610.2692 359.7284,610.2692 359.7284,597.3997 385.5265,597.3997 375.0978,582.3832 387.7332,582.3832 " /><polygon
       id="polygon4531"
       points="1242.7555,1407.5864 1222.2844,1437.0586 1204.9235,1437.0586 1219.2524,1416.4242 1183.8058,1416.4242 1183.8058,1398.7415 1219.2524,1398.7415 1204.9235,1378.1089 1222.2844,1378.1089 " /><polygon
       id="polygon4533"
       points="1389.885,258.7953 1374.9445,280.3052 1362.2738,280.3052 1372.7316,265.2454 1346.8613,265.2454 1346.8613,252.3399 1372.7316,252.3399 1362.2738,237.2815 1374.9445,237.2815 " /><polygon
       id="polygon4535"
       points="2207.9204,866.8043 2193.0894,888.1564 2180.5115,888.1564 2190.8926,873.2071 2165.2122,873.2071 2165.2122,860.3962 2190.8926,860.3962 2180.5115,845.4482 2193.0894,845.4482 " /><polygon
       id="polygon4537"
       points="1433.1448,1519.2621 1415.2239,1545.0627 1400.0256,1545.0627 1412.5696,1526.9989 1381.5388,1526.9989 1381.5388,1511.5189 1412.5696,1511.5189 1400.0256,1493.4568 1415.2239,1493.4568 " /><polygon
       id="polygon4539"
       points="1812.7778,611.8222 1797.9469,633.1743 1785.3691,633.1743 1795.7502,618.225 1770.0697,618.225 1770.0697,605.4142 1795.7502,605.4142 1785.3691,590.4662 1797.9469,590.4662 " /><polygon
       id="polygon4541"
       points="73.0296,1020.5628 58.1986,1041.9149 45.6209,1041.9149 56.002,1026.9656 30.3215,1026.9656 30.3215,1014.1547 56.002,1014.1547 45.6209,999.2067 58.1986,999.2067 " /><polygon
       id="polygon4543"
       points="1921.8278,1031.25 1904.4868,1056.2157 1889.7804,1056.2157 1901.9185,1038.7363 1871.8917,1038.7363 1871.8917,1023.7574 1901.9185,1023.7574 1889.7804,1006.2797 1904.4868,1006.2797 " /><polygon
       id="polygon4545"
       points="541.7897,965.5942 525.787,988.6332 512.2156,988.6332 523.4169,972.5028 495.7075,972.5028 495.7075,958.6799 523.4169,958.6799 512.2156,942.5509 525.787,942.5509 " /><polygon
       id="polygon4547"
       points="1024.0587,119.2305 1008.478,141.6621 995.2643,141.6621 1006.1703,125.957 979.1915,125.957 979.1915,112.4985 1006.1703,112.4985 995.2643,96.7949 1008.478,96.7949 " /><polygon
       id="polygon4549"
       points="1352.4451,399.5622 1337.6141,420.9143 1325.0364,420.9143 1335.4175,405.965 1309.7369,405.965 1309.7369,393.1542 1335.4175,393.1542 1325.0364,378.2062 1337.6141,378.2062 " /><polygon
       id="polygon4551"
       points="1451.1812,1475.5588 1435.394,1498.2875 1422.0054,1498.2875 1433.0558,1482.3744 1405.7196,1482.3744 1405.7196,1468.7375 1433.0558,1468.7375 1422.0054,1452.8259 1435.394,1452.8259 " /><polygon
       id="polygon4553"
       points="2203.6812,814.2313 2188.8501,835.5834 2176.2722,835.5834 2186.6533,820.6341 2160.9729,820.6341 2160.9729,807.8232 2186.6533,807.8232 2176.2722,792.8752 2188.8501,792.8752 " /><polygon
       id="polygon4555"
       points="1872.429,727.0557 1857.598,748.4078 1845.0203,748.4078 1855.4014,733.4585 1829.7208,733.4585 1829.7208,720.6476 1855.4014,720.6476 1845.0203,705.6997 1857.598,705.6997 " /><polygon
       id="polygon4557"
       points="1224.8461,1349.9021 1207.92,1374.2705 1193.5654,1374.2705 1205.4131,1357.2094 1176.1049,1357.2094 1176.1049,1342.5887 1205.4131,1342.5887 1193.5654,1325.5292 1207.92,1325.5292 " /><polygon
       id="polygon4559"
       points="1248.7783,46.2766 1228.3936,75.6245 1211.1058,75.6245 1225.3744,55.0771 1190.0773,55.0771 1190.0773,37.4689 1225.3744,37.4689 1211.1058,16.9233 1228.3936,16.9233 " /><polygon
       id="polygon4561"
       points="1777.5422,919.2238 1758.4858,946.6593 1742.3246,946.6593 1755.6633,927.4508 1722.6663,927.4508 1722.6663,910.9901 1755.6633,910.9901 1742.3246,891.7833 1758.4858,891.7833 " /><polygon
       id="polygon4563"
       points="1203.2695,1555.0856 1187.8195,1577.3289 1174.7168,1577.3289 1185.5311,1561.7556 1158.7788,1561.7556 1158.7788,1548.41 1185.5311,1548.41 1174.7168,1532.8381 1187.8195,1532.8381 " /><polygon
       id="polygon4565"
       points="1108.7388,208.2201 1093.9077,229.5722 1081.33,229.5722 1091.7112,214.6229 1066.0306,214.6229 1066.0306,201.812 1091.7112,201.812 1081.33,186.8641 1093.9077,186.8641 " /><polygon
       id="polygon4567"
       points="566.902,837.9051 549.2844,863.269 534.3435,863.269 546.6751,845.5109 516.1695,845.5109 516.1695,830.293 546.6751,830.293 534.3435,812.5366 549.2844,812.5366 " /><polygon
       id="polygon4569"
       points="1116.4611,998.1974 1101.63,1019.5495 1089.0522,1019.5495 1099.4335,1004.6002 1073.7529,1004.6002 1073.7529,991.7893 1099.4335,991.7893 1089.0522,976.8414 1101.63,976.8414 " /><polygon
       id="polygon4571"
       points="1188.5402,1381.2477 1173.7091,1402.5997 1161.1313,1402.5997 1171.5125,1387.6504 1145.8319,1387.6504 1145.8319,1374.8396 1171.5125,1374.8396 1161.1313,1359.8916 1173.7091,1359.8916 " /><polygon
       id="polygon4573"
       points="1907.2894,1173.8229 1890.4058,1198.1304 1876.087,1198.1304 1887.905,1181.1119 1858.67,1181.1119 1858.67,1166.528 1887.905,1166.528 1876.087,1149.511 1890.4058,1149.511 " /><polygon
       id="polygon4575"
       points="1034.8514,660.2707 1018.5044,683.8054 1004.641,683.8054 1016.0833,667.328 987.7776,667.328 987.7776,653.2076 1016.0833,653.2076 1004.641,636.7317 1018.5044,636.7317 " /><polygon
       id="polygon4577"
       points="593.8514,601.2707 577.5044,624.8054 563.641,624.8054 575.0833,608.328 546.7776,608.328 546.7776,594.2076 575.0833,594.2076 563.641,577.7317 577.5044,577.7317 " /><polygon
       id="polygon4579"
       points="1038.8514,711.2707 1022.5044,734.8054 1008.641,734.8054 1020.0833,718.328 991.7776,718.328 991.7776,704.2076 1020.0833,704.2076 1008.641,687.7317 1022.5044,687.7317 " /><polygon
       id="polygon4581"
       points="1776.3263,773.7095 1759.049,798.5837 1744.3964,798.5837 1756.4899,781.1685 1726.5732,781.1685 1726.5732,766.2444 1756.4899,766.2444 1744.3964,748.8307 1759.049,748.8307 " /><polygon
       id="polygon4583"
       points="531.6995,1026.7734 513.3382,1053.2081 497.7664,1053.2081 510.6187,1034.7003 478.8252,1034.7003 478.8252,1018.84 510.6187,1018.84 497.7664,1000.3339 513.3382,1000.3339 " /><polygon
       id="polygon4585"
       points="2124.2671,990.6786 2109.436,1012.0308 2096.8584,1012.0308 2107.2395,997.0814 2081.5588,997.0814 2081.5588,984.2706 2107.2395,984.2706 2096.8584,969.3226 2109.436,969.3226 " /><polygon
       id="polygon4587"
       points="990.5187,632.0757 975.6877,653.4279 963.11,653.4279 973.4911,638.4785 947.8106,638.4785 947.8106,625.6677 973.4911,625.6677 963.11,610.7197 975.6877,610.7197 " /><polygon
       id="polygon4589"
       points="331.4671,741.1199 316.6361,762.472 304.0584,762.472 314.4395,747.5226 288.759,747.5226 288.759,734.7118 314.4395,734.7118 304.0584,719.7639 316.6361,719.7639 " /><polygon
       id="polygon4591"
       points="67.4025,910.9477 50.5191,935.2546 36.2008,935.2546 48.0185,918.2366 18.7843,918.2366 18.7843,903.6529 48.0185,903.6529 36.2008,886.6364 50.5191,886.6364 " /><polygon
       id="polygon4593"
       points="1626.4749,1409.8784 1611.3087,1431.713 1598.4468,1431.713 1609.0625,1416.4259 1582.8018,1416.4259 1582.8018,1403.3257 1609.0625,1403.3257 1598.4468,1388.0399 1611.3087,1388.0399 " /><polygon
       id="polygon4595"
       points="971.4966,37.1444 954.9119,61.0214 940.8469,61.0214 952.4555,44.3043 923.7383,44.3043 923.7383,29.9786 952.4555,29.9786 940.8469,13.2631 954.9119,13.2631 " /><polygon
       id="polygon4597"
       points="2099.0603,700.3506 2082.679,723.9346 2068.7866,723.9346 2080.2529,707.4227 2051.8882,707.4227 2051.8882,693.2728 2080.2529,693.2728 2068.7866,676.7625 2082.679,676.7625 " /><polygon
       id="polygon4599"
       points="1385.8398,798.2557 1375.9475,812.4976 1367.5582,812.4976 1374.4824,802.5264 1357.3535,802.5264 1357.3535,793.9815 1374.4824,793.9815 1367.5582,784.0112 1375.9475,784.0112 " /><polygon
       id="polygon4601"
       points="1117.0885,1539.4633 1107.1962,1553.7051 1098.8069,1553.7051 1105.7311,1543.7339 1088.6022,1543.7339 1088.6022,1535.1891 1105.7311,1535.1891 1098.8069,1525.2188 1107.1962,1525.2188 " /><polygon
       id="polygon4603"
       points="1464.4315,1078.3477 1454.5392,1092.5896 1446.1499,1092.5896 1453.0741,1082.6184 1435.9452,1082.6184 1435.9452,1074.0735 1453.0741,1074.0735 1446.1499,1064.1033 1454.5392,1064.1033 " /><polygon
       id="polygon4605"
       points="615.4807,812.9465 603.8805,829.6472 594.0427,829.6472 602.1624,817.9545 582.0762,817.9545 582.0762,807.9344 602.1624,807.9344 594.0427,796.2427 603.8805,796.2427 " /><polygon
       id="polygon4607"
       points="1589.5056,609.6716 1575.557,629.7533 1563.7277,629.7533 1573.4911,615.6934 1549.3385,615.6934 1549.3385,603.6448 1573.4911,603.6448 1563.7277,589.5862 1575.557,589.5862 " /><polygon
       id="polygon4609"
       points="782.5793,815.3486 770.436,832.8313 760.1375,832.8313 768.6374,820.5911 747.6107,820.5911 747.6107,810.1018 768.6374,810.1018 760.1375,797.8627 770.436,797.8627 " /><polygon
       id="polygon4611"
       points="1462.6002,840.882 1449.7769,859.3436 1438.9019,859.3436 1447.8777,846.418 1425.6736,846.418 1425.6736,835.3414 1447.8777,835.3414 1438.9019,822.4171 1449.7769,822.4171 " /><polygon
       id="polygon4613"
       points="796.5909,844.4952 785.9032,859.8823 776.8392,859.8823 784.3202,849.1093 765.8139,849.1093 765.8139,839.8773 784.3202,839.8773 776.8392,829.1053 785.9032,829.1053 " /><polygon
       id="polygon4615"
       points="1769.2775,1015.5958 1758.2053,1031.5363 1748.8154,1031.5363 1756.5654,1020.3758 1737.3936,1020.3758 1737.3936,1010.8118 1756.5654,1010.8118 1748.8154,999.6524 1758.2053,999.6524 " /><polygon
       id="polygon4617"
       points="1464.3005,358.388 1454.147,373.006 1445.536,373.006 1452.6432,362.7715 1435.0619,362.7715 1435.0619,354.001 1452.6432,354.001 1445.536,343.7673 1454.147,343.7673 " /><polygon
       id="polygon4619"
       points="391.8314,936.4759 381.4976,951.3535 372.7338,951.3535 379.9671,940.9372 362.0736,940.9372 362.0736,932.011 379.9671,932.011 372.7338,921.5957 381.4976,921.5957 " /><polygon
       id="polygon4621"
       points="1241.6428,1022.5555 1220.3518,1053.2081 1202.2955,1053.2081 1217.1984,1031.7473 1180.332,1031.7473 1180.332,1013.3563 1217.1984,1013.3563 1202.2955,991.8974 1220.3518,991.8974 " /><polygon
       id="polygon4623"
       points="959.6057,1568.1436 943.8264,1590.861 930.4444,1590.861 941.4893,1574.9558 914.1667,1574.9558 914.1667,1561.3257 941.4893,1561.3257 930.4444,1545.422 943.8264,1545.422 " /><polygon
       id="polygon4625"
       points="1744.1332,253.5461 1727.4263,277.599 1713.2574,277.599 1724.9518,260.7587 1696.0228,260.7587 1696.0228,246.3274 1724.9518,246.3274 1713.2574,229.4887 1727.4263,229.4887 " /><polygon
       id="polygon4627"
       points="991.3203,1508.562 979.0865,1526.1749 968.7114,1526.1749 977.2745,1513.8436 956.0912,1513.8436 956.0912,1503.2761 977.2745,1503.2761 968.7114,1490.9459 979.0865,1490.9459 " /><polygon
       id="polygon4629"
       points="1210.5605,957.8306 1200.6683,972.0725 1192.2789,972.0725 1199.2031,962.1013 1182.0742,962.1013 1182.0742,953.5565 1199.2031,953.5565 1192.2789,943.5862 1200.6683,943.5862 " /><polygon
       id="polygon4631"
       points="1738.3379,1354.8391 1728.4456,1369.0811 1720.0563,1369.0811 1726.9805,1359.1099 1709.8516,1359.1099 1709.8516,1350.5649 1726.9805,1350.5649 1720.0563,1340.5947 1728.4456,1340.5947 " /><polygon
       id="polygon4633"
       points="1396.9808,344.9061 1387.0885,359.1479 1378.6992,359.1479 1385.6234,349.1767 1368.4945,349.1767 1368.4945,340.6319 1385.6234,340.6319 1378.6992,330.6616 1387.0885,330.6616 " /><polygon
       id="polygon4635"
       points="1460.7244,1592.5836 1450.832,1606.8256 1442.4427,1606.8256 1449.3669,1596.8544 1432.238,1596.8544 1432.238,1588.3094 1449.3669,1588.3094 1442.4427,1578.3392 1450.832,1578.3392 " /><polygon
       id="polygon4637"
       points="1424.512,798.9153 1411.0803,818.2529 1399.6892,818.2529 1409.0909,804.7141 1385.8334,804.7141 1385.8334,793.1119 1409.0909,793.1119 1399.6892,779.5743 1411.0803,779.5743 " /><polygon
       id="polygon4639"
       points="1646.4108,1313.1423 1635.3152,1329.1165 1625.9054,1329.1165 1633.6719,1317.9324 1614.4595,1317.9324 1614.4595,1308.3483 1633.6719,1308.3483 1625.9054,1297.1652 1635.3152,1297.1652 " /><polygon
       id="polygon4641"
       points="259.4914,936.051 249.5991,950.2928 241.2098,950.2928 248.134,940.3216 231.0051,940.3216 231.0051,931.7768 248.134,931.7768 241.2098,921.8065 249.5991,921.8065 " /><polygon
       id="polygon4643"
       points="2095.3569,645.1337 2085.4648,659.3755 2077.0754,659.3755 2083.9995,649.4044 2066.8706,649.4044 2066.8706,640.8596 2083.9995,640.8596 2077.0754,630.8892 2085.4648,630.8892 " /><polygon
       id="polygon4645"
       points="1422.4713,587.0445 1412.579,601.2864 1404.1897,601.2864 1411.1139,591.3152 1393.985,591.3152 1393.985,582.7703 1411.1139,582.7703 1404.1897,572.8 1412.579,572.8 " /><polygon
       id="polygon4647"
       points="1671.79,1166.4148 1652.3439,1194.4113 1635.8521,1194.4113 1649.4636,1174.8101 1615.7917,1174.8101 1615.7917,1158.0126 1649.4636,1158.0126 1635.8521,1138.4131 1652.3439,1138.4131 " /><polygon
       id="polygon4649"
       points="908.9774,797.8163 898.9546,812.2461 890.4545,812.2461 897.4701,802.1433 880.1152,802.1433 880.1152,793.4857 897.4701,793.4857 890.4545,783.3839 898.9546,783.3839 " /><polygon
       id="polygon4651"
       points="1240.6522,1580.928 1224.838,1603.6957 1211.4264,1603.6957 1222.4957,1587.7552 1195.1127,1587.7552 1195.1127,1574.0951 1222.4957,1574.0951 1211.4264,1558.1561 1224.838,1558.1561 " /><polygon
       id="polygon4653"
       points="1546.5953,854.7175 1536.0612,869.8834 1527.1274,869.8834 1534.501,859.2653 1516.2606,859.2653 1516.2606,850.166 1534.501,850.166 1527.1274,839.5488 1536.0612,839.5488 " /><polygon
       id="polygon4655"
       points="1147.6692,1447.4596 1137.777,1461.7014 1129.3876,1461.7014 1136.3118,1451.7302 1119.1829,1451.7302 1119.1829,1443.1854 1136.3118,1443.1854 1129.3876,1433.2151 1137.777,1433.2151 " /><polygon
       id="polygon4657"
       points="2154.8535,657.9781 2133.9866,688.0201 2116.2898,688.0201 2130.896,666.9868 2094.7639,666.9868 2094.7639,648.9621 2130.896,648.9621 2116.2898,627.9306 2133.9866,627.9306 " /><polygon
       id="polygon4659"
       points="1590.1753,1052.0253 1579.3142,1067.6619 1570.1033,1067.6619 1577.7056,1056.7141 1558.8992,1056.7141 1558.8992,1047.3325 1577.7056,1047.3325 1570.1033,1036.3857 1579.3142,1036.3857 " /><polygon
       id="polygon4661"
       points="1373.3064,463.3305 1360.9814,481.0747 1350.5291,481.0747 1359.156,468.6514 1337.8148,468.6514 1337.8148,458.0052 1359.156,458.0052 1350.5291,445.5831 1360.9814,445.5831 " /><polygon
       id="polygon4663"
       points="1032.7448,769.7094 1022.8525,783.9513 1014.4631,783.9513 1021.3873,773.9801 1004.2584,773.9801 1004.2584,765.4352 1021.3873,765.4352 1014.4631,755.465 1022.8525,755.465 " /><polygon
       id="polygon4665"
       points="1550.0237,158.8101 1539.0315,174.6355 1529.7092,174.6355 1537.4034,163.5556 1518.3699,163.5556 1518.3699,154.0606 1537.4034,154.0606 1529.7092,142.9817 1539.0315,142.9817 " /><polygon
       id="polygon4667"
       points="1164.2467,1414.1484 1152.2694,1431.3921 1142.1118,1431.3921 1150.4954,1419.3192 1129.7562,1419.3192 1129.7562,1408.9734 1150.4954,1408.9734 1142.1118,1396.9016 1152.2694,1396.9016 " /><polygon
       id="polygon4669"
       points="1682.3483,1444.0398 1666.4116,1466.9838 1652.8961,1466.9838 1664.0513,1450.9199 1636.4562,1450.9199 1636.4562,1437.1539 1664.0513,1437.1539 1652.8961,1421.0916 1666.4116,1421.0916 " /><polygon
       id="polygon4671"
       points="1702.5372,793.5259 1692.645,807.7678 1684.2556,807.7678 1691.1798,797.7966 1674.0509,797.7966 1674.0509,789.2518 1691.1798,789.2518 1684.2556,779.2815 1692.645,779.2815 " /><polygon
       id="polygon4673"
       points="1313.9258,605.0817 1301.9203,622.3657 1291.7389,622.3657 1300.1422,610.2646 1279.3544,610.2646 1279.3544,599.8945 1300.1422,599.8945 1291.7389,587.7944 1301.9203,587.7944 " /><polygon
       id="polygon4675"
       points="879.8331,773.4159 863.1852,797.3837 849.0667,797.3837 860.7195,780.6031 831.8931,780.6031 831.8931,766.2228 860.7195,766.2228 849.0667,749.4437 863.1852,749.4437 " /><polygon
       id="polygon4677"
       points="1558.5406,187.1328 1548.6483,201.3747 1540.2589,201.3747 1547.1832,191.4035 1530.0543,191.4035 1530.0543,182.8587 1547.1832,182.8587 1540.2589,172.8884 1548.6483,172.8884 " /><polygon
       id="polygon4679"
       points="738.5385,813.7227 727.5029,829.6105 718.144,829.6105 725.8684,818.4869 706.7599,818.4869 706.7599,808.9545 725.8684,808.9545 718.144,797.832 727.5029,797.832 " /><polygon
       id="polygon4681"
       points="1132.1099,1031.4153 1121.8843,1046.1371 1113.2123,1046.1371 1120.3698,1035.8298 1102.6637,1035.8298 1102.6637,1026.9972 1120.3698,1026.9972 1113.2123,1016.6909 1121.8843,1016.6909 " /><polygon
       id="polygon4683"
       points="1635.8685,1245.1113 1625.4261,1260.1453 1616.5702,1260.1453 1623.8795,1249.6195 1605.7979,1249.6195 1605.7979,1240.5995 1623.8795,1240.5995 1616.5702,1230.0747 1625.4261,1230.0747 " /><polygon
       id="polygon4685"
       points="1365.8312,227.2244 1355.939,241.4662 1347.5496,241.4662 1354.4738,231.4951 1337.3448,231.4951 1337.3448,222.9502 1354.4738,222.9502 1347.5496,212.9799 1355.939,212.9799 " /><polygon
       id="polygon4687"
       points="1557.5793,513.7543 1547.0748,528.8776 1538.1661,528.8776 1545.5189,518.2892 1527.33,518.2892 1527.33,509.2155 1545.5189,509.2155 1538.1661,498.6282 1547.0748,498.6282 " /><polygon
       id="polygon4689"
       points="1576.0897,1396.6915 1566.0392,1411.1613 1557.5155,1411.1613 1564.5505,1401.0305 1547.1476,1401.0305 1547.1476,1392.349 1564.5505,1392.349 1557.5155,1382.2191 1566.0392,1382.2191 " /><polygon
       id="polygon4691"
       points="1770.4436,617.0984 1759.2859,633.1622 1749.8232,633.1622 1757.6333,621.9154 1738.3131,621.9154 1738.3131,612.2774 1757.6333,612.2774 1749.8232,601.0317 1759.2859,601.0317 " /><polygon
       id="polygon4693"
       points="1177.0591,39.3166 1167.1667,53.5584 1158.7775,53.5584 1165.7017,43.5872 1148.5728,43.5872 1148.5728,35.0424 1165.7017,35.0424 1158.7775,25.0721 1167.1667,25.0721 " /><polygon
       id="polygon4695"
       points="1438.6913,1432.6077 1423.599,1454.3361 1410.7996,1454.3361 1421.3636,1439.1233 1395.2306,1439.1233 1395.2306,1426.0867 1421.3636,1426.0867 1410.7996,1410.8754 1423.599,1410.8754 " /><polygon
       id="polygon4697"
       points="1287.5896,1440.6064 1273.4342,1460.9861 1261.4292,1460.9861 1271.3375,1446.7175 1246.8267,1446.7175 1246.8267,1434.4902 1271.3375,1434.4902 1261.4292,1420.223 1273.4342,1420.223 " /><polygon
       id="polygon4699"
       points="1177.0137,902.452 1165.0516,919.6738 1154.9069,919.6738 1163.2799,907.6163 1142.567,907.6163 1142.567,897.2836 1163.2799,897.2836 1154.9069,885.2272 1165.0516,885.2272 " /><polygon
       id="polygon4701"
       points="1340.0493,1013.343 1317.5933,1045.6729 1298.549,1045.6729 1314.2673,1023.0377 1275.3838,1023.0377 1275.3838,1003.6404 1314.2673,1003.6404 1298.549,981.0073 1317.5933,981.0073 " /><polygon
       id="polygon4703"
       points="1626.1865,152.7791 1616.2943,167.021 1607.9049,167.021 1614.8291,157.0498 1597.7002,157.0498 1597.7002,148.5049 1614.8291,148.5049 1607.9049,138.5346 1616.2943,138.5346 " /><polygon
       id="polygon4705"
       points="531.6163,587.8277 521.5048,602.3851 512.9296,602.3851 520.0072,592.193 502.4988,592.193 502.4988,583.4588 520.0072,583.4588 512.9296,573.2676 521.5048,573.2676 " /><polygon
       id="polygon4707"
       points="1051.7532,1471.0801 1041.3949,1485.9928 1032.6104,1485.9928 1039.8607,1475.5519 1021.925,1475.5519 1021.925,1466.6046 1039.8607,1466.6046 1032.6104,1456.1647 1041.3949,1456.1647 " /><polygon
       id="polygon4709"
       points="2264.3799,855.5912 2244.3333,884.4523 2227.332,884.4523 2241.364,864.2457 2206.6523,864.2457 2206.6523,846.9296 2241.364,846.9296 2227.332,826.7247 2244.3333,826.7247 " /><polygon
       id="polygon4711"
       points="1630.4987,1278.799 1616.4093,1299.0834 1604.4604,1299.0834 1614.3225,1284.8816 1589.926,1284.8816 1589.926,1272.7113 1614.3225,1272.7113 1604.4604,1258.5107 1616.4093,1258.5107 " /><polygon
       id="polygon4713"
       points="1305.4961,1226.7412 1283.9471,1257.7651 1265.6721,1257.7651 1280.7555,1236.0442 1243.4426,1236.0442 1243.4426,1217.4305 1280.7555,1217.4305 1265.6721,1195.7117 1283.9471,1195.7117 " /><polygon
       id="polygon4715"
       points="52.221,872.3969 42.3288,886.6387 33.9394,886.6387 40.8636,876.6675 23.7347,876.6675 23.7347,868.1227 40.8636,868.1227 33.9394,858.1524 42.3288,858.1524 " /><polygon
       id="polygon4717"
       points="1289.9409,1474.1736 1280.0486,1488.4154 1271.6593,1488.4154 1278.5835,1478.4442 1261.4546,1478.4442 1261.4546,1469.8994 1278.5835,1469.8994 1271.6593,1459.9291 1280.0486,1459.9291 " /><polygon
       id="polygon4719"
       points="1339.0282,257.0123 1329.1359,271.2541 1320.7466,271.2541 1327.6708,261.2829 1310.5419,261.2829 1310.5419,252.7381 1327.6708,252.7381 1320.7466,242.7678 1329.1359,242.7678 " /><polygon
       id="polygon4721"
       points="1095.3143,630.1564 1085.422,644.3983 1077.0326,644.3983 1083.9569,634.4271 1066.828,634.4271 1066.828,625.8822 1083.9569,625.8822 1077.0326,615.9119 1085.422,615.9119 " /><polygon
       id="polygon4723"
       points="542.6309,800.5405 532.7386,814.7824 524.3492,814.7824 531.2734,804.8112 514.1445,804.8112 514.1445,796.2664 531.2734,796.2664 524.3492,786.2961 532.7386,786.2961 " /><polygon
       id="polygon4725"
       points="1529.8088,235.0137 1515.6583,255.3863 1503.6576,255.3863 1513.5624,241.1228 1489.0601,241.1228 1489.0601,228.8997 1513.5624,228.8997 1503.6576,214.6375 1515.6583,214.6375 " /><polygon
       id="polygon4727"
       points="1057.9053,916.4835 1046.2472,933.2676 1036.3602,933.2676 1044.5205,921.5165 1024.334,921.5165 1024.334,911.4463 1044.5205,911.4463 1036.3602,899.6962 1046.2472,899.6962 " /><polygon
       id="polygon4729"
       points="1887.5442,384.8561 1876.4091,400.8874 1866.9657,400.8874 1874.7599,389.6634 1855.4789,389.6634 1855.4789,380.045 1874.7599,380.045 1866.9657,368.822 1876.4091,368.822 " /><polygon
       id="polygon4731"
       points="1930.2499,753.7262 1919.4745,769.2394 1910.3362,769.2394 1917.8785,758.3781 1899.2205,758.3781 1899.2205,749.0704 1917.8785,749.0704 1910.3362,738.2101 1919.4745,738.2101 " /><polygon
       id="polygon4733"
       points="978.382,1593.1135 968.4897,1607.3553 960.1003,1607.3553 967.0245,1597.3842 949.8956,1597.3842 949.8956,1588.8394 967.0245,1588.8394 960.1003,1578.869 968.4897,1578.869 " /><polygon
       id="polygon4735"
       points="417.3227,911.9574 407.4304,926.1993 399.0411,926.1993 405.9653,916.2281 388.8364,916.2281 388.8364,907.6832 405.9653,907.6832 399.0411,897.713 407.4304,897.713 " /><polygon
       id="polygon4737"
       points="53.7048,808.4207 41.5782,825.8794 31.2939,825.8794 39.7821,813.656 18.7843,813.656 18.7843,803.1812 39.7821,803.1812 31.2939,790.9589 41.5782,790.9589 " /><polygon
       id="polygon4739"
       points="839.5402,815.3776 829.6479,829.6194 821.2585,829.6194 828.1827,819.6483 811.0538,819.6483 811.0538,811.1034 828.1827,811.1034 821.2585,801.1331 829.6479,801.1331 " /><polygon
       id="polygon4741"
       points="1433.2085,1062.1796 1422.1426,1078.111 1412.7579,1078.111 1420.5037,1066.9569 1401.3427,1066.9569 1401.3427,1057.3983 1420.5037,1057.3983 1412.7579,1046.2451 1422.1426,1046.2451 " /><polygon
       id="polygon4743"
       points="1131.8958,46.3736 1116.667,68.2983 1103.752,68.2983 1114.4114,52.9481 1088.0421,52.9481 1088.0421,39.7937 1114.4114,39.7937 1103.752,24.4448 1116.667,24.4448 " /><polygon
       id="polygon4745"
       points="1542.7476,555.8803 1525.0355,581.3802 1510.0145,581.3802 1522.4122,563.5269 1491.7432,563.5269 1491.7432,548.2274 1522.4122,548.2274 1510.0145,530.3757 1525.0355,530.3757 " /><polygon
       id="polygon4747"
       points="1800.9237,1053.7991 1791.0314,1068.041 1782.6421,1068.041 1789.5663,1058.0698 1772.4374,1058.0698 1772.4374,1049.5249 1789.5663,1049.5249 1782.6421,1039.5547 1791.0314,1039.5547 " /><polygon
       id="polygon4749"
       points="1843.6322,359.4893 1820.0803,393.3968 1800.1066,393.3968 1816.592,369.657 1775.8109,369.657 1775.8109,349.3131 1816.592,349.3131 1800.1066,325.5755 1820.0803,325.5755 " /><polygon
       id="polygon4751"
       points="1072.3494,864.5317 1062.375,878.8917 1053.916,878.8917 1060.8977,868.8378 1043.6267,868.8378 1043.6267,860.222 1060.8977,860.222 1053.916,850.169 1062.375,850.169 " /><polygon
       id="polygon4753"
       points="1627.4987,1455.6389 1617.6064,1469.8807 1609.217,1469.8807 1616.1412,1459.9095 1599.0123,1459.9095 1599.0123,1451.3647 1616.1412,1451.3647 1609.217,1441.3944 1617.6064,1441.3944 " /><polygon
       id="polygon4755"
       points="856.5208,926.4875 841.6765,947.8589 829.0873,947.8589 839.4778,932.8961 813.7742,932.8961 813.7742,920.0737 839.4778,920.0737 829.0873,905.1122 841.6765,905.1122 " /><polygon
       id="polygon4757"
       points="643.8836,810.676 633.9913,824.9178 625.6019,824.9178 632.5262,814.9467 615.3973,814.9467 615.3973,806.4019 632.5262,806.4019 625.6019,796.4315 633.9913,796.4315 " /><polygon
       id="polygon4759"
       points="1079.6401,1431.9746 1069.6791,1446.3154 1061.2314,1446.3154 1068.2037,1436.275 1050.9558,1436.275 1050.9558,1427.6708 1068.2037,1427.6708 1061.2314,1417.6312 1069.6791,1417.6312 " /><polygon
       id="polygon4761"
       points="1628.7185,967.8422 1617.6073,983.8389 1608.1842,983.8389 1615.9615,972.639 1596.722,972.639 1596.722,963.0413 1615.9615,963.0413 1608.1842,951.8425 1617.6073,951.8425 " /><polygon
       id="polygon4763"
       points="1384.1211,1386.7001 1367.5095,1410.6157 1353.4216,1410.6157 1365.0492,1393.8716 1336.2854,1393.8716 1336.2854,1379.5227 1365.0492,1379.5227 1353.4216,1362.78 1367.5095,1362.78 " /><polygon
       id="polygon4765"
       points="1064.47,804.2902 1053.8901,819.522 1044.9176,819.522 1052.3231,808.8577 1034.0035,808.8577 1034.0035,799.7189 1052.3231,799.7189 1044.9176,789.0556 1053.8901,789.0556 " /><polygon
       id="polygon4767"
       points="1459.3051,1030.9583 1449.4128,1045.2002 1441.0234,1045.2002 1447.9476,1035.229 1430.8187,1035.229 1430.8187,1026.6841 1447.9476,1026.6841 1441.0234,1016.7138 1449.4128,1016.7138 " /><polygon
       id="polygon4769"
       points="1005.9514,910.3033 988.6234,935.2502 973.9281,935.2502 986.057,917.7841 956.0529,917.7841 956.0529,902.8164 986.057,902.8164 973.9281,885.3518 988.6234,885.3518 " /><polygon
       id="polygon4771"
       points="975.0461,1013.3423 957.7182,1038.2893 943.0228,1038.2893 955.1517,1020.8231 925.1476,1020.8231 925.1476,1005.8554 955.1517,1005.8554 943.0228,988.3908 957.7182,988.3908 " /><polygon
       id="polygon4773"
       points="1333.459,776.3004 1323.5667,790.5422 1315.1774,790.5422 1322.1016,780.571 1304.9727,780.571 1304.9727,772.0262 1322.1016,772.0262 1315.1774,762.0559 1323.5667,762.0559 " /><polygon
       id="polygon4775"
       points="1084.7933,774.426 1071.6377,793.3662 1060.4807,793.3662 1069.6892,780.1056 1046.9097,780.1056 1046.9097,768.7419 1069.6892,768.7419 1060.4807,755.4824 1071.6377,755.4824 " /><polygon
       id="polygon4777"
       points="1743.4103,1322.3306 1733.5179,1336.5724 1725.1287,1336.5724 1732.0529,1326.6012 1714.924,1326.6012 1714.924,1318.0564 1732.0529,1318.0564 1725.1287,1308.0861 1733.5179,1308.0861 " /><polygon
       id="polygon4779"
       points="1410.6012,479.7365 1400.709,493.9784 1392.3196,493.9784 1399.2438,484.0072 1382.1149,484.0072 1382.1149,475.4624 1399.2438,475.4624 1392.3196,465.4921 1400.709,465.4921 " /><polygon
       id="polygon4781"
       points="1062.5076,738.0434 1052.6152,752.2853 1044.226,752.2853 1051.1501,742.3141 1034.0212,742.3141 1034.0212,733.7692 1051.1501,733.7692 1044.226,723.799 1052.6152,723.799 " /><polygon
       id="polygon4783"
       points="478.0915,800.3068 463.3425,821.5409 450.8343,821.5409 461.1581,806.6743 435.6195,806.6743 435.6195,793.9342 461.1581,793.9342 450.8343,779.0689 463.3425,779.0689 " /><polygon
       id="polygon4785"
       points="317.0915,790.3068 302.3425,811.5409 289.8343,811.5409 300.1581,796.6743 274.6195,796.6743 274.6195,783.9342 300.1581,783.9342 289.8343,769.0689 302.3425,769.0689 " /><polygon
       id="polygon4787"
       points="409.0915,857.3068 394.3425,878.5409 381.8343,878.5409 392.1581,863.6743 366.6195,863.6743 366.6195,850.9342 392.1581,850.9342 381.8343,836.0689 394.3425,836.0689 " /><polygon
       id="polygon4789"
       points="342.0915,843.3068 327.3425,864.5409 314.8343,864.5409 325.1581,849.6743 299.6195,849.6743 299.6195,836.9342 325.1581,836.9342 314.8343,822.0689 327.3425,822.0689 " /><polygon
       id="polygon4791"
       points="308.0915,909.3068 293.3425,930.5409 280.8343,930.5409 291.1581,915.6743 265.6195,915.6743 265.6195,902.9342 291.1581,902.9342 280.8343,888.0689 293.3425,888.0689 " /><polygon
       id="polygon4793"
       points="229.0915,917.3068 214.3425,938.5409 201.8343,938.5409 212.158,923.6743 186.6195,923.6743 186.6195,910.9342 212.158,910.9342 201.8343,896.0689 214.3425,896.0689 " /></g></svg>