<?xml version="1.0" encoding="UTF-8" standalone="no"?>
<!-- Generator: Adobe Illustrator 16.0.4, SVG Export Plug-In . SVG Version: 6.00 Build 0)  -->

<svg
   xmlns:dc="http://purl.org/dc/elements/1.1/"
   xmlns:cc="http://creativecommons.org/ns#"
   xmlns:rdf="http://www.w3.org/1999/02/22-rdf-syntax-ns#"
   xmlns:svg="http://www.w3.org/2000/svg"
   xmlns="http://www.w3.org/2000/svg"
   xmlns:sodipodi="http://sodipodi.sourceforge.net/DTD/sodipodi-0.dtd"
   xmlns:inkscape="http://www.inkscape.org/namespaces/inkscape"
   version="1.1"
   id="Capa_1"
   x="0px"
   y="0px"
   width="512px"
   height="512px"
   viewBox="0 0 512 512"
   enable-background="new 0 0 512 512"
   xml:space="preserve"
   inkscape:version="0.48.4 r9939"
   sodipodi:docname="wink2.svg"><metadata
     id="metadata9"><rdf:RDF><cc:Work
         rdf:about=""><dc:format>image/svg+xml</dc:format><dc:type
           rdf:resource="http://purl.org/dc/dcmitype/StillImage" /></cc:Work></rdf:RDF></metadata><defs
     id="defs7" /><sodipodi:namedview
     pagecolor="#ffffff"
     bordercolor="#666666"
     borderopacity="1"
     objecttolerance="10"
     gridtolerance="10"
     guidetolerance="10"
     inkscape:pageopacity="0"
     inkscape:pageshadow="2"
     inkscape:window-width="751"
     inkscape:window-height="480"
     id="namedview5"
     showgrid="false"
     inkscape:zoom="0.4609375"
     inkscape:cx="256"
     inkscape:cy="256"
     inkscape:window-x="330"
     inkscape:window-y="369"
     inkscape:window-maximized="0"
     inkscape:current-layer="Capa_1" /><path
     d="M256,0C114.615,0,0,114.614,0,256c0,141.385,114.614,256,256,256c141.385,0,256-114.615,256-256  C512,114.614,397.385,0,256,0z M352,128c17.673,0,32,21.49,32,48s-14.327,48-32,48s-32-21.49-32-48S334.327,128,352,128z   M176,156.031c29.823,0,51,11.166,51,28.641c0,3.699,1.906,21.497-0.085,24.797c-7.414-12.288-27.405-21.094-50.915-21.094  s-43.501,8.806-50.915,21.094c-1.991-3.3-0.085-21.098-0.085-24.797C125,167.197,146.177,156.031,176,156.031z M250.172,416  c-59.621,0-111.929-32.141-141.446-80.477c35.205,27.531,97.267,32.906,162.644,19.99c70.124-13.854,124.555-45.771,144.227-88.298  C404.77,351.195,334.838,416,250.172,416z"
     id="path3"
     style="fill:#fbdc1a;fill-opacity:1;stroke:#f64400;stroke-opacity:1;stroke-width:17.6;stroke-miterlimit:4;stroke-dasharray:none" /></svg>