<?xml version="1.0" encoding="UTF-8" standalone="no"?>
<!-- Generator: Adobe Illustrator 16.0.0, SVG Export Plug-In . SVG Version: 6.00 Build 0)  -->

<svg
   xmlns:osb="http://www.openswatchbook.org/uri/2009/osb"
   xmlns:dc="http://purl.org/dc/elements/1.1/"
   xmlns:cc="http://creativecommons.org/ns#"
   xmlns:rdf="http://www.w3.org/1999/02/22-rdf-syntax-ns#"
   xmlns:svg="http://www.w3.org/2000/svg"
   xmlns="http://www.w3.org/2000/svg"
   xmlns:xlink="http://www.w3.org/1999/xlink"
   xmlns:sodipodi="http://sodipodi.sourceforge.net/DTD/sodipodi-0.dtd"
   xmlns:inkscape="http://www.inkscape.org/namespaces/inkscape"
   version="1.1"
   id="Layer_1"
   x="0px"
   y="0px"
   width="96px"
   height="96px"
   viewBox="0 0 96 96"
   enable-background="new 0 0 96 96"
   xml:space="preserve"
   inkscape:version="0.48.4 r9939"
   sodipodi:docname="world89.svg"><metadata
     id="metadata9"><rdf:RDF><cc:Work
         rdf:about=""><dc:format>image/svg+xml</dc:format><dc:type
           rdf:resource="http://purl.org/dc/dcmitype/StillImage" /></cc:Work></rdf:RDF></metadata><defs
     id="defs7"><linearGradient
       inkscape:collect="always"
       id="linearGradient5206"
       osb:paint="gradient"><stop
         style="stop-color:#f48200;stop-opacity:1;"
         offset="0"
         id="stop5208" /><stop
         style="stop-color:#f48200;stop-opacity:0;"
         offset="1"
         id="stop5210" /></linearGradient><radialGradient
       inkscape:collect="always"
       xlink:href="#linearGradient5206"
       id="radialGradient5216"
       cx="48"
       cy="48"
       fx="48"
       fy="48"
       r="48.138"
       gradientTransform="matrix(1,0,0,0.88566205,0,5.4882214)"
       gradientUnits="userSpaceOnUse" /></defs><sodipodi:namedview
     pagecolor="#ffffff"
     bordercolor="#666666"
     borderopacity="1"
     objecttolerance="10"
     gridtolerance="10"
     guidetolerance="10"
     inkscape:pageopacity="0"
     inkscape:pageshadow="2"
     inkscape:window-width="640"
     inkscape:window-height="480"
     id="namedview5"
     showgrid="false"
     inkscape:zoom="2.4583333"
     inkscape:cx="48"
     inkscape:cy="48"
     inkscape:window-x="0"
     inkscape:window-y="0"
     inkscape:window-maximized="0"
     inkscape:current-layer="Layer_1" /><path
     d="M88.51,37.542C83.854,19.519,67.458,6.166,48,6.166S12.146,19.519,7.49,37.542H0.662v20.917H7.49  C12.146,76.481,28.542,89.834,48,89.834s35.854-13.353,40.51-31.375h6.828V37.542H88.51z M82.586,62.268  c-3.323,1.411-8.345-2.205-11.468,1.329s-1.468,4.77-4.404,11.192c-2.936,6.422,1.101-8.256-9.908-5.688  c-8.124,1.896-1.463,10.281,2.587,14.548C55.8,84.801,51.973,85.431,48,85.431c-5.415,0-10.562-1.16-15.212-3.239  c0.171-1.056-0.284-2.73-2.035-5.385c-5.321-8.073,0.917-0.734,0-9.725c-0.78-7.641-13.747-6.138-17.623-5.515  c-0.397-1.016-0.755-2.052-1.063-3.109h71.866C83.553,59.76,83.099,61.029,82.586,62.268z M19.377,40.712h3.526l1.103,6.012  c0.324,1.73,0.627,3.611,0.864,5.082h0.043c0.239-1.578,0.584-3.33,0.952-5.125l1.232-5.969h3.504l1.167,6.142  c0.324,1.708,0.562,3.266,0.778,4.887h0.044c0.215-1.621,0.541-3.331,0.843-5.061l1.188-5.969h3.353l-3.763,14.576h-3.569  l-1.233-6.271c-0.28-1.471-0.52-2.834-0.692-4.5h-0.042c-0.261,1.644-0.499,3.029-0.843,4.5l-1.385,6.271h-3.612L19.377,40.712z   M38.7,40.712h3.525l1.102,6.012c0.326,1.73,0.629,3.611,0.867,5.082h0.042c0.237-1.578,0.584-3.33,0.953-5.125l1.232-5.969h3.502  l1.167,6.142c0.326,1.708,0.564,3.266,0.778,4.887h0.044c0.216-1.621,0.541-3.331,0.844-5.061l1.19-5.969h3.351l-3.763,14.576  h-3.568l-1.232-6.271c-0.282-1.471-0.519-2.834-0.692-4.5H48c-0.259,1.644-0.497,3.029-0.844,4.5l-1.384,6.271H42.16L38.7,40.712z   M58.023,40.712h3.525l1.103,6.012c0.326,1.73,0.629,3.611,0.866,5.082h0.042c0.238-1.578,0.585-3.33,0.953-5.125l1.232-5.969h3.503  l1.167,6.142c0.326,1.708,0.563,3.266,0.78,4.887h0.042c0.217-1.621,0.541-3.331,0.843-5.061l1.188-5.969h3.354l-3.764,14.576  h-3.567l-1.232-6.271c-0.282-1.471-0.52-2.834-0.692-4.5h-0.044c-0.258,1.644-0.496,3.029-0.843,4.5l-1.384,6.271h-3.612  L58.023,40.712z M12.067,37.542c2.607-8.941,8.468-16.505,16.206-21.328c2.455,1.05,7.322,4.054,7.067,9.402  C34.973,33.322,48,23.597,48,23.597s6.055-4.771,9.174,2.936c1.879,4.642,3.98-9.292,7.798-11.878  c1.057,0.541,2.087,1.126,3.083,1.762l0.396,0.257c7.379,4.838,12.956,12.208,15.481,20.868H12.067z"
     id="path3"
     style="fill:url(#radialGradient5216);fill-opacity:1;stroke:#830800;stroke-width:0.9;stroke-miterlimit:4;stroke-dasharray:none;stroke-opacity:1" /></svg>