<?xml version="1.0" encoding="UTF-8" standalone="no"?>
<!-- Generator: Adobe Illustrator 16.0.4, SVG Export Plug-In . SVG Version: 6.00 Build 0)  -->

<svg
   xmlns:dc="http://purl.org/dc/elements/1.1/"
   xmlns:cc="http://creativecommons.org/ns#"
   xmlns:rdf="http://www.w3.org/1999/02/22-rdf-syntax-ns#"
   xmlns:svg="http://www.w3.org/2000/svg"
   xmlns="http://www.w3.org/2000/svg"
   xmlns:sodipodi="http://sodipodi.sourceforge.net/DTD/sodipodi-0.dtd"
   xmlns:inkscape="http://www.inkscape.org/namespaces/inkscape"
   version="1.1"
   id="Layer_1"
   x="0px"
   y="0px"
   width="500px"
   height="500px"
   viewBox="0 0 500 500"
   enable-background="new 0 0 500 500"
   xml:space="preserve"
   inkscape:version="0.48.4 r9939"
   sodipodi:docname="wristwatch8.svg"><metadata
     id="metadata4834"><rdf:RDF><cc:Work
         rdf:about=""><dc:format>image/svg+xml</dc:format><dc:type
           rdf:resource="http://purl.org/dc/dcmitype/StillImage" /></cc:Work></rdf:RDF></metadata><defs
     id="defs4832" /><sodipodi:namedview
     pagecolor="#ffffff"
     bordercolor="#666666"
     borderopacity="1"
     objecttolerance="10"
     gridtolerance="10"
     guidetolerance="10"
     inkscape:pageopacity="0"
     inkscape:pageshadow="2"
     inkscape:window-width="640"
     inkscape:window-height="480"
     id="namedview4830"
     showgrid="false"
     inkscape:zoom="0.472"
     inkscape:cx="250"
     inkscape:cy="250"
     inkscape:window-x="0"
     inkscape:window-y="0"
     inkscape:window-maximized="0"
     inkscape:current-layer="Layer_1" /><path
     d="M213.637,129.332c0-11.027,8.965-19.953,19.953-19.953s19.953,8.926,19.953,19.953s-8.965,19.953-19.953,19.953  S213.637,140.359,213.637,129.332z M233.59,351.562c-10.184,0-18.488,8.27-18.488,18.488s8.305,18.488,18.488,18.488  s18.488-8.27,18.488-18.488S243.773,351.562,233.59,351.562z M114.324,231.184c-10.184,0-18.488,8.305-18.488,18.488  c0,10.219,8.305,18.488,18.488,18.488c10.254,0,18.488-8.27,18.488-18.488C132.812,239.492,124.578,231.184,114.324,231.184z   M333.141,249.676c0,10.488,8.527,18.977,18.977,18.977c10.527,0,18.977-8.488,18.977-18.977c0-10.453-8.449-18.977-18.977-18.977  C341.664,230.695,333.141,239.223,333.141,249.676z M242.188,226.742v-4.734h-11.719v4.734c-5.785,1.641-10.57,5.633-13.262,10.891  h-49.238v19.531h49.238c2.691,5.258,7.477,9.25,13.262,10.891v71.141h11.719v-71.145c5.785-1.637,10.57-5.633,13.262-10.891h14.082  v-19.531h-14.082C252.758,232.375,247.973,228.379,242.188,226.742z M484.375,214.844v70.312H437.5v-19.922h-18.531  c-3.223,38.016-17.141,72.965-39.691,101.105c-5.043,34.008-21.211,90.691-21.211,90.691l-41.984,41.598H148.113l-39-41.598  c0,0-16.105-56.652-21.152-90.688c-25.648-31.973-41.086-72.48-41.086-116.668s15.438-84.699,41.086-116.668  c5.047-34.039,21.152-90.039,21.152-90.039l39.445-42.25h167.969l41.539,42.25c0,0,16.168,56.031,21.211,90.066  c22.551,28.113,36.469,63.059,39.691,101.078H437.5v-19.27H484.375z M385.281,249.672c0-83.641-68.023-151.691-151.691-151.691  c-83.609,0-151.691,68.055-151.691,151.691S149.98,401.363,233.59,401.363C317.258,401.363,385.281,333.312,385.281,249.672z   M182.938,192.057l-37.742-37.741l-11.048,11.048l37.742,37.742L182.938,192.057z M333.613,164.945l-11.473-10.609l-34.695,37.516  l11.473,10.609L333.613,164.945z M134.133,339.192l11.048,11.049l37.739-37.739l-11.048-11.048L134.133,339.192z M287.439,312.736  l34.692,37.508l11.471-10.609l-34.692-37.508L287.439,312.736z"
     id="path4828"
     style="fill:#04ae03;fill-opacity:1" /></svg>