<?xml version="1.0" encoding="UTF-8" standalone="no"?>
<!-- Generator: Adobe Illustrator 16.0.0, SVG Export Plug-In . SVG Version: 6.00 Build 0)  -->

<svg
   xmlns:dc="http://purl.org/dc/elements/1.1/"
   xmlns:cc="http://creativecommons.org/ns#"
   xmlns:rdf="http://www.w3.org/1999/02/22-rdf-syntax-ns#"
   xmlns:svg="http://www.w3.org/2000/svg"
   xmlns="http://www.w3.org/2000/svg"
   xmlns:sodipodi="http://sodipodi.sourceforge.net/DTD/sodipodi-0.dtd"
   xmlns:inkscape="http://www.inkscape.org/namespaces/inkscape"
   version="1.1"
   id="Layer_6"
   x="0px"
   y="0px"
   width="100px"
   height="100px"
   viewBox="0 0 100 100"
   enable-background="new 0 0 100 100"
   xml:space="preserve"
   inkscape:version="0.48.4 r9939"
   sodipodi:docname="writetableTODB.svg"><metadata
     id="metadata9"><rdf:RDF><cc:Work
         rdf:about=""><dc:format>image/svg+xml</dc:format><dc:type
           rdf:resource="http://purl.org/dc/dcmitype/StillImage" /><dc:title /></cc:Work></rdf:RDF></metadata><defs
     id="defs7" /><sodipodi:namedview
     pagecolor="#ffffff"
     bordercolor="#666666"
     borderopacity="1"
     objecttolerance="10"
     gridtolerance="10"
     guidetolerance="10"
     inkscape:pageopacity="0"
     inkscape:pageshadow="2"
     inkscape:window-width="1498"
     inkscape:window-height="1057"
     id="namedview5"
     showgrid="false"
     inkscape:zoom="4.0959404"
     inkscape:cx="42.960444"
     inkscape:cy="61.77786"
     inkscape:window-x="1695"
     inkscape:window-y="116"
     inkscape:window-maximized="0"
     inkscape:current-layer="Layer_6" /><path
     id="path4067"
     d="m 63.196005,71.216303 h -5.862733 l -0.818131,0.338408 c -0.639199,0.263958 -1.311812,0.398192 -1.998438,0.398192 -0.936702,0 -1.847532,-0.266214 -2.650573,-0.7366 h -9.324969 v -9.462991 h 8.432463 L 53.090632,58.87121 H 42.541161 V 48.880302 H 60.42902 l 2.117006,-2.880973 H 42.540083 V 35.191732 h 20.655922 v 9.922099 l 2.754051,-3.748424 v -6.173675 h 4.534752 l 0.92161,-1.25549 c 0.519552,-0.700503 1.165217,-1.248723 1.888493,-1.626611 H 65.950056 V 21.742304 h 21.189486 v 10.567327 h -9.012377 c 0.734055,0.379016 1.386188,0.928364 1.89496,1.616459 l 0.929155,1.265642 h 6.188262 v 8.42521 l 2.754051,3.748424 V 9.1738615 c 0,-1.8533436 -1.441161,-3.3615118 -3.212161,-3.3615118 H 7.1222306 c -1.7720786,0 -3.2121617,1.5092965 -3.2121617,3.3615118 V 82.825926 c 0,1.138176 0.5464986,2.142117 1.3764866,2.75125 v 0.530172 h 1.1522821 c 0.2209713,0.04963 0.4484094,0.08009 0.683393,0.08009 H 64.656567 V 68.188689 l -1.459485,0.603492 v 2.424123 z M 65.950056,8.6933234 h 20.730298 c 0.25223,0 0.459188,0.2154525 0.459188,0.4805381 V 18.86133 H 65.950056 V 8.6933234 z m -23.409973,0 H 63.196005 V 18.86133 H 42.540083 V 8.6933234 z m 0,13.0489806 H 63.196005 V 32.309631 H 42.540083 V 21.742304 z M 16.607808,83.224118 H 6.8840131 C 6.7546642,83.140649 6.6630428,82.996258 6.6630428,82.824797 v -8.726392 h 9.9447652 v 9.125713 z m 0,-12.007815 H 6.6630428 v -9.462991 h 9.9447652 v 9.462991 z m 0,-12.343964 H 6.6630428 V 48.88143 h 9.9447652 v 9.990909 z m 0,-12.87301 H 6.6630428 V 35.191732 h 9.9447652 v 10.807597 z m 0,-13.689698 H 6.6630428 V 21.742304 H 16.607808 V 32.309631 z M 39.786032,83.224118 H 19.360781 v -9.125713 h 20.425251 v 9.125713 z m 0,-12.007815 H 19.360781 v -9.462991 h 20.425251 v 9.462991 z m 0,-12.343964 H 19.360781 V 48.88143 h 20.425251 v 9.990909 z m 0,-12.87301 H 19.360781 V 35.191732 h 20.425251 v 10.807597 z m 0,-13.689698 H 19.360781 V 21.742304 h 20.425251 v 10.567327 z m 0,-13.449429 H 19.360781 V 8.692195 H 39.786032 V 18.860202 z M 63.196005,83.224118 H 42.540083 v -9.125713 h 20.655922 v 9.125713 z M 98.037177,64.572243 c 0,0.250421 -0.07546,0.498587 -0.226361,0.708399 -0.302892,0.421881 -0.842922,0.580932 -1.311812,0.385785 L 82.461427,59.863871 v 34.009921 c 0,0.650869 -0.503382,1.176529 -1.126412,1.176529 H 70.085982 c -0.620874,0 -1.125333,-0.526787 -1.125333,-1.177657 V 59.862743 l -14.036498,5.803684 c -0.472123,0.195147 -1.008921,0.03609 -1.31289,-0.385785 -0.30397,-0.423009 -0.302892,-1.006198 0.0075,-1.426951 L 74.817993,34.994328 c 0.214502,-0.288773 0.544342,-0.459105 0.893584,-0.459105 0.348164,0 0.679081,0.170332 0.892506,0.459105 l 21.199188,28.859363 c 0.155218,0.212069 0.233906,0.465875 0.233906,0.718552 z"
     inkscape:connector-curvature="0" /><g
     id="g3172"
     transform="matrix(1.7599593,0,0,1.7424756,23.106347,6.5091908)"
     style="fill:#6a0000;fill-opacity:1;stroke:#8c2b00;stroke-opacity:1"><path
       id="path3128"
       d="M 11.705,15.953 C 6.211,15.953 1.607,14.339 0.35,12.163 0.129,12.546 0,12.944 0,13.357 v 3.561 c 0,2.751 5.242,4.983 11.705,4.983 6.467,0 11.711,-2.232 11.711,-4.983 v -3.561 c 0,-0.413 -0.131,-0.811 -0.354,-1.194 -1.257,2.175 -5.857,3.79 -11.357,3.79 z"
       inkscape:connector-curvature="0"
       style="fill:#6a0000;fill-opacity:1;stroke:#8c2b00;stroke-opacity:1" /><path
       id="path3130"
       d="M 11.705,23.309 C 6.211,23.309 1.607,21.693 0.35,19.521 0.129,19.902 0,20.3 0,20.712 v 3.564 c 0,2.752 5.242,4.983 11.705,4.983 6.467,0 11.711,-2.23 11.711,-4.983 v -3.564 c 0,-0.412 -0.131,-0.81 -0.354,-1.19 -1.257,2.171 -5.857,3.787 -11.357,3.787 z"
       inkscape:connector-curvature="0"
       style="fill:#6a0000;fill-opacity:1;stroke:#8c2b00;stroke-opacity:1" /><path
       id="path3132"
       d="M 23.096,5.041 C 22.866,7.057 17.864,8.67 11.705,8.67 5.549,8.67 0.547,7.057 0.318,5.042 0.117,5.408 0,5.79 0,6.183 v 3.561 c 0,2.752 5.242,4.983 11.705,4.983 6.467,0 11.711,-2.23 11.711,-4.983 V 6.183 c 0,-0.393 -0.119,-0.775 -0.32,-1.142 z"
       inkscape:connector-curvature="0"
       style="fill:#6a0000;fill-opacity:1;stroke:#8c2b00;stroke-opacity:1" /><path
       id="path3134"
       d="m 11.705,7.54 c 6.303,0 11.41,-1.687 11.41,-3.771 0,-2.082 -5.107,-3.77 -11.41,-3.77 C 5.406,0 0.297,1.688 0.297,3.77 c 0,2.083 5.109,3.77 11.408,3.77 z"
       inkscape:connector-curvature="0"
       style="fill:#6a0000;fill-opacity:1;stroke:#8c2b00;stroke-opacity:1" /><g
       id="g3136"
       style="fill:#6a0000;fill-opacity:1;stroke:#8c2b00;stroke-opacity:1" /><g
       id="g3138"
       style="fill:#6a0000;fill-opacity:1;stroke:#8c2b00;stroke-opacity:1" /><g
       id="g3140"
       style="fill:#6a0000;fill-opacity:1;stroke:#8c2b00;stroke-opacity:1" /><g
       id="g3142"
       style="fill:#6a0000;fill-opacity:1;stroke:#8c2b00;stroke-opacity:1" /><g
       id="g3144"
       style="fill:#6a0000;fill-opacity:1;stroke:#8c2b00;stroke-opacity:1" /><g
       id="g3146"
       style="fill:#6a0000;fill-opacity:1;stroke:#8c2b00;stroke-opacity:1" /><g
       id="g3148"
       style="fill:#6a0000;fill-opacity:1;stroke:#8c2b00;stroke-opacity:1" /><g
       id="g3150"
       style="fill:#6a0000;fill-opacity:1;stroke:#8c2b00;stroke-opacity:1" /><g
       id="g3152"
       style="fill:#6a0000;fill-opacity:1;stroke:#8c2b00;stroke-opacity:1" /><g
       id="g3154"
       style="fill:#6a0000;fill-opacity:1;stroke:#8c2b00;stroke-opacity:1" /><g
       id="g3156"
       style="fill:#6a0000;fill-opacity:1;stroke:#8c2b00;stroke-opacity:1" /><g
       id="g3158"
       style="fill:#6a0000;fill-opacity:1;stroke:#8c2b00;stroke-opacity:1" /><g
       id="g3160"
       style="fill:#6a0000;fill-opacity:1;stroke:#8c2b00;stroke-opacity:1" /><g
       id="g3162"
       style="fill:#6a0000;fill-opacity:1;stroke:#8c2b00;stroke-opacity:1" /><g
       id="g3164"
       style="fill:#6a0000;fill-opacity:1;stroke:#8c2b00;stroke-opacity:1" /></g></svg>